<?xml version="1.0" encoding="utf-8"?>
<!--Designed by Vexels.com - 2018 All Rights Reserved - https://vexels.com/terms-and-conditions/-->
<svg version="1.1" id="Layer_1" xmlns="http://www.w3.org/2000/svg" xmlns:xlink="http://www.w3.org/1999/xlink" x="0px" y="0px"
	 viewBox="0 0 1200 1200" enable-background="new 0 0 1200 1200" xml:space="preserve">
<g>
	<path fill="#5FBAA7" d="M600,50c-220.609,0-399.449,178.839-399.449,399.449c0,106.56,41.989,203.127,109.993,274.748V505.146
		c0-30.619,23.621-55.441,52.756-55.441c29.137,0,52.756,24.822,52.756,55.441l0.4,181.752c0.025,10.705,8.124,19.666,18.772,20.765
		l208.601,21.545c26.762,3.068,47.034,26.822,47.034,55.114v36.422c0,6.108-0.198,11.634-0.3,17.452
		c176.913-41.078,308.888-199.339,308.888-388.748C999.449,228.839,820.609,50,600,50z"/>
	<g>
		<path fill="#2B2B2B" d="M556.697,523.058c-7.502-3.891-15.425-9.202-23.742-15.917c-4.046-3.217-8.598-4.833-13.711-4.833
			c-6.434,0-11.941,2.36-16.521,7.052c-4.552,4.692-6.828,10.143-6.828,16.31c0,7.797,3.625,14.905,10.874,21.354
			c11.267,9.665,22.871,16.914,34.84,21.747c11.941,4.833,25.175,7.923,39.673,9.258v22.562c0,6.982,2.276,12.826,6.856,17.518
			c4.552,4.692,10.199,7.052,16.914,7.052c6.968,0,12.812-2.36,17.504-7.052c4.692-4.692,7.052-10.536,7.052-17.518v-24.978
			c21.747-4.833,39.617-14.358,53.581-28.589c13.964-14.231,20.932-31.693,20.932-52.373c0-23.082-5.9-40.614-17.701-52.555
			c-11.829-11.955-30.766-21.017-56.812-27.198v-74.513c14.779,4.833,26.186,10.607,34.25,17.322
			c3.203,2.416,6.856,3.625,10.874,3.625c6.181,0,11.548-2.346,16.1-7.052c4.58-4.692,6.856-10.129,6.856-16.31
			c0-8.064-3.906-15.172-11.688-21.354c-14.751-12.616-33.576-20.946-56.391-24.964v-14.905c0-6.982-2.276-12.826-6.828-17.533
			c-4.58-4.692-10.227-7.038-16.942-7.038c-6.968,0-12.812,2.346-17.504,7.038c-4.72,4.706-7.052,10.55-7.052,17.533v13.29
			c-23.911,3.217-43.382,12.026-58.414,26.383c-15.032,14.372-22.562,32.691-22.562,54.986c0,44.042,27.001,71.029,80.975,80.961
			v78.545C572.432,529.563,564.227,526.95,556.697,523.058z M629.609,464.04c8.879,3.765,15.453,8.401,19.752,13.894
			c4.271,5.507,6.434,12.026,6.434,19.541c0,6.181-2.416,11.885-7.249,17.125c-4.833,5.226-11.155,9.455-18.937,12.686V464.04z
			 M556.304,390.932c-5.648-5.493-8.457-12.686-8.457-21.55c0-8.05,2.81-14.905,8.457-20.539
			c5.647-5.633,13.964-9.525,24.978-11.674v66.857C570.268,400.808,561.951,396.439,556.304,390.932z"/>
		<path fill="#2B2B2B" d="M647.113,700.617c-0.112-0.014-0.225-0.014-0.337-0.028l-201.568-20.806l-0.393-174.637
			c0-46.43-36.554-84.207-81.509-84.207s-81.537,37.776-81.537,84.207v280.815l-26.383,17.406
			c-37.088,29.151-46.613,83.883-21.719,124.624l58.863,96.218c0.927,1.503,1.967,2.88,3.119,4.144
			c15.032,23.419,40.291,37.65,67.658,37.65h288.078c24.248,0,45.068-18.094,48.467-42.117c1.096-7.797,2.501-16.31,4.018-25.681
			c6.659-40.586,15.762-96.162,15.762-177.461v-36.428C719.631,741.358,688.444,705.379,647.113,700.617z M662.089,820.746
			c0,76.606-8.654,129.527-15.003,168.16c-1.124,6.954-2.192,13.458-3.119,19.555H363.306c-10.059,0-17.252-7.038-20.623-13.627
			c-1.264-2.416-2.81-4.566-4.58-6.434l-55.323-90.444c-9.946-16.254-6.378-37.917,6.181-47.905l37.369-24.557
			c8.092-5.324,12.981-14.358,12.981-24.051V505.146c0-14.709,10.761-26.664,23.995-26.664c13.206,0,23.967,11.955,23.967,26.734
			l0.421,181.675c0,25.512,19.162,46.753,44.59,49.394l208.395,21.522c12.222,1.475,21.41,12.84,21.41,26.509V820.746z"/>
		<path fill="#2B2B2B" d="M650.485,1092.457H353.219c-15.903,0-28.771,12.882-28.771,28.771c0,15.889,12.868,28.771,28.771,28.771
			h297.266c15.903,0,28.771-12.882,28.771-28.771C679.256,1105.34,666.388,1092.457,650.485,1092.457z"/>
	</g>
</g>
</svg>
