<?xml version="1.0" encoding="utf-8"?>
<!-- Designed by Vexels.com - 2019 All Rights Reserved - https://vexels.com/terms-and-conditions/  -->
<svg version="1.1" id="Layer_1" xmlns="http://www.w3.org/2000/svg" xmlns:xlink="http://www.w3.org/1999/xlink" x="0px" y="0px"
	 viewBox="0 0 1200 1200" enable-background="new 0 0 1200 1200" xml:space="preserve">
<g>
	<g>
		<path fill="#F7AA9C" d="M992.318,71.99c-73.966,337.843-45.979,1025.524-45.979,1025.524h99.954
			c0,0,29.986-783.637,79.963-1047.514C1126.256,50,1014.308,65.992,992.318,71.99z"/>
		<path fill="#F7AA9C" d="M380.929,931.025c-1.445-7.709-2.938-15.597-4.462-23.606c-3.499-18.38-7.245-37.661-11.153-57.469
			c-14.236-72.151-31.127-152.961-50.569-237.763c-1.804-7.868-3.632-15.773-5.479-23.703
			c-22.801-97.903-48.864-200.198-77.894-299.412c-2.314-7.909-4.649-15.795-7-23.66c-22.111-73.954-45.868-145.842-71.164-212.484
			c-21.49,7.996-79.463,15.992-79.463,15.992s1.598,5.136,4.535,14.787c30.113,98.953,200.976,672.591,233.355,1052.718
			c75.964,19.991,106.95,11.995,106.95,11.995s-7.064-46.563-20.488-122.909C393.203,997.681,387.489,966.006,380.929,931.025z"/>
	</g>
	<g>
		<path fill="none" stroke="#2696A1" stroke-miterlimit="10" d="M325.725,620.992"/>
	</g>
	<g>
		<path fill="#5C567C" d="M309.266,588.485c1.897,7.93,3.774,15.835,5.627,23.703l674.894-26.482l-0.984-23.886L309.266,588.485z"/>
		<path fill="#5C567C" d="M376.467,907.419c1.631,8.009,3.228,15.897,4.775,23.606l600.576-51.502l-2.336-23.815L376.467,907.419z"
			/>
		<path fill="#5C567C" d="M1032.785,237.007l-22.731,0.799c-2.349-52.274-21.022-93.002-43.721-93.002
			c-23.139,0-42.064,42.343-43.808,96.078l-18.137,0.637c-1.615-54.035-20.591-96.715-43.821-96.715
			c-23.67,0-42.918,44.312-43.887,99.797l-8.854,0.312c-1.634-53.993-20.603-96.623-43.819-96.623
			c-23.656,0-42.894,44.262-43.884,99.704l-26.803,0.942c-1.886-53.401-20.755-95.369-43.792-95.369
			c-23.477,0-42.603,43.596-43.859,98.449l-252.83,8.884c-2.793-51.148-21.213-90.693-43.572-90.693
			c-22.809,0-41.557,41.121-43.759,93.762l-41.136,1.445c2.46,7.866,4.902,15.751,7.321,23.66l34.006-1.195
			c2.807,51.111,21.219,90.617,43.567,90.617c22.798,0,41.541-41.08,43.757-93.685l253.238-8.898
			c3.641,48.823,21.603,85.944,43.266,85.944c22.11,0,40.356-38.676,43.462-88.992l27.834-0.978
			c3.851,48.21,21.706,84.692,43.185,84.692c21.925,0,40.051-38.034,43.382-87.734l10-0.352
			c3.866,48.165,21.714,84.601,43.18,84.601c21.911,0,40.028-37.986,43.375-87.642l18.972-0.667
			c3.229,49.982,21.408,88.309,43.418,88.309c22.458,0,40.95-39.89,43.616-91.367l23.753-0.835L1032.785,237.007z"/>
	</g>
	<g>
		<ellipse fill="#FFE2AE" cx="382.729" cy="597.375" rx="43.979" ry="104.145"/>
		<ellipse fill="#FFE2AE" cx="622.206" cy="589.02" rx="43.979" ry="104.145"/>
		<ellipse fill="#FFE2AE" cx="826.696" cy="573.757" rx="43.979" ry="104.145"/>
		<ellipse fill="#FFE2AE" cx="927.095" cy="573.757" rx="43.979" ry="104.145"/>
		<ellipse fill="#FFE2AE" cx="470.688" cy="605.646" rx="43.979" ry="104.145"/>
	</g>
	<g>
		
			<ellipse transform="matrix(-0.1027 -0.9947 0.9947 -0.1027 -364.7885 1482.4065)" fill="#FFF3E1" cx="486.25" cy="905.742" rx="104.145" ry="43.98"/>
		
			<ellipse transform="matrix(-0.0197 -0.9998 0.9998 -0.0197 -297.5378 1519.7408)" fill="#FFF3E1" cx="596.305" cy="905.742" rx="104.145" ry="43.979"/>
		<ellipse fill="#FFF3E1" cx="720.028" cy="890.36" rx="43.98" ry="104.145"/>
		<ellipse fill="#FFF3E1" cx="826.696" cy="880.217" rx="43.979" ry="104.145"/>
		<path fill="#FFF3E1" d="M397.225,817.327c-12.58,0-23.896,12.574-31.912,32.624c3.909,19.808,7.655,39.089,11.153,57.469
			c1.525,8.009,3.017,15.897,4.462,23.606c6.559,34.981,12.274,66.656,17.167,94.486c23.883-1.11,43.109-47.219,43.109-104.04
			C441.205,863.954,421.514,817.327,397.225,817.327z"/>
	</g>
</g>
</svg>
