<?xml version="1.0" encoding="windows-1252"?>
<!-- Generator: Adobe Illustrator 19.0.0, SVG Export Plug-In . SVG Version: 6.00 Build 0)  -->
<svg xmlns="http://www.w3.org/2000/svg" xmlns:xlink="http://www.w3.org/1999/xlink" version="1.1" id="Layer_1" x="0px" y="0px" viewBox="0 0 505 505" style="enable-background:new 0 0 505 505;" xml:space="preserve" width="512" height="512">
<g>
	<g>
		<path style="fill:#70E6D1;" d="M356.275,136.633h13.075c17.806,0,32.24,14.434,32.24,32.24V465.26    c0,17.806-14.434,32.24-32.24,32.24H135.651c-17.806,0-32.24-14.434-32.24-32.24V168.873c0-17.806,14.434-32.24,32.24-32.24    h13.087"/>
		<path style="fill:#0E9C80;" d="M130.777,465.26V168.873c0-17.806,14.435-32.241,32.24-32.241h-14.279h-13.087    c-17.806,0-32.24,14.435-32.24,32.241V465.26c0,17.806,14.435,32.24,32.24,32.24h27.366    C145.212,497.5,130.777,483.065,130.777,465.26z"/>
		<path style="fill:#3E5268;" d="M336.753,221.828H168.255c-9.727,0-17.612,7.885-17.612,17.612v18.484    c0,9.727,7.885,17.612,17.612,17.612h168.498c9.727,0,17.612-7.885,17.612-17.612V239.44    C354.366,229.713,346.48,221.828,336.753,221.828z"/>
		<path style="fill:#E6E6E6;" d="M214.539,452.671h122.215c9.727,0,17.612-7.885,17.612-17.612V329.772    c0-9.727-7.885-17.612-17.612-17.612H168.255c-9.727,0-17.612,7.885-17.612,17.612v105.287c0,9.727,7.885,17.612,17.612,17.612    h14.18H214.539z"/>
		<polygon style="fill:#E6E6E6;" points="336.132,7.5 294.319,25.951 252.506,7.5 210.693,25.951 168.88,7.5 168.88,168.354     336.132,168.354   "/>
	</g>
	<g>
		<path d="M401.589,235.711c4.143,0,7.5-3.358,7.5-7.5v-59.338c0-21.913-17.827-39.741-39.74-39.741h-25.717V7.5    c0-2.535-1.281-4.899-3.405-6.283c-2.122-1.384-4.803-1.602-7.123-0.579L294.32,17.753L255.535,0.638    c-1.93-0.851-4.127-0.851-6.057,0l-38.784,17.115L171.909,0.638c-2.32-1.023-5.001-0.805-7.123,0.579    c-2.124,1.384-3.405,3.748-3.405,6.283v121.633h-25.729c-21.913,0-39.74,17.828-39.74,39.741V465.26    c0,21.913,17.827,39.74,39.74,39.74h233.698c21.913,0,39.74-17.828,39.74-39.74V258.213c0-4.142-3.357-7.5-7.5-7.5    s-7.5,3.358-7.5,7.5V465.26c0,13.642-11.099,24.74-24.74,24.74H135.651c-13.642,0-24.74-11.099-24.74-24.74V168.873    c0-13.642,11.099-24.741,24.74-24.741h25.729v16.722h-8.635c-4.143,0-7.5,3.358-7.5,7.5s3.357,7.5,7.5,7.5h199.522    c4.143,0,7.5-3.358,7.5-7.5s-3.357-7.5-7.5-7.5h-8.636v-16.722h25.717c13.642,0,24.74,11.099,24.74,24.741v59.338    C394.089,232.353,397.447,235.711,401.589,235.711z M176.38,160.854V19.007l31.285,13.806c1.93,0.851,4.127,0.851,6.057,0    l38.784-17.115l38.785,17.115c1.93,0.851,4.127,0.851,6.057,0l31.284-13.806v141.847H176.38z"/>
		<path d="M361.866,239.44c0-13.847-11.266-25.112-25.112-25.112H207.581c-4.143,0-7.5,3.358-7.5,7.5s3.357,7.5,7.5,7.5h129.172    c5.576,0,10.112,4.536,10.112,10.112v18.484c0,5.576-4.536,10.112-10.112,10.112H168.255c-5.576,0-10.112-4.536-10.112-10.112    V239.44c0-5.576,4.536-10.112,10.112-10.112h9.324c4.143,0,7.5-3.358,7.5-7.5s-3.357-7.5-7.5-7.5h-9.324    c-13.847,0-25.112,11.265-25.112,25.112v18.484c0,13.847,11.266,25.112,25.112,25.112h168.498    c13.847,0,25.112-11.265,25.112-25.112V239.44z"/>
		<path d="M336.753,304.66H168.255c-13.847,0-25.112,11.265-25.112,25.112v105.287c0,13.847,11.266,25.112,25.112,25.112h50.287    c0.003,0,0.006,0,0.01,0s0.006,0,0.01,0h67.888c0.003,0,0.006,0,0.01,0s0.006,0,0.01,0h50.284    c13.847,0,25.112-11.265,25.112-25.112V329.772C361.866,315.925,350.6,304.66,336.753,304.66z M226.052,398.65v-32.468h52.907    v32.468H226.052z M278.959,413.65v31.521h-52.907V413.65H278.959z M158.143,366.182h52.909v32.468h-52.909V366.182z     M226.052,351.182V319.66h52.907v31.522H226.052z M293.959,366.182h52.906v32.468h-52.906V366.182z M346.866,329.772v21.41    h-52.906V319.66h42.794C342.329,319.66,346.866,324.196,346.866,329.772z M168.255,319.66h42.797v31.522h-52.909v-21.41    C158.143,324.196,162.679,319.66,168.255,319.66z M158.143,435.059V413.65h52.909v31.521h-42.797    C162.679,445.171,158.143,440.635,158.143,435.059z M336.753,445.171h-42.794V413.65h52.906v21.409    C346.866,440.635,342.329,445.171,336.753,445.171z"/>
		<path d="M306.813,54.655H198.2c-4.143,0-7.5,3.358-7.5,7.5s3.357,7.5,7.5,7.5h108.613c4.143,0,7.5-3.358,7.5-7.5    S310.955,54.655,306.813,54.655z"/>
		<path d="M306.813,92.066H198.2c-4.143,0-7.5,3.358-7.5,7.5s3.357,7.5,7.5,7.5h108.613c4.143,0,7.5-3.358,7.5-7.5    S310.955,92.066,306.813,92.066z"/>
	</g>
</g>















</svg>