<?xml version="1.0" encoding="UTF-8" standalone="no"?>
<!DOCTYPE svg PUBLIC "-//W3C//DTD SVG 1.1//EN"
 "http://www.w3.org/Graphics/SVG/1.1/DTD/svg11.dtd">
<!-- Generated by graphviz version 2.28.0 (20110507.0327)
 -->
<!-- Title: G Pages: 1 -->
<svg width="380pt" height="226pt"
 viewBox="0.00 0.00 380.00 226.00" xmlns="http://www.w3.org/2000/svg" xmlns:xlink="http://www.w3.org/1999/xlink">
<g id="graph1" class="graph" transform="scale(1 1) rotate(0) translate(4 222)">
<title>G</title>
<polygon fill="white" stroke="white" points="-4,5 -4,-222 377,-222 377,5 -4,5"/>
<!-- node0 -->
<g id="node1" class="node"><title>node0</title>
<polygon fill="none" stroke="black" points="0,-181 0,-217 300,-217 300,-181 0,-181"/>
<text text-anchor="middle" x="15" y="-195.3" font-family="Times New Roman,serif" font-size="14.00">15</text>
<polyline fill="none" stroke="black" points="30,-181 30,-217 "/>
<text text-anchor="middle" x="45" y="-195.3" font-family="Times New Roman,serif" font-size="14.00">57</text>
<polyline fill="none" stroke="black" points="60,-181 60,-217 "/>
<text text-anchor="middle" x="75" y="-195.3" font-family="Times New Roman,serif" font-size="14.00">14</text>
<polyline fill="none" stroke="black" points="90,-181 90,-217 "/>
<text text-anchor="middle" x="105" y="-195.3" font-family="Times New Roman,serif" font-size="14.00">22</text>
<polyline fill="none" stroke="black" points="120,-181 120,-217 "/>
<text text-anchor="middle" x="135" y="-195.3" font-family="Times New Roman,serif" font-size="14.00">72</text>
<polyline fill="none" stroke="black" points="150,-181 150,-217 "/>
<text text-anchor="middle" x="165" y="-195.3" font-family="Times New Roman,serif" font-size="14.00">79</text>
<polyline fill="none" stroke="black" points="180,-181 180,-217 "/>
<text text-anchor="middle" x="195" y="-195.3" font-family="Times New Roman,serif" font-size="14.00">26</text>
<polyline fill="none" stroke="black" points="210,-181 210,-217 "/>
<text text-anchor="middle" x="225" y="-195.3" font-family="Times New Roman,serif" font-size="14.00">56</text>
<polyline fill="none" stroke="black" points="240,-181 240,-217 "/>
<text text-anchor="middle" x="255" y="-195.3" font-family="Times New Roman,serif" font-size="14.00">42</text>
<polyline fill="none" stroke="black" points="270,-181 270,-217 "/>
<text text-anchor="middle" x="285" y="-195.3" font-family="Times New Roman,serif" font-size="14.00">40</text>
</g>
<!-- node1 -->
<g id="node2" class="node"><title>node1</title>
<polygon fill="none" stroke="black" points="0,-91 0,-127 300,-127 300,-91 0,-91"/>
<text text-anchor="middle" x="15" y="-105.3" font-family="Times New Roman,serif" font-size="14.00">14</text>
<polyline fill="none" stroke="black" points="30,-91 30,-127 "/>
<text text-anchor="middle" x="45" y="-105.3" font-family="Times New Roman,serif" font-size="14.00">57</text>
<polyline fill="none" stroke="black" points="60,-91 60,-127 "/>
<text text-anchor="middle" x="75" y="-105.3" font-family="Times New Roman,serif" font-size="14.00">14</text>
<polyline fill="none" stroke="black" points="90,-91 90,-127 "/>
<text text-anchor="middle" x="105" y="-105.3" font-family="Times New Roman,serif" font-size="14.00">22</text>
<polyline fill="none" stroke="black" points="120,-91 120,-127 "/>
<text text-anchor="middle" x="135" y="-105.3" font-family="Times New Roman,serif" font-size="14.00">72</text>
<polyline fill="none" stroke="black" points="150,-91 150,-127 "/>
<text text-anchor="middle" x="165" y="-105.3" font-family="Times New Roman,serif" font-size="14.00">79</text>
<polyline fill="none" stroke="black" points="180,-91 180,-127 "/>
<text text-anchor="middle" x="195" y="-105.3" font-family="Times New Roman,serif" font-size="14.00">26</text>
<polyline fill="none" stroke="black" points="210,-91 210,-127 "/>
<text text-anchor="middle" x="225" y="-105.3" font-family="Times New Roman,serif" font-size="14.00">56</text>
<polyline fill="none" stroke="black" points="240,-91 240,-127 "/>
<text text-anchor="middle" x="255" y="-105.3" font-family="Times New Roman,serif" font-size="14.00">42</text>
<polyline fill="none" stroke="black" points="270,-91 270,-127 "/>
<text text-anchor="middle" x="285" y="-105.3" font-family="Times New Roman,serif" font-size="14.00">40</text>
</g>
<!-- node0&#45;&gt;node1 -->
<g id="edge4" class="edge"><title>node0:f2&#45;&gt;node1:f0</title>
<path fill="none" stroke="red" d="M75,-180C75,-161.756 65.7829,-157.953 52,-146 41.8542,-137.201 26.6557,-141.481 19.2973,-137.132"/>
<polygon fill="red" stroke="red" points="22.4248,-135.558 15,-128 16.0911,-138.539 22.4248,-135.558"/>
<text text-anchor="middle" x="88.5" y="-150.3" font-family="Times New Roman,serif" font-size="14.00">Step 2</text>
</g>
<!-- node0&#45;&gt;node1 -->
<!-- node0&#45;&gt;node1 -->
<!-- node0&#45;&gt;node1 -->
<!-- node0&#45;&gt;node1 -->
<!-- node2 -->
<g id="node3" class="node"><title>node2</title>
<polygon fill="none" stroke="black" points="318,-91 318,-127 372,-127 372,-91 318,-91"/>
<text text-anchor="middle" x="345" y="-105.3" font-family="Times New Roman,serif" font-size="14.00">15</text>
</g>
<!-- node0&#45;&gt;node2 -->
<g id="edge2" class="edge"><title>node0:f0&#45;&gt;node2:f0</title>
<path fill="none" stroke="green" d="M15,-180C15,-155.011 101.368,-166.21 126,-162 207.956,-147.993 235.527,-159.382 309.229,-130.969"/>
<polygon fill="green" stroke="green" points="310.95,-134.051 318.946,-127.1 308.361,-127.547 310.95,-134.051"/>
<text text-anchor="middle" x="279.5" y="-150.3" font-family="Times New Roman,serif" font-size="14.00">Step 1</text>
</g>
<!-- node3 -->
<g id="node4" class="node"><title>node3</title>
<polygon fill="none" stroke="black" points="0,-1 0,-37 300,-37 300,-1 0,-1"/>
<text text-anchor="middle" x="15" y="-15.3" font-family="Times New Roman,serif" font-size="14.00">14</text>
<polyline fill="none" stroke="black" points="30,-1 30,-37 "/>
<text text-anchor="middle" x="45" y="-15.3" font-family="Times New Roman,serif" font-size="14.00">57</text>
<polyline fill="none" stroke="black" points="60,-1 60,-37 "/>
<text text-anchor="middle" x="75" y="-15.3" font-family="Times New Roman,serif" font-size="14.00">15</text>
<polyline fill="none" stroke="black" points="90,-1 90,-37 "/>
<text text-anchor="middle" x="105" y="-15.3" font-family="Times New Roman,serif" font-size="14.00">22</text>
<polyline fill="none" stroke="black" points="120,-1 120,-37 "/>
<text text-anchor="middle" x="135" y="-15.3" font-family="Times New Roman,serif" font-size="14.00">72</text>
<polyline fill="none" stroke="black" points="150,-1 150,-37 "/>
<text text-anchor="middle" x="165" y="-15.3" font-family="Times New Roman,serif" font-size="14.00">79</text>
<polyline fill="none" stroke="black" points="180,-1 180,-37 "/>
<text text-anchor="middle" x="195" y="-15.3" font-family="Times New Roman,serif" font-size="14.00">26</text>
<polyline fill="none" stroke="black" points="210,-1 210,-37 "/>
<text text-anchor="middle" x="225" y="-15.3" font-family="Times New Roman,serif" font-size="14.00">56</text>
<polyline fill="none" stroke="black" points="240,-1 240,-37 "/>
<text text-anchor="middle" x="255" y="-15.3" font-family="Times New Roman,serif" font-size="14.00">42</text>
<polyline fill="none" stroke="black" points="270,-1 270,-37 "/>
<text text-anchor="middle" x="285" y="-15.3" font-family="Times New Roman,serif" font-size="14.00">40</text>
</g>
<!-- node1&#45;&gt;node3 -->
<!-- node1&#45;&gt;node3 -->
<!-- node1&#45;&gt;node3 -->
<!-- node1&#45;&gt;node3 -->
<!-- node2&#45;&gt;node3 -->
<g id="edge6" class="edge"><title>node2:f0&#45;&gt;node3:f2</title>
<path fill="none" stroke="blue" d="M318.94,-90.9159C318.626,-90.7736 318.313,-90.6349 318,-90.5 270.631,-70.0948 99.9106,-90.1833 77.4458,-47.9867"/>
<polygon fill="blue" stroke="blue" points="80.7783,-46.8804 75,-38 73.9793,-48.5455 80.7783,-46.8804"/>
<text text-anchor="middle" x="145.5" y="-60.3" font-family="Times New Roman,serif" font-size="14.00">Step 3</text>
</g>
</g>
</svg>
