<?xml version="1.0" encoding="UTF-8" standalone="no"?>
<!DOCTYPE svg PUBLIC "-//W3C//DTD SVG 1.1//EN"
 "http://www.w3.org/Graphics/SVG/1.1/DTD/svg11.dtd">
<!-- Generated by graphviz version 2.28.0 (20110507.0327)
 -->
<!-- Title: G Pages: 1 -->
<svg width="294pt" height="46pt"
 viewBox="0.00 0.00 294.00 46.00" xmlns="http://www.w3.org/2000/svg" xmlns:xlink="http://www.w3.org/1999/xlink">
<g id="graph1" class="graph" transform="scale(1 1) rotate(0) translate(4 42)">
<title>G</title>
<polygon fill="white" stroke="white" points="-4,5 -4,-42 291,-42 291,5 -4,5"/>
<!-- node0 -->
<g id="node1" class="node"><title>node0</title>
<polygon fill="none" stroke="black" points="0,-1 0,-37 286,-37 286,-1 0,-1"/>
<text text-anchor="middle" x="15" y="-15.3" font-family="Times New Roman,serif" font-size="14.00">97</text>
<polyline fill="none" stroke="black" points="30,-1 30,-37 "/>
<text text-anchor="middle" x="45" y="-15.3" font-family="Times New Roman,serif" font-size="14.00">74</text>
<polyline fill="none" stroke="black" points="60,-1 60,-37 "/>
<text text-anchor="middle" x="71.5" y="-15.3" font-family="Times New Roman,serif" font-size="14.00">8</text>
<polyline fill="none" stroke="black" points="83,-1 83,-37 "/>
<text text-anchor="middle" x="98" y="-15.3" font-family="Times New Roman,serif" font-size="14.00">98</text>
<polyline fill="none" stroke="black" points="113,-1 113,-37 "/>
<text text-anchor="middle" x="128" y="-15.3" font-family="Times New Roman,serif" font-size="14.00">47</text>
<polyline fill="none" stroke="black" points="143,-1 143,-37 "/>
<text text-anchor="middle" x="158" y="-15.3" font-family="Times New Roman,serif" font-size="14.00">62</text>
<polyline fill="none" stroke="black" points="173,-1 173,-37 "/>
<text text-anchor="middle" x="188" y="-15.3" font-family="Times New Roman,serif" font-size="14.00">12</text>
<polyline fill="none" stroke="black" points="203,-1 203,-37 "/>
<text text-anchor="middle" x="218" y="-15.3" font-family="Times New Roman,serif" font-size="14.00">11</text>
<polyline fill="none" stroke="black" points="233,-1 233,-37 "/>
<text text-anchor="middle" x="244.5" y="-15.3" font-family="Times New Roman,serif" font-size="14.00">0</text>
<polyline fill="none" stroke="black" points="256,-1 256,-37 "/>
<text text-anchor="middle" x="271" y="-15.3" font-family="Times New Roman,serif" font-size="14.00">60</text>
</g>
</g>
</svg>
