<?xml version="1.0" encoding="UTF-8" standalone="no"?>
<!DOCTYPE svg PUBLIC "-//W3C//DTD SVG 1.1//EN"
 "http://www.w3.org/Graphics/SVG/1.1/DTD/svg11.dtd">
<!-- Generated by graphviz version 2.28.0 (20110507.0327)
 -->
<!-- Title: G Pages: 1 -->
<svg width="300pt" height="46pt"
 viewBox="0.00 0.00 300.00 46.00" xmlns="http://www.w3.org/2000/svg" xmlns:xlink="http://www.w3.org/1999/xlink">
<g id="graph1" class="graph" transform="scale(1 1) rotate(0) translate(4 42)">
<title>G</title>
<polygon fill="white" stroke="white" points="-4,5 -4,-42 297,-42 297,5 -4,5"/>
<!-- node0 -->
<g id="node1" class="node"><title>node0</title>
<polygon fill="none" stroke="black" points="-0.5,-1 -0.5,-37 292.5,-37 292.5,-1 -0.5,-1"/>
<text text-anchor="middle" x="14.5" y="-15.3" font-family="Times New Roman,serif" font-size="14.00">74</text>
<polyline fill="none" stroke="black" points="29.5,-1 29.5,-37 "/>
<text text-anchor="middle" x="44.5" y="-15.3" font-family="Times New Roman,serif" font-size="14.00">62</text>
<polyline fill="none" stroke="black" points="59.5,-1 59.5,-37 "/>
<text text-anchor="middle" x="74.5" y="-15.3" font-family="Times New Roman,serif" font-size="14.00">18</text>
<polyline fill="none" stroke="black" points="89.5,-1 89.5,-37 "/>
<text text-anchor="middle" x="104.5" y="-15.3" font-family="Times New Roman,serif" font-size="14.00">47</text>
<polyline fill="none" stroke="black" points="119.5,-1 119.5,-37 "/>
<text text-anchor="middle" x="134.5" y="-15.3" font-family="Times New Roman,serif" font-size="14.00">40</text>
<polyline fill="none" stroke="black" points="149.5,-1 149.5,-37 "/>
<text text-anchor="middle" x="164.5" y="-15.3" font-family="Times New Roman,serif" font-size="14.00">58</text>
<polyline fill="none" stroke="black" points="179.5,-1 179.5,-37 "/>
<text text-anchor="middle" x="191" y="-15.3" font-family="Times New Roman,serif" font-size="14.00">0</text>
<polyline fill="none" stroke="black" points="202.5,-1 202.5,-37 "/>
<text text-anchor="middle" x="217.5" y="-15.3" font-family="Times New Roman,serif" font-size="14.00">36</text>
<polyline fill="none" stroke="black" points="232.5,-1 232.5,-37 "/>
<text text-anchor="middle" x="247.5" y="-15.3" font-family="Times New Roman,serif" font-size="14.00">29</text>
<polyline fill="none" stroke="black" points="262.5,-1 262.5,-37 "/>
<text text-anchor="middle" x="277.5" y="-15.3" font-family="Times New Roman,serif" font-size="14.00">25</text>
</g>
</g>
</svg>
