<?xml version="1.0" encoding="UTF-8" standalone="no"?>
<!-- Designed by Vexels.com - 2019 All Rights Reserved - https://vexels.com/terms-and-conditions/  -->

<svg
   xmlns:dc="http://purl.org/dc/elements/1.1/"
   xmlns:cc="http://creativecommons.org/ns#"
   xmlns:rdf="http://www.w3.org/1999/02/22-rdf-syntax-ns#"
   xmlns:svg="http://www.w3.org/2000/svg"
   xmlns="http://www.w3.org/2000/svg"
   xmlns:sodipodi="http://sodipodi.sourceforge.net/DTD/sodipodi-0.dtd"
   xmlns:inkscape="http://www.inkscape.org/namespaces/inkscape"
   version="1.1"
   id="Capa_1"
   x="0px"
   y="0px"
   viewBox="0 0 1200 1200"
   enable-background="new 0 0 1200 1200"
   xml:space="preserve"
   sodipodi:docname="roller-coaster.svg"
   inkscape:version="0.92.3 (2405546, 2018-03-11)"><metadata
   id="metadata131"><rdf:RDF><cc:Work
       rdf:about=""><dc:format>image/svg+xml</dc:format><dc:type
         rdf:resource="http://purl.org/dc/dcmitype/StillImage" /><dc:title></dc:title></cc:Work></rdf:RDF></metadata><defs
   id="defs129" /><sodipodi:namedview
   pagecolor="#ffffff"
   bordercolor="#666666"
   borderopacity="1"
   objecttolerance="10"
   gridtolerance="10"
   guidetolerance="10"
   inkscape:pageopacity="0"
   inkscape:pageshadow="2"
   inkscape:window-width="1861"
   inkscape:window-height="1342"
   id="namedview127"
   showgrid="false"
   inkscape:zoom="0.19666667"
   inkscape:cx="610.16949"
   inkscape:cy="600"
   inkscape:window-x="0"
   inkscape:window-y="0"
   inkscape:window-maximized="0"
   inkscape:current-layer="Capa_1" />
<g
   id="g124"
   transform="matrix(-1,0,0,1,1199.999,0)">
	<path
   d="m 297.911,328.478 h 81.657 c -23.943,-23.091 -50.763,-43.253 -81.657,-59.7 z"
   id="path2"
   inkscape:connector-curvature="0"
   style="fill:none" />
	<path
   d="M 116.938,328.478 H 267.966 V 254.599 C 225.513,236.766 175.962,225.245 116.938,221.577 v 106.901 z"
   id="path4"
   inkscape:connector-curvature="0"
   style="fill:none" />
	<path
   d="M 520.442,539.394 H 478.884 V 690.42 H 599.08 C 577.573,652.573 558.125,613.993 539.153,576.354 532.88,563.91 526.662,551.579 520.442,539.394 Z"
   id="path6"
   inkscape:connector-curvature="0"
   style="fill:none" />
	<path
   d="M 297.911,358.422 V 509.45 h 151.028 v -96.178 c -12.871,-19.326 -26.475,-37.693 -41.184,-54.85 H 297.911 Z"
   id="path8"
   inkscape:connector-curvature="0"
   style="fill:none" />
	<path
   d="m 478.884,509.45 h 26.059 c -8.537,-16.227 -17.176,-32.117 -26.059,-47.575 z"
   id="path10"
   inkscape:connector-curvature="0"
   style="fill:none" />
	<path
   d="m 659.856,784.957 v 86.436 h 77.356 c -29.08,-26.432 -54.52,-55.608 -77.356,-86.436 z"
   id="path12"
   inkscape:connector-curvature="0"
   style="fill:none" />
	<path
   d="M 840.829,1052.365 H 991.855 V 993.8 C 934.162,983.367 884.35,966.074 840.829,943.597 Z"
   id="path14"
   inkscape:connector-curvature="0"
   style="fill:none" />
	<path
   d="m 659.856,901.337 v 151.028 H 810.884 V 926.752 c -13.083,-7.998 -25.564,-16.483 -37.476,-25.415 z"
   id="path16"
   inkscape:connector-curvature="0"
   style="fill:none" />
	<path
   d="m 478.884,720.364 v 151.028 h 151.028 v -129.88 c -4.507,-7 -8.92,-14.051 -13.237,-21.148 H 478.884 Z"
   id="path18"
   inkscape:connector-curvature="0"
   style="fill:none" />
	<rect
   x="116.938"
   y="720.36401"
   width="151.028"
   height="151.028"
   id="rect20"
   style="fill:none" />
	<rect
   x="297.91101"
   y="539.39398"
   width="151.028"
   height="151.026"
   id="rect22"
   style="fill:none" />
	<rect
   x="297.91101"
   y="901.33698"
   width="151.028"
   height="151.028"
   id="rect24"
   style="fill:none" />
	<rect
   x="297.91101"
   y="720.36401"
   width="151.028"
   height="151.028"
   id="rect26"
   style="fill:none" />
	<rect
   x="478.884"
   y="901.33698"
   width="151.028"
   height="151.028"
   id="rect28"
   style="fill:none" />
	<rect
   x="116.938"
   y="901.33698"
   width="151.028"
   height="151.028"
   id="rect30"
   style="fill:none" />
	<rect
   x="116.938"
   y="539.39398"
   width="151.028"
   height="151.026"
   id="rect32"
   style="fill:none" />
	<rect
   x="116.938"
   y="358.422"
   width="151.028"
   height="151.028"
   id="rect34"
   style="fill:none" />
	<path
   d="m 991.855,993.8 v 58.565 H 840.829 V 943.597 c -10.326,-5.333 -20.305,-10.952 -29.944,-16.845 v 125.613 H 659.856 V 901.337 h 113.552 c -12.678,-9.506 -24.719,-19.512 -36.196,-29.944 h -77.356 v -86.436 c -10.497,-14.17 -20.443,-28.688 -29.944,-43.445 V 871.393 H 478.884 V 720.364 h 137.791 c -6.028,-9.91 -11.888,-19.9 -17.596,-29.944 H 478.884 V 539.394 h 41.558 C 515.29,529.302 510.133,519.316 504.943,509.45 H 478.884 V 461.875 C 469.258,445.124 459.338,428.884 448.94,413.272 V 509.45 H 297.911 V 358.422 h 109.844 c -8.957,-10.448 -18.332,-20.44 -28.187,-29.944 h -81.657 v -59.7 c -9.572,-5.096 -19.557,-9.816 -29.944,-14.179 v 73.879 H 116.938 V 221.577 c -9.725,-0.604 -19.694,-1.008 -29.944,-1.178 V 1150 h 29.944 v -67.69 H 267.966 V 1150 h 29.944 v -67.69 H 448.938 V 1150 h 29.944 v -67.69 H 629.91 V 1150 h 29.944 v -67.69 H 810.882 V 1150 h 29.944 v -67.69 H 991.852 V 1150 h 29.944 v -67.69 h 75.165 v -29.944 h -75.165 v -53.871 c -10.209,-1.364 -20.188,-2.931 -29.941,-4.695 z m -723.888,58.565 H 116.938 V 901.337 h 151.028 v 151.028 z m 0,-180.972 H 116.938 V 720.364 h 151.028 v 151.029 z m 0,-180.973 H 116.938 V 539.394 H 267.966 V 690.42 Z m 0,-180.97 H 116.938 V 358.422 H 267.966 V 509.45 Z m 180.972,542.915 H 297.911 V 901.337 h 151.028 v 151.028 z m 0,-180.972 H 297.911 V 720.364 h 151.028 v 151.029 z m 0,-180.973 H 297.911 V 539.394 H 448.939 V 690.42 Z m 180.973,361.945 H 478.884 V 901.337 h 151.028 z"
   id="path36"
   inkscape:connector-curvature="0"
   style="fill:#82e0dd" />
	<path
   d="m 267.967,254.598 c 10.387,4.363 20.372,9.083 29.944,14.179 30.894,16.448 57.714,36.609 81.657,59.7 9.855,9.504 19.23,19.496 28.187,29.944 14.709,17.157 28.313,35.524 41.184,54.85 10.398,15.612 20.319,31.852 29.944,48.603 8.883,15.459 17.521,31.349 26.059,47.575 5.191,9.866 10.347,19.852 15.499,29.944 6.221,12.185 12.438,24.515 18.711,36.96 18.972,37.639 38.42,76.219 59.927,114.066 5.708,10.045 11.568,20.034 17.596,29.944 4.317,7.097 8.73,14.148 13.237,21.148 9.501,14.758 19.448,29.275 29.944,43.445 22.835,30.828 48.275,60.004 77.356,86.436 11.477,10.432 23.518,20.438 36.196,29.944 11.912,8.932 24.393,17.417 37.476,25.415 9.64,5.893 19.618,11.512 29.944,16.845 43.52,22.477 93.332,39.77 151.026,50.203 9.753,1.764 19.732,3.331 29.944,4.694 32.034,4.276 66.323,6.574 103.185,6.574 V 885.292 C 829.009,885.292 744.249,717.142 646.109,522.44 546.419,324.67 433.429,100.513 75.016,100.513 V 220.29 c 4.037,0 8.021,0.043 11.978,0.109 10.251,0.171 20.219,0.574 29.944,1.178 59.025,3.667 108.575,15.189 151.029,33.021 z"
   id="path38"
   inkscape:connector-curvature="0"
   style="fill:#4cbdce" />
	<g
   id="g66">
		<g
   id="g44">
			<path
   d="m 647.022,157.56 -8.147,7.95 c -10.534,10.282 -24.43,15.92 -39.202,15.92 -0.234,0 -0.468,-0.003 -0.705,-0.003 -15.031,-0.184 -29.064,-6.178 -39.508,-16.877 l -15.09,-15.461 c -21.63,-22.157 -21.2,-57.782 0.96,-79.415 l 6.272,-6.122 C 516.977,42.125 470.687,46.059 440.315,75.704 v 0 c -35.734,34.879 -36.434,92.652 -1.556,128.387 l 77.189,79.083 c 34.879,35.734 92.653,36.434 128.387,1.556 v 0 c 35.336,-34.491 36.391,-91.353 2.687,-127.17 z"
   id="path40"
   inkscape:connector-curvature="0"
   style="fill:#ff5059" />
			<path
   d="m 544.37,149.089 15.09,15.461 c 10.444,10.699 24.477,16.693 39.508,16.877 0.237,0 0.471,0.003 0.705,0.003 14.772,0 28.668,-5.638 39.202,-15.92 l 8.147,-7.95 0.03,-0.03 c 5.049,-4.927 5.146,-13.013 0.219,-18.062 -4.924,-5.046 -13.011,-5.145 -18.062,-0.218 l -8.177,7.98 c -12.081,11.788 -31.496,11.56 -43.291,-0.524 L 562.65,131.245 c -11.788,-12.078 -11.554,-31.5 0.524,-43.288 l 7.855,-7.665 c 5.049,-4.927 5.146,-13.017 0.221,-18.065 -4.93,-5.046 -13.014,-5.142 -18.065,-0.221 l -1.583,1.546 -6.272,6.122 c -22.16,21.633 -22.59,57.258 -0.96,79.415 z"
   id="path42"
   inkscape:connector-curvature="0"
   style="fill:#82e0dd" />
		</g>
		<g
   id="g48">
			<circle
   cx="429.603"
   cy="177.20599"
   r="34.870998"
   id="circle46"
   style="fill:#005266" />
		</g>
		<g
   id="g52">
			<circle
   cx="429.603"
   cy="177.20599"
   r="13.412"
   id="circle50"
   style="fill:#ebeff4" />
		</g>
		<g
   id="g56">
			<circle
   cx="536.06403"
   cy="286.27899"
   r="34.870998"
   id="circle54"
   style="fill:#005266" />
		</g>
		<g
   id="g60">
			<circle
   cx="536.06403"
   cy="286.27899"
   r="13.412"
   id="circle58"
   style="fill:#ebeff4" />
		</g>
		<g
   id="g64">
			<circle
   cx="517.06799"
   cy="196.85699"
   r="38.917999"
   id="circle62"
   style="fill:#ebeff4" />
		</g>
	</g>
	<g
   id="g94">
		<g
   id="g72">
			<path
   d="m 844.112,484.311 -10.042,5.36 c -12.987,6.931 -27.904,8.464 -42.089,4.339 -0.224,-0.065 -0.448,-0.134 -0.676,-0.2 -14.382,-4.374 -26.183,-14.048 -33.223,-27.239 l -10.172,-19.06 c -14.582,-27.316 -4.22,-61.404 23.099,-75.988 l 7.732,-4.128 c -27.263,-30.244 -72.81,-39.393 -110.253,-19.409 h -0.001 c -44.052,23.512 -60.858,78.792 -37.346,122.845 l 52.035,97.492 c 23.512,44.052 78.792,60.858 122.845,37.346 v 0 c 43.561,-23.249 60.453,-77.554 38.091,-121.358 z"
   id="path68"
   inkscape:connector-curvature="0"
   style="fill:#ffa830" />
			<path
   d="m 747.909,447.511 10.172,19.06 c 7.04,13.19 18.842,22.864 33.223,27.239 0.228,0.066 0.451,0.135 0.676,0.2 14.185,4.125 29.102,2.592 42.089,-4.339 l 10.042,-5.36 0.038,-0.02 c 6.224,-3.321 8.575,-11.059 5.253,-17.283 -3.319,-6.22 -11.056,-8.574 -17.283,-5.254 l -10.08,5.379 c -14.892,7.945 -33.472,2.305 -41.422,-12.592 l -10.173,-19.06 c -7.946,-14.889 -2.298,-33.473 12.592,-41.419 l 9.683,-5.167 c 6.224,-3.321 8.576,-11.062 5.257,-17.285 -3.325,-6.222 -11.06,-8.572 -17.285,-5.257 l -1.952,1.042 -7.732,4.128 c -27.318,14.585 -37.68,48.673 -23.098,75.988 z"
   id="path70"
   inkscape:connector-curvature="0"
   style="fill:#ff5059" />
		</g>
		<g
   id="g76">
			<circle
   cx="629.85602"
   cy="442.461"
   r="34.870998"
   id="circle74"
   style="fill:#005266" />
		</g>
		<g
   id="g80">
			<circle
   cx="629.85602"
   cy="442.461"
   r="13.412"
   id="circle78"
   style="fill:#ebeff4" />
		</g>
		<g
   id="g84">
			<circle
   cx="701.62299"
   cy="576.92401"
   r="34.870998"
   id="circle82"
   style="fill:#005266" />
		</g>
		<g
   id="g88">
			<circle
   cx="701.62299"
   cy="576.92401"
   r="13.412"
   id="circle86"
   style="fill:#ebeff4" />
		</g>
		<g
   id="g92">
			<circle
   cx="708.35498"
   cy="485.755"
   r="38.917999"
   id="circle90"
   style="fill:#ebeff4" />
		</g>
	</g>
	<g
   id="g122">
		<g
   id="g100">
			<path
   d="m 1028.416,689.624 -6.251,9.513 c -8.083,12.303 -20.445,20.791 -34.873,23.961 -0.229,0.05 -0.458,0.097 -0.689,0.148 -14.72,3.046 -29.713,0.203 -42.209,-8.006 l -18.056,-11.863 c -25.88,-16.999 -33.105,-51.887 -16.103,-77.772 l 4.812,-7.326 c -38.416,-13.498 -82.783,0.277 -106.087,35.749 v 0 c -27.417,41.734 -15.703,98.312 26.03,125.73 l 92.362,60.677 c 41.734,27.417 98.312,15.704 125.73,-26.031 v 0 c 27.11,-41.267 15.938,-97.03 -24.666,-124.78 z"
   id="path96"
   inkscape:connector-curvature="0"
   style="fill:#82e0dd" />
			<path
   d="m 926.337,703.378 18.056,11.863 c 12.497,8.209 27.489,11.052 42.209,8.006 0.232,-0.051 0.461,-0.098 0.689,-0.148 14.428,-3.17 26.79,-11.659 34.873,-23.961 l 6.251,-9.513 0.023,-0.035 c 3.874,-5.896 2.233,-13.814 -3.663,-17.688 -5.892,-3.872 -13.811,-2.234 -17.688,3.663 l -6.274,9.549 c -9.27,14.106 -28.282,18.05 -42.395,8.778 l -18.057,-11.863 c -14.105,-9.267 -18.044,-28.287 -8.777,-42.392 l 6.028,-9.172 c 3.874,-5.896 2.233,-13.817 -3.66,-17.692 -5.898,-3.87 -13.814,-2.23 -17.692,3.66 l -1.215,1.85 -4.812,7.326 c -17.001,25.881 -9.776,60.769 16.104,77.769 z"
   id="path98"
   inkscape:connector-curvature="0"
   style="fill:#ffa830" />
		</g>
		<g
   id="g104">
			<circle
   cx="820.27698"
   cy="755.46698"
   r="34.870998"
   id="circle102"
   style="fill:#005266" />
		</g>
		<g
   id="g108">
			<circle
   cx="820.27698"
   cy="755.46698"
   r="13.412"
   id="circle106"
   style="fill:#ebeff4" />
		</g>
		<g
   id="g112">
			<circle
   cx="947.66302"
   cy="839.15399"
   r="34.870998"
   id="circle110"
   style="fill:#005266" />
		</g>
		<g
   id="g116">
			<circle
   cx="947.66302"
   cy="839.15399"
   r="13.412"
   id="circle114"
   style="fill:#ebeff4" />
		</g>
		<g
   id="g120">
			<circle
   cx="909.922"
   cy="755.89203"
   r="38.917999"
   id="circle118"
   style="fill:#ebeff4" />
		</g>
	</g>
</g>
</svg>