<?xml version="1.0" encoding="utf-8"?>
<!-- Generator: Adobe Illustrator 16.0.0, SVG Export Plug-In . SVG Version: 6.00 Build 0)  -->
<!DOCTYPE svg PUBLIC "-//W3C//DTD SVG 1.1//EN" "http://www.w3.org/Graphics/SVG/1.1/DTD/svg11.dtd">
<svg version="1.1" id="Capa_1" xmlns="http://www.w3.org/2000/svg" xmlns:xlink="http://www.w3.org/1999/xlink" x="0px" y="0px"
	 width="1200px" height="1200px" viewBox="0 0 1200 1200" enable-background="new 0 0 1200 1200" xml:space="preserve">
<g>
	<polyline fill="#DDDDDD" points="372.182,50 50,372.182 50,827.818 372.182,1150 827.818,1150 1150,827.818 1150,372.182 
		827.818,50 372.182,50 	"/>
	<polyline fill="#CC002C" points="397.951,112.208 112.208,397.946 112.208,802.055 397.951,1087.793 802.055,1087.793 
		1087.792,802.055 1087.792,397.946 802.055,112.208 397.951,112.208 	"/>
	<path fill-rule="evenodd" clip-rule="evenodd" fill="#DDDDDD" d="M573.854,402.8c0,39.895,0,79.783,0,119.671
		c0,8.87-3.991,30.107-12.411,30.107c-7.521,0-9.775-14.069-9.77-20.594c0-11.433,0-22.866,0.013-34.299
		c0.012-42.659,0-85.323,0-127.976c-0.013-15.783,4.41-38.758-4.636-52.64c-8.803-13.523-29.02-15.722-41.887-6.792
		c-13.82,9.58-10.777,28.826-10.783,43.339c-0.006,22.362-0.006,44.725-0.006,67.086c0,43.437-0.036,86.86,0.188,130.285
		c0.115,22.04-22.557,22.659-22.538,0.607c0.018-21.117,0.055-42.221,0.078-63.338c0.037-20.206,0.049-40.399,0.043-60.604
		c-0.012-15.929,4.604-39.402-7.479-52.123c-9.55-10.061-28.917-11.932-39.299-2.005c-11.913,11.396-8.141,35.089-8.45,49.985
		c-0.851,41.176-1.714,82.365-2.643,123.553c-2.09,91.732-11.373,188.495,20.952,276.425c13.268,36.104,38.333,67.81,72.086,86.739
		c36.937,20.715,78.757,21.797,119.829,16.67c40.144-5,80.154-20.521,109.43-49.111c30.551-29.828,41.315-72.48,56.601-111.051
		c18.067-45.568,36.207-91.101,54.177-136.699c5.692-14.459,14.471-31.869,3.104-45.891c-10.893-13.438-32.842-15.297-45.302-3.141
		c-14.051,13.711-20.886,40.721-28.935,58.35c-10.564,23.135-21.123,46.273-31.755,69.371c-3.365,7.332-14.713,43.205-27.514,30.405
		c-6.129-6.13-6.542-19.003-6.53-26.899c0.019-13.293,0.055-26.585,0.079-39.877c0.183-89.728-0.024-179.456,0.066-269.189
		c0.031-20.139,0.049-40.277,0.067-60.416c0.024-16.888,3.699-40.751-15.668-48.818c-15.552-6.488-32.969-0.875-39.068,15.424
		c-6.749,18.037-2.551,42.798-2.545,61.771c0.012,29.652,0.012,59.298,0.012,88.944c-0.006,15.333-0.006,30.667-0.006,46
		c0,12.708,1.386,30.302-2.545,42.44c-3.135,9.671-14.289,9.465-17.138-0.28c-3.663-12.55-2.388-29.797-2.388-42.804
		c0.006-32.204,0.012-64.401,0.006-96.604c-0.006-30.473-0.036-60.938-0.085-91.405c-0.042-21.469,7.418-60.27-22.186-64.395
		c-10.097-1.412-20.697,1.069-27.933,8.614c-9.574,10.012-7.26,25.065-7.242,37.689C573.901,333.818,573.854,368.312,573.854,402.8
		c0,19.549,0,9.653,0-0.243C573.854,392.575,573.854,382.601,573.854,402.8"/>
	<polyline fill="#FFFFFF" points="191.329,969.147 191.329,969.147 372.182,1150 191.329,969.147 	"/>
	<path fill="#EEEEEE" d="M1041.901,264.083c-21.627,7.284-42.98,15.272-64.073,23.899l0,0l109.964,109.963v404.109l-285.737,285.738
		H397.951L228.623,918.464c-13.584,18-26.037,34.985-37.294,50.684L372.182,1150h455.637L1150,827.818V372.182L1041.901,264.083"/>
	<path fill="#E60042" d="M653.356,479.8c-5.097,3.943-10.163,7.91-15.199,11.895c-2.297,1.816-4.587,3.639-6.871,5.461
		c0,2.758,0,5.51,0,8.268c0,13.006-1.275,30.253,2.388,42.804c1.445,4.934,5.012,7.424,8.596,7.424c3.493,0,6.992-2.369,8.542-7.144
		c3.931-12.138,2.545-29.731,2.545-42.44C653.356,497.314,653.356,488.554,653.356,479.8 M977.828,287.982
		c-88.743,36.31-172.682,83.944-250.758,137.848c-5.54,3.827-11.05,7.679-16.529,11.561c-0.019,78.325,0.115,156.645-0.043,234.963
		c-0.024,13.292-0.061,26.584-0.079,39.877c-0.012,7.896,0.401,20.77,6.53,26.899c1.908,1.907,3.785,2.733,5.607,2.733
		c10.4,0,19.046-26.9,21.906-33.139c10.632-23.098,21.19-46.236,31.755-69.371c8.049-17.629,14.884-44.639,28.935-58.35
		c5.626-5.486,13.183-8.116,20.783-8.116c9.239,0,18.541,3.882,24.519,11.257c11.366,14.021,2.588,31.432-3.104,45.891
		c-17.97,45.599-36.109,91.131-54.177,136.699c-15.285,38.57-26.05,81.223-56.601,111.051
		c-29.275,28.59-69.286,44.111-109.43,49.111c-12.708,1.585-25.484,2.575-38.175,2.575c-28.31,0-56.151-4.938-81.654-19.245
		c-33.753-18.93-58.818-50.636-72.086-86.739c-14.592-39.688-20.703-81.175-22.83-123.183c-5.461,5.795-10.861,11.585-16.195,17.355
		c-27.727,30.005-53.661,59.561-77.675,88.064c-33.905,40.234-63.97,78.354-89.904,112.739l0,0l169.328,169.329h404.104
		l285.737-285.738V397.946L977.828,287.982"/>
	<path fill="#EEEEEE" d="M710.541,437.391c-7.68,5.449-15.297,10.953-22.867,16.518c-11.566,8.499-23.018,17.144-34.317,25.892
		c0,8.754,0,17.514,0,26.269c0,12.708,1.386,30.302-2.545,42.44c-1.55,4.774-5.049,7.144-8.542,7.144
		c-3.584,0-7.15-2.49-8.596-7.424c-3.663-12.55-2.388-29.797-2.388-42.804c0-2.758,0-5.51,0-8.268
		c-16.548,13.225-32.744,26.645-48.648,40.247c-23.036,19.714-45.411,39.779-67.02,59.966
		c-16.591,15.504-32.744,31.092-48.454,46.693c-18.918,18.783-37.179,37.574-54.767,56.242c2.127,42.008,8.238,83.494,22.83,123.183
		c13.268,36.104,38.333,67.81,72.086,86.739c25.503,14.307,53.345,19.245,81.654,19.245c12.69,0,25.467-0.99,38.175-2.575
		c40.144-5,80.154-20.521,109.43-49.111c30.551-29.828,41.315-72.48,56.601-111.051c18.067-45.568,36.207-91.101,54.177-136.699
		c5.692-14.459,14.471-31.869,3.104-45.891c-5.978-7.375-15.279-11.257-24.519-11.257c-7.601,0-15.157,2.63-20.783,8.116
		c-14.051,13.711-20.886,40.721-28.935,58.35c-10.564,23.135-21.123,46.273-31.755,69.371c-2.86,6.238-11.506,33.139-21.906,33.139
		c-1.822,0-3.699-0.826-5.607-2.733c-6.129-6.13-6.542-19.003-6.53-26.899c0.019-13.293,0.055-26.585,0.079-39.877
		C710.656,594.035,710.522,515.716,710.541,437.391"/>
</g>
</svg>
