<?xml version="1.0" encoding="utf-8"?>
<!-- Designed by Vexels.com - 2020 All Rights Reserved - https://vexels.com/terms-and-conditions/  -->
<svg version="1.1" id="Layer_1" xmlns="http://www.w3.org/2000/svg" xmlns:xlink="http://www.w3.org/1999/xlink" x="0px" y="0px"
	 viewBox="0 0 1200 1200" enable-background="new 0 0 1200 1200" xml:space="preserve">
<g>
	<g>
		<g>
			<g enable-background="new    ">
				<g>
					<polygon fill="#624F33" points="1014.508,598.073 1009.314,592.649 1009.177,573.96 1014.37,579.383 					"/>
				</g>
				<g>
					<polygon fill="#624F33" points="1014.23,561.283 1009.037,555.86 1008.893,537.172 1014.086,542.596 					"/>
				</g>
				<g>
					<polygon fill="#624F33" points="1013.954,524.493 1008.761,519.07 1008.617,500.384 1013.81,505.808 					"/>
				</g>
				<g>
					<polygon fill="#A88757" points="845.796,652.87 840.602,647.447 1009.314,592.649 1014.508,598.073 					"/>
				</g>
				<g>
					<polygon fill="#624F33" points="1013.67,487.706 1008.477,482.283 1008.34,463.594 1013.534,469.018 					"/>
				</g>
				<g>
					<polygon fill="#A88757" points="845.519,616.08 840.326,610.657 1009.037,555.86 1014.23,561.283 					"/>
				</g>
				<g>
					<polygon fill="#624F33" points="1013.394,450.916 1008.201,445.493 1008.056,426.806 1013.25,432.23 					"/>
				</g>
				<g>
					<polygon fill="#A88757" points="845.235,579.292 840.042,573.869 1008.761,519.07 1013.954,524.493 					"/>
				</g>
				<g>
					<polygon fill="#624F33" points="1013.118,414.12 1007.924,408.697 1007.78,390.009 1012.973,395.433 					"/>
				</g>
				<g>
					<polygon fill="#A88757" points="844.959,542.503 839.766,537.08 1008.477,482.283 1013.67,487.706 					"/>
				</g>
				<g>
					<polygon fill="#624F33" points="1012.834,377.333 1007.64,371.909 1007.504,353.219 1012.697,358.643 					"/>
				</g>
				<g>
					<polygon fill="#A88757" points="844.683,505.713 839.49,500.29 1008.201,445.493 1013.394,450.916 					"/>
				</g>
				<g>
					<polygon fill="#624F33" points="1012.557,340.543 1007.364,335.119 1007.22,316.432 1012.413,321.855 					"/>
				</g>
				<g>
					<polygon fill="#A88757" points="844.399,468.919 839.206,463.495 1007.924,408.697 1013.118,414.12 					"/>
				</g>
				<g>
					<polygon fill="#624F33" points="1012.281,303.752 1007.088,298.329 1006.944,279.642 1012.137,285.065 					"/>
				</g>
				<g>
					<polygon fill="#A88757" points="844.122,432.129 838.928,426.705 1007.64,371.909 1012.834,377.333 					"/>
				</g>
				<g>
					<polygon fill="#624F33" points="1011.997,266.965 1006.804,261.541 1006.666,242.853 1011.86,248.276 					"/>
				</g>
				<g>
					<polygon fill="#A88757" points="843.845,395.34 838.652,389.916 1007.364,335.119 1012.557,340.543 					"/>
				</g>
				<g>
					<polygon fill="#624F33" points="1011.72,230.169 1006.527,224.745 1006.382,206.058 1011.576,211.482 					"/>
				</g>
				<g>
					<polygon fill="#A88757" points="843.562,358.552 838.368,353.129 1007.088,298.329 1012.281,303.752 					"/>
				</g>
				<g>
					<polygon fill="#624F33" points="1011.444,193.379 1006.25,187.955 1006.106,169.268 1011.299,174.691 					"/>
				</g>
				<g>
					<polygon fill="#A88757" points="843.285,321.762 838.092,316.339 1006.804,261.541 1011.997,266.965 					"/>
				</g>
				<g>
					<polygon fill="#624F33" points="1011.16,156.591 1005.966,151.168 1005.83,132.478 1011.023,137.901 					"/>
				</g>
				<g>
					<polygon fill="#A88757" points="843.009,284.965 837.816,279.541 1006.527,224.745 1011.72,230.169 					"/>
				</g>
				<g>
					<polygon fill="#624F33" points="1010.884,119.801 1005.69,114.378 1005.554,95.688 1010.747,101.111 					"/>
				</g>
				<g>
					<polygon fill="#A88757" points="842.725,248.177 837.532,242.754 1006.25,187.955 1011.444,193.379 					"/>
				</g>
				<g>
					<polygon fill="#A88757" points="842.449,211.387 837.256,205.964 1005.966,151.168 1011.16,156.591 					"/>
				</g>
				<g>
					<polygon fill="#A88757" points="842.172,174.598 836.978,169.174 1005.69,114.378 1010.884,119.801 					"/>
				</g>
				<g>
					<polygon fill="#A88757" points="805.397,133.852 800.204,128.429 1041.669,50 1046.862,55.423 					"/>
				</g>
				<g>
					<path fill="#97794E" d="M805.397,133.852l241.465-78.429l4.288,565.292L809.677,699.14L805.397,133.852z M1010.884,119.801
						l-0.137-18.69l-168.72,54.8l0.144,18.686L1010.884,119.801 M1012.281,303.752l-0.144-18.687l-168.712,54.797l0.137,18.69
						L1012.281,303.752 M1012.834,377.333l-0.137-18.69l-168.72,54.8l0.144,18.686L1012.834,377.333 M1013.67,487.706l-0.137-18.689
						l-168.719,54.798l0.144,18.687L1013.67,487.706 M1011.444,193.379l-0.144-18.687l-168.711,54.797l0.136,18.689
						L1011.444,193.379 M1011.16,156.591l-0.137-18.69l-168.719,54.799l0.144,18.686L1011.16,156.591 M1014.508,598.073
						l-0.138-18.69l-168.719,54.799l0.144,18.687L1014.508,598.073 M1011.997,266.965l-0.138-18.689l-168.719,54.798l0.144,18.687
						L1011.997,266.965 M1012.557,340.543l-0.144-18.687l-168.712,54.797l0.144,18.687L1012.557,340.543 M1013.394,450.916
						l-0.144-18.686l-168.711,54.796l0.144,18.687L1013.394,450.916 M1014.23,561.283l-0.144-18.687l-168.711,54.797l0.144,18.687
						L1014.23,561.283 M1013.954,524.493l-0.144-18.685l-168.711,54.796l0.137,18.689L1013.954,524.493 M1011.72,230.169
						l-0.144-18.687l-168.711,54.803l0.144,18.68L1011.72,230.169 M1013.118,414.12l-0.144-18.687l-168.712,54.805l0.138,18.681
						L1013.118,414.12"/>
				</g>
				<g>
					<polygon fill="#624F33" points="809.677,699.14 804.484,693.716 800.204,128.429 805.397,133.852 					"/>
				</g>
			</g>
		</g>
		<g>
			<path fill="#C49D65" d="M798.953,280.433l-4.917,0.002c-4.291,0.001-7.803-3.508-7.804-7.799l-0.035-101.906
				c-0.001-4.291,3.508-7.803,7.799-7.804l4.917-0.002c4.291-0.001,7.803,3.508,7.804,7.799l0.035,101.907
				C806.753,276.919,803.244,280.431,798.953,280.433z"/>
			<path fill="#C49D65" d="M799.092,688.803l-4.917,0.002c-4.291,0.001-7.803-3.508-7.804-7.799l-0.035-101.906
				c-0.001-4.291,3.508-7.803,7.799-7.804l4.917-0.002c4.291-0.001,7.803,3.508,7.804,7.799l0.035,101.906
				C806.892,685.29,803.383,688.802,799.092,688.803z"/>
		</g>
	</g>
	<g>
		<g>
			<g>
				<g enable-background="new    ">
					<polygon fill="#5BC1C9" points="654.085,350.682 643.545,356.757 577.1,395.122 577.036,373.324 576.813,295.016 
						620.44,269.838 653.798,250.576 654.021,328.199 					"/>
					<polygon fill="#5BC1C9" points="741.865,299.991 664.21,344.83 664.083,300.757 663.923,244.724 690.185,229.56 
						741.577,199.885 					"/>
					<polygon fill="#5BC1C9" points="655.137,721.589 644.294,727.856 578.152,766.045 578.089,743.706 577.866,665.94 
						615.194,644.381 654.85,621.484 655.057,691.373 					"/>
					<path fill="#5BC1C9" d="M742.917,670.914l-77.654,44.839l-0.176-58.456c0-0.016,0-0.016,0-0.032l-0.112-41.618l14.941-8.627
						l62.713-36.212L742.917,670.914z"/>
					<polygon fill="#5BC1C9" points="654.452,481.036 582.809,522.398 577.467,525.492 577.132,405.981 638.49,370.566 
						654.117,361.541 					"/>
					<polygon fill="#5BC1C9" points="742.231,430.361 729.794,437.537 682.276,464.979 664.577,475.2 664.242,355.689 
						739.441,312.269 741.896,310.85 742.136,395.568 					"/>
					<polygon fill="#5BC1C9" points="654.818,611.406 619.993,631.513 577.834,655.846 577.499,536.893 577.499,535.585 
						578.105,535.234 654.484,491.129 654.611,538.918 					"/>
					<path fill="#5BC1C9" d="M742.614,560.715l-59.11,34.123l-18.561,10.715l-0.255-93.552v-0.016l-0.08-26.709l12.836-7.399
						c0,0,0,0,0-0.016l48.777-28.144l16.041-9.264L742.614,560.715z"/>
				</g>
				<polygon fill="#E6FDFF" points="578.105,535.234 577.499,536.893 577.499,535.585 				"/>
				<polygon fill="#E6FDFF" points="582.809,522.398 577.467,525.492 577.132,405.981 638.49,370.566 				"/>
				<polygon fill="#E6FDFF" points="653.798,250.576 654.021,328.199 643.545,356.757 577.1,395.122 577.036,373.324 
					620.44,269.838 				"/>
				<polygon fill="#E6FDFF" points="690.185,229.56 664.083,300.757 663.923,244.724 				"/>
				<path fill="#E6FDFF" d="M654.818,611.406l-34.825,20.107c10.955-29.292,22.611-60.449,34.618-92.595L654.818,611.406z"/>
				<path fill="#E6FDFF" d="M654.85,621.484l0.207,69.889c-3.827,12.979-7.43,25.178-10.763,36.483l-66.142,38.189l-0.064-22.339
					c10.684-28.606,23.281-62.331,37.105-99.324L654.85,621.484z"/>
				<path fill="#E6FDFF" d="M664.976,615.648l14.941-8.627c-5.15,17.46-10.11,34.283-14.829,50.244L664.976,615.648z"/>
				<path fill="#E6FDFF" d="M677.445,477.863l48.777-28.144c-14.781,50.244-29.34,99.675-42.718,145.12l-18.561,10.715
					l-0.255-93.552v-0.016c4.226-11.289,8.483-22.674,12.756-34.107C677.445,477.879,677.445,477.879,677.445,477.863z"/>
				<path fill="#E6FDFF" d="M742.136,395.568c-4.114,13.984-8.228,28-12.342,41.968l-47.518,27.442
					c19.103-51.105,38.556-103.04,57.164-152.71l2.456-1.419L742.136,395.568z"/>
			</g>
			<g>
				<g enable-background="new    ">
					<g>
						<polygon fill="#9A6E44" points="669.509,721.55 659.41,715.682 737.072,670.844 747.17,676.712 						"/>
					</g>
					<g>
						<polygon fill="#60442A" points="747.17,676.712 737.072,670.844 736.788,570.745 746.886,576.614 						"/>
					</g>
					<g>
						<polygon fill="#9A6E44" points="583.072,771.455 572.973,765.586 649.953,721.142 660.052,727.01 						"/>
					</g>
					<g>
						<polygon fill="#9A6E44" points="669.196,611.36 659.098,605.491 736.759,560.654 746.858,566.522 						"/>
					</g>
					<g>
						<polygon fill="#60442A" points="660.052,727.01 649.953,721.142 649.67,621.043 659.768,626.911 						"/>
					</g>
					<g>
						<polygon fill="#60442A" points="746.858,566.522 736.759,560.654 736.42,441.156 746.519,447.024 						"/>
					</g>
					<g>
						<polygon fill="#9A6E44" points="582.759,661.265 572.661,655.396 649.641,610.951 659.74,616.82 						"/>
					</g>
					<g>
						<polygon fill="#60442A" points="659.74,616.82 649.641,610.951 649.302,491.453 659.401,497.322 						"/>
					</g>
					<g>
						<polygon fill="#9A6E44" points="668.827,481.002 658.728,475.134 736.39,430.296 746.488,436.164 						"/>
					</g>
					<g>
						<polygon fill="#60442A" points="746.488,436.164 736.39,430.296 736.049,310.014 746.147,315.883 						"/>
					</g>
					<g>
						<polygon fill="#9A6E44" points="582.39,530.907 572.291,525.038 649.271,480.593 659.37,486.462 						"/>
					</g>
					<g>
						<polygon fill="#9A6E44" points="668.457,350.636 658.359,344.767 736.02,299.929 746.119,305.798 						"/>
					</g>
					<g>
						<polygon fill="#60442A" points="659.37,486.462 649.271,480.593 648.93,360.312 659.029,366.18 						"/>
					</g>
					<g>
						<polygon fill="#60442A" points="746.119,305.798 736.02,299.929 735.736,199.832 745.835,205.7 						"/>
					</g>
					<g>
						<polygon fill="#9A6E44" points="582.02,400.54 571.922,394.672 648.902,350.227 659,356.096 						"/>
					</g>
					<g>
						<polygon fill="#60442A" points="659,356.096 648.902,350.227 648.618,250.129 658.717,255.998 						"/>
					</g>
					<g>
						<polygon fill="#9A6E44" points="562.09,291.576 551.992,285.707 754.587,168.739 764.685,174.608 						"/>
					</g>
					<g>
						<path fill="#8A633D" d="M562.09,291.576l202.595-116.968l1.448,510.589L563.538,802.165L562.09,291.576z M746.488,436.164
							l-0.341-120.282l-77.661,44.838l0.341,120.282L746.488,436.164 M746.858,566.522l-0.339-119.498l-77.661,44.838l0.339,119.498
							L746.858,566.522 M659.37,486.462l-0.341-120.282l-76.98,44.445l0.341,120.282L659.37,486.462 M659.74,616.82l-0.339-119.498
							l-76.98,44.445l0.339,119.498L659.74,616.82 M747.17,676.712l-0.284-100.099l-77.661,44.838l0.284,100.099L747.17,676.712
							 M746.119,305.798L745.835,205.7l-77.661,44.838l0.284,100.098L746.119,305.798 M660.052,727.01l-0.284-100.099l-76.98,44.445
							l0.284,100.099L660.052,727.01 M659,356.096l-0.284-100.098l-76.98,44.445l0.284,100.098L659,356.096"/>
					</g>
					<g>
						<polygon fill="#60442A" points="563.538,802.165 553.439,796.296 551.992,285.707 562.09,291.576 						"/>
					</g>
				</g>
			</g>
		</g>
		<g>
			<g enable-background="new    ">
				<g>
					<path fill="#995F30" d="M576.579,582.585l-9.436-5.484c-1.426-0.829-2.313-2.585-2.32-5.076l9.436,5.484
						C574.266,580,575.153,581.757,576.579,582.585z"/>
				</g>
				<g>
					<polygon fill="#995F30" points="574.259,577.509 564.823,572.025 564.727,538.405 574.164,543.889 					"/>
				</g>
				<g>
					<path fill="#995F30" d="M578.271,524.17l9.436,5.484c-1.444-0.839-3.442-0.726-5.638,0.542l-9.436-5.484
						C574.829,523.444,576.826,523.331,578.271,524.17z"/>
				</g>
				<g>
					<path fill="#995F30" d="M574.164,543.889l-9.436-5.484c-0.014-5.014,3.542-11.174,7.906-13.693l9.436,5.484
						C577.705,532.715,574.149,538.875,574.164,543.889z"/>
				</g>
				<g>
					<path fill="#995F30" d="M582.069,530.196c4.364-2.519,7.943-0.48,7.957,4.535l0.095,33.62
						c0.014,5.014-3.542,11.174-7.906,13.693c-4.364,2.519-7.943,0.48-7.957-4.535l-0.095-33.62
						C574.149,538.875,577.705,532.715,582.069,530.196z"/>
				</g>
			</g>
		</g>
		<g>
			<g enable-background="new    ">
				<g>
					<polygon fill="#A98757" points="559.528,817.598 549.429,811.729 769.576,684.627 779.675,690.496 					"/>
				</g>
				<g>
					<polygon fill="#845229" points="568.276,802.446 558.177,796.578 760.766,679.613 770.865,685.482 					"/>
				</g>
				<g>
					<polygon fill="#695436" points="779.675,690.496 769.576,684.627 768.074,154.638 778.172,160.507 					"/>
				</g>
				<g>
					<polygon fill="#52331A" points="770.865,685.482 760.766,679.613 759.318,169.025 769.417,174.893 					"/>
				</g>
				<g>
					<polygon fill="#52331A" points="559.528,817.598 549.43,811.729 547.927,281.739 558.026,287.608 					"/>
				</g>
				<g>
					<path fill="#764925" d="M558.026,287.608l220.147-127.102l1.503,529.99L559.528,817.598L558.026,287.608z M770.865,685.482
						l-1.448-510.589L566.828,291.858l1.448,510.589L770.865,685.482"/>
				</g>
				<g>
					<polygon fill="#845229" points="558.026,287.608 547.927,281.739 768.074,154.637 778.172,160.506 					"/>
				</g>
				<g>
					<polygon fill="#A98757" points="541.084,277.18 530.986,271.311 785.576,124.324 795.674,130.192 					"/>
				</g>
				<g>
					<path fill="#98794E" d="M541.084,277.18l254.59-146.988l1.617,570.342l-254.59,146.988L541.084,277.18z M779.675,690.496
						l-1.503-529.989L558.025,287.609l1.503,529.989L779.675,690.496"/>
				</g>
				<g>
					<polygon fill="#695436" points="542.701,847.522 532.602,841.654 530.986,271.311 541.084,277.18 					"/>
				</g>
			</g>
		</g>
	</g>
	<g>
		<g>
			<g>
				<g enable-background="new    ">
					<polygon fill="#5BC1C9" points="398.957,497.38 388.417,503.455 321.973,541.82 321.909,520.023 321.686,441.714 
						365.312,416.536 398.67,397.274 398.894,474.897 					"/>
					<polygon fill="#5BC1C9" points="486.737,446.689 409.083,491.528 408.955,447.455 408.796,391.422 435.058,376.258 
						486.45,346.584 					"/>
					<polygon fill="#5BC1C9" points="400.01,868.287 389.167,874.554 323.025,912.743 322.961,890.404 322.738,812.638 
						360.066,791.079 399.723,768.182 399.93,838.071 					"/>
					<path fill="#5BC1C9" d="M487.79,817.613l-77.654,44.839l-0.176-58.456c0-0.016,0-0.016,0-0.032l-0.112-41.618l14.941-8.627
						l62.713-36.212L487.79,817.613z"/>
					<polygon fill="#5BC1C9" points="399.324,627.734 327.681,669.097 322.339,672.19 322.005,552.679 383.363,517.264 
						398.989,508.239 					"/>
					<polygon fill="#5BC1C9" points="487.104,577.06 474.667,584.235 427.149,611.677 409.45,621.898 409.115,502.387 
						484.313,458.967 486.769,457.548 487.008,542.266 					"/>
					<polygon fill="#5BC1C9" points="399.691,758.104 364.866,778.211 322.706,802.544 322.371,683.591 322.371,682.284 
						322.977,681.933 399.356,637.828 399.484,685.616 					"/>
					<path fill="#5BC1C9" d="M487.487,707.414l-59.11,34.123l-18.561,10.715l-0.255-93.552v-0.016l-0.08-26.709l12.836-7.399
						c0,0,0,0,0-0.016l48.777-28.144l16.041-9.264L487.487,707.414z"/>
				</g>
				<polygon fill="#E6FDFF" points="322.977,681.933 322.371,683.591 322.371,682.284 				"/>
				<polygon fill="#E6FDFF" points="327.681,669.097 322.339,672.19 322.005,552.679 383.363,517.264 				"/>
				<polygon fill="#E6FDFF" points="398.67,397.274 398.894,474.897 388.417,503.455 321.973,541.82 321.909,520.023 
					365.312,416.536 				"/>
				<polygon fill="#E6FDFF" points="435.058,376.258 408.955,447.455 408.796,391.422 				"/>
				<path fill="#E6FDFF" d="M399.691,758.104l-34.825,20.107c10.955-29.292,22.611-60.449,34.618-92.595L399.691,758.104z"/>
				<path fill="#E6FDFF" d="M399.723,768.182l0.207,69.889c-3.827,12.979-7.43,25.178-10.763,36.483l-66.142,38.189l-0.064-22.34
					c10.684-28.606,23.281-62.331,37.105-99.324L399.723,768.182z"/>
				<path fill="#E6FDFF" d="M409.848,762.346l14.941-8.627c-5.15,17.46-10.11,34.283-14.829,50.244L409.848,762.346z"/>
				<path fill="#E6FDFF" d="M422.317,624.561l48.777-28.144c-14.781,50.244-29.34,99.675-42.718,145.12l-18.561,10.715
					l-0.255-93.552v-0.016c4.226-11.289,8.483-22.674,12.756-34.107C422.317,624.577,422.317,624.577,422.317,624.561z"/>
				<path fill="#E6FDFF" d="M487.008,542.266c-4.114,13.984-8.228,28-12.342,41.969l-47.518,27.442
					c19.103-51.105,38.556-103.04,57.164-152.71l2.456-1.419L487.008,542.266z"/>
			</g>
			<g>
				<g enable-background="new    ">
					<g>
						<polygon fill="#9A6E44" points="411.399,873.753 401.3,867.884 478.28,823.439 488.379,829.308 						"/>
					</g>
					<g>
						<polygon fill="#60442A" points="488.379,829.308 478.28,823.439 477.997,723.334 488.095,729.203 						"/>
					</g>
					<g>
						<polygon fill="#9A6E44" points="324.281,924.05 314.182,918.182 390.494,874.123 400.592,879.992 						"/>
					</g>
					<g>
						<polygon fill="#9A6E44" points="411.086,763.563 400.988,757.695 477.968,713.25 488.067,719.119 						"/>
					</g>
					<g>
						<polygon fill="#60442A" points="400.592,879.992 390.494,874.123 390.21,774.018 400.308,779.886 						"/>
					</g>
					<g>
						<polygon fill="#60442A" points="488.067,719.119 477.968,713.25 477.629,593.75 487.728,599.619 						"/>
					</g>
					<g>
						<polygon fill="#9A6E44" points="323.968,813.861 313.87,807.992 390.181,763.934 400.28,769.802 						"/>
					</g>
					<g>
						<polygon fill="#9A6E44" points="410.717,633.197 400.618,627.328 477.598,582.884 487.697,588.752 						"/>
					</g>
					<g>
						<polygon fill="#60442A" points="400.28,769.802 390.181,763.934 389.842,644.434 399.941,650.302 						"/>
					</g>
					<g>
						<polygon fill="#60442A" points="487.697,588.752 477.598,582.884 477.26,463.385 487.358,469.254 						"/>
					</g>
					<g>
						<polygon fill="#9A6E44" points="323.599,683.494 313.5,677.626 389.812,633.567 399.91,639.436 						"/>
					</g>
					<g>
						<polygon fill="#9A6E44" points="410.347,502.839 400.249,496.97 477.229,452.526 487.327,458.394 						"/>
					</g>
					<g>
						<polygon fill="#60442A" points="399.91,639.436 389.812,633.567 389.473,514.069 399.571,519.938 						"/>
					</g>
					<g>
						<polygon fill="#60442A" points="487.327,458.394 477.229,452.526 476.947,353.195 487.046,359.064 						"/>
					</g>
					<g>
						<polygon fill="#9A6E44" points="323.229,553.137 313.13,547.268 389.442,503.209 399.541,509.078 						"/>
					</g>
					<g>
						<polygon fill="#60442A" points="399.541,509.078 389.442,503.209 389.16,403.879 399.259,409.748 						"/>
					</g>
					<g>
						<polygon fill="#9A6E44" points="303.307,444.944 293.209,439.075 496.478,321.718 506.577,327.586 						"/>
					</g>
					<g>
						<path fill="#8A633D" d="M303.307,444.944l203.269-117.358l1.445,509.814L304.753,954.758L303.307,444.944z M488.067,719.119
							l-0.339-119.5l-76.98,44.445l0.339,119.5L488.067,719.119 M487.697,588.752l-0.339-119.498l-76.98,44.445l0.339,119.498
							L487.697,588.752 M400.28,769.802l-0.339-119.5l-76.312,44.059l0.339,119.5L400.28,769.802 M399.91,639.436l-0.339-119.498
							l-76.312,44.059l0.339,119.498L399.91,639.436 M488.379,829.308l-0.284-100.105l-76.98,44.445l0.284,100.105L488.379,829.308
							 M487.327,458.394l-0.282-99.33l-76.98,44.445l0.282,99.33L487.327,458.394 M400.592,879.992l-0.284-100.105l-76.312,44.059
							l0.284,100.105L400.592,879.992 M399.541,509.078l-0.282-99.33l-76.312,44.059l0.282,99.33L399.541,509.078"/>
					</g>
					<g>
						<polygon fill="#60442A" points="304.753,954.758 294.654,948.889 293.209,439.075 303.307,444.944 						"/>
					</g>
				</g>
			</g>
		</g>
		<g>
			<g enable-background="new    ">
				<g>
					<polygon fill="#A98757" points="306.986,962.853 296.887,956.984 516.361,830.271 526.459,836.14 					"/>
				</g>
				<g>
					<polygon fill="#695436" points="526.459,836.14 516.361,830.271 514.858,300.282 524.957,306.151 					"/>
				</g>
				<g>
					<polygon fill="#845229" points="315.741,947.698 305.642,941.829 508.231,824.865 518.329,830.733 					"/>
				</g>
				<g>
					<polygon fill="#52331A" points="518.329,830.733 508.231,824.865 506.785,315.051 516.884,320.919 					"/>
				</g>
				<g>
					<polygon fill="#52331A" points="306.986,962.853 296.888,956.984 295.385,426.994 305.484,432.863 					"/>
				</g>
				<g>
					<path fill="#764925" d="M305.484,432.863L524.956,306.15l1.503,529.99L306.986,962.853L305.484,432.863z M518.329,830.733
						l-1.445-509.814L314.295,437.884l1.445,509.814L518.329,830.733"/>
				</g>
				<g>
					<polygon fill="#845229" points="305.484,432.863 295.385,426.994 514.858,300.282 524.956,306.15 					"/>
				</g>
				<g>
					<polygon fill="#A98757" points="287.868,422.824 277.77,416.956 532.359,269.969 542.457,275.837 					"/>
				</g>
				<g>
					<path fill="#98794E" d="M287.868,422.824l254.589-146.987l1.617,570.342L289.485,993.166L287.868,422.824z M526.459,836.14
						l-1.503-529.989L305.483,432.864l1.503,529.989L526.459,836.14"/>
				</g>
				<g>
					<polygon fill="#695436" points="289.485,993.166 279.387,987.298 277.77,416.956 287.868,422.824 					"/>
				</g>
			</g>
		</g>
		<g>
			<g enable-background="new    ">
				<g>
					<path fill="#995F30" d="M500.832,633.149l-9.341-5.428c-0.986-0.573-1.599-1.787-1.604-3.508l9.341,5.428
						C499.233,631.362,499.846,632.576,500.832,633.149z"/>
				</g>
				<g>
					<path fill="#995F30" d="M504.038,573.339l9.341,5.428c-0.999-0.58-2.379-0.502-3.896,0.373l-9.341-5.428
						C501.659,572.837,503.039,572.759,504.038,573.339z"/>
				</g>
				<g>
					<polygon fill="#995F30" points="499.228,629.641 489.887,624.213 489.779,586.005 499.12,591.433 					"/>
				</g>
				<g>
					<polygon fill="#995F30" points="504.584,581.969 495.243,576.541 500.142,573.712 509.482,579.141 					"/>
				</g>
				<g>
					<path fill="#995F30" d="M499.12,591.433l-9.341-5.428c-0.01-3.464,2.45-7.724,5.464-9.464l9.341,5.428
						C501.569,583.709,499.11,587.969,499.12,591.433z"/>
				</g>
				<g>
					<path fill="#995F30" d="M509.482,579.141c3.015-1.74,5.49-0.33,5.5,3.134l0.108,38.208c0.01,3.464-2.45,7.724-5.464,9.464
						l-4.899,2.828c-3.015,1.74-5.49,0.33-5.5-3.134l-0.108-38.208c-0.01-3.464,2.45-7.724,5.464-9.464L509.482,579.141z"/>
				</g>
			</g>
		</g>
	</g>
	<path fill="#C49D65" d="M275.147,574.989h3.6c4.066,0,7.393-3.327,7.393-7.393V464.615c0-4.066-3.327-7.393-7.393-7.393h-3.6
		c-4.066,0-7.393,3.327-7.393,7.393v102.981C267.755,571.662,271.082,574.989,275.147,574.989z"/>
	<path fill="#C49D65" d="M275.147,984.252h3.6c4.066,0,7.393-3.327,7.393-7.393V873.878c0-4.066-3.327-7.393-7.393-7.393h-3.6
		c-4.066,0-7.393,3.327-7.393,7.393v102.981C267.755,980.925,271.082,984.252,275.147,984.252z"/>
	<g>
		<polygon fill="#78603E" points="255.204,992.389 245.412,989.806 245.465,970.41 255.257,972.993 		"/>
	</g>
	<g>
		<polygon fill="#78603E" points="255.305,955.146 245.513,952.563 245.564,933.949 255.356,936.532 		"/>
	</g>
	<g>
		<polygon fill="#78603E" points="255.407,917.911 245.615,915.327 245.666,896.705 255.458,899.288 		"/>
	</g>
	<g>
		<polygon fill="#78603E" points="255.506,881.449 245.714,878.866 245.765,860.245 255.557,862.828 		"/>
	</g>
	<g>
		<polygon fill="#78603E" points="255.606,844.988 245.814,842.405 245.865,823.784 255.657,826.367 		"/>
	</g>
	<g>
		<polygon fill="#A98757" points="175.595,1094.284 165.803,1091.701 245.412,989.806 255.204,992.389 		"/>
	</g>
	<g>
		<polygon fill="#78603E" points="255.708,807.745 245.916,805.162 245.966,786.548 255.758,789.131 		"/>
	</g>
	<g>
		<polygon fill="#A98757" points="175.697,1057.04 165.905,1054.457 245.513,952.563 255.305,955.146 		"/>
	</g>
	<g>
		<polygon fill="#78603E" points="255.807,771.284 246.015,768.701 246.068,749.304 255.86,751.887 		"/>
	</g>
	<g>
		<polygon fill="#A98757" points="175.798,1019.805 166.006,1017.222 245.615,915.327 255.407,917.911 		"/>
	</g>
	<g>
		<polygon fill="#78603E" points="255.906,734.823 246.114,732.239 246.167,712.843 255.959,715.427 		"/>
	</g>
	<g>
		<polygon fill="#A98757" points="175.898,983.343 166.106,980.76 245.714,878.866 255.506,881.449 		"/>
	</g>
	<g>
		<polygon fill="#78603E" points="256.008,697.587 246.216,695.004 246.267,676.382 256.059,678.965 		"/>
	</g>
	<g>
		<polygon fill="#A98757" points="175.997,946.883 166.205,944.3 245.814,842.405 255.606,844.988 		"/>
	</g>
	<g>
		<polygon fill="#78603E" points="256.11,660.344 246.318,657.76 246.368,639.146 256.16,641.73 		"/>
	</g>
	<g>
		<polygon fill="#A98757" points="176.099,909.639 166.307,907.056 245.916,805.162 255.708,807.745 		"/>
	</g>
	<g>
		<polygon fill="#78603E" points="256.209,623.883 246.417,621.3 246.468,602.678 256.26,605.261 		"/>
	</g>
	<g>
		<polygon fill="#A98757" points="176.198,873.179 166.406,870.596 246.015,768.701 255.807,771.284 		"/>
	</g>
	<g>
		<polygon fill="#78603E" points="256.309,587.421 246.517,584.838 246.567,566.217 256.359,568.8 		"/>
	</g>
	<g>
		<polygon fill="#A98757" points="176.298,836.717 166.506,834.134 246.114,732.239 255.906,734.823 		"/>
	</g>
	<g>
		<polygon fill="#78603E" points="256.41,550.179 246.618,547.596 246.669,528.982 256.461,531.565 		"/>
	</g>
	<g>
		<polygon fill="#A98757" points="176.399,799.482 166.607,796.898 246.216,695.004 256.008,697.587 		"/>
	</g>
	<g>
		<polygon fill="#78603E" points="256.51,513.718 246.718,511.135 246.768,492.521 256.56,495.104 		"/>
	</g>
	<g>
		<polygon fill="#A98757" points="176.501,762.238 166.709,759.655 246.318,657.76 256.11,660.344 		"/>
	</g>
	<g>
		<polygon fill="#A98757" points="176.6,725.778 166.808,723.194 246.417,621.3 256.209,623.883 		"/>
	</g>
	<g>
		<polygon fill="#A98757" points="176.7,689.316 166.908,686.733 246.517,584.838 256.309,587.421 		"/>
	</g>
	<g>
		<polygon fill="#A98757" points="176.802,652.073 167.01,649.49 246.618,547.596 256.41,550.179 		"/>
	</g>
	<g>
		<polygon fill="#A98757" points="176.901,615.613 167.109,613.03 246.718,511.135 256.51,513.718 		"/>
	</g>
	<g>
		<polygon fill="#A98757" points="160.185,584.442 150.393,581.859 263.725,436.801 273.517,439.384 		"/>
	</g>
	<polyline fill="#8D7148" points="158.642,1150 160.185,584.442 273.517,439.384 271.974,1004.942 158.642,1150 	"/>
	<polyline fill="#8D7148" points="255.807,771.284 255.86,751.887 176.251,853.782 176.198,873.179 255.807,771.284 	"/>
	<polyline fill="#8D7148" points="255.906,734.823 255.959,715.427 176.351,817.321 176.298,836.717 255.906,734.823 	"/>
	<polyline fill="#8D7148" points="255.204,992.389 255.257,972.993 175.648,1074.888 175.595,1094.284 255.204,992.389 	"/>
	<polyline fill="#8D7148" points="255.407,917.911 255.458,899.288 175.849,1001.183 175.798,1019.805 255.407,917.911 	"/>
	<polyline fill="#8D7148" points="256.008,697.587 256.059,678.965 176.45,780.859 176.399,799.482 256.008,697.587 	"/>
	<polyline fill="#8D7148" points="256.209,623.883 256.26,605.261 176.651,707.155 176.6,725.778 256.209,623.883 	"/>
	<polyline fill="#8D7148" points="255.606,844.988 255.657,826.367 176.048,928.262 175.997,946.883 255.606,844.988 	"/>
	<polyline fill="#8D7148" points="255.506,881.449 255.557,862.828 175.949,964.722 175.898,983.343 255.506,881.449 	"/>
	<polyline fill="#8D7148" points="256.309,587.421 256.359,568.8 176.751,670.695 176.7,689.316 256.309,587.421 	"/>
	<polyline fill="#8D7148" points="255.305,955.146 255.356,936.532 175.747,1038.426 175.697,1057.04 255.305,955.146 	"/>
	<polyline fill="#8D7148" points="255.708,807.745 255.758,789.131 176.15,891.025 176.099,909.639 255.708,807.745 	"/>
	<polyline fill="#8D7148" points="256.41,550.179 256.461,531.565 176.852,633.459 176.802,652.073 256.41,550.179 	"/>
	<polyline fill="#8D7148" points="256.51,513.718 256.56,495.104 176.952,596.999 176.901,615.613 256.51,513.718 	"/>
	<polyline fill="#8D7148" points="256.11,660.344 256.16,641.73 176.552,743.624 176.501,762.238 256.11,660.344 	"/>
	<polyline fill="#78603E" points="148.85,1147.417 150.393,581.859 160.185,584.442 158.642,1150 	"/>
</g>
</svg>
