<svg id="Layer_1" data-name="Layer 1" xmlns="http://www.w3.org/2000/svg" xmlns:xlink="http://www.w3.org/1999/xlink" viewBox="0 0 76.75 99.6"><defs><style>.cls-1{fill:#bf7958;}.cls-2{fill:#db855c;}.cls-3{fill:#ffd7b1;}.cls-4{fill:#79adcb;}.cls-5{fill:#5a93b4;}.cls-6{fill:#eea160;}.cls-7{fill:#69a1c2;}.cls-8{fill:#f0c49a;}.cls-9{fill:url(#radial-gradient);}.cls-10{fill:#e7b687;}.cls-11{fill:#fff;}.cls-12{fill:#71a2be;}</style><radialGradient id="radial-gradient" cx="-739.57" cy="588.93" r="13.59" gradientTransform="matrix(1.42, 0, 0, -0.72, 1089.42, 476.52)" gradientUnits="userSpaceOnUse"><stop offset="0" stop-opacity="0.3"/><stop offset="1" stop-opacity="0"/></radialGradient></defs><title>character</title><g id="poses"><g id="back_FL_FL_FL_FL_FL_FL_FL_FL_FL_FL_FL_FL_FL_FL_FL_FL_FL_FL_FL_FL_FL_FL_FL_FL_FL_FL_FL_FL_FL_FL_FL_FL" data-name="back FL FL FL FL FL FL FL FL FL FL FL FL FL FL FL FL FL FL FL FL FL FL FL FL FL FL FL FL FL FL FL FL"><g id="Symbol_1_0_Layer0_0_FILL" data-name="Symbol 1 0 Layer0 0 FILL"><path class="cls-1" d="M55.94,11.8Q47.69,6.34,36.67,7.19a30.06,30.06,0,0,0-18.36,7.56,22,22,0,0,0-4.48,5.57,23.8,23.8,0,0,0-.64,7.87v.15l0,.45A51,51,0,0,0,14,33.9L15.73,46c0,.4.08.79.15,1.19a22.06,22.06,0,0,0,2.18,6.7,23,23,0,0,0,5.78,7.27,22.85,22.85,0,0,0,17.35,5.66,22.79,22.79,0,0,0,16.2-8.29,24.4,24.4,0,0,0,4.87-8.25A18.53,18.53,0,0,0,63,47a64.55,64.55,0,0,0,.46-16.49,26.3,26.3,0,0,1-.17-2.89,5,5,0,0,1,0-.55c0-.87-.08-1.75-.15-2.65v-.15a24,24,0,0,0-1.86-7.68A23.56,23.56,0,0,0,55.94,11.8Z" transform="translate(-1.6 -1.67)"/><path class="cls-2" d="M36.67,7.19q11-.86,19.27,4.61a23.56,23.56,0,0,1,5.34,4.8,24.3,24.3,0,0,0-6.83-9,24.33,24.33,0,0,0-18.2-5.8A25,25,0,0,0,13.83,20.32a22,22,0,0,1,4.48-5.57A30.06,30.06,0,0,1,36.67,7.19Z" transform="translate(-1.6 -1.67)"/></g></g><g id="arm_0_Layer0_0_FILL" data-name="arm 0 Layer0 0 FILL"><path class="cls-3" d="M62.32,42a12.13,12.13,0,0,0,2.09-3q1.55-3.25,2.3-5.13a2.26,2.26,0,0,1,2.83-1.46,5.05,5.05,0,0,1,4.07,5.85,23.59,23.59,0,0,1-3.76,9.6Z" transform="translate(-1.6 -1.67)"/><path class="cls-4" d="M69.85,47.91a27.08,27.08,0,0,1-4.49,5.17,39.11,39.11,0,0,1-8.57,5.72,5.11,5.11,0,0,1-3.85.27,5,5,0,0,1-3-2.47,4.6,4.6,0,0,1-.38-3.78A4.75,4.75,0,0,1,52,49.92a26.4,26.4,0,0,0,5.78-3.79A28.2,28.2,0,0,0,62.32,42Z" transform="translate(-1.6 -1.67)"/></g><g id="arm_0_Layer0_1_FILL" data-name="arm 0 Layer0 1 FILL"><path class="cls-5" d="M60,43.09l2.14-3,9.63,6.93L69.6,50.59Z" transform="translate(-1.6 -1.67)"/></g><g id="arm_0_Layer0_0_FILL-2" data-name="arm 0 Layer0 0 FILL"><path class="cls-3" d="M18.67,44.51a12.13,12.13,0,0,1-2.09-3Q15,38.3,14.28,36.42A2.26,2.26,0,0,0,11.45,35a5.05,5.05,0,0,0-4.07,5.85,23.59,23.59,0,0,0,3.76,9.6Z" transform="translate(-1.6 -1.67)"/><path class="cls-4" d="M11.14,50.41a27.08,27.08,0,0,0,4.49,5.17A39.11,39.11,0,0,0,24.2,61.3a5.11,5.11,0,0,0,3.85.27,5,5,0,0,0,3-2.47,4.6,4.6,0,0,0,.38-3.78A4.75,4.75,0,0,0,29,52.42a26.4,26.4,0,0,1-5.78-3.79,28.64,28.64,0,0,1-4.52-4.12Z" transform="translate(-1.6 -1.67)"/></g><g id="arm_0_Layer0_1_FILL-2" data-name="arm 0 Layer0 1 FILL"><path class="cls-5" d="M21,45.59l-2.14-3L9.26,49.57l2.13,3.52Z" transform="translate(-1.6 -1.67)"/></g><g id="legBend_0_Layer0_0_FILL" data-name="legBend 0 Layer0 0 FILL"><path class="cls-1" d="M18.7,97q4.36-3,2.76-7.06l11-4.48,3.72,7.13L19.91,99.43Z" transform="translate(-1.6 -1.67)"/><path class="cls-6" d="M31.22,82.33,20.38,84.17q-.06-7,6-12.61a6.19,6.19,0,0,1,4.24-1.74,5.65,5.65,0,0,1,4.11,1.41,4.88,4.88,0,0,1,1.66,3.13Q30.61,78.11,31.22,82.33Z" transform="translate(-1.6 -1.67)"/><path class="cls-3" d="M21.46,90a22.41,22.41,0,0,1-1.08-5.79l10.84-1.84a7.56,7.56,0,0,0,1.26,3.15Z" transform="translate(-1.6 -1.67)"/></g><g id="legBend_0_Layer0_0_FILL-2" data-name="legBend 0 Layer0 0 FILL"><path class="cls-1" d="M52.6,99.42q-3.09-4.29-.19-7.58l-8.82-8-5.93,5.43,13,12Z" transform="translate(-1.6 -1.67)"/><path class="cls-6" d="M45.84,81.34l9.57,5.42q2.45-6.54-1.33-13.89a6.19,6.19,0,0,0-3.39-3.09,5.68,5.68,0,0,0-4.34-.08,5,5,0,0,0-2.64,2.38Q47.86,77.57,45.84,81.34Z" transform="translate(-1.6 -1.67)"/><path class="cls-3" d="M52.41,91.84a22.09,22.09,0,0,0,3-5.08l-9.57-5.42a7.54,7.54,0,0,1-2.25,2.52Z" transform="translate(-1.6 -1.67)"/></g><g id="body_0_Layer0_0_FILL" data-name="body 0 Layer0 0 FILL"><path class="cls-5" d="M23.75,61.31l.2.8a39,39,0,0,1,1.55,12Q32,67.11,23.75,61.31m29.85.8.2-.8q-8.25,5.79-1.75,12.85A38.7,38.7,0,0,1,53.6,62.11Z" transform="translate(-1.6 -1.67)"/><path class="cls-6" d="M51.45,78.76a16.44,16.44,0,0,0,.6-4.6H25.5a15.74,15.74,0,0,0,.6,4.6Z" transform="translate(-1.6 -1.67)"/><path class="cls-4" d="M53.8,61.31l-.2.8A26.39,26.39,0,0,1,57,55q1-5-2-5.2H23.1c-2.44-.14-3.3,1.6-2.6,5.2A26.2,26.2,0,0,1,24,62.11l-.2-.8Q32,67.1,25.5,74.16H52.05q-6.51-7.05,1.75-12.85m-5,.4c0,.53-1,1-2.9,1.3a33.76,33.76,0,0,1-7.1.65,33.32,33.32,0,0,1-7-.65c-1.94-.34-2.9-.77-2.9-1.3s1-1.07,2.9-1.5a42,42,0,0,1,7.05-.5,42.59,42.59,0,0,1,7.1.5C47.78,60.64,48.75,61.14,48.75,61.71Z" transform="translate(-1.6 -1.67)"/><path class="cls-7" d="M45.85,63c1.93-.34,2.9-.77,2.9-1.3s-1-1.07-2.9-1.5a42.59,42.59,0,0,0-7.1-.5,42,42,0,0,0-7,.5c-1.94.43-2.9.93-2.9,1.5s1,1,2.9,1.3a33.32,33.32,0,0,0,7.05.65A33.76,33.76,0,0,0,45.85,63Z" transform="translate(-1.6 -1.67)"/></g><g id="body_0_Layer0_1_FILL" data-name="body 0 Layer0 1 FILL"><path class="cls-1" d="M53.25,75.76v-5h-28v5Z" transform="translate(-1.6 -1.67)"/></g><g id="body_0_Layer0_2_FILL" data-name="body 0 Layer0 2 FILL"><path class="cls-1" d="M52.05,83.51h.05a2.2,2.2,0,0,0,1.65-.7,2,2,0,0,0,.45-1.75l-.9-5.55h-5l.9,5.55a3.19,3.19,0,0,0,1,1.75A2.94,2.94,0,0,0,52.05,83.51Z" transform="translate(-1.6 -1.67)"/></g><g id="body_0_Layer0_3_FILL" data-name="body 0 Layer0 3 FILL"><path class="cls-8" d="M49.25,48.76a8.35,8.35,0,0,0-3-6.45,11.36,11.36,0,0,0-7.45-2.55,11.34,11.34,0,0,0-7.45,2.55,8.31,8.31,0,0,0-3.05,6.45,2.18,2.18,0,0,0,.05.5,7.82,7.82,0,0,0,3,5.8,11,11,0,0,0,7.45,2.7,11,11,0,0,0,7.45-2.7,7.82,7.82,0,0,0,3-5.8A2.92,2.92,0,0,0,49.25,48.76Z" transform="translate(-1.6 -1.67)"/></g><g id="body_0_Layer0_4_FILL" data-name="body 0 Layer0 4 FILL"><path class="cls-1" d="M27.35,45.76l-4.1,3.75a84.2,84.2,0,0,0,24,25.25l4-3.7Q38,61.55,27.35,45.76Z" transform="translate(-1.6 -1.67)"/></g><g id="hand_0_Layer0_0_FILL" data-name="hand 0 Layer0 0 FILL"><path class="cls-8" d="M65.86,25.9l-.51.8a13.45,13.45,0,0,0-.85,10.66Q59.64,27,65.85,25.83Z" transform="translate(-1.6 -1.67)"/><path class="cls-3" d="M71.43,41.36l-6.93-4a13.45,13.45,0,0,1,.85-10.66l.51-.8v-.07c.52-1,1.11-2,1.77-3.07l.18-.3c.48-.84,1.38-1,2.7-.58A27,27,0,0,1,76,24.36Q82.38,28.1,71.43,41.36Z" transform="translate(-1.6 -1.67)"/></g><g id="hand_0_Layer0_0_FILL-2" data-name="hand 0 Layer0 0 FILL"><path class="cls-8" d="M14.08,26.9l.52.8a13.49,13.49,0,0,1,.84,10.66Q20.3,28,14.1,26.83Z" transform="translate(-1.6 -1.67)"/><path class="cls-3" d="M8.51,42.36l6.93-4A13.49,13.49,0,0,0,14.6,27.7l-.52-.8,0-.07c-.53-1-1.12-2-1.78-3.07l-.17-.3c-.49-.84-1.39-1-2.71-.58A27,27,0,0,0,4,25.36Q-2.44,29.1,8.51,42.36Z" transform="translate(-1.6 -1.67)"/></g><g id="shadow_0_Layer0_0_FILL" data-name="shadow 0 Layer0 0 FILL"><path class="cls-9" d="M53.6,46.09a29.38,29.38,0,0,0-13.4-2.81,30.28,30.28,0,0,0-13.55,2.81Q21.12,49,21.11,53t5.54,6.79A29.61,29.61,0,0,0,40.2,62.63a28.74,28.74,0,0,0,13.4-2.88q5.68-2.8,5.68-6.79T53.6,46.09Z" transform="translate(-1.6 -1.67)"/></g><g id="head_0_Layer0_0_MEMBER_0_FILL" data-name="head 0 Layer0 0 MEMBER 0 FILL"><path class="cls-3" d="M56.7,23.64a7.61,7.61,0,0,0-5.49,2.76A8.2,8.2,0,0,0,52,37.87a7.84,7.84,0,0,0,11.27-.73,8.19,8.19,0,0,0-.74-11.47,7.58,7.58,0,0,0-5.79-2m.84,13a4.61,4.61,0,0,1-3.49-1.23,4.7,4.7,0,0,1-1.62-3.35,4.89,4.89,0,0,1,1.18-3.53,4.52,4.52,0,0,1,3.3-1.67,4.68,4.68,0,0,1,3.53,1.22A5,5,0,0,1,62,31.46,4.77,4.77,0,0,1,60.89,35,4.71,4.71,0,0,1,57.54,36.66Z" transform="translate(-1.6 -1.67)"/><path class="cls-10" d="M54.05,35.43a4.61,4.61,0,0,0,3.49,1.23A4.71,4.71,0,0,0,60.89,35,4.77,4.77,0,0,0,62,31.46a5,5,0,0,0-1.57-3.36,4.68,4.68,0,0,0-3.53-1.22,4.52,4.52,0,0,0-3.3,1.67,4.89,4.89,0,0,0-1.18,3.53A4.7,4.7,0,0,0,54.05,35.43Z" transform="translate(-1.6 -1.67)"/></g><g id="head_0_Layer0_0_MEMBER_1_FILL" data-name="head 0 Layer0 0 MEMBER 1 FILL"><path class="cls-3" d="M14.29,28.79A8.21,8.21,0,0,0,15,40.26a7.63,7.63,0,0,0,5.8,2,7.72,7.72,0,0,0,5.48-2.76,8.21,8.21,0,0,0-.74-11.47,7.71,7.71,0,0,0-5.8-2,7.61,7.61,0,0,0-5.48,2.76m2.84,9a4.77,4.77,0,0,1-1.57-3.35,5,5,0,0,1,1.13-3.53A4.51,4.51,0,0,1,20,29.27a4.43,4.43,0,0,1,3.49,1.23,4.85,4.85,0,0,1,1.62,3.35,4.68,4.68,0,0,1-1.17,3.53,4.48,4.48,0,0,1-3.3,1.67A4.57,4.57,0,0,1,17.13,37.82Z" transform="translate(-1.6 -1.67)"/><path class="cls-10" d="M15.56,34.47a4.77,4.77,0,0,0,1.57,3.35,4.57,4.57,0,0,0,3.49,1.23,4.48,4.48,0,0,0,3.3-1.67,4.68,4.68,0,0,0,1.17-3.53,4.85,4.85,0,0,0-1.62-3.35A4.43,4.43,0,0,0,20,29.27a4.51,4.51,0,0,0-3.29,1.67A5,5,0,0,0,15.56,34.47Z" transform="translate(-1.6 -1.67)"/></g><g id="head_0_Layer0_0_MEMBER_2_FILL" data-name="head 0 Layer0 0 MEMBER 2 FILL"><path class="cls-3" d="M57.82,39.4l.83-22.81L16.88,19.3l3.77,22.5q2.52,7.31,11.09,9.61a22.18,22.18,0,0,0,8.22.87,22.39,22.39,0,0,0,8.1-1.93Q56.25,47,57.82,39.4Z" transform="translate(-1.6 -1.67)"/></g><g id="head_0_Layer0_0_MEMBER_3_FILL" data-name="head 0 Layer0 0 MEMBER 3 FILL"><path class="cls-10" d="M41.52,39.25a2,2,0,0,0,.95-1.72A2.09,2.09,0,0,0,41.31,36a4.41,4.41,0,0,0-2.49-.5,4.22,4.22,0,0,0-2.3.81A2.09,2.09,0,0,0,35.63,38a2,2,0,0,0,1.1,1.58,3.85,3.85,0,0,0,2.4.59A3.94,3.94,0,0,0,41.52,39.25Z" transform="translate(-1.6 -1.67)"/></g><g id="head_0_Layer0_0_MEMBER_3_MEMBER_0_MEMBER_0_FILL" data-name="head 0 Layer0 0 MEMBER 3 MEMBER 0 MEMBER 0 FILL"><path class="cls-1" d="M26.32,35.82l0-.35a4.32,4.32,0,0,1,.95-3.11A3.86,3.86,0,0,1,29.47,31l-5.74.37a6,6,0,0,1,2.59,4.44m6.78,1.72A4.24,4.24,0,0,0,33.63,35a4.46,4.46,0,0,0-.86-2.5A2,2,0,0,0,31,31.57a2,2,0,0,0-1.58,1.15,4.53,4.53,0,0,0-.54,2.59,4.37,4.37,0,0,0,.86,2.45,2,2,0,0,0,1.72,1A2.06,2.06,0,0,0,33.1,37.54Z" transform="translate(-1.6 -1.67)"/><path class="cls-11" d="M29.86,30.93a1.8,1.8,0,0,0-.39.08,3.86,3.86,0,0,0-2.22,1.35,4.32,4.32,0,0,0-.95,3.11l0,.35a4.22,4.22,0,0,0,1.32,2.57,3.87,3.87,0,0,0,3.08,1.16A3.55,3.55,0,0,0,33.43,38a4.17,4.17,0,0,0,1-3.07A4.26,4.26,0,0,0,33,32a3.64,3.64,0,0,0-2.88-1.06h-.3M33.63,35a4.24,4.24,0,0,1-.53,2.54,2.06,2.06,0,0,1-1.68,1.21,2,2,0,0,1-1.72-1,4.37,4.37,0,0,1-.86-2.45,4.53,4.53,0,0,1,.54-2.59A2,2,0,0,1,31,31.57a2,2,0,0,1,1.81.93A4.46,4.46,0,0,1,33.63,35Z" transform="translate(-1.6 -1.67)"/></g><g id="head_0_Layer0_0_MEMBER_3_MEMBER_0_MEMBER_1_FILL" data-name="head 0 Layer0 0 MEMBER 3 MEMBER 0 MEMBER 1 FILL"><path class="cls-1" d="M51.4,33.85l0,.35a6,6,0,0,1,1.95-4.74l-5.69.37a3.9,3.9,0,0,1,2.37,1.05,4.34,4.34,0,0,1,1.35,3m-7.34.47a4.27,4.27,0,0,0,.86,2.45,2,2,0,0,0,1.77,1,2,2,0,0,0,1.62-1.21A4.15,4.15,0,0,0,48.85,34a4.49,4.49,0,0,0-.86-2.5,1.9,1.9,0,0,0-3.39.22A4.55,4.55,0,0,0,44.06,34.32Z" transform="translate(-1.6 -1.67)"/><path class="cls-11" d="M47.68,29.83a1.82,1.82,0,0,0-.4,0l-.3,0a3.68,3.68,0,0,0-2.72,1.42,4.32,4.32,0,0,0-1,3.13,4.2,4.2,0,0,0,1.39,2.91,3.57,3.57,0,0,0,2.89,1.17,3.85,3.85,0,0,0,2.9-1.54,4.25,4.25,0,0,0,1-2.72l0-.35a4.34,4.34,0,0,0-1.35-3,3.9,3.9,0,0,0-2.37-1.05m-2.76,6.94a4.27,4.27,0,0,1-.86-2.45,4.55,4.55,0,0,1,.54-2.59A1.9,1.9,0,0,1,48,31.51a4.49,4.49,0,0,1,.86,2.5,4.15,4.15,0,0,1-.54,2.54,2,2,0,0,1-1.62,1.21A2,2,0,0,1,44.92,36.77Z" transform="translate(-1.6 -1.67)"/></g><g id="head_0_Layer0_0_MEMBER_3_MEMBER_1_FILL" data-name="head 0 Layer0 0 MEMBER 3 MEMBER 1 FILL"><path class="cls-1" d="M52.94,26.73l-.16-2.44-9.4-.49.13,2Z" transform="translate(-1.6 -1.67)"/></g><g id="head_0_Layer0_0_MEMBER_3_MEMBER_2_FILL" data-name="head 0 Layer0 0 MEMBER 3 MEMBER 2 FILL"><path class="cls-1" d="M23.87,28.22,24,30.66l9.24-2.1-.14-2.1Z" transform="translate(-1.6 -1.67)"/></g><g id="head_0_Layer0_0_MEMBER_3_MEMBER_3_FILL" data-name="head 0 Layer0 0 MEMBER 3 MEMBER 3 FILL"><path class="cls-11" d="M33,43.46a1.07,1.07,0,0,0,0,.65,2.73,2.73,0,0,0,.42,1c.18.23.38.46.6.72l7.78-.51-.21-3.19L34,42.64a1,1,0,0,0-.63.29A.62.62,0,0,0,33,43.46Z" transform="translate(-1.6 -1.67)"/><path class="cls-1" d="M44.76,42l-3.15.2.21,3.19L34,45.85a2.53,2.53,0,0,0,.85.84,6.55,6.55,0,0,0,4.86,1.59,6.69,6.69,0,0,0,4.58-2.15l.09-.05a6.19,6.19,0,0,0,1.14-1.73,4.83,4.83,0,0,0,.38-1.08,1.22,1.22,0,0,0-.09-.64.76.76,0,0,0-.43-.48A1,1,0,0,0,44.76,42Z" transform="translate(-1.6 -1.67)"/></g><g id="head_0_Layer0_1_FILL" data-name="head 0 Layer0 1 FILL"><path class="cls-2" d="M58.31,34.6l.54-9.4Q47.32,26.49,34,18.49,39.69,32.5,58.31,34.6Z" transform="translate(-1.6 -1.67)"/><path class="cls-1" d="M58.85,25.2l.55-9.36L16.09,18.65l1.15,7.64Q28,25.39,34,18.49,47.31,26.5,58.85,25.2Z" transform="translate(-1.6 -1.67)"/></g><g id="head_0_Layer0_2_FILL" data-name="head 0 Layer0 2 FILL"><path class="cls-12" d="M55.31,16.06a13.46,13.46,0,0,0-2.14-2Q47.34,9.72,37.3,10.36T22.08,16a2.59,2.59,0,0,0-.56.63,6.09,6.09,0,0,0-1.34,1.69,1.92,1.92,0,0,0,0,2q6.21-4.11,17.48-4.84T55.53,18A1.91,1.91,0,0,0,55.31,16.06Z" transform="translate(-1.6 -1.67)"/></g></g></svg>