<svg id="background" xmlns="http://www.w3.org/2000/svg" viewBox="0 0 403.2 197.4"><defs><style>.cls-1{fill:#383838;}</style></defs><title>construction</title><path class="cls-1" d="M360.93,138.37c-7.91,4.68-13.21,9.11-16.78,13.09L324.26,121.2c-5.68-8.82-14-12.3-20.58-13.66-1-3.38-1.7-5.55-1.7-5.55-1.22-2.38-3.82-3.92-6.15-4.9A14,14,0,0,0,282,84.47H271.79a13.93,13.93,0,0,0-10.46,4.76l-18-3.91-5-52.63c-.14-1.53-1.86-2.62-3.82-2.43s-3.47,1.58-3.33,3.1l4.8,50.36-12.36-2.67C219.39,80,217.72,75,217.72,75c.21-2.31-6.71-28.72-6.71-28.72,14.46-13.84-.85-21.17-.85-21.17-10-8-87-3.56-87-3.56-14.26,1.05-2.94,13.4-2.94,13.4,2.1.64.63,4.62.63,4.62l-6,22.13C103,50.83,63.31,14.47,65.71,11.72c0,0,2.85-15.36-17.38-8.08L2.23,97.46S-.62,130.22,37.41,127c0,0,21-4,22.23-41.25,0,0-30.73,17-41.24,10.92l40-55.82s30,42.89,47.34,54.82h0c7.06-3.89,15.28-3,15.28-3l39.71,8.64a28.79,28.79,0,0,1,8.3,2l35,8.44h-.61L299,135.26a31.63,31.63,0,0,1,10.22,2.87,39.81,39.81,0,0,0-.11-5c9.83,5.48,21.8,18.73,29.22,27.67-2.05,5.7-.39,9.22-.39,9.22,15.62,28.08,67.47,19.11,67.47,19.11C381.59,176.6,360.93,138.37,360.93,138.37ZM165.51,90.54a94.86,94.86,0,0,0-26.61.35s-4.41,1.46-4.82-2.3l5-52.61s1.46-4.41,11.3-4l15.09.68Zm5.07,1.51V32.9L197,34.09s5-1,6.7,12.16l10.25,59.14C191.17,98.56,172.61,93.09,170.58,92.05Z" transform="translate(-2.18 -1.68)"/><path class="cls-1" d="M166.06,133.46a34.21,34.21,0,0,1-6.07,46.6H284.26a15,15,0,0,1-1.87-7.17,15.17,15.17,0,0,1,3.67-9.85Z" transform="translate(-2.18 -1.68)"/><path class="cls-1" d="M298.68,143l-159-32.81s-26.18-6.6-42,18.62l-2.3,4.64-2,6-1,6.26L92,151.58,91.85,158l1,7.1,1.66,6.51s4.69,23,34.16,27.21l169.54.23s22.75-1,25.52-27.57C323.74,171.51,324.66,145.94,298.68,143Zm-1,45.2a15.46,15.46,0,0,1-4.48-.75H145a34.67,34.67,0,1,1,8.43-64.71l142.11,35a13.86,13.86,0,0,1,2.13-.22,15.33,15.33,0,0,1,0,30.65Z" transform="translate(-2.18 -1.68)"/></svg>