<svg id="background" xmlns="http://www.w3.org/2000/svg" viewBox="0 0 258.16 312.47"><defs><style>.cls-1{fill:#df9d2f;}.cls-2{fill:#fce9c4;}.cls-3{fill:#ebc685;}.cls-4{fill:#b96a15;}.cls-5{fill:#fff;}.cls-6{fill:#1f1b1b;}</style></defs><title>dog</title><path class="cls-1" d="M270.56,146.32c.33-4.59-2.34-8.64-6.35-9.63-3-.73-7.26.34-9.64,5.77-2.91,6.65-27.87,30.52-35.6,32.95a3.25,3.25,0,0,0-.54.23,14.06,14.06,0,0,0-3-1.51c-5.21-1.84-11-1.88-16.09-1.91h-1c-3.73,0-7.51,0-11.17,0-3.43,0-7,.06-10.46,0a76.32,76.32,0,0,0,5.13-36.53c29.06-12.78,37.59-55,33.18-89.12-.95-7.34-4.94-31.41-16.32-33a2.86,2.86,0,0,0-1.3.12c-18.84,6.33-33.67,18.49-42.91,35.17a78.19,78.19,0,0,0-9.6,31.73,69.75,69.75,0,0,0-26-7.36,65.24,65.24,0,0,0-35.34,7.52,77.89,77.89,0,0,0-9.62-31.89C64.63,32.21,49.8,20.05,31,13.72a2.88,2.88,0,0,0-1.3-.12C18.37,15.21,14.45,38.9,13.51,46.12c-4.36,33.7,4,75.4,32.41,88.77-2.39,19.17,3.33,40.59,15.68,57.52.41.55.83,1.07,1.24,1.61,0,10.93,1.81,45.5,22.61,65,.89,11.17,2.72,19.1,5.75,24.89,6.13,11.72,8.72,18.35,9.56,21.48a17.82,17.82,0,0,0-4.83,1.63c-3.36,1.56-3.76,7.86-3.42,10.67.45,3.79,2.3,6.29,5.07,6.84a48.35,48.35,0,0,0,9.13.95c5.18,0,10.87-1.08,14.12-5.07a2.81,2.81,0,0,0,.64-1.8c0-9.87-1-17.43-3.14-23.1-1.71-4.58-2.76-16.18-3.18-22.61a46.87,46.87,0,0,0,5.31.3,49,49,0,0,0,8.1-.68c-.5,6.38-1.72,18.16-3.51,22.77-2.55,6.57-2.52,15.56-2.51,21.51,0,1,0,2,0,2.84a2.87,2.87,0,0,0,.62,1.8c2.82,3.56,7.27,4.55,11.58,4.55a48.54,48.54,0,0,0,9.46-1.16l1.2-.23c2.78-.52,4.66-3,5.17-6.77.37-2.8.07-9.11-3.29-10.72a17.91,17.91,0,0,0-4.62-1.66c0-.1-.06-.2-.1-.3,1-3.23,3.68-9.79,9.79-21.08,3.92-7.27,5.53-20.18,6.31-32.4a2.68,2.68,0,0,0,1.1-.23,36.75,36.75,0,0,0,7.86-4.74c4.91,7.23,14.38,24.52,14.38,31a85.35,85.35,0,0,1-1.44,14.72,8.46,8.46,0,0,0-3.41,4.82c-.77,2.64-.74,7.1,1.29,8.58a7.34,7.34,0,0,0,4.52,1.3c.5,0,1,0,1.43-.05s.91-.05,1.39-.05l.86,0c3.1.13,8.84.36,11.9-2.86a6.74,6.74,0,0,0,1.77-5.47c-.2-2.21.63-6.49,1.43-10.63,1.39-7.13,2.83-14.51,1-18.94-2.34-5.53-6.54-20.6-7.15-32.32,10.43,2.59,17,9.6,20,21.36.93,3.68,3.9,7.92,7,12.41,3.55,5.09,7.59,10.86,8.53,15.79,1.08,5.71,2,9.51,2.53,11.76-3.4,2-5.12,6.26-5.55,9.84-.46,3.75.48,6.4,2.58,7.28a19.37,19.37,0,0,0,7.06,1,85.56,85.56,0,0,0,15-1.72,2.82,2.82,0,0,0,2.07-1.73c.29-.72.29-.72-.07-5.23-.49-6.26-1.51-19.27-.85-24.21.51-3.82-1.11-9.54-3.69-16.32a16,16,0,0,0-1.56-4c-.89-2.2-1.84-4.48-2.84-6.82-1.15-2.68-2.13-5-2.79-6.74-1.91-5.1-1.47-11.6-1-17.88.15-2.06.28-4,.33-5.92.31-11.49-1.64-20.5-6.14-28.34a73.66,73.66,0,0,0-4.92-7.4C249.78,179.87,270,153.94,270.56,146.32Z" transform="translate(-12.43 -13.57)"/><path class="cls-2" d="M188,121c.61,1.16,1.14,2.19,1.56,3a47,47,0,0,0,8.23-9.68c11.47-17.64,14.47-44.22,11.52-67-.24-1.84-.51-3.58-.81-5.25-2.32,2-5.51,4.78-5.84,5.14-10.14,11.47-20.21,26.34-23.39,41.55-1.24,6-1.1,12.4,1.36,18C182,110,185.57,116.42,188,121Z" transform="translate(-12.43 -13.57)"/><path class="cls-2" d="M26.58,47.26c-.36-.4-4.12-3.72-6.44-5.65L20,41.48c-.31,1.7-.6,3.49-.84,5.37a129.81,129.81,0,0,0-.78,25,105.72,105.72,0,0,0,5,26.57c3.54,10.48,9,19.62,16.52,25.95.12-.4.24-.82.38-1.25.63-2,1.39-4.26,1.62-4.72,1.95-4,4.89-7.51,6.69-11.6,2.46-5.6,2.61-12,1.36-18C46.8,73.6,36.72,58.73,26.58,47.26Z" transform="translate(-12.43 -13.57)"/><path class="cls-2" d="M159.87,190.09A84.77,84.77,0,0,0,168,177.45a29.81,29.81,0,0,0,.23-4.8,3.73,3.73,0,0,0-3.5-3.59,3.62,3.62,0,0,0-2.77,1c-5.15,4.77-13.28,10.18-18,9.81-7.09-.55-11-9.2-29.16-9.2h-.33a26,26,0,0,1,8.85,1.38c4.49,1.73,8.71,6.13,8.71,10.94a8.7,8.7,0,0,1-6.42,8.4l-5.69,1.56a11.6,11.6,0,0,0,22.88-2.69,2.84,2.84,0,1,1,5.68,0,17.26,17.26,0,0,1-32.06,8.91,17.26,17.26,0,0,1-32.06-8.91,2.84,2.84,0,1,1,5.68,0,11.59,11.59,0,0,0,22.47,4,7.81,7.81,0,0,1-1.33-.26l-9-2.57a8.72,8.72,0,0,1-6.32-8.38V183c0-4.81,4.14-9.44,8.71-10.94a29.82,29.82,0,0,1,6.64-1.25c-15.44,1.14-21.8,9.23-31.77,7.33-4.71-.9-9.09-3.88-12.52-6.93a4.39,4.39,0,0,0-3.87-.82c-2,.43-3.82,1.95-3.63,4a28.27,28.27,0,0,0,1.43,6.26,79.15,79.15,0,0,0,5.39,8.47c.48.67,1,1.31,1.49,1.95,11.32,14.53,26.38,23.15,42.64,24.31C130.6,216.77,148,205.34,159.87,190.09Z" transform="translate(-12.43 -13.57)"/><path class="cls-2" d="M109.92,221a61.29,61.29,0,0,1-32.54-12.43c1.92,5.84,2.23,12.81,3.45,18.4a85.89,85.89,0,0,0,6.06,17.31c2.22,4.86,4.27,10.18,7.29,14.62,21.47,15.16,41.94,5.73,42.15,5.63a2.59,2.59,0,0,1,.51-.18c3-4.87,4.53-13.41,5.24-16.44,2.35-10,3.32-20.36,6.91-30a132.34,132.34,0,0,1,6.65-14.69c-11.29,10.65-25.63,18-41.84,18C112.52,221.12,111.23,221.07,109.92,221Z" transform="translate(-12.43 -13.57)"/><path class="cls-2" d="M187.58,222.09c-10.77-2.47-21.48,7.88-28.13,11.33q0,1.25-.09,2.58c-.08,2.34-.17,4.87-.28,7.51.06.66.12,1.32.18,1.93a51.17,51.17,0,0,0,8.16-5.76c6.34-5.12,13.53-10.92,25.72-9.07,7.3,1.12,13.3,3.87,18,8.24C205.32,231.94,195.77,224,187.58,222.09Z" transform="translate(-12.43 -13.57)"/><path class="cls-3" d="M20.5,38.84c-.18.86-.36,1.73-.52,2.64l.16.13C20.26,40.67,20.38,39.74,20.5,38.84Z" transform="translate(-12.43 -13.57)"/><path class="cls-3" d="M40.3,123.13c-.14.43-.26.85-.38,1.25a39.07,39.07,0,0,0,7,4.69l0-.12A69.23,69.23,0,0,1,40.3,123.13Z" transform="translate(-12.43 -13.57)"/><path class="cls-3" d="M26.58,47.26C36.72,58.73,46.8,73.6,50,88.81c1.25,6,1.1,12.4-1.36,18-1.8,4.09-4.74,7.58-6.69,11.6-.23.46-1,2.67-1.62,4.72A69.23,69.23,0,0,0,47,129c.09-.42.18-.85.28-1.27a72.67,72.67,0,0,1,18.4-33.39,2.3,2.3,0,0,1,0-.26c0-33.78-34.95-58-43-63.12a72.15,72.15,0,0,0-2.13,7.93c-.12.9-.24,1.83-.36,2.77C22.46,43.54,26.22,46.86,26.58,47.26Z" transform="translate(-12.43 -13.57)"/><path class="cls-3" d="M180.35,127.1c.21.93.4,1.86.57,2.8a38.63,38.63,0,0,0,8.65-5.83c-.42-.85-.95-1.88-1.56-3C184.71,123.49,181.7,126,180.35,127.1Z" transform="translate(-12.43 -13.57)"/><path class="cls-3" d="M162.69,93.73a70.16,70.16,0,0,1,17.66,33.37c1.35-1.13,4.36-3.61,7.66-6.07-2.44-4.61-6-11-7.37-14.22-2.46-5.6-2.6-12-1.36-18,3.18-15.21,13.25-30.08,23.39-41.55.33-.36,3.52-3.19,5.84-5.14a79.76,79.76,0,0,0-2.81-11.23C197.75,35.94,162.9,60.06,162.69,93.73Z" transform="translate(-12.43 -13.57)"/><path class="cls-4" d="M164.73,169.06a3.73,3.73,0,0,1,3.5,3.59,29.81,29.81,0,0,1-.23,4.8q1.59-3,2.9-6.08c11.52-27.06,5-58.78-15.89-77.15-1-.86-2-1.69-3.06-2.49a93.23,93.23,0,0,1,13.06,23C171.72,132.36,168.74,151.05,164.73,169.06Z" transform="translate(-12.43 -13.57)"/><path class="cls-4" d="M63,170.37c-4.12-18.31-7.34-37.36-.51-55.27A92.25,92.25,0,0,1,74,94.14c-.66.57-1.32,1.16-2,1.76h0A67.07,67.07,0,0,0,52.75,129c-4,16.32-.87,35.34,8,51.57a28.27,28.27,0,0,1-1.43-6.26C59.18,172.32,61,170.8,63,170.37Z" transform="translate(-12.43 -13.57)"/><path class="cls-4" d="M159.56,77.2a33.85,33.85,0,0,0-8.17-3.15,56,56,0,0,0-1,9.71,64.74,64.74,0,0,1,6.89,4.95A58.53,58.53,0,0,1,159.56,77.2Z" transform="translate(-12.43 -13.57)"/><path class="cls-4" d="M77.91,84.09A57.59,57.59,0,0,0,76.48,72l-8,4.35a59.41,59.41,0,0,1,2.6,12.85A70.69,70.69,0,0,1,77.91,84.09Z" transform="translate(-12.43 -13.57)"/><path class="cls-4" d="M75,206.65a73.92,73.92,0,0,1-6.21-5.73c.74,11.23,3.58,31.49,14.19,46.56-.09-.19-.17-.37-.25-.57C78.41,237.14,75.91,216,75,206.65Z" transform="translate(-12.43 -13.57)"/><path class="cls-4" d="M110,279.37c-.29-3.15-.46-5.86-.55-7.4A52.14,52.14,0,0,1,91.65,264c.93,7.51,2.44,13.21,4.58,17.3a185.75,185.75,0,0,1,8.46,18.07C104.63,292.32,105.38,282.14,110,279.37Z" transform="translate(-12.43 -13.57)"/><path class="cls-4" d="M98.12,314.76c-.14,1.77,0,3.72.63,4.27,5.92,1.17,13.66,1.41,17-1.5,0-1.92-.08-3.72-.18-5.43C113.7,316.83,101.9,316.69,98.12,314.76Z" transform="translate(-12.43 -13.57)"/><path class="cls-4" d="M136.55,316a6.5,6.5,0,0,1-6.41-6.59c0-.77,0-1.57,0-2.39-.16-11.19,9.06-19.31,10.56-25.85.87-3.82,0-5.5,1.78-10.43a2.55,2.55,0,0,0-2.12-3.4,2.84,2.84,0,0,1-1.59,2.27,31.54,31.54,0,0,1-4.43,1.62c-.25,3.62-1.49,19.67-4,26.14-2.16,5.57-2.14,13.92-2.13,19.45,0,.62,0,1.22,0,1.77,3.43,3,11.07,1.46,14.86.7l1.22-.23c.68-.61.85-3,.64-4.9A17.79,17.79,0,0,1,136.55,316Z" transform="translate(-12.43 -13.57)"/><path class="cls-4" d="M187.44,283.39a225.33,225.33,0,0,0,6.4-23.26c-2-7.39-3.76-16.54-4-24.15-7.68-.43-12.52,3-17.76,7.24,4.12,6.12,15.61,25.38,15.61,34.54C187.67,279.7,187.58,281.59,187.44,283.39Z" transform="translate(-12.43 -13.57)"/><path class="cls-4" d="M182.62,298.78a7.23,7.23,0,0,0-.23,2.7,12.4,12.4,0,0,0,1.7,0c.54,0,1.1,0,1.68,0l1.1,0c1.54.06,6.26.26,7.55-1.1.1-.1.3-.32.23-1-.28-3,.55-7.29,1.52-12.23.19-1,.4-2.1.6-3.18a55.33,55.33,0,0,0-3.08,10.43C193,299.34,186.07,300.17,182.62,298.78Z" transform="translate(-12.43 -13.57)"/><path class="cls-4" d="M248.21,282.71c.62-4.64-4.38-16.37-7.69-24.13-1.16-2.74-2.17-5.11-2.87-7-2.35-6.25-1.84-13.69-1.39-20.25.14-2,.27-3.91.32-5.69.28-10.55-1.38-18.37-5.4-25.37a75.77,75.77,0,0,0-6.21-9,2.82,2.82,0,0,1-.71-.89l-.25-.32c5.31,10.48,8.3,23.32,8,33.42-.47,15.13-.47,23.76,3.43,34.16s10.17,19.74,9.58,25.53,1.65,21.14,1.65,21.14c-1,2.48-7.86,1.52-11.85.73a10.55,10.55,0,0,0-1.19,5.28c3.22.75,10.17.08,15.54-.83,0-.45-.08-.93-.11-1.41C248.49,301.17,247.47,288.25,248.21,282.71Z" transform="translate(-12.43 -13.57)"/><path class="cls-4" d="M187.55,177.93h-.39c-4.08,0-8.29.08-12.45,0h-.07a2.07,2.07,0,0,1-.5-.06c-.09.2-.19.4-.29.59a89,89,0,0,1-18.18,24.65C167.62,199.68,182.29,183.94,187.55,177.93Z" transform="translate(-12.43 -13.57)"/><path class="cls-4" d="M226.07,183.66l1.56,1.89c17.92-9.29,36.93-34.81,37.27-39.63a4.53,4.53,0,0,0-.2-1.73A83.28,83.28,0,0,1,257,154.75c-5.25,6.05-13.07,14.92-17.54,19.35-5.18,5.12-10.16,4.86-13.59,4.05q-1.54,1-2.88,1.68c.62.73,1.2,1.46,1.77,2.17C225.18,182.56,225.62,183.12,226.07,183.66Z" transform="translate(-12.43 -13.57)"/><circle class="cls-5" cx="127.84" cy="130.05" r="3.21"/><circle class="cls-5" cx="76.37" cy="130.05" r="3.21"/><path class="cls-6" d="M87.55,157.18A10.19,10.19,0,1,0,77.36,147,10.19,10.19,0,0,0,87.55,157.18Zm1.25-16.76a3.21,3.21,0,1,1-3.21,3.21A3.21,3.21,0,0,1,88.8,140.42Z" transform="translate(-12.43 -13.57)"/><path class="cls-6" d="M140.26,157.18A10.19,10.19,0,1,0,130.07,147,10.19,10.19,0,0,0,140.26,157.18Zm0-16.76a3.21,3.21,0,1,1-3.2,3.21A3.21,3.21,0,0,1,140.26,140.42Z" transform="translate(-12.43 -13.57)"/><path class="cls-6" d="M95.81,183.06a8.72,8.72,0,0,0,6.32,8.38l9,2.57a7.81,7.81,0,0,0,1.33.26,11.59,11.59,0,0,1-22.47-4,2.84,2.84,0,1,0-5.68,0,17.26,17.26,0,0,0,32.06,8.91,17.26,17.26,0,0,0,32.06-8.91,2.84,2.84,0,1,0-5.68,0,11.6,11.6,0,0,1-22.88,2.69l5.69-1.56A8.7,8.7,0,0,0,132,183c0-4.81-4.22-9.21-8.71-10.94a26,26,0,0,0-8.85-1.38c-1.1,0-2.2,0-3.28.13a29.82,29.82,0,0,0-6.64,1.25c-4.57,1.5-8.71,6.13-8.71,10.94Z" transform="translate(-12.43 -13.57)"/><path class="cls-6" d="M270.56,146.32c.33-4.59-2.34-8.64-6.35-9.63-3-.73-7.26.34-9.64,5.77-2.91,6.65-27.87,30.52-35.6,32.95a3.25,3.25,0,0,0-.54.23,14.06,14.06,0,0,0-3-1.51c-5.21-1.84-11-1.88-16.09-1.91h-1c-3.73,0-7.51,0-11.17,0-3.43,0-7,.06-10.46,0a76.32,76.32,0,0,0,5.13-36.53c29.06-12.78,37.59-55,33.18-89.12-.95-7.34-4.94-31.41-16.32-33a2.86,2.86,0,0,0-1.3.12c-18.84,6.33-33.67,18.49-42.91,35.17a78.19,78.19,0,0,0-9.6,31.73,69.75,69.75,0,0,0-26-7.36,65.24,65.24,0,0,0-35.34,7.52,77.89,77.89,0,0,0-9.62-31.89C64.63,32.21,49.8,20.05,31,13.72a2.88,2.88,0,0,0-1.3-.12C18.37,15.21,14.45,38.9,13.51,46.12c-4.36,33.7,4,75.4,32.41,88.77-2.39,19.17,3.33,40.59,15.68,57.52.41.55.83,1.07,1.24,1.61,0,10.93,1.81,45.5,22.61,65,.89,11.17,2.72,19.1,5.75,24.89,6.13,11.72,8.72,18.35,9.56,21.48a17.82,17.82,0,0,0-4.83,1.63c-3.36,1.56-3.76,7.86-3.42,10.67.45,3.79,2.3,6.29,5.07,6.84a48.35,48.35,0,0,0,9.13.95c5.18,0,10.87-1.08,14.12-5.07a2.81,2.81,0,0,0,.64-1.8c0-9.87-1-17.43-3.14-23.1-1.71-4.58-2.76-16.18-3.18-22.61a46.87,46.87,0,0,0,5.31.3,49,49,0,0,0,8.1-.68c-.5,6.38-1.72,18.16-3.51,22.77-2.55,6.57-2.52,15.56-2.51,21.51,0,1,0,2,0,2.84a2.87,2.87,0,0,0,.62,1.8c2.82,3.56,7.27,4.55,11.58,4.55a48.54,48.54,0,0,0,9.46-1.16l1.2-.23c2.78-.52,4.66-3,5.17-6.77.37-2.8.07-9.11-3.29-10.72a17.91,17.91,0,0,0-4.62-1.66l-.17,0a2.5,2.5,0,0,1,.07-.26c1-3.23,3.68-9.79,9.79-21.08,3.92-7.27,5.53-20.18,6.31-32.4a2.68,2.68,0,0,0,1.1-.23,36.75,36.75,0,0,0,7.86-4.74c4.91,7.23,14.38,24.52,14.38,31a85.35,85.35,0,0,1-1.44,14.72,8.46,8.46,0,0,0-3.41,4.82c-.77,2.64-.74,7.1,1.29,8.58a7.34,7.34,0,0,0,4.52,1.3c.5,0,1,0,1.43-.05s.91-.05,1.39-.05l.86,0c3.1.13,8.84.36,11.9-2.86a6.74,6.74,0,0,0,1.77-5.47c-.2-2.21.63-6.49,1.43-10.63,1.39-7.13,2.83-14.51,1-18.94-2.34-5.53-6.54-20.6-7.15-32.32,10.43,2.59,17,9.6,20,21.36.93,3.68,3.9,7.92,7,12.41,3.55,5.09,7.59,10.86,8.53,15.79,1.08,5.71,2,9.51,2.53,11.76-3.4,2-5.12,6.26-5.55,9.84-.46,3.75.48,6.4,2.58,7.28a19.37,19.37,0,0,0,7.06,1,85.56,85.56,0,0,0,15-1.72,2.82,2.82,0,0,0,2.07-1.73c.29-.72.29-.72-.07-5.23-.49-6.26-1.51-19.27-.85-24.21.51-3.82-1.11-9.54-3.69-16.32-.49-1.28-1-2.61-1.56-4-.89-2.2-1.84-4.48-2.84-6.82-1.15-2.68-2.13-5-2.79-6.74-1.91-5.1-1.47-11.6-1-17.88.15-2.06.28-4,.33-5.92.31-11.49-1.64-20.5-6.14-28.34a73.66,73.66,0,0,0-4.92-7.4C249.78,179.87,270,153.94,270.56,146.32Zm-42.93,39.23-1.56-1.89c-.45-.54-.89-1.1-1.33-1.66-.57-.71-1.15-1.44-1.77-2.17q1.34-.69,2.88-1.68c11.47-7.39,30.94-26.59,33.92-33.41.81-1.87,2-2.81,3.08-2.54a2.86,2.86,0,0,1,1.85,2,4.53,4.53,0,0,1,.2,1.73C264.56,150.74,245.55,176.26,227.63,185.55ZM98.71,312a8.76,8.76,0,0,1,7.39-.49,2.83,2.83,0,1,0,1.93-5.33c-.49-.18-1-.32-1.42-.44a35.46,35.46,0,0,0-1.92-6.37,185.75,185.75,0,0,0-8.46-18.07c-2.14-4.09-3.65-9.79-4.58-17.3A52.14,52.14,0,0,0,109.41,272c.09,1.54.26,4.25.55,7.4.56,6.19,1.52,14.07,3.05,18.16a51.18,51.18,0,0,1,2.6,14.57c.1,1.71.16,3.51.18,5.43-3.38,2.91-11.12,2.67-17,1.5-.6-.55-.77-2.5-.63-4.27A7.89,7.89,0,0,1,98.71,312ZM23.4,98.43a105.72,105.72,0,0,1-5-26.57,129.81,129.81,0,0,1,.78-25c.24-1.88.53-3.67.84-5.37.16-.91.34-1.78.52-2.64a72.15,72.15,0,0,1,2.13-7.93c8,5.11,43,29.34,43,63.12a2.3,2.3,0,0,0,0,.26,72.67,72.67,0,0,0-18.4,33.39c-.1.42-.19.85-.28,1.27l0,.12a39.07,39.07,0,0,1-7-4.69C32.35,118.05,26.94,108.91,23.4,98.43Zm6.51-79.07C60.88,30.09,72.77,54.91,76.48,72a57.59,57.59,0,0,1,1.43,12.1,70.69,70.69,0,0,0-6.85,5.1,59.41,59.41,0,0,0-2.6-12.85C59.28,47.73,30.54,29.06,24.78,25.55,26.49,22.05,28.3,19.94,29.91,19.36ZM52.75,129A67.07,67.07,0,0,1,72.05,95.9h0c.64-.6,1.3-1.19,2-1.76a60.87,60.87,0,0,1,40.13-15.37c1.42,0,2.85,0,4.28.15A64.5,64.5,0,0,1,152,91.73c1.05.8,2.08,1.63,3.06,2.49,20.87,18.37,27.41,50.09,15.89,77.15q-1.31,3.06-2.9,6.08a84.77,84.77,0,0,1-8.13,12.64c-11.85,15.25-29.27,26.68-49.55,25.23C94.06,214.16,79,205.54,67.68,191c-.5-.64-1-1.28-1.49-1.95a79.15,79.15,0,0,1-5.39-8.47C51.88,164.36,48.78,145.34,52.75,129Zm98.64-55c3.18-17.07,14.75-43.52,47-54.69,1.61.57,3.42,2.69,5.14,6.18-5.78,3.52-35.08,22.53-44,51.66a58.53,58.53,0,0,0-2.29,11.51,64.74,64.74,0,0,0-6.89-4.95A56,56,0,0,1,151.39,74.05Zm38.18,50a38.63,38.63,0,0,1-8.65,5.83c-.17-.94-.36-1.87-.57-2.8a70.16,70.16,0,0,0-17.66-33.37c.21-33.67,35.06-57.79,43-62.84a79.76,79.76,0,0,1,2.81,11.23c.3,1.67.57,3.41.81,5.25,3,22.8,0,49.38-11.52,67A47,47,0,0,1,189.57,124.07Zm-45.14,188a6.63,6.63,0,0,1,.51,2.09c.21,1.91,0,4.29-.64,4.9l-1.22.23c-3.79.76-11.43,2.28-14.86-.7,0-.55,0-1.15,0-1.77,0-5.53,0-13.88,2.13-19.45,2.51-6.47,3.75-22.52,4-26.14a31.54,31.54,0,0,0,4.43-1.62,2.83,2.83,0,0,0-1.93-5.3,2.59,2.59,0,0,0-.51.18c-.21.1-20.68,9.53-42.15-5.63l-.67-.47A46.39,46.39,0,0,1,83,247.48c-10.61-15.07-13.45-35.33-14.19-46.56A73.92,73.92,0,0,0,75,206.65c.8.65,1.6,1.29,2.41,1.9A61.29,61.29,0,0,0,109.92,221c1.31.09,2.6.14,3.88.14,16.21,0,30.55-7.31,41.84-18l0,0a89,89,0,0,0,18.18-24.65c.1-.19.2-.39.29-.59a2.07,2.07,0,0,0,.5.06h.07c4.16,0,8.37,0,12.45,0h.39c3.51,0,7.13-.08,10.67-.05h1.05c4.88,0,9.93.07,14.24,1.59,2.76,1,4.71,3.43,6.78,6.05.47.59.94,1.18,1.42,1.75.74.9,1.52,1.84,2.3,2.81l.25.32a2.82,2.82,0,0,0,.71.89,75.77,75.77,0,0,1,6.21,9c4,7,5.68,14.82,5.4,25.37-.05,1.78-.18,3.68-.32,5.69-.45,6.56-1,14,1.39,20.25.7,1.86,1.71,4.23,2.87,7,3.31,7.76,8.31,19.49,7.69,24.13-.74,5.54.28,18.46.83,25.4,0,.48.07,1,.11,1.41-5.37.91-12.32,1.58-15.54.83a10.55,10.55,0,0,1,1.19-5.28l.12-.24a3.87,3.87,0,0,1,2.34-2.05h4.54a2.84,2.84,0,1,0,0-5.67h-2.63c-.53-2.09-1.43-5.88-2.54-11.72-1.16-6.12-5.57-12.42-9.45-18-2.84-4.05-5.51-7.88-6.19-10.55-1.92-7.61-5.23-13.63-9.9-18s-10.65-7.12-18-8.24c-12.19-1.85-19.38,3.95-25.72,9.07a51.17,51.17,0,0,1-8.16,5.76l-.27.15c0-.7.06-1.4.09-2.08.11-2.64.2-5.17.28-7.51q0-1.33.09-2.58c.05-1.42.1-2.75.16-3.95a2.84,2.84,0,0,0-5.67-.26c-.09,1.93-.17,4.16-.25,6.6-.5,14.41-1.25,36.19-6.35,45.61-4.48,8.3-9.71,18.79-10.71,24.29-.47.12-.94.25-1.43.42a2.84,2.84,0,0,0,1.85,5.36A8.72,8.72,0,0,1,144.43,312.09Zm52.34-28.2c-.2,1.08-.41,2.15-.6,3.18-1,4.94-1.8,9.21-1.52,12.23.07.72-.13.94-.23,1-1.29,1.36-6,1.16-7.55,1.1l-1.1,0c-.58,0-1.14,0-1.68,0a12.4,12.4,0,0,1-1.7,0,7.23,7.23,0,0,1,.23-2.7,3.64,3.64,0,0,1,.42-.94,2.17,2.17,0,0,1,1-.84h0a3.43,3.43,0,0,1,1.16-.26,2.83,2.83,0,0,0,1.28-5.25c.34-2.07.73-4.91,1-8.09.14-1.8.23-3.69.23-5.63,0-9.16-11.49-28.42-15.61-34.54,5.24-4.2,10.08-7.67,17.76-7.24.26,7.61,2.06,16.76,4,24.15a92.71,92.71,0,0,0,3.62,11.29C198.45,273.74,197.69,279,196.77,283.89Z" transform="translate(-12.43 -13.57)"/></svg>