<?xml version="1.0" encoding="utf-8"?>
<!-- Designed by Vexels.com - 2016 All Rights Reserved - https://vexels.com/terms-and-conditions/  -->

<svg version="1.0" id="Capa_1" xmlns="http://www.w3.org/2000/svg" xmlns:xlink="http://www.w3.org/1999/xlink" x="0px" y="0px"
	 width="1200px" height="1200px" viewBox="0 0 1200 1200" enable-background="new 0 0 1200 1200" xml:space="preserve">
<g>
	<path fill-rule="evenodd" clip-rule="evenodd" fill="#C0E4E0" d="M297.3,175.066l107.388,97.584l80.229-18.501l98.489,125.891
		l145.309-155.91l92.521,196.607l164.647-96.38l20.629,217.028l143.55,20.905l-143.627,136.372l113.647,137.633l-245.338-5.544
		l-18.264,104.147l-167.182-87.752L569.385,996.66l-93.596-214.597L268.615,893.889l61.548-229.404L126.176,622.19
		c0,0,171.372-114.594,164.265-116.192c-7.102-1.606-105.98-86.775-105.98-86.775l106.764-66.999"/>
	<g>
		<path fill-rule="evenodd" clip-rule="evenodd" fill="#313359" d="M1125.612,789.271c-4.508-6-11.049-10.49-16.437-15.894
			c-13.919-13.971-28.169-27.664-41.382-42.261c-13.773-15.22-26.551-31.319-39.624-47.153c-3.234-3.918-5.922-8.271-8.566-12.002
			c9.609-7.98,18.674-14.628,26.695-22.341c21.721-20.86,43.365-41.822,64.303-63.447c10.657-11.005,19.73-23.503,30.222-36.174
			c-11.624-4.711-20.601-9.416-30.14-12.028c-40.019-10.948-80.184-21.375-120.372-31.672c-4.62-1.181-5.784-3.218-6.069-7.419
			c-3.146-46.193-6.582-92.375-9.564-138.576c-0.5-7.708,0.424-15.546,1.333-23.248c1.424-11.982-4.596-17.064-15.822-12.563
			c-50.578,20.294-101.105,40.709-151.672,61.034c-10.102,4.056-20.29,7.909-30.399,11.849c-3.412-6.827-6.8-13.894-10.443-20.843
			c-10.834-20.656-21.983-41.151-32.615-61.903c-12.073-23.582-23.156-47.482-29.719-73.31
			c-3.821-15.042-12.282-16.968-24.193-6.521c-10.938,9.594-20.716,20.464-31.569,30.157
			c-26.584,23.741-53.538,47.074-80.236,70.704c-9.276,8.204-18.22,16.758-27.609,25.432c-8.398-11.147-16.094-21.427-23.854-31.664
			c-20.291-26.755-46.207-49.315-61.585-79.746c-1.154-2.283-3.31-4.073-4.902-6.155c-4.683-6.139-10.365-7.535-17.407-4.34
			c-15.487,7.034-31.011,13.988-46.634,20.735c-2.234,0.969-6.129,1.776-7.485,0.623c-12.441-10.572-24.706-21.367-36.599-32.531
			c-10.358-9.719-19.713-20.506-30.38-29.859c-6.941-6.073-10.613-3.635-11.674,5.45c-3.46,29.562-1.817,59.762-10.222,88.715
			c-0.902,3.105-0.29,6.671-0.261,10.031c0.228,24.922,0.507,49.847,0.728,74.781c0.058,6.824-2.609,10.067-10.298,11.424
			c-39.047,6.869-77.965,14.452-116.838,22.225c-4.113,0.824-9.437,3.756-10.791,7.093c-1.04,2.581,2.521,8.014,5.347,10.963
			c9.247,9.702,19.706,18.319,28.576,28.322c15.178,17.093,29.508,34.922,43.746,51.901c-22.74,19.427-45.567,37.618-66.828,57.444
			c-22.976,21.415-44.798,44.066-66.485,66.775c-8.233,8.623-4.984,14.843,7.119,16.628c22.723,3.365,45.611,5.949,68.1,10.541
			c32.593,6.668,64.893,14.832,97.322,22.333c12.727,2.946,25.47,5.827,37.678,8.617c-4.083,24.704-7.81,48.232-11.888,71.69
			c-5.189,29.862-9.981,59.818-16.221,89.463c-5.436,25.843-12.767,51.269-18.869,76.973c-0.654,2.745,0.37,7.221,2.35,8.923
			c2.02,1.722,6.581,2.085,9.33,1.136c6.134-2.108,12.024-5.085,17.673-8.291c24.54-13.906,49.281-27.514,73.352-42.185
			c34.99-21.316,70.052-42.601,100.568-70.194c5.758-5.212,13.015-8.804,18.748-12.591c8.746,20.911,16.938,40.729,25.322,60.464
			c8.284,19.517,16.62,39.02,25.224,58.405c4.137,9.317,7.85,19.095,13.679,27.355c14.021,19.835,27.577,39.675,34.99,63.048
			c1.181,3.722,6.19,6.779,10.052,9.141c4.985,3.043,9.661,1.419,13.226-3.008c13.951-17.353,27.956-34.667,41.832-52.074
			c18.125-22.741,36.079-45.587,49.242-71.704c4.854-9.637,10.235-19.002,15.372-28.48c55.258,24.574,107.425,53.156,163.888,72.537
			c0.677-2.204,1.023-2.909,1.101-3.648c3.669-34.545,7.221-69.098,11.174-103.595c0.227-2.003,3.554-5.034,5.641-5.181
			c63.318-4.343,126.662-8.373,190-12.469c10.777-0.694,21.706-0.651,32.265-2.507c5.984-1.051,14.492-4.099,16.12-8.413
			C1133.89,801.908,1129.296,794.181,1125.612,789.271z M1086.074,795.727c-39.069,3.139-78.179,5.986-117.192,9.631
			c-29.859,2.793-59.596,6.731-89.413,9.926c-6.249,0.666-8.148,3.674-8.755,9.549c-2.558,24.761-5.604,49.468-8.522,74.183
			c-0.241,2.014-0.901,3.974-1.486,6.481c-4.992-2.017-9.545-3.85-14.083-5.708c-18.614-7.64-37.468-14.75-55.768-23.07
			c-22.337-10.172-44.292-21.206-66.249-32.194c-7.072-3.541-12.529-2.895-17.339,3.195c-5.929,7.524-12.307,14.713-17.9,22.463
			c-20.155,27.945-39.754,56.303-60.236,84.015c-7.16,9.685-16.4,17.863-24.441,26.942c-2.901,3.269-5.078,7.164-8.517,12.121
			c-5.541-13.059-11.361-24.993-15.736-37.403c-13.968-39.638-32.143-77.262-53.943-113.405
			c-10.552-17.492-19.078-36.146-28.687-54.193c-6.81-12.781-10.152-14.402-22.02-6.201c-26.983,18.648-53.05,38.579-79.834,57.518
			c-14.393,10.169-29.382,19.554-44.323,28.956c-16.999,10.693-34.239,21.019-51.377,31.488c-1.289,0.79-2.625,1.507-4.06,2.323
			c-4.688-25.494,3.899-49.006,7.844-73.033c3.99-24.256,8.449-48.42,12.845-72.597c0.926-5.093,2.731-10.017,3.689-15.098
			c3.545-18.787,6.84-37.616,10.369-56.405c0.921-4.904-2.284-5.685-5.827-6.501c-24.706-5.728-49.388-11.546-74.112-17.206
			c-27.802-6.354-55.538-13.079-83.489-18.676c-16.226-3.249-32.817-4.592-51.261-7.062c6.436-6.937,86.634-85.792,126.738-113.515
			c8.92-6.167,9.864-11.527,3.069-20.43c-15.442-20.24-31.477-40.043-47.214-60.073c-4.187-5.331-8.15-10.832-12.754-16.971
			c17.52-2.889,34.393-5.042,50.953-8.566c23.585-5.014,46.982-10.883,70.364-16.747c6.538-1.632,8.586-6.767,8.021-13.331
			c-1.523-17.614-3.957-35.259-3.896-52.853c0.102-29.052,1.86-58.07,2.963-87.103c0.202-5.376,0.6-10.747,0.989-17.399
			c2.307,1.771,3.707,2.7,4.929,3.818c16.329,14.926,32.725,29.778,48.903,44.85c6.116,5.711,12.297,6.091,19.516,2.629
			c14.383-6.886,28.984-13.373,43.378-20.251c4.837-2.311,7.585-1.048,10.29,3.38c25.611,42.001,59.906,76.979,93.955,112.164
			c4.708,4.858,8.603,4.949,13.378,0.637c14.669-13.243,29.527-26.29,44.193-39.55c30.093-27.2,60.103-54.484,90.172-81.718
			c1.302-1.175,2.79-2.161,3.528-2.731c6.235,15.574,11.437,31.423,18.753,46.287c13.763,27.956,28.061,55.714,43.513,82.8
			c7.14,12.532,17.509,23.291,26.462,34.921c58.381-22.993,117.762-46.374,177.512-69.908c0.162,3.943,0.929,9.13,0.497,14.195
			c-2.323,27.189,3.777,53.83,6.181,80.704c1.365,15.266,2.69,30.528,4.089,45.788c0.749,8.229,1.203,16.506,2.681,24.611
			c0.405,2.221,3.729,4.977,6.219,5.685c17.026,4.836,34.179,9.203,51.296,13.71c26.058,6.864,52.122,13.693,78.174,20.602
			c3.266,0.87,6.434,2.122,11.028,3.671c-8.168,8.609-15.411,16.554-22.989,24.177c-22.519,22.645-45.02,45.312-67.876,67.625
			c-5.134,5.011-11.468,8.937-17.637,12.764c-5.903,3.654-7.985,8.141-4.651,14.354c3.217,5.974,6.195,12.277,10.48,17.483
			c19.061,23.155,38.092,46.374,58.088,68.742c10.64,11.892,23.235,22.092,36.263,34.281
			C1098.484,794.951,1092.268,795.226,1086.074,795.727z"/>
		<path fill-rule="evenodd" clip-rule="evenodd" fill="#313359" d="M168.802,515.549c-0.354-2.515-4.466-5.283-7.508-6.535
			c-32.936-13.506-65.999-26.698-98.996-40.06c-5.352-2.159-12.444,0.603-13.012,6.252c-1.017,10.093-1.46,20.302-1.266,30.446
			c0.166,8.66,1.571,17.291,2.404,25.939c0.683,7.085,0.779,14.283,2.217,21.211c0.782,3.708,3.836,6.951,6.185,10.971
			c4.736-1.082,8.324-1.592,11.713-2.722c19.264-6.405,38.718-12.373,57.634-19.679c12.19-4.714,23.728-11.212,35.213-17.54
			C166.074,522.356,169.158,518.079,168.802,515.549z M74.026,544.219c-2.202-18.829-4.296-36.649-6.63-56.535
			c22.759,10.484,45.032,20.735,67.298,30.99c-0.146,0.697-0.295,1.399-0.442,2.099C114.159,528.597,94.065,536.415,74.026,544.219z
			"/>
		<path fill-rule="evenodd" clip-rule="evenodd" fill="#313359" d="M493.485,167.863c6.256,20.132,12.026,40.423,18.59,60.458
			c1.188,3.626,4.827,8.048,8.114,8.835c2.286,0.544,7.049-3.923,8.748-7.167c14.036-26.851,27.663-53.932,41.304-80.987
			c2.851-5.66,0.643-11.526-6.763-14.789c-3.016-0.023-8.02-0.507-12.926-0.008c-15.452,1.555-30.881,3.374-46.291,5.322
			c-4.682,0.592-9.28,1.901-13.893,2.963c-4.357,1.009-5.337,3.501-3.597,7.634C489.216,155.951,491.614,161.832,493.485,167.863z
			 M553.223,149.991c-7.681,15.668-15.212,31.038-23.339,47.618c-8.116-15.393-15.468-29.347-23.038-43.709
			C521.796,152.64,536.771,151.376,553.223,149.991z"/>
		<path fill-rule="evenodd" clip-rule="evenodd" fill="#313359" d="M1086.304,456.388c3.977,9.107,7.958,18.501,13.734,26.46
			c6.562,9.048,13.812,7.396,18.244-3.059c4.64-10.945,8.97-22.03,13.435-33.055c0.408,0.153,0.819,0.306,1.225,0.453
			c4.922-14.217,10.274-28.299,14.615-42.692c2.963-9.827-2.026-14.951-11.688-11.373c-18.037,6.677-35.694,14.447-53.234,22.367
			c-6.364,2.873-7.818,8.835-5.399,15.549C1080.287,439.48,1082.722,448.185,1086.304,456.388z M1100.812,429.01
			c3.883-1.232,8.069-1.493,13.764-2.416c-4.309,9.13-7.857,16.662-12.555,26.616c-2.17-7.917-4.071-13.685-5.121-19.599
			C1096.663,432.287,1099.11,429.545,1100.812,429.01z"/>
		<path fill-rule="evenodd" clip-rule="evenodd" fill="#313359" d="M772.346,964.024c-16.078,0.003-32.179,0.589-48.215,1.694
			c-3.571,0.238-6.922,3.657-9.837,5.311c-0.54,4.847-1.401,8.008-1.154,11.076c1.695,21.061,3.562,42.108,5.515,63.153
			c0.691,7.458,7.165,10.243,12.989,5.348c3.565-2.991,6.646-6.756,9.262-10.631c3.241-4.802,5.579-10.201,8.644-15.138
			c9.749-15.688,19.673-31.282,29.499-46.921C784.532,969.191,782.337,964.021,772.346,964.024z M736.477,1015.69
			c-0.745,0.097-1.49,0.198-2.239,0.298c-1.511-9.753-3.031-19.503-4.722-30.412c9.144-0.306,17.271-0.584,26.136-0.881
			C748.839,995.708,742.658,1005.702,736.477,1015.69z"/>
		<path fill-rule="evenodd" clip-rule="evenodd" fill="#313359" d="M160.767,240.445c8.851,15.906,17.642,31.857,27.095,47.397
			c7.876,12.948,13.156,12.951,22.752,1.515c6.947-8.274,14.12-16.359,21.241-24.491c5.919-6.751,4.514-10.932-4.274-13.402
			c-17.945-5.045-35.844-10.266-53.765-15.416c0.198-0.742,0.404-1.481,0.6-2.215c-3.15-0.201-6.301-0.493-9.454-0.581
			C159.265,233.08,158.521,236.414,160.767,240.445z M217.674,260.659c-6.105,7.555-11.186,13.846-17.152,21.231
			c-5.634-10.22-10.86-19.707-17.238-31.262C195.881,254.3,206.23,257.328,217.674,260.659z"/>
		<path fill-rule="evenodd" clip-rule="evenodd" fill="#313359" d="M440.532,589.99c0.51-9.124-4.318-12.877-13.569-11.88
			c-6.576,0.708-13.11,1.819-19.696,2.363c-7.104,0.589-9.635,4.985-9.587,11.22c0.023,3.66,1.059,7.32,1.727,10.963
			c1.452,7.96,2.957,15.917,4.69,25.203c-16.928,1.521-19.281,0.708-36.218,2.235c2.21-14.342,4.013-26.285,5.892-38.207
			c8.679-55.082,17.34-110.173,26.227-165.224c0.324-1.991,2.702-4.756,4.596-5.221c18.69-4.569,24.045-6.475,43.677-10.951
			c0.683,5.003,0.998,7.323,1.311,9.645c3.69,26.931,7.545,53.833,10.963,80.8c1.108,8.739,3.824,12.43,11.141,12.345
			c8.413-0.085,13.442-4.906,13.355-13.365c-0.163-15.591-0.943-31.18-0.815-46.757c0.127-15.577,0.595-31.177,1.795-46.703
			c0.736-9.521-2.763-14.331-12.427-13.186c-33.645,3.98-67.363,7.725-99.323,20.039c-5.899,2.275-9.325,6.388-9.839,13.028
			c-1.575,20.274-2.479,40.661-5.328,60.762c-5.193,36.607-11.145,73.115-17.722,109.493c-2.595,14.325-1.916,29.727-11.358,42.437
			c-1.196,1.612-0.557,6.464,0.977,7.787c2.245,1.909,6.057,2.697,9.213,2.722c11.024,0.088,22.051-0.629,33.076-0.544
			c17.071,0.124,34.143,0.62,51.212,1.022c7.61,0.175,11.269-4.096,11.944-11.033C438.019,622.669,439.621,606.352,440.532,589.99z"
			/>
		<path fill-rule="evenodd" clip-rule="evenodd" fill="#313359" d="M632.91,467.424c-23.887-9.756-47.878-19.288-72.047-28.321
			c-9.524-3.566-14.101-0.654-17.886,8.781c-11.234,28.044-21.963,56.306-33.968,84.01c-12.426,28.678-26.043,56.841-39.3,85.148
			c-3.188,6.81-2.336,12.249,4.221,15.217c14.789,6.702,21.567,9.189,26.511,0.96c0.283-0.471,0.52-0.983,0.708-1.496
			c8.967-24.738,17.789-49.533,26.953-74.208c4.351-11.725,9.336-23.22,14.188-35.196c5.102,2.068,9.575,3.878,14.142,5.728
			c-3.725,17.257-8.053,33.987-10.827,50.972c-4.365,26.764-7.773,53.683-11.376,80.576c-0.837,6.269,0.84,12.079,8.31,12.702
			c7.689,0.649,9.196-5.152,10.002-11.336c3.443-26.353,6.779-52.728,10.626-79.024c2.33-15.934,5.531-31.724,8.555-48.791
			c9.763,3.954,18.621,7.495,27.44,11.127c6.967,2.87,12.718,1.314,15.975-5.442c8.576-17.789,17.047-35.641,24.925-53.745
			C643.497,477.197,640.728,470.62,632.91,467.424z M603.895,521.229c-0.643,1.462-4.668,2.853-6.357,2.224
			c-14.92-5.609-29.734-11.518-44.372-17.809c-1.76-0.759-3.706-4.81-3.166-6.603c3.974-13.118,8.562-26.044,13.202-39.763
			c19.761,8,38.642,15.648,56.728,22.974C614.56,495.514,609.486,508.485,603.895,521.229z"/>
		<path fill-rule="evenodd" clip-rule="evenodd" fill="#313359" d="M688.727,643.308c0.066-7.116-2.344-14.342-1.79-21.37
			c2.524-31.99,5.845-63.912,8.558-95.887c0.783-9.22,1.001-18.56,0.374-27.772c-0.2-2.906-3.733-7.506-6.222-7.852
			c-3.178-0.45-7.094,2.272-10.212,4.346c-1.532,1.022-1.957,3.671-2.915,5.572c-12.464,24.639-25.326,49.096-37.208,74.024
			c-4.609,9.682-9.811,15.246-21.326,12.776c-4.249-0.915-8.964,0.521-13.468,0.564c-5.654,0.057-10.618,1.467-10.518,8.045
			c0.098,6.416,5.003,8.17,10.654,8.067c5.655-0.108,11.314-0.32,18.136-0.521c-1.454,2.66-2.083,4.073-2.944,5.334
			c-11.104,16.2-22.424,32.264-33.174,48.7c-1.562,2.388-0.448,6.538-0.571,9.869c3.908,0.026,7.892,0.53,11.675-0.133
			c1.625-0.281,3.024-2.841,4.215-4.581c10.181-14.897,20.574-29.676,30.347-44.845c9.124-14.164,8.825-14.356,25.544-11.26
			c0.511,0.096,0.984,0.382,2.421,0.969c-0.023,6.334,0.268,12.427-0.162,18.469c-0.353,5.003-1.541,9.948-2.379,14.914
			c-1.551,9.138-3.67,18.231-4.563,27.438c-1.992,20.517-0.388,22.098,20.276,23.37c0.263,0.017,0.528,0.031,0.796,0.051
			c7.386,0.411,11.989-3.306,12.607-10.365C687.978,668.629,688.605,655.955,688.727,643.308z M648.427,589.104
			c4.416-9.396,8.376-17.815,12.337-26.234c0.663,0.125,1.333,0.258,1.998,0.377c-0.438,8.83-0.878,17.659-1.384,27.851
			C656.682,590.375,652.939,589.798,648.427,589.104z"/>
		<path fill-rule="evenodd" clip-rule="evenodd" fill="#313359" d="M786.019,706.256c-0.33-9.408,0.22-19.027-1.545-28.18
			c-2.776-14.333-7.41-28.293-10.8-42.525c-4.636-19.441-8.892-38.97-13.174-58.49c-0.421-1.901-0.108-4.071,0.279-6.039
			c4.712-23.868,9.502-47.709,14.165-71.03c13.607-1.13,25.922-2.147,38.363-3.187c-2.947,9.943-5.899,19.002-8.28,28.208
			c-1.653,6.391-0.565,12.478,6.973,14.07c7.197,1.519,9.756-3.411,11.304-9.651c2.504-10.116,5.249-20.214,8.563-30.089
			c4.559-13.597,1.36-18.608-12.966-18.237c-22.02,0.569-44.036,1.212-66.028,2.439c-2.806,0.156-6.913,3.507-7.794,6.224
			c-2.282,7.005-3.32,14.461-4.447,21.795c-3.372,21.97-9.106,42.238-0.111,66.223c13.416,35.755,19.064,74.421,27.765,111.915
			c0.575,2.476-0.115,6.974-1.752,7.951c-12.216,7.291-24.827,13.937-39.478,21.973c1.119-9.512,2.041-16.557,2.731-23.628
			c0.317-3.241,1.01-6.801,0.016-9.696c-0.911-2.651-4.253-6.683-5.838-6.391c-2.76,0.51-6.767,3.598-7.167,6.09
			c-3.287,20.571-6.341,41.208-8.444,61.923c-1.047,10.266,7.571,15.132,16.857,10.526c16.804-8.345,33.571-16.767,50.37-25.12
			c7.56-3.756,13.02-8.424,10.107-18.214C784.893,712.434,786.125,709.219,786.019,706.256z"/>
		<path fill-rule="evenodd" clip-rule="evenodd" fill="#313359" d="M914.827,604.794c3.728-17.277,9.124-34.191,12.741-51.487
			c0.724-3.473-3.23-7.923-5.025-11.926c-3.328,2.697-8.376,4.736-9.681,8.184c-6,15.911-10.802,32.27-16.431,48.32
			c-0.929,2.649-3.712,6.377-5.881,6.549c-8.532,0.688-17.161,0.15-25.337,0.074c5.308-23.783,10.573-47.116,15.695-70.472
			c1.256-5.728,5.995-13.107-1.984-16.081c-2.285-0.844-8.951,6.801-11.808,11.62c-3.109,5.238-4.209,11.688-6.017,17.659
			c-2.912,9.634-5.334,19.429-8.583,28.953c-9.068,26.636-18.444,53.17-27.709,79.741c-5.253,15.056-10.16,30.25-15.957,45.094
			c-2.589,6.612-3.964,12.597,3.157,16.135c7.021,3.49,14.078,2.008,17.465-5.849c4.119-9.555,7.779-19.37,10.793-29.333
			c5.124-16.94,9.376-34.137,14.518-51.077c0.918-3.025,4.102-7.209,6.679-7.555c8.821-1.17,17.835-0.873,29.347-1.21
			c-5.746,21.775-10.832,41.853-16.417,61.784c-2.059,7.342-3.072,14.407,5.035,17.846c8.713,3.691,13.697-2.025,16.66-9.515
			c1.783-4.513,3.365-9.181,4.309-13.917C905.289,653.837,909.561,629.206,914.827,604.794z"/>
		<path fill-rule="evenodd" clip-rule="evenodd" fill="#313359" d="M956.682,645.948c7.185-30.103,14.281-60.229,21.454-90.344
			c1.379-5.807,0.017-10.532-6.242-11.651c-5.709-1.017-12.566-3.983-15.499,5.025c-7.28,22.364-16.551,44.267-21.715,67.107
			c-6.651,29.384-14.242,58.263-25.756,86.106c-2.548,6.156,3.164,13.75,9.977,13.705c12.182-0.079,19.745-5.439,26.401-22.928
			C948.138,681.257,952.465,663.612,956.682,645.948z"/>
		<path fill-rule="evenodd" clip-rule="evenodd" fill="#313359" d="M908.378,750.56c-7.48-2.799-16.224,1.396-19.523,9.351
			c-3.083,7.442-0.629,14.311,6.091,17.039c7.865,3.195,16.546-0.62,19.662-8.64C917.756,760.225,915.27,753.146,908.378,750.56z"/>
	</g>
</g>
</svg>
