<?xml version="1.0" encoding="UTF-8" standalone="no"?>
<!-- Created with Inkscape (http://www.inkscape.org/) -->

<svg
   xmlns:dc="http://purl.org/dc/elements/1.1/"
   xmlns:cc="http://creativecommons.org/ns#"
   xmlns:rdf="http://www.w3.org/1999/02/22-rdf-syntax-ns#"
   xmlns:svg="http://www.w3.org/2000/svg"
   xmlns="http://www.w3.org/2000/svg"
   xmlns:sodipodi="http://sodipodi.sourceforge.net/DTD/sodipodi-0.dtd"
   xmlns:inkscape="http://www.inkscape.org/namespaces/inkscape"
   width="354.33069"
   height="354.33069"
   id="svg2607"
   sodipodi:version="0.32"
   inkscape:version="0.47 r22583"
   version="1.0"
   sodipodi:docname="Cartesian-coordinate-system.svg"
   inkscape:output_extension="org.inkscape.output.svg.inkscape">
  <defs
     id="defs2609" />
  <sodipodi:namedview
     id="base"
     pagecolor="#ffffff"
     bordercolor="#666666"
     borderopacity="1.0"
     inkscape:pageopacity="0.0"
     inkscape:pageshadow="2"
     inkscape:zoom="1.4142136"
     inkscape:cx="274.67531"
     inkscape:cy="157.72601"
     inkscape:document-units="mm"
     inkscape:current-layer="layer1"
     width="100mm"
     height="99.999997mm"
     units="mm"
     showgrid="false"
     showguides="false"
     inkscape:guide-bbox="true"
     grid_units="mm"
     inkscape:grid-points="true"
     gridtolerance="10000"
     inkscape:window-width="1280"
     inkscape:window-height="1003"
     inkscape:window-x="-4"
     inkscape:window-y="-4"
     inkscape:window-maximized="1">
    <sodipodi:guide
       orientation="horizontal"
       position="177.16417"
       id="guide2617" />
    <sodipodi:guide
       orientation="vertical"
       position="177.16553"
       id="guide2619" />
    <inkscape:grid
       id="GridFromPre046Settings"
       type="xygrid"
       originx="0px"
       originy="0px"
       spacingx="1mm"
       spacingy="1mm"
       color="#0000ff"
       empcolor="#0000ff"
       opacity="0.2"
       empopacity="0.4"
       empspacing="5" />
  </sodipodi:namedview>
  <metadata
     id="metadata2612">
    <rdf:RDF>
      <cc:Work
         rdf:about="">
        <dc:format>image/svg+xml</dc:format>
        <dc:type
           rdf:resource="http://purl.org/dc/dcmitype/StillImage" />
        <dc:title></dc:title>
      </cc:Work>
    </rdf:RDF>
  </metadata>
  <g
     inkscape:label="Layer 1"
     inkscape:groupmode="layer"
     id="layer1">
    <path
       style="fill:none;fill-rule:evenodd;stroke:silver;stroke-width:0.88582677;stroke-linecap:butt;stroke-linejoin:miter;stroke-opacity:1;stroke-miterlimit:4;stroke-dasharray:none"
       d="M 35.433071,141.73226 L 318.89764,141.73226"
       id="path22419" />
    <path
       style="fill:none;fill-rule:evenodd;stroke:silver;stroke-width:0.88582677;stroke-linecap:butt;stroke-linejoin:miter;stroke-opacity:1;stroke-miterlimit:4;stroke-dasharray:none"
       d="M 318.89764,106.29919 L 35.433071,106.29919"
       id="path22421" />
    <path
       style="fill:none;fill-rule:evenodd;stroke:silver;stroke-width:0.88582677;stroke-linecap:butt;stroke-linejoin:miter;stroke-opacity:1;stroke-miterlimit:4;stroke-dasharray:none"
       d="M 35.433071,70.866122 L 318.89764,70.866122"
       id="path22423" />
    <path
       style="fill:none;fill-rule:evenodd;stroke:silver;stroke-width:0.88582677;stroke-linecap:butt;stroke-linejoin:miter;stroke-opacity:1;stroke-miterlimit:4;stroke-dasharray:none"
       d="M 318.89764,212.59841 L 35.433071,212.59841"
       id="path22425" />
    <path
       style="fill:none;fill-rule:evenodd;stroke:silver;stroke-width:0.88582677;stroke-linecap:butt;stroke-linejoin:miter;stroke-opacity:1;stroke-miterlimit:4;stroke-dasharray:none"
       d="M 318.89764,248.03148 L 35.433071,248.03148"
       id="path22427" />
    <path
       style="fill:none;fill-rule:evenodd;stroke:silver;stroke-width:0.88582677;stroke-linecap:butt;stroke-linejoin:miter;stroke-opacity:1;stroke-miterlimit:4;stroke-dasharray:none"
       d="M 35.433071,283.46455 L 318.89764,283.46455"
       id="path22429" />
    <path
       style="fill:none;fill-rule:evenodd;stroke:silver;stroke-width:0.88582677;stroke-linecap:butt;stroke-linejoin:miter;stroke-opacity:1;stroke-miterlimit:4;stroke-dasharray:none"
       d="M 283.46457,318.89762 L 283.46457,35.433051"
       id="path22431" />
    <path
       style="fill:none;fill-rule:evenodd;stroke:silver;stroke-width:0.88582677;stroke-linecap:butt;stroke-linejoin:miter;stroke-opacity:1;stroke-miterlimit:4;stroke-dasharray:none"
       d="M 248.0315,35.433051 L 248.0315,318.89762"
       id="path22433" />
    <path
       style="fill:none;fill-rule:evenodd;stroke:silver;stroke-width:0.88582677;stroke-linecap:butt;stroke-linejoin:miter;stroke-opacity:1;stroke-miterlimit:4;stroke-dasharray:none"
       d="M 212.59843,318.89762 L 212.59843,35.433051"
       id="path22435" />
    <path
       style="fill:none;fill-rule:evenodd;stroke:silver;stroke-width:0.88582677;stroke-linecap:butt;stroke-linejoin:miter;stroke-opacity:1;stroke-miterlimit:4;stroke-dasharray:none"
       d="M 141.73228,35.433051 L 141.73228,318.89762"
       id="path22437" />
    <path
       style="fill:none;fill-rule:evenodd;stroke:silver;stroke-width:0.88582677;stroke-linecap:butt;stroke-linejoin:miter;stroke-opacity:1;stroke-miterlimit:4;stroke-dasharray:none"
       d="M 106.29921,318.89762 L 106.29921,35.433051"
       id="path22439" />
    <path
       style="fill:none;fill-rule:evenodd;stroke:silver;stroke-width:0.88582677;stroke-linecap:butt;stroke-linejoin:miter;stroke-opacity:1;stroke-miterlimit:4;stroke-dasharray:none"
       d="M 70.866142,35.433051 L 70.866142,318.89762"
       id="path22441" />
    <path
       style="fill:none;fill-rule:evenodd;stroke:red;stroke-width:1.77165353;stroke-linecap:round;stroke-linejoin:miter;stroke-opacity:1;stroke-miterlimit:4;stroke-dasharray:1.77165353,3.54330707;stroke-dashoffset:0"
       d="M 70.866142,141.73226 L 70.866142,177.16533"
       id="path11711"
       sodipodi:nodetypes="cc" />
    <path
       style="fill:none;fill-rule:evenodd;stroke:red;stroke-width:1.77165353;stroke-linecap:round;stroke-linejoin:miter;stroke-opacity:1;stroke-miterlimit:4;stroke-dasharray:1.77165353,3.54330707;stroke-dashoffset:0"
       d="M 70.866142,141.73226 L 177.16535,141.73226"
       id="path12598"
       sodipodi:nodetypes="cc" />
    <path
       style="fill:none;fill-rule:evenodd;stroke:#00c000;stroke-width:1.77165353;stroke-linecap:round;stroke-linejoin:miter;stroke-opacity:1;stroke-miterlimit:4;stroke-dasharray:1.77165353,3.54330707;stroke-dashoffset:0"
       d="M 248.0315,70.866122 L 248.0315,177.16533"
       id="path14372"
       sodipodi:nodetypes="cc" />
    <path
       style="fill:none;fill-rule:evenodd;stroke:#00c000;stroke-width:1.77165353;stroke-linecap:round;stroke-linejoin:miter;stroke-opacity:1;stroke-miterlimit:4;stroke-dasharray:1.77165353,3.54330707;stroke-dashoffset:0"
       d="M 177.16535,70.866122 L 248.0315,70.866122"
       id="path15259"
       sodipodi:nodetypes="cc" />
    <path
       style="fill:none;fill-rule:evenodd;stroke:black;stroke-width:2.65748031;stroke-linecap:round;stroke-linejoin:round;stroke-opacity:1;stroke-miterlimit:4;stroke-dasharray:none;marker-start:none;marker-end:none;marker-mid:none"
       d="M 28.346457,177.16533 L 325.98425,177.16533"
       id="path2623"
       sodipodi:nodetypes="cc" />
    <path
       style="fill:none;fill-rule:evenodd;stroke:black;stroke-width:2.65748031;stroke-linecap:round;stroke-linejoin:round;stroke-opacity:1;stroke-miterlimit:4;stroke-dasharray:none;marker-start:none;marker-end:none"
       d="M 177.16535,325.98423 L 177.16535,28.346437"
       id="path2625"
       sodipodi:nodetypes="cc" />
    <path
       style="fill:none;fill-rule:evenodd;stroke:black;stroke-width:1.77165354;stroke-linecap:round;stroke-linejoin:miter;stroke-opacity:1;stroke-miterlimit:4;stroke-dasharray:none"
       d="M 141.73228,170.07872 L 141.73228,184.25195"
       id="path3698" />
    <path
       style="fill:none;fill-rule:evenodd;stroke:black;stroke-width:1.77165354;stroke-linecap:round;stroke-linejoin:miter;stroke-opacity:1;stroke-miterlimit:4;stroke-dasharray:none"
       d="M 106.29921,170.07872 L 106.29921,184.25195"
       id="path3700" />
    <path
       style="fill:none;fill-rule:evenodd;stroke:black;stroke-width:1.77165354;stroke-linecap:round;stroke-linejoin:miter;stroke-opacity:1;stroke-miterlimit:4;stroke-dasharray:none"
       d="M 70.866142,170.07872 L 70.866142,184.25195"
       id="path3702"
       sodipodi:nodetypes="cc" />
    <path
       style="fill:none;fill-rule:evenodd;stroke:black;stroke-width:1.77165354;stroke-linecap:round;stroke-linejoin:miter;stroke-opacity:1;stroke-miterlimit:4;stroke-dasharray:none"
       d="M 212.59843,170.07872 L 212.59843,184.25195"
       id="path3706" />
    <path
       style="fill:none;fill-rule:evenodd;stroke:black;stroke-width:1.77165354;stroke-linecap:round;stroke-linejoin:miter;stroke-opacity:1;stroke-miterlimit:4;stroke-dasharray:none"
       d="M 248.0315,170.07872 L 248.0315,184.25195"
       id="path3708" />
    <path
       style="fill:none;fill-rule:evenodd;stroke:black;stroke-width:1.77165354;stroke-linecap:round;stroke-linejoin:miter;stroke-opacity:1;stroke-miterlimit:4;stroke-dasharray:none"
       d="M 283.46457,170.07872 L 283.46457,184.25195"
       id="path3710" />
    <path
       style="fill:none;fill-rule:evenodd;stroke:black;stroke-width:1.77165354;stroke-linecap:round;stroke-linejoin:miter;stroke-opacity:1;stroke-miterlimit:4;stroke-dasharray:none"
       d="M 170.07874,141.73226 L 184.25197,141.73226"
       id="path4599" />
    <path
       style="fill:none;fill-rule:evenodd;stroke:black;stroke-width:1.77165354;stroke-linecap:round;stroke-linejoin:miter;stroke-opacity:1;stroke-miterlimit:4;stroke-dasharray:none"
       d="M 170.07874,106.29919 L 184.25197,106.29919"
       id="path4601" />
    <path
       style="fill:none;fill-rule:evenodd;stroke:black;stroke-width:1.77165354;stroke-linecap:round;stroke-linejoin:miter;stroke-opacity:1;stroke-miterlimit:4;stroke-dasharray:none"
       d="M 170.07874,70.866122 L 184.25197,70.866122"
       id="path4603" />
    <path
       style="fill:none;fill-rule:evenodd;stroke:black;stroke-width:1.77165354;stroke-linecap:round;stroke-linejoin:miter;stroke-opacity:1;stroke-miterlimit:4;stroke-dasharray:none"
       d="M 170.07874,212.59841 L 184.25197,212.59841"
       id="path4605" />
    <path
       style="fill:none;fill-rule:evenodd;stroke:black;stroke-width:1.77165354;stroke-linecap:round;stroke-linejoin:miter;stroke-opacity:1;stroke-miterlimit:4;stroke-dasharray:none"
       d="M 170.07874,248.03148 L 184.25197,248.03148"
       id="path4607" />
    <path
       style="fill:none;fill-rule:evenodd;stroke:black;stroke-width:1.77165354;stroke-linecap:round;stroke-linejoin:miter;stroke-opacity:1;stroke-miterlimit:4;stroke-dasharray:none"
       d="M 170.07874,283.46455 L 184.25197,283.46455"
       id="path4609" />
    <path
       style="fill:none;fill-rule:evenodd;stroke:black;stroke-width:2.65748031;stroke-linecap:round;stroke-linejoin:round;stroke-opacity:1;stroke-miterlimit:4;stroke-dasharray:none"
       d="M 42.519685,170.07872 L 28.346457,177.16533 L 42.519685,184.25195"
       id="path7270" />
    <path
       style="fill:none;fill-rule:evenodd;stroke:black;stroke-width:2.65748031;stroke-linecap:round;stroke-linejoin:round;stroke-opacity:1;stroke-miterlimit:4;stroke-dasharray:none"
       d="M 170.07874,311.811 C 170.07874,311.811 177.16571,326.57133 177.16553,326.27778 C 177.16535,325.98423 184.25197,311.811 184.25197,311.811"
       id="path9046" />
    <path
       style="fill:none;fill-rule:evenodd;stroke:black;stroke-width:2.65748031;stroke-linecap:round;stroke-linejoin:round;stroke-opacity:1;stroke-miterlimit:4;stroke-dasharray:none"
       d="M 170.07874,42.519665 L 177.16553,28.637567 L 184.25197,42.519665"
       id="path9048" />
    <path
       style="fill:none;fill-rule:evenodd;stroke:black;stroke-width:2.65748031;stroke-linecap:round;stroke-linejoin:round;stroke-opacity:1;stroke-miterlimit:4;stroke-dasharray:none"
       d="M 311.81102,170.07872 L 326.15873,177.16652 L 311.81102,184.25195"
       id="path9050" />
    <path
       sodipodi:type="arc"
       style="stroke-width:2.65748024;stroke-linecap:round;stroke-linejoin:round;stroke-miterlimit:4;stroke-dasharray:none;stroke:none;fill:#c000be;fill-opacity:1"
       id="path9937"
       sodipodi:cx="177.16536"
       sodipodi:cy="177.16533"
       sodipodi:rx="3.5433071"
       sodipodi:ry="3.5433071"
       d="M 180.70867 177.16533 A 3.5433071 3.5433071 0 1 1  173.62205,177.16533 A 3.5433071 3.5433071 0 1 1  180.70867 177.16533 z" />
    <path
       sodipodi:type="arc"
       style="fill:red;fill-opacity:1;stroke:none;stroke-width:2.65748024;stroke-linecap:round;stroke-linejoin:round;stroke-miterlimit:4;stroke-dasharray:none"
       id="path10824"
       sodipodi:cx="70.866142"
       sodipodi:cy="141.73227"
       sodipodi:rx="3.5433071"
       sodipodi:ry="3.5433071"
       d="M 74.409449 141.73227 A 3.5433071 3.5433071 0 1 1  67.322835,141.73227 A 3.5433071 3.5433071 0 1 1  74.409449 141.73227 z" />
    <path
       sodipodi:type="arc"
       style="fill:#00c000;fill-opacity:1;stroke:none;stroke-width:1.77165353;stroke-linecap:round;stroke-linejoin:round;stroke-miterlimit:4;stroke-dasharray:1.77165353, 3.54330707;stroke-dashoffset:0;stroke-opacity:1"
       id="path13485"
       sodipodi:cx="248.03149"
       sodipodi:cy="88.582657"
       sodipodi:rx="3.5433071"
       sodipodi:ry="3.5433071"
       d="M 251.5748 88.582657 A 3.5433071 3.5433071 0 1 1  244.48819,88.582657 A 3.5433071 3.5433071 0 1 1  251.5748 88.582657 z"
       transform="translate(1.901717e-6,-17.71654)" />
    <path
       sodipodi:type="arc"
       style="fill:blue;fill-opacity:1;stroke:none;stroke-width:1.77165353;stroke-linecap:round;stroke-linejoin:round;stroke-miterlimit:4;stroke-dasharray:1.77165353, 3.54330707;stroke-dashoffset:0;stroke-opacity:1"
       id="path16146"
       sodipodi:cx="124.01575"
       sodipodi:cy="265.74802"
       sodipodi:rx="3.5433071"
       sodipodi:ry="3.5433071"
       d="M 127.55905 265.74802 A 3.5433071 3.5433071 0 1 1  120.47244,265.74802 A 3.5433071 3.5433071 0 1 1  127.55905 265.74802 z" />
    <path
       style="fill:none;fill-rule:evenodd;stroke:blue;stroke-width:1.77165353;stroke-linecap:round;stroke-linejoin:miter;stroke-opacity:1;stroke-miterlimit:4;stroke-dasharray:1.77165353,3.54330707;stroke-dashoffset:0"
       d="M 124.01575,265.74801 L 124.01575,177.16533"
       id="path18803" />
    <path
       style="fill:none;fill-rule:evenodd;stroke:blue;stroke-width:1.77165353;stroke-linecap:round;stroke-linejoin:miter;stroke-opacity:1;stroke-miterlimit:4;stroke-dasharray:1.77165353,3.54330707;stroke-dashoffset:0"
       d="M 124.01575,265.74801 L 177.16535,265.74801"
       id="path18805" />
    <path
       style="font-size:20px;font-style:italic;font-weight:normal;fill:#000000;fill-opacity:1;stroke:none;stroke-width:1px;stroke-linecap:butt;stroke-linejoin:miter;stroke-opacity:1;font-family:serif"
       d="M 330.01874,193.75687 C 329.68279,193.99124 329.38592,194.19241 329.12811,194.36038 C 328.87029,194.52835 328.63787,194.66507 328.43085,194.77054 C 328.22381,194.87601 328.03631,194.95413 327.86835,195.00491 C 327.70037,195.05569 327.54217,195.08108 327.39374,195.08109 C 327.15936,195.08108 326.92303,194.95804 326.68475,194.71194 C 326.44647,194.46585 326.21209,194.13773 325.98163,193.72757 C 325.75115,193.31741 325.52069,192.84476 325.29022,192.3096 C 325.05975,191.77445 324.83514,191.21781 324.61639,190.63968 C 324.4367,190.88187 324.23162,191.15335 324.00116,191.45413 C 323.77069,191.75492 323.52459,192.07718 323.26288,192.42093 C 323.00116,192.76468 322.72967,193.12991 322.44843,193.51663 C 322.16717,193.90335 321.88983,194.30374 321.61639,194.7178 C 321.32733,194.75687 321.00311,194.80569 320.64374,194.86429 C 320.28436,194.92288 319.96014,194.99515 319.67108,195.08109 L 319.40155,194.67093 C 319.76093,194.35843 320.14764,193.99515 320.56171,193.58109 C 320.97577,193.16702 321.39569,192.73343 321.82147,192.2803 C 322.24725,191.82718 322.66522,191.3682 323.07538,190.90335 C 323.48553,190.43851 323.86639,189.99515 324.21796,189.57327 C 323.99139,188.97953 323.76873,188.4014 323.54999,187.8389 C 323.33123,187.27641 323.11444,186.77836 322.8996,186.34476 C 322.68475,185.91117 322.47577,185.56352 322.27264,185.30179 C 322.06952,185.04008 321.8742,184.90922 321.68671,184.90921 C 321.61639,184.90922 321.50116,184.92484 321.341,184.95609 C 321.18085,184.98734 321.01874,185.0225 320.85468,185.06155 C 320.69061,185.10063 320.54413,185.13578 320.41522,185.16702 C 320.28632,185.19828 320.22186,185.21391 320.22186,185.2139 L 320.0578,184.75687 C 320.38592,184.61625 320.70038,184.47758 321.00116,184.34085 C 321.30194,184.20414 321.57733,184.08305 321.82733,183.97757 C 322.07733,183.87211 322.29022,183.78813 322.466,183.72562 C 322.64178,183.66313 322.77264,183.63188 322.85858,183.63187 C 323.06952,183.63188 323.28436,183.76469 323.50311,184.0303 C 323.72186,184.29594 323.94451,184.64945 324.17108,185.09085 C 324.39764,185.53227 324.62811,186.03617 324.86249,186.60257 C 325.09686,187.16898 325.33123,187.75297 325.56561,188.35452 C 325.88592,187.97172 326.19842,187.58109 326.50311,187.18265 C 326.80779,186.78422 327.07732,186.41508 327.31171,186.07523 C 327.54607,185.73539 327.73553,185.44828 327.88007,185.2139 C 328.02459,184.97953 328.09685,184.835 328.09686,184.7803 C 328.09685,184.70219 328.08514,184.63188 328.06171,184.56937 C 328.03826,184.50688 327.98748,184.46 327.90936,184.42874 C 327.83123,184.3975 327.716,184.37992 327.56366,184.37601 C 327.41131,184.37211 327.21014,184.38188 326.96014,184.4053 L 326.93671,183.92484 C 327.45232,183.81547 327.90935,183.7393 328.3078,183.69632 C 328.70623,183.65336 329.0031,183.63188 329.19843,183.63187 C 329.57342,183.63188 329.83513,183.69438 329.98358,183.81937 C 330.13201,183.94438 330.20623,184.08891 330.20624,184.25296 C 330.20623,184.40922 330.11443,184.62211 329.93085,184.89163 C 329.74724,185.16117 329.47771,185.50492 329.12225,185.92288 C 328.76678,186.34086 328.32342,186.83695 327.79218,187.41116 C 327.26092,187.98539 326.65154,188.6475 325.96405,189.39749 C 326.18279,189.96 326.39959,190.50101 326.61444,191.02054 C 326.82928,191.54007 327.03826,191.99906 327.24139,192.39749 C 327.44451,192.79593 327.64373,193.11429 327.83905,193.35257 C 328.03435,193.59085 328.22185,193.70999 328.40155,193.70999 C 328.58123,193.70999 328.79021,193.68265 329.0285,193.62796 C 329.26678,193.57327 329.53045,193.47171 329.81952,193.32327 L 330.01874,193.75687 L 330.01874,193.75687 z"
       id="text22363" />
    <path
       style="font-size:24px;font-style:italic;font-weight:normal;fill:#000000;fill-opacity:1;stroke:none;stroke-width:1px;stroke-linecap:butt;stroke-linejoin:miter;stroke-opacity:1;font-family:serif"
       d="M 166.37036,32.44154 C 166.37035,32.707175 166.29809,33.048971 166.15356,33.46693 C 166.00902,33.884908 165.77465,34.443501 165.45044,35.142712 C 165.12621,35.841937 164.70043,36.711077 164.1731,37.750134 C 163.64574,38.7892 163.00317,40.05873 162.24536,41.558727 C 161.72192,42.582165 161.20043,43.511851 160.68091,44.34779 C 160.16137,45.183725 159.62817,45.900521 159.0813,46.49818 C 158.53442,47.095832 157.96411,47.558722 157.37036,47.886852 C 156.77661,48.214972 156.1477,48.379034 155.48364,48.37904 C 155.24927,48.379034 155.02857,48.359503 154.82153,48.320446 C 154.6145,48.281378 154.43482,48.23255 154.28247,48.173962 C 154.13013,48.115362 154.00904,48.050909 153.91919,47.980602 C 153.82935,47.910284 153.78443,47.843878 153.78442,47.781384 C 153.78443,47.687628 153.82154,47.556769 153.89575,47.388805 C 153.96997,47.220832 154.06177,47.045051 154.17114,46.861462 C 154.28052,46.677864 154.39966,46.509895 154.52856,46.357555 C 154.65747,46.205208 154.77661,46.101692 154.88599,46.047009 C 155.07349,46.172005 155.2395,46.269661 155.38403,46.339977 C 155.52856,46.410286 155.66333,46.461067 155.78833,46.492321 C 155.91333,46.523567 156.03833,46.541145 156.16333,46.545055 C 156.28833,46.548958 156.42114,46.550911 156.56177,46.550915 C 157.19458,46.550911 157.81372,46.24427 158.41919,45.630993 C 159.02466,45.017709 159.65551,44.152476 160.31177,43.03529 C 160.23364,42.582165 160.13794,42.070446 160.02466,41.500134 C 159.91137,40.929823 159.78637,40.343886 159.64966,39.742321 C 159.51294,39.140762 159.37036,38.537247 159.22192,37.931774 C 159.07348,37.326311 158.92505,36.757952 158.77661,36.226696 C 158.62817,35.695453 158.48559,35.216938 158.34888,34.791149 C 158.21216,34.365376 158.0852,34.031392 157.96802,33.789196 C 157.78833,33.390768 157.63598,33.131002 157.51099,33.009899 C 157.38598,32.888815 157.25708,32.828268 157.12427,32.828259 C 157.05395,32.828268 156.95434,32.843893 156.82544,32.875134 C 156.69653,32.906393 156.56958,32.939596 156.44458,32.974743 C 156.31958,33.009909 156.2102,33.041159 156.11646,33.068493 C 156.0227,33.095846 155.97583,33.109518 155.97583,33.109509 L 155.83521,32.675915 C 156.16333,32.527487 156.47583,32.384909 156.77271,32.24818 C 157.06958,32.111472 157.33716,31.992332 157.57544,31.890759 C 157.81372,31.789207 158.0227,31.707176 158.20239,31.644665 C 158.38208,31.582176 158.5188,31.550926 158.61255,31.550915 C 158.72192,31.550926 158.81762,31.578269 158.89966,31.632946 C 158.98169,31.687644 159.06176,31.773582 159.13989,31.890759 C 159.21801,32.007957 159.29419,32.162253 159.36841,32.353649 C 159.44262,32.545065 159.52661,32.773581 159.62036,33.039196 C 159.76879,33.46108 159.9309,33.959126 160.10669,34.533337 C 160.28247,35.107563 160.4602,35.726703 160.63989,36.390759 C 160.81958,37.054826 160.99536,37.744279 161.16724,38.459118 C 161.33911,39.173965 161.49536,39.882949 161.63599,40.586071 C 161.88598,40.093886 162.13793,39.591933 162.39185,39.080212 C 162.64575,38.568497 162.88989,38.062638 163.12427,37.562634 C 163.35864,37.062639 163.57543,36.584124 163.77466,36.127087 C 163.97387,35.670062 164.14965,35.250141 164.302,34.867321 C 164.45434,34.484517 164.57348,34.154439 164.65942,33.877087 C 164.74535,33.599752 164.78832,33.390768 164.78833,33.250134 C 164.78832,32.859518 164.58129,32.652487 164.16724,32.62904 C 163.91723,32.605612 163.56176,32.695456 163.10083,32.898571 L 162.88989,32.464977 C 163.45239,32.136863 163.94653,31.902488 164.37231,31.761852 C 164.79809,31.621238 165.14379,31.550926 165.40942,31.550915 C 165.54223,31.550926 165.66723,31.560691 165.78442,31.580212 C 165.9016,31.599754 166.00316,31.640769 166.08911,31.703259 C 166.17504,31.765769 166.2434,31.855613 166.29419,31.97279 C 166.34496,32.089988 166.37035,32.246238 166.37036,32.44154 L 166.37036,32.44154 z"
       id="text22367" />
    <path
       style="font-size:12px;font-weight:bold"
       d="M 188.11417,283.57294 L 195.62589,283.57294 L 195.62589,284.56903 L 188.11417,284.56903 L 188.11417,283.57294 z M 201.76651,283.11591 C 202.33291,283.237 202.77529,283.48896 203.09366,283.87177 C 203.41201,284.25458 203.57119,284.72724 203.5712,285.28973 C 203.57119,286.15302 203.27432,286.82098 202.68057,287.29364 C 202.08682,287.7663 201.24307,288.00262 200.14932,288.00262 C 199.78213,288.00262 199.4042,287.96649 199.01553,287.89423 C 198.62686,287.82196 198.22549,287.71356 197.81143,287.56903 L 197.81143,286.42645 C 198.13956,286.61786 198.49893,286.76239 198.88956,286.86005 C 199.28018,286.9577 199.68838,287.00653 200.11417,287.00653 C 200.85635,287.00653 201.42178,286.86005 201.81046,286.56708 C 202.19912,286.27411 202.39346,285.84833 202.39346,285.28973 C 202.39346,284.77411 202.21279,284.37079 201.85147,284.07977 C 201.49014,283.78876 200.98721,283.64325 200.34268,283.64325 L 199.32315,283.64325 L 199.32315,282.67059 L 200.38956,282.67059 C 200.97158,282.6706 201.4169,282.55439 201.72549,282.32196 C 202.03408,282.08954 202.18838,281.75458 202.18839,281.31708 C 202.18838,280.86787 202.0292,280.52314 201.71085,280.2829 C 201.39248,280.04267 200.93643,279.92255 200.34268,279.92255 C 200.01846,279.92255 199.6708,279.95771 199.29971,280.02802 C 198.92862,280.09834 198.52041,280.20771 198.0751,280.35614 L 198.0751,279.30145 C 198.52432,279.17646 198.94522,279.08271 199.3378,279.0202 C 199.73037,278.95771 200.10049,278.92646 200.44815,278.92645 C 201.34658,278.92646 202.05752,279.13056 202.58096,279.53876 C 203.10439,279.94697 203.36611,280.49873 203.36612,281.19403 C 203.36611,281.67841 203.22744,282.08759 202.9501,282.42157 C 202.67275,282.75556 202.27822,282.987 201.76651,283.11591 L 201.76651,283.11591 z"
       id="text22371" />
    <path
       style="font-size:12px;font-style:normal;font-weight:bold;fill:#000000;fill-opacity:1;stroke:none;stroke-width:1px;stroke-linecap:butt;stroke-linejoin:miter;stroke-opacity:1;font-family:sans"
       d="M 188.17404,248.22484 L 195.68576,248.22484 L 195.68576,249.22093 L 188.17404,249.22093 L 188.17404,248.22484 z M 199.25998,251.48851 L 203.39084,251.48851 L 203.39084,252.4846 L 197.83615,252.4846 L 197.83615,251.48851 C 198.28537,251.02367 198.89767,250.39965 199.67307,249.61644 C 200.44845,248.83324 200.93576,248.32836 201.13498,248.10179 C 201.51388,247.67601 201.77853,247.31566 201.92892,247.02074 C 202.07931,246.72582 202.15451,246.43578 202.15451,246.15062 C 202.15451,245.68578 201.99142,245.30688 201.66525,245.0139 C 201.33908,244.72094 200.91427,244.57446 200.39084,244.57445 C 200.01974,244.57446 199.62814,244.63891 199.21603,244.76781 C 198.80392,244.89672 198.36349,245.09203 197.89474,245.35374 L 197.89474,244.15843 C 198.37131,243.96703 198.81662,243.8225 199.23068,243.72484 C 199.64474,243.62719 200.02365,243.57836 200.3674,243.57835 C 201.27365,243.57836 201.9963,243.80493 202.53537,244.25804 C 203.07443,244.71117 203.34396,245.31664 203.34396,246.07445 C 203.34396,246.43383 203.27657,246.77465 203.14182,247.09691 C 203.00704,247.41918 202.76193,247.79906 202.40646,248.23656 C 202.3088,248.34984 201.99826,248.67699 201.47482,249.218 C 200.95138,249.75902 200.2131,250.51586 199.25998,251.48851 L 199.25998,251.48851 z"
       id="text22375" />
    <path
       style="font-size:12px;font-style:normal;font-weight:bold;fill:#000000;fill-opacity:1;stroke:none;stroke-width:1px;stroke-linecap:butt;stroke-linejoin:miter;stroke-opacity:1;font-family:sans"
       d="M 188,212.71266 L 195.51172,212.71266 L 195.51172,213.70876 L 188,213.70876 L 188,212.71266 z M 198.27148,215.97633 L 200.20508,215.97633 L 200.20508,209.30251 L 198.10156,209.72438 L 198.10156,208.64626 L 200.19336,208.22438 L 201.37695,208.22438 L 201.37695,215.97633 L 203.31055,215.97633 L 203.31055,216.97243 L 198.27148,216.97243 L 198.27148,215.97633 z"
       id="text22379" />
    <path
       style="font-size:12px;font-style:normal;font-weight:bold;fill:#000000;fill-opacity:1;stroke:none;stroke-width:1px;stroke-linecap:butt;stroke-linejoin:miter;stroke-opacity:1;font-family:sans"
       d="M 188.16992,145.11018 L 190.10352,145.11018 L 190.10352,138.43636 L 188,138.85823 L 188,137.78011 L 190.0918,137.35823 L 191.27539,137.35823 L 191.27539,145.11018 L 193.20898,145.11018 L 193.20898,146.10628 L 188.16992,146.10628 L 188.16992,145.11018 z"
       id="text22383" />
    <path
       style="font-size:12px;font-style:normal;font-weight:bold;fill:#000000;fill-opacity:1;stroke:none;stroke-width:1px;stroke-linecap:butt;stroke-linejoin:miter;stroke-opacity:1;font-family:sans"
       d="M 189.42383,109.75622 L 193.55469,109.75622 L 193.55469,110.75231 L 188,110.75231 L 188,109.75622 C 188.44922,109.29138 189.06152,108.66735 189.83691,107.88415 C 190.6123,107.10095 191.09961,106.59607 191.29883,106.3695 C 191.67773,105.94372 191.94238,105.58337 192.09277,105.28844 C 192.24316,104.99353 192.31835,104.70349 192.31836,104.41833 C 192.31835,103.95349 192.15527,103.57458 191.8291,103.28161 C 191.50293,102.98865 191.07812,102.84216 190.55469,102.84216 C 190.18359,102.84216 189.79199,102.90662 189.37988,103.03551 C 188.96777,103.16443 188.52734,103.35974 188.05859,103.62145 L 188.05859,102.42614 C 188.53515,102.23474 188.98047,102.09021 189.39453,101.99255 C 189.80859,101.8949 190.1875,101.84607 190.53125,101.84606 C 191.4375,101.84607 192.16015,102.07263 192.69922,102.52575 C 193.23828,102.97888 193.50781,103.58435 193.50781,104.34216 C 193.50781,104.70154 193.44042,105.04236 193.30566,105.36462 C 193.17089,105.68689 192.92578,106.06677 192.57031,106.50426 C 192.47265,106.61755 192.1621,106.9447 191.63867,107.48571 C 191.11523,108.02673 190.37695,108.78356 189.42383,109.75622 L 189.42383,109.75622 z"
       id="text22387" />
    <path
       style="font-size:12px;font-style:normal;font-weight:bold;fill:#000000;fill-opacity:1;stroke:none;stroke-width:1px;stroke-linecap:butt;stroke-linejoin:miter;stroke-opacity:1;font-family:sans"
       d="M 191.95508,70.517487 C 192.52148,70.638585 192.96386,70.890538 193.28223,71.273346 C 193.60058,71.656162 193.75976,72.128818 193.75977,72.691315 C 193.75976,73.554598 193.46288,74.222566 192.86914,74.695221 C 192.27539,75.167877 191.43164,75.404205 190.33789,75.404205 C 189.9707,75.404205 189.59277,75.368072 189.2041,75.295807 C 188.81543,75.223541 188.41406,75.115143 188,74.970612 L 188,73.828033 C 188.32812,74.019441 188.6875,74.163972 189.07812,74.261627 C 189.46875,74.359284 189.87695,74.408112 190.30273,74.408112 C 191.04492,74.408112 191.61035,74.261628 191.99902,73.968658 C 192.38769,73.675691 192.58203,73.24991 192.58203,72.691315 C 192.58203,72.175693 192.40136,71.772373 192.04004,71.481354 C 191.67871,71.190342 191.17578,71.044835 190.53125,71.04483 L 189.51172,71.04483 L 189.51172,70.072174 L 190.57812,70.072174 C 191.16015,70.072179 191.60546,69.955968 191.91406,69.723541 C 192.22265,69.491125 192.37695,69.156165 192.37695,68.718658 C 192.37695,68.269447 192.21777,67.92472 191.89941,67.684479 C 191.58105,67.444252 191.125,67.324135 190.53125,67.324127 C 190.20703,67.324135 189.85937,67.359291 189.48828,67.429596 C 189.11719,67.499916 188.70898,67.609291 188.26367,67.757721 L 188.26367,66.703033 C 188.71289,66.578042 189.13379,66.484292 189.52637,66.421783 C 189.91894,66.359292 190.28906,66.328042 190.63672,66.328033 C 191.53515,66.328042 192.24609,66.532144 192.76953,66.940338 C 193.29296,67.348549 193.55468,67.900306 193.55469,68.595612 C 193.55468,69.079993 193.41601,69.489172 193.13867,69.823151 C 192.86132,70.15714 192.46679,70.388585 191.95508,70.517487 L 191.95508,70.517487 z"
       id="text22391" />
    <path
       style="font-size:12px;font-style:normal;font-weight:bold;fill:#000000;fill-opacity:1;stroke:none;stroke-width:1px;stroke-linecap:butt;stroke-linejoin:miter;stroke-opacity:1;font-family:sans"
       d="M 63.137627,192.901 L 70.649345,192.901 L 70.649345,193.89709 L 63.137627,193.89709 L 63.137627,192.901 z M 76.78997,192.44397 C 77.356371,192.56507 77.798754,192.81702 78.117119,193.19983 C 78.435472,193.58265 78.594651,194.0553 78.594658,194.6178 C 78.594651,195.48108 78.297777,196.14905 77.704033,196.6217 C 77.110278,197.09436 76.266529,197.33069 75.172783,197.33069 C 74.805593,197.33069 74.427663,197.29456 74.038994,197.22229 C 73.65032,197.15002 73.248953,197.04163 72.834892,196.89709 L 72.834892,195.75452 C 73.163016,195.94592 73.522391,196.09046 73.913017,196.18811 C 74.30364,196.28577 74.711843,196.3346 75.137627,196.33459 C 75.87981,196.3346 76.445239,196.18811 76.833916,195.89514 C 77.222582,195.60217 77.416918,195.17639 77.416924,194.6178 C 77.416918,194.10218 77.236254,193.69886 76.874931,193.40784 C 76.513599,193.11683 76.010669,192.97132 75.366142,192.97131 L 74.346611,192.97131 L 74.346611,191.99866 L 75.413017,191.99866 C 75.995044,191.99866 76.440357,191.88245 76.748955,191.65002 C 77.057543,191.41761 77.21184,191.08265 77.211845,190.64514 C 77.21184,190.19593 77.052661,189.8512 76.734306,189.61096 C 76.415942,189.37074 75.959888,189.25062 75.366142,189.25061 C 75.04192,189.25062 74.694264,189.28577 74.323174,189.35608 C 73.952078,189.4264 73.543875,189.53577 73.098564,189.6842 L 73.098564,188.62952 C 73.547781,188.50453 73.968679,188.41078 74.361259,188.34827 C 74.753835,188.28578 75.123952,188.25453 75.471611,188.25452 C 76.370044,188.25453 77.080981,188.45863 77.604424,188.86682 C 78.127855,189.27503 78.389573,189.82679 78.38958,190.52209 C 78.389573,191.00648 78.250902,191.41566 77.973564,191.74963 C 77.696215,192.08362 77.301684,192.31507 76.78997,192.44397 L 76.78997,192.44397 z"
       id="text22395" />
    <path
       style="font-size:12px;font-style:normal;font-weight:bold;fill:#000000;fill-opacity:1;stroke:none;stroke-width:1px;stroke-linecap:butt;stroke-linejoin:miter;stroke-opacity:1;font-family:sans"
       d="M 98.690811,193.07092 L 106.20253,193.07092 L 106.20253,194.06702 L 98.690811,194.06702 L 98.690811,193.07092 z M 109.77675,196.33459 L 113.90761,196.33459 L 113.90761,197.33069 L 108.35292,197.33069 L 108.35292,196.33459 C 108.80214,195.86975 109.41444,195.24573 110.18983,194.46252 C 110.96522,193.67932 111.45253,193.17444 111.65175,192.94788 C 112.03065,192.5221 112.2953,192.16175 112.44569,191.86682 C 112.59608,191.57191 112.67127,191.28187 112.67128,190.9967 C 112.67127,190.53187 112.50819,190.15296 112.18202,189.85999 C 111.85585,189.56702 111.43104,189.42054 110.90761,189.42053 C 110.53651,189.42054 110.14491,189.48499 109.7328,189.61389 C 109.32069,189.74281 108.88026,189.93812 108.41151,190.19983 L 108.41151,189.00452 C 108.88808,188.81312 109.33339,188.66859 109.74745,188.57092 C 110.16151,188.47328 110.54042,188.42445 110.88417,188.42444 C 111.79042,188.42445 112.51307,188.65101 113.05214,189.10413 C 113.5912,189.55726 113.86073,190.16273 113.86073,190.92053 C 113.86073,191.27991 113.79334,191.62073 113.65858,191.94299 C 113.52381,192.26526 113.2787,192.64515 112.92323,193.08264 C 112.82557,193.19593 112.51502,193.52308 111.99159,194.06409 C 111.46815,194.60511 110.72987,195.36194 109.77675,196.33459 L 109.77675,196.33459 z"
       id="text22399" />
    <path
       style="font-size:12px;font-style:normal;font-weight:bold;fill:#000000;fill-opacity:1;stroke:none;stroke-width:1px;stroke-linecap:butt;stroke-linejoin:miter;stroke-opacity:1;font-family:sans"
       d="M 134.07701,193.07092 L 141.58873,193.07092 L 141.58873,194.06702 L 134.07701,194.06702 L 134.07701,193.07092 z M 144.3485,196.33459 L 146.28209,196.33459 L 146.28209,189.66077 L 144.17857,190.08264 L 144.17857,189.00452 L 146.27037,188.58264 L 147.45396,188.58264 L 147.45396,196.33459 L 149.38756,196.33459 L 149.38756,197.33069 L 144.3485,197.33069 L 144.3485,196.33459 z"
       id="text22403" />
    <path
       style="font-size:12px;font-style:normal;font-weight:bold;fill:#000000;fill-opacity:1;stroke:none;stroke-width:1px;stroke-linecap:butt;stroke-linejoin:miter;stroke-opacity:1;font-family:sans"
       d="M 210.16386,196.33459 L 212.09746,196.33459 L 212.09746,189.66077 L 209.99394,190.08264 L 209.99394,189.00452 L 212.08574,188.58264 L 213.26933,188.58264 L 213.26933,196.33459 L 215.20293,196.33459 L 215.20293,197.33069 L 210.16386,197.33069 L 210.16386,196.33459 z"
       id="text22407" />
    <path
       style="font-size:12px;font-style:normal;font-weight:bold;fill:#000000;fill-opacity:1;stroke:none;stroke-width:1px;stroke-linecap:butt;stroke-linejoin:miter;stroke-opacity:1;font-family:sans"
       d="M 246.67798,196.33459 L 250.80884,196.33459 L 250.80884,197.33069 L 245.25415,197.33069 L 245.25415,196.33459 C 245.70337,195.86975 246.31567,195.24573 247.09106,194.46252 C 247.86645,193.67932 248.35376,193.17444 248.55298,192.94788 C 248.93188,192.5221 249.19653,192.16175 249.34692,191.86682 C 249.49731,191.57191 249.5725,191.28187 249.57251,190.9967 C 249.5725,190.53187 249.40942,190.15296 249.08325,189.85999 C 248.75708,189.56702 248.33227,189.42054 247.80884,189.42053 C 247.43774,189.42054 247.04614,189.48499 246.63403,189.61389 C 246.22192,189.74281 245.78149,189.93812 245.31274,190.19983 L 245.31274,189.00452 C 245.78931,188.81312 246.23462,188.66859 246.64868,188.57092 C 247.06274,188.47328 247.44165,188.42445 247.7854,188.42444 C 248.69165,188.42445 249.4143,188.65101 249.95337,189.10413 C 250.49243,189.55726 250.76196,190.16273 250.76196,190.92053 C 250.76196,191.27991 250.69457,191.62073 250.55981,191.94299 C 250.42504,192.26526 250.17993,192.64515 249.82446,193.08264 C 249.7268,193.19593 249.41625,193.52308 248.89282,194.06409 C 248.36938,194.60511 247.6311,195.36194 246.67798,196.33459 L 246.67798,196.33459 z"
       id="text22411" />
    <path
       style="font-size:12px;font-style:normal;font-weight:bold;fill:#000000;fill-opacity:1;stroke:none;stroke-width:1px;stroke-linecap:butt;stroke-linejoin:miter;stroke-opacity:1;font-family:sans"
       d="M 284.53976,192.44397 C 285.10617,192.56507 285.54855,192.81702 285.86691,193.19983 C 286.18527,193.58265 286.34445,194.0553 286.34445,194.6178 C 286.34445,195.48108 286.04757,196.14905 285.45383,196.6217 C 284.86007,197.09436 284.01632,197.33069 282.92258,197.33069 C 282.55539,197.33069 282.17746,197.29456 281.78879,197.22229 C 281.40011,197.15002 280.99875,197.04163 280.58469,196.89709 L 280.58469,195.75452 C 280.91281,195.94592 281.27218,196.09046 281.66281,196.18811 C 282.05343,196.28577 282.46164,196.3346 282.88742,196.33459 C 283.6296,196.3346 284.19503,196.18811 284.58371,195.89514 C 284.97238,195.60217 285.16671,195.17639 285.16672,194.6178 C 285.16671,194.10218 284.98605,193.69886 284.62473,193.40784 C 284.26339,193.11683 283.76046,192.97132 283.11594,192.97131 L 282.09641,192.97131 L 282.09641,191.99866 L 283.16281,191.99866 C 283.74484,191.99866 284.19015,191.88245 284.49875,191.65002 C 284.80734,191.41761 284.96163,191.08265 284.96164,190.64514 C 284.96163,190.19593 284.80245,189.8512 284.4841,189.61096 C 284.16574,189.37074 283.70968,189.25062 283.11594,189.25061 C 282.79171,189.25062 282.44406,189.28577 282.07297,189.35608 C 281.70187,189.4264 281.29367,189.53577 280.84836,189.6842 L 280.84836,188.62952 C 281.29758,188.50453 281.71847,188.41078 282.11105,188.34827 C 282.50363,188.28578 282.87375,188.25453 283.22141,188.25452 C 284.11984,188.25453 284.83077,188.45863 285.35422,188.86682 C 285.87765,189.27503 286.13937,189.82679 286.13937,190.52209 C 286.13937,191.00648 286.0007,191.41566 285.72336,191.74963 C 285.44601,192.08362 285.05148,192.31507 284.53976,192.44397 L 284.53976,192.44397 z"
       id="text22415" />
    <g
       style="font-size:40px;font-style:normal;font-weight:normal;fill:#00c000;fill-opacity:1;stroke:none;font-family:ShelleyAllegro BT;-inkscape-font-specification:ShelleyAllegro BT"
       id="text2882">
      <path
         d="m 226.86328,66.13147 c -1.16407,-1.468754 -2.14844,-3.187502 -2.95312,-5.15625 -0.80469,-1.968748 -1.20704,-4.007809 -1.20704,-6.117188 0,-1.859367 0.30078,-3.640615 0.90235,-5.34375 0.70312,-1.976549 1.78906,-3.945297 3.25781,-5.90625 l 1.51172,0 c -0.94532,1.625016 -1.57032,2.785171 -1.875,3.480469 -0.47657,1.078138 -0.85157,2.203137 -1.125,3.375 -0.33594,1.460947 -0.50391,2.929695 -0.50391,4.40625 0,3.757815 1.16797,7.511717 3.50391,11.261719 z"
         style="font-size:24px;fill:#00c000;font-family:Arial;-inkscape-font-specification:Arial"
         id="path2903" />
      <path
         d="m 241.34766,59.053345 0,2.027343 -11.35547,0 c -0.0156,-0.507812 0.0664,-0.996092 0.24609,-1.464843 0.28906,-0.773436 0.75195,-1.535154 1.38867,-2.285157 0.63672,-0.749995 1.55664,-1.617182 2.75977,-2.601562 1.86718,-1.531242 3.1289,-2.744132 3.78515,-3.638672 0.65625,-0.89452 0.98437,-1.740223 0.98438,-2.537109 -1e-5,-0.835924 -0.29884,-1.541002 -0.89648,-2.115235 -0.59767,-0.574203 -1.37697,-0.861312 -2.3379,-0.861328 -1.01563,1.6e-5 -1.82812,0.304703 -2.4375,0.914063 -0.60937,0.609389 -0.91797,1.453138 -0.92578,2.53125 l -2.16797,-0.222657 c 0.14844,-1.617173 0.70703,-2.849594 1.67579,-3.697265 0.96874,-0.84764 2.26952,-1.271467 3.90234,-1.271485 1.64843,1.8e-5 2.95312,0.457049 3.91406,1.371094 0.96093,0.914078 1.4414,2.046889 1.44141,3.398438 -1e-5,0.687512 -0.14064,1.363292 -0.42188,2.027343 -0.28126,0.664073 -0.74805,1.363291 -1.40039,2.097657 -0.65235,0.734382 -1.73633,1.742194 -3.25195,3.023437 -1.26563,1.062504 -2.07813,1.783207 -2.4375,2.16211 -0.35938,0.378909 -0.65625,0.759768 -0.89063,1.142578 z"
         style="font-size:24px;fill:#00c000;font-family:Arial;-inkscape-font-specification:Arial"
         id="path2905" />
      <path
         d="m 256.94531,56.545532 2.10938,-0.28125 c 0.24218,1.195316 0.65429,2.056644 1.23633,2.583985 0.58202,0.527345 1.29101,0.791017 2.12695,0.791015 0.99218,2e-6 1.83007,-0.343748 2.51367,-1.03125 0.68358,-0.687497 1.02538,-1.539058 1.02539,-2.554687 -10e-6,-0.968744 -0.31641,-1.767572 -0.94922,-2.396485 -0.63282,-0.628898 -1.43751,-0.943351 -2.41406,-0.943359 -0.39844,8e-6 -0.89454,0.07813 -1.48828,0.234375 l 0.23437,-1.851563 c 0.14062,0.01563 0.2539,0.02345 0.33985,0.02344 0.89843,10e-6 1.70702,-0.234365 2.42578,-0.703125 0.71874,-0.468739 1.07811,-1.191394 1.07812,-2.167969 -10e-6,-0.773424 -0.26172,-1.414048 -0.78515,-1.921875 -0.52345,-0.507797 -1.19923,-0.761703 -2.02735,-0.761719 -0.82031,1.6e-5 -1.50391,0.257828 -2.05078,0.773438 -0.54688,0.515639 -0.89844,1.289076 -1.05469,2.320312 l -2.10937,-0.375 c 0.25781,-1.414048 0.84375,-2.50975 1.75781,-3.287109 0.91406,-0.777327 2.05078,-1.165998 3.41016,-1.166016 0.93749,1.8e-5 1.80077,0.201189 2.58984,0.603516 0.78906,0.40236 1.39257,0.951188 1.81055,1.646484 0.41796,0.695327 0.62694,1.433608 0.62695,2.214844 -1e-5,0.7422 -0.19923,1.41798 -0.59765,2.027344 -0.39845,0.609385 -0.98829,1.09376 -1.76954,1.453125 1.01562,0.234384 1.80468,0.720712 2.36719,1.458984 0.56249,0.738289 0.84374,1.662116 0.84375,2.771485 -1e-5,1.500003 -0.54688,2.771486 -1.64062,3.814453 -1.09376,1.042969 -2.47657,1.564453 -4.14844,1.564453 -1.50782,0 -2.75977,-0.449219 -3.75586,-1.347656 -0.99609,-0.898436 -1.56445,-2.062497 -1.70508,-3.492188 z"
         style="font-size:24px;fill:#00c000;font-family:Arial;-inkscape-font-specification:Arial"
         id="path2907" />
      <path
         d="m 272.26172,66.13147 -1.51172,0 c 2.33593,-3.750002 3.5039,-7.503904 3.50391,-11.261719 -1e-5,-1.468742 -0.16798,-2.925772 -0.50391,-4.371094 -0.26563,-1.171863 -0.63672,-2.296862 -1.11328,-3.375 -0.30469,-0.70311 -0.9336,-1.874984 -1.88672,-3.515625 l 1.51172,0 c 1.46874,1.960953 2.55468,3.929701 3.25781,5.90625 0.60156,1.703135 0.90234,3.484383 0.90234,5.34375 0,2.109379 -0.4043,4.14844 -1.21289,6.117188 -0.80859,1.968748 -1.79102,3.687496 -2.94726,5.15625 z"
         style="font-size:24px;fill:#00c000;font-family:Arial;-inkscape-font-specification:Arial"
         id="path2909" />
    </g>
    <g
       style="font-size:40px;font-style:normal;font-weight:normal;fill:#c000be;fill-opacity:1;stroke:none;font-family:ShelleyAllegro BT;-inkscape-font-specification:ShelleyAllegro BT"
       id="text2886">
      <path
         d="m 187.11328,171.38147 c -1.16407,-1.46875 -2.14844,-3.1875 -2.95312,-5.15625 -0.80469,-1.96875 -1.20704,-4.00781 -1.20704,-6.11719 0,-1.85936 0.30078,-3.64061 0.90235,-5.34375 0.70312,-1.97655 1.78906,-3.94529 3.25781,-5.90625 l 1.51172,0 c -0.94532,1.62502 -1.57032,2.78517 -1.875,3.48047 -0.47657,1.07814 -0.85157,2.20314 -1.125,3.375 -0.33594,1.46095 -0.50391,2.9297 -0.50391,4.40625 0,3.75782 1.16797,7.51172 3.50391,11.26172 z"
         style="font-size:24px;fill:#c000be;font-family:Arial;-inkscape-font-specification:Arial"
         id="path2912" />
      <path
         d="m 190.51172,157.85803 c 0,-2.03124 0.20898,-3.666 0.62695,-4.90429 0.41797,-1.23827 1.03906,-2.19335 1.86328,-2.86524 0.82422,-0.67186 1.86133,-1.00779 3.11133,-1.00781 0.92187,2e-5 1.73046,0.18556 2.42578,0.55664 0.69531,0.37111 1.26952,0.90626 1.72266,1.60547 0.45311,0.69923 0.80858,1.55079 1.0664,2.55469 0.25781,1.00391 0.38671,2.35743 0.38672,4.06054 -1e-5,2.01563 -0.20704,3.64259 -0.62109,4.88086 -0.41407,1.23829 -1.03321,2.19532 -1.85742,2.8711 -0.82423,0.67578 -1.86524,1.01367 -3.12305,1.01367 -1.65625,0 -2.95703,-0.59375 -3.90234,-1.78125 -1.13282,-1.42969 -1.69922,-3.75781 -1.69922,-6.98438 z m 2.16797,0 c -1e-5,2.82032 0.33007,4.69727 0.99023,5.63086 0.66015,0.9336 1.47461,1.40039 2.44336,1.40039 0.96874,0 1.7832,-0.46875 2.44336,-1.40625 0.66015,-0.93749 0.99022,-2.81249 0.99023,-5.625 -1e-5,-2.82811 -0.33008,-4.70702 -0.99023,-5.63672 -0.66016,-0.92967 -1.48243,-1.39451 -2.4668,-1.39453 -0.96875,2e-5 -1.74219,0.41017 -2.32031,1.23047 -0.72656,1.04689 -1.08985,2.98048 -1.08984,5.80078 z"
         style="font-size:24px;fill:#c000be;font-family:Arial;-inkscape-font-specification:Arial"
         id="path2914" />
      <path
         d="m 217.18359,157.85803 c 0,-2.03124 0.20899,-3.666 0.62696,-4.90429 0.41796,-1.23827 1.03906,-2.19335 1.86328,-2.86524 0.82421,-0.67186 1.86132,-1.00779 3.11133,-1.00781 0.92186,2e-5 1.73046,0.18556 2.42578,0.55664 0.6953,0.37111 1.26952,0.90626 1.72265,1.60547 0.45312,0.69923 0.80859,1.55079 1.06641,2.55469 0.2578,1.00391 0.38671,2.35743 0.38672,4.06054 -1e-5,2.01563 -0.20704,3.64259 -0.6211,4.88086 -0.41407,1.23829 -1.03321,2.19532 -1.85742,2.8711 -0.82422,0.67578 -1.86524,1.01367 -3.12304,1.01367 -1.65626,0 -2.95704,-0.59375 -3.90235,-1.78125 -1.13281,-1.42969 -1.69922,-3.75781 -1.69922,-6.98438 z m 2.16797,0 c 0,2.82032 0.33008,4.69727 0.99024,5.63086 0.66015,0.9336 1.4746,1.40039 2.44336,1.40039 0.96874,0 1.78319,-0.46875 2.44336,-1.40625 0.66014,-0.93749 0.99022,-2.81249 0.99023,-5.625 -1e-5,-2.82811 -0.33009,-4.70702 -0.99023,-5.63672 -0.66017,-0.92967 -1.48243,-1.39451 -2.4668,-1.39453 -0.96876,2e-5 -1.74219,0.41017 -2.32031,1.23047 -0.72657,1.04689 -1.08985,2.98048 -1.08985,5.80078 z"
         style="font-size:24px;fill:#c000be;font-family:Arial;-inkscape-font-specification:Arial"
         id="path2916" />
      <path
         d="m 232.51172,171.38147 -1.51172,0 c 2.33593,-3.75 3.5039,-7.5039 3.50391,-11.26172 -1e-5,-1.46874 -0.16798,-2.92577 -0.50391,-4.37109 -0.26563,-1.17187 -0.63672,-2.29686 -1.11328,-3.375 -0.30469,-0.70311 -0.9336,-1.87499 -1.88672,-3.51563 l 1.51172,0 c 1.46874,1.96096 2.55468,3.9297 3.25781,5.90625 0.60156,1.70314 0.90234,3.48439 0.90234,5.34375 0,2.10938 -0.4043,4.14844 -1.21289,6.11719 -0.80859,1.96875 -1.79102,3.6875 -2.94726,5.15625 z"
         style="font-size:24px;fill:#c000be;font-family:Arial;-inkscape-font-specification:Arial"
         id="path2918" />
    </g>
    <text
       xml:space="preserve"
       style="font-size:40px;font-style:normal;font-weight:normal;fill:#000000;fill-opacity:1;stroke:none;font-family:ShelleyAllegro BT;-inkscape-font-specification:ShelleyAllegro BT"
       x="39.375"
       y="95.330688"
       id="text2890"><tspan
         sodipodi:role="line"
         id="tspan2892"></tspan></text>
    <g
       style="font-size:40px;font-style:normal;font-weight:normal;fill:#ff0000;fill-opacity:1;stroke:none;font-family:ShelleyAllegro BT;-inkscape-font-specification:ShelleyAllegro BT"
       id="text2894">
      <path
         d="m 35.863281,138.38147 c -1.164067,-1.46875 -2.148441,-3.1875 -2.953125,-5.15625 -0.804689,-1.96875 -1.207032,-4.00781 -1.207031,-6.11719 -1e-6,-1.85936 0.300779,-3.64061 0.902344,-5.34375 0.703122,-1.97655 1.789058,-3.94529 3.257812,-5.90625 l 1.511719,0 c -0.945319,1.62502 -1.570318,2.78517 -1.875,3.48047 -0.476567,1.07814 -0.851567,2.20314 -1.125,3.375 -0.335941,1.46095 -0.50391,2.9297 -0.503906,4.40625 -4e-6,3.75782 1.167964,7.51172 3.503906,11.26172 z"
         style="font-size:24px;fill:#ff0000;font-family:Arial;-inkscape-font-specification:Arial"
         id="path2921" />
      <path
         d="m 39.601562,125.84241 0,-1.96875 11.34375,0 0,1.96875 -11.34375,0 z"
         style="font-size:24px;fill:#ff0000;font-family:Arial;-inkscape-font-specification:Arial"
         id="path2923"
         sodipodi:nodetypes="ccccc" />
      <path
         d="m 53.289062,128.79553 2.109375,-0.28125 c 0.242185,1.19532 0.654294,2.05665 1.236329,2.58399 0.582026,0.52734 1.29101,0.79101 2.126953,0.79101 0.99218,0 1.83007,-0.34375 2.513672,-1.03125 0.683584,-0.68749 1.02538,-1.53906 1.02539,-2.55469 -1e-5,-0.96874 -0.316416,-1.76757 -0.949219,-2.39648 -0.63282,-0.6289 -1.437507,-0.94335 -2.414062,-0.94336 -0.398444,1e-5 -0.894537,0.0781 -1.488281,0.23438 l 0.234375,-1.85157 c 0.140619,0.0156 0.2539,0.0234 0.339843,0.0234 0.898431,1e-5 1.707024,-0.23436 2.425782,-0.70312 0.718741,-0.46874 1.078116,-1.1914 1.078125,-2.16797 -9e-6,-0.77343 -0.261728,-1.41405 -0.785157,-1.92188 -0.523445,-0.5078 -1.199226,-0.7617 -2.027343,-0.76172 -0.820318,2e-5 -1.503911,0.25783 -2.050782,0.77344 -0.546878,0.51564 -0.89844,1.28908 -1.054687,2.32031 L 53.5,120.53381 c 0.257811,-1.41404 0.843748,-2.50975 1.757812,-3.28711 0.914059,-0.77732 2.050777,-1.16599 3.410157,-1.16601 0.937492,2e-5 1.800773,0.20119 2.589843,0.60351 0.789053,0.40236 1.392568,0.95119 1.810547,1.64649 0.417958,0.69533 0.626942,1.43361 0.626953,2.21484 -1.1e-5,0.7422 -0.199229,1.41798 -0.597656,2.02735 -0.398448,0.60938 -0.988291,1.09376 -1.769531,1.45312 1.015615,0.23439 1.804677,0.72071 2.367187,1.45899 0.562489,0.73828 0.843738,1.66211 0.84375,2.77148 -1.2e-5,1.5 -0.546886,2.77149 -1.640625,3.81445 -1.093759,1.04297 -2.47657,1.56446 -4.148437,1.56446 -1.507817,0 -2.759769,-0.44922 -3.755859,-1.34766 -0.996096,-0.89844 -1.564455,-2.0625 -1.705079,-3.49219 z"
         style="font-size:24px;fill:#ff0000;font-family:Arial;-inkscape-font-specification:Arial"
         id="path2925" />
      <path
         d="m 87.894531,133.33069 -2.109375,0 0,-13.44141 c -0.507819,0.48439 -1.173834,0.96876 -1.998047,1.45313 -0.824222,0.48438 -1.564456,0.84766 -2.220703,1.08984 l 0,-2.03906 c 1.179684,-0.55468 2.210933,-1.22655 3.09375,-2.01563 0.882806,-0.78904 1.507806,-1.55467 1.875,-2.29687 l 1.359375,0 z"
         style="font-size:24px;fill:#ff0000;font-family:Arial;-inkscape-font-specification:Arial"
         id="path2927" />
      <path
         d="m 95.277344,138.38147 -1.511719,0 c 2.335934,-3.75 3.503901,-7.5039 3.503906,-11.26172 -5e-6,-1.46874 -0.167973,-2.92577 -0.503906,-4.37109 -0.265629,-1.17187 -0.636723,-2.29686 -1.113281,-3.375 -0.304691,-0.70311 -0.933596,-1.87499 -1.886719,-3.51563 l 1.511719,0 c 1.468745,1.96096 2.554682,3.9297 3.257812,5.90625 0.601556,1.70314 0.902337,3.48439 0.902344,5.34375 -7e-6,2.10938 -0.404304,4.14844 -1.212891,6.11719 -0.808598,1.96875 -1.791019,3.6875 -2.947265,5.15625 z"
         style="font-size:24px;fill:#ff0000;font-family:Arial;-inkscape-font-specification:Arial"
         id="path2929" />
    </g>
    <g
       style="font-size:40px;font-style:normal;font-weight:normal;fill:#0000ff;fill-opacity:1;stroke:none;font-family:ShelleyAllegro BT;-inkscape-font-specification:ShelleyAllegro BT"
       id="text2898">
      <path
         d="m 41.873688,297.83405 c -1.164067,-1.46876 -2.148441,-3.18751 -2.953125,-5.15625 -0.80469,-1.96875 -1.207033,-4.00781 -1.207032,-6.11719 -1e-6,-1.85937 0.30078,-3.64062 0.902344,-5.34375 0.703122,-1.97655 1.789059,-3.9453 3.257813,-5.90625 l 1.511718,0 c -0.945318,1.62501 -1.570318,2.78517 -1.875,3.48047 -0.476567,1.07813 -0.851566,2.20313 -1.125,3.375 -0.335941,1.46094 -0.503909,2.92969 -0.503906,4.40625 -3e-6,3.75781 1.167964,7.51171 3.503906,11.26172 z"
         style="font-size:24px;fill:#0000ff;font-family:Arial;-inkscape-font-specification:Arial"
         id="path2932" />
      <path
         d="m 45.611969,285.29498 0,-1.96875 11.34375,0 0,1.96875 -11.34375,0 z"
         style="font-size:24px;fill:#0000ff;font-family:Arial;-inkscape-font-specification:Arial"
         id="path2934"
         sodipodi:nodetypes="ccccc" />
      <path
         d="m 67.233063,292.78326 -2.109375,0 0,-13.4414 c -0.507819,0.48439 -1.173834,0.96876 -1.998047,1.45312 -0.824223,0.48439 -1.564457,0.84767 -2.220703,1.08985 l 0,-2.03907 c 1.179683,-0.55467 2.210932,-1.22654 3.09375,-2.01562 0.882806,-0.78905 1.507805,-1.55467 1.875,-2.29688 l 1.359375,0 z"
         style="font-size:24px;fill:#0000ff;font-family:Arial;-inkscape-font-specification:Arial"
         id="path2936" />
      <path
         d="m 73.783844,292.78326 0,-2.40234 2.402344,0 0,2.40234 c -5e-6,0.88282 -0.156255,1.59571 -0.46875,2.13868 -0.312504,0.54296 -0.808597,0.96288 -1.488282,1.25976 l -0.585937,-0.90234 c 0.44531,-0.19532 0.773435,-0.48243 0.984375,-0.86133 0.210934,-0.37891 0.328122,-0.92383 0.351562,-1.63477 z"
         style="font-size:24px;fill:#0000ff;font-family:Arial;-inkscape-font-specification:Arial"
         id="path2938" />
      <path
         d="m 79.303375,288.28326 2.214844,-0.1875 c 0.164059,1.07813 0.544918,1.88868 1.142578,2.43164 0.597651,0.54298 1.318354,0.81446 2.162109,0.81446 1.015618,0 1.874992,-0.38281 2.578125,-1.14844 0.703116,-0.76562 1.054678,-1.78125 1.054688,-3.04687 -1e-5,-1.20312 -0.3379,-2.15234 -1.013672,-2.84766 -0.67579,-0.6953 -1.560554,-1.04296 -2.654297,-1.04297 -0.679693,10e-6 -1.292974,0.15431 -1.839844,0.46289 -0.546879,0.3086 -0.976566,0.70899 -1.289062,1.20117 l -1.980469,-0.25781 1.664063,-8.82422 8.542968,0 0,2.01563 -6.855468,0 -0.925782,4.61718 c 1.031246,-0.71873 2.113276,-1.07811 3.246094,-1.07812 1.499992,1e-5 2.765615,0.51954 3.796875,1.55859 1.031238,1.03907 1.546863,2.37501 1.546875,4.00782 -1.2e-5,1.55469 -0.453137,2.89844 -1.359375,4.03125 -1.101572,1.39062 -2.605477,2.08593 -4.511719,2.08593 -1.562504,0 -2.837894,-0.4375 -3.826171,-1.3125 -0.988283,-0.875 -1.552736,-2.03515 -1.69336,-3.48047 z"
         style="font-size:24px;fill:#0000ff;font-family:Arial;-inkscape-font-specification:Arial"
         id="path2940" />
      <path
         d="m 106.31509,285.29498 0,-1.96875 11.34375,0 0,1.96875 -11.34375,0 z"
         style="font-size:24px;fill:#0000ff;font-family:Arial;-inkscape-font-specification:Arial"
         id="path2942"
         sodipodi:nodetypes="ccccc" />
      <path
         d="m 131.07681,290.75592 0,2.02734 -11.35547,0 c -0.0156,-0.50781 0.0664,-0.99609 0.2461,-1.46484 0.28906,-0.77343 0.75195,-1.53515 1.38867,-2.28516 0.63672,-0.74999 1.55664,-1.61718 2.75977,-2.60156 1.86718,-1.53124 3.12889,-2.74413 3.78515,-3.63867 0.65624,-0.89452 0.98437,-1.74022 0.98438,-2.53711 -1e-5,-0.83592 -0.29884,-1.541 -0.89649,-2.11523 -0.59766,-0.57421 -1.37696,-0.86132 -2.33789,-0.86133 -1.01563,10e-6 -1.82813,0.3047 -2.4375,0.91406 -0.60938,0.60939 -0.91797,1.45314 -0.92578,2.53125 l -2.16797,-0.22266 c 0.14844,-1.61717 0.70703,-2.84959 1.67578,-3.69726 0.96875,-0.84764 2.26953,-1.27147 3.90235,-1.27149 1.64843,2e-5 2.95311,0.45705 3.91406,1.3711 0.96092,0.91408 1.44139,2.04689 1.44141,3.39844 -2e-5,0.68751 -0.14064,1.36329 -0.42188,2.02734 -0.28126,0.66407 -0.74806,1.36329 -1.40039,2.09766 -0.65235,0.73438 -1.73634,1.74219 -3.25195,3.02343 -1.26563,1.06251 -2.07813,1.78321 -2.4375,2.16211 -0.35938,0.37891 -0.65626,0.75977 -0.89063,1.14258 z"
         style="font-size:24px;fill:#0000ff;font-family:Arial;-inkscape-font-specification:Arial"
         id="path2944" />
      <path
         d="m 134.48697,292.78326 0,-2.40234 2.40234,0 0,2.40234 c 0,0.88282 -0.15625,1.59571 -0.46875,2.13868 -0.3125,0.54296 -0.80859,0.96288 -1.48828,1.25976 l -0.58594,-0.90234 c 0.44531,-0.19532 0.77344,-0.48243 0.98438,-0.86133 0.21093,-0.37891 0.32812,-0.92383 0.35156,-1.63477 z"
         style="font-size:24px;fill:#0000ff;font-family:Arial;-inkscape-font-specification:Arial"
         id="path2946" />
      <path
         d="m 140.0065,288.28326 2.21484,-0.1875 c 0.16406,1.07813 0.54492,1.88868 1.14258,2.43164 0.59765,0.54298 1.31836,0.81446 2.16211,0.81446 1.01562,0 1.87499,-0.38281 2.57813,-1.14844 0.70311,-0.76562 1.05467,-1.78125 1.05468,-3.04687 -1e-5,-1.20312 -0.3379,-2.15234 -1.01367,-2.84766 -0.67579,-0.6953 -1.56055,-1.04296 -2.65429,-1.04297 -0.6797,10e-6 -1.29298,0.15431 -1.83985,0.46289 -0.54688,0.3086 -0.97656,0.70899 -1.28906,1.20117 l -1.98047,-0.25781 1.66406,-8.82422 8.54297,0 0,2.01563 -6.85547,0 -0.92578,4.61718 c 1.03125,-0.71873 2.11328,-1.07811 3.2461,-1.07812 1.49999,1e-5 2.76561,0.51954 3.79687,1.55859 1.03124,1.03907 1.54686,2.37501 1.54688,4.00782 -2e-5,1.55469 -0.45314,2.89844 -1.35938,4.03125 -1.10157,1.39062 -2.60548,2.08593 -4.51172,2.08593 -1.5625,0 -2.83789,-0.4375 -3.82617,-1.3125 -0.98828,-0.875 -1.55274,-2.03515 -1.69336,-3.48047 z"
         style="font-size:24px;fill:#0000ff;font-family:Arial;-inkscape-font-specification:Arial"
         id="path2948" />
      <path
         d="m 155.33463,297.83405 -1.51172,0 c 2.33593,-3.75001 3.5039,-7.50391 3.5039,-11.26172 0,-1.46875 -0.16797,-2.92578 -0.5039,-4.3711 -0.26563,-1.17186 -0.63673,-2.29686 -1.11328,-3.375 -0.3047,-0.70311 -0.9336,-1.87498 -1.88672,-3.51562 l 1.51172,0 c 1.46874,1.96095 2.55468,3.9297 3.25781,5.90625 0.60155,1.70313 0.90233,3.48438 0.90234,5.34375 -1e-5,2.10938 -0.4043,4.14844 -1.21289,6.11719 -0.8086,1.96874 -1.79102,3.68749 -2.94726,5.15625 z"
         style="font-size:24px;fill:#0000ff;font-family:Arial;-inkscape-font-specification:Arial"
         id="path2950" />
    </g>
  </g>
</svg>
