<?xml version="1.0" encoding="utf-8"?>
<!-- Designed by Vexels.com - 2019 All Rights Reserved - https://vexels.com/terms-and-conditions/  -->
<svg version="1.1" id="Capa_1" xmlns="http://www.w3.org/2000/svg" xmlns:xlink="http://www.w3.org/1999/xlink" x="0px" y="0px"
	 viewBox="0 0 1200 1200" enable-background="new 0 0 1200 1200" xml:space="preserve">
<g>
	<path fill="#3A2644" d="M571.188,273.364c-172.47,7.633-226.109-69.552-329.721-37.157
		C150.965,264.502,100.82,351.863,87.193,378.08c-67.541,129.951-33.141,287.836,24.2,385.085
		c68.34,115.904,173.963,153.642,245.022,179.031C503.171,994.63,623.65,969.25,816.21,928.684
		c159.627-33.628,240.339-51.73,284.347-114.85c81.321-116.64,57.53-321.985-36.3-439.132
		C955.455,238.862,774.412,249,701.262,253.096C633.407,256.896,642.795,270.195,571.188,273.364z"/>
	<path fill="#442B4F" d="M1064.257,374.702C955.455,238.862,774.412,249,701.262,253.096c-67.855,3.8-58.466,17.099-130.074,20.268
		c-172.47,7.633-226.109-69.552-329.721-37.157C150.965,264.502,100.82,351.863,87.193,378.08
		c-67.541,129.951-33.14,287.836,24.2,385.085c68.34,115.904,173.963,153.642,245.022,179.031
		C503.171,994.63,623.65,969.25,816.21,928.684c159.628-33.627,240.339-51.729,284.347-114.85
		C1181.878,697.194,1158.087,491.849,1064.257,374.702z M858.763,616.523c-16.961,77.775-214.072,118.881-364.189,72.181
		c-43.569-13.554-120.641-46.158-118.115-78.743c2.309-29.79,70.181-47.105,78.743-49.215c54.655-13.463,80.691,3.138,134.52,6.562
		c123.392,7.849,174.2-67.45,229.669-32.81C845.395,550.737,865.273,586.672,858.763,616.523z"/>
	<path fill="#573263" d="M1064.257,374.702C955.455,238.862,774.412,249,701.261,253.096c-67.855,3.8-58.466,17.099-130.073,20.268
		c-172.47,7.633-226.109-69.552-329.721-37.157C150.965,264.502,100.82,351.863,87.194,378.08
		c-67.541,129.951-33.141,287.836,24.2,385.085c68.34,115.904,173.963,153.642,245.022,179.031
		C503.171,994.63,623.65,969.25,816.21,928.684c159.628-33.627,240.339-51.729,284.347-114.85
		C1181.878,697.194,1158.087,491.849,1064.257,374.702z M980.16,672.3c-28.758,80.401-119.785,105.749-223.107,134.52
		c-106.578,29.678-260.01,72.403-393.717-13.124c-80.085-51.227-167.135-157.447-147.644-262.478
		c7.55-40.684,34.189-97.911,82.024-114.834c40.85-14.452,69.663,10.215,157.487,32.81c0,0,68.888,17.723,154.206,22.967
		c167.49,10.295,212.722-61.533,285.445-26.248C966.226,480.541,1009.017,591.623,980.16,672.3z"/>
	<g>
		<path fill="#FFFFFF" d="M328.27,551.814c0.667-1.18,1.121-2.448,1.457-3.758c0.445-1.738,0.682-3.55,0.931-5.33
			c2.578-18.422,7.484-36.516,14.565-53.717c3.126,17.505,6.252,35.01,9.378,52.514c0.977,5.472,1.96,10.967,3.708,16.244
			c1.005,3.034,2.658,6.35,5.75,7.157c3.009,0.785,6.168-1.312,7.643-4.05c1.475-2.737,1.666-5.96,1.833-9.065
			c1.77-32.876,4.848-67.119,22.064-95.184c2.805-4.572,6.018-9.062,7.226-14.287c0.602-2.604,0.592-5.597-1.12-7.65
			c-2.182-2.617-6.404-2.638-9.357-0.94c-2.954,1.698-4.915,4.672-6.677,7.588c-11.06,18.304-18.663,38.689-22.291,59.765
			c-2.231-11.374-4.461-22.748-6.692-34.122c-0.64-3.263-1.328-6.639-3.273-9.336c-1.945-2.697-5.524-4.519-8.65-3.386
			c-2.982,1.08-4.519,4.298-5.737,7.226c-3.384,8.136-6.621,16.333-9.71,24.585c1.498-23.541-0.654-48.559-13.98-68.024
			c-8.164-11.926-21.497-21.469-35.931-20.729c-9.462,0.486-18.582,5.577-23.96,13.377c-7.242,10.503-7.518,25.566,0.664,35.547
			c7.526,9.182,20.141,14.3,31.911,12.042c2.003-0.384,4.023-0.982,5.636-2.23c4.173-3.231,3.709-10.728-0.829-13.421
			c-4.355-2.584-9.951-0.666-14.932-1.573c-4.944-0.901-9.186-4.89-10.388-9.77c-1.202-4.88,0.702-10.383,4.662-13.477
			c3.717-2.904,8.865-3.596,13.447-2.478c4.582,1.118,8.633,3.882,11.953,7.232c6.759,6.821,10.695,16.032,12.682,25.427
			c1.988,9.395,2.166,19.066,2.336,28.667c0.393,22.127,0.786,44.253,1.179,66.38c0.048,2.702,0.108,5.469,1.078,7.991
			s3.05,4.793,5.72,5.212C323.681,556.73,326.718,554.558,328.27,551.814z"/>
		<path fill="#FFFFFF" d="M381.871,524.222c0.225,7.674,2.154,15.505,6.798,21.619c7.024,9.247,19.688,13.269,31.139,11.345
			c8.76-1.472,16.738-6.067,23.134-12.294c2.101,7.75,5.726,14.809,11.836,19.97c2.862,2.417,6.377,4.359,10.122,4.286
			c3.745-0.074,7.599-2.707,8.049-6.426c0.785-6.483-7.524-9.616-11.946-14.421c-4.438-4.823-4.994-11.965-5.108-18.518
			c-0.279-15.937,0.41-32.165,2.873-47.933c2.045-13.094,8.162-26.337,6.856-39.776c-0.341-3.513-2.171-7.106-5.399-8.528
			c-4.481-1.974-7.544,1.054-9.68,6.1c-3.933,9.292-4.721,25.425-5.428,29.758c-2.843,17.441-4.904,35.061-4.819,52.756
			c0.003,0.595,0.017,1.196,0.027,1.795c-3.798,2.561-6.541,7.686-9.111,10.602c-7.473,8.479-22.165,10.052-30.213,2.117
			c-1.279-1.261-2.438-3.082-1.793-4.753c0.398-1.007,1.325-1.657,2.195-2.26c11.231-7.783,21.129-17.485,29.135-28.558
			c2.405-3.326,4.714-6.985,4.965-11.082c0.521-8.495-8.514-15.182-17.024-15.069C394.473,475.27,381.264,503.48,381.871,524.222z
			 M406.62,496.863c3.785-4.214,7.871-6.236,12.258-6.064c-1.289,2.237-3.355,4.947-6.192,8.129
			c-3.787,4.216-8.433,8.603-13.938,13.163C400.47,505.981,403.092,500.907,406.62,496.863z"/>
		<path fill="#FFFFFF" d="M640.167,553.74c5.879-17.538,13.308-35.016,25.787-48.67c-3.23,13.716-5.424,27.676-6.555,41.722
			c-0.874,10.844-0.645,23.037,6.927,30.85c8.805,9.085,26.182,6.993,32.579-3.922c2.197-3.748,3.105-8.622,0.97-12.406
			c-2.135-3.784-8.004-5.337-11.001-2.191c-2.346,2.463-2.392,6.836-5.362,8.493c-2.348,1.31-5.478,0.056-7.066-2.114
			c-1.588-2.17-1.978-4.975-2.136-7.659c-0.949-16.115,4.64-31.847,6.347-47.899c0.81-7.617-0.032-16.782-6.645-20.649
			c-5.685-3.324-13.214-0.932-18.164,3.411c-4.95,4.343-8.147,10.289-12.153,15.515c1.997-7.091-2.189-15.364-9.086-17.954
			c-6.897-2.59-15.494,0.883-18.657,7.536c0.714-4.802,1.016-10.207-2.033-13.985c-6.08-7.531-9.887-1.821-12.159,4.897
			c-0.197,0.582-0.38,1.171-0.555,1.76c-1.068,0.342-2.108,0.786-3.065,1.298c-3.457,1.849-6.798,4.375-10.714,4.564
			c-1.745-8.839-4.83-18.942-13.233-22.192c-4.979-1.926-10.637-0.82-15.595,1.159c-14.825,5.919-24.431,19.036-28.752,33.913
			c-2.236,2.146-3.791,4.95-5.494,7.568c-6.585,10.131-22.172,28.175-36.045,21.663c-7.79-3.657-8.576-14.73-5.517-22.772
			c2.991-7.862,8.552-14.723,15.625-19.276c-0.314,3.143,0.563,6.492,2.774,8.748c6.079,6.202,10.725,1.388,11.895-5.531
			c0.959-5.671-0.417-12.757-5.253-16.351c-5.012-3.726-12.25-3.09-17.736-0.105c-12.957,7.047-22.439,23.524-24.418,37.793
			c-1.261,9.09,0.856,18.98,7.198,25.613c9.231,9.655,25.205,10.029,37.229,4.21c6.796-3.289,12.579-8.14,17.747-13.682
			c0.795,5.522,2.442,11.086,6.114,15.263c8.586,9.768,25.33,7.92,35.102-0.662c9.772-8.582,14.103-21.692,17.176-34.33
			c0.32-1.318,0.926-2.413,1.743-3.346c2.005-2.288,5.29-3.592,8.779-4.789c-2.596,9.775-5.682,20.234-5.682,29.496
			c-1.163,5.679-1.156,13.475,4.404,15.116c2.992,0.883,6.251-0.796,8.212-3.222c1.96-2.426,2.924-5.481,3.973-8.418
			c4.572-12.813,11.514-24.775,20.37-35.103c0.156,13.344-1.246,26.706-4.167,39.727c-0.792,3.532-1.701,7.163-1.072,10.728
			c0.629,3.564,3.287,7.065,6.894,7.367C635.209,565.385,638.409,558.984,640.167,553.74z M570.628,516.477
			c-1.893,8.431-4.861,15.183-8.903,20.259c-3.871,4.903-8.13,7.27-12.774,7.097c-2.066-0.084-3.7-1.72-4.905-4.903
			c-1.721-4.817-1.978-10.84-0.773-18.066c1.462-9.549,4.646-17.247,9.549-23.098c0.343,1.548,0.859,3.054,1.548,4.516
			c3.01,6.883,8.559,10.925,16.645,12.129C570.842,515.102,570.712,515.789,570.628,516.477z M568.435,495.959
			c-0.948-2.064-0.903-4.214,0.129-6.451c0.084-0.171,0.171-0.343,0.257-0.516c1.118,1.119,1.978,3.226,2.582,6.323
			c0.171,1.032,0.343,2.193,0.516,3.483C570.196,498.282,569.035,497.337,568.435,495.959z"/>
		<path fill="#FFFFFF" d="M724.918,556.939c11.053-2.237,20.737-9.416,27.384-18.526c3.918-5.37,5.965-16.964-4.059-16.143
			c-5.868,0.481-9.683,8.145-13.082,12.057c-7.751,8.919-23.556,10.371-31.182,1.345c-0.841-0.995-1.608-2.283-1.243-3.533
			c0.016-0.053,0.033-0.106,0.052-0.157c0.339-0.912,1.212-1.529,2.025-2.086c10.94-7.494,20.61-16.836,28.478-27.511
			c3.748-5.086,7.237-11.382,5.412-17.43c-2.342-7.761-12.215-10.589-20.213-9.271c-21.715,3.579-32.729,27.046-33.002,47.155
			c-0.121,8.931,2.474,18.141,8.467,24.764C701.521,555.965,713.864,559.176,724.918,556.939z M710.375,496.863
			c3.785-4.214,7.871-6.236,12.258-6.064c-1.289,2.237-3.355,4.947-6.192,8.129c-3.787,4.216-8.433,8.603-13.938,13.163
			C704.225,505.981,706.847,500.907,710.375,496.863z"/>
		<path fill="#FFFFFF" d="M790.079,504.382c0.044,0.023,0.089,0.047,0.133,0.07c3.629,1.858,7.942,1.545,12.004,1.187
			c-1.427,12.476-2.854,25.086-1.378,37.556c1.505,12.711,9.212,38.364,25.688,38.856c3.981,0.118,8.223-2.862,8.235-6.841
			c0.017-5.393-7.274-9.481-10.171-13.442c-3.566-4.875-5.911-10.451-7.291-16.312c-2.631-11.179-1.603-23.382-0.371-34.361
			c0.463-4.127,1.195-8.741,4.543-11.199c4.914-3.609,13.455-0.986,16.692-6.153c2.428-3.875-0.78-9.281-5.088-10.813
			s-9.056-0.388-13.48,0.767c0.724-0.189,4.081-17.92,4.489-19.842c1.073-5.049,3.394-13.534-1.162-17.621
			c-14.178-12.695-17.918,32.386-18.77,37.705c-0.273,1.704-0.601,3.522-1.8,4.762c-2.09,2.161-5.596,1.546-8.595,1.342
			C785.227,489.465,782.807,500.511,790.079,504.382z"/>
		<path fill="#FFFFFF" d="M379.706,637.846c-4.361-1.761-9.312-0.651-13.805,0.74c1.638-7.94,3.276-15.881,4.914-23.821
			c0.812-3.938,1.573-8.267-0.359-11.794c-4.726-8.626-11.685-1.189-13.69,4.099c-3.272,8.629-4.762,18.335-5.329,27.504
			c-0.235,3.798-0.721,8.354-4.131,10.043c-3.312,1.64-7.435-0.55-10.937,0.631c-4.731,1.595-5.292,8.865-1.772,12.405
			c0.589,0.593,1.24,1.096,1.936,1.517c3.465,2.095,8.086,2.166,12.124,1.181c-1.432,12.42-2.864,24.97-1.439,37.391
			c1.425,12.42,5.988,24.884,14.966,33.584c2.891,2.801,6.444,5.264,10.463,5.488c4.019,0.224,8.39-2.559,8.688-6.573
			c0.416-5.597-6.117-8.645-10.29-12.399c-12.948-11.648-8.423-37.06-7.92-51.956c0.132-3.917,0.494-8.329,3.505-10.838
			c4.877-4.064,13.849-0.704,17.594-5.83C386.999,645.419,384.067,639.606,379.706,637.846z"/>
		<path fill="#FFFFFF" d="M464.792,684.312c10.334-7.232,19.546-16.063,27.207-26.083c4.496-5.88,8.593-13.712,5.314-20.348
			c-2.394-4.844-8.073-7.236-13.458-7.681c-25.851-2.133-40.375,28.943-38.721,50.864c0.545,7.231,2.65,14.519,7.153,20.203
			c7.113,8.978,19.639,12.729,30.916,10.723c11.277-2.006,21.216-9.166,28.177-18.262c3.47-4.535,5.921-11.85,1.354-15.277
			c-3.142-2.358-7.816-1.032-10.77,1.557c-2.954,2.589-4.829,6.175-7.405,9.14c-7.714,8.878-23.37,10.41-31.099,1.545
			c-0.737-0.846-1.427-1.865-1.355-2.985c0.021-0.323,0.1-0.624,0.225-0.908C462.783,685.771,463.83,684.984,464.792,684.312z
			 M461.875,666.935c1.719-6.108,4.343-11.183,7.871-15.227c3.784-4.214,7.871-6.236,12.258-6.064
			c-1.291,2.237-3.355,4.947-6.194,8.129C472.023,657.988,467.379,662.375,461.875,666.935z"/>
		<path fill="#FFFFFF" d="M585.818,706.025c-7.267-5.953-8.153-16.587-8.08-25.981c0.192-24.857,3.094-49.693,8.637-73.925
			c1.08-4.721,2.199-9.944-0.14-14.184c-3.598-6.524-10.736-3.609-13.247,1.337c-0.192,0.379-0.376,0.769-0.551,1.171
			c-3.469,7.944-3.735,20.141-5.154,28.438c-3.428,20.04-5.722,40.394-4.555,60.748c0.765,13.344,3.705,27.86,14.097,36.265
			c3.202,2.589,7.286,4.502,11.353,3.86c4.068-0.641,7.722-4.601,6.887-8.634C594.167,710.777,589.248,708.835,585.818,706.025z"/>
		<path fill="#FFFFFF" d="M615.897,624.486c-6.823-2.746-16.201,5.114-12.373,12.284c1.375,2.576,4.338,4.214,7.251,4.008
			c1.221-0.086,2.395-0.464,3.51-0.984c0.561-0.261,1.106-0.559,1.636-0.873c1.525-0.904,2.998-1.998,3.929-3.507
			C622.167,631.661,619.988,626.133,615.897,624.486z"/>
		<path fill="#FFFFFF" d="M613.065,649.939c-6.037-5.919-9.769-1.599-12.041,4.466c-1.928,5.149-2.805,11.555-3.146,14.024
			c-1.753,12.691-1.756,25.625,0.022,38.314c0.517,3.689,1.389,7.714,4.353,9.97c4.048,3.082,10.964,0.472,11.966-4.516
			c0.418-2.081-0.054-4.224-0.459-6.308c-2.613-13.463-2.401-27.468,0.619-40.846C615.547,659.874,616.848,653.648,613.065,649.939z
			"/>
		<path fill="#FFFFFF" d="M683.383,651.824c-4.445-7.167-12.457-11.536-20.863-11.572c-4.023-0.017-18.816,3.138-19.003,8.586
			c0.282-8.187,1.169-16.528,3.084-24.505c1.534-6.389,5.347-14.06,2.141-20.532c-3.788-7.636-10.702-3.196-13.38,1.855
			c-0.236,0.445-0.439,0.895-0.604,1.342c-3.468,9.382-4.714,20.396-5.974,30.27c-2.611,20.454-2.451,41.264,0.533,61.669
			c0.345,2.362,0.757,4.796,2.058,6.797c1.595,2.455,4.336,3.941,7.124,4.836c7.665,2.461,16.252,1.054,23.342-2.761
			C679.246,698.442,694.923,670.431,683.383,651.824z M649.987,695.907c-2.06,0.584-3.531,0.215-4.552-0.794
			c-4.229-4.181-0.733-19.357,0.604-23.381c2.643-7.958,8.403-17.688,18.23-15.994C686.343,659.549,661.229,692.722,649.987,695.907
			z"/>
		<path fill="#FFFFFF" d="M745.39,630.815c-3.645-4.052-10.114-3.689-15.313-2.051c-8.735,2.751-16.593,8.221-22.206,15.458
			c-0.035-4.467-0.345-9.342-3.334-12.661c-7.642-7.642-10.582-0.952-11.754,6.646c-0.749,4.852-0.777,10.075-0.848,12.17
			c-0.51,14.93-1.019,29.861-1.529,44.791c-0.128,3.746-0.225,7.652,1.346,11.055c1.572,3.403,5.363,6.097,8.983,5.125
			c8.915-2.392,6.041-20.589,6.985-27.412c1.441-10.417,4.647-20.441,11.309-28.742c3.742-4.663,8.089-9.132,14.048-10.333
			c5.064-1.02,10.696,1.226,13.594-4.572C748.185,637.261,747.653,633.332,745.39,630.815z"/>
		<path fill="#FFFFFF" d="M736.757,687.026c0.828,9.309,4.885,19.383,13.516,22.965c5.899,2.448,12.802,1.284,18.499-1.605
			c5.696-2.889,10.425-7.336,15.068-11.721c-1.584,1.496,9.026,5.765,9.972,5.899c3.992,0.567,7.585-0.519,11.164-2.157
			c0.976-0.447,1.974-0.97,2.969-1.551c0.015,2.479,0.244,4.946,1.2,7.213c2.509,5.953,8.898,7.247,12.859,2.126
			c2.515-3.252,2.291-8.883,2.197-12.551c-0.362-14.1,3.31-29,12.184-40.195c3.748-4.728,8.065-9.207,14.064-10.473
			c5.07-1.07,10.841,1.121,13.755-4.654c1.532-3.035,1.005-6.987-1.27-9.514c-3.661-4.067-10.16-3.683-15.375-2.024
			c-8.709,2.771-16.542,8.227-22.16,15.436c0.117-4.669-0.382-9.838-3.76-13.063c-7.288-6.957-10.183-0.543-11.357,7.048
			c-0.863,5.58-0.796,11.797-0.862,13.804c-0.248,7.634-0.496,15.268-0.744,22.902c-4.08,3.186-7.223,15.515-13.532,11.146
			c-4.765-3.309,1.259-14.064,2.294-18.307c0.809-3.318,1.595-7.101,1.744-10.848c0.006-0.162,0.003-0.323,0.007-0.485
			c0.883-4.861,1.767-9.722,2.65-14.583c0.83-4.568-1.249-9.278-6.011-10.586c-4.166-1.145-9.728,1.405-10.58,5.984
			c-1.819-0.947-3.678-1.805-5.635-2.41C751.021,625.983,734.785,664.839,736.757,687.026z M775.753,649.992
			c2.013,1.865,1.303,5.126,0.654,7.793c-1.957,8.043,0.431,15.282-1.547,22.441c-0.603,2.184-1.613,4.361-3.277,6.551
			c-4.08,5.371-13.797,13.072-17.757,3.285c-2.864-7.081-1.249-18.518,1.476-25.291
			C757.386,659.595,768.143,642.943,775.753,649.992z"/>
		<path fill="#FFFFFF" d="M933.952,441.263c-9.342-6.012-17.981,8.88-8.687,14.862c10.184,6.555,9.43,19.186,0.178,26.176
			c-9.682,7.314-20.352,10.71-32.357,11.103c-2.457-6.84-3.645-14.431-10.719-18.281c-5.754-3.132-12.953-1.919-18.961,0.695
			c-21.086,9.176-31.979,35.245-30.387,57.341c0.748,10.379,6.353,21.102,16.08,24.799c10.475,3.982,22.676-1.389,29.904-9.954
			c7.227-8.565,10.541-19.681,13.452-30.503c0.361-1.343,0.996-2.454,1.834-3.397c3.241-3.645,8.219-4.036,12.732-4.732
			c4.763-0.735,9.349-2.133,13.784-4.024c9.488-4.046,18.801-10.308,24.377-19.178C955.074,470.433,948.974,450.931,933.952,441.263
			z M876.827,516.477c-1.893,8.431-4.861,15.183-8.903,20.259c-3.871,4.903-8.13,7.27-12.774,7.097
			c-2.066-0.084-3.7-1.72-4.905-4.903c-1.721-4.817-1.978-10.84-0.773-18.066c1.462-9.549,4.646-17.247,9.549-23.098
			c0.343,1.548,0.859,3.054,1.548,4.516c3.01,6.883,8.559,10.925,16.645,12.129C877.04,515.102,876.911,515.789,876.827,516.477z
			 M874.633,495.959c-0.948-2.064-0.903-4.214,0.129-6.451c0.084-0.171,0.171-0.343,0.257-0.516
			c1.118,1.119,1.978,3.226,2.582,6.323c0.171,1.032,0.343,2.193,0.516,3.483C876.395,498.282,875.233,497.337,874.633,495.959z"/>
		<path fill="#FFFFFF" d="M534.394,750.095c-2.193-1.748-5.011-1.863-7.868-1.416c-1.655,0.259-3.323,0.706-4.89,1.135
			c-13.633,3.726-28.264,4.555-41.879,0.764c-26.307-7.325-45.654-35.111-42.406-62.609c0.834-7.059,3.108-13.942,3.277-21.049
			c0.169-7.107-2.378-14.943-8.631-18.323c-4.837-2.615-10.945-1.961-15.853,0.519c-4.907,2.48-8.807,6.561-12.306,10.802
			c1.713-15.536,3.426-31.072,5.139-46.607c0.633-5.742-0.391-13.674-6.146-14.18c-5.429-0.478-8.055,6.409-8.848,11.801
			c-4.523,30.751-7.295,61.76-8.3,92.826c-0.172,5.334,0.77,12.176,5.94,13.501c3.269,0.838,6.705-1.292,8.51-4.144
			c1.805-2.852,2.365-6.288,2.991-9.604c2.97-15.728,8.995-31.997,21.956-41.39c-3.697,23.823-6.225,49.557,5.107,70.835
			c8.143,15.289,22.892,26.507,39.258,32.184c16.366,5.677,34.236,6.119,51.325,3.284c4.782-0.794,9.814-1.991,13.216-5.444
			C537.387,759.526,538.185,753.116,534.394,750.095z"/>
		<path fill="#FFFFFF" d="M922.439,714.937c0.964-3.775,1.587-7.016,1.587-7.016s2.598-34.897,0.56-52.239
			c-0.716-6.091-4.437-15.186-11.924-10.942c-6.328,3.587-6.167,14.448-9.21,20.231c-2.175,4.133-5.119,7.875-8.607,10.979
			c-0.959,0.854-9.756,6.004-9.765,6.334c0.309-11.753,2.639-25.273,1.365-36.852c-0.885-8.04-8.8-12.653-15.633-7.525
			c-4.589,3.444-6.795,9.796-9.535,14.583c-3.91,6.833-7.715,13.745-11.494,20.665c-2.308,4.226-4.487,9.87-1.239,13.424
			c3.537,3.87,10.292,1.245,13.373-3.01c0.018-0.025,0.036-0.05,0.054-0.075c3.056-4.298,4.219-9.787,7.626-13.813
			c-0.624,9.325-0.44,20.428,7.265,25.716c5.433,3.729,12.985,2.966,18.786-0.159c5.801-3.125,10.238-8.227,14.54-13.218
			c0.265,6.897-0.083,13.818-1.039,20.654c-0.152,1.085-0.339,2.217-0.998,3.091c-1.124,1.49-3.203,1.765-5.044,2.067
			c-10.976,1.798-20.929,9.018-26.046,18.893c-2.566,4.953-3.959,10.687-2.903,16.164c1.056,5.477,4.862,10.58,10.178,12.269
			c7.073,2.247,14.642-1.805,20.091-6.843c4.969-4.593,9.021-10.151,11.966-16.242c10.901,12.449-2.906,36.979-16.141,45.229
			c-24.633,15.355-56.717,7.124-81.225-4.047c-47.913-21.84-99.743-63.809-155.276-40.973c-10.103,4.155-5.678,20.814,4.576,16.597
			c51.515-21.185,100.085,20.789,144.671,40.43c22.921,10.097,48.03,16.725,73.102,11.691c21.632-4.343,41.163-18.97,48.439-40.237
			C940.731,742.666,936.707,724.701,922.439,714.937z M902.189,725.517c-2.839,5.762-6.022,10.021-9.549,12.774
			c-1.291,0.946-2.367,1.592-3.226,1.936c-0.087-0.087-0.129-0.173-0.129-0.259c-0.259-1.721,0.259-3.785,1.548-6.194
			c2.476-4.783,6.483-8.12,12.014-10.02c0.022,0.026,0.042,0.052,0.064,0.078C902.67,724.394,902.43,724.956,902.189,725.517z"/>
	</g>
	<g>
		<circle fill="#FFE9CA" cx="624.422" cy="861.904" r="45.177"/>
		<circle fill="#FED593" cx="624.422" cy="861.904" r="31.939"/>
		<circle fill="#FBA299" cx="624.422" cy="861.904" r="15.784"/>
	</g>
	<g>
		<g>
			<path fill="#FFFFFF" d="M516.451,893.473c0,5.421-4.394,9.815-9.815,9.815c-5.421,0-9.815-4.394-9.815-9.815
				c0-5.421,4.394-9.815,9.815-9.815C512.056,883.658,516.451,888.053,516.451,893.473"/>
		</g>
	</g>
	<g>
		<circle fill="#FFE9CA" cx="237.507" cy="318.106" r="22.028"/>
		<circle fill="#FED593" cx="237.507" cy="318.106" r="11.624"/>
	</g>
	<g>
		<g>
			<path fill="#FFFFFF" d="M184.796,366.442c0,5.421-4.394,9.815-9.815,9.815c-5.421,0-9.815-4.394-9.815-9.815
				c0-5.421,4.394-9.815,9.815-9.815C180.402,356.627,184.796,361.021,184.796,366.442"/>
		</g>
	</g>
	<g>
		<g>
			<path fill="#FFFFFF" d="M619.403,415.242c0,5.579-4.522,10.101-10.101,10.101c-5.579,0-10.101-4.523-10.101-10.101
				c0-5.579,4.523-10.101,10.101-10.101C614.881,405.14,619.403,409.663,619.403,415.242"/>
		</g>
	</g>
	<g>
		<g>
			<path fill="#FFFFFF" d="M577.946,360.232c0,9.94-8.058,17.998-17.998,17.998c-9.94,0-17.998-8.058-17.998-17.998
				c0-9.94,8.058-17.998,17.998-17.998C569.888,342.233,577.946,350.291,577.946,360.232"/>
		</g>
	</g>
	<g>
		<g>
			<path fill="#FFFFFF" d="M670.195,357.293c0,5.579-4.523,10.101-10.101,10.101c-5.579,0-10.101-4.523-10.101-10.101
				c0-5.579,4.523-10.101,10.101-10.101C665.672,347.192,670.195,351.714,670.195,357.293"/>
		</g>
	</g>
	<g>
		<g>
			<path fill="#FFFFFF" d="M177.494,617.881c0,5.579-4.523,10.101-10.101,10.101c-5.579,0-10.101-4.522-10.101-10.101
				c0-5.579,4.523-10.101,10.101-10.101C172.972,607.779,177.494,612.302,177.494,617.881"/>
		</g>
	</g>
	<g>
		<g>
			<path fill="#FFFFFF" d="M154.035,498.375c0,9.94-8.058,17.998-17.998,17.998c-9.94,0-17.998-8.058-17.998-17.998
				c0-9.94,8.058-17.998,17.998-17.998C145.977,480.377,154.035,488.435,154.035,498.375"/>
		</g>
	</g>
	<g>
		<g>
			<path fill="#FFFFFF" d="M228.285,559.932c0,5.579-4.523,10.101-10.101,10.101c-5.579,0-10.101-4.522-10.101-10.101
				c0-5.579,4.523-10.101,10.101-10.101C223.763,549.831,228.285,554.353,228.285,559.932"/>
		</g>
	</g>
	<g>
		<g>
			<path fill="#FF6C8A" d="M312.843,794.688c0,61.255-49.657,110.913-110.913,110.913c-61.256,0-110.913-49.658-110.913-110.913
				s49.658-110.913,110.913-110.913C263.185,683.775,312.843,733.432,312.843,794.688"/>
		</g>
		<g>
			<path fill="#FEA19E" d="M155.989,826.797c0.409-1.486,0.632-3.049,0.632-4.666c0-9.684-7.851-17.535-17.535-17.535
				s-17.535,7.851-17.535,17.535c0,7.424,4.615,13.766,11.131,16.324c-2.137,3.597-3.368,7.795-3.368,12.282
				c0,13.3,10.782,24.081,24.081,24.081c13.3,0,24.082-10.782,24.082-24.081C177.478,838.314,168.069,828.091,155.989,826.797"/>
		</g>
		<g>
			<path fill="#FEA19E" d="M262.012,793.472c7.502-6.209,12.282-15.591,12.282-26.09c0-6.486-1.827-12.543-4.99-17.692
				c3.078-3.026,4.99-7.236,4.99-11.894c0-9.213-7.469-16.681-16.681-16.681c-7.747,0-14.259,5.282-16.136,12.441
				c-0.345-0.011-0.688-0.026-1.036-0.026c-18.697,0-33.853,15.156-33.853,33.853c0,15.092,9.878,27.872,23.52,32.241
				c-6.043,5.608-9.829,13.615-9.829,22.509c0,16.96,13.748,30.708,30.708,30.708s30.708-13.748,30.708-30.708
				C281.695,809.059,273.523,797.903,262.012,793.472z"/>
		</g>
		<g>
			<path fill="#FEA19E" d="M235.924,719.959c5.015,0,9.081-4.066,9.081-9.081c0-5.015-4.066-9.08-9.081-9.08
				s-9.081,4.066-9.081,9.08C226.843,715.893,230.909,719.959,235.924,719.959z"/>
		</g>
		<g>
			<path fill="#FEA19E" d="M186.558,872.006c-5.016,0-9.081,4.066-9.081,9.081c0,5.015,4.065,9.081,9.081,9.081
				c5.014,0,9.08-4.066,9.08-9.081C195.638,876.071,191.573,872.006,186.558,872.006"/>
		</g>
		<g>
			<path fill="#DC537C" d="M186.558,890.167c-5.016,0-9.081-4.066-9.081-9.081c0-5.015,4.065-9.081,9.081-9.081
				c5.014,0,9.08,4.066,9.08,9.081C195.638,886.102,191.573,890.167,186.558,890.167 M128.326,721.854
				c-1.593,0-3.22,0.642-4.524,2.134c-16.165,18.492-25.978,42.677-26.035,69.154c-0.124,58.096,47.415,105.707,105.482,105.707
				c0.082,0,0.158,0,0.239,0c26.483-0.06,50.673-9.881,69.164-26.055c4.496-3.932,1.273-10.806-4.01-10.806
				c-0.636,0-1.3,0.099-1.986,0.315c-10.016,3.156-20.676,4.858-31.734,4.858c-5.436,0-10.969-0.411-16.568-1.264
				c-14.887-2.266-28.747-7.669-40.88-15.511c0.002,0.116,0.003,0.234,0.003,0.351c0,13.3-10.782,24.081-24.082,24.081
				c-13.3,0-24.081-10.782-24.081-24.081c0-4.487,1.231-8.685,3.368-12.282c-6.516-2.558-11.131-8.9-11.131-16.324
				c0-9.449,7.474-17.152,16.833-17.521c-3.652-8.274-6.265-17.109-7.671-26.34c-2.588-16.984-1.119-33.353,3.583-48.289
				C135.71,725.489,132.115,721.855,128.326,721.854"/>
		</g>
		<g>
			<path fill="#DC6D86" d="M138.384,804.61c-9.358,0.369-16.833,8.072-16.833,17.521c0,7.424,4.615,13.766,11.131,16.324
				c-2.137,3.597-3.368,7.795-3.368,12.282c0,13.3,10.782,24.081,24.081,24.081c13.3,0,24.082-10.782,24.082-24.081
				c0-0.117-0.001-0.234-0.003-0.351C160.366,839.33,146.688,823.423,138.384,804.61"/>
		</g>
		<g>
			<path fill="#DC6D86" d="M186.558,872.006c-5.016,0-9.081,4.066-9.081,9.081c0,5.015,4.065,9.081,9.081,9.081
				c5.014,0,9.08-4.066,9.08-9.081C195.638,876.071,191.573,872.006,186.558,872.006"/>
		</g>
	</g>
	<g>
		<g>
			<path fill="#7788A2" d="M1074.758,366.58l-43.213,31.719c-7.274,5.339-17.839,5.764-27.361,1.101l-63.649-31.17
				c-14.306-7.006-21.702-23.04-16.344-35.439l11.155-25.817c4.32-9.997,15.792-14.732,27.93-11.528l95.708,25.267
				c18.484,4.88,29.454,25.159,21.387,39.537C1078.976,362.735,1077.076,364.878,1074.758,366.58"/>
		</g>
		<g>
			<path fill="#8C9FBE" d="M1040.848,349.03c-3.005-0.017-5.836,1.009-7.858,3.108c-4.3,4.465-3.314,12.094,2.201,17.04
				c5.516,4.946,13.473,5.337,17.773,0.872c2.022-2.1,2.875-4.899,2.638-7.789c5.983,1.618,12.164,0.426,16.137-3.699
				c6.081-6.314,4.687-17.103-3.113-24.099c-7.8-6.995-19.053-7.547-25.134-1.233
				C1039.518,337.355,1038.737,343.391,1040.848,349.03"/>
		</g>
		<g>
			<path fill="#8C9FBE" d="M939.78,339.261c-2.715,0.641-5.039,2.234-6.421,4.697c-3.033,5.406-0.388,12.939,5.907,16.825
				c6.296,3.887,13.858,2.655,16.89-2.751s0.389-12.938-5.907-16.825c-0.513-0.317-1.036-0.596-1.563-0.846
				c1.362-0.586,2.511-1.554,3.262-2.893c2.145-3.822,0.275-9.149-4.177-11.897c-4.452-2.748-9.799-1.878-11.943,1.945
				C933.721,331.272,935.495,336.474,939.78,339.261z"/>
		</g>
		<g>
			<path fill="#616E82" d="M1019.169,393.648c-2.667,0.434-5.584-1.367-6.517-4.023c-0.933-2.656,0.473-5.162,3.139-5.596
				c2.667-0.434,5.584,1.367,6.517,4.023C1023.241,390.708,1021.836,393.213,1019.169,393.648"/>
		</g>
		<g>
			<path fill="#616E82" d="M1067.175,333.266c0.495,0.376,0.979,0.775,1.45,1.198c7.8,6.995,9.194,17.785,3.113,24.099
				c-3.973,4.125-10.154,5.318-16.137,3.699c0.237,2.891-0.616,5.69-2.638,7.789c-4.04,4.195-11.308,4.104-16.747-0.025
				c-0.35-0.266-0.693-0.548-1.026-0.847c-5.516-4.947-6.501-12.576-2.201-17.04c2.022-2.1,4.853-3.125,7.858-3.108
				c-2.11-5.639-1.33-11.675,2.643-15.8C1049.204,327.297,1059.484,327.427,1067.175,333.266 M1020.219,385.237
				c0.94,0.714,1.694,1.687,2.09,2.815c0.933,2.656-0.473,5.162-3.14,5.596c-1.534,0.25-3.152-0.241-4.427-1.208
				c-0.94-0.714-1.694-1.688-2.09-2.815c-0.933-2.656,0.473-5.162,3.139-5.596C1017.326,383.779,1018.944,384.269,1020.219,385.237
				 M1007.916,392.47c0.137,0.104,0.285,0.196,0.443,0.273c0.221,0.108,0.441,0.213,0.663,0.315c0.524-0.808,1.708-0.975,2.7-0.363
				c0.073,0.045,0.143,0.093,0.21,0.144c0.577,0.438,0.921,1.075,0.954,1.693c7.597,2.313,15.401,1.342,21.07-2.819l36.065-26.473
				c1.985-1.457,3.613-3.292,4.806-5.419c5.298-9.443,1.006-21.86-8.423-29.019c-2.865-2.175-6.202-3.864-9.891-4.838
				l-55.658-14.694c-2.22-0.586-3.256,1.97-1.388,3.426l2.031,1.584c7.886,6.149,12.219,15.443,11.222,24.074l-5.782,50.055
				C1006.852,391.165,1007.244,391.96,1007.916,392.47"/>
		</g>
		<g>
			<path fill="#6B7A90" d="M1036.217,370.025c5.439,4.129,12.707,4.22,16.747,0.025c2.022-2.1,2.875-4.899,2.638-7.789
				c5.983,1.618,12.164,0.426,16.137-3.699c6.081-6.314,4.687-17.103-3.113-24.099c-0.471-0.423-0.956-0.822-1.45-1.198
				c-7.692-5.839-17.971-5.968-23.684-0.036c-3.973,4.125-4.754,10.161-2.643,15.8c-3.005-0.017-5.836,1.009-7.858,3.108
				c-4.3,4.465-3.314,12.094,2.201,17.04C1035.525,369.477,1035.867,369.76,1036.217,370.025"/>
		</g>
	</g>
	<g>
		<g>
			<path fill="#7788A2" d="M790.755,333.281c-20.09,14.021-22.695,62.162,5.844,63.672c28.539,1.51,61.604-19.156,50.582-46.71
				C836.159,322.688,803.214,324.585,790.755,333.281z"/>
		</g>
		<g>
			<path fill="#616E82" d="M843.998,351.344c-2.682-6.706-6.796-11.486-11.597-14.743c-2.004-1.359-4.491,0.717-3.587,2.963
				c0.01,0.025,0.021,0.049,0.03,0.074c12.704,34.816-19.234,41.279-36.771,42.273c-5.078,0.288-6.755,7.111-2.312,9.587
				c2.35,1.309,5.103,2.116,8.283,2.284C823.971,395.153,854.012,376.378,843.998,351.344z"/>
		</g>
		<g>
			<path fill="#8C9FBE" d="M797.89,334.423c-6.121,0-11.084,4.962-11.084,11.083c0,1.841,0.456,3.573,1.25,5.101
				c-1.497,0.636-2.787,1.772-3.545,3.353c-1.653,3.448-0.198,7.583,3.251,9.237s7.584,0.198,9.237-3.251
				c0.522-1.089,0.702-2.242,0.639-3.368c0.085,0.002,0.168,0.013,0.253,0.013c6.121,0,11.084-4.962,11.084-11.083
				C808.974,339.385,804.012,334.423,797.89,334.423z"/>
		</g>
	</g>
	<g>
		<g>
			<path fill="#FFFFFF" d="M372.739,872.006c0,5.579-4.522,10.101-10.101,10.101c-5.579,0-10.101-4.523-10.101-10.101
				s4.523-10.101,10.101-10.101C368.217,861.904,372.739,866.427,372.739,872.006"/>
		</g>
	</g>
	<g>
		<g>
			<path fill="#FFFFFF" d="M1064.165,525.909c1.935,5.233-0.739,11.043-5.972,12.977c-5.233,1.935-11.043-0.739-12.977-5.972
				c-1.934-5.233,0.739-11.043,5.972-12.977C1056.42,518.003,1062.23,520.677,1064.165,525.909"/>
		</g>
	</g>
	<g>
		<g>
			<path fill="#FFFFFF" d="M1091.341,674.717c1.935,5.233-0.739,11.043-5.972,12.977c-5.233,1.934-11.043-0.739-12.977-5.972
				c-1.934-5.233,0.739-11.043,5.972-12.977C1083.596,666.81,1089.406,669.484,1091.341,674.717"/>
		</g>
	</g>
	<g>
		<g>
			<path fill="#FFFFFF" d="M1031.754,763.721c1.934,5.233-0.739,11.043-5.972,12.977c-5.233,1.935-11.043-0.739-12.977-5.972
				s0.739-11.043,5.972-12.977C1024.009,755.815,1029.819,758.488,1031.754,763.721"/>
		</g>
	</g>
	<g>
		<g>
			<path fill="#FFFFFF" d="M252.878,653.221c0,5.579-4.523,10.101-10.101,10.101c-5.579,0-10.101-4.523-10.101-10.101
				s4.523-10.101,10.101-10.101C248.355,643.12,252.878,647.642,252.878,653.221"/>
		</g>
	</g>
	<g>
		<g>
			<path fill="#FFFFFF" d="M1033.125,618.575c3.453,9.339-1.319,19.709-10.659,23.162c-9.339,3.453-19.71-1.319-23.162-10.659
				c-3.453-9.339,1.319-19.709,10.659-23.162C1019.302,604.463,1029.672,609.235,1033.125,618.575"/>
		</g>
	</g>
</g>
</svg>
