<?xml version="1.0" encoding="utf-8"?>
<!-- Generator: Adobe Illustrator 16.0.4, SVG Export Plug-In . SVG Version: 6.00 Build 0)  -->
<!DOCTYPE svg PUBLIC "-//W3C//DTD SVG 1.1//EN" "http://www.w3.org/Graphics/SVG/1.1/DTD/svg11.dtd">
<svg version="1.1" id="finished" xmlns="http://www.w3.org/2000/svg" xmlns:xlink="http://www.w3.org/1999/xlink" x="0px" y="0px"
	 width="363.598px" height="509.041px" viewBox="0 0 363.598 509.041" enable-background="new 0 0 363.598 509.041"
	 xml:space="preserve">
<polyline fill="#FFFFFF" stroke="#000000" stroke-width="2" stroke-miterlimit="10" points="0,36.36 0,0 36.36,0 36.36,36.36 "/>
<polyline fill="#FFFFFF" stroke="#000000" stroke-width="2" stroke-miterlimit="10" points="36.36,36.36 36.36,0 72.72,0 
	72.72,36.36 "/>
<polyline fill="#FFFFFF" stroke="#000000" stroke-width="2" stroke-miterlimit="10" points="109.08,36.36 72.72,36.36 72.72,0 
	109.08,0 "/>
<line fill="#FFFFFF" stroke="#000000" stroke-width="2" stroke-miterlimit="10" x1="109.08" y1="0" x2="145.439" y2="0"/>
<line fill="#FFFFFF" stroke="#000000" stroke-width="2" stroke-miterlimit="10" x1="145.439" y1="0" x2="181.799" y2="0"/>
<line fill="#FFFFFF" stroke="#000000" stroke-width="2" stroke-miterlimit="10" x1="181.799" y1="36.36" x2="145.439" y2="36.36"/>
<line fill="#FFFFFF" stroke="#000000" stroke-width="2" stroke-miterlimit="10" x1="181.799" y1="0" x2="218.159" y2="0"/>
<line fill="#FFFFFF" stroke="#000000" stroke-width="2" stroke-miterlimit="10" x1="218.159" y1="36.36" x2="181.799" y2="36.36"/>
<polyline fill="#FFFFFF" stroke="#000000" stroke-width="2" stroke-miterlimit="10" points="218.159,0 254.52,0 254.52,36.36 "/>
<polyline fill="#FFFFFF" stroke="#000000" stroke-width="2" stroke-miterlimit="10" points="290.879,36.36 254.52,36.36 254.52,0 
	290.879,0 "/>
<line fill="#FFFFFF" stroke="#000000" stroke-width="2" stroke-miterlimit="10" x1="290.879" y1="0" x2="327.238" y2="0"/>
<polyline fill="#FFFFFF" stroke="#000000" stroke-width="2" stroke-miterlimit="10" points="327.238,0 363.598,0 363.598,36.36 
	327.238,36.36 "/>
<line fill="#FFFFFF" stroke="#000000" stroke-width="2" stroke-miterlimit="10" x1="36.36" y1="36.36" x2="36.36" y2="72.72"/>
<line fill="#FFFFFF" stroke="#000000" stroke-width="2" stroke-miterlimit="10" x1="0" y1="72.72" x2="0" y2="36.36"/>
<line fill="#FFFFFF" stroke="#000000" stroke-width="2" stroke-miterlimit="10" x1="72.72" y1="36.36" x2="72.72" y2="72.72"/>
<line fill="#FFFFFF" stroke="#000000" stroke-width="2" stroke-miterlimit="10" x1="36.36" y1="72.72" x2="36.36" y2="36.36"/>
<polyline fill="#FFFFFF" stroke="#000000" stroke-width="2" stroke-miterlimit="10" points="109.08,72.72 72.72,72.72 72.72,36.36 
	109.08,36.36 "/>
<line fill="#FFFFFF" stroke="#000000" stroke-width="2" stroke-miterlimit="10" x1="145.439" y1="72.72" x2="109.08" y2="72.72"/>
<polyline fill="#FFFFFF" stroke="#000000" stroke-width="2" stroke-miterlimit="10" points="145.439,36.36 181.799,36.36 
	181.799,72.72 "/>
<polyline fill="#FFFFFF" stroke="#000000" stroke-width="2" stroke-miterlimit="10" points="218.159,72.72 181.799,72.72 
	181.799,36.36 218.159,36.36 "/>
<polyline fill="#FFFFFF" stroke="#000000" stroke-width="2" stroke-miterlimit="10" points="254.52,36.36 254.52,72.72 
	218.159,72.72 "/>
<polyline fill="#FFFFFF" stroke="#000000" stroke-width="2" stroke-miterlimit="10" points="290.879,72.72 254.52,72.72 
	254.52,36.36 290.879,36.36 "/>
<line fill="#FFFFFF" stroke="#000000" stroke-width="2" stroke-miterlimit="10" x1="327.238" y1="72.72" x2="290.879" y2="72.72"/>
<polyline fill="#FFFFFF" stroke="#000000" stroke-width="2" stroke-miterlimit="10" points="327.238,36.36 363.598,36.36 
	363.598,72.72 "/>
<line fill="#FFFFFF" stroke="#000000" stroke-width="2" stroke-miterlimit="10" x1="36.36" y1="72.72" x2="36.36" y2="109.08"/>
<line fill="#FFFFFF" stroke="#000000" stroke-width="2" stroke-miterlimit="10" x1="0" y1="109.08" x2="0" y2="72.72"/>
<line fill="#FFFFFF" stroke="#000000" stroke-width="2" stroke-miterlimit="10" x1="72.72" y1="72.72" x2="72.72" y2="109.08"/>
<line fill="#FFFFFF" stroke="#000000" stroke-width="2" stroke-miterlimit="10" x1="36.36" y1="109.08" x2="36.36" y2="72.72"/>
<polyline fill="#FFFFFF" stroke="#000000" stroke-width="2" stroke-miterlimit="10" points="72.72,109.08 72.72,72.72 109.08,72.72 
	109.08,109.08 "/>
<polyline fill="#FFFFFF" stroke="#000000" stroke-width="2" stroke-miterlimit="10" points="109.08,109.08 109.08,72.72 
	145.439,72.72 145.439,109.08 "/>
<polyline fill="#FFFFFF" stroke="#000000" stroke-width="2" stroke-miterlimit="10" points="181.799,109.08 145.439,109.08 
	145.439,72.72 "/>
<polyline fill="#FFFFFF" stroke="#000000" stroke-width="2" stroke-miterlimit="10" points="181.799,72.72 218.159,72.72 
	218.159,109.08 "/>
<polyline fill="#FFFFFF" stroke="#000000" stroke-width="2" stroke-miterlimit="10" points="218.159,109.08 218.159,72.72 
	254.52,72.72 254.52,109.08 "/>
<polyline fill="#FFFFFF" stroke="#000000" stroke-width="2" stroke-miterlimit="10" points="254.52,109.08 254.52,72.72 
	290.879,72.72 290.879,109.08 "/>
<polyline fill="#FFFFFF" stroke="#000000" stroke-width="2" stroke-miterlimit="10" points="290.879,109.08 290.879,72.72 
	327.238,72.72 327.238,109.08 "/>
<line fill="#FFFFFF" stroke="#000000" stroke-width="2" stroke-miterlimit="10" x1="363.598" y1="72.72" x2="363.598" y2="109.08"/>
<line fill="#FFFFFF" stroke="#000000" stroke-width="2" stroke-miterlimit="10" x1="327.238" y1="109.08" x2="327.238" y2="72.72"/>
<line fill="#FFFFFF" stroke="#000000" stroke-width="2" stroke-miterlimit="10" x1="0" y1="145.439" x2="0" y2="109.08"/>
<line fill="#FFFFFF" stroke="#000000" stroke-width="2" stroke-miterlimit="10" x1="72.72" y1="109.08" x2="72.72" y2="145.439"/>
<line fill="#FFFFFF" stroke="#000000" stroke-width="2" stroke-miterlimit="10" x1="72.72" y1="145.439" x2="72.72" y2="109.08"/>
<polyline fill="#FFFFFF" stroke="#000000" stroke-width="2" stroke-miterlimit="10" points="145.439,109.08 145.439,145.439 
	109.08,145.439 "/>
<polyline fill="#FFFFFF" stroke="#000000" stroke-width="2" stroke-miterlimit="10" points="181.799,145.439 145.439,145.439 
	145.439,109.08 181.799,109.08 "/>
<polyline fill="#FFFFFF" stroke="#000000" stroke-width="2" stroke-miterlimit="10" points="254.52,109.08 254.52,145.439 
	218.159,145.439 "/>
<line fill="#FFFFFF" stroke="#000000" stroke-width="2" stroke-miterlimit="10" x1="254.52" y1="145.439" x2="254.52" y2="109.08"/>
<line fill="#FFFFFF" stroke="#000000" stroke-width="2" stroke-miterlimit="10" x1="290.879" y1="109.08" x2="290.879" y2="145.439"/>
<line fill="#FFFFFF" stroke="#000000" stroke-width="2" stroke-miterlimit="10" x1="290.879" y1="145.439" x2="290.879" y2="109.08"/>
<line fill="#FFFFFF" stroke="#000000" stroke-width="2" stroke-miterlimit="10" x1="363.598" y1="109.08" x2="363.598" y2="145.439"/>
<line fill="#FFFFFF" stroke="#000000" stroke-width="2" stroke-miterlimit="10" x1="36.36" y1="145.439" x2="36.36" y2="181.799"/>
<line fill="#FFFFFF" stroke="#000000" stroke-width="2" stroke-miterlimit="10" x1="0" y1="181.799" x2="0" y2="145.439"/>
<line fill="#FFFFFF" stroke="#000000" stroke-width="2" stroke-miterlimit="10" x1="72.72" y1="145.439" x2="72.72" y2="181.799"/>
<line fill="#FFFFFF" stroke="#000000" stroke-width="2" stroke-miterlimit="10" x1="36.36" y1="181.799" x2="36.36" y2="145.439"/>
<line fill="#FFFFFF" stroke="#000000" stroke-width="2" stroke-miterlimit="10" x1="109.08" y1="145.439" x2="109.08" y2="181.799"/>
<line fill="#FFFFFF" stroke="#000000" stroke-width="2" stroke-miterlimit="10" x1="72.72" y1="181.799" x2="72.72" y2="145.439"/>
<polyline fill="#FFFFFF" stroke="#000000" stroke-width="2" stroke-miterlimit="10" points="109.08,181.799 109.08,145.439 
	145.439,145.439 145.439,181.799 "/>
<polyline fill="#FFFFFF" stroke="#000000" stroke-width="2" stroke-miterlimit="10" points="145.439,181.799 145.439,145.439 
	181.799,145.439 181.799,181.799 "/>
<line fill="#FFFFFF" stroke="#000000" stroke-width="2" stroke-miterlimit="10" x1="218.159" y1="145.439" x2="218.159" y2="181.799"/>
<line fill="#FFFFFF" stroke="#000000" stroke-width="2" stroke-miterlimit="10" x1="181.799" y1="181.799" x2="181.799" y2="145.439"/>
<polyline fill="#FFFFFF" stroke="#000000" stroke-width="2" stroke-miterlimit="10" points="218.159,181.799 218.159,145.439 
	254.52,145.439 254.52,181.799 "/>
<line fill="#FFFFFF" stroke="#000000" stroke-width="2" stroke-miterlimit="10" x1="254.52" y1="181.799" x2="254.52" y2="145.439"/>
<line fill="#FFFFFF" stroke="#000000" stroke-width="2" stroke-miterlimit="10" x1="327.238" y1="145.439" x2="327.238" y2="181.799"/>
<line fill="#FFFFFF" stroke="#000000" stroke-width="2" stroke-miterlimit="10" x1="363.598" y1="145.439" x2="363.598" y2="181.799"/>
<line fill="#FFFFFF" stroke="#000000" stroke-width="2" stroke-miterlimit="10" x1="327.238" y1="181.799" x2="327.238" y2="145.439"/>
<line fill="#FFFFFF" stroke="#000000" stroke-width="2" stroke-miterlimit="10" x1="36.36" y1="181.799" x2="36.36" y2="218.159"/>
<line fill="#FFFFFF" stroke="#000000" stroke-width="2" stroke-miterlimit="10" x1="0" y1="218.159" x2="0" y2="181.799"/>
<line fill="#FFFFFF" stroke="#000000" stroke-width="2" stroke-miterlimit="10" x1="72.72" y1="181.799" x2="72.72" y2="218.159"/>
<line fill="#FFFFFF" stroke="#000000" stroke-width="2" stroke-miterlimit="10" x1="36.36" y1="218.159" x2="36.36" y2="181.799"/>
<line fill="#FFFFFF" stroke="#000000" stroke-width="2" stroke-miterlimit="10" x1="109.08" y1="181.799" x2="109.08" y2="218.159"/>
<line fill="#FFFFFF" stroke="#000000" stroke-width="2" stroke-miterlimit="10" x1="72.72" y1="218.159" x2="72.72" y2="181.799"/>
<line fill="#FFFFFF" stroke="#000000" stroke-width="2" stroke-miterlimit="10" x1="145.439" y1="181.799" x2="145.439" y2="218.159"/>
<line fill="#FFFFFF" stroke="#000000" stroke-width="2" stroke-miterlimit="10" x1="109.08" y1="218.159" x2="109.08" y2="181.799"/>
<line fill="#FFFFFF" stroke="#000000" stroke-width="2" stroke-miterlimit="10" x1="181.799" y1="181.799" x2="181.799" y2="218.159"/>
<line fill="#FFFFFF" stroke="#000000" stroke-width="2" stroke-miterlimit="10" x1="145.439" y1="218.159" x2="145.439" y2="181.799"/>
<line fill="#FFFFFF" stroke="#000000" stroke-width="2" stroke-miterlimit="10" x1="218.159" y1="181.799" x2="218.159" y2="218.159"/>
<line fill="#FFFFFF" stroke="#000000" stroke-width="2" stroke-miterlimit="10" x1="181.799" y1="218.159" x2="181.799" y2="181.799"/>
<line fill="#FFFFFF" stroke="#000000" stroke-width="2" stroke-miterlimit="10" x1="218.159" y1="218.159" x2="218.159" y2="181.799"/>
<line fill="#FFFFFF" stroke="#000000" stroke-width="2" stroke-miterlimit="10" x1="290.879" y1="181.799" x2="290.879" y2="218.159"/>
<line fill="#FFFFFF" stroke="#000000" stroke-width="2" stroke-miterlimit="10" x1="327.238" y1="181.799" x2="327.238" y2="218.159"/>
<line fill="#FFFFFF" stroke="#000000" stroke-width="2" stroke-miterlimit="10" x1="290.879" y1="218.159" x2="290.879" y2="181.799"/>
<line fill="#FFFFFF" stroke="#000000" stroke-width="2" stroke-miterlimit="10" x1="363.598" y1="181.799" x2="363.598" y2="218.159"/>
<line fill="#FFFFFF" stroke="#000000" stroke-width="2" stroke-miterlimit="10" x1="327.238" y1="218.159" x2="327.238" y2="181.799"/>
<line fill="#FFFFFF" stroke="#000000" stroke-width="2" stroke-miterlimit="10" x1="36.36" y1="218.159" x2="36.36" y2="254.519"/>
<line fill="#FFFFFF" stroke="#000000" stroke-width="2" stroke-miterlimit="10" x1="0" y1="254.519" x2="0" y2="218.159"/>
<polyline fill="#FFFFFF" stroke="#000000" stroke-width="2" stroke-miterlimit="10" points="72.72,218.159 72.72,254.519 
	36.36,254.519 36.36,218.159 "/>
<line fill="#FFFFFF" stroke="#000000" stroke-width="2" stroke-miterlimit="10" x1="72.72" y1="254.519" x2="72.72" y2="218.159"/>
<polyline fill="#FFFFFF" stroke="#000000" stroke-width="2" stroke-miterlimit="10" points="145.439,218.159 145.439,254.519 
	109.08,254.519 "/>
<line fill="#FFFFFF" stroke="#000000" stroke-width="2" stroke-miterlimit="10" x1="145.439" y1="254.519" x2="145.439" y2="218.159"/>
<line fill="#FFFFFF" stroke="#000000" stroke-width="2" stroke-miterlimit="10" x1="218.159" y1="218.159" x2="218.159" y2="254.519"/>
<line fill="#FFFFFF" stroke="#000000" stroke-width="2" stroke-miterlimit="10" x1="254.52" y1="218.159" x2="254.52" y2="254.519"/>
<line fill="#FFFFFF" stroke="#000000" stroke-width="2" stroke-miterlimit="10" x1="218.159" y1="254.519" x2="218.159" y2="218.159"/>
<line fill="#FFFFFF" stroke="#000000" stroke-width="2" stroke-miterlimit="10" x1="290.879" y1="218.159" x2="290.879" y2="254.519"/>
<line fill="#FFFFFF" stroke="#000000" stroke-width="2" stroke-miterlimit="10" x1="254.52" y1="254.519" x2="254.52" y2="218.159"/>
<line fill="#FFFFFF" stroke="#000000" stroke-width="2" stroke-miterlimit="10" x1="327.238" y1="218.159" x2="327.238" y2="254.519"/>
<line fill="#FFFFFF" stroke="#000000" stroke-width="2" stroke-miterlimit="10" x1="290.879" y1="254.519" x2="290.879" y2="218.159"/>
<line fill="#FFFFFF" stroke="#000000" stroke-width="2" stroke-miterlimit="10" x1="363.598" y1="218.159" x2="363.598" y2="254.519"/>
<line fill="#FFFFFF" stroke="#000000" stroke-width="2" stroke-miterlimit="10" x1="327.238" y1="254.519" x2="327.238" y2="218.159"/>
<line fill="#FFFFFF" stroke="#000000" stroke-width="2" stroke-miterlimit="10" x1="0" y1="290.879" x2="0" y2="254.519"/>
<polyline fill="#FFFFFF" stroke="#000000" stroke-width="2" stroke-miterlimit="10" points="36.36,254.519 72.72,254.519 
	72.72,290.879 "/>
<line fill="#FFFFFF" stroke="#000000" stroke-width="2" stroke-miterlimit="10" x1="109.08" y1="254.519" x2="109.08" y2="290.879"/>
<line fill="#FFFFFF" stroke="#000000" stroke-width="2" stroke-miterlimit="10" x1="72.72" y1="290.879" x2="72.72" y2="254.519"/>
<polyline fill="#FFFFFF" stroke="#000000" stroke-width="2" stroke-miterlimit="10" points="109.08,290.879 109.08,254.519 
	145.439,254.519 "/>
<line fill="#FFFFFF" stroke="#000000" stroke-width="2" stroke-miterlimit="10" x1="181.799" y1="254.519" x2="181.799" y2="290.879"/>
<polyline fill="#FFFFFF" stroke="#000000" stroke-width="2" stroke-miterlimit="10" points="218.159,254.519 218.159,290.879 
	181.799,290.879 181.799,254.519 "/>
<line fill="#FFFFFF" stroke="#000000" stroke-width="2" stroke-miterlimit="10" x1="254.52" y1="254.519" x2="254.52" y2="290.879"/>
<line fill="#FFFFFF" stroke="#000000" stroke-width="2" stroke-miterlimit="10" x1="218.159" y1="290.879" x2="218.159" y2="254.519"/>
<polyline fill="#FFFFFF" stroke="#000000" stroke-width="2" stroke-miterlimit="10" points="290.879,254.519 290.879,290.879 
	254.52,290.879 254.52,254.519 "/>
<line fill="#FFFFFF" stroke="#000000" stroke-width="2" stroke-miterlimit="10" x1="327.238" y1="254.519" x2="327.238" y2="290.879"/>
<line fill="#FFFFFF" stroke="#000000" stroke-width="2" stroke-miterlimit="10" x1="290.879" y1="290.879" x2="290.879" y2="254.519"/>
<line fill="#FFFFFF" stroke="#000000" stroke-width="2" stroke-miterlimit="10" x1="363.598" y1="254.519" x2="363.598" y2="290.879"/>
<line fill="#FFFFFF" stroke="#000000" stroke-width="2" stroke-miterlimit="10" x1="327.238" y1="290.879" x2="327.238" y2="254.519"/>
<polyline fill="#FFFFFF" stroke="#000000" stroke-width="2" stroke-miterlimit="10" points="36.36,290.879 36.36,327.239 0,327.239 
	0,290.879 "/>
<line fill="#FFFFFF" stroke="#000000" stroke-width="2" stroke-miterlimit="10" x1="72.72" y1="290.879" x2="72.72" y2="327.239"/>
<line fill="#FFFFFF" stroke="#000000" stroke-width="2" stroke-miterlimit="10" x1="36.36" y1="327.239" x2="36.36" y2="290.879"/>
<polyline fill="#FFFFFF" stroke="#000000" stroke-width="2" stroke-miterlimit="10" points="109.08,327.239 72.72,327.239 
	72.72,290.879 "/>
<polyline fill="#FFFFFF" stroke="#000000" stroke-width="2" stroke-miterlimit="10" points="145.439,290.879 145.439,327.239 
	109.08,327.239 "/>
<polyline fill="#FFFFFF" stroke="#000000" stroke-width="2" stroke-miterlimit="10" points="181.799,327.239 145.439,327.239 
	145.439,290.879 "/>
<line fill="#FFFFFF" stroke="#000000" stroke-width="2" stroke-miterlimit="10" x1="181.799" y1="290.879" x2="218.159" y2="290.879"/>
<line fill="#FFFFFF" stroke="#000000" stroke-width="2" stroke-miterlimit="10" x1="218.159" y1="327.239" x2="181.799" y2="327.239"/>
<polyline fill="#FFFFFF" stroke="#000000" stroke-width="2" stroke-miterlimit="10" points="254.52,290.879 254.52,327.239 
	218.159,327.239 "/>
<polyline fill="#FFFFFF" stroke="#000000" stroke-width="2" stroke-miterlimit="10" points="254.52,327.239 254.52,290.879 
	290.879,290.879 "/>
<polyline fill="#FFFFFF" stroke="#000000" stroke-width="2" stroke-miterlimit="10" points="327.238,290.879 327.238,327.239 
	290.879,327.239 "/>
<polyline fill="#FFFFFF" stroke="#000000" stroke-width="2" stroke-miterlimit="10" points="363.598,290.879 363.598,327.239 
	327.238,327.239 327.238,290.879 "/>
<polyline fill="#FFFFFF" stroke="#000000" stroke-width="2" stroke-miterlimit="10" points="0,363.6 0,327.239 36.36,327.239 
	36.36,363.6 "/>
<line fill="#FFFFFF" stroke="#000000" stroke-width="2" stroke-miterlimit="10" x1="72.72" y1="327.239" x2="72.72" y2="363.6"/>
<line fill="#FFFFFF" stroke="#000000" stroke-width="2" stroke-miterlimit="10" x1="36.36" y1="363.6" x2="36.36" y2="327.239"/>
<polyline fill="#FFFFFF" stroke="#000000" stroke-width="2" stroke-miterlimit="10" points="109.08,363.6 72.72,363.6 
	72.72,327.239 109.08,327.239 "/>
<line fill="#FFFFFF" stroke="#000000" stroke-width="2" stroke-miterlimit="10" x1="109.08" y1="327.239" x2="145.439" y2="327.239"/>
<line fill="#FFFFFF" stroke="#000000" stroke-width="2" stroke-miterlimit="10" x1="145.439" y1="327.239" x2="181.799" y2="327.239"/>
<line fill="#FFFFFF" stroke="#000000" stroke-width="2" stroke-miterlimit="10" x1="181.799" y1="363.6" x2="145.439" y2="363.6"/>
<line fill="#FFFFFF" stroke="#000000" stroke-width="2" stroke-miterlimit="10" x1="181.799" y1="327.239" x2="218.159" y2="327.239"/>
<line fill="#FFFFFF" stroke="#000000" stroke-width="2" stroke-miterlimit="10" x1="218.159" y1="327.239" x2="254.52" y2="327.239"/>
<line fill="#FFFFFF" stroke="#000000" stroke-width="2" stroke-miterlimit="10" x1="254.52" y1="363.6" x2="218.159" y2="363.6"/>
<line fill="#FFFFFF" stroke="#000000" stroke-width="2" stroke-miterlimit="10" x1="290.879" y1="363.6" x2="254.52" y2="363.6"/>
<line fill="#FFFFFF" stroke="#000000" stroke-width="2" stroke-miterlimit="10" x1="290.879" y1="327.239" x2="327.238" y2="327.239"/>
<line fill="#FFFFFF" stroke="#000000" stroke-width="2" stroke-miterlimit="10" x1="327.238" y1="363.6" x2="290.879" y2="363.6"/>
<polyline fill="#FFFFFF" stroke="#000000" stroke-width="2" stroke-miterlimit="10" points="327.238,327.239 363.598,327.239 
	363.598,363.6 327.238,363.6 "/>
<line fill="#FFFFFF" stroke="#000000" stroke-width="2" stroke-miterlimit="10" x1="36.36" y1="363.6" x2="36.36" y2="399.96"/>
<line fill="#FFFFFF" stroke="#000000" stroke-width="2" stroke-miterlimit="10" x1="0" y1="399.96" x2="0" y2="363.6"/>
<line fill="#FFFFFF" stroke="#000000" stroke-width="2" stroke-miterlimit="10" x1="72.72" y1="363.6" x2="72.72" y2="399.96"/>
<line fill="#FFFFFF" stroke="#000000" stroke-width="2" stroke-miterlimit="10" x1="36.36" y1="399.96" x2="36.36" y2="363.6"/>
<polyline fill="#FFFFFF" stroke="#000000" stroke-width="2" stroke-miterlimit="10" points="72.72,399.96 72.72,363.6 109.08,363.6 
	109.08,399.96 "/>
<line fill="#FFFFFF" stroke="#000000" stroke-width="2" stroke-miterlimit="10" x1="145.439" y1="363.6" x2="145.439" y2="399.96"/>
<line fill="#FFFFFF" stroke="#000000" stroke-width="2" stroke-miterlimit="10" x1="109.08" y1="399.96" x2="109.08" y2="363.6"/>
<polyline fill="#FFFFFF" stroke="#000000" stroke-width="2" stroke-miterlimit="10" points="181.799,399.96 145.439,399.96 
	145.439,363.6 181.799,363.6 "/>
<line fill="#FFFFFF" stroke="#000000" stroke-width="2" stroke-miterlimit="10" x1="218.159" y1="363.6" x2="218.159" y2="399.96"/>
<polyline fill="#FFFFFF" stroke="#000000" stroke-width="2" stroke-miterlimit="10" points="218.159,399.96 218.159,363.6 
	254.52,363.6 "/>
<polyline fill="#FFFFFF" stroke="#000000" stroke-width="2" stroke-miterlimit="10" points="254.52,363.6 290.879,363.6 
	290.879,399.96 254.52,399.96 "/>
<polyline fill="#FFFFFF" stroke="#000000" stroke-width="2" stroke-miterlimit="10" points="290.879,399.96 290.879,363.6 
	327.238,363.6 327.238,399.96 "/>
<polyline fill="#FFFFFF" stroke="#000000" stroke-width="2" stroke-miterlimit="10" points="327.238,399.96 327.238,363.6 
	363.598,363.6 363.598,399.96 "/>
<line fill="#FFFFFF" stroke="#000000" stroke-width="2" stroke-miterlimit="10" x1="0" y1="436.32" x2="0" y2="399.96"/>
<line fill="#FFFFFF" stroke="#000000" stroke-width="2" stroke-miterlimit="10" x1="109.08" y1="436.32" x2="72.72" y2="436.32"/>
<line fill="#FFFFFF" stroke="#000000" stroke-width="2" stroke-miterlimit="10" x1="145.439" y1="399.96" x2="145.439" y2="436.32"/>
<polyline fill="#FFFFFF" stroke="#000000" stroke-width="2" stroke-miterlimit="10" points="145.439,436.32 145.439,399.96 
	181.799,399.96 "/>
<polyline fill="#FFFFFF" stroke="#000000" stroke-width="2" stroke-miterlimit="10" points="218.159,399.96 218.159,436.32 
	181.799,436.32 "/>
<polyline fill="#FFFFFF" stroke="#000000" stroke-width="2" stroke-miterlimit="10" points="254.52,436.32 218.159,436.32 
	218.159,399.96 "/>
<line fill="#FFFFFF" stroke="#000000" stroke-width="2" stroke-miterlimit="10" x1="254.52" y1="399.96" x2="290.879" y2="399.96"/>
<line fill="#FFFFFF" stroke="#000000" stroke-width="2" stroke-miterlimit="10" x1="327.238" y1="399.96" x2="327.238" y2="436.32"/>
<line fill="#FFFFFF" stroke="#000000" stroke-width="2" stroke-miterlimit="10" x1="363.598" y1="399.96" x2="363.598" y2="436.32"/>
<line fill="#FFFFFF" stroke="#000000" stroke-width="2" stroke-miterlimit="10" x1="327.238" y1="436.32" x2="327.238" y2="399.96"/>
<polyline fill="#FFFFFF" stroke="#000000" stroke-width="2" stroke-miterlimit="10" points="36.36,436.32 36.36,472.681 0,472.681 
	0,436.32 "/>
<line fill="#FFFFFF" stroke="#000000" stroke-width="2" stroke-miterlimit="10" x1="72.72" y1="436.32" x2="72.72" y2="472.681"/>
<line fill="#FFFFFF" stroke="#000000" stroke-width="2" stroke-miterlimit="10" x1="36.36" y1="472.681" x2="36.36" y2="436.32"/>
<polyline fill="#FFFFFF" stroke="#000000" stroke-width="2" stroke-miterlimit="10" points="72.72,472.681 72.72,436.32 
	109.08,436.32 "/>
<line fill="#FFFFFF" stroke="#000000" stroke-width="2" stroke-miterlimit="10" x1="145.439" y1="436.32" x2="145.439" y2="472.681"/>
<polyline fill="#FFFFFF" stroke="#000000" stroke-width="2" stroke-miterlimit="10" points="181.799,472.681 145.439,472.681 
	145.439,436.32 "/>
<line fill="#FFFFFF" stroke="#000000" stroke-width="2" stroke-miterlimit="10" x1="181.799" y1="436.32" x2="218.159" y2="436.32"/>
<line fill="#FFFFFF" stroke="#000000" stroke-width="2" stroke-miterlimit="10" x1="254.52" y1="472.681" x2="218.159" y2="472.681"/>
<line fill="#FFFFFF" stroke="#000000" stroke-width="2" stroke-miterlimit="10" x1="218.159" y1="436.32" x2="254.52" y2="436.32"/>
<polyline fill="#FFFFFF" stroke="#000000" stroke-width="2" stroke-miterlimit="10" points="290.879,436.32 290.879,472.681 
	254.52,472.681 "/>
<line fill="#FFFFFF" stroke="#000000" stroke-width="2" stroke-miterlimit="10" x1="290.879" y1="472.681" x2="290.879" y2="436.32"/>
<polyline fill="#FFFFFF" stroke="#000000" stroke-width="2" stroke-miterlimit="10" points="363.598,436.32 363.598,472.681 
	327.238,472.681 "/>
<rect y="472.681" fill="#FFFFFF" stroke="#000000" stroke-width="2" stroke-miterlimit="10" width="36.36" height="36.36"/>
<polyline fill="#FFFFFF" stroke="#000000" stroke-width="2" stroke-miterlimit="10" points="72.72,472.681 72.72,509.041 
	36.36,509.041 36.36,472.681 "/>
<polyline fill="#FFFFFF" stroke="#000000" stroke-width="2" stroke-miterlimit="10" points="109.08,472.681 109.08,509.041 
	72.72,509.041 72.72,472.681 "/>
<polyline fill="#FFFFFF" stroke="#000000" stroke-width="2" stroke-miterlimit="10" points="145.439,472.681 145.439,509.041 
	109.08,509.041 109.08,472.681 "/>
<polyline fill="#FFFFFF" stroke="#000000" stroke-width="2" stroke-miterlimit="10" points="181.799,509.041 145.439,509.041 
	145.439,472.681 181.799,472.681 "/>
<line fill="#FFFFFF" stroke="#000000" stroke-width="2" stroke-miterlimit="10" x1="218.159" y1="509.041" x2="181.799" y2="509.041"/>
<line fill="#FFFFFF" stroke="#000000" stroke-width="2" stroke-miterlimit="10" x1="218.159" y1="472.681" x2="254.52" y2="472.681"/>
<line fill="#FFFFFF" stroke="#000000" stroke-width="2" stroke-miterlimit="10" x1="254.52" y1="509.041" x2="218.159" y2="509.041"/>
<polyline fill="#FFFFFF" stroke="#000000" stroke-width="2" stroke-miterlimit="10" points="254.52,472.681 290.879,472.681 
	290.879,509.041 254.52,509.041 "/>
<polyline fill="#FFFFFF" stroke="#000000" stroke-width="2" stroke-miterlimit="10" points="327.238,509.041 290.879,509.041 
	290.879,472.681 "/>
<polyline fill="#FFFFFF" stroke="#000000" stroke-width="2" stroke-miterlimit="10" points="327.238,472.681 363.598,472.681 
	363.598,509.041 327.238,509.041 "/>
</svg>
