<?xml version="1.0" encoding="utf-8"?>
<!-- Designed by Vexels.com - 2016 All Rights Reserved - https://vexels.com/terms-and-conditions/  -->

<svg version="1.1" id="Layer_1" xmlns="http://www.w3.org/2000/svg" xmlns:xlink="http://www.w3.org/1999/xlink" x="0px" y="0px"
	 width="1200px" height="1200px" viewBox="0 0 1200 1200" enable-background="new 0 0 1200 1200" xml:space="preserve">
<g>
	<path fill="#575756" d="M961.989,385.91l-71.991-20.01l-71.991-90.408c-6.432-16.835-53.588-48.017-53.588-48.017l11.833-16.111
		c3.207,0.417,6.57,0.622,9.866,0.622c44.789,0,80.991-36.287,80.991-80.991c0-44.74-36.202-80.995-80.991-80.995
		c-44.722,0-80.995,36.255-80.995,80.995c0,17.382,5.503,33.563,14.92,46.739l-14.041,20.144
		c-20.024-18.421-66.421-28.802-66.421-28.802l-125.575-23.973c-26.389-7.28-32.839,10.381-32.839,10.381l-62.383,118.422
		c-9.608,27.972,6.379,40.805,6.379,40.805c24.044,10.35,40.826-13.624,40.826-13.624l48.755-87.236L631.6,237.891l-75.216,123.18
		c-18.403,19.251-18.403,48.017-18.403,48.017l-23.973,207.174l-147.277,0.865c-36.788,0.724-40.755,36.735-40.755,36.735
		c0.812,38.463,36.788,40.808,36.788,40.808l184.013,0.827c31.96,1.586,39.96-21.628,39.96-21.628l38.41-148.74l76.819,139.944
		l27.202,145.635c6.379,38.427,47.205,36.806,47.205,36.806c39.219-7.174,36.806-43.98,36.806-43.98L785.98,656.279
		c-1.607-16.799-10.402-39.151-10.402-39.151l-75.145-179.237l67.954-120.835l78.44,84.824
		c14.369,17.594,31.151,21.628,31.151,21.628l59.225,13.557c40.031,9.625,45.601-17.591,45.601-17.591
		C986.771,395.497,961.989,385.91,961.989,385.91z"/>
	<path fill="#575756" d="M81.667,716.091c21.561,6.796,812.694,329.425,812.694,329.425L891.81,1150l226.523-44.74L910.489,847
		l-7.796,110.072L82.408,617.403L81.667,716.091z"/>
</g>
</svg>
