<svg xmlns="http://www.w3.org/2000/svg" viewBox="0 0 238.42 251.19"><defs><style>.cls-1{fill:#e9eaeb;}.cls-2{fill:#fff;}.cls-3{fill:#3a5dae;}.cls-4{fill:#ed8b00;}</style></defs><title>Calculators-svg</title><g id="Layer_2" data-name="Layer 2"><g id="Layer_1-2" data-name="Layer 1"><circle class="cls-1" cx="119.21" cy="119.21" r="119.21"/><path class="cls-2" d="M106.44,17,93.67,8.52,80.89,17,68.11,8.52,55.35,17l-17-8.52v170.3a17,17,0,0,0,17,17h68.12V8.52Z"/><path class="cls-1" d="M89.41,46.83a17,17,0,0,0-17,17v115a17,17,0,0,1-17,17h51.09v-149Z"/><path class="cls-2" d="M110.7,110.7V63.86a17,17,0,0,0-17-17h85.15a17,17,0,0,1,17,17V110.7Z"/><path class="cls-3" d="M55.35,200.1a21.31,21.31,0,0,1-21.29-21.29V1.63L55,12.12,68.11,3.4l12.78,8.52L93.67,3.4l13.08,8.72,21-10.49V34.06h-8.52V15.4l-13.08,6.54L93.67,13.63,80.89,22.15,68.11,13.63,55.66,21.94,42.58,15.4V178.82a12.79,12.79,0,0,0,12.77,12.77Z"/><path class="cls-3" d="M55.35,200.1v-8.52a12.79,12.79,0,0,0,12.77-12.77v-115A21.31,21.31,0,0,1,89.41,42.58h4.26v8.52H89.41A12.79,12.79,0,0,0,76.64,63.86v115A21.31,21.31,0,0,1,55.35,200.1Z"/><rect class="cls-2" x="93.67" y="97.92" width="119.21" height="149.01" rx="8.52" ry="8.52"/><path class="cls-3" d="M204.36,251.19H102.18a12.79,12.79,0,0,1-12.77-12.77v-132a12.79,12.79,0,0,1,12.77-12.77H204.36a12.79,12.79,0,0,1,12.77,12.77v132A12.79,12.79,0,0,1,204.36,251.19Zm-102.18-149a4.26,4.26,0,0,0-4.26,4.26v132a4.26,4.26,0,0,0,4.26,4.26H204.36a4.26,4.26,0,0,0,4.26-4.26v-132a4.26,4.26,0,0,0-4.26-4.26Z"/><rect class="cls-4" x="119.21" y="131.98" width="68.12" height="25.55"/><path class="cls-3" d="M191.59,161.79H115V127.73h76.64Zm-68.12-8.52h59.61v-17H123.47Z"/><rect class="cls-3" x="114.95" y="170.3" width="17.03" height="8.52"/><rect class="cls-3" x="144.76" y="170.3" width="17.03" height="8.52"/><rect class="cls-3" x="174.56" y="170.3" width="17.03" height="8.52"/><rect class="cls-3" x="114.95" y="187.33" width="17.03" height="8.52"/><rect class="cls-3" x="144.76" y="187.33" width="17.03" height="8.52"/><rect class="cls-3" x="174.56" y="187.33" width="17.03" height="8.52"/><rect class="cls-3" x="174.56" y="204.36" width="17.03" height="8.52"/><rect class="cls-3" x="144.76" y="204.36" width="17.03" height="8.52"/><rect class="cls-3" x="114.95" y="204.36" width="17.03" height="8.52"/><path class="cls-2" d="M110.7,110.7V63.86a17,17,0,0,0-17-17h85.15a17,17,0,0,1,17,17V110.7Z"/><path class="cls-3" d="M200.1,115H106.44V63.86A12.79,12.79,0,0,0,93.67,51.09V42.58h85.15A21.31,21.31,0,0,1,200.1,63.86ZM115,106.44h76.64V63.86a12.79,12.79,0,0,0-12.77-12.77H110.68A21.18,21.18,0,0,1,115,63.86Z"/><rect class="cls-3" x="55.35" y="191.59" width="29.8" height="8.52"/></g></g></svg>