<?xml version="1.0" encoding="utf-8"?>
<!-- Designed by Vexels.com - 2020 All Rights Reserved - https://vexels.com/terms-and-conditions/  -->
<svg version="1.1" id="Layer_1" xmlns="http://www.w3.org/2000/svg" xmlns:xlink="http://www.w3.org/1999/xlink" x="0px" y="0px"
	 viewBox="0 0 1200 1200" enable-background="new 0 0 1200 1200" xml:space="preserve">
<g>
	<path fill="#E3E2E8" d="M1002.751,50.401c1.994-0.254,4.044-0.401,6.167-0.401h-15.715H940.47h-91.265H335.837h-58.942
		c-43.054,0-77.956,34.902-77.956,77.956v903.147h593.858c9.703,0,17.443,8.04,17.098,17.736
		c-1.095,30.807,2.193,91.704,44.075,100.148h8.545c43.054,0,77.956-34.902,77.956-77.956V171.687c0,0,0.033-1.011,0.136-2.79
		C941.605,151.477,949.474,57.186,1002.751,50.401z M307.316,316.191h125.49c9.451,0,17.112,7.661,17.112,17.112
		c0,9.451-7.661,17.112-17.112,17.112h-125.49c-9.451,0-17.112-7.661-17.112-17.112
		C290.204,323.852,297.865,316.191,307.316,316.191z M832.092,852.375H307.316c-9.451,0-17.112-7.661-17.112-17.112
		c0-9.451,7.661-17.112,17.112-17.112h524.776c9.451,0,17.112,7.661,17.112,17.112C849.204,844.714,841.543,852.375,832.092,852.375
		z M832.092,768.715H307.316c-9.451,0-17.112-7.661-17.112-17.112s7.661-17.112,17.112-17.112h524.776
		c9.451,0,17.112,7.661,17.112,17.112S841.543,768.715,832.092,768.715z M832.092,685.055H307.316
		c-9.451,0-17.112-7.661-17.112-17.112s7.661-17.112,17.112-17.112h524.776c9.451,0,17.112,7.661,17.112,17.112
		S841.543,685.055,832.092,685.055z M832.092,601.395H307.316c-9.451,0-17.112-7.661-17.112-17.112s7.661-17.112,17.112-17.112
		h524.776c9.451,0,17.112,7.661,17.112,17.112S841.543,601.395,832.092,601.395z M832.092,517.735H307.316
		c-9.451,0-17.112-7.661-17.112-17.112s7.661-17.112,17.112-17.112h524.776c9.451,0,17.112,7.661,17.112,17.112
		S841.543,517.735,832.092,517.735z M832.092,434.075H307.316c-9.451,0-17.112-7.661-17.112-17.112s7.661-17.112,17.112-17.112
		h524.776c9.451,0,17.112,7.661,17.112,17.112S841.543,434.075,832.092,434.075z"/>
	<path fill="#959CB8" d="M1094.356,149.201c-4.873-32.328-23.171-93.563-91.605-98.8c-53.277,6.785-61.146,101.076-62.146,118.496
		h136.828C1087.923,168.898,1095.92,159.574,1094.356,149.201z"/>
	<path fill="#959CB8" d="M809.895,1048.839c0.345-9.696-7.395-17.736-17.098-17.736H198.939h-76.371
		c-10.491,0-18.487,9.324-16.924,19.697c5.093,33.789,24.81,99.2,101.153,99.2h657.367c-3.639,0-7.015-0.372-10.194-1.013
		C812.087,1140.543,808.8,1079.646,809.895,1048.839z"/>
	<path fill="#959CB8" d="M307.316,350.415h125.49c9.451,0,17.112-7.661,17.112-17.112c0-9.451-7.661-17.112-17.112-17.112h-125.49
		c-9.451,0-17.112,7.661-17.112,17.112C290.204,342.754,297.865,350.415,307.316,350.415z"/>
	<path fill="#959CB8" d="M832.092,399.851H307.316c-9.451,0-17.112,7.661-17.112,17.112s7.661,17.112,17.112,17.112h524.776
		c9.451,0,17.112-7.661,17.112-17.112S841.543,399.851,832.092,399.851z"/>
	<path fill="#959CB8" d="M832.092,483.51H307.316c-9.451,0-17.112,7.661-17.112,17.112s7.661,17.112,17.112,17.112h524.776
		c9.451,0,17.112-7.661,17.112-17.112S841.543,483.51,832.092,483.51z"/>
	<path fill="#959CB8" d="M832.092,567.17H307.316c-9.451,0-17.112,7.661-17.112,17.112s7.661,17.112,17.112,17.112h524.776
		c9.451,0,17.112-7.661,17.112-17.112S841.543,567.17,832.092,567.17z"/>
	<path fill="#959CB8" d="M832.092,650.83H307.316c-9.451,0-17.112,7.661-17.112,17.112s7.661,17.112,17.112,17.112h524.776
		c9.451,0,17.112-7.661,17.112-17.112S841.543,650.83,832.092,650.83z"/>
	<path fill="#959CB8" d="M832.092,734.49H307.316c-9.451,0-17.112,7.661-17.112,17.112s7.661,17.112,17.112,17.112h524.776
		c9.451,0,17.112-7.661,17.112-17.112S841.543,734.49,832.092,734.49z"/>
	<path fill="#959CB8" d="M832.092,818.15H307.316c-9.451,0-17.112,7.661-17.112,17.112c0,9.451,7.661,17.112,17.112,17.112h524.776
		c9.451,0,17.112-7.661,17.112-17.112C849.204,825.811,841.543,818.15,832.092,818.15z"/>
</g>
</svg>
