<?xml version="1.0" encoding="utf-8"?>
<!-- Designed by Vexels.com - 2019 All Rights Reserved - https://vexels.com/terms-and-conditions/  -->
<svg version="1.1" id="Layer_1" xmlns="http://www.w3.org/2000/svg" xmlns:xlink="http://www.w3.org/1999/xlink" x="0px" y="0px"
	 viewBox="0 0 1200 1200" enable-background="new 0 0 1200 1200" xml:space="preserve">
<g>
	<rect x="61" y="54.959" fill="#FFFF9D" width="417" height="1100"/>
</g>
<path fill="#2B2B2B" d="M1150.843,463.317l-26.267-38.764c-8.83-13.031-22.222-21.759-37.708-24.577
	c-15.486-2.816-31.094,0.634-43.948,9.719l-21.398,15.124c-5.974,4.223-7.396,12.487-3.176,18.463l70.316,99.579L745.972,776.105
	l-20.434-31.634l316.346-214.005c6.061-4.101,7.651-12.338,3.55-18.398c-4.1-6.062-12.338-7.651-18.399-3.551L711.156,722.207
	L687.7,685.896l316.963-216.339c6.044-4.126,7.599-12.37,3.474-18.414c-4.125-6.045-12.37-7.6-18.413-3.475L665.991,668.629
	c-1.627,1.111-3.006,2.438-4.147,3.906c-1.662,1.1-3.107,2.582-4.168,4.427l-60.804,105.775c-0.139,0.242-0.271,0.686-0.395,0.937
	c-1.125,2.279-1.86,4.285-2.224,7.285h-370.28c-7.318,0-13.25,5.683-13.25,13s5.932,13,13.25,13h383.853
	c0.897,0,1.773-0.038,2.62-0.208c2.369,0.773,4.882,1.207,7.466,1.207c0.176,0,0.354,0.011,0.531,0.007
	c0.271-0.006,0.542-0.014,0.813-0.036l123.255-10.239c2.64-0.219,5.028-1.204,6.98-2.71c1.502-0.517,2.944-1.219,4.27-2.122
	l360.954-245.674c2.938-1.999,4.949-5.094,5.583-8.592s-0.165-7.101-2.214-10.004l-70.452-99.772l10.582-7.479
	c6.993-4.942,15.483-6.822,23.909-5.287c8.425,1.533,15.711,6.281,20.515,13.37l26.268,38.764
	c8.133,12.002,7.094,27.935-2.527,38.745c-0.917,1.03-1.448,1.569-1.684,1.802c-5.122,3.983-6.669,11.23-3.354,17.027
	c3.633,6.354,11.727,8.559,18.08,4.925c1.579-0.902,3.333-2.292,6.754-6.136C1163.868,514.662,1165.788,485.372,1150.843,463.317z
	 M622.654,791.063l47.761-83.087l48.503,75.087L622.654,791.063z M894,751.239c-7.318,0-13,5.933-13,13.25v376.47H75v-1073h806
	v385.836c0,7.317,5.682,13.25,13,13.25s13-5.933,13-13.25V54.5c0-7.317-5.481-13.541-12.799-13.541H61.396
	C54.078,40.959,48,47.183,48,54.5v1100c0,7.317,6.078,13.459,13.396,13.459h832.805c7.318,0,12.799-6.142,12.799-13.459V764.489
	C907,757.172,901.318,751.239,894,751.239z M748.22,198.959H226.734c-7.318,0-13.25,6.183-13.25,13.5s5.932,13.5,13.25,13.5H748.22
	c7.318,0,13.25-6.183,13.25-13.5S755.538,198.959,748.22,198.959z M748.22,346.959H226.734c-7.318,0-13.25,6.183-13.25,13.5
	s5.932,13.5,13.25,13.5H748.22c7.318,0,13.25-6.183,13.25-13.5S755.538,346.959,748.22,346.959z M761.47,507.959
	c0-7.317-5.932-13-13.25-13H226.734c-7.318,0-13.25,5.683-13.25,13s5.932,13,13.25,13H748.22
	C755.538,520.959,761.47,515.276,761.47,507.959z M223.813,642.959c-7.318,0-13.25,5.683-13.25,13s5.932,13,13.25,13h375.79
	c7.318,0,13.25-5.683,13.25-13s-5.932-13-13.25-13H223.813z"/>
</svg>
