<?xml version="1.0" encoding="utf-8"?>
<!-- Generator: Adobe Illustrator 23.0.3, SVG Export Plug-In . SVG Version: 6.00 Build 0)  -->
<svg version="1.1" id="Capa_1" xmlns="http://www.w3.org/2000/svg" xmlns:xlink="http://www.w3.org/1999/xlink" x="0px" y="0px"
	 viewBox="0 0 1200 1200" enable-background="new 0 0 1200 1200" xml:space="preserve">
<g>
	<path fill="#CCB68E" d="M504.74,259.995c-0.244-6.196-1.386-12.473-0.897-18.588c0.815-10.761-2.201-21.034-2.772-31.632
		c-0.489-8.805-2.446-17.691-4.321-26.414c-1.957-9.05-5.299-17.773-5.055-27.23c0.082-1.549-1.386-3.016-2.12-4.565
		c-2.854-5.87-6.359-11.577-8.316-17.691c-5.625-17.202-13.778-32.937-24.865-47.204c-3.424-4.321-6.033-9.62-10.272-12.718
		c-7.989-5.87-16.142-11.821-25.191-16.224c-2.854-1.386-4.565-0.571-4.973,2.609c-1.549,9.865-1.141,19.892-3.261,29.676
		c-0.163,0.815,0.652,2.527,1.06,2.609c3.668,0.244,3.179,3.179,3.342,5.299c0.652,7.908,3.261,15.49,5.136,23.154
		c1.06,4.321,2.609,8.56,5.544,12.066c9.049,11.251,14.838,24.703,24.05,35.872c5.299,6.44,8.316,14.185,12.066,21.523
		c7.174,13.859,9.539,28.86,9.539,43.942c-0.082,10.925-0.489,21.93-2.772,32.855c-1.712,7.745-3.016,15.49-6.033,22.827
		c-3.098,7.663-6.033,15.409-9.538,22.909c-5.299,11.169-9.539,22.827-13.289,34.649c-4.158,13.207-5.87,26.822-5.789,40.681
		c0.082,13.37,0.734,26.741,1.06,40.111c0.408,17.12-7.419,30.327-19.729,41.333c-0.245,0.163-0.897,0.245-0.978,0.082
		c-0.408-0.489-1.06-1.304-0.897-1.631c0.652-1.549,1.549-3.016,2.365-4.484c4.973-8.234,9.864-16.549,10.435-26.496
		c0.408-5.788,0.408-11.577,0.163-17.365c-0.326-8.886-1.305-17.773-1.549-26.659c-0.652-21.523,2.853-42.557,10.435-62.693
		c4.973-13.126,10.761-25.925,16.305-38.888c3.098-7.256,5.463-14.756,7.827-22.256c2.12-6.685,1.631-13.696,3.587-20.219
		c0.978-3.424,1.141-6.766,0.734-10.191c-0.408-3.424-0.163-6.848-0.326-10.353c-0.244-9.294-0.733-18.588-3.75-27.474
		c-5.218-15.083-13.778-28.453-22.339-41.741c-6.196-9.539-11.821-19.322-17.773-29.024c-1.06-1.712-1.793-3.75-2.201-5.706
		c-1.631-6.685-3.098-13.37-4.647-20.137c-0.245-1.223-0.408-2.69-2.038-3.18c-1.631,0.489-1.549,2.038-1.794,3.261
		c-2.364,10.761-4.402,21.605-7.174,32.203c-3.016,11.74-4.565,23.642-6.604,35.464c-2.527,13.941-4.565,27.882-7.989,41.579
		c-3.831,15.327-6.44,30.817-9.294,46.307c-2.527,13.859-4.484,27.882-7.011,41.741c-2.69,15.164-5.789,30.327-8.642,45.492
		c-1.631,9.131-2.935,18.343-4.891,27.393c-3.832,17.773-7.663,35.627-12.148,53.236c-5.217,20.708-8.315,41.823-15.327,62.042
		c-2.527,7.5-0.815,10.68,6.033,14.348c0.897,0.489,1.875,0.978,2.772,1.386c14.104,6.44,28.127,12.8,42.23,19.158
		c2.935,1.386,5.544,0.163,6.278-3.016c0.326-1.304,0.408-2.69,0.571-4.076c0.978-10.843,3.506-21.034,13.859-27.23
		c1.386-0.815,2.201-2.527,3.424-3.831c4.484-4.647,8.805-9.457,13.452-13.941c0.244-0.326,0.57-0.571,0.815-0.815
		c6.44-6.114,13.615-11.332,19.485-18.18c9.212-10.599,19.24-20.626,26.007-33.099c0.652-1.223,1.386-2.446,2.282-3.506
		c5.055-6.604,8.642-14.022,11.658-21.686c2.201-5.462,4.076-11.006,6.441-16.305c6.114-13.615,9.457-27.963,11.577-42.638
		c2.201-14.512,3.831-29.186,5.218-43.861C504.903,281.844,505.229,270.92,504.74,259.995z"/>
	<g>
		<path fill="#CA834E" d="M323.1,526.341c-6.441-3.669-6.848-10.191-0.815-14.919c0.652-0.489,2.038-0.734,2.772-0.408
			c2.201,0.978,4.239,2.283,6.277,3.587c9.049,5.625,18.588,10.028,29.431,11.006c1.06,0.081,2.12,0.245,3.098,0.571
			c7.419,2.609,14.838,5.136,22.257,7.826c2.527,0.978,4.973,2.201,5.788,5.299c1.06,3.75-0.082,6.196-3.75,6.93
			c-1.304,0.245-2.69,0.326-5.218,0.652c-4.729,0-10.517,0.081-16.305-0.245c-3.75-0.245-7.419-1.63-10.598-3.669
			c-9.865-6.196-20.545-10.761-31.061-15.816C324.405,526.83,323.753,526.667,323.1,526.341z"/>
		<path fill="#CA834E" d="M282.501,813.964c-2.853-3.18-3.343-7.419-1.141-11.332c0.489-0.815,1.386-1.386,1.794-1.875
			c3.261-0.815,7.582,1.06,9.375,3.75c1.712,2.69,1.304,7.174-0.815,9.539C289.349,816.573,284.702,816.491,282.501,813.964z"/>
		<path fill="#CA834E" d="M319.676,833.53c4.81-13.289,8.316-26.904,8.234-41.171c0-4.81,0.408-9.539,1.304-14.349
			c1.304-7.419,1.957-15.001,2.201-22.501c0.082-5.218,0.489-10.272,1.304-15.408c1.467-9.457,2.527-19.077,4.076-28.616
			c1.631-9.457,3.669-18.832,5.544-28.289c2.853-14.43,5.707-28.942,8.723-43.372c1.223-6.033,3.669-11.903,4.321-18.017
			c1.712-15.571,7.826-29.757,12.555-44.432c2.446-7.663,7.99-13.615,12.8-19.811c1.875-2.446,4.728-2.609,7.419-3.343
			c1.631-0.408,3.587-0.815,4.892,0.571c1.386,1.386,0.571,3.18-0.163,4.728c-4.892,10.272-9.539,20.545-12.066,31.795
			c-0.815,3.587-2.283,7.256-4.076,10.517c-3.506,6.441-6.114,13.044-6.93,20.381c-0.163,1.712-0.571,3.587-1.549,4.81
			c-5.625,6.767-6.277,15.164-8.479,23.072c-0.652,2.283-0.978,4.647-1.794,6.93c-2.772,7.337-3.832,15.082-4.973,22.827
			c-0.815,5.707-1.875,11.495-2.446,17.284c-0.652,6.033-3.098,11.903-4.81,17.854c-1.223,4.239-2.935,8.316-2.283,13.044
			c0.408,2.609-0.326,5.544-0.978,8.153c-3.832,13.941-3.995,28.371-5.707,42.638c-1.794,15.734-3.424,31.469-7.256,46.877
			c-0.326,1.304-0.897,2.69-0.897,3.995c0.082,6.196-3.18,10.843-6.196,15.979c-4.158,6.93-10.68,7.908-16.957,10.028
			c-1.223-0.163-2.283-0.082-3.18-0.489c-0.897-0.326-1.794-1.06-2.283-1.875c-0.489-0.897,0-1.875,0.897-2.609
			c4.158-3.016,8.316-6.033,12.392-9.131C316.089,839.482,318.453,836.873,319.676,833.53z"/>
		<path fill="#CA834E" d="M299.947,818.693c4.402-5.462,4.728-11.414,1.875-17.284c-2.935-5.951-7.827-9.457-15.001-8.479
			c-0.978,0.163-2.038,0.245-0.815,0.163c-2.935,0.163-3.587,0.163-4.321,0.245c-7.337,1.06-9.702,3.913-10.028,11.577
			c-0.163,4.239,0.408,8.234,2.12,11.984c3.995,9.212,8.397,9.62,16.305,8.56C294.485,824.97,297.257,821.872,299.947,818.693z
			 M289.267,766.108c2.201,3.261,6.196,4.565,9.865,3.343c2.853-0.897,4.484-4.321,4.076-8.397c-0.571-5.788-5.625-9.294-11.74-7.99
			c-1.386,0.326-2.446,1.06-3.016,2.446C286.984,759.179,286.984,762.766,289.267,766.108z M316.497,796.355
			c-1.06,7.5-2.038,15.001-2.69,22.501c-0.326,3.913-1.467,7.337-3.506,10.598c-3.995,6.522-9.212,11.984-14.512,17.284
			c-3.506,3.506-8.316,5.218-13.207,3.016c-11.577-5.136-24.295-7.663-34.893-15.164c-4.729-3.343-9.212-7.011-12.718-11.821
			c-2.12-2.853-3.18-6.114-3.913-10.598c0.082-0.978-0.082-3.098,0.489-5.055c2.364-7.5,4.729-14.838,8.397-22.012
			c7.419-14.267,15.571-28.289,20.708-43.698c2.283-6.767,5.625-13.37,7.174-20.381c2.12-9.702,7.337-18.425,8.071-28.534
			c0-0.978,0.326-2.038,0.815-2.935c7.582-16.631,12.147-34.322,16.957-51.851c2.527-9.131,6.522-18.099,6.93-27.8
			c0-0.652,0.245-1.386,0.489-1.957c7.093-16.224,9.375-33.752,15.327-50.301c1.712-4.892,1.712-10.109,2.038-15.245
			c0.163-3.424,1.957-4.729,4.647-3.424c7.663,3.913,16.224,5.544,23.806,9.783c6.033,3.343,12.963,4.565,19.648,6.114
			c1.875,0.489,2.527,2.201,1.712,3.995c-0.571,1.304-1.223,2.527-1.957,3.669c-7.337,11.414-11.169,24.132-14.349,37.257
			c-6.604,27.067-11.495,54.378-16.468,81.771c-3.913,21.604-7.093,43.372-10.68,65.058c-1.223,7.5-3.098,14.838-3.75,22.338
			C320.329,778.256,317.883,787.224,316.497,796.355z"/>
		<path fill="#705235" d="M162.82,949.868c6.359,2.12,12.963,2.935,19.648,2.446c-7.582-4.158-15.49-7.093-24.213-7.745
			c-2.283-0.163-5.788-2.201-6.441,0.245c-0.978,3.343,3.343,2.12,5.218,3.098C158.744,948.89,160.864,949.216,162.82,949.868z
			 M185.974,964.543c-2.446-1.304-4.81-2.935-7.337-3.669c-9.62-2.69-18.669-7.011-28.616-8.805
			c-3.995-0.734-7.826-2.446-11.821-3.587c-4.729-1.304-7.99-4.484-9.375-8.886c-2.038-6.196-4.484-12.31-5.055-18.914
			c-0.326-3.18,1.467-5.055,3.995-3.75c8.805,4.81,18.669,6.93,27.882,10.598c9.212,3.587,18.669,6.604,28.045,9.865
			c9.946,3.587,20.055,6.685,29.757,10.843c8.234,3.587,16.55,6.359,25.192,8.642c8.234,2.12,15.979,5.951,24.05,8.968
			c3.832,1.386,7.745,3.016,11.74,3.669c6.848,1.141,12.637,5.625,19.729,5.625c0.326,0,0.652,0.163,0.978,0.326
			c11.251,7.745,24.865,9.539,37.257,14.512c13.859,5.544,27.882,11.332,42.393,14.756c8.723,2.12,16.55,6.359,25.191,8.234
			c8.479,1.875,16.305,5.462,24.295,8.479c8.968,3.343,18.18,6.277,27.474,8.642c8.316,2.201,16.061,5.951,24.132,8.886
			c7.419,2.69,14.756,5.218,22.501,6.93c1.957,0.408,3.75,1.549,5.707,2.201c5.87,1.875,11.821,3.75,17.691,5.625
			c11.74,3.75,23.479,7.419,35.219,11.169c1.304,0.408,2.609,1.549,3.832,1.386c7.174-0.734,13.126,2.69,19.322,5.381
			c5.136,2.201,10.598,2.772,15.898,4.239c14.838,4.158,29.757,7.826,44.676,11.577c1.712,0.408,3.343,1.06,5.055,1.141
			c7.337,0.408,14.104,2.853,20.463,6.522c7.99,4.565,17.12,4.402,25.762,6.522c1.549,0.408,3.343-0.408,5.055-0.815
			c2.772-0.734,5.544-1.468,8.316-2.201l1.549,6.033c-0.489,0.163-1.06,0.408-1.549,0.734c-2.038,1.223-3.261,3.424-1.957,5.218
			c3.098,4.321,3.424,9.539,5.136,14.267c0.978,2.527,2.364,5.055,4.076,7.174c1.549,2.038,2.853,4.892,6.196,4.647l0.163,4.076
			c-10.517,0-21.115,1.712-31.224-2.446c-9.783-0.326-18.996-3.424-27.882-7.011c-19.648-8.153-40.518-12.392-60.248-20.545
			c-6.767-2.853-13.941-5.788-21.767-5.707c-0.652,0-1.386-0.082-1.957-0.326c-11.169-5.544-23.561-6.685-35.301-10.191
			c-17.773-5.299-36.116-8.153-53.889-13.533c-5.462-1.712-11.006-3.261-16.387-5.136c-5.544-1.875-11.169-3.506-16.794-5.136
			c-11.169-3.261-22.42-6.441-33.589-9.702c-3.261-0.978-6.522-2.12-9.783-3.343c-2.527-0.978-5.055-1.957-7.908-1.957
			c-1.712,0-3.506-0.245-5.055-0.978c-12.555-5.788-26.17-8.071-39.377-11.74c-15.327-4.239-29.92-10.191-44.676-15.898
			c-18.262-7.174-36.768-13.533-55.356-19.485c-14.104-4.565-28.126-9.049-42.067-13.859c-5.462-1.875-11.414-2.69-16.305-6.278
			c-0.734-0.571-1.875-0.815-2.853-0.978c-11.495-1.712-22.501-5.788-33.996-7.5c-6.277-0.978-11.332-4.81-17.447-5.951
			c-1.957-0.408-3.669-2.12-4.321-4.158c-0.897-3.261-2.609-6.441-1.304-10.598c15.653,1.386,30.898,6.196,46.714,6.278v-0.082
			c0.082,0,0.245,0,0.245,0.082c0-0.082,0-0.163,0.082-0.245c0.245-0.408-0.082-0.489-0.326,0.163
			C186.137,964.543,186.055,964.543,185.974,964.543z M186.463,964.706C186.218,965.195,186.789,964.787,186.463,964.706
			L186.463,964.706z"/>
		<path fill="#705235" d="M753.394,1111.534c0.163-1.06-0.081-2.038-0.081-2.854c-0.489-1.957-0.734-3.669-1.386-5.218
			c-0.652-1.712-2.038-3.098-3.995-2.446c-1.63,0.571-2.853,2.446-2.364,4.158c0.815,2.935,2.201,5.788,4.647,7.745
			c0.408,0.326,1.386,0.326,1.957,0C752.66,1112.675,753.313,1112.023,753.394,1111.534z M705.375,1098.653
			c5.87-1.549,11.74-3.098,17.691-4.484c9.865-2.283,18.751-6.848,26.659-12.963c7.582-5.788,15.653-11.169,22.094-18.506
			c1.304-1.467,3.016-2.853,4.81-3.832c10.598-5.87,19.485-13.941,28.534-21.849c3.343-2.935,7.093-5.381,10.761-7.99
			c3.343-2.364,7.419-4.158,10.028-7.093c5.788-6.522,12.881-8.642,21.278-8.397c2.609,3.669,2.772,8.316,3.995,12.555
			c1.957,6.604,3.75,13.207,6.441,19.566c1.63,3.913,0.652,4.973-3.995,6.033c-12.066,2.772-23.806,6.359-34.322,13.289
			c-4.484,2.935-7.093,7.337-11.169,10.517c-12.718,10.028-24.702,20.871-37.094,31.143c-6.359,5.299-13.044,10.028-19.566,15.082
			c-2.935,2.364-5.788,4.892-8.642,7.337c-1.304,1.141-2.772,2.038-4.728,1.631c-1.794-3.016-1.467-6.604-2.527-9.865
			c-0.571-1.875-1.875-2.772-3.75-3.016c-1.957-0.326-3.098,1.141-4.239,2.446c-1.141,1.386-1.304,3.179-1.06,4.891
			c0.489,3.098,1.06,6.033,3.506,8.397c1.631,1.63,0.652,3.098-1.141,4.076c-3.016,1.712-6.033,3.261-9.62,3.179
			c-0.082,0-0.245,0-0.326,0l-0.163-4.076c2.12-0.245,3.424-3.913,2.69-7.99c-1.223-8.397-5.87-15.327-9.702-22.501
			c-0.897-1.631-2.935-2.12-4.892-1.549L705.375,1098.653z"/>
		<path fill="#705235" d="M997.809,991.202c-8.071-4.729-16.468-8.397-25.762-9.946c-1.304-0.245-1.631-2.12-0.571-3.343
			c3.913-4.647,6.359-6.033,12.473-7.174c3.75-0.652,6.767-1.06,8.723,2.446c0.489,1.06,2.12,2.038,3.261,2.038
			c6.033,0.326,6.522,5.462,8.234,9.375c0.897,1.875-1.304,5.87-3.506,6.767C999.847,991.691,998.543,991.609,997.809,991.202z"/>
		<path fill="#705235" d="M1016.641,1081.532c0.408,0.734,1.712,1.304,2.446,1.223c0.815-0.163,1.794-0.978,2.283-1.794
			c1.386-2.12,0.652-4.565,0.571-5.299c-0.326-2.609-0.408-3.587-0.571-4.647c-0.163-0.652-0.408-1.304-0.652-1.875
			c-0.978-2.12-4.158-3.343-6.114-2.364c-1.794,0.978-2.038,2.772-1.794,4.402
			C1013.38,1074.847,1014.685,1078.353,1016.641,1081.532z M1001.559,1069.385c-0.408,0.082-1.06,0.815-1.06,1.304
			c0,1.386,0.245,2.772,0.652,5.625c0,1.223,0.652,3.913,1.957,6.359c0.652,1.141,1.549,2.609,3.18,1.467
			c0.652-0.489,1.386-1.875,1.141-2.527c-1.223-3.913-2.69-7.745-4.158-11.495
			C1003.108,1069.711,1002.13,1069.303,1001.559,1069.385z M996.504,1075.418c-0.978-3.75-1.875-7.826-4.239-11.25
			c-1.06-1.468-2.772-2.12-4.565-1.304c-1.304,0.652-2.12,1.875-1.957,3.343c0.489,3.424,0.815,6.848,1.63,10.109
			c0.815,3.179,3.18,5.299,6.114,6.604c0.978,0.408,2.201,0.081,2.364-1.06C996.178,1079.82,996.26,1077.782,996.504,1075.418z
			 M885.792,1029.356c1.794,0.163,2.446-2.12,1.794-6.93c-0.489-4.484-1.386-8.805-3.832-12.718
			c-0.652-0.897-1.712-1.467-2.609-0.978c-0.815,0.408-1.712,1.467-1.712,2.283c0.082,4.484,0.408,8.968,2.12,13.126
			C882.45,1026.095,882.531,1029.03,885.792,1029.356z M1058.301,1064.412c-8.479,6.522-18.099,11.251-26.333,18.017
			c-5.87,4.81-12.718,8.316-19.159,12.229c-6.685,3.995-14.267,4.729-21.849,5.055c-2.69,0.163-5.788-0.163-8.071-1.386
			c-7.582-3.995-14.919-8.397-23.316-10.598c-3.995-4.076-9.783-4.647-14.675-6.767c-4.402-1.957-9.212-3.016-12.637-6.685
			c-3.016-3.343-7.582-3.016-11.088-5.136c-5.299-3.179-10.761-5.951-16.061-9.131c-10.191-6.359-21.93-7.582-33.263-9.865
			c-1.386-0.245-2.772,0-4.158-0.163c-4.321-0.571-5.707-1.63-5.707-5.87c0.163-10.761-2.69-20.952-5.87-31.061
			c-0.571-1.712-0.081-3.424,1.06-4.892c0.408-0.489,1.141-1.06,1.63-0.978c0.978,0.163,2.364,0.571,2.527,1.223
			c1.957,6.604,3.669,13.289,5.544,19.892c0.978,3.587,2.201,7.174,3.424,10.761c0.163,0.571,0.897,1.223,1.386,1.223
			c1.467,0.163,1.386-1.141,1.467-2.12c0.163-5.544-1.957-10.843-1.875-16.387c-0.489-4.076-1.06-8.153-1.549-12.31
			c-0.652-5.544-0.163-6.114,5.625-7.582c3.75-0.897,7.337-0.734,11.169,0.082c12.31,2.364,23.153,7.99,34.404,13.126
			c8.153,3.669,13.289,10.598,19.811,15.979c6.93,5.788,14.022,11.006,22.583,14.022c3.832,1.386,7.663,3.18,11.088,5.462
			c2.772,1.794,5.788,2.283,8.805,2.364c8.316,0.082,16.224-1.468,24.213-4.321c16.142-5.788,29.023-16.468,42.393-26.577
			c8.316-6.196,15.734-13.37,23.398-20.3c2.527-2.283,4.158-1.63,4.729,1.957c1.467,8.805,2.853,17.61,3.913,26.496
			c0.652,5.707-2.12,10.68-5.381,15.001c-2.527,3.261-5.299,6.277-7.908,9.539
			C1065.638,1058.379,1062.133,1061.477,1058.301,1064.412z"/>
		<path fill="#705235" d="M1034.659,836.873c-2.201-9.865-2.201-9.946,5.951-15.816c2.446-1.794,4.81-5.544,7.663-4.321
			c3.424,1.386,2.283,5.951,2.609,9.212c0.734,6.522,1.712,12.881,3.75,19.24c2.364,7.419,1.63,14.593-5.381,19.24
			c-8.071,5.462-13.533,13.615-21.115,19.485c-6.277,4.81-12.31,9.865-18.017,15.408c-4.402,4.239-10.109,6.93-14.919,10.924
			c-2.609,2.201-5.218,4.321-7.663,6.685c-9.049,8.479-16.142,6.604-24.621-2.772c-4.647-5.136-6.277-12.392-3.913-19.485
			c2.609-7.663,4.973-15.245,12.392-20.708c7.093-5.299,12.8-12.392,20.381-17.447c7.419-4.892,14.756-9.946,21.115-16.224
			c1.304-1.223,3.261-0.571,4.239,1.141c1.875,3.261,2.609,7.174,5.462,9.865c0.489,0.408,1.223,0.734,1.875,0.734
			c1.223,0,1.793-1.141,1.63-2.12c-0.571-4.484-1.386-8.886-1.957-13.289c-0.082-0.489,0.326-1.304,0.815-1.63
			c1.06-0.815,2.12,0,2.527,0.815c1.386,3.098,2.69,6.278,3.75,9.539c1.467,4.239,2.609,8.56,6.441,11.414c0,0.082,0,0.163,0,0.245
			l0.408,0.571l-0.326-0.815h-0.082c0.734-4.81,0.652-9.457-1.468-13.941C1035.311,841.031,1035.066,838.911,1034.659,836.873z"/>
		<path fill="#705235" d="M995.445,960.711c-9.212-1.223-17.61,0.408-25.599,5.381c-8.968,5.625-12.229,11.088-10.843,20.952
			c1.223,8.071,7.826,18.751,14.43,21.36c15.49,6.114,28.534,1.794,38.154-12.637c2.283-3.424,2.935-7.663,2.446-11.903
			c-0.408-3.424-1.712-6.604-2.527-9.865C1009.549,965.113,1003.516,961.852,995.445,960.711z M762.444,757.222
			c1.141,0.081,2.364-0.082,3.587-0.245c0.082,0,0.163,0.082,0.245,0.082c0.082,0,0.163,0,0.245,0
			c0.815,2.12,2.69,2.772,4.729,3.261c3.343,0.734,6.685,1.386,9.946,2.446c11.088,3.669,22.094,7.5,33.181,11.088
			c7.093,2.364,14.349,4.321,21.36,6.93c9.294,3.424,19.322,4.239,28.453,8.234c4.402,1.875,9.294,2.446,13.859,3.913
			c9.457,3.098,18.833,6.522,28.289,9.62c5.462,1.794,11.088,3.18,16.631,4.892c12.147,3.75,24.213,7.663,36.279,11.495
			c1.304,0.408,2.69,0.571,4.076,0.652c0.571,0.082,1.549-0.245,1.712-0.652c0.571-1.141-0.326-1.957-1.223-2.364
			c-2.201-0.978-4.402-2.038-6.604-2.772c-14.512-5.136-29.023-10.354-43.535-15.327c-13.044-4.402-26.251-8.316-39.214-12.718
			c-9.131-3.098-18.669-4.239-27.719-7.745c-8.886-3.424-18.343-5.544-27.556-8.071c-15.898-4.321-31.877-8.56-47.774-12.718
			c-1.549-0.408-3.261-0.082-4.892-0.163c0,0-0.081-0.082-0.081-0.163c-0.163,0-0.245,0-0.408,0.081
			c-1.141-0.489-2.201-1.06-3.424-1.467c-2.201-0.815-3.75-0.326-2.69,0.571C760.568,756.733,761.547,757.141,762.444,757.222z
			 M393.702,955.901c-0.571,0.652-0.978,0.897-0.978,1.141c0,0.571-0.082,1.467,0.326,1.875c2.527,2.527,6.114,2.609,9.375,3.261
			c0.326,0.082,0.978-0.652,1.386-1.141c0.082-0.082-0.082-0.734-0.326-0.897C400.469,957.939,397.126,956.553,393.702,955.901z
			 M219.399,798.8c3.506,1.875,1.386,5.299,0.652,7.419c-2.69,7.174-0.571,13.37,2.853,19.648
			c6.359,11.984,15.898,20.381,28.371,25.681c6.033,2.527,12.229,4.647,17.936,7.99c2.772,1.712,6.359,2.201,9.62,3.098
			c6.604,1.957,13.126,4.321,19.811,5.707c9.049,1.875,17.12-0.897,23.806-7.011c11.251-10.354,17.528-23.398,20.463-38.317
			c3.995-20.3,5.788-40.844,8.805-61.226c1.712-11.088,2.527-22.42,6.114-33.344c2.527-7.337,3.343-15.408,4.239-23.235
			c0.652-5.707,3.016-9.62,7.826-12.473c4.484-2.609,8.316-6.033,11.984-9.783c6.277-6.522,14.593-10.109,22.094-14.919
			c1.467-0.978,3.098-1.63,4.484-2.609c15.898-10.843,31.795-21.686,47.693-32.529c1.712-1.141,3.18-2.609,4.728-3.995
			c7.908-6.93,17.528-10.598,27.311-14.104c2.12-0.734,4.076-0.163,6.033,0.408c6.604,1.875,13.207,3.75,19.729,5.788
			c24.621,7.745,49.079,15.653,73.699,23.398c18.017,5.625,35.79,11.821,54.296,15.816c9.702,2.12,18.914,6.278,28.371,9.62
			c7.745,2.69,15.327,6.278,23.235,8.234c8.397,2.038,16.224,5.625,24.458,8.071c6.767,2.038,13.533,4.973,20.3,7.419
			c11.577,4.239,23.643,7.174,35.138,11.577c12.147,4.647,25.191,6.767,36.85,12.718c1.549,0.815,3.18,1.386,4.892,1.794
			c14.756,3.424,28.453,10.272,42.801,15.001c13.615,4.484,27.148,9.294,40.437,14.838c11.495,4.729,23.072,9.457,35.056,12.31
			c11.821,2.69,22.746,7.5,34.159,11.332c10.761,3.506,21.034,8.397,31.551,12.718c13.37,5.544,26.659,11.169,39.948,16.713
			c1.304,0.571,2.527,1.141,3.669,1.794s1.141,3.016,0,3.587c-6.685,2.69-11.495,8.397-18.751,10.354
			c-4.728,1.304-9.212,4.647-13.126,7.99c-6.848,5.707-14.675,10.028-21.523,15.653c-2.12,1.712-4.239,1.794-6.767,0.815
			c-14.104-5.381-28.208-10.924-42.475-15.816c-11.006-3.832-22.338-6.767-33.589-10.028c-0.897-0.245-2.12,0.082-2.201,1.304
			c-0.082,0.489,0.571,1.223,1.141,1.467c4.81,1.875,9.702,3.587,14.43,5.544c10.517,4.239,21.034,8.479,31.388,13.126
			c5.707,2.527,11.332,4.973,17.202,7.011c2.853,1.06,5.951,1.875,8.316,4.402c-1.141,5.218-5.544,7.582-9.375,10.435
			c-1.875,1.386-3.832,0.489-5.707-0.652c-6.359-3.75-13.533-4.892-20.463-7.093c-0.897-0.245-2.038,0-3.016,0.082
			c-0.245,0-0.652,0.408-0.652,0.652c-0.082,0.571-0.163,1.63,0.163,1.794c2.038,1.141,4.158,2.283,6.359,3.261
			c5.544,2.527,11.169,5.055,16.876,7.582c-0.734,1.549-0.978,2.69-1.631,3.343c-12.31,12.31-12.473,27.637-10.761,43.372
			c0.326,2.446,1.304,4.565,3.016,6.441c3.098,3.75,6.522,7.011,10.843,9.375c4.484,2.527,9.457,4.076,13.37,7.663
			c0.815,0.734,2.853,1.223,3.832,0.734c5.055-2.283,9.702,0.245,14.022,1.631c13.778,4.321,27.963,7.174,41.904,10.68
			c7.011,1.794,14.022,3.424,20.626,6.441c2.446,1.223,4.81,2.69,7.093,4.158c5.218,3.261,8.805,7.5,8.968,14.104
			c0.081,6.441-1.141,12.31-5.544,17.202c-3.424,3.832-7.093,7.419-11.332,10.435c-7.093,4.81-14.104,9.783-20.952,14.838
			c-5.462,4.076-10.598,8.642-16.876,11.414c-3.506,1.549-6.114,4.402-8.723,7.174c-6.522,7.256-14.267,8.56-23.398,5.218
			c-9.049-3.343-17.447-7.99-25.844-12.474c-5.055-2.69-9.294-7.011-13.696-10.843c-14.104-12.392-30.409-21.115-48.1-26.659
			c-8.723-2.69-18.18-4.158-27.393-0.571c-1.549,0.571-3.343,0.978-4.973,1.06c-10.68,0.245-19.974,4.892-29.349,9.049
			c-2.201,0.978-4.402,2.12-6.359,3.506c-6.359,4.647-12.637,9.375-18.914,14.104c-3.832,2.935-7.5,6.033-11.414,8.886
			c-7.745,5.707-14.349,12.718-22.257,18.099c-0.815,0.571-1.467,1.549-2.283,2.12c-15.49,9.131-27.23,23.153-42.964,32.04
			c-3.832,2.12-7.745,4.321-11.74,6.278c-7.419,3.669-15.408,3.669-23.235,3.016c-5.707-0.489-11.414-1.875-17.12-3.098
			c-12.066-2.609-23.561-7.337-35.708-9.783c-3.75-0.652-7.5-1.141-11.251-1.712c-5.381-0.734-10.924-1.141-15.979-3.587
			c-1.794-0.815-3.995-0.897-6.033-1.304c-6.441-1.141-12.8-2.69-18.833-5.381c-2.446-1.141-5.136-1.957-7.826-2.609
			c-6.522-1.712-13.778-1.141-18.996-6.685c-7.99-2.12-15.898-4.647-23.969-6.115c-5.462-0.978-10.598-2.853-15.734-4.728
			c-7.011-2.609-13.615-6.685-21.36-7.5c-1.223-0.081-2.446-1.141-3.669-1.712c-7.582-3.261-15.164-6.441-23.153-8.56
			c-12.637-3.343-24.947-7.745-37.094-12.473c-7.99-3.098-16.305-5.462-24.376-8.234c-6.196-2.201-12.229-4.729-18.506-6.604
			c-6.848-2.038-13.859-3.669-20.545-6.359c-6.93-2.853-14.022-5.544-20.952-8.316c-0.978-0.408-1.875-1.06-2.853-1.223
			c-15.164-3.261-28.942-10.68-43.861-14.838c-12.963-3.587-25.273-8.723-37.91-13.207c-9.946-3.587-20.381-5.951-30.409-9.375
			c-7.174-2.446-14.267-5.055-21.278-7.826c-10.843-4.239-22.257-6.93-33.018-11.332c-9.865-4.076-19.974-7.5-29.675-11.821
			c-8.234-3.669-16.876-5.87-25.599-7.582c-5.055-0.978-8.397-2.935-9.131-8.153c-0.245-1.794-0.489-3.424-1.712-4.729
			c-3.343-3.587-2.853-8.397-1.304-11.74c3.587-8.153,5.707-16.957,11.495-24.132c2.364-3.016,4.647-5.87,8.071-7.745
			c6.359-3.424,11.251-8.886,17.61-12.473c10.517-5.951,20.463-12.718,30.572-19.24c8.723-5.544,17.283-11.169,26.007-16.713
			C214.834,799.534,216.954,797.414,219.399,798.8z M248.097,914.404c-0.489-0.326-0.978-0.734-1.549-0.978
			c-21.604-6.848-43.698-11.577-65.873-16.142c-0.978-0.163-2.038,0-1.957,1.794c1.386,0.652,2.772,1.467,4.402,1.957
			c13.452,4.076,26.904,8.153,40.763,10.517C231.954,912.855,239.862,915.056,248.097,914.404c0.082,0.081,0.082,0.163,0.163,0.163
			s0.245,0,0.326,0c-0.082-0.082-0.163-0.082-0.245-0.163C248.26,914.404,248.178,914.404,248.097,914.404z M294.729,911.877
			c0.897,0.082,2.12-0.163,2.201-1.386c0-0.489-0.652-1.223-1.141-1.467c-12.963-5.625-26.251-10.272-40.029-13.207
			c-15.408-3.261-30.98-6.033-46.551-8.479c-9.049-1.467-17.936-3.832-27.067-3.832c-0.082-0.082-0.163-0.163-0.163-0.245
			l-0.326-0.082l0.163,0.326c0.082,0,0.163,0,0.326,0c0.897,1.957,2.69,2.772,4.484,3.587c14.022,5.788,28.453,10.272,43.29,13.289
			c18.832,3.75,37.746,7.011,56.66,10.435C289.267,911.306,291.958,911.632,294.729,911.877z M303.127,926.796
			c-0.082,0.571,0.082,1.631,0.489,1.875c1.467,0.897,2.935,1.712,4.565,2.283c17.12,6.359,34.567,11.495,52.095,16.55
			c3.261,0.897,6.685,1.467,10.109,1.875c0.652,0.082,1.712-0.897,2.201-1.631c0.571-0.978,0.245-2.201-0.652-2.69
			c-3.995-1.957-7.745-4.484-12.229-5.544c-17.691-4.239-35.382-8.479-52.666-14.349c-0.978-0.245-2.038-0.163-2.935-0.245
			C303.697,925.655,303.208,926.225,303.127,926.796z"/>
	</g>
	<g>
		<path fill="#CCB68E" d="M625.575,828.701c8.287-13.406,16.945-30.978,12.736-46.088c-3.782-13.577-8.237-29.849-13.877-43.018
			c-9.944-23.221-33.331-38.962-56.997-47.794c-11.205-4.182-23.211-6.22-33.959-11.466c-5.152-2.514-9.889-5.918-13.747-10.17
			c-3.226-3.554-3.526-17.112-9.086-17.299c-8.783-0.296-23.896,27.006-27.889,33.918c-3.789,6.56-6.282,7.027-12.354,12.569
			c-5.847,5.339-14.742,11.941-21.509,15.958c-18.451,10.952-32.424,27.314-43.66,45.594c-11.236,18.28-15.714,41.546-8.134,61.619
			c2.918,7.728,7.47,14.724,12.215,21.486c4.718,6.723,9.684,13.31,15.455,19.153c22.248,22.528,57.177,27.482,87.956,20.057
			c13.141-3.17,24.817-4.338,37.357-9.386c13.864-5.581,28.207-10.045,41.599-16.679
			C605.075,850.519,617.716,841.414,625.575,828.701z"/>
		<path fill="#CCB68E" d="M789.628,894.521c5.403-18.01-0.773-38.944-15.086-51.138c-9.715-8.276-22.087-12.224-34.426-14.581
			c-13.669-2.61-21.179-0.993-34.156,3.189c-25.44,8.197-39.896,26.251-69.037,40.127c-15.589,7.424-29.09,19.213-34.504,35.608
			c-7.128,21.583,2.275,47.461,21.595,59.434c15.864,9.831,35.903,10.253,54.288,7.036c18.385-3.216,36.08-9.719,54.49-12.783
			c13.849-2.305,18.87-4.023,32.492-7.421c2.093-0.523,13.528,0.111,14.644-1.735c0.904-1.495,4.936-4.156,4.784-5.897
			c-0.724-8.264-6.537-15.801-5.218-23.991C781.067,912.594,786.784,904.004,789.628,894.521z"/>
	</g>
	<g>
		<polygon fill="#403F41" points="1037.757,856.765 1038.083,857.581 1037.675,857.01 		"/>
		<path fill="#403F41" d="M1037.757,856.765l-0.082,0.245c0-0.082,0-0.163,0-0.245H1037.757z"/>
		<path fill="#CA834E" d="M1019.087,1082.755c-0.734,0.082-2.038-0.489-2.446-1.223c-1.957-3.18-3.261-6.685-3.832-10.354
			c-0.245-1.631,0-3.424,1.794-4.402c1.957-0.978,5.136,0.245,6.114,2.364c0.245,0.571,0.489,1.223,0.652,1.875
			c0.163,1.06,0.245,2.038,0.571,4.647c0.082,0.734,0.815,3.18-0.571,5.299C1020.881,1081.777,1019.902,1082.592,1019.087,1082.755z
			"/>
		<path fill="#CA834E" d="M1000.499,1070.689c0-0.489,0.652-1.223,1.06-1.304c0.571-0.082,1.549,0.326,1.712,0.734
			c1.467,3.75,2.935,7.582,4.158,11.495c0.245,0.652-0.489,2.038-1.141,2.527c-1.63,1.141-2.527-0.326-3.18-1.467
			c-1.304-2.446-1.957-5.136-1.957-6.359C1000.744,1073.461,1000.499,1072.075,1000.499,1070.689z"/>
		<path fill="#CA834E" d="M987.374,1076.315c-0.815-3.261-1.141-6.685-1.63-10.109c-0.163-1.467,0.652-2.69,1.957-3.343
			c1.794-0.815,3.506-0.163,4.565,1.304c2.364,3.424,3.261,7.5,4.239,11.25c-0.245,2.364-0.326,4.402-0.652,6.441
			c-0.163,1.141-1.386,1.468-2.364,1.06C990.553,1081.614,988.189,1079.494,987.374,1076.315z"/>
		<path fill="#CA834E" d="M992.673,973.184c-1.957-3.506-4.973-3.098-8.723-2.446c-6.114,1.141-8.56,2.527-12.473,7.174
			c-1.06,1.223-0.734,3.098,0.571,3.343c9.294,1.549,17.691,5.218,25.762,9.946c0.734,0.408,2.038,0.489,2.853,0.163
			c2.201-0.897,4.402-4.892,3.506-6.767c-1.712-3.913-2.201-9.049-8.234-9.375C994.792,975.222,993.162,974.244,992.673,973.184z
			 M959.003,987.044c-1.386-9.865,1.875-15.327,10.843-20.952c7.99-4.973,16.387-6.604,25.599-5.381
			c8.071,1.141,14.104,4.402,16.061,13.289c0.815,3.261,2.12,6.441,2.527,9.865c0.489,4.239-0.163,8.479-2.446,11.903
			c-9.62,14.43-22.664,18.751-38.154,12.637C966.829,1005.795,960.225,995.115,959.003,987.044z"/>
		<path fill="#CA834E" d="M887.586,1022.426c0.652,4.81,0,7.093-1.794,6.93c-3.261-0.326-3.343-3.261-4.239-5.218
			c-1.712-4.158-2.038-8.642-2.12-13.126c0-0.815,0.897-1.875,1.712-2.283c0.897-0.489,1.957,0.082,2.609,0.978
			C886.2,1013.621,887.097,1017.942,887.586,1022.426z"/>
		<path fill="#CA834E" d="M766.52,757.059c1.631,0.082,3.343-0.245,4.892,0.163c15.898,4.158,31.877,8.397,47.774,12.718
			c9.212,2.527,18.669,4.647,27.556,8.071c9.049,3.506,18.588,4.647,27.719,7.745c12.963,4.402,26.17,8.316,39.214,12.718
			c14.512,4.973,29.023,10.191,43.535,15.327c2.201,0.734,4.402,1.794,6.604,2.772c0.897,0.408,1.794,1.223,1.223,2.364
			c-0.163,0.408-1.141,0.734-1.712,0.652c-1.386-0.082-2.772-0.245-4.076-0.652c-12.066-3.832-24.132-7.745-36.279-11.495
			c-5.544-1.712-11.169-3.098-16.631-4.892c-9.457-3.098-18.832-6.522-28.289-9.62c-4.565-1.467-9.457-2.038-13.859-3.913
			c-9.131-3.995-19.159-4.81-28.453-8.234c-7.011-2.609-14.267-4.565-21.36-6.93c-11.088-3.587-22.094-7.419-33.181-11.088
			c-3.261-1.06-6.604-1.712-9.946-2.446C769.21,759.831,767.335,759.179,766.52,757.059z"/>
		<path fill="#403F41" d="M766.438,756.896c0,0.081,0.081,0.163,0.081,0.163c-0.081,0-0.163,0-0.245,0L766.438,756.896z"/>
		<path fill="#403F41" d="M766.438,756.896l-0.163,0.163c-0.081,0-0.163-0.082-0.245-0.082
			C766.194,756.896,766.275,756.896,766.438,756.896z"/>
		<path fill="#CA834E" d="M766.031,756.978c-1.223,0.163-2.446,0.326-3.587,0.245c-0.897-0.082-1.875-0.489-2.527-1.141
			c-1.06-0.897,0.489-1.386,2.69-0.571C763.83,755.918,764.889,756.488,766.031,756.978z"/>
		<path fill="#CA834E" d="M753.313,1108.68c0,0.815,0.245,1.794,0.081,2.854c-0.081,0.489-0.734,1.141-1.223,1.386
			c-0.571,0.326-1.549,0.326-1.957,0c-2.446-1.957-3.832-4.81-4.647-7.745c-0.489-1.712,0.734-3.587,2.364-4.158
			c1.957-0.652,3.343,0.734,3.995,2.446C752.579,1105.012,752.823,1106.724,753.313,1108.68z"/>
		<path fill="#403F41" d="M741.736,937.557c-0.081,0.082-0.081,0.163-0.163,0.245c-0.245,0.081-0.408,0.081-0.652,0.163
			c0.163-0.082,0.326-0.163,0.489-0.326C741.491,937.639,741.654,937.639,741.736,937.557z"/>
		<path fill="#CA834E" d="M708.555,1124.904c-1.712-4.729-2.038-9.946-5.136-14.267c-1.304-1.794-0.082-3.995,1.957-5.218
			c0.489-0.326,1.06-0.571,1.549-0.734c1.957-0.571,3.995-0.082,4.892,1.549c3.832,7.174,8.479,14.104,9.702,22.501
			c0.734,4.076-0.571,7.745-2.69,7.99c-3.343,0.245-4.647-2.609-6.196-4.647C710.919,1129.959,709.533,1127.431,708.555,1124.904z"
			/>
		<path fill="#403F41" d="M708.718,860.597c0,0.082,0.081,0.082,0.081,0.163c-0.081,0-0.163,0-0.245,0c0-0.082,0-0.082-0.082-0.163
			C708.555,860.597,708.636,860.597,708.718,860.597z"/>
		<path fill="#403F41" d="M706.354,858.722c0,0.081,0,0.163,0.081,0.245c-0.081,0-0.163,0-0.245,0L706.354,858.722z"/>
		<path fill="#403F41" d="M672.602,917.91c-0.081,0-0.163,0-0.245,0l-0.326-0.326l0.326,0.163
			C672.439,917.828,672.521,917.91,672.602,917.91z"/>
		<path fill="#403F41" d="M643.905,892.148l-0.489-0.082c0-0.081,0-0.163-0.081-0.245c0.081,0.082,0.163,0.082,0.245,0.163
			L643.905,892.148z"/>
		<path fill="#CA834E" d="M767.661,842.58c-9.375-7.011-19.648-12.392-31.55-13.615c-1.712-0.163-3.424-0.734-5.055,0.163
			c-0.897,0.489-1.875,1.141-1.63,2.283c0.081,0.489,0.815,1.141,1.304,1.223c6.685,0.489,12.8,2.446,18.017,6.685
			c16.224,13.126,30.246,27.882,34.567,49.405c0.082,0.489,1.141,1.304,1.223,1.304c0.815-0.571,2.038-1.223,2.12-1.957
			c0.326-5.136,0.408-10.191,0.571-13.289c-1.386-9.946-3.995-17.284-9.702-23.153C774.428,848.45,771.248,845.27,767.661,842.58z
			 M681.407,849.265c-0.489,0.082-1.304,0.489-1.386,0.978c-0.408,1.06,0.408,1.63,1.386,1.712c0.978,0.163,1.794-0.245,2.038-1.304
			C683.282,849.509,682.385,849.102,681.407,849.265z M672.031,917.584l0.326,0.326c0.082,0,0.163,0,0.245,0
			c3.913,3.343,7.5,6.93,11.658,9.702c11.74,7.99,24.295,11.903,38.643,6.93c10.354-3.506,19.24-8.968,27.311-16.061
			c9.049-8.071,11.903-18.262,8.723-29.92c-4.158-15.001-12.555-27.474-24.865-36.931c-7.337-5.707-15.653-9.946-25.681-8.723
			c-2.364,0.326-4.81-0.408-7.174-0.489c-1.386,0-2.772,0.326-3.995,0.734c-0.489,0.163-0.734,0.978-0.897,1.549
			c-0.082,0.245,0.163,0.734,0.408,0.815c1.467,0.734,3.098,1.467,4.647,2.12c13.452,6.359,26.007,13.859,36.442,24.702
			c8.968,9.457,9.783,22.257,1.794,32.447c-4.973,6.441-11.088,11.169-18.588,14.267c-7.093,2.935-14.43,4.239-22.012,5.055
			c-3.913,0.489-7.337,0-11.088-1.141c-5.136-1.63-9.702-4.973-15.327-5.055c-0.081,0-0.163-0.082-0.245-0.163L672.031,917.584z
			 M639.503,885.707c-0.734-0.652-1.467-1.304-2.201-1.957c-0.571-0.734-0.978-1.549-1.63-2.201c-0.815-0.734-1.875-0.815-2.527,0
			c-0.815,0.897-0.163,1.794,0.489,2.364c0.734,0.571,1.63,1.06,2.364,1.549c0.815,0.571,1.63,1.141,2.364,1.712
			c0.978,2.201,2.935,3.587,4.973,4.647c0.081,0.082,0.081,0.163,0.081,0.245l0.489,0.082l-0.326-0.163
			c-0.082-0.082-0.163-0.082-0.245-0.163C642.764,889.294,641.948,886.93,639.503,885.707z M640.807,875.924
			c-0.815,0.978-0.408,2.038,0.163,2.772c0.815,1.141,1.712,2.283,2.853,2.935c7.337,4.565,13.37,10.68,19.974,16.142
			c7.093,5.87,14.512,11.169,23.235,14.919c14.022,5.87,26.659,4.402,39.051-3.75c5.299-3.424,9.294-7.99,11.74-13.941
			c1.386-3.424,1.386-6.604-0.571-9.783c-4.565-7.663-8.968-15.49-17.936-18.996c-1.875-0.734-3.343-2.364-5.055-3.587
			c-1.631-1.141-3.343-1.957-5.462-1.875c0-0.082-0.081-0.082-0.081-0.163c-0.082,0-0.163,0-0.245,0
			c-0.326-1.141-0.978-1.63-2.038-1.63c-0.081-0.082-0.081-0.163-0.081-0.245l-0.163,0.245c0.082,0,0.163,0,0.245,0
			c0.245,0.978,0.978,1.549,2.038,1.63c0.082,0.082,0.082,0.082,0.082,0.163c0.082,0,0.163,0,0.245,0
			c1.386,2.853,4.321,4.158,6.522,6.114c3.913,3.587,7.663,7.663,7.663,13.044c-0.082,12.473-5.055,21.278-17.773,24.213
			c-7.908,1.875-15.245,0.082-21.767-4.076c-8.316-5.299-16.305-11.332-24.376-17.12c-1.06-0.815-2.038-1.875-2.935-2.935
			c-0.897-1.141-3.098-1.549-2.364-3.995c8.886,2.609,16.142,7.827,23.153,13.207c4.402,3.424,9.294,6.033,14.022,8.56
			c5.625,3.016,12.066,2.772,18.099,0.734c8.071-2.69,11.332-11.984,7.011-19.403c-2.364-3.913-5.381-7.093-9.294-9.457
			c-8.316-5.055-17.202-8.642-26.414-11.658c-2.772-0.978-5.87-2.283-9.049-1.223c-0.489,0.163-0.815,0.815-1.141,1.386
			c-0.082,0.163,0.163,0.734,0.326,0.815c0.897,0.489,1.875,0.978,2.853,1.223c9.62,2.364,17.528,7.663,24.621,14.349
			c2.609,2.364,4.565,5.136,6.033,8.316c1.386,3.016-0.245,6.441-3.669,7.093c-1.63,0.245-3.424,0.245-5.055-0.163
			c-14.186-3.75-26.904-10.272-37.583-20.381c2.772,0.245,5.218,1.467,7.663,2.853c4.239,2.283,8.316,4.81,12.718,6.848
			c4.973,2.283,10.191,4.158,15.327,6.033c1.63,0.652,3.832,1.141,4.647-0.652c0.815-1.712-0.978-3.098-2.12-4.321
			c-0.978-0.978-1.957-1.957-3.016-2.772c-9.539-7.011-20.218-11.658-31.795-14.186c-0.326-0.081-0.652-0.163-0.978-0.163
			c-2.12-0.163-3.016,0.897-3.343,3.995c-0.082,0.652,0.163,1.386,0.326,2.038c-0.897-0.489-1.875-1.63-2.527-1.467
			C649.123,868.831,644.476,871.603,640.807,875.924z M609.99,887.093c3.261-2.446,6.767-4.728,10.191-6.93
			c18.425-12.066,36.85-23.969,55.275-36.034c3.75-2.446,7.826-4.076,12.147-5.544c7.745-2.69,15.245-6.196,22.746-9.539
			c8.234-3.75,16.957-5.625,25.844-6.848c7.337-0.978,14.675,0.571,21.197,3.098c10.435,4.076,20.789,8.886,28.045,18.343
			c2.772,3.506,5.299,7.174,7.826,10.843c3.995,5.544,5.951,11.821,6.033,18.343c0.082,10.272-0.489,20.626-4.892,30.246
			c-2.853,6.196-4.892,12.718-8.886,18.506c-3.506,4.973-3.18,11.088-1.712,16.957c0.571,2.69,2.201,5.136,1.712,7.99
			c-0.081,0.571-0.571,1.304-1.141,1.549c-0.489,0.245-1.467,0.163-1.794-0.163c-3.669-3.424-5.707-7.745-7.093-12.392
			c-0.489-1.63-0.652-3.343-1.06-5.055c-0.489-1.875-2.283-2.364-4.076-1.304c-0.571,0.326-1.304,0.571-1.712,1.06
			c-4.729,5.136-11.088,8.153-16.631,12.147c-11.495,8.316-12.963,9.62-11.658,10.191c5.055,2.038,10.109-0.571,15.164-0.163
			c2.69,0.245,5.381-1.141,8.071-1.549c1.467-0.245,2.853,0.408,3.261,1.794c0.326,1.141-0.489,2.038-1.467,2.446
			c-4.076,1.875-7.99,3.995-12.229,5.299c-5.625,1.712-11.332,3.18-17.12,3.913c-14.43,1.875-28.126,6.114-41.741,11.169
			c-12.963,4.81-26.496,7.827-40.274,8.071c-9.375,0.163-18.099-2.772-26.333-7.663c-6.277-3.75-11.088-8.968-16.55-13.533
			c-0.978-0.815-2.038-1.875-2.69-3.016c-2.201-3.913-4.973-7.582-6.196-11.821c-3.832-13.696-6.033-27.556,0.897-41.171
			c1.549-3.098,3.75-5.707,6.93-7.419c1.957-1.06,4.973,0.408,4.402,2.446c-1.304,4.892,1.06,8.479,3.098,12.555
			c3.18,6.114,6.441,12.066,10.924,17.365c1.141,1.304,1.957,2.853,2.69,4.402c3.669,7.256,17.202,22.094,23.969,26.088
			c1.467,0.815,3.18,1.304,4.647,2.201c1.386,0.734,3.913,0.978,3.016,3.261c-0.652,1.712-2.935,1.875-4.565,1.712
			c-9.539-0.734-18.425-3.75-24.458-11.414c-7.419-9.375-16.224-17.773-21.278-28.86c-1.06-2.364-2.527-4.81-5.136-6.033
			c-1.875,1.467-1.386,3.261-1.223,4.81c0.815,6.604,3.75,12.473,6.114,18.588c0.489,1.223,1.549,2.283,2.527,3.18
			c6.44,5.625,12.963,11.332,19.485,16.876c4.321,3.669,9.212,5.462,15.164,5.381c6.196-0.163,12.392-0.082,18.506-0.734
			c5.87-0.571,11.577-1.712,16.957-4.239c3.016-1.549,6.441-2.201,9.702-3.343c0.978-0.326,2.038-0.897,1.957-2.12
			c-0.082-1.141-1.141-1.549-2.201-1.631c-9.539-1.06-19.077-2.772-28.045-6.277c-14.43-5.544-27.067-13.452-34.812-27.556
			c-3.098-5.625-7.826-10.354-9.457-16.957c-0.978-3.995-2.12-7.99-1.712-12.229c0-0.489,0.571-1.223,1.06-1.386
			c0.326-0.163,1.304,0.408,1.467,0.815c2.038,7.663,4.565,15.164,9.294,21.686c7.337,10.191,16.142,18.588,27.882,23.806
			c10.517,4.565,21.441,7.337,32.773,8.397c17.365,1.712,33.752-0.815,48.1-11.74c0.245-0.082,0.408-0.082,0.652-0.163
			c0.082-0.082,0.082-0.163,0.163-0.245c6.93-0.897,12.392-5.136,18.099-8.56c11.658-7.093,18.914-16.713,17.202-31.224
			c-0.163-1.304,0.082-2.772,0.245-4.076c0.571-6.441-1.223-12.392-3.913-17.936c-6.359-12.8-14.919-23.806-26.414-32.366
			c-10.843-8.153-22.99-10.517-36.116-8.316c-2.283,0.326-4.647,1.141-4.973,4.076c1.631,1.141,3.343,0.734,5.055,0.571
			c14.919-1.631,26.904,4.402,36.687,15.001c5.788,6.278,10.517,13.533,15.001,20.871c5.544,8.968,5.218,18.914,5.055,28.86
			c0,0.978-0.408,2.038-0.897,2.935c-2.935,5.788-5.625,11.495-10.598,16.142c-4.892,4.565-10.761,8.234-14.43,14.022
			c-0.081,0.082-0.245,0.082-0.326,0.082c-0.163,0.163-0.326,0.245-0.489,0.326c-2.364,0.652-4.892,1.223-7.256,1.957
			c-7.908,2.527-16.061,3.832-24.295,4.321c-6.685,0.408-12.636-2.201-18.669-4.973c-13.859-6.522-25.355-16.387-36.85-26.251
			c-8.153-6.93-15.653-14.349-21.278-23.643c-3.098-5.218-4.647-5.381-10.109-2.446c-3.995,2.12-7.745,4.484-11.658,6.604
			c-1.223,0.652-2.609,0.897-3.913,1.223c-0.326,0.082-0.815-0.163-0.978-0.326c-0.245-0.571-0.571-1.304-0.408-1.875
			C606.158,890.109,608.115,888.479,609.99,887.093z"/>
		<path fill="#403F41" d="M555.531,840.949c0,0.081,0,0.081,0.081,0.163l-0.163,0.082
			C555.449,841.112,555.531,841.031,555.531,840.949z"/>
		<path fill="#403F41" d="M493.816,876.087l-0.082,0.245c0-0.081,0-0.163-0.082-0.245
			C493.734,876.087,493.734,876.087,493.816,876.087z"/>
		<path fill="#403F41" d="M484.033,720.617c0,0.082,0,0.082,0,0.163c-0.571,0.897-1.141,1.875-1.712,2.772
			c0-0.082-0.163-0.163-0.163-0.163c0.571-0.978,1.141-1.875,1.712-2.772C483.951,720.617,483.951,720.617,484.033,720.617z"/>
		<path fill="#CA834E" d="M534.579,791.3c-0.978,7.745-0.082,15.245,3.424,22.094c5.055,9.62,10.68,18.996,17.528,27.556
			c0,0.081-0.082,0.163-0.082,0.245l0.163-0.082c-0.081-0.082-0.081-0.082-0.081-0.163c1.549-4.402,0.326-8.642-0.978-12.881
			c-2.527-8.56-5.136-17.039-7.582-25.681c-1.386-4.729-3.995-8.642-7.174-12.31c-0.897-1.06-2.201-1.875-3.587-1.06
			C535.394,789.425,534.66,790.485,534.579,791.3z M475.309,852.037c-5.381-12.718-11.74-25.436-11.821-39.948
			c-0.163-11.984-1.304-23.887,2.038-35.708c2.038-7.256,3.343-14.675,4.973-22.012c0.326-1.467,0.326-2.853-1.467-3.098
			c-1.141-0.163-1.794,0.815-2.12,1.794c-2.201,7.256-6.359,13.941-6.848,21.523c-0.734,12.31-5.055,24.05-5.055,36.361
			c-2.853,4.81-0.734,9.375,0.897,13.778c2.527,7.093,5.951,13.941,7.99,21.197c2.364,8.805,7.99,15.245,14.512,20.708
			c4.565,3.832,8.56,8.968,15.245,9.457c0.082,0.082,0.082,0.163,0.082,0.245l0.082-0.245c-0.082,0-0.082,0-0.163,0
			c-0.326-2.609-2.283-3.995-4.076-5.299C483.054,865.815,478.326,859.13,475.309,852.037z M630.861,802.388h0.571l-0.245-0.571
			L630.861,802.388z M576.891,853.341c-0.734,3.506,0.897,5.218,4.402,4.239c1.712-0.408,3.506-0.734,4.892-1.712
			c3.506-2.69,7.582-4.321,11.577-5.951v-0.082c1.386-0.571,2.772-1.141,4.076-1.794c4.973-2.364,9.702-5.136,14.43-7.99
			c3.424-2.12,4.892-4.565,4.484-8.397c-1.223-11.169-2.446-22.338-3.75-33.589c-0.163-1.386-0.326-2.772-0.897-3.995
			c-1.63-3.587-1.875-7.256-1.712-11.088c0.082-1.712,0-3.506-0.489-5.136c-4.402-14.022-12.474-26.251-22.175-36.85
			c-6.848-7.419-16.224-12.473-24.458-18.588c-0.815-0.652-1.794-1.06-2.772-1.304c-6.114-1.386-11.577-4.402-17.365-6.685
			c-6.685-2.609-13.615-4.728-20.952-5.136c-14.185-0.734-24.376,5.788-31.469,17.691c-1.549,2.69-2.935,5.462-4.484,8.153
			c-4.647,8.153-7.256,17.039-8.968,26.17c-1.712,9.375-2.853,18.914-4.076,28.453c-0.734,5.462-1.875,10.843-0.734,16.387
			c1.141,6.033,2.609,12.066,3.261,18.099c0.897,8.805,4.321,16.631,8.234,24.295c5.299,10.272,13.126,18.506,22.746,24.865
			c5.136,3.343,10.598,4.973,16.713,2.853c1.223-0.408,2.853-0.652,2.527-2.527c-0.245-0.897-0.897-1.957-1.712-2.364
			c-1.467-0.815-3.098-1.223-4.728-1.712c-8.479-2.609-15.408-7.5-21.115-14.104c-5.136-5.788-7.174-13.126-9.946-20.218
			c-6.196-15.898-8.723-32.366-10.191-49.242c-0.326-4.484,0.245-9.049,1.875-13.207c3.343-8.234,5.707-16.794,10.598-24.458
			c6.114-9.539,13.778-16.876,23.398-22.664c8.316-4.892,17.039-4.647,24.865-1.549c10.435,4.158,20.708,9.212,28.86,17.61
			c8.723,8.968,15.164,19.322,21.278,30.246c8.479,14.919,10.354,31.061,11.251,47.53c0,0.734-0.163,1.386-0.245,2.038
			c-0.897,4.729-1.712,9.457-2.853,14.104c-0.815,3.75-2.446,7.174-5.218,9.946c-2.12,2.12-4.973,2.935-6.441,1.712
			c-1.875-1.63-1.304-3.669-0.734-5.707c3.995-12.963,4.239-26.333,3.424-34.975c-3.261-25.518-9.212-38.48-22.746-53.481
			c-7.99-8.968-18.343-14.267-29.186-18.914c-6.359-2.69-12.555-2.12-17.773,1.06c-9.457,5.788-17.691,13.207-23.479,22.827
			c-9.539,15.653-9.946,32.773-6.277,49.894c1.794,7.99,4.076,15.979,6.441,23.887c2.446,7.99,7.174,14.838,12.147,21.36
			c1.467,1.875,3.669,3.261,5.707,4.402c8.153,4.484,16.876,7.582,25.599,10.68c1.304,0.489,2.69,0.571,4.076,0.652
			c0.571,0,1.386-0.408,1.712-0.897c0.245-0.489,0.245-1.467-0.082-1.875c-1.141-1.631-2.364-3.424-3.832-4.81
			c-6.522-6.196-11.903-13.207-17.12-20.544c-7.011-9.702-10.761-20.626-14.675-31.632c-1.386-3.832-3.098-7.908-3.016-11.903
			c0.163-5.87-0.897-11.658-1.06-17.447c-0.245-5.707,0.978-10.924,3.669-15.898c5.544-10.354,14.756-13.452,25.191-8.479
			c2.527,1.223,4.81,2.853,7.256,4.076c12.881,6.522,20.871,17.447,26.577,30.328c1.223,2.853,2.364,5.788,3.261,8.723
			c3.75,12.555,7.419,25.11,5.462,38.48C579.336,842.661,578.032,847.961,576.891,853.341z M571.265,819.997
			c0.652-7.337-2.283-14.919-3.832-22.583c-1.467-6.93-4.565-13.859-9.212-19.403c-7.256-8.642-17.12-13.696-27.882-16.876
			c-2.446-0.734-4.892-0.245-6.604,1.794c-7.256,9.049-10.843,18.996-7.256,30.735c2.364,7.826,4.647,15.816,6.848,23.724
			c2.446,8.723,6.848,16.468,12.555,23.479c3.016,3.75,6.196,7.337,9.294,11.006c3.098,3.669,6.196,7.419,9.375,11.006
			c0.897,0.978,2.12,1.712,3.343,2.364c1.467,0.815,4.484-0.326,5.462-1.875c0.815-1.386,0.245-2.609-0.734-3.587
			c-5.136-5.218-8.397-11.74-13.044-17.284c-7.908-9.375-13.207-20.137-17.202-31.469c-2.446-7.011-2.446-14.267-0.734-21.441
			c1.06-4.239,5.462-5.707,8.968-3.18c1.386,1.06,2.772,2.201,3.669,3.669c3.098,4.892,6.441,9.62,8.886,15.001
			c3.995,9.131,7.826,18.343,11.006,27.8c1.794,5.218,3.098,10.598,3.016,16.142c-0.082,3.098,0,6.196,0.163,9.294
			c0,1.141,0.408,2.12,1.712,2.038c1.631-0.082,2.527-1.141,2.201-2.69c-0.571-3.098-1.223-6.114-0.408-9.212
			C573.303,839.237,572.488,830.025,571.265,819.997z M623.686,771.408c1.957,7.908,4.729,15.734,5.788,23.887
			c2.935-0.326,3.016-2.201,3.18-3.832c0.245-4.81,0.163-9.702-1.06-14.349c-3.098-11.251-6.522-22.338-11.414-33.099
			c-5.707-12.555-14.022-22.583-24.132-31.388c-1.549-1.386-2.935-3.016-4.321-4.484c-2.038-2.364-4.239-4.565-7.5-5.055
			c-0.326-0.082-0.734-0.245-0.978-0.408c-9.702-6.278-21.034-8.071-31.795-11.332c-7.174-2.283-14.267-4.973-20.789-8.968
			c-1.712-1.141-3.343-2.69-5.218-3.343c-11.658-3.995-13.941-15.164-18.832-24.376c-0.489-0.978-0.082-2.69,0.082-3.995
			c0.326-2.038,3.343-3.343,4.892-2.12c1.549,1.304,3.098,2.772,4.158,4.484c1.467,2.283,2.69,4.81,3.506,7.419
			c4.321,13.778,16.061,18.18,27.882,21.93c9.783,3.016,19.974,4.892,29.757,8.071c17.202,5.462,30.002,16.224,40.6,30.246
			c3.506,4.647,6.359,9.702,10.191,14.104c3.913,4.484,5.544,10.272,7.419,15.816c1.223,3.587,2.283,7.174,3.506,10.761
			c4.484,13.289,5.951,26.659,2.446,40.437c-1.304,5.381-2.038,10.843-3.261,16.224c-0.734,2.935-1.549,6.033-2.853,8.723
			c-1.712,3.506-2.935,6.93-3.424,10.761c-0.652,5.381-3.913,8.479-8.805,10.435c-7.99,3.098-15.898,6.44-23.806,9.865
			c-5.381,2.283-10.598,4.973-15.979,7.337c-11.006,4.81-22.42,8.642-33.996,11.74c-14.022,3.75-27.8,7.908-41.415,12.718
			c-5.055,1.712-9.946,1.875-15.164,1.957c-8.805,0.082-17.12-1.794-25.355-4.076c-3.669-0.978-7.174-2.364-10.68-3.669
			c-1.957-0.734-3.75-1.957-5.707-2.446c-11.414-2.446-20.789-8.805-30.165-15.164c-3.506-2.446-6.033-5.707-8.479-8.968
			c-10.761-13.778-18.588-29.023-20.463-46.633c-1.467-13.452-0.082-26.822,4.076-39.703c7.582-22.827,21.767-41.089,40.192-56.09
			c10.191-8.397,21.36-15.653,32.529-22.909c9.049-5.951,16.305-13.615,22.827-22.094c2.283-2.935,4.239-6.277,7.745-8.071
			c1.141-0.652,2.853,0.245,3.343,1.467c0.815,2.527-0.082,4.729-0.897,7.011c-4.239,11.251-10.924,20.544-20.137,28.045
			c-1.386,1.06-2.69,2.12-4.158,3.098c-14.349,10.028-28.289,20.626-41.904,31.714c-6.848,5.544-12.637,12.392-17.12,20.3
			c-2.69,4.729-6.196,9.049-8.805,13.859c-3.016,5.544-5.218,11.251-6.196,17.447c-1.223,7.011-2.772,14.022-2.446,21.36
			c0.571,15.734,6.277,29.594,15.164,42.149c4.158,5.788,9.457,10.924,14.919,15.49c3.016,2.527,7.663,3.016,11.169,5.055
			c8.397,4.729,17.854,4.892,26.822,6.685c1.304,0.245,2.853-0.163,3.995-0.652c0.734-0.326,1.223-1.549,1.549-2.446
			c0.082-0.489-0.408-1.467-0.897-1.712c-2.772-1.223-5.625-2.69-8.56-3.343c-4.402-1.06-6.685-3.995-6.848-7.99
			c-0.408-7.419-3.343-13.941-6.114-20.545c-5.707-14.022-6.114-28.942-7.093-43.616c-0.245-5.136,0.734-10.272,1.06-15.408
			c0.408-5.462,3.343-10.191,3.587-15.898c0.245-5.299,2.446-10.68,4.484-15.734c1.957-5.055,4.402-10.109,7.419-14.675
			c7.174-10.435,14.186-21.115,22.827-30.491c0.815-0.897,1.63-1.794,2.527-2.609c0.897-0.815,1.875-1.467,3.098-1.794
			c0.897,4.973,0.734,6.93-1.467,11.251c-1.06,2.12-2.609,3.995-3.913,6.033c-0.978,1.467-0.571,3.18-0.245,4.81
			c-0.082,0-0.082,0-0.163,0c-0.571,0.897-1.141,1.794-1.712,2.772c0,0,0.163,0.081,0.163,0.163
			c0.571-0.897,1.141-1.875,1.712-2.772c0-0.082,0-0.082,0-0.163c0.652-0.245,1.304-0.326,1.712-0.815
			c7.337-10.028,18.914-13.37,29.349-18.343c4.321-2.12,9.375-2.12,14.186-1.957c13.696,0.489,26.496,4.158,38.154,11.332
			c1.794,1.06,3.424,2.609,5.299,3.098c8.805,2.12,15.327,8.071,21.604,13.696c8.153,7.256,15.734,15.245,21.36,24.865
			C619.121,758.527,622.056,764.559,623.686,771.408z"/>
		<path fill="#CA834E" d="M403.485,960.14c0.245,0.163,0.408,0.815,0.326,0.897c-0.408,0.489-1.06,1.223-1.386,1.141
			c-3.261-0.652-6.848-0.734-9.375-3.261c-0.408-0.408-0.326-1.304-0.326-1.875c0-0.245,0.408-0.489,0.978-1.141
			C397.126,956.553,400.469,957.939,403.485,960.14z"/>
		<path fill="#CA834E" d="M304.105,924.921c0.897,0.081,1.957,0,2.935,0.245c17.284,5.87,34.975,10.109,52.666,14.349
			c4.484,1.06,8.234,3.587,12.229,5.544c0.897,0.489,1.223,1.712,0.652,2.69c-0.489,0.734-1.549,1.712-2.201,1.631
			c-3.424-0.408-6.848-0.978-10.109-1.875c-17.528-5.055-34.975-10.191-52.095-16.55c-1.631-0.571-3.098-1.386-4.565-2.283
			c-0.408-0.245-0.571-1.304-0.489-1.875C303.208,926.225,303.697,925.655,304.105,924.921z"/>
		<path fill="#705235" d="M303.208,761.054c0.408,4.076-1.223,7.5-4.076,8.397c-3.669,1.223-7.663-0.082-9.865-3.343
			c-2.283-3.343-2.283-6.93-0.815-10.598c0.571-1.386,1.631-2.12,3.016-2.446C297.583,751.76,302.637,755.266,303.208,761.054z"/>
		<path fill="#705235" d="M291.713,814.046c2.12-2.364,2.527-6.848,0.815-9.539c-1.794-2.69-6.114-4.565-9.375-3.75
			c-0.408,0.489-1.304,1.06-1.794,1.875c-2.201,3.913-1.712,8.153,1.141,11.332C284.702,816.491,289.349,816.573,291.713,814.046z
			 M301.822,801.409c2.853,5.87,2.527,11.821-1.875,17.284c-2.69,3.18-5.462,6.277-9.865,6.767c-7.908,1.06-12.31,0.652-16.305-8.56
			c-1.712-3.75-2.283-7.745-2.12-11.984c0.326-7.663,2.69-10.517,10.028-11.577c0.734-0.082,1.386-0.082,4.321-0.245
			c-1.223,0.081-0.163,0,0.815-0.163C293.996,791.952,298.887,795.458,301.822,801.409z"/>
		<path fill="#403F41" d="M248.341,914.404c0.082,0.081,0.163,0.081,0.245,0.163c-0.082,0-0.245,0-0.326,0L248.341,914.404z"/>
		<path fill="#403F41" d="M248.341,914.404l-0.082,0.163c-0.082,0-0.082-0.082-0.163-0.163
			C248.178,914.404,248.26,914.404,248.341,914.404z"/>
		<path fill="#403F41" d="M186.218,964.543c0.245-0.652,0.571-0.571,0.326-0.163c-0.082,0.082-0.082,0.163-0.082,0.245
			C186.463,964.543,186.3,964.543,186.218,964.543z"/>
		<path fill="#403F41" d="M186.463,964.706C186.789,964.787,186.218,965.195,186.463,964.706L186.463,964.706z"/>
		<path fill="#403F41" d="M186.218,964.624l-0.245-0.082c0.082,0,0.163,0,0.245,0V964.624z"/>
		<path fill="#CA834E" d="M255.76,895.816c13.778,2.935,27.067,7.582,40.029,13.207c0.489,0.245,1.141,0.978,1.141,1.467
			c-0.082,1.223-1.304,1.467-2.201,1.386c-2.772-0.245-5.462-0.571-8.153-1.06c-18.914-3.424-37.828-6.685-56.66-10.435
			c-14.838-3.016-29.268-7.5-43.29-13.289c-1.794-0.815-3.587-1.63-4.484-3.587c9.131,0,18.017,2.364,27.067,3.832
			C224.78,889.783,240.352,892.555,255.76,895.816z"/>
		<path fill="#403F41" d="M182.142,883.506c-0.163,0-0.245,0-0.326,0l0.163-0.245C181.979,883.343,182.061,883.424,182.142,883.506z
			"/>
		<polygon fill="#403F41" points="181.979,883.261 181.816,883.506 181.653,883.18 		"/>
		<path fill="#CA834E" d="M246.548,913.426c0.571,0.245,1.06,0.652,1.549,0.978c-8.234,0.652-16.142-1.549-24.213-2.853
			c-13.859-2.364-27.311-6.441-40.763-10.517c-1.631-0.489-3.016-1.304-4.402-1.957c-0.082-1.794,0.978-1.957,1.957-1.794
			C202.85,901.849,224.943,906.578,246.548,913.426z"/>
		<path fill="#CA834E" d="M158.255,944.569c8.723,0.652,16.631,3.587,24.213,7.745c-6.685,0.489-13.289-0.326-19.648-2.446
			c-1.957-0.652-4.076-0.978-5.788-1.957c-1.875-0.978-6.196,0.245-5.218-3.098C152.467,942.367,155.972,944.406,158.255,944.569z"
			/>
		<path fill="#9D8363" d="M412.697,101.428c1.631,0.489,1.793,1.957,2.038,3.18c1.549,6.766,3.016,13.451,4.647,20.137
			c0.408,1.957,1.141,3.995,2.201,5.707c5.952,9.702,11.577,19.485,17.773,29.023c8.56,13.289,17.12,26.659,22.338,41.741
			c3.016,8.887,3.506,18.18,3.75,27.474c0.163,3.506-0.081,6.93,0.326,10.354c0.408,3.424,0.244,6.767-0.734,10.191
			c-1.957,6.522-1.467,13.533-3.587,20.218c-2.364,7.5-4.728,15.001-7.826,22.256c-5.544,12.963-11.332,25.762-16.305,38.888
			c-7.582,20.137-11.088,41.171-10.436,62.693c0.245,8.887,1.223,17.773,1.549,26.659c0.245,5.788,0.245,11.577-0.163,17.365
			c-0.571,9.946-5.462,18.262-10.435,26.496c-0.816,1.467-1.712,2.935-2.365,4.484c-0.163,0.326,0.49,1.141,0.897,1.631
			c0.082,0.163,0.733,0.082,0.978-0.082c12.31-11.006,20.137-24.213,19.729-41.334c-0.326-13.37-0.978-26.741-1.06-40.111
			c-0.082-13.859,1.631-27.474,5.789-40.681c3.75-11.821,7.989-23.48,13.289-34.649c3.506-7.501,6.44-15.246,9.538-22.909
			c3.016-7.337,4.321-15.082,6.033-22.827c2.283-10.924,2.69-21.93,2.772-32.855c0-15.083-2.365-30.083-9.539-43.943
			c-3.75-7.338-6.766-15.082-12.066-21.523c-9.212-11.169-15-24.62-24.05-35.871c-2.935-3.506-4.484-7.745-5.544-12.066
			c-1.875-7.663-4.484-15.245-5.136-23.153c-0.163-2.12,0.326-5.055-3.342-5.299c-0.283-0.057-0.745-0.897-0.958-1.679
			l-1.499,11.807C411.517,102.165,411.898,101.667,412.697,101.428z"/>
		<path fill="#CCB68E" d="M518.763,271.816c0.082-5.136-0.571-10.191,0-15.326c0.571-5.87,0.326-11.577-0.489-17.447
			c-0.816-6.114-1.794-12.311-1.141-18.507c0.082-1.304,0.163-3.261-0.571-3.995c-3.75-3.342-2.527-7.419-2.201-11.495
			c0.245-2.365,0-4.729-0.489-7.174c-1.63-7.663-3.424-15.409-4.402-23.072c-1.386-11.495-6.848-21.441-10.028-32.203
			c-1.305-4.484-2.12-9.457-4.729-13.37c-3.75-5.706-5.544-12.392-9.376-18.099c-5.544-8.234-9.783-17.283-14.675-26.007
			c-0.652-1.223-1.467-2.283-2.446-3.343c-8.479-9.049-17.528-17.446-28.371-23.805c-6.93-4.076-14.267-6.604-22.175-7.826
			c-3.669-0.49-4.81,0.081-5.707,4.076c-2.201,9.375-4.728,18.751-6.033,28.289c-1.712,12.636-4.402,25.11-7.989,37.257
			c-3.506,11.903-5.789,24.05-8.153,36.116c-3.261,16.224-6.033,32.447-10.028,48.508c-1.957,7.663-3.832,15.409-4.892,23.153
			c-2.038,15.409-4.973,30.572-7.826,45.736c-3.914,20.626-7.093,41.333-12.066,61.796c-3.913,16.305-6.359,33.018-9.457,49.568
			c-1.549,7.827-3.016,15.571-4.81,23.235c-3.424,15.083-7.011,30.165-10.598,45.166c-2.69,11.74-4.402,23.642-7.827,35.219
			c-1.386,4.81-3.016,9.946-1.63,15.245c0.247,0.987,0.226,1.867,0.063,2.695l3.814,4.767c0.172,0.023,0.39-0.023,0.526,0.038
			c2.201,0.978,4.24,2.283,6.278,3.587c9.049,5.625,18.588,10.028,29.431,11.006c1.06,0.082,2.12,0.245,3.098,0.571
			c7.419,2.609,14.838,5.136,22.256,7.827c1.511,0.585,2.947,1.313,4.069,2.422l11.849-8.746c-0.042-0.46-0.083-0.922-0.02-1.421
			c1.793-11.251,2.853-22.746,14.185-29.349c1.712-1.06,2.853-3.016,4.321-4.403c6.848-6.766,13.126-14.267,20.707-20.055
			c7.745-5.952,14.104-12.963,19.811-20.789c2.364-3.261,5.055-6.441,7.419-9.783c6.604-9.62,15.083-17.936,19.241-29.186
			c9.131-12.147,11.658-26.985,16.549-40.845c3.18-9.049,4.973-18.588,7.256-27.963c2.283-9.294,1.712-18.996,4.565-28.289
			c1.141-3.832,1.875-8.071,0.815-12.229c-0.326-1.305-0.326-2.854,0.082-4.076C520.067,290.323,518.681,280.948,518.763,271.816z
			 M503.925,292.85c-1.386,14.675-3.016,29.35-5.218,43.861c-2.12,14.675-5.462,29.023-11.577,42.638
			c-2.365,5.299-4.24,10.843-6.441,16.305c-3.016,7.663-6.604,15.083-11.658,21.686c-0.897,1.06-1.63,2.282-2.282,3.506
			c-6.767,12.474-16.794,22.501-26.007,33.099c-5.87,6.848-13.044,12.066-19.485,18.18c-0.244,0.245-0.571,0.489-0.815,0.816
			c-4.647,4.484-8.968,9.294-13.452,13.941c-1.223,1.305-2.038,3.016-3.424,3.832c-10.354,6.196-12.881,16.387-13.859,27.229
			c-0.163,1.386-0.244,2.772-0.571,4.076c-0.733,3.18-3.342,4.403-6.278,3.017c-14.104-6.359-28.126-12.719-42.23-19.159
			c-0.897-0.408-1.875-0.897-2.772-1.386c-6.848-3.669-8.56-6.848-6.033-14.349c7.011-20.218,10.109-41.334,15.327-62.041
			c4.484-17.61,8.315-35.464,12.147-53.237c1.957-9.049,3.261-18.262,4.891-27.393c2.854-15.164,5.951-30.327,8.642-45.492
			c2.527-13.859,4.484-27.882,7.011-41.741c2.854-15.49,5.463-30.98,9.294-46.307c3.424-13.696,5.462-27.637,7.989-41.578
			c2.038-11.821,3.587-23.724,6.604-35.464c2.772-10.598,4.81-21.441,7.174-32.203c0.125-0.623,0.171-1.329,0.397-1.938
			l1.499-11.807c-0.094-0.346-0.152-0.68-0.102-0.93c2.12-9.783,1.712-19.811,3.261-29.675c0.408-3.18,2.119-3.995,4.973-2.609
			c9.049,4.402,17.202,10.353,25.191,16.224c4.24,3.098,6.848,8.397,10.272,12.718c11.087,14.267,19.24,30.001,24.865,47.203
			c1.957,6.114,5.463,11.821,8.316,17.691c0.734,1.549,2.201,3.017,2.12,4.566c-0.245,9.457,3.098,18.18,5.055,27.229
			c1.875,8.723,3.831,17.61,4.321,26.414c0.571,10.598,3.587,20.871,2.772,31.632c-0.489,6.114,0.652,12.392,0.897,18.588
			C505.229,270.92,504.903,281.845,503.925,292.85z"/>
		<path fill="#705235" d="M220.052,806.219c-2.69,7.174-0.571,13.37,2.853,19.648c6.359,11.985,15.898,20.382,28.371,25.681
			c6.033,2.527,12.229,4.647,17.936,7.989c2.772,1.712,6.359,2.201,9.62,3.098c6.604,1.957,13.126,4.321,19.811,5.707
			c9.049,1.875,17.12-0.897,23.805-7.011c11.251-10.354,17.528-23.398,20.463-38.317c3.995-20.3,5.789-40.845,8.805-61.226
			c1.712-11.087,2.527-22.42,6.114-33.344c2.03-5.895,2.95-12.259,3.7-18.594l-2.035,7.971l2.035-7.971
			c0.184-1.55,0.363-3.102,0.539-4.641c0.342-2.995,1.192-5.472,2.583-7.585l4.667-18.28c-0.983-0.251-1.466-1.105-1.543-2.017
			c-0.163-1.06-0.408-2.201-0.082-3.098c2.283-5.136,2.12-10.761,3.669-16.061c2.853-10.272,5.38-20.626,8.968-30.654
			c1.794-5.136,4.076-10.191,5.463-15.49c2.364-8.968,4.973-17.854,8.397-26.414c4.892-12.148,10.517-23.969,11.169-37.339
			c0-0.978,0.571-2.038,0.978-2.935c2.12-4.565,1.305-8.723-1.875-12.555c-1.252-1.516-2.246-3.156-2.425-5.101l-11.849,8.746
			c0.754,0.745,1.392,1.632,1.72,2.878c1.06,3.75-0.082,6.196-3.75,6.93c-1.304,0.244-2.691,0.326-5.218,0.652
			c-4.728,0-10.517,0.081-16.305-0.245c-3.75-0.244-7.419-1.631-10.598-3.669c-9.865-6.196-20.545-10.762-31.061-15.816
			c-0.571-0.326-1.223-0.489-1.875-0.815c-6.441-3.669-6.848-10.191-0.816-14.919c0.531-0.399,1.49-0.547,2.246-0.445l-3.814-4.767
			c-0.269,1.361-1.039,2.538-2.509,3.501c-1.386,0.978-2.446,2.364-3.75,3.506c-4.647,4.076-6.604,8.642-3.424,14.675
			c1.549,2.772,1.712,5.87,0.489,8.968c-3.179,7.99-5.299,16.387-8.479,24.295c-6.767,16.876-11.169,34.485-15.898,52.014
			c-2.609,9.946-5.217,19.892-7.989,29.838c-3.995,14.185-10.109,27.719-13.126,42.23c-0.245,1.06-0.571,2.038-0.978,2.935
			c-2.365,5.381-4.158,10.843-5.381,16.632c-1.304,5.951-4.484,11.413-6.685,17.12c-0.897,2.283-1.141,4.729-1.712,7.011
			c-1.794,6.685-3.75,13.207-7.663,19.077c-2.446,3.669-3.995,7.989-5.87,12.066c-1.712,3.75-3.261,7.582-4.891,11.332
			c-0.838,1.999-1.98,3.684-3.268,5.223l-9.356,22.768C222.465,801.339,220.714,804.305,220.052,806.219z M388.158,554.222
			c1.631-0.408,3.587-0.815,4.891,0.571c1.386,1.386,0.571,3.18-0.163,4.729c-4.892,10.272-9.538,20.545-12.066,31.795
			c-0.815,3.587-2.282,7.256-4.076,10.517c-3.506,6.44-6.114,13.044-6.93,20.381c-0.163,1.712-0.571,3.587-1.549,4.81
			c-5.625,6.767-6.278,15.164-8.479,23.072c-0.652,2.283-0.978,4.647-1.794,6.93c-2.772,7.338-3.831,15.083-4.973,22.828
			c-0.815,5.706-1.875,11.495-2.446,17.283c-0.652,6.033-3.098,11.902-4.81,17.854c-1.223,4.239-2.935,8.315-2.282,13.044
			c0.408,2.609-0.326,5.544-0.978,8.153c-3.832,13.941-3.995,28.371-5.707,42.638c-1.794,15.735-3.424,31.469-7.256,46.877
			c-0.326,1.305-0.897,2.69-0.897,3.995c0.082,6.196-3.18,10.843-6.196,15.979c-4.158,6.93-10.68,7.908-16.958,10.028
			c-1.223-0.163-2.282-0.082-3.179-0.489c-0.897-0.326-1.794-1.06-2.283-1.875c-0.489-0.897,0-1.875,0.897-2.609
			c4.158-3.016,8.316-6.033,12.392-9.131c2.772-2.12,5.136-4.728,6.359-8.071c4.81-13.289,8.316-26.903,8.234-41.17
			c0-4.81,0.408-9.538,1.305-14.349c1.304-7.419,1.957-15.001,2.201-22.501c0.082-5.218,0.489-10.272,1.305-15.409
			c1.467-9.457,2.527-19.077,4.076-28.615c1.631-9.457,3.669-18.832,5.544-28.29c2.853-14.43,5.707-28.942,8.723-43.372
			c1.223-6.033,3.669-11.902,4.321-18.017c1.712-15.572,7.827-29.757,12.555-44.432c2.446-7.663,7.989-13.615,12.8-19.811
			C382.614,555.119,385.468,554.956,388.158,554.222z M231.547,807.116c2.365-7.5,4.729-14.838,8.397-22.012
			c7.419-14.267,15.571-28.289,20.707-43.698c2.283-6.767,5.625-13.37,7.174-20.381c2.12-9.702,7.338-18.425,8.071-28.534
			c0-0.978,0.326-2.038,0.816-2.935c7.582-16.632,12.147-34.323,16.958-51.851c2.527-9.131,6.522-18.099,6.929-27.8
			c0-0.652,0.244-1.386,0.489-1.957c7.093-16.224,9.376-33.752,15.327-50.301c1.712-4.892,1.712-10.11,2.038-15.246
			c0.163-3.424,1.957-4.728,4.647-3.424c7.663,3.913,16.224,5.544,23.805,9.783c6.033,3.342,12.963,4.565,19.648,6.114
			c1.875,0.489,2.528,2.201,1.712,3.995c-0.571,1.305-1.223,2.527-1.957,3.669c-7.338,11.414-11.169,24.132-14.349,37.257
			c-6.604,27.067-11.495,54.378-16.468,81.77c-3.913,21.605-7.093,43.372-10.68,65.058c-1.223,7.5-3.098,14.838-3.75,22.338
			c-0.734,9.294-3.18,18.262-4.565,27.393c-1.06,7.5-2.038,15.001-2.69,22.501c-0.326,3.913-1.467,7.337-3.506,10.598
			c-3.995,6.522-9.212,11.985-14.512,17.284c-3.506,3.506-8.315,5.218-13.207,3.016c-11.577-5.136-24.295-7.664-34.893-15.164
			c-4.729-3.342-9.212-7.011-12.718-11.821c-2.12-2.853-3.18-6.114-3.914-10.598C231.139,811.192,230.976,809.072,231.547,807.116z"
			/>
		<path fill="#CA834E" d="M186.218,964.624l-0.244-0.082c-2.446-1.304-4.81-2.935-7.338-3.669c-9.62-2.69-18.669-7.011-28.616-8.805
			c-3.995-0.733-7.826-2.446-11.821-3.587c-1.18-0.325-2.267-0.768-3.258-1.317l4.178,13.579c0.048-0.772,0.119-1.553,0.384-2.397
			C155.157,959.732,170.402,964.542,186.218,964.624z"/>
		<path fill="#CA834E" d="M735.621,1120.828c-0.571-1.875-1.875-2.772-3.75-3.016c-1.957-0.326-3.098,1.141-4.24,2.446
			c-1.141,1.386-1.305,3.18-1.06,4.892c0.489,3.098,1.06,6.033,3.506,8.397c0.232,0.232,0.303,0.452,0.434,0.676l7.933-3.513
			c-0.102-0.015-0.191,0.005-0.296-0.016C736.355,1127.676,736.681,1124.089,735.621,1120.828z"/>
		<path fill="#CA834E" d="M851.225,1026.094c1.957,6.604,3.75,13.207,6.441,19.566c0.718,1.723,0.827,2.834,0.442,3.695l6.017-0.42
			c-1.481-0.821-2.139-2.159-2.139-4.824c0.163-10.761-2.69-20.952-5.87-31.061c-0.571-1.712-0.082-3.424,1.06-4.892
			c0.408-0.489,1.141-1.06,1.63-0.978c0.978,0.163,2.365,0.571,2.527,1.223c1.957,6.604,3.669,13.289,5.544,19.892
			c0.978,3.587,2.201,7.174,3.424,10.761c0.163,0.571,0.897,1.223,1.386,1.223c1.467,0.163,1.386-1.141,1.467-2.12
			c0.163-5.544-1.957-10.843-1.875-16.386c-0.489-4.076-1.06-8.153-1.549-12.31c-0.407-3.453-0.367-4.976,1.118-5.989
			c-10.451,0.572-19.378,5.261-27.733,10.263c1.352-0.105,2.688-0.24,4.114-0.198
			C849.839,1017.208,850.003,1021.855,851.225,1026.094z"/>
		<path fill="#CA834E" d="M1017.131,841.439c1.875,3.261,2.609,7.174,5.462,9.864c0.489,0.408,1.223,0.734,1.875,0.734
			c1.223,0,1.794-1.141,1.631-2.12c-0.571-4.484-1.386-8.887-1.957-13.289c-0.082-0.489,0.326-1.304,0.815-1.631
			c1.06-0.815,2.12,0,2.527,0.816c1.386,3.098,2.69,6.277,3.75,9.538c1.467,4.24,2.609,8.56,6.44,11.413
			c0.734-4.81,0.652-9.457-1.467-13.941c-0.897-1.794-1.141-3.913-1.549-5.951c-1.214-5.441-1.696-7.893-0.572-9.995l-17.995,13.408
			C1016.489,840.582,1016.854,840.953,1017.131,841.439z"/>
		<path fill="#705235" d="M1090.667,1012.398c-3.587-13.941-5.136-28.289-9.213-42.23c-3.016-10.191-8.234-17.202-17.773-21.115
			c-15.571-6.44-31.551-11.74-48.018-15.327c-6.359-1.304-12.637-3.261-20.381-5.299c7.826-7.989,15.571-13.044,22.99-18.588
			c3.506-2.772,6.93-5.462,9.946-8.886c4.158-4.647,8.153-9.539,13.044-13.207c8.968-6.685,15.327-15.653,22.828-23.643
			c3.505-3.669,4.239-7.582,3.424-12.31c-0.734-4.402-2.038-8.886-1.875-13.207c0.245-5.788-1.141-11.006-3.179-16.06
			c-2.12-5.299-3.098-10.68-2.527-16.142c0.326-2.772-0.652-3.668-2.854-4.565c-1.223-0.489-2.364-1.467-3.261-2.446
			c-5.136-5.38-11.495-8.479-18.343-11.169c-6.685-2.609-13.289-5.625-19.73-8.805c-8.968-4.402-18.017-8.642-27.474-11.902
			c-12.962-4.484-25.518-10.109-38.806-13.859c-1.304-0.326-2.608-0.734-3.913-1.305c-17.202-6.848-35.138-11.821-52.258-18.995
			c-7.908-3.343-16.632-4.647-24.458-8.071c-18.017-7.908-36.931-13.044-55.193-20.056c-14.675-5.707-30.083-9.538-45.328-13.696
			c-4.076-1.141-7.582-3.261-11.495-4.565c-18.181-6.033-36.361-12.066-54.46-18.343c-6.848-2.365-13.37-5.625-20.137-8.071
			c-19.322-7.174-39.296-12.474-59.106-18.262c-14.512-4.239-28.942-8.56-43.372-13.126c-14.43-4.484-28.778-9.375-43.209-13.941
			c-3.995-1.223-7.989-2.201-12.066-3.098c-9.376-1.957-18.832-3.669-28.208-5.625c-4.81-1.06-9.62,0.408-14.43-0.082
			c-7.582,3.913-16.305,5.299-23.561,10.191c-9.62,6.685-19.729,12.473-28.778,20.055c-4.729,3.914-9.783,7.582-15.082,10.599
			c-11.088,6.359-21.441,13.615-31.714,21.197c-4.158,3.016-8.805,5.381-11.414,10.191c-0.244,0.489-1.223,0.815-1.793,0.815
			c-0.077-0.011-0.099-0.084-0.17-0.102l-4.667,18.28c1.26-1.914,2.958-3.532,5.244-4.889c4.484-2.608,8.316-6.033,11.984-9.783
			c6.278-6.523,14.593-10.11,22.094-14.919c1.467-0.978,3.098-1.631,4.484-2.609c15.898-10.843,31.795-21.686,47.693-32.529
			c1.712-1.141,3.179-2.609,4.728-3.995c7.908-6.93,17.528-10.599,27.311-14.104c2.12-0.733,4.076-0.163,6.033,0.408
			c6.604,1.875,13.207,3.75,19.729,5.788c24.621,7.745,49.079,15.653,73.7,23.398c18.017,5.625,35.789,11.821,54.296,15.816
			c9.702,2.12,18.914,6.278,28.371,9.62c7.745,2.69,15.327,6.278,23.235,8.234c8.397,2.038,16.224,5.625,24.458,8.071
			c6.766,2.038,13.533,4.974,20.3,7.419c11.577,4.239,23.642,7.174,35.138,11.577c12.147,4.647,25.191,6.767,36.85,12.718
			c1.549,0.816,3.179,1.386,4.891,1.794c14.756,3.424,28.452,10.272,42.801,15c13.615,4.484,27.148,9.294,40.437,14.838
			c11.495,4.729,23.071,9.457,35.056,12.31c11.821,2.69,22.746,7.5,34.159,11.332c10.761,3.506,21.034,8.397,31.55,12.718
			c13.37,5.544,26.659,11.169,39.947,16.713c1.305,0.571,2.528,1.141,3.669,1.793c0.761,0.435,0.967,1.608,0.714,2.526l3.615,9.64
			c0.37,0,0.747,0.061,1.134,0.226c3.424,1.386,2.282,5.951,2.608,9.212c0.734,6.522,1.712,12.881,3.75,19.24
			c2.364,7.419,1.631,14.594-5.38,19.24c-8.072,5.463-13.534,13.615-21.115,19.485c-6.278,4.81-12.31,9.865-18.017,15.409
			c-4.402,4.24-10.109,6.93-14.919,10.925c-2.609,2.201-5.218,4.321-7.663,6.685c-4.034,3.779-7.673,5.396-11.225,5.314
			c0.879,5.486,3.001,9.928,6.316,13.788c3.937-0.501,7.632,1.226,11.105,2.339c13.778,4.321,27.963,7.174,41.904,10.68
			c7.012,1.794,14.023,3.424,20.626,6.441c2.446,1.223,4.81,2.69,7.093,4.158c5.218,3.261,8.805,7.5,8.968,14.104
			c0.024,1.868-0.111,3.67-0.353,5.432l3.58,21.342c1.19-0.108,2.033,0.85,2.398,3.145c1.467,8.805,2.854,17.61,3.914,26.496
			c0.652,5.707-2.12,10.68-5.381,15.001c-2.527,3.261-5.299,6.277-7.908,9.538c-2.935,3.669-6.441,6.767-10.272,9.702
			c-8.479,6.522-18.099,11.251-26.333,18.017c-5.87,4.81-12.718,8.315-19.159,12.229c-6.685,3.995-14.267,4.728-21.849,5.055
			c-2.69,0.163-5.789-0.163-8.071-1.386c-7.582-3.995-14.919-8.397-23.316-10.598c-3.995-4.076-9.783-4.647-14.675-6.767
			c-4.402-1.957-9.212-3.016-12.636-6.685c-3.016-3.343-7.582-3.016-11.087-5.136c-5.299-3.18-10.761-5.952-16.06-9.131
			c-10.191-6.359-21.93-7.582-33.263-9.865c-1.386-0.245-2.772,0-4.158-0.163c-1.604-0.212-2.694-0.561-3.568-1.046l-6.017,0.42
			c-0.489,1.093-1.837,1.745-4.438,2.338c-12.066,2.772-23.805,6.359-34.322,13.289c-4.484,2.935-7.093,7.337-11.169,10.517
			c-12.718,10.028-24.703,20.871-37.094,31.143c-6.359,5.299-13.044,10.027-19.566,15.082c-2.671,2.152-5.267,4.44-7.864,6.677
			l1.181-0.523l-1.181,0.523c-0.257,0.221-0.521,0.44-0.778,0.66c-1.235,1.08-2.629,1.904-4.433,1.647l-7.933,3.513
			c0.793,1.353-0.037,2.561-1.575,3.4c-3.016,1.712-6.033,3.261-9.62,3.18c-0.082,0-0.244,0-0.326,0
			c-10.517,0-21.115,1.712-31.225-2.446c-9.783-0.326-18.996-3.424-27.882-7.011c-19.648-8.153-40.519-12.392-60.248-20.545
			c-6.767-2.853-13.941-5.788-21.767-5.707c-0.652,0-1.386-0.082-1.957-0.326c-11.169-5.544-23.561-6.685-35.301-10.191
			c-17.773-5.299-36.116-8.153-53.889-13.534c-5.463-1.712-11.006-3.261-16.387-5.136c-5.544-1.875-11.169-3.506-16.794-5.136
			c-11.169-3.261-22.42-6.44-33.589-9.701c-3.261-0.979-6.522-2.12-9.783-3.343c-2.527-0.978-5.055-1.957-7.908-1.957
			c-1.712,0-3.506-0.245-5.055-0.978c-12.555-5.788-26.17-8.071-39.377-11.74c-15.327-4.24-29.92-10.191-44.677-15.898
			c-18.262-7.174-36.768-13.533-55.356-19.485c-14.104-4.565-28.127-9.049-42.068-13.859c-5.462-1.875-11.413-2.691-16.305-6.278
			c-0.733-0.571-1.875-0.816-2.853-0.978c-11.495-1.712-22.501-5.789-33.996-7.501c-6.278-0.978-11.332-4.81-17.447-5.951
			c-1.957-0.408-3.669-2.12-4.321-4.158c-0.715-2.599-1.878-5.169-1.689-8.201l-4.178-13.579c-2.981-1.651-5.078-4.265-6.118-7.569
			c-2.038-6.196-4.484-12.31-5.055-18.914c-0.279-2.718,1.033-4.348,2.986-3.989l-2.476-14.474c-1.05-1.184-1.851-2.628-2.141-4.69
			c-0.244-1.793-0.489-3.424-1.712-4.728c-3.343-3.587-2.854-8.397-1.305-11.74c3.587-8.153,5.707-16.958,11.495-24.132
			c2.364-3.016,4.647-5.87,8.071-7.745c6.359-3.424,11.251-8.886,17.609-12.473c10.517-5.951,20.463-12.718,30.572-19.24
			c8.723-5.544,17.283-11.169,26.007-16.713c1.957-1.223,4.076-3.342,6.522-1.957c0.34,0.182,0.587,0.39,0.827,0.599l9.356-22.768
			c-1.968,2.353-4.358,4.287-7.167,5.864c-7.174,4.076-14.348,8.071-21.441,12.31c-17.365,10.436-34.811,20.789-52.013,31.469
			c-7.908,4.892-15.409,10.354-22.012,17.039c-7.093,7.174-12.963,14.593-15.734,24.784c-3.016,11.087-4.403,22.094-3.587,33.589
			c0.897,11.088,4.239,21.523,7.663,32.04c4.565,14.023,13.126,26.578,14.919,41.578c0,0.326,0.245,0.652,0.408,0.978
			c1.223,2.935,2.935,4.891,6.196,6.278c10.436,4.402,21.441,6.848,32.121,10.353c6.196,2.038,12.555,3.506,18.832,5.463
			c16.794,5.055,33.508,10.353,50.302,15.408c12.8,3.832,25.762,7.012,37.909,12.718c5.544,2.69,11.577,4.647,17.61,6.033
			c9.783,2.282,19.077,5.951,28.208,9.864c17.773,7.582,36.524,12.147,54.948,17.691c8.479,2.609,17.61,3.261,25.518,7.908
			c1.468,0.815,3.343,0.815,4.973,1.304c13.533,3.995,27.067,7.99,40.518,12.148c11.821,3.587,23.398,7.908,35.382,10.843
			c11.006,2.772,21.604,6.685,32.773,9.049c19.485,3.995,38.399,10.436,58.046,14.186c0.979,0.163,2.038,0.408,2.935,0.897
			c7.093,3.587,15.082,4.402,22.582,6.767c14.023,4.484,28.208,8.642,42.394,12.962c19.648,6.033,39.214,12.555,60.085,13.696
			c16.387,0.897,31.388-2.12,44.513-12.555c1.875-1.549,3.995-2.772,6.114-3.832c9.212-4.565,18.099-9.457,26.414-15.816
			c15.245-11.739,30.817-22.909,44.269-36.687c1.712-1.63,3.669-3.179,5.707-4.402c13.859-8.479,29.023-12.229,45.247-11.821
			c3.343,0.082,7.011,0.571,10.028,1.957c8.397,3.914,17.365,6.685,25.273,11.659c8.397,5.38,17.365,9.62,26.578,13.452
			c7.255,3.016,14.593,6.196,21.522,9.865c5.299,2.772,10.761,4.729,16.387,6.196c6.278,1.712,12.718,2.69,19.077,4.076
			c2.446,0.571,4.891,0.571,7.174-0.163c6.114-2.12,12.473-3.505,18.18-7.011c7.908-4.892,15.898-9.865,24.458-13.452
			c7.5-3.098,12.718-9.049,19.729-12.718c0.571-0.326,1.141-0.815,1.468-1.386c5.625-9.049,16.305-13.778,20.626-23.969
			c6.522-3.995,7.093-10.68,7.582-17.202C1092.95,1028.133,1092.624,1020.143,1090.667,1012.398z"/>
		<path fill="#CA834E" d="M982.645,842.743c-14.104-5.38-28.208-10.925-42.475-15.816c-11.006-3.831-22.338-6.767-33.589-10.028
			c-0.897-0.245-2.12,0.082-2.201,1.304c-0.082,0.489,0.571,1.223,1.141,1.467c4.81,1.875,9.702,3.587,14.43,5.544
			c10.517,4.24,21.034,8.479,31.388,13.126c5.707,2.527,11.332,4.973,17.202,7.011c2.853,1.06,5.951,1.875,8.316,4.402
			c-0.089,0.404-0.31,0.691-0.436,1.062l8.809-7.514C984.405,843.252,983.557,843.096,982.645,842.743z"/>
		<path fill="#CA834E" d="M1043.525,806.87c-0.127,0.459-0.333,0.871-0.714,1.061c-6.685,2.69-11.495,8.397-18.751,10.354
			c-4.729,1.304-9.212,4.647-13.126,7.989c-6.848,5.707-14.675,10.028-21.523,15.653c-1.354,1.094-2.721,1.463-4.181,1.374
			l-8.809,7.514c-1.497,4.425-5.404,6.74-8.94,9.373c-0.387,0.286-0.78,0.422-1.173,0.531l-5.516,5.684
			c-0.52,1.218-0.826,2.196-1.382,2.753c-12.31,12.31-12.474,27.637-10.761,43.372c0.326,2.446,1.305,4.565,3.016,6.44
			c3.098,3.75,6.522,7.012,10.843,9.376c4.484,2.527,9.457,4.076,13.37,7.663c0.815,0.734,2.853,1.223,3.831,0.734
			c0.992-0.448,1.957-0.587,2.918-0.709c-3.316-3.86-5.438-8.302-6.316-13.788c-4.417-0.102-8.696-2.89-13.396-8.086
			c-4.647-5.136-6.278-12.392-3.913-19.485c2.609-7.663,4.973-15.245,12.392-20.707c7.093-5.299,12.8-12.392,20.382-17.447
			c7.419-4.891,14.756-9.946,21.115-16.224c0.935-0.877,2.196-0.761,3.201-0.011l17.995-13.408c0.914-1.708,2.868-3.189,6.524-5.821
			c2.114-1.55,4.169-4.549,6.529-4.547L1043.525,806.87z"/>
		<path fill="#CA834E" d="M961.774,859.537c-6.359-3.75-13.533-4.891-20.463-7.093c-0.897-0.245-2.038,0-3.016,0.082
			c-0.244,0-0.652,0.408-0.652,0.652c-0.082,0.57-0.163,1.63,0.163,1.793c2.038,1.141,4.158,2.283,6.359,3.261
			c5.544,2.527,11.169,5.055,16.876,7.582c-0.108,0.227-0.159,0.38-0.248,0.59l5.516-5.684
			C964.8,861.141,963.262,860.443,961.774,859.537z"/>
		<path fill="#CA834E" d="M1071.97,979.187c-0.591,4.313-2.065,8.297-5.19,11.77c-3.424,3.832-7.093,7.419-11.332,10.436
			c-7.093,4.81-14.104,9.783-20.952,14.838c-5.463,4.076-10.599,8.642-16.876,11.413c-3.506,1.549-6.114,4.402-8.723,7.174
			c-6.522,7.256-14.267,8.56-23.398,5.218c-9.049-3.343-17.447-7.99-25.844-12.474c-5.055-2.69-9.294-7.011-13.696-10.843
			c-14.104-12.392-30.409-21.115-48.1-26.659c-8.723-2.69-18.181-4.158-27.393-0.571c-1.549,0.571-3.343,0.978-4.973,1.06
			c-10.68,0.244-19.974,4.891-29.349,9.049c-2.201,0.978-4.402,2.12-6.359,3.506c-6.359,4.647-12.636,9.376-18.914,14.104
			c-3.831,2.935-7.5,6.033-11.413,8.886c-7.745,5.707-14.349,12.718-22.256,18.099c-0.816,0.571-1.468,1.549-2.283,2.119
			c-15.49,9.131-27.23,23.154-42.964,32.04c-3.831,2.119-7.745,4.321-11.74,6.277c-7.419,3.669-15.408,3.669-23.235,3.016
			c-5.707-0.489-11.414-1.875-17.12-3.098c-12.066-2.608-23.561-7.337-35.708-9.783c-3.75-0.652-7.501-1.141-11.251-1.712
			c-5.381-0.734-10.925-1.141-15.979-3.587c-1.793-0.815-3.995-0.897-6.033-1.304c-6.44-1.142-12.8-2.691-18.832-5.381
			c-2.446-1.141-5.136-1.957-7.827-2.609c-6.522-1.712-13.778-1.141-18.995-6.685c-7.99-2.119-15.898-4.646-23.969-6.114
			c-5.463-0.978-10.599-2.853-15.735-4.728c-7.011-2.609-13.615-6.685-21.36-7.501c-1.223-0.081-2.446-1.141-3.668-1.712
			c-7.582-3.261-15.164-6.441-23.154-8.56c-12.636-3.343-24.947-7.745-37.094-12.474c-7.989-3.098-16.305-5.462-24.376-8.234
			c-6.196-2.201-12.229-4.729-18.507-6.604c-6.848-2.038-13.86-3.669-20.545-6.359c-6.93-2.854-14.022-5.544-20.952-8.316
			c-0.978-0.408-1.875-1.06-2.853-1.223c-15.164-3.261-28.942-10.68-43.861-14.838c-12.962-3.587-25.273-8.723-37.909-13.207
			c-9.946-3.587-20.381-5.951-30.41-9.375c-7.174-2.446-14.267-5.055-21.278-7.827c-10.843-4.24-22.256-6.93-33.018-11.332
			c-9.865-4.076-19.974-7.5-29.676-11.821c-8.234-3.669-16.876-5.87-25.599-7.582c-3.057-0.592-5.383-1.651-6.99-3.462l2.476,14.474
			c0.332,0.061,0.641,0.049,1.009,0.239c8.805,4.81,18.669,6.93,27.882,10.599c9.212,3.587,18.67,6.604,28.045,9.864
			c9.946,3.587,20.056,6.685,29.757,10.843c8.234,3.587,16.549,6.359,25.192,8.642c8.234,2.12,15.979,5.951,24.05,8.968
			c3.832,1.386,7.745,3.016,11.74,3.669c6.848,1.141,12.636,5.625,19.73,5.625c0.326,0,0.652,0.163,0.978,0.326
			c11.251,7.745,24.865,9.538,37.257,14.511c13.859,5.544,27.882,11.332,42.393,14.756c8.723,2.12,16.55,6.359,25.192,8.234
			c8.479,1.875,16.305,5.462,24.295,8.479c8.968,3.343,18.181,6.278,27.474,8.642c8.316,2.201,16.061,5.952,24.132,8.886
			c7.419,2.691,14.756,5.218,22.501,6.93c1.957,0.407,3.75,1.549,5.707,2.201c5.87,1.875,11.821,3.75,17.691,5.625
			c11.74,3.75,23.479,7.419,35.219,11.169c1.304,0.408,2.609,1.549,3.831,1.386c7.174-0.734,13.126,2.69,19.322,5.381
			c5.136,2.201,10.598,2.772,15.898,4.239c14.838,4.158,29.757,7.827,44.676,11.577c1.712,0.408,3.343,1.06,5.055,1.141
			c7.338,0.408,14.104,2.854,20.463,6.522c7.99,4.565,17.121,4.402,25.762,6.522c1.549,0.408,3.342-0.407,5.055-0.816
			c2.772-0.733,5.544-1.467,8.316-2.201c5.87-1.549,11.739-3.098,17.691-4.484c9.864-2.283,18.751-6.848,26.659-12.963
			c7.582-5.789,15.653-11.169,22.094-18.507c1.305-1.467,3.016-2.853,4.81-3.832c10.598-5.87,19.484-13.941,28.534-21.849
			c3.342-2.935,7.093-5.381,10.761-7.99c3.342-2.364,7.419-4.157,10.028-7.093c4.805-5.414,10.562-7.686,17.164-8.199
			c8.355-5.002,17.281-9.691,27.733-10.263c0.899-0.613,2.325-1.04,4.508-1.593c3.75-0.897,7.338-0.734,11.169,0.082
			c12.31,2.364,23.154,7.989,34.404,13.126c8.153,3.669,13.289,10.598,19.811,15.979c6.93,5.788,14.022,11.006,22.582,14.023
			c3.832,1.386,7.664,3.18,11.088,5.462c2.772,1.794,5.788,2.283,8.804,2.365c8.316,0.081,16.224-1.468,24.213-4.321
			c16.142-5.788,29.023-16.468,42.394-26.577c8.315-6.196,15.734-13.37,23.398-20.3c0.91-0.822,1.659-1.128,2.33-1.189
			L1071.97,979.187z"/>
	</g>
</g>
</svg>
