<?xml version="1.0" encoding="utf-8"?>
<!-- Designed by Vexels.com - 2019 All Rights Reserved - https://vexels.com/terms-and-conditions/  -->
<svg version="1.1" id="Layer_1" xmlns="http://www.w3.org/2000/svg" xmlns:xlink="http://www.w3.org/1999/xlink" x="0px" y="0px"
	 viewBox="0 0 1200 1200" enable-background="new 0 0 1200 1200" xml:space="preserve">
<g>
	<path fill="#FFFFFF" d="M1118.414,455.211C1055.019,225.079,844.249,56.034,593.966,56.034C293.542,56.034,50,299.576,50,600
		s243.542,543.966,543.966,543.966c12.237,0,24.369-0.445,36.405-1.241c2.951,0.051,5.902,0.093,8.858,0.093
		c243.961,0,454.813-173.728,501.363-413.103l0.048-0.227c0.048-0.225,0.094-0.45,0.127-0.679
		c6.126-31.82,9.233-64.375,9.233-96.763C1150,569.908,1138.826,510.337,1118.414,455.211z"/>
	<path fill="#4E8729" d="M1118.414,455.211c-46.944-126.773-142.829-229.998-264.607-286.608
		c-65.279-30.346-137.977-47.327-214.578-47.327c-54.775,0-108.76,8.695-160.451,25.84c-1,0.207-2.021,0.54-3.042,0.993
		c-56.618,19.178-109.123,48.042-156.064,85.793c-1.463,0.82-2.76,1.866-3.859,3.112
		c-119.065,97.66-187.357,241.634-187.357,395.033c0,77.882,17.169,152.714,51.037,222.426c0.404,1.248,1.006,2.461,1.837,3.697
		c29.004,58.499,68.287,110.132,116.866,153.734c3.92,3.517,7.879,6.999,11.918,10.412c1.052,1.243,2.307,2.302,3.737,3.156
		c40.895,33.882,86.502,61.05,135.566,80.76c3.897,2.148,14.065,5.537,20.324,7.919l0.768-0.007
		c51.43,18.054,105.163,27.646,159.862,28.582c2.951,0.051,5.902,0.093,8.858,0.093c243.961,0,454.813-173.728,501.363-413.103
		l0.048-0.227c0.048-0.225,0.094-0.45,0.127-0.679c6.126-31.82,9.233-64.375,9.233-96.763
		C1150,569.908,1138.826,510.337,1118.414,455.211z M338.102,257.338c33.885-27.285,71.14-49.786,110.841-66.956
		c-14.219,29.171-32.413,73.921-44.202,130.43c-15.116,72.455-16.004,146.016-2.641,218.641
		c19.784,107.491,74.458,182.438,99.017,211.661c-18.111,12.354-36.942,23.531-56.011,33.245
		c-18.9,9.631-39.275,18.113-60.58,25.217c-19.316-20.436-77.904-89.812-97.572-196.71
		C251.272,418.971,328.017,275.137,338.102,257.338z M837.941,914.342c-11.771,13.336-25.057,26.621-40.08,39.418
		c-136.271,116.083-280.825,129.18-322.689,130.398c-33.171-12.073-64.929-27.827-94.739-46.937
		c-5.605-3.593-11.148-7.291-16.61-11.12c67.524-6.135,191.885-32.282,312.884-135.361
		c83.193-70.865,120.765-155.693,133.799-191.576c19.739,9.502,38.833,20.221,56.794,31.885
		c17.954,11.659,35.515,24.964,52.22,39.56C912.961,792.706,891.16,854.047,837.941,914.342z M1117.339,684.248
		c-21.719-31.462-58.009-75.548-112.653-117.574c-41.901-32.226-94.59-63.243-159.792-86.425
		c-58.042-20.639-112.671-26.506-156.029-26.506c-33.568,0-60.38,3.517-76.783,6.422c-1.64-21.853-1.905-43.748-0.783-65.125
		c1.109-21.186,3.952-43.072,8.451-65.077c27.355-6.508,116.729-22.559,219.138,13.856c64.872,23.066,116.455,54.767,156.55,87.064
		c82.793,66.691,116.58,135.927,117.066,136.951c0.937,1.982,2.325,3.743,4.051,5.149c2.401,19.535,3.619,39.399,3.619,59.064
		C1120.176,649.372,1119.223,666.9,1117.339,684.248z"/>
	<path fill="#8BB84E" d="M257.62,618.266c-23.969-130.254-1.567-237.067,23.599-307.019
		c-79.38,88.448-122.936,201.853-122.936,320.8c0,71.054,15.223,139.523,45.253,203.536c19.255,0.816,79.448,1.494,149.232-16.595
		C323.916,785.605,275.883,717.518,257.62,618.266z"/>
	<path fill="#8BB84E" d="M783.126,686.921c-64.931-26.804-118.451-33.652-135.515-35.237
		c-13.552,19.256-50.108,66.199-112.87,112.309c-0.167,0.218-0.341,0.432-0.543,0.632c-1.354,1.34-2.929,2.393-4.683,3.133
		c-22.589,16.198-46.429,30.721-70.87,43.174c-93.855,47.818-188.337,54.959-236.302,54.959c-1.125,0-2.219-0.005-3.283-0.012
		c28.011,50.148,64.446,94.545,108.362,132.025c0.076,0,0.156,0,0.233,0c32.295,0,185.378-6.904,329.714-129.862
		C735.469,801.51,770.888,720.838,783.126,686.921z"/>
	<path fill="#8BB84E" d="M431.432,534.053c18.569,100.903,70.723,171.916,93.979,199.471c55.578-42.757,88.291-85.663,98.217-99.66
		c-9.583-21.303-31.223-75.99-39.514-151.015c-0.106-0.255-0.204-0.513-0.275-0.786c-0.485-1.85-0.611-3.745-0.372-5.636
		c-2.732-27.656-3.389-55.565-1.953-82.953c5.996-114.369,53.717-204.937,76.424-241.999c-6.386-0.249-12.661-0.376-18.71-0.376
		c-50.361,0-100.057,7.818-147.723,23.24C474.255,203.325,396.954,346.686,431.432,534.053z"/>
	<path fill="#8BB84E" d="M615.169,490c8.698,65.465,27.504,113.155,35.894,132.005c23.493,2.103,82.421,10.28,153.783,41.599
		c0.276,0.036,0.551,0.081,0.826,0.157c1.837,0.503,3.538,1.342,5.057,2.492c25.313,11.458,49.81,24.843,72.815,39.783
		c26.5,17.209,49.655,35.904,69.691,54.673c23.988-48.84,40.47-102.025,47.943-158.067c-41.842-34.809-96.609-69.523-166.276-94.292
		C738.231,473.974,650.659,483.637,615.169,490z"/>
	<path fill="#8BB84E" d="M704.044,290.695c41.071,0,91.005,5.883,144.837,25.021c52.981,18.837,97.517,42.77,134.75,68.493
		c-16.294-53.732-41.101-103.762-72.899-148.483c-64.124-44.113-139.021-73.018-218.918-81.75
		c-4.94,7.243-42.095,63.373-64.337,143.779C646.28,294.155,672.562,290.695,704.044,290.695z"/>
	<g>
		<path fill="#E2E2E2" d="M380.434,1037.222c29.809,19.11,61.567,34.863,94.739,46.937c41.864-1.218,186.417-14.315,322.689-130.398
			c15.022-12.797,28.308-26.083,40.08-39.418c-91.596,83.677-213.505,134.726-347.345,134.726
			C452.78,1049.069,415.931,1044.956,380.434,1037.222z"/>
		<path fill="#E2E2E2" d="M1116.557,572.982c-1.726-1.406-3.115-3.167-4.051-5.149c-0.487-1.024-34.273-70.26-117.066-136.951
			c6.758,33.29,10.315,67.744,10.315,103.029c0,11.009-0.386,21.926-1.067,32.763c54.643,42.027,90.934,86.113,112.653,117.574
			c1.883-17.348,2.836-34.877,2.836-52.202C1120.176,612.382,1118.958,592.517,1116.557,572.982z"/>
	</g>
</g>
</svg>
