<?xml version="1.0" encoding="utf-8"?>
<!-- Designed by Vexels.com - 2020 All Rights Reserved - https://vexels.com/terms-and-conditions/  -->
<svg version="1.1" id="Layer_1" xmlns="http://www.w3.org/2000/svg" xmlns:xlink="http://www.w3.org/1999/xlink" x="0px" y="0px"
	 viewBox="0 0 1200 1200" enable-background="new 0 0 1200 1200" xml:space="preserve">
<g>
	<polygon fill="none" points="352.962,238.51 352.968,238.5 352.964,238.507 	"/>
	<path fill="none" d="M607.788,90.861c-0.221-0.204-0.436-0.391-0.659-0.598c-0.612-0.569-1.264-1.09-1.886-1.647
		c0.622,0.557,1.273,1.078,1.886,1.648C607.352,90.47,607.567,90.657,607.788,90.861z"/>
	<path fill="none" d="M589.204,290.479c0.183,0.172,0.366,0.344,0.571,0.507c0.114,0.09,0.252,0.172,0.372,0.26
		c0.396,0.219,0.797,0.386,1.199,0.522c-0.58-0.262-1.171-0.591-1.772-1.002C589.44,290.674,589.33,290.573,589.204,290.479z"/>
	<path fill="none" d="M306.839,149.821c-2.29,3.376-3.843,10.033-4.733,15.254c0-0.001,0.001-0.002,0.001-0.004
		C302.997,159.851,304.55,153.197,306.839,149.821z"/>
	<path fill="none" d="M522.364,1001.625c-0.001,0.008-0.001,0.016-0.002,0.024c0-0.007,0.001-0.015,0.002-0.022
		C522.364,1001.626,522.364,1001.626,522.364,1001.625z"/>
	<path fill="none" d="M829.04,393.272c-0.025-0.074-0.052-0.147-0.077-0.22c0.001,0.004,0.003,0.009,0.004,0.013
		C828.992,393.134,829.017,393.203,829.04,393.272z"/>
	<path fill="none" d="M617.028,99.034c2.38,2.075,4.676,4.109,6.858,6.214C621.705,103.143,619.408,101.109,617.028,99.034z"/>
	<path fill="none" d="M603.024,274.278c-0.611-0.634-1.28-1.12-1.984-1.492c0.266,0.183,0.542,0.337,0.792,0.564
		c1.988,3.417,2.201,7.666,1.164,11.296c1.256-2.76,1.771-5.95,1.081-8.979C603.771,275.145,603.417,274.685,603.024,274.278z"/>
	<path fill="#F4D5B5" d="M384.754,816.786c3.546,1.63,4.9-0.782,7.951,0.367c9.009,3.394,8.125,13.365,15.149,18.653
		c2.093,1.576,4.935,1.062,7.053,2.314c3.95,2.336,5.377,6.415,8.105,9.877c3.346,4.245,5.11,5.027,9.424,6.915
		c4.114,1.801,6.312,1.874,9.875,5.413c2.087,2.073,3.211,4.422,4.779,5.733c0.023,0.019,0.042,0.048,0.065,0.066
		c0.15,0.121,0.284,0.259,0.43,0.384c1.413,1.197,2.693,2.534,3.891,3.95c0.742,0.877,1.46,1.776,2.153,2.693
		c0.115,0.153,0.236,0.302,0.351,0.455c0.917,1.228,1.908,2.53,2.917,3.839c0.473,0.614,0.95,1.229,1.426,1.839
		c1.223,1.566,2.435,3.093,3.548,4.468c0.87,1.075,1.672,2.049,2.373,2.878c0.338,0.4,0.653,0.767,0.936,1.09
		c0.047,0.054,0.095,0.108,0.14,0.159c0.335,0.38,0.628,0.701,0.862,0.941c8.391,8.61,10.192,8.217,20.154,5.549
		c11.276-3.02,24.702,4.96,34.721,10.143c5.216,2.698,11.536,10.913,18.557,9.911c7.499-1.07,10.126-11.375,17.954-12.829
		c10.118-1.879,12.564,7.654,20.322,9.725c5.604,1.496,13.45-1.234,19.116-1.684c7.182-0.569,5.823-0.367,13.018-0.68
		c-0.623-0.193,7.349-0.709,6.726-0.902c5.231-0.726,11.126-0.886,15.526-3.453c2.695-1.572,2.259-4.855,6.298-4.664
		c3.244,0.154,7.032,5.416,9.201,7.783c1.152-2.946,3.112-5.277,5.485-7.016c5.062-5.062,25.519-8.458,30.719-10.319
		c15.146-5.419,32.855-13.85,45.197-24.142c9.07-7.563,17.565-15.79,26.729-23.278c6.583-5.379,15.467-10.334,20.982-16.761
		c5.115-5.962,6.144-12.06,12.103-16.373c2.323-1.681,5.644-4.689,8.685-7.33c3.583-3.111,9.16-4.043,12.28-5.952
		c5.086-3.112,8.398-9.67,11.231-14.604c3.697-6.44,5.541-13.236,11.852-17.341c2.925-1.902,3.557-0.523,6.197-2.673
		c8.656-7.051,14.812-22.664,19.175-32.479c2.217-4.988,4.913-10.006,6.587-15.22c2.127-6.622,1.529-13.638,3.793-20.192
		c2.63-7.611,6.659-14.126,9.004-21.947c1.309-4.363,2.901-10.274,5.714-13.949c2.436-3.183,8.749-5.785,10.12-9.993
		c1.258-3.86-1.48-6.27-2.45-10.704c-1.621-7.406,1.934-12.194,6.309-17.056c1.962-2.18,3.529-1.659,4.416-4.841
		c1.961-7.035-7.586-18.307-10.409-24.289c-2.207-4.676-2.941-6.456-2.342-11.151c0.118-0.923,2.722-1.065,3.031-2.06
		c1.572-5.065-3.912-11.991-6.02-15.921c-2.81-5.239-6.486-9.987-9.323-15.142c-3.016-5.479-2.292-10.132-3.738-16.139
		c-2.825-11.732-7.002-22.406-8.437-34.393c-1.495-12.488-6.666-23.544-11.097-35.117c-5.968-15.586-10.085-31.315-16.491-46.719
		c-0.696-1.674-1.393-3.395-2.087-5.151c-2.046-5.173-4.063-10.661-5.948-16.193c-0.024-0.069-0.049-0.138-0.072-0.207
		c-0.687,18.618-0.261,37.35-4.768,55.367c-4.05,16.188-11.962,31.203-16.071,47.376c-6.647,26.164-29.141,56.966-33.918,83.534
		c-2.278,17.524-4.384,32.13-6.353,44.322c1.005-1.9,2.065-3.106,3.157-3.158c6.77-0.322,0.811,13.144-0.038,16.134
		c-2.844,10.015-5.648,20.063-8.763,29.998c-1.435,4.577-3.615,16.268-8.34,18.334c-6.126,2.679-9.747-4.667-14.077-8.38
		c-1.268-1.087-2.916-1.67-4.579-1.513c-0.775,0.073-1.62,0.158-2.494,0.244c-1.657,1.797-3.313,3.544-4.973,5.251
		c-5.693,7.747-13.939,21.496-23.338,25.466c-6.276,2.65-11,5.292-16.474,9.563c-3.609,2.816-9.996,12.383-13.833,13.335
		c-4.916,1.219-5.164-1.079-3.981-3.839c-12.304,7.37-26.055,14.851-41.999,23.249c-35.199,18.539-36.094,39.489-88.825,36.647
		c-0.042,10.222-31.36-10.115-37.613-13.891c-4.538-1.747-8.349-3.103-10.63-3.624c-0.428-0.077-0.855-0.158-1.284-0.228
		c-2.065-0.185-3.926-0.493-5.673-0.882c-6.151-1.013-11.989-2.585-16.38-8.529c-5.408-7.32-6.964-25.539-15.646-24.772
		c-7.472,0.66-9.67,6.946-16.211-2.422c-3.548-5.081-4.625-12.369-7.147-17.992c-4.708-6.807-2.969-3.884-11.329-4.218
		c0.357,0.275,0.178,0.138,0,0c-4.337,0.374-7.194-1.227-9.116-3.806c-0.001,0-0.002,0-0.004,0c0-0.003-0.001-0.006-0.002-0.009
		c-3.147-4.232-3.779-11.097-4.254-16.256c-0.344-3.741-3.141-15.048-1.46-18.008c1.629-2.868,2.909-3.478,3.92-2.71
		c-2.669-6.374-7.377-14.122-15.425-23.988c-23.443-28.738-74.76-14.369-91.866-59.528c-4.758-12.562-8.21-19.255-9.976-28.343
		c0.003,0.36,0.007,0.721,0.012,1.081c0.024,1.583,0.064,3.167,0.128,4.753c0.017,0.428,0.029,0.855,0.048,1.283
		c0.095,2.062,0.212,4.125,0.35,6.184c0.014,0.218,0.031,0.436,0.046,0.654c0.15,2.19,0.312,4.377,0.48,6.556
		c0.163,2.119,0.328,4.233,0.482,6.334c0.046,0.627,0.089,1.251,0.133,1.877c0.046,0.651,0.092,1.304,0.134,1.953
		c0.086,1.329,0.167,2.654,0.234,3.971c1.121,21.919,1.089,43.858,1.933,65.782c2.183-2.625,5.372-8.789,9.629-7.044
		c0.478,0.196,0.887,0.451,1.24,0.755c0.53,0.456,0.902,1.042,1.217,1.673c0.478,0.96,0.777,2.056,0.996,3.188
		c0.041,0.211,0.084,0.417,0.122,0.628c0.122,0.686,0.242,1.358,0.373,2.004c0.094,0.461,0.207,0.896,0.333,1.309
		c0.052,0.171,0.092,0.359,0.153,0.519c0.807,2.131,1.102,4.404,1.223,6.681c0.01,0.193,0.028,0.386,0.036,0.579
		c0.039,0.96,0.136,2.006,0.253,3.075c0.075,0.684,0.157,1.372,0.252,2.073c0.55,4.084,1.349,8.264,1.472,10.384
		c0.496,8.58,1.18,16.779,2.199,25.344c0.241,2.026-0.403,9.784,1.17,11.987c0.908,1.27,5.355,2.229,7.098,4.538
		c3.691,4.89,4.885,12.629,6.817,18.448c12.457-11.352,13.48,9.415,16.085,18.174c7.931-4.409,10.329,4.307,12.528,10.261
		c3.221,8.724,8.197,15.021,13.181,22.802C373.729,800.098,377.212,813.32,384.754,816.786z"/>
	<path fill="#F4D5B5" d="M303.806,159.104c1.182-4.05,2.54-8.326,5.653-11.127c-0.114-0.056-0.226-0.116-0.34-0.173
		c-0.568,0.2-1.105,0.588-1.609,1.15c-0.23,0.257-0.453,0.547-0.671,0.867c-2.289,3.375-3.842,10.03-4.732,15.25
		C302.654,163.073,303.228,161.083,303.806,159.104z"/>
	<path fill="#F4D5B5" d="M565.556,58.214c0.013,0.005,0.027,0.01,0.04,0.015c-0.211-0.101-0.424-0.238-0.635-0.327
		c-0.204-0.086-0.407-0.166-0.61-0.237c-0.055,0.033-0.104,0.067-0.16,0.1C564.651,57.885,565.107,58.048,565.556,58.214z"/>
	<path fill="#F4D5B5" d="M463.784,406.738c5.561-4.406,8.921-10.822,11.142-17.191c0.29-5.259,3.581-14.56,4.259-16.999
		c0.406-1.827,0.788-3.266,1.232-4.107c0,0,0,0,0-0.001c1.943-5.956,4.439-10.935,8.399-16.236
		c11.559-15.474,30.572-34.229,49.924-39.53c22.633-6.24,41.044-0.381,61.422,9.694c2.377,1.175,7.488,3.417,11.36,5.792
		c3.186,1.084,6.14,1.869,8.736,2.123c111.804,10.939,114.544-62.159,138.369-84.837c-2.092-1.915-4.154-3.865-6.157-5.868
		c-0.017-0.017-0.034-0.035-0.052-0.052c-0.895-0.896-1.774-1.805-2.642-2.723c-0.19-0.201-0.379-0.403-0.568-0.606
		c-0.748-0.801-1.483-1.613-2.207-2.434c-0.165-0.187-0.332-0.371-0.496-0.559c-0.868-0.998-1.718-2.009-2.544-3.041
		c-0.076-0.094-0.147-0.192-0.222-0.287c-0.717-0.903-1.414-1.82-2.094-2.751c-0.226-0.308-0.445-0.62-0.666-0.931
		c-0.547-0.77-1.079-1.551-1.598-2.342c-0.21-0.319-0.421-0.635-0.626-0.957c-0.69-1.088-1.363-2.189-1.996-3.32
		c-9.53-17.004-27.578-25.995-40.525-40.924c-7.302-8.42-14.655-17.073-23.497-23.927c-5.786-4.486-13.961-12.218-20.778-14.847
		c-5.267-2.031-9.094,0.543-12.419-5.46c-3.514-6.346-2.414-12.959-7.206-19.587c-1.621-2.243-3.352-4.287-5.167-6.234
		c-1.066-1.144-2.156-2.261-3.282-3.348c-2.181-2.105-4.478-4.139-6.858-6.214c-2.951-2.573-6.042-5.229-9.24-8.173
		c-0.221-0.204-0.436-0.391-0.659-0.598c-0.612-0.569-1.264-1.09-1.886-1.648c-6.874-6.156-14.323-11.611-21.956-16.812
		c-0.262,1.082-2.792,0.499-9.443-3.774c-5.456-3.506-16.923,5.102-23.236,5.806c-2.465,0.275-3.628-0.047-3.93-0.732
		c-3.553,4.74-6.071,9.764-7.942,14.929l0,0c-0.005,0.011-0.008,0.023-0.013,0.034c-0.588,1.628-1.117,3.268-1.589,4.918
		c-0.613,2.505-0.963,5.024-1.065,7.526c-0.123,2.071,0.061,4.122,0.395,6.055c0.369,2,1.116,3.461,2.193,5.507
		c2.024,3.781,4.081,7.464,6.927,10.414c0.733,0.302,1.446,0.548,2.106,0.725c1.288,0.085,2.623,0.18,3.982,0.281
		c5.084,0.378,10.486,0.837,15.036,1.177c1.164,0.039,2.323,0.108,3.47,0.247c1.044,0.068,2.083,0.19,3.115,0.352
		c8.372,0.905,14.62,1.386,16.539,5.846c0.482,1.12-0.492,1.686-1.615,2.161c-11.516,4.871-4.323,5.724-29.135,4.871
		c-24.68-0.848-38.25,0.034-57.607,4.907c-14.844,3.736-22.716,7.401-37.465,16.639c-12.301,7.704-20.459,13.171-31.7,22.353
		c-6.894,5.631-19.529,16.797-25.659,23.251c-17.107,18.014-33.016,20.508-48.688,39.29c-2.969,4.058-5.918,6.665-7.644,4.024
		c-0.037-0.057-0.052-0.126-0.079-0.188c-1.039,0.688-1.736,0.514-0.329-2.979c0.006-0.013,0.011-0.025,0.018-0.039
		c0.366-2.013,1.543-4.437,3.034-6.897c0-0.001,0.001-0.002,0.001-0.003c6.562-15.157,9.689-24.342,10.313-32.412
		c0.307-3.975,2.028-7.823,1.552-11.781c-0.664-5.521-4.035-10.286-7.299-14.788c-0.484-0.667-1.018-1.32-1.555-1.971
		c-0.352-0.392-0.705-0.783-1.076-1.156c-0.956-0.959-1.852-1.958-2.875-2.839l-1.469-1.372l-1.538-1.298
		c-4.113-3.431-8.536-6.476-13.146-9.242l-3.462-2.082l-3.567-1.92c-2.32-1.398-4.835-2.434-7.211-3.766
		c-1.031-0.503-2.069-1.018-3.106-1.519c0.587,0.856,0.94,1.865,1.102,2.894c0.747,4.744-2.061,9.358-5.466,12.744
		c-3.405,3.386-7.518,6.064-10.533,9.801c-1.062,1.316-1.941,2.767-2.671,4.289c0.504,20.07,6.678,39.487,10.091,59.191
		c3.239,18.699,6.954,37.643,9.485,56.432c1.609,11.943-2.055,22.783-3.066,34.507c-0.876,10.158-0.966,20.561-0.325,30.736
		c1.249,19.819,6.688,39.411,7.174,59.217c20.028,11.428,40.718,14.849,64.503,14.849
		C418.209,437.022,446.671,420.294,463.784,406.738z M559.671,111.001c-1.709-0.108-3.533-0.287-4.864-1.364
		c-2.457-1.987-2.004-5.813-1.126-8.849c2.532-8.767,6.701-17.058,12.227-24.32c0.49,2.012-0.307,4.085-1.006,6.034
		c-2.585,7.216-3.967,14.861-4.072,22.526c-0.009,0.645,0.001,1.327,0.333,1.88c0.294,0.489,0.802,0.808,1.318,1.051
		c3.887,1.834,8.781,0.288,12.268,2.795C570.424,112.207,564.304,111.293,559.671,111.001z M643.852,196.506
		c4.801,0.061,9.431,1.095,13.914,2.43c4.468,1.425,8.807,3.238,12.863,5.55c4.071,2.273,7.898,4.964,11.299,8.148
		c-4.307-1.776-8.457-3.637-12.657-5.32c-4.2-1.672-8.407-3.244-12.693-4.54c-4.269-1.355-8.61-2.487-12.957-3.152
		c-4.359-0.615-8.789-0.611-13.248,0.785C634.073,197.485,639.114,196.412,643.852,196.506z M572.202,253.664
		c4.12-8.286,11.906-17.563,15.995-20.49c2.384-1.706,5.166-2.753,7.912-3.78c7.386-2.764,8.546-3.433,15.931-6.197
		c0.347-0.18,0.759-0.31,1.186-0.432c0.79-0.282,1.573-0.532,2.355-0.782c0.05-0.025,0.107-0.039,0.155-0.066
		c0.124-0.068,0.205-0.082,0.269-0.074c23.816-7.469,43.861-0.626,56.336,8.013c7.781,5.388,14.113,14.586,11.05,24.462
		c-1.228,3.959-3.823,7.514-6.367,10.969c-2.363,3.21-4.84,6.526-8.249,8.613c-4.896,2.998-10.7,2.89-16.073,2.672
		c-7.12-0.289-14.393-0.644-21.123-2.212c0.712,0.782,1.384,1.597,1.991,2.46c-2.68-1.557-5.327-2.923-8.005-4.164
		c6.311,9.008,5.218,23.085-2.715,30.771c-9.774,9.47-29.507,8.438-39.17-0.385c-5.216-4.762-7.278-9.971-7.071-14.986
		c-0.012-0.566,0.011-1.129,0.051-1.691c-0.802,1.015-2.245,1.445-3.296,0.728C560.993,278.649,565.459,264.357,572.202,253.664z
		 M339.915,230.482c-0.354-4.533,0.192-9.659-1.657-13.953c-0.897-2.084-2.363-3.861-3.791-5.625
		c-7.45-9.203-14.359-18.844-20.68-28.856c7.192-0.093,14.18,2.611,19.298,7.665c2.325,2.296,4.9,4.474,6.771,7.107
		c1.361,1.916,2.341,4.072,3.312,6.212c0.851,1.875,1.709,3.773,2.095,5.796C346.223,216.282,342.385,223.635,339.915,230.482z
		 M375.099,341.082c0.829-3.73,2.033-7.681,3.66-11.678c1.644-6.27,5.6-11.877,9.594-16.908c4.377-5.514,9.072-10.946,15.053-14.659
		c4.128-2.563,8.75-4.221,13.429-5.539c8.081-2.956,17.527-4.755,28.574-4.869c9.76-0.1,39.824,6.994,34.496,30.314
		c-0.4,1.749-2.552,2.348-3.893,1.146c-0.8-0.717-1.651-1.308-2.523-1.845c22.749,15.134,12.953,56.899-17.667,49.354
		c-6.347-1.564-10.838-4.689-13.778-8.673c-5.275-5.409-6.796-13.231-5.656-20.818c-0.113,0.366-0.225,0.732-0.345,1.104
		c-3.346,10.369-10.993,18.732-18.43,26.744c-3.646,3.929-7.665,8.071-12.952,9.092c-3.681,0.711-7.461-0.213-11.095-1.131
		c-3.912-0.988-7.922-2.02-11.217-4.332C374.127,362.619,372.933,350.831,375.099,341.082z"/>
	<path fill="#F4D5B5" d="M510.632,131.083c5.661-0.113,11.329-0.225,16.934-0.742C522.272,130.4,516.623,130.616,510.632,131.083z"
		/>
	<path fill="#FFEFE1" d="M564.191,57.765c-7.704,4.556-13.322,9.75-17.511,15.338c0.302,0.685,1.465,1.007,3.93,0.732
		c6.313-0.704,17.78-9.312,23.236-5.806c6.651,4.274,9.181,4.856,9.443,3.774c-0.394-0.268-0.781-0.545-1.176-0.812
		c-0.831-0.562-1.653-1.137-2.487-1.694c-0.624-0.417-1.261-0.903-1.905-1.422c-1.25-1.007-2.534-2.161-3.837-3.34
		c-0.694-0.628-1.393-1.26-2.095-1.876c-0.511-0.449-1.023-0.885-1.535-1.308c-0.712-0.588-1.424-1.148-2.136-1.651
		c-0.393-0.278-0.786-0.539-1.178-0.78c-0.451-0.277-0.898-0.478-1.345-0.692c-0.013-0.005-0.027-0.01-0.04-0.015
		C565.107,58.048,564.651,57.885,564.191,57.765z"/>
	<path fill="#FFEFE1" d="M314.16,167.999c3.405-3.386,6.213-8,5.466-12.744c-0.162-1.029-0.515-2.039-1.102-2.894
		c-1.419-0.687-2.838-1.363-4.252-2.08c-1.606-0.748-3.212-1.512-4.813-2.304c-3.112,2.801-4.47,7.078-5.653,11.127
		c-0.578,1.979-1.152,3.97-1.699,5.968c0,0.001-0.001,0.002-0.001,0.004c-0.291,1.704-0.511,3.258-0.663,4.491
		c-0.044,0.358-0.082,0.689-0.115,0.99c-0.04,0.367-0.071,0.688-0.094,0.956c-0.304,3.55-0.368,7.072-0.28,10.577
		c0.731-1.522,1.609-2.973,2.671-4.289C306.642,174.063,310.755,171.385,314.16,167.999z"/>
	<path fill="#D57E9E" d="M558.495,486.344c10.026,3.263,19.005,2.381,27.207-1.63c2.645-2.265,3.629-3.677,5.645-5.702
		c4.834-4.856,6.495-11.771,8.345-18.389c4.224-15.109-0.674-31.059-0.967-46.782c-5.385,2.121-10.82,3.991-16.336,5.919
		c-1.459,0.51-6.436,1.735-7.656,3.041c-2.314,2.475-1.147,2.939-1.21,6.952c-0.062,3.937,0.717,6.89,1.218,10.886
		c0.661,5.28,3.356,30.601-3.063,23.526c-4.411-2.879-5.08-6.531-5.495-9.915c-0.214-1.747-0.428-3.494-0.642-5.24
		c-0.435-3.55-5.104-15.886-2.39-21.735c-6.8,1.882-14.106,2.839-20.367,5.488c-5.885,2.489-4.932,2.653-6.133,9.713
		C534.703,459.488,540.97,480.64,558.495,486.344z"/>
	<path fill="#F9D9E9" d="M565.54,449.008c0.214,1.747,0.428,3.494,0.642,5.24c0.415,3.384,1.084,7.036,5.495,9.915
		c-0.398-0.439-0.827-0.989-1.298-1.689c-2.312-3.439-1.147-15.213-1.698-19.751c-0.681-5.607-1.219-11.101-1.39-16.746
		c-1.347,0.492-2.737,0.907-4.142,1.296C560.436,433.122,565.105,445.458,565.54,449.008z"/>
	<path fill="#FFEFE1" d="M406.651,205.298c6.13-6.455,18.765-17.62,25.659-23.251c11.241-9.182,19.399-14.649,31.7-22.353
		c14.749-9.237,22.621-12.902,37.465-16.639c19.357-4.872,32.927-5.755,57.607-4.907c24.812,0.853,17.619,0,29.135-4.871
		c1.123-0.475,2.097-1.041,1.615-2.161c-1.919-4.46-8.166-4.942-16.539-5.846c1.38,0.217,2.747,0.513,4.084,0.927
		c4.451,1.377,8.483,3.712-8.135,5.181c-7.558,0.668-22.125-1.25-41.676-1.036c-5.606,0.516-11.273,0.629-16.934,0.742
		c-5.979,0.466-12.266,1.168-18.861,2.229c-1.461,0.556-3.049,1.121-4.61,1.696c-0.181,0.067-0.357,0.134-0.536,0.201
		c-0.453,0.169-0.905,0.338-1.345,0.509c-0.592,0.23-1.166,0.463-1.718,0.698c-0.055,0.024-0.118,0.047-0.173,0.07
		c-2.98,1.283-6.047,2.364-9.191,3.164c-0.266,0.068-0.536,0.154-0.804,0.23c-0.279,0.079-0.556,0.152-0.837,0.239
		c-0.312,0.097-0.626,0.209-0.939,0.317c-0.28,0.096-0.558,0.185-0.84,0.288c-0.32,0.117-0.641,0.248-0.962,0.374
		c-0.276,0.109-0.552,0.212-0.828,0.327c-0.322,0.134-0.644,0.278-0.965,0.42c-0.278,0.122-0.557,0.239-0.835,0.367
		c-0.316,0.145-0.631,0.299-0.946,0.449c-0.282,0.135-0.564,0.266-0.845,0.405c-0.316,0.157-0.629,0.321-0.944,0.483
		c-0.276,0.142-0.553,0.28-0.828,0.426c-0.317,0.168-0.63,0.341-0.944,0.513c-0.268,0.146-0.538,0.29-0.803,0.438
		c-0.314,0.175-0.621,0.354-0.93,0.532c-0.26,0.149-0.522,0.297-0.779,0.447c-0.307,0.18-0.607,0.361-0.909,0.542
		c-0.252,0.15-0.507,0.3-0.754,0.451c-0.32,0.195-0.632,0.389-0.945,0.583c-0.217,0.135-0.441,0.271-0.655,0.405
		c-0.324,0.203-0.636,0.404-0.951,0.605c-0.196,0.125-0.398,0.252-0.591,0.376c-0.276,0.178-0.539,0.35-0.808,0.525
		c-0.22,0.143-0.447,0.29-0.661,0.431c-0.274,0.18-0.534,0.353-0.798,0.528c-0.188,0.125-0.385,0.254-0.568,0.376
		c-0.704,0.469-1.354,0.906-1.969,1.319c-0.545,0.366-1.065,0.715-1.53,1.023c-7.186,4.762-10.247,4.382-22.851,11.362
		c-9.242,5.437-22.849,33.221-35.485,41.737c-9.6,6.469-17.165,14.139-23.723,23.652c-1.338,1.941-5.19,9.554-9.007,14.77
		C373.636,225.806,389.544,223.312,406.651,205.298z"/>
	<path fill="#FFEFE1" d="M570.179,124.918c-1.147-0.139-2.306-0.208-3.47-0.247C567.931,124.762,569.105,124.847,570.179,124.918z"
		/>
	<path fill="#FFEFE1" d="M391.048,643.659c8.048,9.865,12.755,17.614,15.425,23.988c3.033,2.304,3.636,17.019,3.923,20.362
		c0.753,8.781-0.113,6.622,5.448,13.125c1.711,1.882,12.829-3.25,17.038,5.55c1.362,2.848,7.846,15.435,8.138,20.429
		c0.094,1.608,1.195,3.073,2.798,3.224c2.327,0.219,2.806-2.808,7.712-4.075c13.943-3.6,15.891,22.68,22.486,29.538
		c7.05,7.331,18.715,3.127,27.299,7.508c6.476,3.305,12.342,8.049,18.798,11.489c4.257,2.268,17.946,5.567,19.188,10.195
		c52.731,2.842,53.627-18.108,88.825-36.647c15.944-8.398,29.695-15.879,41.999-23.249c0.985-2.297,2.958-4.914,4.091-6.101
		c4.179-4.381,9.285-8.081,14.159-11.699c10.926-8.111,20.627-7.8,28.656-19.58c2.348-3.455,5.114-8.988,8.498-11.916
		c-0.003,0-0.006,0-0.009,0c4.114-5.021,8.178-7.988,14.091-4.08c2.681,1.772,2.437,1.361,5.288,4.598
		c2.516,2.613,5.707,4.003,7.597,1.022c4.236-6.683,6.166-21.232,7.529-25.923c1.072-3.69,4.069-20.643,7.831-27.754
		c1.968-12.191,4.074-26.797,6.353-44.322c4.777-26.569,27.271-57.371,33.918-83.534c4.109-16.173,12.021-31.189,16.071-47.376
		c4.508-18.017,4.081-36.748,4.768-55.367c-0.001-0.004-0.003-0.009-0.004-0.013c-1.302-3.83-2.537-7.677-3.669-11.457
		c-0.014-0.047-0.03-0.096-0.044-0.143c-0.518-1.733-1.008-3.444-1.479-5.139c-0.05-0.18-0.107-0.367-0.157-0.547
		c-0.512-1.859-0.994-3.689-1.439-5.478c-4.517-18.157,4.84-37.43-9.77-52.073c-4.962-4.973-10.056-8.458-8.587-16.237
		c0.463-2.453,1.161-4.532,2.589-5.604c1.942-1.457,1.999-4.497-0.168-5.594c-0.833-0.422-4.148-2.707-6.072-4.118
		c-4.776-2.967-6.093-4.389-9.362-9.373c-5.087-7.756-11.884-13.922-18.733-19.963c-1.523-1.343-3.07-2.691-4.614-4.039
		c-2.953-2.577-5.919-5.177-8.831-7.842c-23.825,22.678-26.565,95.777-138.369,84.837c-2.597-0.254-5.551-1.039-8.736-2.123
		c2.314,1.419,4.187,2.885,4.769,4.2c3.961,8.946-3.92,4.673-8.427,1.892c-8.948-0.282-17.56-4.433-26.33-6.804
		c-15.195-4.106-31.806-2.745-46.13,3.78c-12.524,5.706-22.991,15.019-33.249,24.195c-2.534,2.267-5.084,4.549-7.187,7.222
		c-5.991,7.613-7.916,17.682-12.971,25.92c-1.725,4.485-3.822,7.002-6.448,4.271c-0.553-0.576-0.706-1.773-0.623-3.288
		c-2.221,6.369-5.581,12.786-11.142,17.191c-17.113,13.557-45.575,30.285-74.968,30.285c-23.785,0-44.475-3.421-64.503-14.849
		c0.53,21.622-2.089,41.421-15.054,58.877c-10.3,13.867-13.2,33.637-17.528,50.455c-0.281,1.091-0.527,2.189-0.755,3.291
		c-0.081,0.392-0.15,0.786-0.224,1.179c-0.134,0.705-0.262,1.411-0.376,2.12c-0.079,0.488-0.151,0.978-0.22,1.468
		c-0.086,0.601-0.164,1.203-0.238,1.806c-0.067,0.559-0.134,1.118-0.191,1.678c-0.05,0.489-0.09,0.979-0.133,1.469
		c-0.148,1.722-0.243,3.454-0.31,5.19c-0.024,0.631-0.029,1.265-0.043,1.897c-0.025,1.105-0.046,2.211-0.044,3.319
		c0,0.289,0.007,0.578,0.009,0.867c1.766,9.088,5.218,15.782,9.976,28.343C316.288,629.291,367.605,614.922,391.048,643.659z
		 M796.693,474.184c1.081-5.612,1.659-11.158,1.805-16.923c0.137-2.898,0.467-6.051,1.309-8.974
		c0.844-2.916,1.914-5.667,3.065-8.326c2.229-5.331,4.558-10.488,4.607-16.39c0.839,2.821,0.823,5.894,0.429,8.849
		c-0.432,2.962-1.245,5.823-2.096,8.6c-0.807,2.793-1.761,5.489-2.326,8.2c-0.637,2.692-0.908,5.337-0.975,8.23
		c-0.142,2.866-0.347,5.898-0.796,8.819c-0.496,2.929-1.078,5.845-1.978,8.67c-1.712,5.665-4.2,11.092-7.566,15.891
		C794.038,485.281,795.604,479.77,796.693,474.184z M678.504,426.137c6.678-9.45,13.731-19.706,17.565-30.189
		c0.193-0.527,0.396-1.056,0.594-1.584c1.246-3.32,2.577-6.654,3.874-10.005c1.833-4.738,3.579-9.511,4.832-14.33
		c1.866-7.171,2.508-14.161,5.902-20.838c2.419-4.76,7.886-11.612,9.143-4.624l0.196-0.456c-0.003,0.446-0.027,0.975-0.062,1.542
		c0.017,0.167,0.046,0.299,0.059,0.478c0.02,0.264-0.052,0.64-0.178,1.081c-1.178,12.974-3.853,45.629-6.901,57.563
		c-4.163,16.301-5.352,28.276-10.264,40.068c-7.86,18.869-28.848,28.37-43.287,38.94c-3.901,2.856-7.732,4.563-15.207,11.158
		c0.002-0.005,0.004-0.012,0.006-0.017c-1.337,1.703-2.771,1.493-3.995-3.329c-0.622-2.449-0.014-6.028,1.063-9.745
		c1.466-5.056,3.803-10.369,5.138-13.456c1.523-3.524,3.455-6.802,5.629-9.932c6.706-9.655,15.751-17.892,22.493-27.51
		C676.214,429.374,677.355,427.764,678.504,426.137z M475.63,425.939c1.307-1.08,13.469,2.1,16.284,2.421
		c8.288,0.946,16.587,2.095,24.956,1.894c7.844-1.506,15.479-4.987,20.6-11.077c0.913-1.086,1.761-2.29,2.054-3.679
		c0.359-1.705-0.519-7.822-7.644-12.482c-4.448-2.485-8.303-5.738-10.471-9.192c-4.684-6.417-6.132-11.316-5.385-15.315
		c1.378-7.374,10.244-11.675,20.214-16.712c3.293-1.664,6.8-4.002,10.464-5.455c0.736-0.663,1.619-1.191,2.677-1.533
		c4.797-1.551,11.183-2.213,15.146-0.039c2.395,1.314,4.391,1.913,6.814,6.568c1.922,3.69,1.9,9.828,1.818,13.488
		c-0.094,4.189-0.904,10.035-1.184,13.737c-0.585,7.75,6.077,19.112,12.533,17.669c16.63-3.719,21.714-7.124,30.659-9.599
		c1.457-0.403,2.914-0.806,4.372-1.209c1.269-1.032,2.512-2.102,3.69-3.26c5.354-5.262,10.896-11.61,15.48-17.597
		c1.876-2.451,10.182-21.514,14.338-15.57c4.573,6.541-12.168,21.429-15.006,26.281c-1.37,2.342-1.674,5.841-2.365,8.291
		c-3.709,13.15-16.83,26.574-18.331,39.88c-2.696,23.908-4.568,44.066-28.183,56.938c-12.168,6.633-28.995,5.901-40.86-1.445
		c-11.626-7.198-13.369-15.858-16.317-28.143c-0.209-2.007-0.853-6.004-1.602-6.873c-1.846-2.142-5.878-2.655-8.96-3.897
		c-6.238-2.512-12.689-5.218-17.82-9.577c-4.844-4.115-4.935-4.846-12.003-5.741C487.43,434.184,468.077,432.182,475.63,425.939z
		 M378.181,450.677c2.843,0.766,5.545,0.724,8.225,0.416c3.916-0.45,7.785-1.472,11.971-1.407c4.623,0.071,7.066,2.69,10.513,3.351
		c5.724,1.098,10.542,0.773,15.825,2.116c1.447,0.368,2.922,0.835,4.468,1.522c6.622,2.939,11.608,6.555,17.349,10.701
		c3.326,2.402,6.891,4.238,10.536,5.926c7.14,3.305,14.594,6.029,21.203,11.236c5.27,4.152,10.382,9.052,14.879,14.371
		c3.036,3.591,5.8,7.368,8.113,11.256c2.801,4.707,9.78,14.504,9.506,19.979c-0.228,4.558-1.635,5.277-3.287,4.188
		c-0.103,0.161-0.181,0.625-0.313,0.481c-10.93-11.917-20.344-13.498-25.228-18.05c-10.016-9.332-8.121-9.692-19.843-16.764
		c-2.893-1.745-10.724-6.455-13.685-8.083c-8.562-4.708-15.33-13.388-24.658-16.294c-19.664-6.127-24.625-12.823-43.998-17.884
		c-4.469-0.754-13.688-3.596-16.198-6.542C354.36,440.396,375.04,449.831,378.181,450.677z M308.325,534.15
		c0.847-4.574,2.597-9.312,5.949-12.985c1.643-3.635,3.166-7.361,4.776-11.031l4.751-11.366c3.087-7.615,6.138-15.224,8.523-23.148
		c-0.356,4.135-1.235,8.211-2.204,12.245c-1.003,4.029-2.166,8.014-3.469,11.949c-1.26,3.951-2.686,7.84-4.157,11.711
		c-1.445,3.887-3.062,7.683-4.694,11.516l-0.121,0.285l-0.244,0.266c-2.778,3.034-4.491,7.017-5.319,11.291
		c-0.893,4.262-1.101,8.779-1.107,13.275c0.022,4.498,0.326,9.02,0.916,13.524c0.54,4.517,1.421,8.999,2.358,13.509
		c-1.831-4.228-3.255-8.636-4.367-13.138c-1.093-4.506-1.818-9.119-2.131-13.781C307.472,543.614,307.523,538.906,308.325,534.15z"
		/>
	<path fill="#F9D9E9" d="M599.691,460.623c-1.85,6.618-3.512,13.533-8.345,18.389c-2.016,2.025-3,3.437-5.645,5.702
		c4.116-2.012,8.039-4.798,11.794-8.271c19.067-17.635,13.833-43.511,7.125-65.045c-1.959,0.861-3.925,1.666-5.896,2.443
		C599.017,429.563,603.915,445.514,599.691,460.623z"/>
	<path fill="#EABB98" d="M572.355,416.958c15.631-6.307,33.772-10.63,47.181-21.534c-1.457,0.403-2.914,0.806-4.372,1.209
		c-8.945,2.475-14.028,5.88-30.659,9.599c-6.456,1.443-13.119-9.918-12.533-17.669c0.28-3.702,1.09-9.548,1.184-13.737
		c0.082-3.66,0.104-9.798-1.818-13.488c-2.424-4.656-4.42-5.255-6.814-6.568c-3.963-2.174-10.35-1.512-15.146,0.039
		c-1.058,0.342-1.941,0.871-2.677,1.533c3.108-1.232,6.328-1.829,9.63-0.814c8.624,2.651,10.702,14.92,10.781,22.58
		c0.063,6.043-0.95,13.493-3.941,19.412c-1.475,2.917-3.451,5.436-6.004,7.249c-2.089,1.484-4.557,2.505-7.514,2.811
		c-5.356,0.554-12.055-1.37-17.774-4.565c7.125,4.659,8.003,10.776,7.644,12.482c-0.293,1.389-1.14,2.593-2.054,3.679
		c-5.121,6.089-12.756,9.571-20.6,11.077c0.503-0.012,1.005-0.011,1.508-0.034C536.609,429.413,555.435,423.785,572.355,416.958z"/>
	<path fill="#D39D79" d="M589.204,290.479c-0.243-0.181-0.494-0.359-0.711-0.551c-4.17-3.662-3.154-9.764,0.079-13.965
		c-3.059,3.147-4.568,7.613-2.174,11.544c0.228,0.376,0.488,0.749,0.781,1.122c0.939,1.192,1.94,2.048,2.968,2.617
		c-0.12-0.088-0.258-0.17-0.372-0.26C589.569,290.823,589.387,290.651,589.204,290.479z"/>
	<path fill="#FFEFE1" d="M489.775,767.251c-1.9-0.311-3.8-0.574-5.673-0.882C485.849,766.757,487.71,767.066,489.775,767.251z"/>
	<path fill="#FFEFE1" d="M727.752,680.574c1.66-1.708,3.317-3.454,4.973-5.251C731.421,675.888,729.741,677.867,727.752,680.574z"/>
	<polygon fill="#FFEFE1" points="408.27,704.63 408.273,704.629 408.268,704.621 	"/>
	<path fill="#FFEFE1" d="M491.059,767.478c2.281,0.522,6.093,1.878,10.63,3.624c-0.346-0.209-0.634-0.379-0.817-0.479
		C497.75,768.926,494.419,768.083,491.059,767.478z"/>
	<path fill="#FFEFE1" d="M480.417,368.44C480.417,368.44,480.417,368.44,480.417,368.44c-0.444,0.842-0.826,2.28-1.232,4.107
		c0.008-0.029,0.023-0.075,0.03-0.102C479.592,371.049,479.996,369.729,480.417,368.44z"/>
	<path fill="#EAC5A4" d="M850.842,935.056c1.305-5.697,3.516-9.286,4.875-15.908c2.313-11.267,3.982-20.733,6.529-31.81
		c3.924-17.064,6.522-33.774,3.636-51.254c-2.363-14.314-6.607-28.241-10.601-42.268c-10.927,13.084-50.352,41.469-61.401,54.471
		c-27.403,32.25-36.955,70.732-61.143,103.515c0.443,5.232,0.83,10.466,1.465,15.63c2.576,20.946,3.372,40.448,3.237,61.461
		c-0.066,10.165,1.217,20.538,0.186,30.615c-1.275,12.463-2.238,23.552,1.528,35.76c13.347-6.643,24.77-16.804,38.526-22.68
		c13.907-5.941,28.903-6.493,43.487-2.968c-8.712-27.049-0.841-51.539,8.139-65.651c7.591-11.928,13.613-38.655,17.432-52.235
		C849.046,943.523,849.326,941.676,850.842,935.056z M806.754,1062.183c0.727-0.04,0.831-0.971,0.568-1.343
		c-0.275-0.413-0.849-0.585-1.445-0.644c-1.271-0.097-2.63-0.205-3.935-0.269c-2.629-0.167-5.244-0.219-7.824-0.165
		c-5.158,0.141-10.218,0.887-14.885,2.703l-7.436,2.797c-2.455,0.917-5.178,1.697-7.21,2.696c-4.377,2.311-8.328,6.208-13.049,8.816
		c3.674-3.888,6.712-8.237,11.44-11.508c1.171-0.829,2.617-1.478,3.772-1.958l3.656-1.589l7.401-3.01
		c5.28-1.968,10.965-2.584,16.407-2.07c2.729,0.219,5.406,0.715,8.027,1.348c1.316,0.359,2.578,0.685,3.906,1.135
		c0.658,0.251,1.466,0.652,1.739,1.502C808.094,1061.42,807.496,1062.373,806.754,1062.183z"/>
	<path fill="#EAC5A4" d="M443.31,895.798c-5.508-5.729-10.91-7.997-16.296-10.263c1.338,11.434,2.747,22.842,3.049,34.517
		c0.502,19.414,0.218,37.971-1.832,57.266c-1.074,10.112-1.158,20.177-0.801,30.321c0.319,9.068,2.02,19.512,1.926,28.002
		c-0.153,13.835-5.161,30.231-6.52,44.734c23.501-16.976,61.958-3.458,76.104,19.65c16.009-37.845,18.344-84.11,17.872-125.297
		C483.077,952.759,470.584,924.172,443.31,895.798z M497.065,1087.649c-0.321,0.759-1.377,1.148-1.848,0.545
		c0.6,0.412,1.251-0.261,1.27-0.717c0.035-0.495-0.315-0.982-0.751-1.392c-0.947-0.853-1.957-1.769-2.951-2.617
		c-1.979-1.738-4.017-3.377-6.093-4.911c-4.169-3.04-8.632-5.54-13.435-6.954l-7.596-2.328c-2.504-0.774-5.136-1.82-7.355-2.27
		c-4.878-0.844-10.386-0.173-15.716-0.993c5.284-0.834,10.346-2.42,16.087-2.122c1.434,0.059,2.975,0.429,4.182,0.755l3.865,0.975
		l7.698,2.138c5.382,1.668,10.259,4.653,14.254,8.385c2.026,1.84,3.843,3.869,5.531,5.971c0.822,1.088,1.622,2.117,2.399,3.284
		C496.973,1085.998,497.368,1086.81,497.065,1087.649z"/>
	<path fill="#D39D79" d="M525.58,915.75c-7.405-4.048-14.905-7.774-22.294-12.048c-6.518-3.77-8.622-4.842-15.971-2.879
		c-6.014,1.605-8.284,4.015-14.819,1.272c-11.888-4.99-22.584-21.759-30.304-31.633c-6.847-8.758-8.087-7.736-17.55-10.527
		c0.427,8.629,1.38,17.122,2.373,25.601c5.386,2.266,10.788,4.533,16.296,10.263c27.274,28.374,39.767,56.961,73.503,78.929
		c-0.025-2.201-0.053-4.398-0.093-6.567c-0.207-11.342-0.42-18.91,5.707-28.639c1.323-2.101,5.376-9.602,8.133-10.671
		c5.43-2.105,5.596,0.144,4.276,3.111c3.422-4.312,4.207-8.534,4.796-12.28C535.592,920.146,531.276,918.863,525.58,915.75z"/>
	<path fill="#FFEFE1" d="M678.881,960.91c-2.88,1.864-4.849,4.812-6.736,7.677c-6.649,10.096-11.54,13.248-18.189,23.344
		c-0.978,1.485-1.996,3.01-3.476,3.996c-5.937,3.953-14.678,4.008-21.416,1.667c-5.228-1.817-10.95-0.743-16.447-0.093
		c-14.724,1.741-29.616,0.271-44.37-1.199c-9.92-0.988-19.839-1.977-29.759-2.965c-10.603-1.057-10.839-6.939-15.862-16.336
		c0.003,0.091,0.007,0.183,0.01,0.274c0.064,1.675,0.131,3.351,0.188,5.026c0.005,0.149,0.011,0.298,0.016,0.446
		c0.063,1.864,0.112,3.727,0.132,5.584c0.001,0.031,0.002,0.062,0.002,0.092c0.019,1.884,0.006,3.762-0.055,5.633
		c0,0.008,0,0.015,0,0.023c-0.062,1.881-0.174,3.754-0.355,5.616c-0.061,0.633-0.133,1.286-0.2,1.931
		c-0.264,11.098-0.587,22.732,0.016,33.993c0.143,0.118,0.295,0.249,0.464,0.409c0.955,0.906,7.219,6.661,8.62,6.998
		c4.355,1.048,8.979-4.516,14.656-1.594c5.249,2.701,6.745,10.366,11.91,13.39c9.432,5.521,9.606-4.421,17.4-5.735
		c8.278-1.396,15.636,7.928,24.806,4.671c3.428-1.217,4.982-5.001,8.737-5.997c2.513-0.667,5.242,0.894,7.623,0.005
		c4.993-1.864,5.683-8.716,9.95-11.109c7.773-4.361,15.264,5.215,21.628,8.048c14.746,6.564,18.372-10.616,31.661-9.218
		c4.811,0.506,11.508,7.66,16.301,4.525c3.636-2.378,5.114-13.078,6.119-16.836c0.634-2.374,0.532-5.652,2.018-7.686
		c1.178-1.612,3.906-1.007,4.974-1.971c1.468-1.324,1.376-3.33,3.414-4.52c1.94-1.133,4.902-0.911,6.555-1.989
		c5.402-3.519,3.788-14.511,12.232-13.025c-1.516-15.273-3.508-30.553-5.596-45.804c-8.609,7.339-28.578,7.701-38.443,9.799
		C684.452,958.608,681.42,959.267,678.881,960.91z"/>
	<path fill="#EAD1BE" d="M529.788,939.94c-0.31,0.442-0.612,0.888-0.913,1.335C529.175,940.828,529.478,940.382,529.788,939.94
		C529.788,939.94,529.788,939.94,529.788,939.94z"/>
	<path fill="#BC9C8E" d="M717.258,900.026c0.374-6.117,1.714-12.517,0.153-18.345c-6.904,3.687-22.979,11.723-31.511,14.294
		c-3.922,1.182-6.456,3.544-11.203,4.57c-2.157,1.078-3.544,1.043-6.222,1.53c-2.477,0.612-5.329,1.32-7.862,1.955
		c-1.795,0.514-3.526,1.307-5.604,3.517c-3.169,3.371-1.481,9.253-8.179,7.85c-2.868-0.601-6.269-6.049-8.229-8.192
		c-5.183,7.899-22.415,7.472-30.919,8.178c-9.329,0.774-24.97,4.86-33.464,1.344c-10.516-4.354-11.725-12.959-21.32-4.441
		c-4.985,4.426-8.969,6.9-13.266,7.395c-0.588,3.746-1.373,7.968-4.796,12.28c-0.652,1.465-1.66,3.094-2.586,4.472
		c-0.024,0.036-0.046,0.068-0.07,0.103c-0.237,0.352-0.464,0.682-0.681,0.99c-0.046,0.065-0.088,0.126-0.132,0.189
		c-0.222,0.315-0.431,0.608-0.608,0.853c-0.328,0.455-0.65,0.913-0.972,1.371c-1.567,3.447-2.801,6.622-3.586,9.187
		c-2.753,8.996-3.425,18.429-3.576,27.873c5.023,9.398,5.259,15.28,15.862,16.336c9.92,0.988,19.84,1.977,29.759,2.965
		c14.754,1.47,29.646,2.94,44.37,1.199c5.497-0.65,11.219-1.724,16.447,0.093c6.737,2.341,15.479,2.286,21.416-1.667
		c1.48-0.985,2.498-2.511,3.476-3.996c6.649-10.096,11.54-13.248,18.189-23.344c1.887-2.865,3.856-5.813,6.736-7.677
		c2.538-1.643,5.57-2.302,8.527-2.93c9.865-2.097,29.834-2.459,38.443-9.799c-0.75-5.473-1.509-10.943-2.267-16.407
		c-0.241-1.743-0.938-3.164-1.112-4.386C719.316,918.273,716.681,909.438,717.258,900.026z"/>
	<path fill="#D39D79" d="M855.281,793.816c-3.016-10.592-5.891-21.242-7.704-32.161c-5.818,7.304-14.345,9.829-17.732,16.821
		c-2.193,4.527-4.679,8.899-7.932,12.736c-4.027,4.752-8.848,10.928-11.876,12.567c-6.827,3.696-11.839,5.518-17.355,11.965
		c-3.001,3.506-4.84,7.073-7.649,10.094c-2.162,2.325-10.487,9.138-15.369,13.996c-2.392,2.38-5.124,4.351-8.038,6.053
		c-5.432,3.173-13.077,11.281-16.104,13.965c-8.282,7.343-15.829,14.777-25.466,20.378c-0.561,0.326-1.49,0.836-2.646,1.453
		c1.561,5.828,0.222,12.227-0.153,18.345c-0.577,9.413,2.058,18.248,5.215,27.362c-0.115-0.807-0.007-1.53,0.631-2.192
		c4.747-4.929,5.789,1.507,6.73,5.563c1.597,6.883,2.303,13.959,2.904,21.042c24.188-32.782,33.74-71.265,61.143-103.515
		C804.929,835.284,844.354,806.9,855.281,793.816z"/>
	<path fill="#EAC5A4" d="M911.188,889.011c-0.27-11.483-2.715-22.387-3.132-33.878c-0.594-16.364,0.747-32.716,0.418-49.089
		c-0.404-20.032,0.908-40.025,0.44-60.06c-0.238-10.175-0.29-20.179-2.803-30.124c-1.073-4.243-4.592-10.962-5.875-13.912
		c-1.077-2.533-2.345-4.704-3.174-6.572l-2.124-4.367c-3.711-7.192-6.705-14.634-9.699-22.171
		c-3.011,12.153-10.177,22.729-11.885,34.957c-1.927,13.798-7.734,23.956-13.732,36.136c-3.104,6.304-6.23,11.233-6.171,17.759
		c0.177,19.401,7.87,39.973,13.93,58.221c10.621,31.982,3.299,62.092-3.532,93.869c-6.961,32.379-15.492,63.367-25.129,95.028
		c6.151-0.745,14.245-0.152,19.905-2.181c3.72-1.333,8.554-5.411,12.678-7.327c7.237-3.362,22.319-4.5,31.92-1.077
		c-0.035-0.742-0.095-1.515-0.108-2.23c-0.204-10.465,1.358-21.099,3.313-31.376C910.927,936.958,911.752,913.051,911.188,889.011z"
		/>
	<path fill="#EAC5A4" d="M522.364,1001.626c-0.001,0.007-0.002,0.015-0.002,0.022c-0.416,3.976-0.919,8.141-1.314,12.325
		c-0.026,0.268-0.052,0.535-0.076,0.803c-0.082,0.903-0.152,1.804-0.22,2.704c-0.028,0.371-0.059,0.744-0.084,1.115
		c-0.056,0.838-0.096,1.669-0.135,2.499c-0.019,0.403-0.044,0.808-0.058,1.209c-0.029,0.841-0.036,1.67-0.042,2.499
		c-0.002,0.368-0.016,0.742-0.013,1.108c0.008,1.179,0.042,2.343,0.112,3.485c0.022,0.357,0.044,0.686,0.065,0.996
		c0.007,0.098,0.014,0.184,0.021,0.277c0.015,0.196,0.029,0.39,0.044,0.568c0.01,0.119,0.02,0.226,0.03,0.337
		c0.012,0.136,0.025,0.271,0.038,0.395c0.012,0.114,0.024,0.22,0.036,0.325c0.012,0.102,0.024,0.202,0.036,0.297
		c0.013,0.101,0.026,0.197,0.04,0.29c0.013,0.085,0.026,0.167,0.039,0.245c0.014,0.084,0.029,0.167,0.044,0.244
		c0.014,0.071,0.027,0.136,0.042,0.2c0.016,0.072,0.031,0.144,0.048,0.208c0.015,0.059,0.031,0.111,0.047,0.164
		c0.018,0.058,0.034,0.119,0.053,0.172c0.018,0.052,0.037,0.097,0.056,0.145c0.018,0.045,0.035,0.093,0.054,0.134
		c0.038,0.082,0.078,0.157,0.121,0.226c0.014,0.023,0.03,0.043,0.045,0.065c0.032,0.047,0.063,0.095,0.098,0.138
		c0.016,0.02,0.034,0.039,0.051,0.058c0.037,0.043,0.074,0.085,0.114,0.125c0.014,0.014,0.029,0.028,0.044,0.042
		c0.048,0.046,0.096,0.091,0.149,0.136c0.006,0.005,0.012,0.01,0.018,0.015c0.151,0.129,0.323,0.263,0.516,0.424
		C521.776,1024.359,522.1,1012.725,522.364,1001.626z"/>
	<path fill="#EAC5A4" d="M529.788,939.94c-0.31,0.442-0.612,0.888-0.913,1.334c-0.114,0.169-0.229,0.338-0.341,0.508
		c-0.249,0.376-0.49,0.756-0.729,1.136c-0.151,0.24-0.3,0.481-0.447,0.722c-0.208,0.343-0.41,0.689-0.608,1.036
		c-0.163,0.286-0.321,0.575-0.477,0.864c-0.173,0.322-0.343,0.645-0.506,0.971c-0.162,0.325-0.315,0.654-0.466,0.983
		c-0.141,0.306-0.282,0.612-0.412,0.923c-0.154,0.368-0.292,0.742-0.431,1.116c-0.106,0.286-0.217,0.57-0.314,0.86
		c-0.144,0.435-0.265,0.881-0.386,1.327c-0.066,0.243-0.143,0.48-0.202,0.726c-0.166,0.699-0.306,1.409-0.407,2.135
		c-0.128,0.917-0.237,1.838-0.328,2.761c-0.038,0.387-0.062,0.776-0.095,1.164c-0.045,0.537-0.096,1.074-0.131,1.613
		c-0.031,0.478-0.048,0.959-0.071,1.439c-0.022,0.452-0.051,0.903-0.066,1.356c-0.021,0.581-0.028,1.164-0.039,1.747
		c-0.007,0.351-0.02,0.702-0.023,1.054c-0.007,0.658-0.003,1.318-0.001,1.977c0.001,0.28-0.002,0.559,0,0.839
		c0.007,0.812,0.023,1.625,0.04,2.439c0.003,0.125,0.003,0.25,0.006,0.376c0.021,0.876,0.047,1.753,0.076,2.631
		c0.002,0.066,0.003,0.131,0.005,0.196c0.031,0.942,0.066,1.883,0.102,2.826c0,0,0,0,0,0c0.151-9.445,0.823-18.877,3.576-27.873
		C526.986,946.563,528.221,943.387,529.788,939.94z"/>
	<path fill="#EAC5A4" d="M530.759,938.569c-0.328,0.455-0.65,0.913-0.972,1.371c0,0,0,0,0,0
		C530.109,939.482,530.431,939.024,530.759,938.569z"/>
	<path fill="#EAC5A4" d="M522.564,999.696c-0.061,0.633-0.133,1.285-0.2,1.929c0,0,0,0.001,0,0.001
		C522.431,1000.982,522.502,1000.329,522.564,999.696z"/>
	<path fill="#EAC5A4" d="M522.626,977.003c0.003,0.091,0.007,0.181,0.01,0.272c-0.003-0.091-0.007-0.183-0.01-0.274
		C522.626,977.002,522.626,977.002,522.626,977.003z"/>
	<path fill="#F4D5B5" d="M417.389,708.436C417.211,708.298,417.033,708.16,417.389,708.436L417.389,708.436z"/>
	<path fill="#D39D79" d="M545.619,122.526c0.195,0.208,0.407,0.398,0.612,0.596c0.484,0.03,0.961,0.058,1.46,0.091
		c-0.66-0.177-1.373-0.423-2.106-0.725C545.598,122.499,545.608,122.514,545.619,122.526z"/>
	<path fill="#D39D79" d="M537.136,92.985c0.472-1.651,1.001-3.291,1.589-4.918C538.037,89.693,537.54,91.336,537.136,92.985z"/>
	<path fill="#D39D79" d="M564.191,57.765c0.055-0.033,0.104-0.067,0.16-0.1c-0.687-0.239-1.371-0.404-2.045-0.444
		c-0.378-0.023-0.754-0.01-1.127,0.04c-3.301,0.446-7.648,4.789-10.264,6.763c-16.477,12.438-29.654,26.219-39.689,44.062
		c-3.841,6.83-4.148,12.426-9.751,18.032c13.403-4.885,36.213-3.312,37.53-3.301c0.8,0.007,1.711,0.034,2.666,0.071
		c-1.021-1.008-1.98-2.067-2.817-3.202c-1.399-1.828-2.577-3.778-3.656-5.736c-0.541-0.995-1.073-1.871-1.606-3.118
		c-0.469-1.182-0.763-2.388-0.97-3.588c-0.409-2.403-0.238-4.789,0.096-7.086c0.416-2.294,1.081-4.517,2.068-6.594
		c0.991-2.06,2.247-4.041,3.952-5.53c1.87-5.165,4.389-10.189,7.942-14.929C550.869,67.515,556.487,62.321,564.191,57.765z"/>
	<path fill="#D39D79" d="M364.828,194.314c0.476,3.959-1.244,7.806-1.552,11.781c-0.623,8.07-3.75,17.255-10.313,32.412
		c0.001-0.002,0.003-0.005,0.004-0.007c2.221-3.661,5.105-7.377,6.966-9.846c0.03-0.039,0.054-0.073,0.083-0.111
		c0.236-0.314,0.458-0.611,0.655-0.879c0.238-0.324,0.448-0.617,0.617-0.866c7.129-10.506,15.376-18.884,25.844-25.961
		c4.273-2.888,18.28-14.77,16.401-21.777c-0.073-0.271-0.207-0.55-0.393-0.835c-0.054-0.083-0.143-0.169-0.206-0.252
		c-0.154-0.204-0.302-0.408-0.503-0.616c-0.149-0.154-0.341-0.31-0.513-0.465c-0.156-0.14-0.29-0.28-0.464-0.42
		c-0.176-0.143-0.384-0.284-0.576-0.425c-0.206-0.152-0.396-0.305-0.617-0.455c-0.233-0.158-0.491-0.312-0.74-0.467
		c-0.208-0.131-0.404-0.264-0.621-0.393c-0.295-0.174-0.608-0.34-0.916-0.509c-0.188-0.103-0.368-0.211-0.56-0.311
		c-0.369-0.193-0.747-0.374-1.125-0.555c-0.14-0.067-0.278-0.141-0.419-0.206c-0.35-0.163-0.699-0.31-1.049-0.461
		c-0.173-0.074-0.346-0.156-0.517-0.227c-3.786-1.561-7.536-3.209-11.06-5.293c-0.224-0.132-0.476-0.257-0.712-0.386
		c-0.332-0.183-0.653-0.368-1.005-0.545c-0.213-0.107-0.444-0.206-0.662-0.311c-0.398-0.19-0.79-0.382-1.203-0.565
		c-0.328-0.145-0.666-0.28-1-0.42c-0.32-0.134-0.635-0.273-0.957-0.402c-0.261-0.104-0.522-0.2-0.783-0.302
		c-0.398-0.154-0.797-0.312-1.192-0.459c-0.26-0.097-0.509-0.184-0.766-0.277c-2.333-0.847-4.522-1.561-6.028-2.098
		c-12.022-4.285-23.629-5.343-36.141-7.029c-1.204-0.162-2.33-0.39-3.428-0.642c2.93,1.329,5.806,2.789,8.571,4.476
		c4.761,2.938,9.329,6.298,13.218,10.396c1.997,1.986,3.701,4.265,5.284,6.575c1.552,2.356,2.72,4.897,3.893,7.389
		c-1.56-1.635-2.908-3.389-4.37-5.015c0.537,0.651,1.071,1.303,1.555,1.971C360.793,184.027,364.164,188.793,364.828,194.314z"/>
	<path fill="#D39D79" d="M350.239,248.425c-0.003-0.007-0.006-0.016-0.01-0.023c-0.194-0.355-0.309-0.756-0.366-1.189
		c-0.015-0.113-0.026-0.229-0.033-0.346c-0.024-0.457,0.002-0.94,0.097-1.46c-0.006,0.013-0.011,0.025-0.018,0.039
		C348.504,248.939,349.2,249.113,350.239,248.425z"/>
	<path fill="#EAC5A4" d="M378.388,994.597c-0.289,7.457-5.499,19.392-1.79,25.148c3.541,5.494,12.999,3.631,18.637,2.838
		c9.965-1.401,16.252-2.606,26.023,0.993c0.059-15.105-0.568-29.908,0.516-45.005c1.992-26.338,4.028-52.979,1.485-79.471
		c-0.972-10.131-3.526-20.057-4.415-30.266c-0.551-6.324,0.563-12.606-1.644-17.987c-2.182-5.319-4.217-5.208-7.769-7.429
		c-3.881-2.427-6.455-3.088-9.324-6.961c-1.737-2.345-3.833-10.159-6.645-11.928c-1.895-1.192-5.295,0.297-8.206-0.442
		c-4.051-1.028-7.802-4.931-10.315-8.1c-4.185-5.278-6.883-12.212-9.926-18.201c-0.462,24.091-6.891,47.401-7.345,71.452
		c-0.482,25.538,6.76,53.313,13.579,77.924C375.514,962.548,379.012,978.499,378.388,994.597z"/>
	<path fill="#D39D79" d="M479.588,1088.823c-17.046-9.29-38.789-15.127-54.712-1.793c-10.386,8.697-10.044,27.583-10.051,42.944
		c0,0,0,0.001,0,0.001c-0.342,7.869,6.264,1.167,6.877,0.101c0.259-0.45,7.328-9.504,7.504-9.677
		c6.994-6.846,2.45,6.225,1.555,9.967c-0.67,2.8,0.464,7.667,3.152,10.283c9.18,8.934,20.479-2.583,25.752-9.671
		c2.373-3.189,4.346-7.169,6.258-10.705c1.869-3.453,2.651-7.489,6.16-4.803c2.483,1.901,1.185,5.679-0.395,7.836
		c3.553,1.31,7.915,5.635,11.793,4.864c4.522-0.899,7.789-10.928,9.365-15.438c2.309-6.611,1.745-6.816-2.331-12.776
		C487.406,1095.411,485.051,1091.8,479.588,1088.823z"/>
	<path fill="#D39D79" d="M801.826,1073.921c-5.73,0.146-11.279,0.687-16.556,2.457c-16.049,5.383-28.337,17.864-43.608,24.734
		c9.672,10.998,20.725,31.826,37.957,25.958c-2.219-3.469-13.798-18.468-6.599-19.507c5.623-0.811,9.504,14.895,13.696,18.067
		c5.521,4.178,22.345,13.361,28.784,12.47c10.088-1.396,10.852-14.368,6.986-21.782c-1.75-3.356-16.26-21.333-3.672-16.189
		c2.095,0.856,4.999,4.937,7.606,8.915c1.368,2.087,4.618,1.027,4.499-1.465c-0.528-11.02-1.915-21.464-7.107-31.807
		C816.964,1077.429,808.976,1073.739,801.826,1073.921z"/>
	<path fill="#D39D79" d="M408.902,1026.865c-11.84-0.788-23.518,6.039-35.289,0.313c-0.938,8.198-1.827,16.777-0.77,25.048
		c0.299,2.342,2.961,3.548,4.99,2.339c3.031-1.805,5.816-3.672,8.016-5.683c1.497-1.368,9.919-11.41,12.515-5.633
		c1.388,3.089-2.398,5.628-4.766,6.885l0.039,0.035c2.442,2.244,5.479,3.736,8.764,4.196c9.056,1.269,18.431,1.656,18.808-9.46
		C421.555,1034.559,421.575,1027.709,408.902,1026.865z"/>
	<path fill="#D39D79" d="M886.002,998.845c-7.313-0.485-10.667,1.42-17.055,4.848c-7.762,4.166-14.512,7.825-28.881,8.595
		c4.136,8.387,9.804,13.834,18.103,19.609c6.502,4.525,11.695,3.022,19.465,1.349c-5.19-4.482-14.84-16.978-2.479-11.041
		c5.257,2.525,9.414,9.759,13.832,12.25c8.792,4.956,12.798,1.486,17.526-3.909c-0.053-9.395-1.962-20.781-2.903-30.831
		C898.137,1001.106,890.584,999.149,886.002,998.845z"/>
	<path fill="#F4D5B5" d="M503.176,528.588c-6.415-12.893-11.98-22.948-22.293-33.206c-9.068-9.019-18.33-13.512-29.8-18.154
		c-12.272-4.966-21.544-17.972-36.004-17.972c-5.185,0-11.209,1.206-16.325,0.142c-1.574-0.327-3.76-2-4.844-2.123
		c-1.942-0.221-4.254,0.088-6.646,0.363c-2.26,0.26-4.59,0.49-6.748,0.213c-0.232-0.03-0.488-0.07-0.757-0.115
		c19.373,5.061,24.334,11.757,43.998,17.884c9.328,2.906,16.096,11.587,24.658,16.294c2.96,1.628,10.792,6.338,13.685,8.083
		c11.722,7.072,9.826,7.432,19.843,16.764c4.884,4.551,14.298,6.133,25.228,18.05c0.132,0.144,0.21-0.32,0.313-0.481
		C506.029,533.37,504.384,531.016,503.176,528.588z"/>
	<path fill="#F4D5B5" d="M700.537,384.358c-1.296,3.351-2.627,6.685-3.874,10.005c0.486-0.834,0.979-1.66,1.43-2.526
		C698.888,390.31,699.693,387.671,700.537,384.358z"/>
	<path fill="#F4D5B5" d="M720.611,344.109l-0.196,0.456c0.057,0.32,0.095,0.707,0.133,1.086
		C720.583,345.084,720.608,344.555,720.611,344.109z"/>
	<path fill="#F4D5B5" d="M702.258,397.634c-5.839,16.445-18.255,33.116-29.205,46.852c-10.504,13.176-19.828,21.488-23.961,38.81
		c-0.299,1.256-1.005,4.017-1.925,6.635c-0.7,1.992-1.525,3.888-2.39,4.991c-0.001,0.005-0.004,0.012-0.006,0.017
		c7.474-6.595,11.306-8.302,15.207-11.158c14.438-10.57,35.427-20.071,43.287-38.94c4.912-11.791,6.1-23.767,10.264-40.068
		c3.048-11.934,5.723-44.589,6.901-57.563c-1.013,3.557-6.218,12.216-6.968,15.56C710.743,374.88,706.404,385.954,702.258,397.634z"
		/>
	<path fill="#D39D79" d="M526.547,389.991c1.42,9.848,12.244,8.367,10.152-1.429C534.662,379.02,525.025,379.434,526.547,389.991z"
		/>
	<path fill="#D39D79" d="M550.898,383.087c3.336,9.374,13.654,5.786,9.67-3.405C556.689,370.73,547.323,373.038,550.898,383.087z"/>
	<path fill="#F4D5B5" d="M526.44,326.066c-14.309,9.114-31.253,23.086-38.242,38.93c-1.527,3.461-3.36,16.184-6.201,23.567
		c5.055-8.238,6.98-18.307,12.971-25.92c2.103-2.672,4.652-4.955,7.187-7.222c10.258-9.175,20.725-18.489,33.249-24.195
		c14.323-6.525,30.935-7.886,46.13-3.78c8.77,2.37,17.383,6.522,26.33,6.804c-0.553-0.341-1.064-0.664-1.486-0.932
		C581.494,317.494,552.963,309.174,526.44,326.066z"/>
	<path fill="#D39D79" d="M343.167,203.032c-0.971-2.14-1.951-4.296-3.312-6.212c-1.87-2.633-4.445-4.81-6.771-7.107
		c-5.118-5.054-12.105-7.758-19.298-7.665c6.321,10.012,13.231,19.653,20.68,28.856c1.427,1.763,2.894,3.541,3.791,5.625
		c1.849,4.294,1.304,9.42,1.657,13.953c2.469-6.848,6.308-14.201,5.346-21.654C344.876,206.805,344.018,204.908,343.167,203.032z"/>
	<path fill="#D39D79" d="M561.164,106.908c-0.333-0.553-0.342-1.234-0.333-1.88c0.105-7.664,1.488-15.31,4.072-22.526
		c0.698-1.95,1.496-4.022,1.006-6.034c-5.526,7.262-9.695,15.553-12.227,24.32c-0.877,3.036-1.331,6.862,1.126,8.849
		c1.332,1.077,3.155,1.257,4.864,1.364c4.633,0.291,10.753,1.206,15.078-0.248c-3.487-2.506-8.38-0.961-12.268-2.795
		C561.966,107.715,561.457,107.396,561.164,106.908z"/>
	<path fill="#FFEFE1" d="M404.661,373.847c5.287-1.021,9.305-5.163,12.952-9.092c7.437-8.012,15.084-16.375,18.43-26.744
		c0.12-0.372,0.232-0.738,0.345-1.104c0.353-2.346,0.968-4.665,1.798-6.888c-1.788,2.53-3.447,5.155-4.875,7.945
		c-1.691,3.307-3.107,6.776-4.431,10.46c-0.328-3.912,0.298-7.893,1.545-11.659c1.247-3.772,3.114-7.36,5.504-10.559
		c2.378-3.209,5.286-6.021,8.543-8.296c3.252-2.272,6.891-4.008,10.735-4.807c-0.175,0.129-0.332,0.263-0.506,0.392
		c1.577-0.336,3.215-0.449,4.904-0.281c4.246-0.47,8.858,0.556,13.614,3.636c0.094,0.061,0.177,0.131,0.27,0.193
		c0.871,0.537,1.723,1.128,2.523,1.845c1.341,1.203,3.494,0.603,3.893-1.146c5.328-23.32-24.736-30.414-34.496-30.314
		c-11.046,0.113-20.493,1.913-28.574,4.869c0.113-0.032,0.224-0.07,0.337-0.101c10.76-2.993,21.983-4.315,33.143-3.906
		c2.952,0.108,6.836,1.323,6.651,4.271c-10.818-1.284-21.646,1.714-32.053,4.933c-3.25,1.006-6.513,2.045-9.515,3.645
		c-10.559,5.63-17.04,17.703-28.336,21.646c-4.672,1.631-6.901,4.887-8.843,9.202c0.132-0.875,0.318-1.735,0.541-2.585
		c-1.628,3.997-2.832,7.948-3.66,11.678c-2.166,9.749-0.973,21.537,7.249,27.302c3.296,2.311,7.306,3.343,11.217,4.332
		C397.2,373.634,400.98,374.558,404.661,373.847z"/>
	<path fill="#FFEFE1" d="M573.365,287.093c1.051,0.717,2.494,0.287,3.296-0.728c0.995-13.886,17.537-26.059,32.576-22.798
		c1.563,0.166,3.121,0.402,4.652,0.765c3.889,0.907,7.626,2.459,11.007,4.545c2.469,1.522,4.749,3.355,6.685,5.482
		c6.729,1.568,14.003,1.923,21.123,2.212c5.373,0.218,11.177,0.326,16.073-2.672c3.409-2.088,5.886-5.404,8.249-8.613
		c2.544-3.455,5.139-7.01,6.367-10.969c3.063-9.876-3.27-19.074-11.05-24.462c-12.476-8.639-32.521-15.483-56.336-8.013
		c0.337,0.042-0.036,1.01,0.01,1.753c0.342,5.484-4.693,9.877-9.831,11.825c-5.138,1.947-10.824,2.439-15.651,5.064
		c-9.053,4.924-15.529,16.271-20.482,24.925c-1.34-2.721-0.169-7.078,2.152-11.745C565.459,264.357,560.993,278.649,573.365,287.093
		z"/>
	<path fill="#FFEFE1" d="M613.226,222.764c0.789-0.225,1.637-0.424,2.355-0.782C614.799,222.233,614.016,222.482,613.226,222.764z"
		/>
	<path fill="#D39D79" d="M619.87,270.289c6.733,8.879,6.05,23.997-1.488,32.079c-8.832,9.47-26.664,8.438-35.396-0.385
		c-4.383-4.429-6.279-9.242-6.376-13.928c-0.207,5.015,1.855,10.224,7.071,14.986c9.663,8.823,29.397,9.854,39.17,0.385
		c7.933-7.686,9.026-21.764,2.715-30.771c-0.706-0.327-1.403-0.693-2.117-0.995C622.268,271.161,621.072,270.713,619.87,270.289z"/>
	<path fill="#FFFFFF" d="M601.832,273.349c-0.25-0.226-0.526-0.381-0.792-0.564c-3.971-2.101-9.137-0.25-12.468,3.178
		c-3.233,4.201-4.249,10.302-0.079,13.965c0.217,0.191,0.468,0.369,0.711,0.551c0.127,0.094,0.236,0.195,0.37,0.287
		c0.601,0.412,1.192,0.74,1.772,1.002c4.54,1.535,9.348-2.061,11.651-7.122C604.033,281.015,603.82,276.766,601.832,273.349z"/>
	<path fill="#D39D79" d="M459.605,313.215c2.919,0.289,5.974,1.349,9.103,3.445c21.21,14.211,12.251,54.21-15.966,47.02
		c-4.587-1.169-8.086-3.276-10.698-5.954c2.941,3.983,7.431,7.109,13.778,8.673c30.62,7.546,40.416-34.22,17.667-49.354
		c-0.093-0.062-0.176-0.132-0.27-0.193C468.463,313.77,463.851,312.745,459.605,313.215z"/>
	<path fill="#FFFFFF" d="M463.77,332.069c0.708-12.461-24.442-6.794-19.914,7.358C448.097,352.679,462.597,341.392,463.77,332.069z"
		/>
	<path fill="#FFFFFF" d="M387.061,322.787c11.296-3.943,17.777-16.016,28.336-21.646c3.002-1.601,6.265-2.64,9.515-3.645
		c10.407-3.22,21.235-6.217,32.053-4.933c0.185-2.949-3.698-4.163-6.651-4.271c-11.161-0.41-22.383,0.913-33.143,3.906
		c-0.113,0.031-0.224,0.069-0.337,0.101c-4.679,1.318-9.301,2.976-13.429,5.539c-5.981,3.713-10.676,9.145-15.053,14.659
		c-3.993,5.031-7.949,10.637-9.594,16.908c-0.223,0.85-0.409,1.71-0.541,2.585C380.16,327.674,382.39,324.418,387.061,322.787z"/>
	<path fill="#FFFFFF" d="M570.05,265.409c4.953-8.655,11.43-20.001,20.482-24.925c4.828-2.625,10.513-3.116,15.651-5.064
		c5.138-1.948,10.174-6.34,9.831-11.825c-0.046-0.743,0.327-1.711-0.01-1.753c-0.064-0.008-0.145,0.006-0.269,0.074
		c-0.048,0.026-0.106,0.041-0.155,0.066c-0.718,0.358-1.566,0.557-2.355,0.782c-0.426,0.122-0.838,0.252-1.186,0.432
		c-7.386,2.764-8.546,3.433-15.931,6.197c-2.746,1.028-5.527,2.074-7.912,3.78c-4.09,2.927-11.875,12.204-15.995,20.49
		C569.881,258.331,568.71,262.688,570.05,265.409z"/>
	<path fill="#FFFFFF" d="M554.445,361.838c3.079,0.846,5.474,3.592,7.025,4.606c-1.599-3.76-2.423-4.631-4.218-6.004
		c-1.795-1.373-4.212-1.727-6.449-1.404c-2.236,0.323-4.334,1.259-6.358,2.263c-1.604,0.602-3.282,1.615-4.667,2.589
		C549.651,360.982,550.581,360.776,554.445,361.838z"/>
	<g>
		<path fill="#492416" d="M653.045,358.997c-4.156-5.944-12.462,13.119-14.338,15.57c-4.584,5.988-10.126,12.335-15.48,17.597
			c-1.178,1.158-2.421,2.228-3.69,3.26c-13.409,10.904-31.55,15.227-47.181,21.534c-16.921,6.828-35.747,12.455-53.977,13.262
			c-0.503,0.022-1.005,0.022-1.508,0.034c-8.369,0.201-16.668-0.948-24.956-1.894c-2.814-0.321-14.977-3.502-16.284-2.421
			c-7.552,6.244,11.8,8.246,15.967,8.774c7.068,0.896,7.158,1.627,12.003,5.741c5.131,4.359,11.583,7.065,17.82,9.577
			c3.082,1.241,7.114,1.755,8.96,3.897c0.749,0.869,1.393,4.867,1.602,6.873c2.948,12.284,4.691,20.945,16.317,28.143
			c11.865,7.346,28.692,8.078,40.86,1.445c23.615-12.872,25.487-33.03,28.183-56.938c1.501-13.306,14.622-26.73,18.331-39.88
			c0.691-2.45,0.996-5.949,2.365-8.291C640.876,380.425,657.618,365.537,653.045,358.997z M597.495,476.443
			c-3.755,3.473-7.679,6.259-11.794,8.271c-8.202,4.01-17.181,4.893-27.207,1.63c-17.525-5.704-23.792-26.855-21.845-43.869
			c1.201-7.06,0.248-7.224,6.133-9.713c6.261-2.649,13.567-3.606,20.367-5.488c1.404-0.389,2.795-0.803,4.142-1.296
			c0.17,5.645,0.709,11.139,1.39,16.746c0.551,4.538-0.614,16.312,1.698,19.751c0.471,0.7,0.9,1.251,1.298,1.689
			c6.419,7.075,3.724-18.245,3.063-23.526c-0.5-3.996-1.28-6.948-1.218-10.886c0.063-4.013-1.104-4.478,1.21-6.952
			c1.221-1.305,6.198-2.531,7.656-3.041c5.516-1.928,10.95-3.798,16.336-5.919c1.971-0.776,3.936-1.582,5.896-2.442
			C611.328,432.931,616.562,458.808,597.495,476.443z"/>
		<path fill="#492416" d="M531.879,403.016c5.719,3.195,12.419,5.119,17.774,4.565c2.957-0.306,5.425-1.327,7.514-2.811
			c2.554-1.814,4.53-4.332,6.004-7.249c2.991-5.919,4.004-13.369,3.941-19.412c-0.079-7.66-2.157-19.929-10.781-22.58
			c-3.302-1.015-6.522-0.418-9.63,0.814c-3.665,1.453-7.172,3.791-10.464,5.455c-9.969,5.037-18.836,9.339-20.214,16.712
			c-0.747,3.999,0.701,8.898,5.385,15.315C523.577,397.278,527.432,400.531,531.879,403.016z M550.899,383.087
			c-3.576-10.049,5.79-12.357,9.67-3.405C564.553,388.873,554.234,392.461,550.899,383.087z M544.445,361.298
			c2.024-1.004,4.122-1.94,6.358-2.263c2.237-0.323,4.654,0.032,6.449,1.404c1.794,1.373,2.619,2.244,4.218,6.004
			c-1.551-1.013-3.946-3.76-7.025-4.606c-3.864-1.062-4.794-0.855-14.667,2.05C541.164,362.913,542.841,361.9,544.445,361.298z
			 M536.699,388.562c2.091,9.797-8.733,11.277-10.152,1.429C525.025,379.434,534.662,379.02,536.699,388.562z"/>
		<path fill="#492416" d="M912.102,1024.331c-0.037-1.126-0.121-2.367-0.187-3.756c-0.23-4.788-0.986-9.737-1.325-14.541
			c-0.201-2.854-0.369-5.675-0.49-8.479c-0.382-8.847-0.27-17.517,0.953-26.479c2.646-19.39,6.786-38.426,6.597-58.146
			c0.011-26.093-3.985-51.688-3.062-77.736c0.829-23.4,0.599-46.866,0.981-70.287c0.43-26.348-0.833-50.22-13.416-73.998
			c-3.807-7.194-12.24-19.123-11.891-27.279c0.247-5.773,7.861-8.197,9.963-13.558c2.555-6.517-3.963-11.699-3.177-17.634
			c0.934-7.047,9.154-7.835,10.999-14.672c3.229-11.969-10.13-20.488-11.661-31.037c-0.339-2.335,1.172-2.384,1.164-4.457
			c-0.022-5.977,0.655-9.485-1.774-15.536c-3.262-8.125-9.187-14.809-13.07-22.487c-3.705-7.326-4.008-16.564-6.979-24.766
			c-3.83-10.574-3.729-20.816-5.927-31.675c-2.011-9.938-6.751-19.176-10.316-28.54c-4.035-10.598-5.695-21.94-9.687-32.527
			c-4.976-13.195-10.285-25.761-14.413-39.35c-4.155-13.682-8.173-21.595-7.917-36.554c0.13-7.596,0.956-15.452-1.16-22.872
			c-2.378-8.341-8.188-11.093-13.126-17.378c-5.224-6.648-1.595-7.078-0.394-14.398c1.545-9.422-8.527-11.264-13.455-17.791
			c-5.558-7.362-9.289-13.601-16.912-19.85c-7.3-5.985-14.383-12.243-20.893-19.079c-8.11-8.516-14.864-15.542-20.26-25.41
			c-7.356-13.452-20.254-18.201-30.72-28.812c-15.694-15.911-28.283-31.422-46.679-44.479c-4.006-2.843-7.759-5.597-12.105-7.303
			c-4.992-1.959-3.888,0.549-6.236-3.279c-1.858-3.031-1.793-8.43-3.318-11.759c-7.37-16.092-24.871-28.616-38.391-39.252
			c-9.518-7.487-19.921-13.856-29.222-21.623c-7.989-6.672-9.261-10.577-18.442-4.613c-12.792,8.309-25.021,18.69-35.86,29.439
			c-10.851,10.763-13.921,26.459-22.874,38.299c-10.872,14.378-35.183,14.689-49.14,26.141c-5.266,4.32-9.308,6.242-15.676,9.327
			c-2.698,1.308-6.21,4.082-8.917,5.172c-5.227,2.105-7.946,6.554-11.044,11.222c-1.396,1.454-2.459,2.911-2.89,4.187
			c-16.915-14.998-41.167-24.357-63.308-27.368c-6.393-0.869-13.236-0.694-19.48-2.295c-5.168-1.325-10.081-5.579-15.393-5.689
			c-10.565-0.219-13.472,12.509-15.341,20.938c-5.169,23.31,1.792,46.996,6.651,69.646c4.362,20.337,6.752,41.165,10.356,61.65
			c3.654,20.769-3.41,42.217-2.721,63.47c0.645,19.873,5.379,39.323,7.121,59.055c1.544,17.486,1.358,41.496-9.445,56.026
			c-13.069,17.577-17.765,37.236-22.958,58.818c-6.287,26.13-0.515,56.673,0.465,83.346c0.527,14.339-0.526,29.238,1.201,43.484
			c1.507,12.432,8.162,8.469,13.82,1.341c3.86,16.337,3.825,32.94,5.763,49.661c0.486,4.188-0.473,11.715,1.611,15.284
			c2.847,4.877,5.642,2.421,8.274,4.936c4.703,4.493,5.304,30.51,17.935,20.159c1.479,7.047,3.554,23.378,13.793,17.256
			c2.498,7.209,7.726,14.621,9.714,21.521c1.322,4.587,0.505,11.725,0.559,16.479c0.212,18.66-5.149,36.824-6.524,55.383
			c-2.714,36.623,11.068,71.349,17.632,106.752c3.62,19.526,0.236,37.205-1.936,55.51c-0.875,7.378-1.559,14.854-1.499,22.599
			c0.048,6.125-0.514,15.778,7.021,17.66c6.436,1.607,11.946-7.631,17.228-7.024c1.96,0.225,5.016,3.515,6.924,4.394
			c7.632,3.517,14.296,2.292,21.986,0.115c-0.18,0.844-0.352,1.699-0.53,2.545c-2.593,12.317-5.043,24.878-7.299,37.229
			c-1.547,8.471-9.73,37.725,3.224,40.723c5.178,1.108,9.776-2.909,10.947-2.499c2.357,0.827,4.633,8.825,8.499,10.589
			c6.761,3.086,15.079,1.431,20.716-3.035c4.779-3.786,10.894-15.563,17.402-14.99c4.459,0.393,6.267,5.143,11.797,4.185
			c5.053-0.875,7.755-5.157,10.174-9.187c15.088-25.137,20.887-54.828,28.331-82.708c5.973,7.028,8.167,6.111,16.26,5.084
			c4.787-0.607,2.184-1.218,6.174,1.284c5.721,3.587,7.395,12.891,15.162,14.521c7.508,1.576,9.997-5.577,16.654-6.526
			c10.232-1.46,17.873,6.416,29.841,0.049c2.973-1.582,3.354-1.96,6.1-2.978c4.899-1.815,7.273-0.025,11.838-4.463
			c2.511-2.441,4.224-5.662,6.042-8.625c15.173,9.467,24.591,17.087,40.665,5.231c7.337-5.411,4.078-4.131,11.024-2.584
			c7.903,1.761,12.735,6.662,18.088,1.453c2.931-2.852,3.953-6.036,5.192-13.477c0.835-5.017,3.368-9.726,7.454-12.756
			c2.759-2.046,3.164-6.976,5.657-6.953c9.322,0.086,10.99-19.543,13.043-10.435c-0.393,15.708,0.234,32.087,0.215,47.495
			c-0.025,20.978-6.537,41.6,7.909,59.649c6.814,8.513,13.842,19.036,23.908,23.671c8.824,4.063,12.767-0.79,21.065-0.301
			c5.231,0.308,9.914,4.795,14.469,7.263c15.585,8.443,27.474,5.162,32.033-12.37c0.755-2.902,0.772-6.161,1.945-8.766
			c1.359-3.02,3.374-3.721,4.195-7.447c0.97-4.399-0.157-10.446-0.673-14.859c-1.961-16.774-12.773-30.497-13.585-47.545
			c-0.635-13.327,3.595-21.741,6.607-34.496c2.457,2.724,4.855,5.496,7.26,8.265c2.551,2.936,5.246,5.059,7.919,7.045
			c1.148,0.853,2.294,1.684,3.42,2.539c9.513,7.217,13.122,9.836,26.381,8.727c13.657-1.143,39.419,8.115,37.38-16.057
			C912.106,1024.327,912.105,1024.329,912.102,1024.331z M356.38,770.79c-2.198-5.954-4.597-14.67-12.528-10.261
			c-2.606-8.759-3.629-29.526-16.085-18.174c-1.931-5.818-3.126-13.557-6.817-18.448c-1.743-2.309-6.19-3.268-7.098-4.538
			c-1.573-2.202-0.928-9.96-1.17-11.987c-1.019-8.565-1.703-16.764-2.199-25.344c-0.122-2.12-0.922-6.3-1.472-10.384
			c-0.095-0.701-0.177-1.389-0.252-2.073c-0.117-1.069-0.213-2.115-0.253-3.075c-0.008-0.193-0.026-0.386-0.036-0.579
			c-0.121-2.277-0.416-4.55-1.223-6.681c-0.061-0.16-0.101-0.348-0.153-0.519c-0.126-0.413-0.239-0.848-0.333-1.309
			c-0.132-0.646-0.251-1.318-0.373-2.004c-0.038-0.211-0.081-0.417-0.122-0.628c-0.218-1.131-0.517-2.228-0.996-3.188
			c-0.315-0.631-0.687-1.217-1.217-1.673c-0.352-0.303-0.762-0.559-1.24-0.755c-4.257-1.745-7.446,4.419-9.629,7.044
			c-0.844-21.924-0.812-43.863-1.933-65.782c-0.067-1.317-0.148-2.642-0.234-3.971c-0.042-0.649-0.089-1.302-0.134-1.953
			c-0.044-0.625-0.086-1.249-0.132-1.877c-0.155-2.101-0.319-4.215-0.482-6.334c-0.168-2.179-0.33-4.366-0.48-6.556
			c-0.015-0.218-0.031-0.435-0.046-0.654c-0.138-2.06-0.256-4.122-0.35-6.184c-0.019-0.428-0.031-0.856-0.048-1.283
			c-0.064-1.586-0.104-3.17-0.128-4.753c-0.005-0.361-0.009-0.721-0.012-1.081c-0.002-0.289-0.009-0.578-0.009-0.867
			c-0.002-1.109,0.019-2.214,0.044-3.319c0.014-0.632,0.019-1.266,0.043-1.897c0.067-1.736,0.162-3.467,0.31-5.19
			c0.043-0.49,0.083-0.98,0.133-1.469c0.057-0.561,0.124-1.12,0.191-1.678c0.073-0.603,0.152-1.205,0.237-1.806
			c0.07-0.49,0.142-0.979,0.22-1.468c0.114-0.709,0.242-1.415,0.376-2.12c0.075-0.393,0.143-0.787,0.224-1.179
			c0.228-1.102,0.475-2.2,0.755-3.291c4.328-16.818,7.228-36.587,17.528-50.455c12.965-17.456,15.585-37.255,15.054-58.877
			c-0.486-19.806-5.924-39.398-7.174-59.217c-0.641-10.175-0.551-20.578,0.325-30.736c1.011-11.723,4.675-22.563,3.066-34.507
			c-2.531-18.789-6.246-37.733-9.485-56.432c-3.413-19.704-9.587-39.121-10.091-59.192c-0.088-3.505-0.025-7.027,0.28-10.577
			c0.023-0.268,0.054-0.589,0.094-0.956c0.033-0.301,0.071-0.632,0.115-0.99c0.152-1.234,0.372-2.787,0.662-4.491
			c0.89-5.221,2.443-11.878,4.733-15.254c0.217-0.32,0.441-0.61,0.671-0.867c0.503-0.562,1.041-0.951,1.609-1.15
			c0.114,0.057,0.227,0.116,0.34,0.173c1.601,0.792,3.207,1.556,4.813,2.304c1.414,0.718,2.833,1.394,4.252,2.08
			c1.037,0.501,2.075,1.016,3.106,1.519c2.376,1.332,4.891,2.368,7.211,3.766l3.567,1.92l3.461,2.082
			c4.611,2.766,9.033,5.811,13.146,9.242l1.538,1.298l1.469,1.372c1.023,0.882,1.919,1.88,2.875,2.839
			c0.371,0.372,0.724,0.764,1.076,1.156c1.462,1.626,2.81,3.38,4.37,5.015c-1.173-2.492-2.341-5.032-3.893-7.389
			c-1.583-2.31-3.287-4.589-5.284-6.575c-3.889-4.098-8.457-7.458-13.218-10.396c-2.765-1.687-5.641-3.147-8.571-4.476
			c1.098,0.252,2.223,0.48,3.428,0.642c12.512,1.686,24.119,2.744,36.141,7.029c1.506,0.537,3.695,1.251,6.028,2.098
			c0.257,0.093,0.506,0.18,0.766,0.277c0.395,0.147,0.794,0.305,1.192,0.459c0.262,0.101,0.522,0.197,0.783,0.302
			c0.322,0.129,0.637,0.268,0.957,0.402c0.334,0.14,0.672,0.275,1,0.42c0.413,0.182,0.805,0.375,1.203,0.565
			c0.218,0.105,0.449,0.204,0.662,0.311c0.352,0.177,0.673,0.363,1.005,0.545c0.236,0.129,0.488,0.254,0.712,0.386
			c3.525,2.085,7.274,3.733,11.06,5.293c0.171,0.071,0.344,0.153,0.517,0.227c0.35,0.15,0.699,0.298,1.049,0.461
			c0.141,0.066,0.278,0.139,0.419,0.206c0.378,0.181,0.756,0.362,1.125,0.555c0.192,0.1,0.372,0.208,0.56,0.311
			c0.308,0.169,0.621,0.334,0.916,0.509c0.217,0.128,0.413,0.262,0.621,0.393c0.248,0.156,0.506,0.309,0.739,0.467
			c0.221,0.151,0.411,0.303,0.617,0.455c0.192,0.142,0.4,0.283,0.576,0.425c0.173,0.14,0.308,0.28,0.464,0.42
			c0.173,0.155,0.364,0.311,0.513,0.465c0.201,0.208,0.35,0.412,0.503,0.616c0.063,0.084,0.152,0.17,0.206,0.252
			c0.186,0.285,0.32,0.564,0.393,0.835c1.879,7.007-12.128,18.888-16.401,21.777c-10.468,7.076-18.715,15.454-25.844,25.961
			c-0.169,0.249-0.38,0.543-0.617,0.866c-0.197,0.269-0.419,0.565-0.655,0.879c-0.029,0.039-0.053,0.072-0.083,0.111
			c-1.861,2.469-4.745,6.185-6.966,9.846c-0.002,0.003-0.004,0.007-0.006,0.01c-1.491,2.459-2.668,4.884-3.034,6.897
			c-0.095,0.52-0.121,1.003-0.097,1.46c0.007,0.118,0.018,0.233,0.033,0.346c0.056,0.433,0.172,0.834,0.366,1.189
			c0.004,0.007,0.006,0.015,0.01,0.023c0.028,0.062,0.042,0.131,0.079,0.188c1.726,2.641,4.674,0.034,7.644-4.024
			c3.817-5.216,7.67-12.829,9.007-14.77c6.557-9.514,14.123-17.184,23.723-23.652c12.637-8.515,26.243-36.3,35.485-41.737
			c12.603-6.98,15.665-6.6,22.851-11.362c0.465-0.308,0.985-0.657,1.53-1.023c0.615-0.413,1.265-0.85,1.969-1.319
			c0.183-0.122,0.38-0.251,0.568-0.376c0.264-0.175,0.524-0.348,0.798-0.528c0.214-0.141,0.442-0.287,0.661-0.431
			c0.268-0.175,0.531-0.347,0.808-0.525c0.193-0.124,0.395-0.251,0.591-0.376c0.316-0.201,0.628-0.401,0.951-0.605
			c0.214-0.134,0.437-0.27,0.655-0.405c0.314-0.194,0.625-0.389,0.945-0.583c0.247-0.151,0.502-0.3,0.754-0.451
			c0.302-0.181,0.602-0.362,0.909-0.542c0.257-0.15,0.519-0.298,0.779-0.447c0.31-0.178,0.617-0.357,0.93-0.532
			c0.265-0.148,0.535-0.292,0.803-0.438c0.314-0.172,0.627-0.345,0.944-0.513c0.274-0.145,0.552-0.284,0.828-0.426
			c0.315-0.162,0.628-0.326,0.944-0.483c0.281-0.139,0.563-0.27,0.845-0.405c0.315-0.151,0.63-0.305,0.946-0.449
			c0.278-0.127,0.556-0.244,0.835-0.367c0.321-0.141,0.643-0.286,0.965-0.42c0.276-0.115,0.552-0.218,0.828-0.327
			c0.321-0.126,0.642-0.257,0.962-0.374c0.281-0.103,0.559-0.193,0.84-0.288c0.314-0.107,0.628-0.219,0.939-0.316
			c0.281-0.088,0.558-0.16,0.837-0.239c0.268-0.076,0.538-0.162,0.804-0.23c3.144-0.8,6.211-1.881,9.191-3.164
			c0.055-0.024,0.117-0.047,0.173-0.07c0.552-0.235,1.126-0.467,1.718-0.698c0.44-0.171,0.892-0.34,1.346-0.509
			c0.18-0.067,0.356-0.135,0.536-0.201c1.56-0.576,3.148-1.141,4.61-1.696c6.595-1.061,12.882-1.763,18.861-2.229
			c5.992-0.467,11.64-0.684,16.935-0.742c19.551-0.214,34.118,1.704,41.676,1.036c16.618-1.469,12.586-3.804,8.135-5.181
			c-1.337-0.414-2.703-0.71-4.084-0.927c-1.032-0.162-2.071-0.284-3.114-0.352c-1.074-0.07-2.248-0.155-3.47-0.247
			c-4.55-0.341-9.951-0.8-15.036-1.177c-1.358-0.101-2.694-0.196-3.982-0.281c-0.5-0.033-0.976-0.061-1.46-0.091
			c-0.205-0.198-0.417-0.388-0.612-0.596c-0.012-0.012-0.021-0.026-0.033-0.038c-2.846-2.95-4.903-6.633-6.927-10.414
			c-1.078-2.046-1.824-3.507-2.193-5.507c-0.335-1.934-0.518-3.985-0.396-6.055c0.102-2.502,0.452-5.021,1.065-7.526
			c0.403-1.649,0.9-3.292,1.589-4.918c0.005-0.011,0.008-0.023,0.012-0.034v0c-1.705,1.49-2.961,3.47-3.952,5.53
			c-0.987,2.077-1.652,4.3-2.068,6.594c-0.335,2.297-0.505,4.683-0.096,7.086c0.207,1.201,0.5,2.406,0.97,3.588
			c0.532,1.247,1.064,2.123,1.606,3.118c1.079,1.959,2.257,3.908,3.656,5.736c0.837,1.135,1.796,2.195,2.817,3.202
			c-0.954-0.036-1.866-0.064-2.666-0.071c-1.316-0.011-24.126-1.584-37.53,3.301c5.603-5.606,5.911-11.203,9.751-18.032
			c10.035-17.843,23.212-31.624,39.689-44.062c2.615-1.974,6.962-6.317,10.264-6.763c0.373-0.05,0.748-0.062,1.127-0.04
			c0.674,0.04,1.357,0.205,2.045,0.444c0.203,0.071,0.407,0.151,0.61,0.237c0.211,0.088,0.424,0.226,0.635,0.327
			c0.448,0.214,0.894,0.414,1.345,0.692c0.392,0.241,0.785,0.502,1.178,0.78c0.711,0.502,1.424,1.063,2.136,1.651
			c0.512,0.423,1.024,0.86,1.535,1.308c0.702,0.617,1.401,1.248,2.095,1.876c1.303,1.179,2.586,2.333,3.837,3.34
			c0.644,0.519,1.282,1.005,1.905,1.422c0.834,0.557,1.656,1.132,2.487,1.694c0.395,0.267,0.782,0.544,1.176,0.812
			c7.632,5.2,15.082,10.655,21.956,16.812c0.622,0.557,1.273,1.078,1.886,1.647c0.222,0.207,0.437,0.394,0.659,0.598
			c3.198,2.944,6.289,5.601,9.24,8.173c2.38,2.075,4.676,4.109,6.858,6.214c1.126,1.087,2.216,2.204,3.282,3.348
			c1.815,1.947,3.546,3.991,5.167,6.234c4.791,6.628,3.691,13.241,7.206,19.587c3.325,6.003,7.152,3.429,12.419,5.46
			c6.817,2.629,14.992,10.361,20.778,14.847c8.841,6.855,16.195,15.508,23.497,23.927c12.947,14.929,30.995,23.919,40.525,40.924
			c0.633,1.13,1.306,2.232,1.996,3.32c0.205,0.322,0.416,0.638,0.626,0.957c0.52,0.791,1.052,1.572,1.598,2.342
			c0.221,0.311,0.441,0.623,0.666,0.931c0.68,0.931,1.377,1.849,2.094,2.751c0.075,0.095,0.147,0.192,0.222,0.287
			c0.826,1.031,1.676,2.043,2.544,3.041c0.163,0.188,0.331,0.372,0.496,0.559c0.724,0.821,1.459,1.633,2.207,2.434
			c0.189,0.202,0.378,0.405,0.568,0.606c0.869,0.918,1.748,1.827,2.642,2.723c0.018,0.017,0.034,0.035,0.052,0.052
			c2.003,2.003,4.065,3.953,6.157,5.868c2.911,2.665,5.878,5.265,8.831,7.842c1.543,1.348,3.09,2.696,4.614,4.039
			c6.849,6.04,13.646,12.207,18.733,19.963c3.269,4.984,4.586,6.406,9.362,9.373c1.924,1.411,5.24,3.697,6.072,4.118
			c2.167,1.096,2.111,4.136,0.168,5.594c-1.429,1.072-2.126,3.151-2.589,5.604c-1.469,7.779,3.625,11.264,8.587,16.237
			c14.61,14.643,5.252,33.916,9.77,52.073c0.445,1.788,0.927,3.619,1.439,5.478c0.05,0.18,0.107,0.366,0.157,0.547
			c0.471,1.694,0.961,3.406,1.479,5.139c0.014,0.047,0.03,0.096,0.044,0.143c1.133,3.78,2.368,7.627,3.669,11.457
			c0.025,0.074,0.052,0.147,0.077,0.22c1.885,5.532,3.902,11.02,5.948,16.193c0.694,1.757,1.392,3.478,2.087,5.151
			c6.406,15.403,10.523,31.133,16.491,46.719c4.432,11.573,9.603,22.629,11.097,35.117c1.435,11.987,5.612,22.661,8.437,34.393
			c1.447,6.007,0.722,10.66,3.738,16.139c2.838,5.155,6.513,9.903,9.323,15.142c2.108,3.93,7.592,10.856,6.02,15.921
			c-0.308,0.994-2.913,1.136-3.031,2.059c-0.6,4.695,0.135,6.476,2.342,11.151c2.823,5.982,12.37,17.254,10.409,24.289
			c-0.887,3.182-2.454,2.661-4.416,4.841c-4.375,4.861-7.93,9.65-6.309,17.056c0.97,4.434,3.708,6.844,2.45,10.704
			c-1.371,4.209-7.684,6.81-10.12,9.993c-2.812,3.675-4.405,9.586-5.714,13.949c-2.346,7.821-6.374,14.336-9.004,21.947
			c-2.265,6.553-1.666,13.57-3.793,20.192c-1.674,5.214-4.37,10.232-6.587,15.22c-4.362,9.815-10.518,25.428-19.175,32.479
			c-2.64,2.15-3.272,0.771-6.197,2.673c-6.31,4.105-8.154,10.902-11.851,17.341c-2.833,4.935-6.146,11.492-11.231,14.604
			c-3.119,1.909-8.697,2.841-12.28,5.952c-3.041,2.641-6.362,5.648-8.685,7.33c-5.959,4.313-6.989,10.411-12.103,16.373
			c-5.515,6.427-14.399,11.383-20.982,16.761c-9.163,7.488-17.659,15.714-26.729,23.278c-12.342,10.292-30.051,18.723-45.197,24.142
			c-5.201,1.861-25.658,5.257-30.72,10.319c-2.373,1.739-4.332,4.071-5.485,7.016c-2.168-2.367-5.957-7.629-9.201-7.783
			c-4.039-0.191-3.602,3.092-6.298,4.664c-4.4,2.567-10.295,2.727-15.526,3.453c0.623,0.193-7.348,0.709-6.726,0.902
			c-7.196,0.313-5.836,0.111-13.018,0.68c-5.666,0.449-13.512,3.18-19.116,1.684c-7.758-2.072-10.205-11.605-20.323-9.725
			c-7.828,1.454-10.455,11.759-17.954,12.829c-7.021,1.002-13.341-7.213-18.557-9.911c-10.019-5.183-23.445-13.162-34.721-10.143
			c-9.962,2.668-11.763,3.061-20.154-5.549c-0.234-0.24-0.527-0.561-0.862-0.941c-0.045-0.051-0.093-0.105-0.14-0.159
			c-0.283-0.323-0.598-0.691-0.936-1.09c-0.701-0.829-1.503-1.803-2.373-2.878c-1.112-1.375-2.325-2.902-3.548-4.468
			c-0.476-0.61-0.952-1.225-1.425-1.839c-1.009-1.309-2-2.611-2.917-3.839c-0.115-0.153-0.236-0.302-0.351-0.455
			c-0.693-0.917-1.411-1.816-2.153-2.693c-1.198-1.415-2.478-2.753-3.891-3.95c-0.147-0.124-0.281-0.262-0.43-0.384
			c-0.023-0.018-0.042-0.047-0.065-0.066c-1.569-1.311-2.692-3.661-4.779-5.733c-3.563-3.539-5.761-3.612-9.875-5.413
			c-4.314-1.889-6.078-2.67-9.424-6.915c-2.728-3.462-4.155-7.541-8.105-9.877c-2.118-1.253-4.96-0.738-7.053-2.314
			c-7.024-5.287-6.14-15.259-15.149-18.653c-3.051-1.149-4.406,1.263-7.951-0.367c-7.541-3.466-11.024-16.688-15.192-23.195
			C364.577,785.811,359.602,779.514,356.38,770.79z M357.672,869.238c0.454-24.052,6.883-47.361,7.345-71.452
			c3.043,5.99,5.741,12.923,9.926,18.201c2.512,3.168,6.264,7.072,10.315,8.1c2.91,0.738,6.311-0.75,8.206,0.442
			c2.812,1.768,4.908,9.583,6.645,11.928c2.869,3.873,5.443,4.535,9.324,6.961c3.552,2.221,5.587,2.11,7.769,7.429
			c2.207,5.381,1.093,11.664,1.644,17.987c0.889,10.209,3.443,20.135,4.415,30.266c2.542,26.493,0.507,53.133-1.485,79.471
			c-1.084,15.098-0.457,29.9-0.516,45.005c-9.771-3.599-16.058-2.394-26.023-0.993c-5.638,0.793-15.096,2.656-18.637-2.838
			c-3.71-5.755,1.501-17.691,1.79-25.148c0.625-16.098-2.874-32.049-7.137-47.435C364.433,922.551,357.19,894.776,357.672,869.238z
			 M402.401,1054.367c-3.285-0.46-6.322-1.952-8.764-4.196l-0.039-0.035c2.368-1.257,6.154-3.796,4.766-6.885
			c-2.596-5.776-11.018,4.266-12.515,5.633c-2.2,2.01-4.986,3.878-8.016,5.683c-2.029,1.208-4.691,0.003-4.99-2.339
			c-1.056-8.271-0.168-16.85,0.77-25.048c11.771,5.725,23.45-1.101,35.289-0.313c12.673,0.844,12.653,7.693,12.307,18.041
			C420.832,1056.023,411.457,1055.636,402.401,1054.367z M492.846,1112.733c-1.575,4.509-4.842,14.538-9.365,15.438
			c-3.878,0.771-8.24-3.554-11.793-4.864c1.58-2.157,2.878-5.935,0.395-7.836c-3.509-2.686-4.292,1.35-6.16,4.803
			c-1.913,3.536-3.885,7.516-6.258,10.705c-5.274,7.088-16.572,18.605-25.752,9.671c-2.689-2.617-3.822-7.483-3.152-10.283
			c0.895-3.742,5.439-16.814-1.555-9.967c-0.176,0.172-7.245,9.227-7.504,9.677c-0.613,1.065-7.219,7.767-6.877-0.101
			c0,0,0-0.001,0-0.001c0.007-15.361-0.335-34.247,10.051-42.944c15.924-13.334,37.667-7.498,54.712,1.793
			c5.463,2.977,7.818,6.589,10.927,11.135C494.591,1105.917,495.155,1106.123,492.846,1112.733z M823.812,1075.771
			c5.192,10.343,6.579,20.787,7.107,31.807c0.119,2.492-3.131,3.552-4.499,1.465c-2.607-3.978-5.511-8.059-7.606-8.916
			c-12.588-5.143,1.923,12.833,3.672,16.189c3.866,7.414,3.102,20.386-6.986,21.782c-6.44,0.891-23.263-8.292-28.784-12.47
			c-4.192-3.172-8.073-18.878-13.696-18.067c-7.199,1.039,4.38,16.038,6.599,19.507c-17.232,5.868-28.285-14.96-37.957-25.958
			c15.271-6.87,27.558-19.35,43.608-24.733c5.278-1.77,10.826-2.312,16.556-2.458
			C808.976,1073.739,816.964,1077.429,823.812,1075.771z M829.305,1003.969c-8.98,14.112-16.851,38.602-8.139,65.651
			c-14.583-3.525-29.58-2.973-43.487,2.968c-13.755,5.876-25.179,16.037-38.526,22.68c-3.766-12.209-2.803-23.298-1.528-35.76
			c1.031-10.077-0.252-20.451-0.186-30.615c0.135-21.013-0.66-40.515-3.237-61.461c-0.635-5.164-1.022-10.399-1.465-15.63
			c-0.6-7.083-1.307-14.16-2.904-21.042c-0.941-4.056-1.983-10.492-6.73-5.563c-0.638,0.662-0.746,1.384-0.631,2.192
			c0.174,1.221,0.87,2.642,1.112,4.386c0.758,5.464,1.517,10.934,2.267,16.407c2.088,15.251,4.08,30.531,5.596,45.804
			c-8.444-1.486-6.83,9.505-12.232,13.025c-1.654,1.078-4.615,0.856-6.555,1.989c-2.038,1.19-1.947,3.196-3.414,4.52
			c-1.068,0.964-3.796,0.358-4.974,1.971c-1.486,2.034-1.384,5.312-2.018,7.686c-1.004,3.759-2.483,14.458-6.119,16.836
			c-4.793,3.135-11.49-4.019-16.301-4.525c-13.289-1.399-16.916,15.782-31.661,9.218c-6.364-2.833-13.856-12.409-21.628-8.048
			c-4.266,2.393-4.957,9.246-9.95,11.11c-2.381,0.889-5.11-0.672-7.623-0.005c-3.756,0.997-5.31,4.78-8.737,5.997
			c-9.169,3.256-16.527-6.067-24.806-4.671c-7.794,1.314-7.968,11.256-17.4,5.735c-5.165-3.023-6.662-10.688-11.91-13.39
			c-5.676-2.921-10.301,2.642-14.656,1.594c-1.401-0.337-7.664-6.093-8.62-6.998c-0.169-0.161-0.321-0.291-0.464-0.409
			c-0.193-0.16-0.365-0.295-0.516-0.424c-0.006-0.005-0.012-0.01-0.018-0.015c-0.052-0.045-0.101-0.091-0.149-0.136
			c-0.015-0.014-0.029-0.028-0.044-0.042c-0.04-0.04-0.077-0.082-0.114-0.125c-0.017-0.019-0.034-0.038-0.051-0.058
			c-0.035-0.043-0.066-0.09-0.098-0.138c-0.015-0.022-0.031-0.042-0.045-0.065c-0.043-0.069-0.082-0.144-0.121-0.226
			c-0.019-0.041-0.036-0.089-0.055-0.134c-0.019-0.047-0.038-0.093-0.056-0.145c-0.019-0.053-0.035-0.114-0.053-0.172
			c-0.016-0.053-0.032-0.106-0.047-0.164c-0.017-0.065-0.032-0.137-0.048-0.209c-0.015-0.065-0.028-0.13-0.042-0.2
			c-0.015-0.077-0.029-0.16-0.044-0.244c-0.013-0.078-0.026-0.16-0.039-0.245c-0.014-0.092-0.027-0.188-0.04-0.29
			c-0.012-0.094-0.024-0.194-0.036-0.297c-0.012-0.105-0.024-0.211-0.036-0.325c-0.013-0.125-0.026-0.26-0.038-0.395
			c-0.01-0.111-0.02-0.218-0.03-0.337c-0.015-0.178-0.029-0.371-0.044-0.568c-0.007-0.094-0.014-0.179-0.021-0.277
			c-0.022-0.31-0.044-0.639-0.065-0.996c-0.07-1.142-0.104-2.306-0.112-3.485c-0.003-0.365,0.011-0.74,0.013-1.108
			c0.006-0.829,0.012-1.658,0.042-2.499c0.014-0.4,0.04-0.806,0.058-1.209c0.039-0.83,0.078-1.661,0.135-2.499
			c0.025-0.371,0.056-0.743,0.084-1.115c0.068-0.9,0.138-1.801,0.22-2.704c0.024-0.268,0.051-0.535,0.076-0.803
			c0.396-4.184,0.898-8.349,1.314-12.325c0.001-0.008,0.001-0.016,0.002-0.024c0.067-0.644,0.139-1.297,0.2-1.929
			c0.181-1.862,0.292-3.735,0.355-5.616c0-0.008,0-0.015,0-0.023c0.061-1.871,0.074-3.75,0.055-5.633
			c0-0.031-0.001-0.062-0.001-0.092c-0.02-1.858-0.069-3.72-0.132-5.584c-0.005-0.149-0.011-0.298-0.016-0.446
			c-0.058-1.675-0.124-3.351-0.188-5.026c-0.003-0.091-0.007-0.181-0.01-0.272c0-0.001,0-0.002,0-0.002c0,0,0,0,0,0
			c-0.036-0.942-0.071-1.884-0.102-2.826c-0.002-0.065-0.003-0.131-0.005-0.196c-0.029-0.878-0.055-1.755-0.076-2.631
			c-0.003-0.125-0.003-0.25-0.006-0.376c-0.018-0.814-0.033-1.627-0.04-2.439c-0.003-0.28,0.001-0.559,0-0.839
			c-0.003-0.66-0.006-1.319,0.001-1.977c0.003-0.352,0.016-0.703,0.023-1.054c0.011-0.583,0.019-1.166,0.039-1.747
			c0.016-0.453,0.044-0.904,0.066-1.356c0.023-0.479,0.04-0.96,0.071-1.439c0.035-0.539,0.086-1.076,0.131-1.613
			c0.032-0.388,0.056-0.777,0.095-1.164c0.091-0.923,0.2-1.844,0.328-2.761c0.101-0.727,0.241-1.437,0.407-2.135
			c0.058-0.246,0.136-0.484,0.202-0.726c0.121-0.446,0.242-0.891,0.386-1.327c0.097-0.29,0.208-0.574,0.314-0.86
			c0.139-0.374,0.277-0.749,0.431-1.116c0.131-0.311,0.271-0.617,0.412-0.923c0.152-0.33,0.304-0.659,0.466-0.984
			c0.163-0.326,0.333-0.649,0.506-0.971c0.156-0.289,0.314-0.578,0.477-0.864c0.198-0.347,0.4-0.693,0.608-1.036
			c0.146-0.242,0.295-0.482,0.447-0.722c0.239-0.38,0.48-0.76,0.729-1.136c0.112-0.17,0.227-0.339,0.341-0.508
			c0.301-0.447,0.603-0.893,0.913-1.335c0.321-0.458,0.643-0.916,0.972-1.371c0.177-0.245,0.386-0.539,0.608-0.853
			c0.045-0.063,0.087-0.124,0.133-0.189c0.216-0.308,0.443-0.638,0.681-0.99c0.024-0.035,0.046-0.067,0.07-0.103
			c0.926-1.378,1.933-3.007,2.586-4.472c1.32-2.967,1.154-5.216-4.276-3.111c-2.757,1.069-6.81,8.57-8.133,10.671
			c-6.127,9.729-5.914,17.297-5.707,28.639c0.04,2.17,0.068,4.366,0.093,6.567c0.472,41.187-1.864,87.452-17.872,125.297
			c-14.147-23.108-52.603-36.625-76.104-19.65c1.358-14.502,6.366-30.898,6.519-44.734c0.094-8.49-1.606-18.934-1.926-28.002
			c-0.357-10.144-0.273-20.209,0.801-30.321c2.05-19.295,2.334-37.852,1.832-57.266c-0.302-11.675-1.712-23.083-3.049-34.517
			c-0.992-8.479-1.945-16.972-2.373-25.601c9.463,2.791,10.702,1.768,17.55,10.527c7.72,9.874,18.416,26.643,30.304,31.633
			c6.536,2.743,8.806,0.334,14.819-1.272c7.349-1.962,9.454-0.891,15.971,2.879c7.389,4.274,14.888,8.001,22.294,12.048
			c5.696,3.113,10.012,4.396,14.052,3.931c4.298-0.495,8.281-2.969,13.266-7.395c9.595-8.518,10.804,0.087,21.32,4.441
			c8.493,3.516,24.134-0.57,33.464-1.344c8.504-0.705,25.736-0.279,30.919-8.178c1.96,2.143,5.361,7.591,8.229,8.192
			c6.698,1.402,5.01-4.479,8.179-7.85c2.078-2.21,3.809-3.003,5.604-3.517c2.534-0.635,5.385-1.343,7.862-1.955
			c2.678-0.487,4.065-0.452,6.222-1.53c4.747-1.026,7.281-3.388,11.203-4.57c8.533-2.571,24.607-10.607,31.512-14.294
			c1.157-0.617,2.085-1.127,2.646-1.453c9.637-5.601,17.184-13.035,25.466-20.378c3.027-2.684,10.672-10.792,16.104-13.965
			c2.914-1.701,5.646-3.673,8.038-6.053c4.882-4.857,13.207-11.67,15.369-13.996c2.809-3.021,4.648-6.587,7.649-10.094
			c5.517-6.447,10.528-8.268,17.355-11.965c3.028-1.639,7.848-7.815,11.876-12.567c3.252-3.837,5.739-8.209,7.932-12.736
			c3.387-6.992,11.914-9.517,17.732-16.821c1.813,10.919,4.687,21.569,7.704,32.161c3.994,14.027,8.238,27.954,10.601,42.268
			c2.886,17.479,0.288,34.19-3.636,51.254c-2.547,11.076-4.216,20.542-6.529,31.81c-1.359,6.622-3.57,10.211-4.875,15.908
			c-1.516,6.62-1.796,8.467-4.105,16.678C842.918,965.313,836.896,992.041,829.305,1003.969z M888.988,1034.454
			c-4.419-2.491-8.576-9.725-13.832-12.25c-12.361-5.937-2.711,6.559,2.479,11.041c-7.77,1.674-12.963,3.176-19.465-1.348
			c-8.299-5.775-13.967-11.222-18.103-19.609c14.369-0.77,21.119-4.429,28.881-8.595c6.388-3.428,9.741-5.333,17.055-4.848
			c4.583,0.304,12.135,2.261,17.61,0.869c0.94,10.05,2.849,21.436,2.902,30.831C901.786,1035.941,897.779,1039.41,888.988,1034.454z
			 M906.427,960.617c-1.955,10.276-3.517,20.91-3.313,31.376c0.014,0.715,0.073,1.488,0.108,2.23
			c-9.601-3.422-24.682-2.285-31.92,1.077c-4.123,1.916-8.958,5.994-12.678,7.327c-5.66,2.029-13.754,1.436-19.905,2.181
			c9.636-31.661,18.168-62.649,25.129-95.028c6.832-31.777,14.153-61.887,3.532-93.869c-6.06-18.248-13.753-38.82-13.93-58.221
			c-0.059-6.526,3.067-11.455,6.171-17.759c5.998-12.18,11.805-22.338,13.732-36.136c1.708-12.228,8.873-22.804,11.885-34.957
			c2.994,7.537,5.989,14.979,9.699,22.171l2.124,4.367c0.829,1.868,2.097,4.039,3.174,6.572c1.283,2.951,4.802,9.669,5.875,13.912
			c2.513,9.945,2.565,19.949,2.803,30.124c0.469,20.035-0.844,40.028-0.44,60.06c0.33,16.373-1.012,32.725-0.418,49.089
			c0.417,11.491,2.862,22.395,3.132,33.878C911.752,913.051,910.927,936.958,906.427,960.617z"/>
		<path fill="#492416" d="M417.389,708.436C417.567,708.573,417.746,708.711,417.389,708.436L417.389,708.436z"/>
		<path fill="#492416" d="M520.113,774.798c-6.456-3.44-12.322-8.184-18.798-11.489c-8.584-4.381-20.248-0.176-27.299-7.508
			c-6.595-6.858-8.543-33.138-22.486-29.538c-4.907,1.267-5.385,4.294-7.712,4.075c-1.603-0.151-2.705-1.616-2.798-3.224
			c-0.292-4.995-6.776-17.581-8.138-20.429c-4.209-8.8-15.328-3.669-17.038-5.55c-5.561-6.503-4.695-4.344-5.448-13.125
			c-0.287-3.344-0.89-18.058-3.923-20.362c-1.011-0.768-2.292-0.158-3.92,2.71c-1.681,2.96,1.116,14.267,1.46,18.008
			c0.475,5.159,1.107,12.024,4.254,16.256c0.002,0.003,0.004,0.006,0.006,0.008c1.922,2.58,4.778,4.18,9.116,3.806
			c-0.357-0.275-0.178-0.138,0,0c8.361,0.334,6.622-2.589,11.329,4.218c2.522,5.623,3.599,12.911,7.147,17.992
			c6.541,9.369,8.738,3.082,16.211,2.422c8.682-0.767,10.238,17.452,15.646,24.772c4.391,5.944,10.229,7.516,16.38,8.529
			c1.873,0.308,3.773,0.571,5.673,0.882c0.428,0.07,0.856,0.151,1.284,0.228c3.36,0.604,6.691,1.448,9.814,3.146
			c0.183,0.099,0.47,0.27,0.817,0.479c6.253,3.775,37.571,24.113,37.613,13.891C538.059,780.365,524.371,777.066,520.113,774.798z"
			/>
		<path fill="#492416" d="M380.516,457.851c2.159,0.278,4.488,0.047,6.748-0.213c2.392-0.275,4.704-0.584,6.646-0.363
			c1.084,0.123,3.271,1.796,4.844,2.123c5.116,1.063,11.139-0.142,16.325-0.142c14.46,0,23.732,13.006,36.004,17.972
			c11.47,4.642,20.732,9.135,29.8,18.154c10.313,10.258,15.878,20.313,22.293,33.206c1.208,2.428,2.853,4.783,4.307,5.741
			c1.652,1.089,3.059,0.371,3.287-4.188c0.274-5.474-6.705-15.271-9.506-19.979c-2.313-3.887-5.077-7.664-8.113-11.256
			c-4.496-5.319-9.608-10.218-14.879-14.371c-6.609-5.207-14.063-7.931-21.203-11.236c-3.645-1.688-7.21-3.524-10.536-5.926
			c-5.741-4.146-10.727-7.762-17.349-10.701c-1.546-0.686-3.021-1.154-4.468-1.522c-5.283-1.342-10.102-1.018-15.825-2.116
			c-3.447-0.661-5.89-3.28-10.513-3.351c-4.187-0.064-8.055,0.957-11.971,1.407c-2.68,0.308-5.382,0.351-8.225-0.416
			c-3.141-0.847-23.821-10.281-14.62,0.517c2.51,2.945,11.729,5.788,16.198,6.542C380.028,457.781,380.284,457.821,380.516,457.851z
			"/>
		<path fill="#492416" d="M675.105,430.95c-6.742,9.619-15.787,17.855-22.493,27.51c-2.174,3.13-4.106,6.407-5.629,9.932
			c-1.335,3.087-3.672,8.4-5.138,13.456c-1.077,3.717-1.686,7.296-1.063,9.745c1.225,4.822,2.659,5.032,3.995,3.329
			c0.866-1.102,1.69-2.999,2.39-4.991c0.92-2.619,1.626-5.379,1.925-6.635c4.133-17.323,13.457-25.635,23.961-38.81
			c10.95-13.736,23.366-30.407,29.205-46.852c4.147-11.679,8.485-22.754,11.203-34.864c0.75-3.344,5.955-12.003,6.968-15.56
			c0.126-0.441,0.198-0.817,0.178-1.081c-0.013-0.179-0.042-0.311-0.059-0.478c-0.039-0.379-0.076-0.766-0.133-1.086
			c-1.258-6.988-6.724-0.136-9.143,4.624c-3.395,6.678-4.037,13.667-5.902,20.838c-1.254,4.819-2.999,9.592-4.832,14.33
			c-0.844,3.313-1.649,5.952-2.444,7.479c-0.451,0.866-0.944,1.693-1.43,2.526c-0.198,0.528-0.401,1.057-0.594,1.584
			c-3.833,10.483-10.887,20.739-17.565,30.189C677.355,427.763,676.214,429.374,675.105,430.95z"/>
		<path fill="#492416" d="M479.185,372.547c-0.678,2.439-3.969,11.74-4.259,16.999c-0.083,1.515,0.069,2.712,0.623,3.288
			c2.626,2.731,4.723,0.214,6.448-4.271c2.841-7.384,4.674-20.106,6.201-23.567c6.989-15.843,23.933-29.816,38.243-38.93
			c26.523-16.892,55.054-8.572,79.937,7.252c0.423,0.269,0.934,0.592,1.486,0.932c4.508,2.781,12.388,7.054,8.427-1.892
			c-0.582-1.315-2.454-2.781-4.769-4.2c-3.872-2.375-8.982-4.616-11.36-5.792c-20.378-10.075-38.789-15.934-61.422-9.694
			c-19.352,5.301-38.365,24.056-49.924,39.53c-3.96,5.302-6.456,10.28-8.399,16.236c-0.421,1.29-0.825,2.609-1.202,4.005
			C479.208,372.472,479.193,372.517,479.185,372.547z"/>
		<path fill="#492416" d="M433.31,337.964c1.428-2.79,3.088-5.415,4.876-7.945c-0.83,2.223-1.446,4.542-1.798,6.888
			c-1.14,7.587,0.381,15.409,5.656,20.818c2.612,2.679,6.112,4.786,10.698,5.954c28.217,7.19,37.176-32.809,15.966-47.02
			c-3.128-2.095-6.184-3.155-9.103-3.445c-1.689-0.168-3.326-0.055-4.904,0.281c0.173-0.129,0.331-0.263,0.505-0.392
			c-3.845,0.799-7.483,2.535-10.735,4.807c-3.257,2.275-6.166,5.087-8.543,8.296c-2.39,3.199-4.257,6.788-5.504,10.559
			c-1.247,3.765-1.873,7.747-1.545,11.659C430.204,344.74,431.62,341.271,433.31,337.964z M463.77,332.069
			c-1.173,9.323-15.673,20.611-19.914,7.358C439.327,325.275,464.478,319.607,463.77,332.069z"/>
		<path fill="#492416" d="M643.62,199.622c4.348,0.665,8.688,1.797,12.957,3.152c4.286,1.296,8.493,2.868,12.693,4.54
			c4.2,1.683,8.35,3.544,12.657,5.32c-3.401-3.184-7.228-5.875-11.299-8.148c-4.056-2.312-8.395-4.125-12.863-5.55
			c-4.483-1.336-9.113-2.37-13.913-2.43c-4.738-0.094-9.78,0.979-13.48,3.901C634.832,199.011,639.261,199.007,643.62,199.622z"/>
		<path fill="#492416" d="M319.049,510.134c-1.609,3.671-3.132,7.397-4.776,11.032c-3.352,3.673-5.102,8.411-5.949,12.985
			c-0.802,4.756-0.852,9.464-0.54,14.12c0.313,4.662,1.038,9.275,2.131,13.781c1.112,4.502,2.536,8.91,4.367,13.138
			c-0.937-4.51-1.818-8.992-2.358-13.509c-0.59-4.504-0.894-9.025-0.916-13.524c0.006-4.495,0.214-9.012,1.107-13.275
			c0.828-4.273,2.541-8.257,5.319-11.29l0.244-0.266l0.121-0.285c1.632-3.833,3.249-7.629,4.694-11.516
			c1.471-3.871,2.897-7.76,4.157-11.711c1.303-3.934,2.466-7.919,3.469-11.948c0.969-4.034,1.848-8.11,2.204-12.245
			c-2.385,7.924-5.436,15.533-8.523,23.148L319.049,510.134z"/>
		<path fill="#492416" d="M801.715,466.269c0.449-2.921,0.654-5.953,0.796-8.819c0.067-2.893,0.338-5.538,0.975-8.23
			c0.565-2.711,1.519-5.407,2.326-8.2c0.851-2.778,1.664-5.638,2.096-8.6c0.394-2.955,0.41-6.028-0.429-8.849
			c-0.049,5.903-2.378,11.059-4.607,16.39c-1.151,2.66-2.221,5.41-3.065,8.326c-0.842,2.923-1.172,6.076-1.309,8.974
			c-0.146,5.765-0.725,11.311-1.805,16.923c-1.089,5.586-2.655,11.097-4.521,16.647c3.365-4.799,5.854-10.226,7.566-15.891
			C800.637,472.113,801.219,469.197,801.715,466.269z"/>
		<path fill="#492416" d="M618.383,302.369c7.538-8.082,8.221-23.201,1.488-32.079c1.202,0.424,2.398,0.871,3.579,1.371
			c0.714,0.302,1.411,0.668,2.117,0.995c2.678,1.241,5.325,2.607,8.005,4.164c-0.607-0.863-1.28-1.678-1.991-2.46
			c-1.936-2.127-4.216-3.96-6.685-5.482c-3.381-2.085-7.118-3.637-11.007-4.545c-1.531-0.363-3.088-0.599-4.651-0.765
			c-15.039-3.261-31.58,8.912-32.576,22.798c-0.04,0.561-0.063,1.125-0.051,1.691c0.098,4.686,1.993,9.5,6.376,13.928
			C591.719,310.807,609.55,311.838,618.383,302.369z M588.572,275.963c3.331-3.427,8.497-5.279,12.468-3.178
			c0.704,0.372,1.372,0.858,1.984,1.492c0.393,0.407,0.747,0.867,1.054,1.389c0.69,3.029,0.175,6.219-1.081,8.979
			c-2.303,5.061-7.111,8.657-11.651,7.122c-0.402-0.136-0.803-0.302-1.199-0.522c-1.028-0.569-2.029-1.425-2.968-2.617
			c-0.293-0.372-0.553-0.746-0.781-1.122C584.004,283.577,585.513,279.11,588.572,275.963z"/>
		<path fill="#492416" d="M806.145,1059.122c-1.328-0.45-2.59-0.776-3.906-1.135c-2.621-0.633-5.299-1.13-8.027-1.348
			c-5.443-0.513-11.128,0.103-16.408,2.07l-7.401,3.01l-3.655,1.589c-1.155,0.48-2.601,1.129-3.772,1.958
			c-4.727,3.271-7.765,7.62-11.439,11.508c4.721-2.608,8.671-6.504,13.049-8.816c2.031-0.999,4.755-1.78,7.21-2.696l7.436-2.797
			c4.667-1.815,9.727-2.562,14.885-2.702c2.581-0.054,5.195-0.002,7.824,0.165c1.305,0.064,2.664,0.173,3.935,0.269
			c0.596,0.059,1.17,0.231,1.445,0.644c0.263,0.372,0.159,1.303-0.568,1.343c0.741,0.189,1.34-0.763,1.131-1.56
			C807.611,1059.774,806.803,1059.372,806.145,1059.122z"/>
		<path fill="#492416" d="M494.207,1082.113c-1.688-2.102-3.505-4.131-5.531-5.971c-3.995-3.732-8.872-6.717-14.254-8.385
			l-7.698-2.138l-3.865-0.975c-1.207-0.326-2.748-0.695-4.182-0.754c-5.741-0.298-10.803,1.288-16.087,2.122
			c5.331,0.82,10.839,0.148,15.717,0.993c2.218,0.45,4.852,1.496,7.355,2.27l7.596,2.328c4.803,1.414,9.266,3.914,13.435,6.954
			c2.076,1.534,4.114,3.172,6.093,4.911c0.995,0.849,2.004,1.764,2.951,2.617c0.436,0.41,0.785,0.898,0.751,1.392
			c-0.019,0.455-0.67,1.129-1.27,0.716c0.471,0.603,1.527,0.214,1.848-0.545c0.302-0.839-0.092-1.651-0.46-2.251
			C495.829,1084.231,495.029,1083.202,494.207,1082.113z"/>
		<path fill="#492416" d="M717.033,687.717c-8.029,11.779-17.73,11.469-28.656,19.58c-4.875,3.619-9.98,7.318-14.159,11.699
			c-1.133,1.188-3.106,3.804-4.091,6.101c-1.184,2.76-0.935,5.058,3.981,3.839c3.837-0.952,10.224-10.519,13.833-13.335
			c5.474-4.271,10.198-6.913,16.474-9.563c9.399-3.969,17.646-17.719,23.338-25.466c1.989-2.706,3.668-4.685,4.973-5.251
			c0.873-0.086,1.718-0.171,2.494-0.244c1.663-0.157,3.311,0.426,4.579,1.513c4.33,3.712,7.95,11.059,14.077,8.38
			c4.725-2.066,6.905-13.757,8.34-18.334c3.115-9.935,5.919-19.982,8.763-29.998c0.849-2.989,6.807-16.455,0.038-16.134
			c-1.092,0.052-2.152,1.257-3.157,3.158c-3.762,7.111-6.759,24.064-7.831,27.754c-1.363,4.691-3.293,19.24-7.529,25.923
			c-1.89,2.981-5.081,1.591-7.597-1.022c-2.851-3.238-2.608-2.826-5.288-4.598c-5.912-3.908-9.977-0.94-14.091,4.08
			c0.003,0,0.006,0,0.009,0C722.147,678.729,719.38,684.262,717.033,687.717z"/>
	</g>
</g>
</svg>
