<?xml version="1.0" encoding="UTF-8"?>
<!-- Designed by Vexels.com - 2020 All Rights Reserved - https://vexels.com/terms-and-conditions/  -->
<svg version="1.1" id="Layer_1" xmlns="http://www.w3.org/2000/svg" xmlns:xlink="http://www.w3.org/1999/xlink" x="0px" y="0px" viewBox="0 0 1200 1200" enable-background="new 0 0 1200 1200" xml:space="preserve">
<g>
	<g>
		<path fill="#A2C8AF" d="M345.633,500.897l1.265-0.196c15.5-21.182,21.394-48.276,16.13-74.887l-1.242-6.29l-4.8,5.247    c-17.492,19.125-24.521,51.897-23.106,77.462C337.806,501.943,341.726,501.5,345.633,500.897z"/>
		<path fill="#A2C8AF" d="M317.365,502.512c-0.698-14.042,0.799-30.17,5.05-45.74c-4.452-15.138-16.403-31.855-27.705-46.372    l-3.177-3.357l-0.892,6.252c-3.701,25.917,3.338,66.76,19.58,88.788C312.599,502.288,314.981,502.421,317.365,502.512z"/>
	</g>
	<g>
		<path fill="#B86945" d="M1133.486,714.253c-13.252-1.917-26.075-3.861-38.509-5.75c-45.725-6.951-86.11-13.073-123.991-13.907    c-23.334,12.901-48.026,23.065-73.416,32.061l235.915,27.926V714.253z"/>
		<path fill="#B86945" d="M1133.486,528.044l-22.259-2.228c-1.42,0.542-3.593,1.36-6.386,2.376    c-7.714,23.013-16.764,45.581-29.168,67.03c22.337,1.101,42.548,1.577,57.813,1.659V528.044z"/>
		<path fill="#B86945" d="M1133.486,613.381c-12.565-0.088-37.802-0.482-67.907-2.113c-1.5,2.196-3.019,4.387-4.608,6.554    c-5.485,7.24-11.201,13.978-17.088,20.352l89.603,11.784V613.381z"/>
		<path fill="#B86945" d="M1029.194,652.9c-10.561,9.791-21.62,18.523-33.122,26.334c31.447,2.334,64.752,7.375,101.39,12.943    c11.664,1.773,23.663,3.592,36.025,5.39v-30.952L1029.194,652.9z"/>
	</g>
	<g>
		<path fill="#D67C4F" d="M961.176,529.097c12.211,15.95,64.303,7.161,110.927-7.196l-74.609-7.466    c-7.736-0.774-14.466-5.368-18.009-12.289c-3.54-6.921-3.325-15.071,0.573-21.798l27.798-47.935h-47.731l-37.31,38.612    c4.704,4.886,8.787,11.882,13.945,20.747C942.638,501.872,949.952,514.443,961.176,529.097z"/>
		<path fill="#D67C4F" d="M232.311,539.792c12.644,1.578,23.836,3.078,33.87,4.422c54.499,7.297,72.859,9.754,103.684-3.79    c19.906-8.745,35.986-22.779,46.518-33.76l-63.884,9.882c-0.007,0.001-0.013,0.002-0.02,0.003l-4.319,0.668    c-7.103,1.097-14.244,1.707-21.39,1.873c-0.142,0.007-0.287,0.028-0.427,0.028c-0.075,0-0.146-0.018-0.221-0.02    c-10.455,0.201-20.918-0.566-31.289-2.361c-52.437-9.077-176.484-30.327-210.001-34.068L80.17,537.65    C104.037,535.611,167.247,531.662,232.311,539.792z"/>
		<path fill="#D67C4F" d="M313.121,693.997c-43.846-14.754-206.074-24.355-243.967-26.425l-2.516,29.677l205.271,27.12    c7.714,1.021,13.756,6.862,15.041,14.533c1.285,7.668-2.527,15.157-9.483,18.635l-23.003,11.504l10.817,8.737    c56.507-49.359,109.814-26.468,124.53-18.486l41.887-16.573c0.51-0.202,1.041-0.328,1.567-0.471    c-34.561-8.887-57.36-19.975-78.324-30.173C341.201,705.391,328.221,699.077,313.121,693.997z"/>
		<path fill="#D67C4F" d="M844.314,720.353l53.256,6.304c25.39-8.996,50.082-19.16,73.416-32.061    C926.846,693.625,886.108,699.838,844.314,720.353z"/>
		<path fill="#D67C4F" d="M278.369,788.348l12.497,10.093l77.569-30.691C349.318,761.277,315.34,757.358,278.369,788.348z"/>
		<path fill="#D67C4F" d="M1044.078,546.609c-21.374,5.075-39.291,7.615-53.881,7.615c-20.497,0-34.421-5.018-42.132-15.084    c-11.862-15.485-19.468-28.558-25.578-39.062c-4.28-7.357-7.922-13.607-11.17-17.153l-5.139,5.319    c-14.762,15.272-36.165,22.793-57.205,20.143c-1.868-0.173-22.22-2.059-51.14-4.737c25.042,11.969,57.948,30.001,92.847,57.064    c28.231,21.897,116.621,31.141,184.993,34.511c12.404-21.449,21.453-44.017,29.168-67.03    C1092.877,532.548,1069.44,540.588,1044.078,546.609z"/>
		<path fill="#D67C4F" d="M1065.579,611.268c-65.201-3.532-153.258-12.871-185.022-37.504    c-51.072-39.608-96.335-58.676-120.652-68.919c-6.06-2.553-10.389-4.382-13.454-5.954    c-55.633-5.149-119.682-11.072-153.184-14.151c-14.651-1.349-29.448-0.887-43.984,1.365l-107.742,16.667    c-7.024,9.229-30.603,37.646-65.033,52.774c-18.393,8.08-32.942,11.146-50.746,11.146c-16.149,0-34.969-2.521-61.772-6.109    c-9.991-1.339-21.137-2.833-33.727-4.405c-66.565-8.315-131.068-3.689-151.509-1.829l-4.218,49.747    c36.585-0.095,172.278,0.733,245.439,17.467l4.126,0.943c84.982,19.452,227.222,51.996,310.626,28.454    c7.547-2.131,14.643-4.12,21.331-5.994c69.473-19.465,93.077-26.08,117.504-50.462c-3.986-5.816-29.744-20.119-104.56-38.122    c-55.714-13.407-110.29-21.962-124.388-21.164c-30.362,1.61-103.471,43.406-121.074,60.089    c28.631,9.993,153.933,25.494,218.336,13.541c12.539-2.328,20.121-5.198,24.704-7.827    c-25.798-8.316-106.197-21.043-118.768-19.428c-3.975,1.245-8.351-0.707-10.036-4.634c-1.795-4.19,0.145-9.045,4.338-10.843    c8.072-3.462,52.582,3.492,71.343,6.642c64.285,10.792,70.094,17.527,72.281,20.065c2.9,3.365,3.33,7.886,1.089,11.517    c-12.095,19.608-57.017,27.948-133.57,24.758c-56.068-2.328-118.316-11.173-138.757-19.718    c-10.399-4.346-11.396-10.12-10.405-14.197c3.223-13.213,37.917-33.969,58.313-45.164c12.765-7.005,56.351-29.967,81.329-31.295    c17.64-0.895,75.123,8.658,128.197,21.376c106.936,25.634,114.612,42.809,117.134,48.456c2.701,6.042,1.433,12.337-3.481,17.275    c-27.607,27.725-54.147,35.16-125.073,55.034c-6.679,1.871-13.764,3.857-21.298,5.983c-22.113,6.244-47.895,8.792-75.467,8.792    c-81.495,0-178.682-22.242-243.333-37.036l-4.123-0.943c-71.494-16.352-209.577-17.105-243.158-17.037l-2.584,30.478    c39.62,2.137,201.639,11.694,247.839,27.239c16.106,5.421,29.545,11.958,43.774,18.882c30.713,14.94,65.522,31.864,138.112,40.287    l161.797-10.61c13.261-10.846,84.799-68.703,116.134-80.77c62.052-23.892,126.326-25.505,138.921-24.61l0.5,0.048l126.255,16.604    c5.886-6.374,11.603-13.112,17.088-20.352C1062.56,615.654,1064.079,613.464,1065.579,611.268z"/>
		<path fill="#D67C4F" d="M915.733,637.979c-12.415-0.814-72.752,0.906-131.591,23.564c-21.602,8.317-66.883,42.645-93.299,63.471    l107.48-7.048c5.502-0.361,11.035-0.468,16.563-0.325c60.789-36.626,117.109-43.165,181.186-38.408    c11.503-7.812,22.562-16.543,33.122-26.334L915.733,637.979z"/>
	</g>
	<g>
		<path fill="#995739" d="M1133.486,649.957l-89.603-11.784c-4.775,5.17-9.672,10.075-14.69,14.726l104.292,13.715V649.957z"/>
		<path fill="#995739" d="M1097.461,692.177c-36.637-5.568-69.943-10.609-101.39-12.943c-8.158,5.54-16.531,10.633-25.085,15.362    c37.881,0.834,78.266,6.956,123.991,13.907c12.434,1.889,25.257,3.833,38.509,5.75v-16.686    C1121.124,695.769,1109.125,693.95,1097.461,692.177z"/>
		<path fill="#995739" d="M1133.486,596.882c-15.265-0.082-35.476-0.558-57.813-1.659c-3.137,5.424-6.494,10.775-10.094,16.045    c30.104,1.631,55.341,2.025,67.907,2.113V596.882z"/>
	</g>
	<path fill="#AB633F" d="M1105.813,525.275c-0.321,0.973-0.647,1.946-0.973,2.918c2.793-1.016,4.965-1.834,6.386-2.376   L1105.813,525.275z"/>
	<g>
		<path fill="#AB633F" d="M1043.883,638.174L917.628,621.57l-0.5-0.048c-12.595-0.895-76.87,0.718-138.921,24.61    c-31.335,12.067-102.874,69.925-116.134,80.77l28.77-1.887c26.415-20.827,71.697-55.155,93.299-63.471    c58.84-22.659,119.176-24.379,131.591-23.564l113.461,14.921C1034.211,648.249,1039.109,643.343,1043.883,638.174z"/>
		<path fill="#AB633F" d="M814.885,717.642c5.547,0.144,11.087,0.541,16.584,1.19l12.845,1.521    c41.793-20.515,82.532-26.728,126.672-25.757c8.554-4.729,16.927-9.822,25.085-15.362    C931.994,674.477,875.674,681.017,814.885,717.642z"/>
		<path fill="#AB633F" d="M890.68,560.712c-34.899-27.063-67.805-45.095-92.847-57.064c-15.231-1.41-32.834-3.04-51.381-4.757    c3.065,1.572,7.394,3.4,13.454,5.954c24.317,10.243,69.58,29.311,120.652,68.919c31.764,24.632,119.821,33.971,185.022,37.504    c3.6-5.27,6.957-10.621,10.094-16.045C1007.301,591.853,918.91,582.608,890.68,560.712z"/>
		<path fill="#AB633F" d="M1072.103,521.901c-46.624,14.357-98.716,23.146-110.927,7.196    c-11.224-14.654-18.538-27.225-24.416-37.326c-5.158-8.865-9.241-15.86-13.945-20.747l-11.498,11.899    c3.248,3.546,6.891,9.796,11.17,17.153c6.109,10.504,13.716,23.578,25.578,39.062c7.711,10.066,21.634,15.084,42.132,15.084    c14.59,0,32.507-2.54,53.881-7.615c25.362-6.021,48.799-14.061,60.763-18.416c0.326-0.972,0.651-1.944,0.973-2.918    L1072.103,521.901z"/>
		<path fill="#AB633F" d="M316.293,637.662l4.123,0.943c64.651,14.794,161.838,37.036,243.333,37.036    c27.572,0,53.354-2.548,75.467-8.792c7.534-2.126,14.619-4.112,21.299-5.983c70.927-19.874,97.467-27.308,125.073-55.034    c4.913-4.938,6.182-11.233,3.481-17.275c-2.521-5.647-10.198-22.823-117.134-48.456c-53.074-12.719-110.556-22.271-128.197-21.376    c-24.978,1.328-68.564,24.29-81.329,31.295c-20.395,11.195-55.09,31.95-58.313,45.164c-0.992,4.077,0.005,9.851,10.405,14.197    c20.441,8.545,82.689,17.39,138.757,19.718c76.552,3.19,121.474-5.15,133.57-24.758c2.242-3.631,1.812-8.152-1.089-11.517    c-2.188-2.537-7.996-9.273-72.281-20.065c-18.761-3.15-63.272-10.104-71.343-6.642c-4.193,1.798-6.134,6.652-4.338,10.843    c1.685,3.927,6.061,5.878,10.036,4.634c12.571-1.615,92.97,11.112,118.768,19.428c-4.583,2.629-12.165,5.499-24.704,7.827    c-64.403,11.953-189.705-3.548-218.336-13.541c17.603-16.683,90.712-58.479,121.074-60.089    c14.098-0.798,68.674,7.757,124.388,21.164c74.816,18.003,100.574,32.305,104.56,38.122    c-24.427,24.381-48.032,30.996-117.504,50.462c-6.687,1.873-13.783,3.862-21.331,5.994    c-83.404,23.543-225.645-9.002-310.626-28.454l-4.126-0.943C246.814,604.828,111.121,604,74.536,604.095l-1.402,16.53    C106.715,620.557,244.799,621.31,316.293,637.662z"/>
		<path fill="#AB633F" d="M230.263,556.178c12.59,1.572,23.736,3.067,33.727,4.405c26.803,3.588,45.623,6.109,61.772,6.109    c17.804,0,32.354-3.067,50.746-11.146c34.429-15.128,58.009-43.545,65.033-52.774l-25.159,3.892    c-10.533,10.98-26.613,25.015-46.518,33.76c-30.824,13.544-49.185,11.087-103.684,3.79c-10.034-1.344-21.226-2.844-33.87-4.422    c-65.064-8.13-128.273-4.182-152.141-2.142l-1.416,16.698C99.195,552.488,163.698,547.863,230.263,556.178z"/>
		<path fill="#AB633F" d="M318.389,678.343C272.19,662.798,110.171,653.24,70.55,651.103l-1.396,16.468    c37.893,2.07,200.121,11.671,243.967,26.425c15.1,5.08,28.08,11.394,41.82,18.078c20.964,10.197,43.763,21.286,78.324,30.173    c1.092-0.298,2.204-0.517,3.346-0.561l63.664-4.175c-72.59-8.423-107.399-25.347-138.112-40.287    C347.934,690.301,334.495,683.764,318.389,678.343z"/>
		<path fill="#AB633F" d="M265.281,777.778l13.087,10.57c36.971-30.99,70.949-27.071,90.066-20.598l21.376-8.458    C375.096,751.31,321.788,728.419,265.281,777.778z"/>
	</g>
	<path fill="#24383D" d="M1136.58,511.756l-137.44-13.754c-3.067-0.306-4.483-2.465-4.951-3.376   c-0.468-0.914-1.387-3.328,0.159-5.994l29.198-50.357c2.704-4.669,2.709-10.243,0.016-14.915s-7.521-7.461-12.912-7.461h-51.206   c-4.018,0-7.924,1.656-10.716,4.545l-54.423,56.321c-11.19,11.582-27.411,17.264-43.379,15.221l-0.29-0.032   c0,0-46.042-4.267-100.716-9.327c-0.006-0.001-0.012-0.001-0.018-0.002c-56.077-5.19-121.23-11.215-155.122-14.33   c-15.99-1.465-32.149-0.968-48.021,1.489l-111.3,17.217l-0.023,0.004l-66.988,10.362c11.963-22.475,15.912-48.834,10.786-74.757   l-2.978-15.057c-0.887-4.47-4.182-8.015-8.604-9.252c-4.333-1.215-8.889,0.067-11.888,3.344L344.8,413.628   c-5.572,6.092-10.172,13.159-13.952,20.75c-6.246-11.776-14.723-23.368-23.356-34.442l-10.773-11.437   c-3.118-3.306-7.752-4.502-12.079-3.121c-4.33,1.379-7.416,5.029-8.053,9.518l-2.295,16.063   c-3.612,25.275,1.187,61.504,14.682,88.006c-57.493-9.926-174.196-29.811-204.057-32.897h-0.005   c-4.005-0.417-7.951,0.777-11.058,3.354c-3.102,2.57-4.999,6.198-5.338,10.211l-5.634,66.456l-0.001,0.008L50.054,697.391   c-0.669,7.943,4.994,14.985,12.899,16.03l206.792,27.319c0.293,0.04,0.788,0.105,0.919,0.89c0.129,0.779-0.314,1.003-0.581,1.134   l-25.239,12.625c-4.559,2.274-7.607,6.655-8.158,11.719c-0.548,5.067,1.489,10.001,5.454,13.205l39.079,31.563   c2.691,2.174,6.013,3.309,9.372,3.309c1.847,0,3.707-0.344,5.475-1.043l96.051-38.003l0.078-0.031l45.321-17.932l361.886-23.734   c10.02-0.656,20.159-0.392,30.125,0.79l304.124,35.998l0.384,0.035c4.088,0.298,8.198-1.15,11.216-3.959   c3.016-2.809,4.747-6.784,4.747-10.905V526.584C1150,518.9,1144.232,512.524,1136.58,511.756z M356.987,424.772l4.8-5.247   l1.242,6.29c5.264,26.61-0.631,53.704-16.13,74.887l-1.265,0.196c-3.907,0.604-7.827,1.047-11.753,1.337   C332.465,476.668,339.494,443.896,356.987,424.772z M290.64,413.294l0.892-6.252l3.177,3.357   c11.302,14.517,23.253,31.234,27.705,46.372c-4.25,15.57-5.748,31.698-5.05,45.74c-2.383-0.09-4.766-0.224-7.145-0.429   C293.978,480.054,286.939,439.211,290.64,413.294z M1133.486,596.882v16.499v36.576v16.658v30.952v16.686v40.33l-289.172-34.23   l-12.845-1.521c-5.497-0.649-11.037-1.046-16.584-1.19c-5.527-0.143-11.061-0.036-16.563,0.325l-107.48,7.048l-28.77,1.887   l-161.797,10.61l-63.664,4.175c-1.143,0.044-2.254,0.263-3.346,0.561c-0.526,0.143-1.057,0.269-1.567,0.471l-41.887,16.573   l-21.376,8.458l-77.569,30.691l-12.497-10.093l-13.087-10.57l-10.817-8.737l23.003-11.504c6.956-3.478,10.767-10.966,9.483-18.635   c-1.285-7.671-7.327-13.512-15.041-14.533l-205.271-27.12l2.516-29.677l1.396-16.468l2.584-30.478l1.402-16.53l4.218-49.747   l1.416-16.698l4.662-54.983c33.517,3.741,157.564,24.992,210.001,34.068c10.37,1.795,20.834,2.562,31.289,2.361   c0.075,0.002,0.146,0.02,0.221,0.02c0.141,0,0.285-0.021,0.427-0.028c7.146-0.166,14.287-0.775,21.39-1.873l4.319-0.668   c0.007-0.001,0.013-0.002,0.02-0.003l63.884-9.882l25.159-3.892l107.742-16.667c14.536-2.252,29.332-2.715,43.984-1.365   c33.502,3.08,97.551,9.002,153.184,14.151c18.548,1.717,36.151,3.346,51.381,4.757c28.92,2.678,49.272,4.564,51.14,4.737   c21.04,2.65,42.444-4.87,57.205-20.143l5.139-5.319l11.498-11.899l37.31-38.612h47.731l-27.798,47.935   c-3.897,6.728-4.112,14.877-0.573,21.798c3.543,6.921,10.273,11.515,18.009,12.289l74.609,7.466l39.123,3.915l22.259,2.228V596.882   z"/>
</g>
</svg>