<?xml version="1.0" encoding="utf-8"?>
<!--Designed by Vexels.com - 2017 All Rights Reserved - https://vexels.com/terms-and-conditions/-->

<svg version="1.1" id="Capa_1" xmlns="http://www.w3.org/2000/svg" xmlns:xlink="http://www.w3.org/1999/xlink" x="0px" y="0px"
	 width="1200px" height="1200px" viewBox="0 0 1200 1200" enable-background="new 0 0 1200 1200" xml:space="preserve">
<g>
	<path fill="#99173D" d="M812.445,110.84C759.041,71.039,691.798,50,618.005,50c-133.333,0-255.037,83.803-302.845,208.538
		c-10.015,26.131-22.911,65.977-27.442,107.393c-5.182,47.293,28.957,89.819,76.238,95.001
		c47.271,5.108,89.818-28.957,94.989-76.238c1.985-18.05,8.041-40.945,17.058-64.479c22.104-57.66,80.5-97.91,142.002-97.91
		c35.897,0,68.398,9.526,91.523,26.759c33.375,24.862,38.175,85.579,21.712,126.603c-8.411,20.938-21.623,43.374-39.264,66.33
		c-13.604,17.681-28.396,35.338-44.063,53.651c-23.652,27.661-48.111,56.977-70.406,89.343
		C531.503,651.773,510.947,725,510.858,819.204c-0.045,39.739,27.386,84.071,79.893,85.865
		c42.786,1.464,92.321-38.158,92.365-85.697c0.057-59.522,10.229-100.311,36.258-138.099c17.192-24.964,37.727-48.969,59.46-74.382
		c16.408-19.183,33.376-39.022,49.693-60.257c27.253-35.438,48.302-71.433,62.567-106.989
		C932.59,336.273,918.885,190.134,812.445,110.84z M596.718,975.997c-24.403,0-45.004,8.406-61.793,25.217
		c-16.8,16.806-25.21,37.412-25.21,61.787c0,24.393,8.411,44.983,25.21,61.788c16.789,16.806,37.39,25.211,61.793,25.211
		c24.37,0,44.983-8.405,61.782-25.211c16.8-16.805,25.199-37.396,25.199-61.788c0-24.375-8.399-44.981-25.199-61.787
		C641.701,984.403,621.088,975.997,596.718,975.997z"/>
	<g>
		<path fill="#E21B39" d="M664.556,1051.518c0-24.375-8.399-44.982-25.199-61.788c-2.512-2.518-5.137-4.777-7.828-6.92
			c-10.597-4.508-22.183-6.813-34.811-6.813c-24.403,0-45.004,8.406-61.793,25.217c-16.8,16.806-25.21,37.412-25.21,61.787
			c0,24.393,8.411,44.983,25.21,61.788c2.512,2.512,5.136,4.777,7.828,6.92c10.586,4.508,22.183,6.807,34.821,6.807
			c24.37,0,44.983-8.405,61.782-25.211C656.156,1096.5,664.556,1075.91,664.556,1051.518z"/>
		<path fill="#E21B39" d="M809.384,535.15c27.252-35.438,48.303-71.433,62.567-106.988c41.495-103.372,27.79-249.512-78.649-328.806
			c-4.62-3.449-9.487-6.562-14.31-9.724C732.002,63.749,677.173,50,618.005,50c-133.333,0-255.037,83.803-302.845,208.538
			c-10.015,26.131-22.911,65.977-27.442,107.393c-3.354,30.656,9.869,59.236,32.421,77.012c7.671,3.303,15.937,5.546,24.673,6.505
			c47.271,5.108,89.818-28.956,94.989-76.238c1.985-18.05,8.041-40.944,17.058-64.479c22.104-57.661,80.5-97.911,142-97.911
			c35.844,0,68.299,9.505,91.424,26.691c6.941,3.342,13.402,7.194,19.245,11.552c33.375,24.862,38.175,85.579,21.712,126.603
			c-8.411,20.938-21.623,43.374-39.264,66.33c-13.604,17.681-28.396,35.338-44.063,53.651
			c-23.652,27.661-48.111,56.977-70.406,89.343C531.503,651.773,510.947,725,510.858,819.204
			c-0.023,24.639,10.53,51.027,31.064,67.967c8.792,3.695,18.649,6.039,29.685,6.415c42.786,1.463,92.321-38.158,92.365-85.698
			c0.057-59.522,10.229-100.311,36.258-138.099c17.192-24.964,37.727-48.969,59.46-74.382
			C776.099,576.225,793.066,556.386,809.384,535.15z"/>
	</g>
	<g>
		<path fill="#E84961" d="M578.483,805.825c5.103-67.586,24.134-121.995,58.978-172.585c21.947-31.866,46.721-61.355,68.221-86.493
			c13.95-16.318,30.246-35.618,45.184-55.031c19.47-25.34,34.238-50.399,43.928-74.5c21.622-53.897,15.151-131.123-33.104-167.071
			c-3.433-2.563-4.005,3.056-1.246,8.629c19.29,39.017,18.504,90.515,2.771,129.733c-9.689,24.1-24.46,49.159-43.929,74.499
			c-14.938,19.413-31.232,38.714-45.185,55.031c-21.498,25.138-46.271,54.627-68.219,86.494
			c-41.81,60.694-60.493,126.911-60.571,214.706C545.287,843.68,574.973,852.304,578.483,805.825z"/>
		<path fill="#E84961" d="M357.776,371.325c6.773-27.476,14.086-53.371,21.14-71.746
			c42.728-111.503,151.511-186.418,270.669-186.418c50.399,0,97.209,10.812,137.583,31.514c12.358,6.342,16.07,2.266,4.688-6.213
			C744.45,103.13,684.328,84.451,618.005,84.451c-119.158,0-227.941,74.915-270.669,186.418
			c-9.297,24.246-21.241,61.07-25.369,98.813C319.243,394.573,351.036,398.689,357.776,371.325z"/>
		<path fill="#E84961" d="M575.746,1091.711c0-15.213,4.813-27.105,15.129-37.429c10.307-10.323,22.194-15.123,37.425-15.123
			c6.19,0,10.81-8.619,5.831-13.593c-10.307-10.313-22.193-15.117-37.413-15.117c-15.229,0-27.117,4.8-37.423,15.123
			c-10.318,10.323-15.129,22.217-15.129,37.429c0,15.213,4.811,27.106,15.129,37.44
			C565.396,1106.554,575.746,1099.59,575.746,1091.711z"/>
	</g>
</g>
</svg>
