<?xml version="1.0" encoding="utf-8"?>
<!-- Generator: Adobe Illustrator 23.0.6, SVG Export Plug-In . SVG Version: 6.00 Build 0)  -->
<svg version="1.1" id="Layer_1" xmlns="http://www.w3.org/2000/svg" xmlns:xlink="http://www.w3.org/1999/xlink" x="0px" y="0px"
	 viewBox="0 0 1200 1200" enable-background="new 0 0 1200 1200" xml:space="preserve">
<path fill="#1A1A1C" d="M451.87,590.396c-0.885-1.724-1.956-3.384-3.215-4.955c-1.26-1.57-2.649-2.976-4.14-4.213
	c-1.491-1.237-3.084-2.307-4.751-3.206c-1.667-0.899-3.409-1.627-5.197-2.181c-1.788-0.554-3.623-0.935-5.478-1.138
	c-1.855-0.203-3.728-0.23-5.594-0.077c-1.866,0.153-3.724,0.487-5.546,1.003c-1.822,0.516-3.609,1.215-5.332,2.1
	c-1.724,0.885-3.384,1.956-4.955,3.215c-1.57,1.26-2.976,2.649-4.213,4.14c-1.238,1.491-2.307,3.084-3.206,4.751
	c-0.899,1.667-1.627,3.408-2.181,5.197c-0.554,1.788-0.934,3.623-1.138,5.478c-0.203,1.855-0.23,3.729-0.077,5.594
	c0.153,1.866,0.487,3.724,1.002,5.546c0.516,1.822,1.215,3.609,2.1,5.333c0.885,1.724,1.956,3.384,3.215,4.955
	c1.26,1.57,2.649,2.976,4.14,4.213c1.491,1.238,3.084,2.307,4.751,3.206c1.667,0.899,3.409,1.627,5.197,2.181
	c1.788,0.554,3.623,0.934,5.478,1.138c1.855,0.203,3.729,0.23,5.594,0.077c1.866-0.153,3.724-0.487,5.546-1.003
	c1.822-0.516,3.609-1.215,5.333-2.1c1.724-0.885,3.384-1.956,4.955-3.216c1.57-1.26,2.976-2.649,4.213-4.14s2.307-3.084,3.206-4.751
	c0.899-1.667,1.627-3.408,2.181-5.197c0.554-1.788,0.934-3.623,1.138-5.478c0.203-1.854,0.23-3.728,0.077-5.594
	c-0.154-1.866-0.487-3.724-1.003-5.546C453.454,593.906,452.755,592.12,451.87,590.396z M481.584,203.138
	c1.57-1.26,2.976-2.649,4.213-4.14c1.237-1.491,2.307-3.084,3.206-4.751c0.899-1.667,1.627-3.409,2.181-5.197
	c0.554-1.788,0.935-3.623,1.138-5.478c0.203-1.855,0.23-3.729,0.076-5.595c-0.153-1.866-0.486-3.724-1.002-5.546
	c-0.516-1.822-1.215-3.609-2.1-5.333c-0.885-1.724-1.956-3.384-3.216-4.955c-1.26-1.57-2.649-2.976-4.14-4.213
	c-1.491-1.238-3.084-2.307-4.751-3.206c-1.667-0.899-3.408-1.627-5.197-2.181c-1.788-0.554-3.624-0.934-5.478-1.138
	c-1.855-0.204-3.729-0.23-5.595-0.077c-1.866,0.153-3.724,0.486-5.546,1.003c-1.822,0.516-3.609,1.215-5.333,2.1
	c-1.723,0.885-3.384,1.956-4.955,3.216c-1.57,1.26-2.976,2.649-4.213,4.14c-1.237,1.491-2.307,3.084-3.206,4.751
	c-0.899,1.667-1.627,3.409-2.181,5.197c-0.555,1.788-0.935,3.623-1.138,5.478c-0.203,1.855-0.23,3.728-0.077,5.594
	c0.153,1.866,0.487,3.724,1.003,5.546c0.516,1.822,1.215,3.609,2.1,5.333c0.885,1.724,1.956,3.384,3.216,4.955
	c1.26,1.57,2.649,2.976,4.14,4.213c1.491,1.238,3.084,2.307,4.751,3.206c1.667,0.899,3.408,1.627,5.197,2.181
	c1.788,0.554,3.624,0.935,5.478,1.138c1.855,0.203,3.729,0.23,5.595,0.077c1.866-0.153,3.724-0.487,5.546-1.003
	c1.822-0.516,3.609-1.215,5.333-2.1C478.353,205.468,480.014,204.398,481.584,203.138z M258.935,360.035
	c-0.885-1.724-1.956-3.384-3.216-4.955c-1.26-1.57-2.649-2.976-4.14-4.213c-1.491-1.238-3.084-2.307-4.751-3.206
	c-1.667-0.899-3.408-1.627-5.197-2.181c-1.788-0.554-3.624-0.935-5.478-1.138c-1.855-0.203-3.729-0.23-5.595-0.077
	c-1.866,0.153-3.724,0.487-5.546,1.003c-1.822,0.516-3.609,1.215-5.333,2.1c-1.723,0.885-3.384,1.956-4.955,3.216
	c-1.57,1.26-2.976,2.649-4.213,4.14c-1.237,1.491-2.307,3.084-3.206,4.751c-0.899,1.667-1.627,3.409-2.181,5.197
	c-0.555,1.788-0.935,3.623-1.138,5.478c-0.203,1.855-0.23,3.729-0.076,5.594c0.153,1.866,0.486,3.724,1.002,5.546
	c0.516,1.822,1.215,3.609,2.1,5.333c0.885,1.724,1.956,3.384,3.216,4.955c1.26,1.57,2.649,2.976,4.14,4.213
	c1.491,1.237,3.084,2.307,4.751,3.206c1.667,0.899,3.408,1.627,5.197,2.181c1.788,0.554,3.624,0.934,5.478,1.138
	c1.855,0.204,3.729,0.23,5.595,0.077c1.866-0.153,3.724-0.487,5.546-1.003c1.822-0.516,3.609-1.215,5.333-2.1
	c1.723-0.885,3.384-1.956,4.955-3.216c1.57-1.26,2.976-2.649,4.213-4.14c1.237-1.491,2.307-3.084,3.206-4.751
	c0.899-1.667,1.627-3.409,2.181-5.197c0.555-1.788,0.935-3.623,1.138-5.478c0.203-1.855,0.23-3.728,0.076-5.594
	c-0.153-1.866-0.486-3.724-1.002-5.546C260.519,363.545,259.82,361.758,258.935,360.035z M752.97,379.088
	c2.528,4.93,4.574,10.127,6.082,15.446c1.479,5.226,2.457,10.633,2.905,16.069c0.443,5.388,0.366,10.845-0.225,16.228
	c-0.588,5.377-1.696,10.72-3.3,15.886c-1.609,5.2-3.734,10.265-6.318,15.054c-2.624,4.866-5.746,9.493-9.281,13.755
	c-3.626,4.37-7.739,8.409-12.218,12.003l-62.637,50.255c-5.261,4.219-6.104,11.908-1.882,17.169
	c4.219,5.258,11.902,6.104,17.169,1.882l62.634-50.252c5.762-4.625,11.054-9.825,15.732-15.459
	c4.564-5.502,8.595-11.478,11.982-17.76c3.331-6.178,6.074-12.711,8.15-19.416c2.062-6.65,3.493-13.532,4.248-20.455
	c0.761-6.923,0.859-13.951,0.289-20.89c-0.578-7.01-1.839-13.983-3.747-20.725c-1.945-6.867-4.588-13.575-7.853-19.941
	c-3.35-6.525-7.392-12.748-12.006-18.499l-207.53-258.67c-4.627-5.766-9.827-11.058-15.456-15.728
	c-5.494-4.562-11.47-8.596-17.765-11.989c-6.172-3.329-12.705-6.07-19.416-8.15c-6.65-2.061-13.532-3.49-20.458-4.25
	c-6.925-0.758-13.954-0.855-20.884-0.286c-7.007,0.576-13.98,1.837-20.728,3.748c-6.872,1.947-13.58,4.588-19.938,7.853
	c-6.517,3.346-12.74,7.384-18.499,12.004L143.352,281.5c-5.762,4.619-11.054,9.822-15.732,15.459
	c-4.566,5.502-8.6,11.478-11.987,17.762c-3.323,6.165-6.066,12.698-8.15,19.416c-2.062,6.65-3.493,13.532-4.248,20.455
	c-0.761,6.923-0.859,13.951-0.286,20.892c0.575,7.005,1.837,13.975,3.745,20.723c1.948,6.87,4.588,13.577,7.853,19.938
	c3.345,6.514,7.384,12.74,12.006,18.502l207.53,258.67c4.625,5.762,9.825,11.054,15.456,15.729
	c5.494,4.561,11.47,8.595,17.765,11.987c6.175,3.329,12.708,6.072,19.416,8.147c6.644,2.062,13.527,3.49,20.46,4.254
	c3.957,0.432,7.951,0.649,11.942,0.649c2.987,0,5.974-0.122,8.945-0.363c7.005-0.578,13.975-1.839,20.723-3.747
	c6.875-1.948,13.583-4.59,19.933-7.853c6.506-3.337,12.732-7.376,18.499-12.003l24.587-19.723
	c5.261-4.222,6.104-11.908,1.882-17.169c-4.219-5.258-11.905-6.098-17.169-1.882l-24.579,19.718
	c-4.49,3.602-9.321,6.737-14.372,9.329c-4.922,2.528-10.113,4.574-15.438,6.08c-5.229,1.482-10.633,2.459-16.063,2.905
	c-5.393,0.445-10.856,0.363-16.228-0.22c-5.383-0.594-10.728-1.704-15.894-3.305c-5.203-1.611-10.267-3.737-15.054-6.316
	c-4.871-2.626-9.499-5.751-13.755-9.284c-4.37-3.626-8.409-7.739-12.006-12.22l-207.53-258.668
	c-3.594-4.482-6.732-9.318-9.326-14.372c-2.528-4.924-4.574-10.119-6.08-15.441c-1.482-5.229-2.459-10.633-2.907-16.069
	c-0.443-5.388-0.366-10.845,0.225-16.228c0.588-5.377,1.696-10.72,3.297-15.88c1.617-5.213,3.745-10.28,6.321-15.062
	c2.624-4.863,5.746-9.491,9.287-13.755c3.626-4.373,7.736-8.412,12.218-12.006l258.67-207.53c4.476-3.592,9.313-6.73,14.37-9.328
	c4.922-2.527,10.116-4.572,15.438-6.08c5.229-1.48,10.636-2.458,16.071-2.905c5.38-0.443,10.837-0.367,16.222,0.223
	c5.377,0.59,10.723,1.7,15.888,3.301c5.205,1.613,10.272,3.74,15.056,6.318c4.871,2.626,9.499,5.75,13.755,9.284
	c4.368,3.623,8.407,7.736,12.006,12.22l207.53,258.67C747.232,369.198,750.372,374.032,752.97,379.088z M462.871,414.786
	c1.57-1.26,2.976-2.649,4.213-4.14c1.237-1.491,2.307-3.084,3.206-4.751c0.899-1.667,1.627-3.409,2.181-5.197
	c0.554-1.788,0.935-3.623,1.138-5.478c0.203-1.855,0.23-3.729,0.077-5.595c-0.153-1.866-0.487-3.724-1.003-5.546
	c-0.516-1.822-1.215-3.609-2.1-5.333c-0.885-1.724-1.956-3.384-3.216-4.955c-1.26-1.57-2.649-2.976-4.14-4.213
	c-1.491-1.238-3.084-2.307-4.751-3.206c-1.667-0.899-3.408-1.627-5.197-2.181c-1.788-0.554-3.624-0.935-5.478-1.138
	c-1.855-0.203-3.728-0.23-5.594-0.077c-1.866,0.153-3.724,0.487-5.546,1.003c-1.822,0.516-3.609,1.215-5.333,2.1
	c-1.724,0.885-3.384,1.956-4.955,3.216c-1.57,1.26-2.976,2.649-4.213,4.14c-1.238,1.491-2.307,3.084-3.206,4.751
	c-0.899,1.667-1.627,3.409-2.181,5.197c-0.554,1.788-0.935,3.623-1.138,5.478c-0.203,1.855-0.23,3.729-0.077,5.595
	c0.153,1.866,0.486,3.724,1.002,5.546c0.516,1.822,1.215,3.609,2.1,5.333c0.885,1.724,1.956,3.384,3.215,4.955
	c1.26,1.57,2.649,2.976,4.14,4.213c1.491,1.238,3.084,2.307,4.751,3.206c1.667,0.899,3.408,1.627,5.197,2.181
	c1.788,0.554,3.623,0.934,5.478,1.138c1.855,0.203,3.729,0.23,5.595,0.077c1.866-0.153,3.724-0.486,5.546-1.003
	c1.823-0.516,3.609-1.215,5.333-2.1C459.64,417.117,461.301,416.046,462.871,414.786z M849.534,863.895
	c-0.738-1.744-1.641-3.402-2.689-4.953c-1.048-1.551-2.242-2.996-3.561-4.316c-1.319-1.319-2.764-2.513-4.316-3.561
	c-1.551-1.048-3.209-1.951-4.953-2.689c-1.744-0.738-3.576-1.311-5.474-1.699s-3.863-0.592-5.877-0.592
	c-2.013,0-3.978,0.204-5.877,0.592c-1.898,0.388-3.729,0.961-5.474,1.699c-1.744,0.738-3.402,1.641-4.953,2.689
	c-1.551,1.048-2.996,2.241-4.315,3.561c-1.319,1.319-2.513,2.764-3.561,4.316c-1.048,1.551-1.951,3.209-2.689,4.953
	c-0.738,1.744-1.311,3.576-1.699,5.474c-0.389,1.898-0.593,3.864-0.593,5.877c0,2.013,0.204,3.979,0.593,5.877
	c0.389,1.898,0.961,3.729,1.699,5.474c0.738,1.744,1.641,3.402,2.689,4.953c1.048,1.551,2.242,2.996,3.561,4.316
	c1.319,1.319,2.764,2.513,4.315,3.561c1.552,1.048,3.209,1.951,4.953,2.689c1.745,0.738,3.576,1.311,5.474,1.699
	c1.899,0.388,3.864,0.592,5.877,0.592c2.013,0,3.978-0.204,5.877-0.592c1.898-0.388,3.73-0.961,5.474-1.699
	c1.744-0.738,3.402-1.641,4.953-2.689c1.551-1.048,2.996-2.242,4.316-3.561c1.319-1.319,2.512-2.764,3.561-4.316
	c1.048-1.551,1.951-3.209,2.689-4.953c0.738-1.744,1.311-3.575,1.699-5.474c0.389-1.898,0.593-3.864,0.593-5.877
	c0-2.013-0.204-3.979-0.593-5.877C850.845,867.471,850.272,865.64,849.534,863.895z M996.577,710.521
	c-0.738-1.744-1.641-3.402-2.689-4.953c-1.048-1.551-2.242-2.996-3.561-4.316c-1.319-1.319-2.764-2.513-4.316-3.561
	c-1.551-1.048-3.209-1.951-4.953-2.689c-1.744-0.738-3.576-1.311-5.474-1.699c-1.898-0.388-3.863-0.593-5.877-0.593
	c-2.013,0-3.978,0.204-5.877,0.593c-1.898,0.388-3.73,0.961-5.474,1.699c-1.744,0.738-3.402,1.641-4.953,2.689
	s-2.996,2.241-4.316,3.561c-1.319,1.319-2.512,2.764-3.561,4.316c-1.048,1.551-1.951,3.209-2.689,4.953
	c-0.738,1.744-1.311,3.576-1.699,5.474c-0.389,1.898-0.592,3.864-0.592,5.877c0,2.013,0.204,3.979,0.592,5.877
	c0.389,1.898,0.961,3.729,1.699,5.474c0.738,1.744,1.641,3.402,2.689,4.953c1.048,1.551,2.242,2.996,3.561,4.316
	c1.319,1.319,2.764,2.513,4.316,3.561c1.551,1.048,3.209,1.951,4.953,2.689c1.744,0.738,3.576,1.311,5.474,1.699
	s3.863,0.592,5.877,0.592c2.013,0,3.978-0.204,5.877-0.592s3.73-0.961,5.474-1.699c1.744-0.738,3.402-1.64,4.953-2.689
	c1.551-1.048,2.997-2.242,4.316-3.561c1.319-1.319,2.512-2.764,3.561-4.316c1.048-1.551,1.951-3.209,2.689-4.953
	c0.738-1.744,1.311-3.575,1.699-5.474c0.389-1.898,0.592-3.864,0.592-5.877c0-2.013-0.204-3.979-0.592-5.877
	C997.888,714.097,997.315,712.266,996.577,710.521z M1095.206,687.486c-1.431-7.002-3.57-13.89-6.353-20.463
	c-2.73-6.456-6.109-12.684-10.045-18.51c-3.896-5.764-8.367-11.187-13.297-16.114c-4.927-4.927-10.347-9.401-16.116-13.299
	c-5.82-3.93-12.046-7.309-18.507-10.045c-6.583-2.783-13.469-4.919-20.468-6.353c-7.182-1.468-14.563-2.213-21.939-2.213H656.849
	c-7.378,0-14.759,0.745-21.939,2.213c-6.999,1.434-13.885,3.57-20.471,6.353c-6.453,2.732-12.682,6.112-18.512,10.047
	c-5.764,3.899-11.184,8.372-16.108,13.296c-4.924,4.924-9.398,10.344-13.299,16.116c-3.933,5.823-7.312,12.051-10.045,18.507
	c-2.783,6.581-4.919,13.466-6.353,20.465c-1.468,7.182-2.213,14.563-2.213,21.942v331.632c0,7.376,0.745,14.757,2.213,21.939
	c1.434,6.999,3.57,13.885,6.353,20.471c2.735,6.459,6.114,12.684,10.047,18.507c3.888,5.756,8.362,11.179,13.297,16.114
	c4.919,4.919,10.339,9.393,16.111,13.294c5.828,3.938,12.056,7.317,18.51,10.047c6.578,2.783,13.466,4.922,20.468,6.353
	c7.172,1.468,14.555,2.213,21.942,2.213h331.632c7.384,0,14.765-0.745,21.939-2.21c7.005-1.434,13.893-3.573,20.468-6.355
	c6.459-2.73,12.687-6.112,18.51-10.047c5.772-3.899,11.192-8.372,16.116-13.297c4.935-4.938,9.408-10.36,13.291-16.108
	c3.936-5.825,7.318-12.053,10.047-18.51c2.783-6.578,4.922-13.466,6.355-20.471c1.466-7.174,2.21-14.555,2.21-21.939V709.43
	C1097.419,702.044,1096.674,694.663,1095.206,687.486z M1072.994,1041.063c0,5.743-0.578,11.478-1.717,17.047
	c-1.108,5.422-2.762,10.752-4.919,15.846c-2.118,5.006-4.736,9.833-7.792,14.354c-3.016,4.466-6.49,8.677-10.323,12.515
	c-3.822,3.822-8.036,7.296-12.523,10.326c-4.513,3.053-9.34,5.672-14.349,7.789c-5.091,2.157-10.421,3.811-15.843,4.919
	c-5.568,1.14-11.303,1.717-17.047,1.717H656.849c-5.746,0-11.481-0.578-17.047-1.717c-5.422-1.108-10.752-2.762-15.846-4.919
	c-5.004-2.115-9.833-4.736-14.349-7.789c-4.487-3.032-8.698-6.506-12.517-10.323c-3.832-3.838-7.309-8.049-10.328-12.52
	c-3.053-4.516-5.674-9.348-7.792-14.351c-2.155-5.094-3.808-10.426-4.916-15.846c-1.142-5.576-1.72-11.311-1.72-17.047V709.43
	c0-5.735,0.578-11.473,1.717-17.047c1.11-5.42,2.764-10.752,4.919-15.843c2.118-5.006,4.739-9.838,7.789-14.351
	c3.027-4.482,6.504-8.693,10.328-12.52c3.827-3.824,8.038-7.302,12.512-10.326c4.521-3.053,9.353-5.674,14.357-7.792
	c5.094-2.155,10.426-3.808,15.849-4.919c5.574-1.14,11.306-1.717,17.044-1.717h331.632c5.735,0,11.47,0.578,17.047,1.72
	c5.42,1.108,10.752,2.762,15.843,4.916c5.006,2.118,9.838,4.739,14.351,7.789c4.479,3.027,8.69,6.501,12.52,10.328
	c3.827,3.83,7.302,8.038,10.325,12.517c3.053,4.519,5.674,9.348,7.789,14.354c2.155,5.091,3.811,10.421,4.919,15.841
	c1.14,5.568,1.717,11.303,1.717,17.049V1041.063z M674.519,433.499c1.57-1.26,2.976-2.649,4.213-4.14
	c1.238-1.491,2.307-3.084,3.206-4.751c0.899-1.667,1.627-3.409,2.181-5.197c0.554-1.788,0.935-3.623,1.138-5.478
	c0.203-1.855,0.23-3.729,0.077-5.595c-0.154-1.866-0.487-3.724-1.003-5.546c-0.516-1.822-1.215-3.609-2.1-5.333
	c-0.885-1.724-1.956-3.384-3.215-4.955c-1.26-1.57-2.649-2.975-4.14-4.213c-1.491-1.238-3.084-2.307-4.751-3.206
	c-1.667-0.899-3.409-1.627-5.197-2.181c-1.788-0.554-3.624-0.934-5.478-1.138c-1.854-0.203-3.728-0.23-5.594-0.077
	c-1.866,0.153-3.724,0.487-5.546,1.003c-1.822,0.516-3.609,1.215-5.332,2.1c-1.724,0.885-3.385,1.956-4.955,3.216
	c-1.57,1.26-2.976,2.649-4.213,4.14c-1.238,1.491-2.307,3.084-3.206,4.751c-0.899,1.667-1.627,3.409-2.181,5.197
	c-0.554,1.788-0.934,3.623-1.138,5.478c-0.203,1.855-0.23,3.729-0.077,5.595c0.153,1.866,0.486,3.724,1.002,5.546
	c0.516,1.822,1.215,3.609,2.1,5.333c0.885,1.724,1.956,3.384,3.215,4.955c1.26,1.57,2.649,2.976,4.14,4.213s3.084,2.307,4.751,3.206
	c1.667,0.899,3.409,1.627,5.197,2.181c1.789,0.554,3.624,0.935,5.478,1.138c1.855,0.203,3.729,0.23,5.594,0.077
	c1.866-0.153,3.724-0.487,5.546-1.003c1.822-0.516,3.609-1.215,5.333-2.1C671.289,435.83,672.949,434.759,674.519,433.499z
	 M702.491,1017.269c-0.738-1.744-1.641-3.402-2.689-4.953c-1.048-1.551-2.242-2.997-3.561-4.316
	c-1.319-1.319-2.764-2.513-4.316-3.561c-1.551-1.048-3.209-1.951-4.953-2.689c-1.744-0.738-3.575-1.311-5.474-1.699
	s-3.864-0.592-5.877-0.592c-2.013,0-3.978,0.204-5.877,0.592s-3.729,0.961-5.474,1.699c-1.744,0.738-3.402,1.641-4.953,2.689
	c-1.551,1.048-2.996,2.242-4.315,3.561c-1.319,1.319-2.513,2.764-3.561,4.316c-1.048,1.551-1.951,3.209-2.688,4.953
	c-0.738,1.744-1.311,3.575-1.7,5.474c-0.388,1.898-0.592,3.864-0.592,5.877s0.204,3.979,0.592,5.877
	c0.389,1.898,0.961,3.729,1.7,5.474c0.737,1.744,1.641,3.402,2.688,4.953c1.048,1.551,2.242,2.996,3.561,4.316
	c1.319,1.319,2.764,2.513,4.315,3.561c1.552,1.048,3.209,1.951,4.953,2.689c1.745,0.738,3.576,1.311,5.474,1.699
	s3.864,0.592,5.877,0.592c2.013,0,3.979-0.204,5.877-0.592s3.73-0.961,5.474-1.699c1.745-0.738,3.402-1.641,4.953-2.689
	c1.552-1.048,2.997-2.241,4.316-3.561c1.319-1.319,2.512-2.764,3.561-4.316c1.048-1.551,1.951-3.209,2.689-4.953
	c0.737-1.744,1.311-3.576,1.699-5.474c0.389-1.898,0.592-3.864,0.592-5.877s-0.204-3.979-0.592-5.877
	C703.802,1020.845,703.229,1019.014,702.491,1017.269z"/>
</svg>
