<?xml version="1.0" encoding="utf-8"?>
<!-- Designed by Vexels.com - 2018 All Rights Reserved - https://vexels.com/terms-and-conditions/  -->
<svg version="1.1" id="Layer_1" xmlns="http://www.w3.org/2000/svg" xmlns:xlink="http://www.w3.org/1999/xlink" x="0px" y="0px"
	 viewBox="0 0 1200 1200" enable-background="new 0 0 1200 1200" xml:space="preserve">
<g>
	<g>
		<g>
			<g>
				<path fill="#232122" d="M1114.215,915.154H85.785C66.022,915.154,50,899.133,50,879.369V181.206
					c0-19.764,16.022-35.785,35.785-35.785h1028.429c19.764,0,35.785,16.022,35.785,35.785v698.163
					C1150,899.133,1133.978,915.154,1114.215,915.154z"/>
			</g>
			<g>
				<path fill="#FFFFFF" d="M81.453,840.873V193.357c0-9.104,7.38-16.484,16.484-16.484h1004.127c9.104,0,16.484,7.38,16.484,16.484
					v647.516c0,9.104-7.38,16.484-16.484,16.484H97.937C88.833,857.357,81.453,849.977,81.453,840.873z"/>
			</g>
			<g opacity="0.49">
				<path fill="#727172" d="M81.453,840.873V193.357c0-9.104,7.38-16.484,16.484-16.484h1004.127c9.104,0,16.484,7.38,16.484,16.484
					v647.516c0,9.104-7.38,16.484-16.484,16.484H97.937C88.833,857.357,81.453,849.977,81.453,840.873z"/>
			</g>
			<g>
				<path fill="#FFFFFF" d="M97.937,847.921c-3.885,0-7.048-3.164-7.048-7.049V193.358c0-3.885,3.162-7.049,7.048-7.049h1004.127
					c3.885,0,7.048,3.164,7.048,7.049v647.514c0,3.885-3.162,7.049-7.048,7.049H97.937z"/>
			</g>
			<g>
				<g>
					<g>
						<g>
							<path fill="#97E16E" d="M288.887,402.317H172.015c-11.415,0-20.669-9.254-20.669-20.669V264.777
								c0-11.415,9.254-20.669,20.669-20.669h116.872c11.415,0,20.669,9.254,20.669,20.669v116.872
								C309.555,393.063,300.302,402.317,288.887,402.317z"/>
						</g>
						<g>
							<g>
								<path fill="#FFFFFF" d="M219.908,390.659l-50.689-93.774c-4.497-8.321-1.398-18.712,6.922-23.209
									c8.321-4.502,18.712-1.398,23.209,6.922l29.666,54.882l95.289-88.422c6.931-6.432,17.767-6.029,24.202,0.905
									c6.434,6.932,6.029,17.768-0.905,24.202L219.908,390.659z"/>
							</g>
						</g>
					</g>
					<g>
						<g>
							<path fill="#97E16E" d="M288.887,597.03H172.015c-11.415,0-20.669-9.254-20.669-20.669V459.49
								c0-11.415,9.254-20.669,20.669-20.669h116.872c11.415,0,20.669,9.254,20.669,20.669v116.872
								C309.555,587.776,300.302,597.03,288.887,597.03z"/>
						</g>
						<g>
							<g>
								<path fill="#FFFFFF" d="M219.908,585.372l-50.689-93.774c-4.497-8.321-1.398-18.712,6.922-23.209
									c8.321-4.502,18.712-1.398,23.209,6.922l29.666,54.882l95.289-88.422c6.931-6.432,17.767-6.029,24.202,0.905
									c6.434,6.932,6.029,17.768-0.905,24.202L219.908,585.372z"/>
							</g>
						</g>
					</g>
					<g>
						<g>
							<path fill="#AFAFAF" d="M288.887,791.742H172.015c-11.415,0-20.669-9.254-20.669-20.669V654.202
								c0-11.415,9.254-20.669,20.669-20.669h116.872c11.415,0,20.669,9.254,20.669,20.669v116.872
								C309.555,782.489,300.302,791.742,288.887,791.742z"/>
						</g>
					</g>
				</g>
				<g>
					<g>
						<g>
							<path fill="#AFAFAF" d="M632.474,289.24H416.423c-5.691,0-10.304-4.613-10.304-10.304v0c0-5.691,4.613-10.304,10.304-10.304
								h216.051c5.691,0,10.304,4.613,10.304,10.304v0C642.778,284.626,638.165,289.24,632.474,289.24z"/>
						</g>
						<g>
							<path fill="#AFAFAF" d="M1038.349,337.254H416.423c-5.691,0-10.304-4.613-10.304-10.304v0
								c0-5.691,4.613-10.304,10.304-10.304h621.926c5.691,0,10.304,4.613,10.304,10.304v0
								C1048.653,332.64,1044.04,337.254,1038.349,337.254z"/>
						</g>
						<g>
							<path fill="#AFAFAF" d="M1038.349,377.794H416.423c-5.691,0-10.304-4.613-10.304-10.304v0
								c0-5.691,4.613-10.304,10.304-10.304h621.926c5.691,0,10.304,4.613,10.304,10.304v0
								C1048.653,373.181,1044.04,377.794,1038.349,377.794z"/>
						</g>
					</g>
					<g>
						<g>
							<path fill="#AFAFAF" d="M632.474,477.313H416.423c-5.691,0-10.304-4.613-10.304-10.304l0,0
								c0-5.691,4.613-10.304,10.304-10.304h216.051c5.691,0,10.304,4.613,10.304,10.304l0,0
								C642.778,472.7,638.165,477.313,632.474,477.313z"/>
						</g>
						<g>
							<path fill="#AFAFAF" d="M1038.349,525.327H416.423c-5.691,0-10.304-4.613-10.304-10.304v0
								c0-5.691,4.613-10.304,10.304-10.304h621.926c5.691,0,10.304,4.613,10.304,10.304v0
								C1048.653,520.713,1044.04,525.327,1038.349,525.327z"/>
						</g>
						<g>
							<path fill="#AFAFAF" d="M1038.349,565.867H416.423c-5.691,0-10.304-4.613-10.304-10.304v0
								c0-5.691,4.613-10.304,10.304-10.304h621.926c5.691,0,10.304,4.613,10.304,10.304v0
								C1048.653,561.254,1044.04,565.867,1038.349,565.867z"/>
						</g>
					</g>
					<g>
						<g>
							<path fill="#AFAFAF" d="M632.474,665.386H416.423c-5.691,0-10.304-4.613-10.304-10.304l0,0
								c0-5.691,4.613-10.304,10.304-10.304h216.051c5.691,0,10.304,4.613,10.304,10.304l0,0
								C642.778,660.773,638.165,665.386,632.474,665.386z"/>
						</g>
						<g>
							<path fill="#AFAFAF" d="M1038.349,713.4H416.423c-5.691,0-10.304-4.613-10.304-10.304l0,0
								c0-5.691,4.613-10.304,10.304-10.304h621.926c5.691,0,10.304,4.613,10.304,10.304l0,0
								C1048.653,708.787,1044.04,713.4,1038.349,713.4z"/>
						</g>
						<g>
							<path fill="#AFAFAF" d="M1038.349,753.941H416.423c-5.691,0-10.304-4.613-10.304-10.304l0,0
								c0-5.691,4.613-10.304,10.304-10.304h621.926c5.691,0,10.304,4.613,10.304,10.304l0,0
								C1048.653,749.327,1044.04,753.941,1038.349,753.941z"/>
						</g>
					</g>
				</g>
			</g>
			<g>
				<rect x="475.252" y="915.154" fill="#727172" width="249.497" height="83.201"/>
			</g>
			<g opacity="0.2">
				<path fill="#727172" d="M724.748,915.154H548.806c37.265,20.285,69.573,48.798,93.746,83.201h82.196V915.154z"/>
			</g>
			<g>
				<path fill="#AFAFAF" d="M777.115,1054.579H422.885c-14.623,0-21.463-12.34-10.495-18.934l62.862-37.791h249.497l62.862,37.791
					C798.579,1042.239,791.738,1054.579,777.115,1054.579z"/>
			</g>
			<g opacity="0.2">
				<path fill="#727172" d="M787.611,1035.645l-62.862-37.791h-83.61c4.929,18.193,8.115,37.259,10.498,56.725h125.48
					C791.739,1054.579,798.579,1042.239,787.611,1035.645z"/>
			</g>
		</g>
		<g>
			<circle fill="#727172" cx="600" cy="160.831" r="7.621"/>
		</g>
	</g>
	<g opacity="0.5">
		<path fill="#FFFFFF" d="M1092.454,176.874H507.328c239.815,157.25,423.73,400.178,484.113,680.483h101.013
			c9.104,0,16.484-7.38,16.484-16.484V193.357C1108.937,184.254,1101.557,176.874,1092.454,176.874z"/>
	</g>
	<g opacity="0.5">
		<path fill="#FFFFFF" d="M1114.215,145.421H466.265c17.144,10.064,34.043,20.549,50.672,31.453h585.126
			c9.104,0,16.484,7.38,16.484,16.483v647.516c0,9.104-7.38,16.484-16.484,16.484H1001.05c4.114,19.097,7.642,38.369,10.588,57.797
			h102.577c19.764,0,35.785-16.021,35.785-35.785V181.206C1150,161.442,1133.979,145.421,1114.215,145.421z"/>
	</g>
</g>
</svg>
