<?xml version="1.0" encoding="utf-8"?>
<!-- Designed by Vexels.com - 2020 All Rights Reserved - https://vexels.com/terms-and-conditions/  -->
<svg version="1.1" id="Layer_1" xmlns="http://www.w3.org/2000/svg" xmlns:xlink="http://www.w3.org/1999/xlink" x="0px" y="0px"
	 viewBox="0 0 1200 1200" enable-background="new 0 0 1200 1200" xml:space="preserve">
<g>
	<g>
		<path fill="#7D7875" d="M879.962,815.16c-8.775,7.871-17.402,15.914-26.354,23.578c-20.331,17.406-40.816,34.634-61.25,51.919
			c-18.427,15.587-36.877,31.146-55.303,46.734c-9.378,7.935-18.692,15.946-28.11,23.832c-1.993,1.669-4.217,3.144-6.541,4.288
			c-0.752,0.37-2.165-0.604-3.283-0.969c-16.321-0.175-32.635-0.32-48.947-0.533c-3.96-0.052-7.925-0.221-11.872-0.528
			c-6.115-0.476-12.214-1.586-18.324-1.614c-55.565-0.255-111.131-0.324-166.696-0.482c-4.403-0.013-8.816-0.137-13.206-0.454
			c-6.554-0.474-13.089-1.653-19.637-1.688c-48.95-0.258-97.901-0.293-146.851-0.44c-5.242-0.016-10.648,0.783-15.442-2.327
			c-0.115-2.705-0.23-5.41-0.345-8.115c5.285-0.086,10.57-0.249,15.855-0.247c100.033,0.038,200.066,0.114,300.1,0.142
			c39.66,0.011,79.32-0.074,118.98-0.114c3.228,0.026,6.192-0.493,7.341-4.105c0.795-2.498,1.555-5.017,2.124-7.573
			c3.044-13.67,6.052-27.348,9.019-41.036c5.562-25.658,11.087-51.325,16.627-76.988c1.297-3.179,3.05-6.253,3.814-9.555
			c3.852-16.644,7.517-33.333,11.086-50.04c1.001-4.686,1.454-9.488,2.159-14.237c1.132-4.073,2.406-8.113,3.355-12.229
			c0.85-3.69,1.342-7.462,1.993-11.198c2.501-10.272,5.174-20.507,7.472-30.824c7.66-34.395,15.147-68.83,22.773-103.233
			c7.817-35.263,15.742-70.501,23.564-105.762c1.527-6.882,2.951-13.794,4.138-20.741c0.888-5.198,3.506-8.851,8.11-11.344
			c5.039-2.73,10.078-5.493,14.915-8.56c46.925-29.751,93.884-59.449,140.682-89.399c53.484-34.229,106.804-68.714,160.238-103.023
			c2.9-1.862,6.184-3.124,9.292-4.664c1.142,4.86,0.636,9.545-0.967,14.276c-1.547,4.568-2.695,9.278-3.886,13.96
			c-5.736,22.553-11.482,45.104-17.124,67.681c-18.097,72.414-36.191,144.829-54.202,217.263
			c-9.746,39.192-19.44,78.399-28.818,117.68c-1.097,4.595-2.847,8.176-6.22,11.206c-2.294,2.062-4.433,4.304-6.808,6.265
			c-14.565,12.024-29.156,24.015-43.781,35.965c-7.139,5.833-14.422,11.492-21.549,17.339
			c-11.547,9.471-23.017,19.036-34.525,28.556c-8.794,7.276-17.763,14.354-26.339,21.879
			C890.684,801.432,883.027,806.301,879.962,815.16z M954.021,561.7c0.867-0.88,1.735-1.76,2.603-2.64
			c0.363-0.11,0.772-0.152,1.071-0.356c0.174-0.119,0.171-0.498,0.247-0.76c-0.388,0.425-0.776,0.849-1.163,1.274
			c-0.879,0.865-1.759,1.73-2.638,2.596c-0.892,0.896-1.784,1.792-2.676,2.688c-0.884,0.882-1.767,1.764-2.651,2.646
			c-0.178,0.365-0.356,0.729-0.533,1.094c0.136-0.41,0.271-0.819,0.407-1.229c0.884-0.881,1.768-1.762,2.651-2.643
			C952.233,563.48,953.127,562.59,954.021,561.7z M956.503,640.927c-0.89,0.874-1.779,1.749-2.669,2.623
			c-3.669,0.317-6.3,2.086-7.732,5.53c0.043,0.938,0.087,1.877,0.13,2.815c-3.371,0.127-4.968,2.058-5.331,5.244
			c-0.373,0.164-0.808,0.26-1.095,0.519c-0.16,0.144-0.073,0.56-0.097,0.854c0.347-0.505,0.694-1.01,1.041-1.516
			c3.696,0.189,5.021-2.007,5.29-5.264c1.328-0.885,2.656-1.771,3.984-2.656c3.028-0.301,4.021-2.358,4.32-5.012
			c0.873-0.891,1.746-1.781,2.616-2.674c0.31-0.463,0.62-0.926,0.931-1.389C957.428,640.309,956.965,640.618,956.503,640.927z
			 M964.876,551.467c0.321-0.495,0.642-0.99,0.963-1.485c-0.492,0.325-0.984,0.651-1.473,0.978c-0.307,0.475-0.614,0.95-0.92,1.425
			C963.923,552.079,964.4,551.773,964.876,551.467z M972.784,543.479c0.885-0.88,1.77-1.76,2.656-2.641
			c0.903-1.781,1.805-3.562,2.704-5.345c0.311-0.452,0.622-0.905,0.934-1.358c-0.454,0.311-0.908,0.623-1.362,0.934
			c-0.914,1.77-1.828,3.539-2.738,5.311c-0.879,0.887-1.758,1.774-2.633,2.663c-0.312,0.457-0.624,0.915-0.936,1.372
			C971.867,544.104,972.326,543.791,972.784,543.479z M871.955,590.846c-0.876,0.891-1.752,1.782-2.627,2.674
			c-0.871,0.894-1.743,1.788-2.615,2.681c-0.876,0.894-1.751,1.788-2.627,2.683c-0.878,0.89-1.755,1.78-2.633,2.67
			c-0.882,0.884-1.765,1.768-2.647,2.652c-0.195,0.302-0.389,0.604-0.584,0.905c0.155-0.342,0.31-0.685,0.465-1.027
			c0.883-0.883,1.766-1.766,2.649-2.649c0.889-0.878,1.779-1.755,2.669-2.633c0.894-0.874,1.788-1.748,2.682-2.621
			c0.898-0.869,1.796-1.738,2.692-2.607c0.896-0.871,1.791-1.742,2.685-2.615c0.37-0.12,0.8-0.164,1.088-0.388
			c0.184-0.143,0.159-0.554,0.228-0.845C872.905,590.098,872.43,590.472,871.955,590.846z M882.626,598.894
			c-0.875,0.88-1.75,1.76-2.627,2.639c-0.886,0.89-1.773,1.78-2.659,2.671c-0.319,0.132-0.682,0.208-0.941,0.415
			c-0.149,0.119-0.131,0.448-0.187,0.683c0.336-0.407,0.672-0.814,1.008-1.221c0.889-0.887,1.777-1.774,2.666-2.661
			c0.88-0.876,1.76-1.752,2.64-2.627c0.887-0.886,1.775-1.771,2.662-2.657c0.866-0.056,1.746-0.04,2.593-0.201
			c0.383-0.073,0.698-0.498,1.044-0.763c-0.648-0.319-1.5-1.058-1.899-0.864c-0.695,0.337-1.111,1.25-1.645,1.921
			C884.396,597.117,883.511,598.006,882.626,598.894z M882.598,728.581c-0.873,0.066-1.761,0.057-2.612,0.231
			c-0.382,0.078-0.689,0.519-1.031,0.795c0.662,0.323,1.514,1.067,1.941,0.873c0.704-0.319,1.132-1.246,1.676-1.916
			c0.308-0.144,0.662-0.235,0.905-0.452c0.146-0.131,0.117-0.457,0.166-0.695C883.295,727.805,882.947,728.193,882.598,728.581z
			 M956.755,432.119c-4.852,1.143-7.905,4.035-10.061,10.411c6.199-2.493,8.742-5.873,9.957-10.515
			c0.199-0.28,0.399-0.561,0.599-0.841C957.085,431.489,956.92,431.804,956.755,432.119z M927.67,590.992
			c-5.769,5.948-11.559,11.878-17.243,17.906c-0.271,0.287,0.389,1.451,0.988,3.447c6.011-5.09,11.313-10.103,15.256-16.399
			c0.847-1.353,0.579-3.404,0.826-5.134c6.902-0.669,9.357-6.981,13.681-10.895c1.167-1.056,1.946-2.807-1.13-4.278
			C935.855,580.515,929.451,583.724,927.67,590.992z M871.806,736.289c-0.848,0.21-1.964,0.145-2.503,0.671
			c-11.25,10.964-22.476,21.953-33.536,33.107c-0.73,0.736-0.095,2.825-0.095,6.586c12.718-12.76,23.851-23.842,34.827-35.077
			c1.093-1.119,1.228-3.174,1.799-4.803c0.354-0.496,0.708-0.993,1.061-1.49C872.84,735.619,872.323,735.954,871.806,736.289z
			 M895.862,588.295c3.906-0.173,6.186-3.01,8.832-5.31c14.592-12.691,28.773-25.911,43.983-37.814
			c10.575-8.275,19.166-18.029,27.188-28.516c1.128-1.475,1.4-3.141-1.566-4.569c-1.336,1.072-3.074,2.282-4.598,3.717
			c-16.015,15.086-31.989,30.214-47.993,45.311c-1.92,1.811-3.958,3.496-5.926,5.255c-5.567,4.978-11.29,9.8-16.596,15.042
			c-1.709,1.688-2.314,4.493-3.422,6.789c-0.36,0.12-0.777,0.167-1.059,0.387c-0.179,0.139-0.156,0.536-0.225,0.817
			C894.94,589.034,895.401,588.665,895.862,588.295z M946.17,696.852c-4.64-0.279-6.907,3.341-9.756,5.971
			c-10.648,9.831-21.337,19.619-31.893,29.549c-17.607,16.561-35.311,33.026-52.581,49.933c-6.552,6.415-12.066,13.899-17.902,21.02
			c-0.572,0.698-0.077,2.27-0.077,4.863c2.931-2.05,5.167-3.184,6.858-4.865c12.774-12.705,25.778-25.129,39.061-37.33
			c21.371-19.63,41.337-40.795,61.743-61.463c2.028-2.053,2.995-5.154,4.455-7.768c0.325-0.145,0.702-0.233,0.958-0.458
			c0.15-0.131,0.109-0.48,0.153-0.731C946.85,696,946.51,696.426,946.17,696.852z M1053.157,417.408
			c-6.064,4.972-12.218,9.694-18.004,14.833c-10.196,9.057-20.242,18.288-30.215,27.591c-15.773,14.714-31.633,29.343-47.093,44.382
			c-21.486,20.901-42.644,42.14-63.921,63.255c-2.5,2.481-4.967,5.009-7.255,7.681c-1.237,1.444-1.36,3.105,1.507,4.544
			c2.364-1.986,5.11-4.054,7.578-6.412c7.65-7.308,15.039-14.894,22.811-22.068c17.777-16.406,35.815-32.531,53.558-48.974
			c8.403-7.787,16.266-16.153,24.568-24.053c7.006-6.666,14.476-12.85,21.415-19.582c11.387-11.049,22.547-22.334,33.712-33.61
			C1053.62,423.176,1055.451,421.013,1053.157,417.408z M908.19,613.685c-2.853,2.083-4.443,2.864-5.524,4.092
			c-9.282,10.543-18.607,21.054-27.66,31.793c-16.121,19.121-32.108,38.356-48.054,57.623c-7.267,8.781-14.405,17.674-21.381,26.688
			c-1.995,2.579-4.178,5.447-3.529,11.084c37.094-41.999,70.003-85.262,105.528-126.317
			C908.014,618.135,907.802,617.054,908.19,613.685z M886.072,722.399c2.192-1.651,3.766-2.465,4.847-3.708
			c14.363-16.509,28.675-33.063,42.897-49.694c0.55-0.643,0.07-2.167,0.07-3.664c-10.867,7.227-39.554,38.812-47.747,52.519
			C885.616,718.729,886.072,720.19,886.072,722.399z M927.307,467.78c7.315-4.949,11.572-12.596,17.256-18.95
			c0.312-0.349-0.244-1.474-0.402-2.236C936.035,451.271,932.709,455.131,927.307,467.78z M953.348,689.314
			c-0.102-0.388-0.205-0.777-0.307-1.165c-0.327,0.104-0.909,0.17-0.931,0.319c-0.054,0.365,0.151,0.767,0.251,1.155
			C952.69,689.519,953.019,689.416,953.348,689.314z"/>
		<path fill="#C8C6C4" d="M501.319,654.775c1.546-1.86,3.463-2.33,5.864-2.035c6.087,0.748,12.198,1.766,18.305,1.81
			c23.799,0.172,47.602,0.02,71.403-0.035c52.892-0.123,105.784-0.26,158.675-0.389c-3.148,15.074-6.296,30.145-9.45,45.216
			c-1.61,1.375-3.481,2.536-4.779,4.156c-14.829,18.509-29.55,37.104-44.341,55.645c-13.961,17.502-27.937,34.992-41.967,52.439
			c-11.56,14.373-23.165,28.711-34.832,42.997c-13.334,16.328-26.781,32.564-40.112,48.893c-1.372,1.681-2.455,3.651-3.393,5.62
			c-1.332,2.797,0.641,6.367,3.814,7.1c1.274,0.294,2.602,0.51,3.904,0.507c15.405-0.032,30.81-0.144,46.215-0.155
			c3.284-0.003,5.986-1.005,8.199-3.458c2.063-2.286,4.471-4.298,6.305-6.748c8.936-11.941,17.675-24.029,26.585-35.989
			c13.125-17.617,26.316-35.184,39.533-52.732c1.828-2.427,3.691-5.099,7.461-4.284c-0.657,4.266-0.898,8.647-2.041,12.778
			c-5.137,18.562-10.82,36.976-15.752,55.591c-5.151,19.442-9.668,39.051-14.463,58.587c-4.768,3.452-10.257,1.942-15.4,1.945
			c-106.761,0.066-213.522-0.016-320.282-0.027c-89.114-0.009-178.227,0.035-267.341,0.056c-0.036-2.393,1.024-3.993,3.074-5.345
			c9.174-6.049,18.222-12.289,27.36-18.394c29.246-19.539,58.551-38.991,87.759-58.586c25.557-17.145,50.985-34.483,76.527-51.653
			c20.431-13.734,40.941-27.35,61.426-41.003c20.852-13.898,41.71-27.787,62.576-41.663c23.087-15.352,46.229-30.622,69.26-46.057
			c8.405-5.632,16.532-11.679,24.848-17.445C498.923,660.27,500.911,658.106,501.319,654.775z M326.645,871.598
			c-2.945,0.015-6.154-0.786-8.005,2.6c-5.931-0.788-11.093,1.987-16.425,3.735c-9.107,2.985-18.162,6.157-27.119,9.566
			c-13.441,5.118-26.856,10.325-40.116,15.89c-4.266,1.79-9.273,3.007-11.577,7.893c-0.349,0.143-0.749,0.225-1.026,0.455
			c-0.155,0.128-0.105,0.503-0.147,0.767c0.357-0.44,0.714-0.88,1.071-1.321c2.139-0.225,4.445-0.007,6.392-0.742
			c28.11-10.617,56.186-21.323,84.21-32.164c1.834-0.709,3.175-2.692,4.745-4.082c2.985,0.123,6.066,0.521,7.876-2.738
			c0.807-0.078,1.623-0.109,2.416-0.257c0.378-0.071,0.714-0.368,1.069-0.563c-0.618-0.29-1.398-0.959-1.816-0.781
			C327.547,870.131,327.149,870.987,326.645,871.598z M334.04,889.469c-0.871,0.071-1.808-0.041-2.605,0.24
			c-16.028,5.662-32.044,11.359-48.026,17.151c-0.3,0.109-0.147,1.466-0.269,3.085c2.611-0.254,5.223-0.055,7.519-0.812
			c9.114-3.006,18.209-6.105,27.153-9.575c6.036-2.341,12.618-3.783,17.317-8.816c0.846-0.239,1.795-0.32,2.502-0.776
			c0.46-0.296,0.6-1.129,0.783-1.75c0.017-0.059-0.789-0.569-1.038-0.462C336.231,888.248,335.147,888.885,334.04,889.469z
			 M424.523,910.073c12.39,1.523,24.777,1.683,37.161-0.062c15.84,0,31.68-0.001,47.519-0.001c9.79,0.202,19.579,0.404,29.368,0.606
			c3.836,0.591,6.86-0.24,7.915-4.519c3.27-2.866,6.894-5.421,9.751-8.653c13.093-14.815,25.964-29.828,38.931-44.756
			c16.134-18.573,32.266-37.147,48.435-55.689c8.671-9.943,17.489-19.757,26.115-29.738c14.073-16.284,28.029-32.668,42.061-48.986
			c6.877-7.996,13.883-15.883,20.695-23.934c2.833-3.347,5.449-6.9,7.916-10.528c2.304-3.389,0.407-7.12-3.769-7.681
			c-1.734-0.233-3.507-0.222-5.264-0.231c-8.803-0.042-17.61-0.237-26.408-0.04c-27.688,0.62-55.372,1.391-83.058,2.105
			c-1.32,0.034-2.639,0.09-3.959,0.136c-1.509-0.527-3.615-1.962-4.426-1.428c-4.016,2.642-7.982,5.5-11.434,8.832
			c-18.055,17.43-35.692,35.3-53.959,52.502c-25.623,24.129-51.723,47.749-77.522,71.691
			c-19.358,17.965-38.552,36.108-57.844,54.145c-7.066,6.606-14.277,13.06-21.29,19.722c-5.743,5.455-11.402,11.009-16.884,16.725
			c-3.343,3.486-4.212,7.539-1.617,11.253c7.007-0.372,13.435-0.862,19.871-1.022C403.391,910.259,413.958,910.211,424.523,910.073z
			 M421.75,744.48c-4.965-0.402-9.297,0.521-13.528,3.746c-11.858,9.036-24.268,17.348-36.125,26.385
			c-19.891,15.159-40.166,29.779-60.423,44.435c-8.855,6.407-17.109,13.658-25.451,20.745c-1.081,0.919-1.724,3.346-1.33,4.719
			c0.366,1.277,2.399,2.96,3.677,2.943c6.551-0.09,13.094-0.699,19.643-1.072c5.227-0.299,10.797-1.795,15.617-0.513
			c10.515,2.797,21.022,1.363,31.518,1.644c2.438,0.065,4.92-1.531,7.382-2.362c2.091-0.514,4.512-0.524,6.212-1.635
			c5.148-3.365,10.252-6.877,14.955-10.829c23.626-19.853,47.651-39.135,73.983-55.39c10.492-6.477,20.652-13.498,30.897-20.369
			c2.913-1.953,5.785-4.053,8.29-6.484c0.998-0.968,0.949-3.014,1.529-5.124c-8.538-1.433-16.289-2.012-24.238-1.805
			c-14.516,0.377-29.05,0.04-43.576,0.119C427.77,743.649,424.761,744.184,421.75,744.48z M343.178,886.031l0.655,0.387l0.075-0.604
			L343.178,886.031z"/>
		<path fill="#89807C" d="M501.319,654.775c-0.408,3.33-2.396,5.495-5.06,7.342c-8.317,5.766-16.443,11.813-24.848,17.445
			c-23.032,15.435-46.173,30.705-69.26,46.057c-20.867,13.876-41.724,27.765-62.576,41.663
			c-20.485,13.653-40.995,27.269-61.426,41.003c-25.542,17.169-50.97,34.507-76.527,51.653
			c-29.209,19.596-58.513,39.047-87.759,58.586c-9.138,6.105-18.186,12.345-27.36,18.394c-2.05,1.352-3.11,2.952-3.074,5.346
			c0.007,1.104-0.035,3.169,0.031,3.173c5.274,0.276,10.556,0.431,15.839,0.512c52.834,0.812,105.668,1.61,158.502,2.412
			c0.115,2.705,0.23,5.41,0.343,8.112c-2.899,0.703-5.792,1.999-8.694,2.018c-21.493,0.145-42.989,0.058-64.483-0.019
			c-2.616-0.009-5.233-0.369-7.846-0.612c-5.211-0.483-10.416-1.408-15.627-1.433c-36.41-0.173-72.82-0.163-109.231-0.211
			c-2.595-1.949-3.008-4.586-0.976-6.804c2.341-2.556,5.17-4.764,8.075-6.688c35.253-23.345,70.595-46.555,105.842-69.909
			c35.977-23.837,71.886-47.777,107.803-71.704c25.285-16.845,50.506-33.788,75.812-50.603
			c14.305-9.505,28.768-18.774,43.081-28.267c24.588-16.307,49.067-32.778,73.694-49.027c8.453-5.577,17.176-10.75,25.845-15.993
			C494.425,655.418,497.485,653.394,501.319,654.775z"/>
		<path fill="#EFE6E3" d="M746.121,699.343c3.148-15.071,6.296-30.142,9.444-45.216c0.824-2.03,1.927-3.991,2.427-6.095
			c6.971-29.381,14.14-58.719,20.667-88.2c4.163-18.805,8.923-37.464,13.185-56.22c3.778-16.625,7.301-33.326,11.147-49.952
			c0.97-4.193,2.667-7.422,6.076-9.71c24.042-16.14,48.1-32.254,72.203-48.302c17.537-11.677,35.106-23.308,52.739-34.84
			c35.994-23.541,72.019-47.035,108.077-70.478c16.558-10.765,33.248-21.326,49.833-32.049
			c13.266-8.577,26.456-17.271,39.702-25.879c1.469-0.955,3.048-1.761,4.635-2.51c5.925-2.797,7.887-1.682,11.084,6.207
			c-1.013,1.555-2.025,3.11-3.038,4.666c-0.907,0.981-1.815,1.962-2.723,2.943l-0.146-0.079c-3.105,1.541-6.39,2.803-9.29,4.665
			c-53.433,34.308-106.754,68.794-160.238,103.023c-46.798,29.95-93.757,59.648-140.682,89.399c-4.837,3.067-9.875,5.83-14.915,8.56
			c-4.603,2.493-7.221,6.146-8.11,11.344c-1.187,6.947-2.611,13.859-4.138,20.741c-7.822,35.261-15.747,70.5-23.564,105.762
			c-7.626,34.403-15.113,68.837-22.773,103.233c-2.298,10.318-4.971,20.552-7.472,30.824c-1.866,0.683-3.732,1.367-5.599,2.05
			c-0.951,0.022-1.903,0.044-2.854,0.067C743.24,715.312,744.68,707.327,746.121,699.343z"/>
		<path fill="#774A3B" d="M52.262,956.218c36.41,0.048,72.821,0.037,109.231,0.211c5.211,0.025,10.417,0.95,15.627,1.433
			c2.613,0.242,5.229,0.602,7.846,0.612c21.495,0.077,42.99,0.164,64.483,0.019c2.902-0.02,5.795-1.316,8.694-2.018
			c4.795,3.113,10.202,2.314,15.444,2.33c48.95,0.147,97.902,0.183,146.851,0.44c6.548,0.035,13.083,1.214,19.637,1.688
			c4.39,0.317,8.803,0.442,13.206,0.454c55.565,0.158,111.131,0.227,166.696,0.482c6.11,0.028,12.209,1.138,18.324,1.614
			c3.948,0.308,7.913,0.477,11.872,0.528c16.313,0.213,32.626,0.357,48.947,0.533c0.217,4.537-2.775,6.267-6.493,6.712
			c-3.473,0.415-7.031,0.182-10.55,0.131c-52.412-0.766-104.822-1.742-157.236-2.251c-29.067-0.282-58.14,0.306-87.211,0.333
			c-62.111,0.058-124.182-1.286-186.259-3.697c-58.97-2.291-118.007-2.86-177.014-4.206c-6.164-0.14-12.33-0.319-18.485-0.672
			C53.146,960.735,52.464,958.555,52.262,956.218z"/>
		<path fill="#774A3B" d="M1144.301,240.766c1.013-1.555,2.026-3.11,3.038-4.666c3.635,1.219,2.662,4.096,2.134,6.545
			c-2.597,12.043-5.13,24.106-8.048,36.073c-29.191,119.687-58.448,239.357-87.706,359.028c-2.925,11.965-6.493,23.801-8.782,35.883
			c-1.423,7.513-5.097,12.806-10.769,17.388c-18.153,14.664-36.184,29.479-54.315,44.17c-32.488,26.323-65.012,52.603-97.542,78.875
			c-0.654,0.528-1.562,0.74-2.35,1.098c3.066-8.859,10.723-13.728,17.256-19.46c8.576-7.525,17.544-14.603,26.339-21.879
			c11.507-9.52,22.978-19.085,34.525-28.556c7.128-5.847,14.41-11.506,21.549-17.339c14.625-11.95,29.217-23.941,43.781-35.965
			c2.375-1.96,4.514-4.203,6.808-6.265c3.372-3.031,5.122-6.611,6.22-11.206c9.378-39.281,19.072-78.487,28.818-117.68
			c18.011-72.435,36.105-144.85,54.202-217.263c5.642-22.577,11.388-45.128,17.124-67.681c1.191-4.681,2.338-9.391,3.886-13.96
			c1.603-4.73,2.109-9.416,0.967-14.276l0.144,0.078C1142.489,242.73,1143.395,241.748,1144.301,240.766z"/>
		<path fill="#6E3D2C" d="M257.799,948.362c-52.834-0.802-105.668-1.6-158.502-2.412c-5.283-0.081-10.565-0.237-15.839-0.512
			c-0.066-0.004-0.023-2.069-0.031-3.173c89.114-0.022,178.228-0.066,267.342-0.057c106.761,0.011,213.521,0.092,320.282,0.027
			c5.143-0.003,10.632,1.507,15.4-1.945c1.751,0.918,3.502,1.836,5.252,2.754c0.344,1.7,0.687,3.4,1.031,5.1
			c-39.66,0.041-79.32,0.126-118.98,0.115c-100.033-0.028-200.066-0.103-300.1-0.142
			C268.37,948.113,263.084,948.276,257.799,948.362z"/>
		<path fill="#6E3D2C" d="M1053.157,417.408c2.294,3.605,0.463,5.768-1.338,7.588c-11.165,11.276-22.325,22.561-33.712,33.61
			c-6.939,6.733-14.409,12.916-21.415,19.582c-8.302,7.899-16.166,16.265-24.568,24.053c-17.743,16.443-35.781,32.568-53.558,48.974
			c-7.772,7.173-15.161,14.76-22.811,22.068c-2.468,2.358-5.214,4.425-7.578,6.412c-2.867-1.439-2.744-3.1-1.507-4.544
			c2.289-2.672,4.756-5.2,7.255-7.681c21.277-21.115,42.435-42.354,63.921-63.255c15.46-15.039,31.32-29.667,47.093-44.382
			c9.973-9.303,20.019-18.534,30.215-27.591C1040.939,427.102,1047.093,422.379,1053.157,417.408z"/>
		<path fill="#774A3B" d="M691.704,943.042c-1.751-0.918-3.501-1.836-5.252-2.754c4.794-19.536,9.312-39.145,14.463-58.587
			c4.932-18.614,10.615-37.029,15.752-55.591c1.143-4.131,1.384-8.512,2.041-12.777l-0.186,0.072
			c3.707-1.925,2.353-5.477,2.725-8.474c0.901-3.162,1.801-6.323,2.702-9.484c2.844-2.425,2.604-5.768,2.685-9.016
			c0,0,0.043-1.256,0.045-1.265c2.758-2.497,2.804-5.676,2.29-8.997c0.874-3.497,1.748-6.995,2.623-10.493l0.095-0.161
			c0.914-3.529,1.828-7.058,2.743-10.587l-0.147,0.271c3.457-10.657,6.915-21.313,10.372-31.97c1.867-0.683,3.733-1.367,5.599-2.05
			c-0.651,3.737-1.143,7.509-1.993,11.199c-0.949,4.115-2.223,8.156-3.355,12.228c-1.468,3.1-3.481,6.062-4.314,9.326
			c-5.51,21.567-10.768,43.199-16.108,64.809c-10.52,37.98-21.078,75.95-31.493,113.959
			C692.08,936.016,692.11,939.589,691.704,943.042z"/>
		<path fill="#6E3D2C" d="M946.077,696.762c-1.459,2.615-2.426,5.715-4.454,7.769c-20.406,20.668-40.372,41.833-61.743,61.463
			c-13.283,12.201-26.287,24.625-39.061,37.33c-1.691,1.682-3.927,2.815-6.858,4.865c0-2.593-0.495-4.165,0.077-4.863
			c5.836-7.121,11.349-14.606,17.902-21.02c17.271-16.907,34.974-33.372,52.581-49.933c10.556-9.929,21.245-19.718,31.893-29.549
			c2.849-2.63,5.117-6.251,9.756-5.971L946.077,696.762z"/>
		<path fill="#EFE6E3" d="M691.704,943.042c0.406-3.453,0.376-7.026,1.284-10.342c10.415-38.009,20.974-75.978,31.493-113.958
			c1.121-0.1,2.243-0.201,3.364-0.302c-5.54,25.663-11.065,51.33-16.627,76.988c-2.967,13.687-5.975,27.365-9.019,41.036
			c-0.569,2.556-1.329,5.076-2.124,7.573c-1.149,3.612-4.113,4.131-7.341,4.105C692.391,946.442,692.047,944.742,691.704,943.042z"
			/>
		<path fill="#C8C6C4" d="M908.19,613.685c-0.388,3.37-0.176,4.45-0.62,4.963c-35.525,41.055-68.434,84.318-105.528,126.317
			c-0.65-5.638,1.534-8.506,3.529-11.084c6.976-9.013,14.114-17.907,21.381-26.688c15.946-19.267,31.933-38.501,48.054-57.623
			c9.053-10.739,18.377-21.25,27.66-31.793C903.747,616.548,905.337,615.768,908.19,613.685z"/>
		<path fill="#6E3D2C" d="M895.762,588.199c1.11-2.294,1.715-5.099,3.424-6.787c5.306-5.242,11.029-10.065,16.596-15.042
			c1.968-1.76,4.006-3.445,5.926-5.255c16.004-15.097,31.979-30.225,47.993-45.311c1.524-1.436,3.262-2.645,4.598-3.717
			c2.966,1.428,2.694,3.094,1.566,4.569c-8.022,10.487-16.613,20.241-27.188,28.516c-15.211,11.903-29.392,25.123-43.983,37.814
			c-2.646,2.301-4.926,5.137-8.832,5.31L895.762,588.199z"/>
		<path fill="#C8C6C4" d="M886.072,722.399c0-2.209-0.456-3.67,0.068-4.547c8.193-13.707,36.88-45.292,47.747-52.519
			c0,1.497,0.48,3.021-0.07,3.664c-14.222,16.63-28.534,33.184-42.897,49.694C889.838,719.934,888.264,720.748,886.072,722.399z"/>
		<path fill="#C8C6C4" d="M727.845,818.441c-1.121,0.101-2.243,0.202-3.364,0.302c5.34-21.611,10.598-43.243,16.108-64.81
			c0.834-3.263,2.847-6.225,4.314-9.326c-0.705,4.75-1.158,9.553-2.159,14.238c-3.569,16.707-7.234,33.396-11.086,50.04
			C730.894,812.187,729.141,815.261,727.845,818.441z"/>
		<path fill="#774A3B" d="M872.306,736.782c-0.58,1.62-0.715,3.676-1.808,4.794c-10.976,11.235-22.109,22.317-34.827,35.077
			c0-3.762-0.635-5.851,0.095-6.586c11.06-11.154,22.287-22.143,33.536-33.107c0.54-0.526,1.656-0.461,2.503-0.671L872.306,736.782z
			"/>
		<path fill="#C8C6C4" d="M927.307,467.78c5.402-12.649,8.728-16.508,16.857-21.187c0.155,0.763,0.711,1.888,0.399,2.237
			C938.879,455.183,934.622,462.831,927.307,467.78z"/>
		<path fill="#C8C6C4" d="M927.496,590.811c-0.246,1.73,0.022,3.781-0.825,5.134c-3.944,6.297-9.246,11.309-15.256,16.399
			c-0.599-1.996-1.258-3.16-0.988-3.447c5.684-6.028,11.474-11.957,17.243-17.906L927.496,590.811z"/>
		<path fill="#C8C6C4" d="M927.67,590.992c1.78-7.268,8.185-10.476,12.378-15.353c3.076,1.471,2.297,3.222,1.13,4.278
			c-4.324,3.914-6.78,10.226-13.682,10.895L927.67,590.992z"/>
		<path fill="#C8C6C4" d="M956.651,432.016c-1.216,4.64-3.758,8.02-9.957,10.514c2.157-6.377,5.21-9.268,10.061-10.411
			L956.651,432.016z"/>
		<path fill="#89807C" d="M954.347,644.065c-0.303,2.652-1.296,4.71-4.333,5.009c-1.31,0.001-2.611,0.003-3.912,0.005
			c1.432-3.444,4.063-5.213,7.733-5.528L954.347,644.065z"/>
		<path fill="#C8C6C4" d="M940.902,657.139c0.362-3.186,1.958-5.117,5.329-5.244l-0.192-0.162c-0.269,3.256-1.593,5.452-5.29,5.263
			L940.902,657.139z"/>
		<path fill="#774A3B" d="M882.573,728.564c-0.544,0.671-0.972,1.597-1.676,1.916c-0.427,0.194-1.28-0.55-1.941-0.873
			c0.341-0.276,0.649-0.717,1.031-0.795c0.851-0.173,1.739-0.165,2.612-0.231L882.573,728.564z"/>
		<path fill="#89807C" d="M978.148,535.495c-0.903,1.781-1.805,3.562-2.709,5.341l-0.466-0.457c0.914-1.77,1.828-3.539,2.742-5.309
			L978.148,535.495z"/>
		<path fill="#6E3D2C" d="M953.348,689.314c-0.329,0.103-0.658,0.205-0.987,0.308c-0.101-0.388-0.305-0.79-0.251-1.155
			c0.022-0.149,0.604-0.215,0.931-0.319C953.143,688.537,953.245,688.925,953.348,689.314z"/>
		<path fill="#6E3D2C" d="M885.282,596.23c0.533-0.672,0.949-1.584,1.644-1.922c0.399-0.194,1.251,0.545,1.899,0.864
			c-0.346,0.265-0.662,0.69-1.044,0.763c-0.846,0.161-1.726,0.145-2.593,0.202L885.282,596.23z"/>
		<path fill="#6E3D2C" d="M946.17,696.852c0.34-0.426,0.68-0.852,1.019-1.279c-0.045,0.251-0.004,0.6-0.153,0.731
			c-0.256,0.225-0.632,0.313-0.958,0.458L946.17,696.852z"/>
		<path fill="#6E3D2C" d="M877.219,604.081c-0.336,0.407-0.672,0.815-1.008,1.222c0.057-0.235,0.038-0.564,0.187-0.683
			c0.259-0.207,0.622-0.284,0.941-0.415L877.219,604.081z"/>
		<path fill="#6E3D2C" d="M858.686,604.083c-0.155,0.342-0.31,0.685-0.465,1.027c0.195-0.302,0.39-0.604,0.584-0.906
			L858.686,604.083z"/>
		<path fill="#6E3D2C" d="M861.335,601.433c-0.883,0.883-1.766,1.767-2.649,2.65l0.12,0.122c0.882-0.884,1.765-1.768,2.647-2.651
			L861.335,601.433z"/>
		<path fill="#774A3B" d="M882.598,728.581c0.349-0.388,0.697-0.776,1.046-1.164c-0.049,0.238-0.02,0.564-0.166,0.695
			c-0.243,0.217-0.597,0.308-0.905,0.452L882.598,728.581z"/>
		<path fill="#774A3B" d="M871.806,736.289c0.517-0.335,1.035-0.67,1.553-1.005c-0.354,0.497-0.708,0.993-1.057,1.494
			C872.306,736.782,871.806,736.289,871.806,736.289z"/>
		<path fill="#6E3D2C" d="M880,601.534c0.875-0.88,1.751-1.759,2.626-2.639l-0.101-0.102c-0.88,0.876-1.759,1.752-2.639,2.628
			L880,601.534z"/>
		<path fill="#6E3D2C" d="M861.453,601.553c0.878-0.89,1.756-1.78,2.633-2.67l-0.082-0.083c-0.889,0.878-1.779,1.755-2.669,2.633
			L861.453,601.553z"/>
		<path fill="#6E3D2C" d="M882.626,598.894c0.885-0.888,1.77-1.777,2.656-2.665l-0.093-0.093c-0.888,0.885-1.775,1.771-2.663,2.656
			L882.626,598.894z"/>
		<path fill="#C8C6C4" d="M946.102,649.08c1.301-0.002,2.602-0.004,3.912-0.005c-1.319,0.886-2.647,1.772-3.974,2.657l0.192,0.163
			C946.189,650.957,946.145,650.018,946.102,649.08z"/>
		<path fill="#6E3D2C" d="M877.34,604.204c0.886-0.89,1.773-1.78,2.659-2.67l-0.114-0.112c-0.889,0.886-1.778,1.773-2.667,2.66
			L877.34,604.204z"/>
		<path fill="#6E3D2C" d="M866.713,596.201c0.872-0.894,1.743-1.788,2.615-2.681l0.053,0.054c-0.898,0.869-1.796,1.737-2.693,2.606
			L866.713,596.201z"/>
		<path fill="#6E3D2C" d="M872.066,590.96c-0.896,0.871-1.791,1.742-2.687,2.613l-0.052-0.054c0.875-0.891,1.751-1.783,2.627-2.674
			L872.066,590.96z"/>
		<path fill="#C8C6C4" d="M956.755,432.119c0.165-0.315,0.33-0.629,0.494-0.944c-0.2,0.28-0.399,0.56-0.599,0.841L956.755,432.119z"
			/>
		<path fill="#6E3D2C" d="M864.086,598.883c0.875-0.894,1.751-1.789,2.627-2.683l-0.026-0.021c-0.894,0.874-1.788,1.748-2.682,2.621
			L864.086,598.883z"/>
		<path fill="#89807C" d="M972.34,543.042c0.879-0.887,1.758-1.774,2.635-2.662l0.463,0.456c-0.885,0.882-1.77,1.762-2.655,2.643
			L972.34,543.042z"/>
		<path fill="#89807C" d="M972.784,543.479c-0.458,0.312-0.917,0.625-1.375,0.937c0.312-0.457,0.623-0.915,0.933-1.373
			L972.784,543.479z"/>
		<path fill="#6E3D2C" d="M895.862,588.295c-0.461,0.369-0.921,0.739-1.382,1.108c0.068-0.281,0.046-0.678,0.225-0.817
			c0.282-0.22,0.699-0.267,1.058-0.388L895.862,588.295z"/>
		<path fill="#6E3D2C" d="M871.955,590.846c0.475-0.374,0.95-0.748,1.426-1.122c-0.069,0.291-0.044,0.702-0.228,0.845
			c-0.289,0.225-0.718,0.268-1.087,0.39C872.066,590.96,871.955,590.846,871.955,590.846z"/>
		<path fill="#89807C" d="M964.363,550.959c0.492-0.325,0.984-0.651,1.476-0.976c-0.321,0.495-0.642,0.99-0.963,1.485
			L964.363,550.959z"/>
		<path fill="#C8C6C4" d="M940.75,656.995c-0.347,0.505-0.694,1.01-1.041,1.516c0.024-0.294-0.062-0.71,0.097-0.854
			c0.288-0.259,0.722-0.355,1.096-0.519L940.75,656.995z"/>
		<path fill="#89807C" d="M956.963,641.391c-0.873,0.891-1.746,1.781-2.618,2.673l-0.511-0.512c0.888-0.876,1.778-1.75,2.668-2.625
			L956.963,641.391z"/>
		<path fill="#89807C" d="M956.503,640.927c0.462-0.309,0.925-0.618,1.387-0.928c-0.311,0.463-0.62,0.926-0.929,1.391
			L956.503,640.927z"/>
		<path fill="#C8C6C4" d="M948.687,567.014c-0.135,0.41-0.271,0.819-0.407,1.229c0.178-0.365,0.355-0.729,0.534-1.094
			L948.687,567.014z"/>
		<path fill="#C8C6C4" d="M951.338,564.37c-0.884,0.881-1.767,1.762-2.651,2.643l0.127,0.136c0.883-0.882,1.767-1.764,2.65-2.646
			L951.338,564.37z"/>
		<path fill="#89807C" d="M977.716,535.07c0.454-0.312,0.908-0.623,1.362-0.935c-0.311,0.453-0.622,0.905-0.932,1.359
			L977.716,535.07z"/>
		<path fill="#C8C6C4" d="M954.14,561.814c0.879-0.865,1.759-1.73,2.638-2.596l-0.155-0.158c-0.867,0.88-1.735,1.76-2.602,2.64
			L954.14,561.814z"/>
		<path fill="#C8C6C4" d="M956.778,559.218c0.388-0.424,0.776-0.849,1.164-1.274c-0.077,0.262-0.073,0.641-0.247,0.76
			c-0.299,0.204-0.708,0.246-1.071,0.356L956.778,559.218z"/>
		<path fill="#89807C" d="M964.876,551.467c-0.477,0.306-0.953,0.612-1.43,0.918c0.306-0.475,0.613-0.95,0.919-1.425
			L964.876,551.467z"/>
		<path fill="#C8C6C4" d="M951.464,564.503c0.892-0.896,1.784-1.792,2.676-2.688l-0.119-0.114c-0.894,0.89-1.788,1.78-2.683,2.67
			L951.464,564.503z"/>
		<path fill="#7D7875" d="M617.934,678.101c1.32-0.046,2.639-0.102,3.959-0.136c27.686-0.714,55.37-1.485,83.058-2.105
			c8.798-0.197,17.605-0.001,26.408,0.04c1.756,0.008,3.529-0.002,5.264,0.231c4.176,0.561,6.073,4.293,3.769,7.681
			c-2.467,3.628-5.083,7.18-7.916,10.528c-6.813,8.051-13.818,15.937-20.695,23.934c-14.033,16.318-27.989,32.702-42.061,48.986
			c-8.626,9.981-17.444,19.795-26.115,29.738c-16.17,18.541-32.301,37.116-48.435,55.689
			c-12.967,14.928-25.838,29.941-38.931,44.756c-2.857,3.232-6.48,5.787-9.751,8.652c-3.989-2.112-8.229-2.784-12.735-2.737
			c-4.831,0.05-9.678-0.26-14.497-0.656c-6.101-0.501-12.192-1.877-18.268-1.771c-20.63,0.361-41.241-0.979-61.91,1.879
			c-13.41,1.854-27.261,0.577-40.914,0.558c-1.534-0.002-3.067-0.943-4.83-1.524c0.712-6.409,4.581-9.97,8.107-13.835
			c18.127-19.869,39.128-36.717,58.247-55.539c0.627-0.617,1.322-1.164,1.986-1.743c12.565-10.965,25.168-21.886,37.679-32.911
			c7.907-6.967,15.798-13.961,23.47-21.182c6.41-6.033,12.784-12.154,18.656-18.701c9.667-10.778,18.367-22.468,28.47-32.801
			c14.128-14.45,27.51-29.743,43.788-41.99C615.436,681.863,616.548,679.801,617.934,678.101z"/>
		<path fill="#7D7875" d="M723.949,795.448c-0.9,3.161-1.801,6.323-2.702,9.488c-2.674,2.258-3.811,5.007-2.724,8.471l0.186-0.072
			c-3.771-0.815-5.633,1.856-7.462,4.283c-13.216,17.548-26.408,35.115-39.533,52.732c-8.91,11.96-17.65,24.048-26.585,35.989
			c-1.833,2.45-4.242,4.461-6.305,6.748c-2.213,2.453-4.916,3.456-8.199,3.458c-15.405,0.011-30.81,0.123-46.215,0.155
			c-1.302,0.003-2.63-0.213-3.904-0.507c-3.173-0.733-5.147-4.303-3.814-7.1c0.938-1.969,2.021-3.94,3.393-5.62
			c13.332-16.329,26.778-32.565,40.112-48.893c11.667-14.287,23.272-28.624,34.832-42.997
			c14.031-17.446,28.006-34.937,41.967-52.439c14.79-18.54,29.512-37.136,44.341-55.645c1.298-1.62,3.169-2.782,4.779-4.156
			c-1.435,7.984-2.875,15.969-4.314,23.953c-5.183,10.003-7.589,20.662-7.52,31.904l0.146-0.269
			c-3.569,2.841-1.574,7.123-2.742,10.586l-0.094,0.16c-1.568,3.184-3.136,6.369-4.705,9.555c-0.07,3.315-0.14,6.629-0.21,9.944
			l-0.045,1.262C723.213,788.693,723.73,792.115,723.949,795.448z"/>
		<path fill="#EFE6E3" d="M362.73,845.149c-2.462,0.832-4.944,2.428-7.382,2.362c-10.496-0.281-21.004,1.153-31.518-1.644
			c-4.82-1.282-10.39,0.214-15.617,0.513c-6.549,0.374-13.092,0.982-19.643,1.072c-1.279,0.017-3.312-1.666-3.677-2.943
			c-0.394-1.374,0.249-3.8,1.33-4.719c8.341-7.087,16.595-14.338,25.451-20.745c20.257-14.657,40.533-29.276,60.423-44.435
			c11.858-9.037,24.267-17.349,36.125-26.385c4.231-3.224,8.563-4.148,13.528-3.746c1.507,2.932,4.351,2.6,6.9,2.656
			c14.075,0.307,28.152,0.531,42.229,0.757c4.709,0.076,9.584-1,14.93,2.13c-2.047,1.921-3.366,3.527-5.015,4.645
			c-8.744,5.927-17.414,11.986-26.398,17.531c-24.795,15.305-47.605,33.279-70.122,51.654
			C376.43,830.254,368.77,836.897,362.73,845.149z M368.914,805.267c1.251-0.077,2.507-0.111,3.749-0.26
			c0.326-0.039,0.61-0.433,0.914-0.664c-0.615-0.413-1.488-1.314-1.798-1.15c-1.016,0.537-1.827,1.462-2.718,2.237
			c-0.801,0.094-1.613,0.133-2.396,0.308c-0.364,0.081-0.67,0.424-1.002,0.648c0.675,0.269,1.501,0.909,1.985,0.711
			C368.223,806.864,368.505,805.909,368.914,805.267z M406.61,788.862c-10.457,2.506-20.702,5.529-30.246,12.898
			C387.477,801.673,398.669,797.081,406.61,788.862z M423.417,772.489c-11.97-0.186-24.889,4.741-32.145,11.899
			C403.099,780.595,414.066,778.746,423.417,772.489z"/>
		<path fill="#774A3B" d="M617.934,678.101c-1.385,1.699-2.497,3.762-4.198,5.041c-16.278,12.247-29.66,27.54-43.788,41.99
			c-10.103,10.333-18.803,22.022-28.47,32.801c-5.872,6.547-12.246,12.667-18.656,18.701c-7.673,7.221-15.563,14.215-23.47,21.182
			c-12.511,11.025-25.114,21.946-37.679,32.911c-0.664,0.579-1.359,1.126-1.986,1.743c-19.119,18.823-40.12,35.67-58.247,55.539
			c-3.526,3.865-7.395,7.426-8.107,13.835c1.763,0.581,3.296,1.522,4.83,1.524c13.653,0.018,27.504,1.296,40.914-0.558
			c20.669-2.859,41.28-1.519,61.91-1.879c6.076-0.107,12.167,1.27,18.268,1.771c4.82,0.396,9.667,0.706,14.497,0.656
			c4.506-0.047,8.746,0.624,12.735,2.737c-1.055,4.281-4.079,5.111-7.915,4.523c-9.721-3.482-19.529-2.806-29.368-0.609
			c-15.84,0-31.68,0.001-47.518,0.005c-9.822-1.971-27.136-1.945-37.162,0.058c-10.565,0.139-21.132,0.187-31.693,0.45
			c-6.436,0.16-12.864,0.65-19.871,1.022c-2.595-3.714-1.726-7.767,1.617-11.253c5.482-5.716,11.141-11.27,16.884-16.725
			c7.013-6.662,14.224-13.116,21.29-19.722c19.292-18.037,38.486-36.179,57.844-54.145c25.799-23.942,51.899-47.562,77.522-71.691
			c18.267-17.202,35.904-35.072,53.959-52.502c3.452-3.333,7.419-6.191,11.434-8.832
			C614.319,676.14,616.425,677.574,617.934,678.101z"/>
		<path fill="#774A3B" d="M362.73,845.149c6.04-8.252,13.7-14.895,21.544-21.296c22.517-18.374,45.327-36.348,70.122-51.654
			c8.984-5.546,17.654-11.604,26.398-17.531c1.649-1.118,2.968-2.723,5.015-4.645c-5.346-3.131-10.22-2.055-14.93-2.13
			c-14.077-0.226-28.154-0.45-42.229-0.757c-2.549-0.056-5.393,0.277-6.9-2.656c3.011-0.296,6.02-0.831,9.033-0.848
			c14.526-0.079,29.059,0.258,43.576-0.119c7.949-0.206,15.7,0.372,24.238,1.805c-0.58,2.11-0.532,4.156-1.529,5.124
			c-2.505,2.431-5.377,4.531-8.29,6.484c-10.245,6.871-20.404,13.892-30.897,20.369c-26.332,16.254-50.357,35.537-73.983,55.39
			c-4.703,3.952-9.807,7.464-14.955,10.829C367.242,844.626,364.821,844.636,362.73,845.149z"/>
		<path fill="#7D7875" d="M223.404,911.281c2.304-4.886,7.311-6.103,11.577-7.893c13.26-5.565,26.675-10.772,40.116-15.89
			c8.957-3.41,18.011-6.582,27.119-9.566c5.332-1.748,10.493-4.523,16.425-3.735l0.007-0.004c-1.57,1.39-2.911,3.373-4.745,4.082
			c-28.024,10.841-56.1,21.548-84.21,32.164c-1.946,0.735-4.253,0.517-6.392,0.742L223.404,911.281z"/>
		<path fill="#7D7875" d="M335.138,890.754c-4.707,5.022-11.29,6.464-17.325,8.805c-8.944,3.47-18.039,6.57-27.153,9.575
			c-2.296,0.757-4.907,0.557-7.519,0.812c0.122-1.619-0.031-2.977,0.269-3.085c15.981-5.793,31.997-11.489,48.026-17.151
			c0.797-0.281,1.733-0.169,2.605-0.24C334.411,889.894,334.777,890.322,335.138,890.754z"/>
		<path fill="#7D7875" d="M424.523,910.073c10.026-2.004,27.341-2.029,37.162-0.058C449.3,911.755,436.913,911.596,424.523,910.073z
			"/>
		<path fill="#7D7875" d="M509.204,910.009c9.839-2.197,19.647-2.874,29.368,0.609C528.783,910.413,518.993,910.211,509.204,910.009
			z"/>
		<path fill="#89807C" d="M326.523,871.455c-1.809,3.26-4.889,2.861-7.875,2.739l-0.007,0.004c1.85-3.385,5.06-2.584,8.005-2.6
			L326.523,871.455z"/>
		<path fill="#89807C" d="M326.645,871.598c0.504-0.61,0.902-1.467,1.548-1.744c0.417-0.179,1.198,0.491,1.816,0.781
			c-0.355,0.195-0.691,0.493-1.069,0.563c-0.794,0.149-1.609,0.179-2.417,0.257L326.645,871.598z"/>
		<path fill="#7D7875" d="M334.04,889.469c1.107-0.585,2.191-1.221,3.337-1.714c0.25-0.107,1.056,0.403,1.038,0.462
			c-0.183,0.622-0.323,1.454-0.783,1.75c-0.707,0.455-1.656,0.536-2.499,0.781C334.777,890.322,334.411,889.894,334.04,889.469z"/>
		<polygon fill="#89807C" points="343.178,886.031 343.908,885.814 343.834,886.418 		"/>
		<path fill="#7D7875" d="M223.302,911.182c-0.357,0.44-0.714,0.881-1.071,1.321c0.042-0.264-0.007-0.639,0.147-0.767
			c0.278-0.229,0.678-0.311,1.027-0.455L223.302,911.182z"/>
		<path fill="#C8C6C4" d="M734.281,755.2c-0.068-11.242,2.337-21.901,7.52-31.904c0.95-0.022,1.901-0.044,2.852-0.066
			C741.195,733.887,737.738,744.544,734.281,755.2z"/>
		<path fill="#7D7875" d="M1144.301,240.766c-0.906,0.982-1.812,1.964-2.72,2.945
			C1142.486,242.728,1143.394,241.747,1144.301,240.766z"/>
		<path fill="#C8C6C4" d="M726.886,775.231c1.569-3.185,3.137-6.37,4.705-9.555c-0.875,3.498-1.749,6.996-2.623,10.494
			C728.285,775.835,727.591,775.522,726.886,775.231z"/>
		<path fill="#C8C6C4" d="M731.685,765.517c1.168-3.462-0.827-7.744,2.742-10.586C733.513,758.459,732.6,761.988,731.685,765.517z"
			/>
		<path fill="#89807C" d="M723.949,795.448c-0.219-3.333-0.736-6.754,2.683-9.011C726.553,789.679,726.793,793.023,723.949,795.448z
			"/>
		<path fill="#C8C6C4" d="M718.522,813.406c-1.086-3.464,0.05-6.213,2.724-8.471C720.875,807.929,722.229,811.482,718.522,813.406z"
			/>
		<path fill="#89807C" d="M726.887,775.231c0.704,0.291,1.398,0.604,2.082,0.94c0.513,3.32,0.468,6.499-2.29,8.996
			C726.746,781.86,726.817,778.546,726.887,775.231z"/>
		<path fill="#89807C" d="M406.61,788.862c-7.941,8.219-19.133,12.811-30.246,12.898
			C385.909,794.391,396.154,791.369,406.61,788.862z"/>
		<path fill="#89807C" d="M423.417,772.489c-9.352,6.257-20.318,8.106-32.145,11.899
			C398.528,777.23,411.447,772.303,423.417,772.489z"/>
		<path fill="#89807C" d="M369.061,805.432c0.89-0.776,1.702-1.7,2.717-2.238c0.31-0.164,1.183,0.737,1.798,1.15
			c-0.303,0.231-0.587,0.625-0.914,0.664c-1.242,0.149-2.498,0.183-3.749,0.26L369.061,805.432z"/>
		<path fill="#89807C" d="M368.914,805.267c-0.409,0.642-0.691,1.597-1.266,1.831c-0.485,0.198-1.31-0.442-1.985-0.711
			c0.332-0.225,0.638-0.568,1.002-0.649c0.783-0.174,1.595-0.213,2.396-0.307L368.914,805.267z"/>
	</g>
</g>
</svg>
