<?xml version="1.0" encoding="utf-8"?>
<!-- Designed by Vexels.com - 2019 All Rights Reserved - https://vexels.com/terms-and-conditions/  -->
<svg version="1.1" id="Capa_1" xmlns="http://www.w3.org/2000/svg" xmlns:xlink="http://www.w3.org/1999/xlink" x="0px" y="0px"
	 viewBox="0 0 1200 1200" enable-background="new 0 0 1200 1200" xml:space="preserve">
<g>
	<path fill="#FFE47A" d="M668.901,497.702c0.432-0.505,0.764-1.01,1.018-1.546l0.248-0.519c1.67-1.213,2.877-2.962,3.396-4.914
		c1.013-3.788,0.364-8.033-0.214-11.779c-0.082-0.522-0.217-0.928-0.361-1.34c-0.138-0.358-0.24-0.66-0.325-0.962l-0.166-0.722
		l-0.178-0.714c-0.158-0.719-0.327-1.441-0.545-2.166c-0.22-0.745-0.463-1.484-0.714-2.231l-0.144-0.42
		c-0.271-0.779-0.528-1.551-0.77-2.341c-0.149-0.494-0.293-1.001-0.437-1.506l-0.076-0.279l-0.056-0.209l-0.118-0.429
		c-0.186-0.638-0.369-1.275-0.573-1.912c-1.075-3.565-2.065-6.513-3.111-9.274c-0.869-2.29-1.616-4.747-2.279-6.919l-0.087-0.288
		l-0.578-1.887c-0.361-1.207-0.75-2.417-1.134-3.624l-0.203-0.643c-0.533-1.69-1.061-3.354-1.557-5.029
		c-1.983-6.612-4.022-13.215-6.078-19.809l-0.587-1.907c-0.133-0.919-0.274-1.85-0.417-2.773c-0.499-3.134-0.908-6.344-1.306-9.443
		l-0.071-0.558l-0.085-0.702c-0.248-1.974-0.44-3.957-0.629-5.932l-0.118-1.196c-0.113-1.125-0.226-2.254-0.35-3.379
		c-0.369-3.289-0.73-6.569-1.083-9.85c-0.403-3.76-0.815-7.517-1.235-11.268c-0.262-2.307-0.44-4.629-0.621-6.956l-0.042-0.536
		c-0.082-1.134-0.166-2.256-0.259-3.39l-0.175-3.063c-0.11-2.028-0.226-4.07-0.378-6.107c-0.223-2.852-0.626-5.726-0.982-8.259
		c-0.821-5.997-1.266-12.044-1.563-16.644c-0.307-5.196-0.316-10.479-0.324-15.587l-0.008-2.451l-0.008-2.434
		c-0.059-7.813,0.039-15.059,0.302-22.159c0.257-7.113-0.006-14.478-0.237-20.977l-0.056-1.831
		c-0.307-9.048-0.463-16.083-0.505-22.805c-0.051-8.318,0.079-15.011,0.412-21.067c0.164-3.086,0.429-6.414,0.815-10.177
		c0.367-3.692,0.561-7.356,0.702-10.456l0.118-2.868c0.11-2.634,0.217-5.269,0.386-7.903c0.068-1.148,0.144-2.307,0.217-3.458
		c0.161-2.299,0.31-4.606,0.412-6.913c0.316-7.582-0.107-15.33-0.527-22.001l-0.045,0.747c-0.35-7.249-0.84-14.958-2.129-22.522
		c-0.353-2.034-0.756-4.053-1.168-6.067l-0.203-1.029c-0.234-1.19-0.471-2.378-0.685-3.571c-0.426-2.338-0.821-4.679-1.207-7.021
		c-0.254-1.534-0.513-3.072-0.773-4.598c-0.595-3.433-1.362-6.882-2.282-10.247c-0.826-3.052-2.022-6.138-3.08-8.862l-0.226-0.587
		l-0.824-2.149l-0.141-0.392c-1.148-3.063-2.333-6.228-4.081-9.043c-2.491-4.005-4.933-7.131-7.68-9.835
		c-1.001-0.979-2.068-1.881-3.258-2.88l-1.275-1.092c-1.018-0.866-2.039-1.588-3.038-2.141c-2.984-1.653-6.129-3.069-9.342-4.214
		c-2.561-0.917-5.187-1.639-7.421-2.225c-2.413-0.647-4.747-1.074-6.989-1.313c-1.674-1.084-3.501-1.784-5.507-2.047
		c-0.685-0.076-1.374-0.104-2.068-0.104c-0.793,0-1.588,0.04-2.383,0.085c-0.575,0.037-1.142,0.144-1.709,0.245
		c-2.712,0.505-5.407,1.321-8.036,2.276c-0.032,0.002-0.064,0.001-0.095,0.003c-4.581,0.276-9.099,1.3-13.716,2.417
		c-2.95,0.725-5.887,1.949-8.476,3.029l-1.972,0.829c-3.842,1.58-7.844,3.537-12.605,6.16c-3.207,1.752-6.6,3.74-10.371,6.084
		c-3.785,2.35-7.474,5.187-10.634,7.661l-0.863,0.683c-2.922,2.307-5.875,4.643-8.408,7.266c-2.502,2.606-5.046,5.356-7.57,8.174
		c-5.971,6.69-11.612,13.465-15.857,18.619l-1.309,1.585c-4.849,5.881-9.835,11.926-14.317,18.193
		c-5.416,7.556-10.053,14.379-14.171,20.858c-3.774,5.957-7.091,12.413-10.019,18.108l-1.746,3.382
		c-4.118,7.937-7.706,16.371-10.371,22.83c-2.967,7.17-6.014,14.918-8.188,22.971c-3.481,12.87-5.796,25.955-8.25,40.493
		c-1.227,7.37-2.082,14.893-2.759,21.278c-0.615,5.932-1.292,11.864-1.971,17.79l-0.42,3.681l-0.663,4.801
		c-1.955,13.97-3.963,28.33-4.648,42.574c-0.344,7.291-0.728,15.787-0.939,24.393l-0.085,3.608
		c-0.192,7.472-0.336,13.697-0.251,20.131c0.135,8.583,0.285,17.166,0.494,25.741c0.093,3.633,0.265,7.317,0.434,10.905l0.054,1.137
		l0.008,0.226l0.051,1.075c0.158,3.23,0.31,6.468,0.392,9.7l0.085,2.883l0.017,0.389c0.189,6.676,0.406,14.247,1.007,21.631
		c0.285,3.371,0.553,6.744,0.815,10.118c0.378,4.829,0.756,9.627,1.182,14.416c0.299,3.258,0.75,6.544,1.185,9.72l0.051,0.372
		l0.031,0.302c1.565,11.672,3.524,24.04,6.071,38.348c0.872-0.227,1.75-0.453,2.657-0.677c4.242,0.494,8.597,0.88,13.305,1.19
		c2.039,0.127,4.079,0.226,6.276,0.327l0.956,0.051c1.941,0.102,3.878,0.2,5.807,0.336l1.334,0.076
		c1.687,0.118,3.421,0.234,5.083,0.519l0.522,0.102l0.646,0.135c1.495,1.399,3.263,1.862,4.95,2.155
		c0.268,0.051,0.547,0.068,0.815,0.068c0.561,0,1.165-0.085,1.819-0.262l1.142,0.369l0.285,0.102
		c3.791,1.309,7.333,2.979,10.295,4.44c3.692,1.828,7.401,4.237,10.707,6.392l1.802,1.168c4.036,2.626,8.064,5.252,12.064,7.929
		c7.68,5.136,15.02,10.966,21.817,16.503l3.935,3.198l0.259,0.217c5.94,4.815,11.285,9.178,16.554,13.759
		c3.943,3.424,7.066,6.194,10.137,8.969c2.995,2.702,5.83,5.588,8.583,8.383l0.169,0.169l0.384,0.392l0.488,0.496
		c2.962,3.012,6.293,6.276,9.9,9.7c4.028,3.799,7.317,7.105,10.312,10.873c2.567,3.241,5.252,6.778,7.551,10.749
		c0.99,1.684,1.955,3.396,2.911,5.1l0.319,0.578c0.908,1.605,1.848,3.272,2.651,5.012l0.017-0.296l0.008-0.454
		c0.076-3.715,0.178-8.809,0.522-13.708c0.302-4.011,0.829-8.095,1.3-11.697l0.051-0.369l0.031-0.217
		c1.109-8.38,2.344-17.05,3.76-26.488c1.168-7.661,3.297-15.967,6.713-26.144c2.668-8.005,6.276-15.784,9.531-22.796l0.254-0.539
		c1.283-2.753,2.592-5.506,3.898-8.247l0.211-0.446c2.206-4.657,4.488-9.472,6.637-14.289l0.9-2.031
		c1.233-2.801,2.776-6.284,4.352-9.472c0.454-0.922,0.939-1.856,1.436-2.778c-0.53,2.005-1.024,4.028-1.478,6.059
		c-0.99,4.414-1.87,8.868-2.651,13.324c-0.688,3.969-1.441,7.988-1.777,12.007c-0.646,7.725-0.88,15.429-0.832,23.182
		c0.042,8.414,0.144,16.805,0.79,25.196c0.455,5.899,1.384,11.69,2.46,17.473c0.207-1.824,0.404-3.676,0.618-5.453
		c1.842-13.026,3.551-22.951,5.54-32.186c2.008-9.373,5.224-19.276,10.106-31.165c4.654-10.82,9.094-20.15,13.57-28.525l2.457-4.592
		c1.845-3.421,3.684-6.846,5.481-10.301c1.038-1.98,2.161-3.929,3.413-6.092C666.489,502.17,667.764,499.945,668.901,497.702z"/>
	<path fill="#FFE14C" d="M620.625,580.285c-0.048-7.754,0.186-15.457,0.832-23.182c0.336-4.02,1.089-8.039,1.777-12.007
		c0.781-4.457,1.661-8.91,2.651-13.324c0.454-2.031,0.948-4.053,1.478-6.059c-0.496,0.922-0.982,1.856-1.436,2.778
		c-1.577,3.187-3.12,6.671-4.352,9.472l-0.9,2.031c-2.149,4.818-4.431,9.632-6.637,14.289l-0.211,0.446
		c-1.306,2.742-2.615,5.495-3.898,8.247l-0.254,0.539c-3.255,7.012-6.862,14.791-9.531,22.796
		c-3.416,10.177-5.545,18.483-6.713,26.144c-1.416,9.438-2.651,18.108-3.76,26.488l-0.031,0.217l-0.051,0.369
		c-0.471,3.602-0.998,7.686-1.3,11.697c-0.344,4.899-0.446,9.993-0.522,13.708l-0.008,0.454l-0.017,0.296
		c-0.804-1.74-1.743-3.407-2.651-5.012l-0.319-0.578c-0.956-1.704-1.921-3.416-2.911-5.1c-2.299-3.971-4.984-7.509-7.551-10.749
		c-2.995-3.768-6.284-7.074-10.312-10.873c-3.608-3.424-6.939-6.688-9.9-9.7l-0.488-0.496l-0.384-0.392l-0.169-0.169
		c-2.753-2.795-5.587-5.681-8.583-8.383c-3.072-2.775-6.194-5.545-10.137-8.969c-5.269-4.581-10.614-8.944-16.554-13.759
		l-0.259-0.217l-3.935-3.198c-6.798-5.537-14.137-11.367-21.817-16.503c-4-2.677-8.027-5.303-12.064-7.929l-1.802-1.168
		c-3.306-2.155-7.015-4.564-10.707-6.392c-2.962-1.461-6.504-3.131-10.295-4.44l-0.285-0.102l-1.142-0.369
		c-0.655,0.178-1.258,0.262-1.819,0.262c-0.268,0-0.547-0.017-0.815-0.068c-1.687-0.293-3.455-0.756-4.95-2.155l-0.646-0.135
		l-0.522-0.102c-1.661-0.285-3.396-0.401-5.083-0.519l-1.334-0.076c-1.929-0.135-3.867-0.234-5.807-0.336l-0.956-0.051
		c-2.197-0.102-4.237-0.2-6.276-0.327c-4.708-0.31-9.063-0.697-13.305-1.19c-0.907,0.224-1.785,0.45-2.657,0.677
		c-3.299,0.859-6.37,1.742-9.311,2.677c-5.134,1.864-11.192,4.172-17.183,7.192c-5.621,2.818-11.201,5.94-16.605,9.263
		c-6.132,4.395-12.25,10.109-18.709,17.468c-6.73,8.081-11.556,15.02-15.161,21.832c-2.073,4.617-3.878,9.44-5.624,14.097
		l-0.107,0.285c-0.95,2.55-1.904,5.091-2.897,7.618c-0.285,0.714-0.578,1.427-0.88,2.132l-0.217,0.527
		c-0.412,1.015-0.832,2.022-1.199,3.055c-0.623,1.752-1.269,3.749-1.957,6.09l-0.612,2.014c-1.066,3.489-2.014,6.648-2.809,9.911
		c-0.84,4.428-1.436,8.27-1.881,12.089c-0.46,4.138-0.688,8.264-0.905,12.848c-0.378,8.532-0.378,16.3,0,23.752
		c0.463,6.544,1.117,12.921,1.946,18.968l0.544,3.96c0.657,4.851,1.478,10.885,2.468,16.562c1.376,7.847,3.094,15.513,5.119,22.813
		c-0.276-7.037-0.322-14.086-0.076-21.135c0.285-8.27,1.661-16.554,3.12-24.692c0.764-4.313,1.495-8.651,2.485-12.93
		c0.922-3.977,1.912-7.954,3.599-11.688c1.955-4.344,4.002-8.651,6.267-12.845c1.988-3.684,4.228-7.232,6.496-10.746
		c2.062-3.207,4.093-6.513,6.375-9.576c2.57-3.458,5.314-6.778,8.03-10.117c2.778-3.416,5.672-6.764,8.676-9.976
		c2.626-2.829,5.396-5.622,8.459-7.988c7.274-5.59,15.773-9.471,24.576-11.973c8.061-2.29,16.546-2.77,24.866-1.963
		c1.113,0.109,2.222,0.269,3.333,0.406c3.103,0.382,6.197,0.835,9.261,1.417c2.939,0.553,6.093,1.063,8.927,2.056
		c2.426,0.852,4.784,1.853,7.133,2.866c8.123,3.467,15.917,7.427,23.259,12.334c1.754,1.176,3.416,2.51,5.1,3.768
		c1.622,1.202,3.258,2.392,4.818,3.65c3.323,2.668,6.611,5.379,9.9,8.078c3.416,2.804,6.947,5.565,10.07,8.693
		c3.111,3.123,6.084,6.344,8.978,9.675c5.418,6.236,10.368,12.904,16.007,18.937c3.145,3.372,6.346,6.692,9.549,10.012
		c2.83,2.933,5.662,5.865,8.449,8.841c5.791,6.177,11.133,12.729,16.472,19.282c5.218,6.394,10.631,12.602,15.632,19.163
		c5.134,6.73,10.292,13.435,15.905,19.778c5.328,6.008,11.22,11.519,16.673,17.409c0.443,0.477,0.883,0.953,1.326,1.43
		c1.989,0.728,4.002,1.368,6.042,1.895c2.039,0.29,4.062,0.409,6.132,0.4c2.336-0.262,4.589-0.73,6.84-1.385
		c2.206-0.914,4.279-1.997,6.327-3.216c1.024-0.753,1.989-1.549,2.894-2.457c1.151-1.436,2.214-2.922,3.201-4.468
		c0.025-0.494,0.054-0.99,0.079-1.489c0.336-6.51,0.203-12.994-0.082-19.499c-0.714-9.153-2.234-18.159-3.861-27.185
		c-1.475-8.247-3.114-16.472-4.716-24.703c-1.568-8.019-3.196-15.993-5.337-23.876c-2.231-8.191-4.454-16.371-6.293-24.66
		c-1.769-7.954-3.413-15.934-4.998-23.93c-0.462-2.322-0.91-4.64-1.342-6.959c-1.077-5.783-2.005-11.574-2.46-17.473
		C620.769,597.09,620.667,588.699,620.625,580.285z"/>
	<g>
		<path fill="#FFE47A" d="M793.747,921.547c-6.609,0.79-13.22,1.328-19.868,1.393c-5.28,0.042-10.549-0.045-15.829-0.152
			c-2.51-0.056-5.091,0.026-7.582-0.29c-4.569-0.556-6.222-0.945-10.216-3.091c-5.325-2.871-8.482-9.489-8.267-15.355
			c0.183-4.775,2.555-9.672,6.267-12.856c-0.542-0.29-1.061-0.601-1.554-0.939c-1.709-1.168-3.292-2.383-4.865-3.732
			c-2.195-1.879-4.22-3.912-6.234-5.985c-2.096-2.138-4.093-4.358-6.126-6.563c-1.123-1.213-2.113-2.508-3.1-3.822
			c-2.104-2.815-3.176-5.917-4.248-9.229c-1.078-3.345,1.582-6.987,4.795-7.743c3.624-0.855,6.673,1.447,7.742,4.787
			c0.259,0.809,0.525,1.616,0.793,2.42c0.22,0.491,0.465,0.965,0.745,1.424c3.193,3.918,7.001,7.339,10.795,10.673
			c2.493,1.997,5.032,3.811,7.881,5.269c5.737,2.413,11.582,4.483,17.453,6.497c0.806-0.918,1.74-1.712,2.8-2.194
			c2.175-0.993,4.513-1.619,6.944-1.342c0.79,0.09,1.591,0.2,2.381,0.307c0.237,0.031,0.471,0.065,0.708,0.102
			c1.334-0.166,2.663-0.355,3.977-0.587c1.881-0.327,3.669-0.821,5.449-1.422c5.04-2.152,9.94-4.547,14.518-7.596
			c6.729-4.962,13.286-10.2,19.384-15.919c-1.251-2.834-2.54-5.648-3.958-8.403c-2.079-4.042-4.146-8.092-6.115-12.185
			c-1.845-3.822-3.396-7.773-5.19-11.621c-1.924-4.109-4.093-8.089-6.163-12.134c-2.127-4.152-4.104-8.383-6.008-12.647
			l-0.082-0.192c-0.511-0.818-1.002-1.65-1.494-2.48c-0.19-0.322-0.389-0.639-0.575-0.964c-2.045-3.56-3.994-7.161-5.926-10.786
			c-1.799-3.393-3.534-6.826-5.297-10.244c-1.769-3.436-3.706-6.772-5.616-10.129c-4.025-7.091-7.915-14.281-11.274-21.713
			c-3.207-7.094-6.349-14.21-9.711-21.239c-3.526-7.359-7.156-14.664-10.778-21.984c-1.743-3.531-3.447-7.08-5.396-10.504
			c-2.062-3.641-4.155-7.269-6.143-10.947c-1.77-3.27-3.495-6.565-5.199-9.871c-0.13-0.252-0.264-0.502-0.393-0.754
			c-1.765-3.433-3.505-6.879-5.236-10.329c-3.28-6.527-6.109-13.195-8.6-20.063c-2.829-7.793-5.404-15.663-7.773-23.606
			c-1.111-3.695-1.876-7.353-2.228-11.189c-0.409-4.382-0.744-8.751-0.997-13.14c-0.043-0.744-0.073-1.487-0.106-2.231
			c-0.007-0.15-0.014-0.3-0.02-0.451c-0.013-0.325-0.034-0.648-0.043-0.973c-0.036-1.226-0.046-2.452-0.002-3.679
			c0.124-3.488,0.635-6.942,1.466-10.336c0.257-1.047,0.577-2.083,0.93-3.108c0.093-0.27,0.198-0.536,0.297-0.805
			c0.281-0.759,0.588-1.509,0.918-2.249c0.587-1.312,1.228-2.599,1.956-3.825c0.755-1.267,1.537-2.547,2.376-3.786
			c1.108-1.643,2.316-3.216,3.757-4.56c3.089-2.894,6.62-5.224,10.572-6.738c4.578-1.763,9.308-2.412,14.199-2.477
			c3.357-0.045,6.693,0.395,9.991,0.97c0.415,0.073,0.818,0.152,1.224,0.22c4.045,0.742,8.341,1.357,12.126,3.083
			c3.921,1.791,7.678,3.751,11.13,6.358c3.605,2.716,7.054,5.644,10.182,8.899c2.73,2.843,5.156,6.028,7.43,9.243
			c2.747,3.887,5.486,7.799,8.123,11.77c4.231,6.352,8.507,12.735,12.19,19.428c3.949,7.153,7.703,14.427,11.339,21.75
			c1.828,3.667,3.275,7.523,4.947,11.271c1.602,3.585,3.235,7.167,4.922,10.727c0.522,1.111,1.06,2.22,1.599,3.326
			c0.133,0.014,0.276,0.031,0.417,0.048c1.608,0.155,3.726,0.276,5.754-0.127l0.319-0.065c1.261-0.246,2.347-0.468,3.497-1.016
			c2.35-1.111,3.813-2.169,5.404-3.875c1.331-1.43,2.358-3.156,3.184-4.665c0.522-0.939,0.922-1.78,1.224-2.561
			c1.109-2.942,1.847-5.379,2.341-7.658c0.807-3.743,1.204-7.618,1.585-11.37l0.135-1.269l0.228-2.225
			c0.073-0.688,0.144-1.371,0.217-2.054c-0.02-0.406-0.042-0.809-0.062-1.216c-0.525-7.579-1.444-15.099-2.166-22.652
			c-0.353-3.605-0.708-7.21-1.148-10.803c-0.432-3.619-0.756-7.255-1.391-10.848c-0.626-3.543-1.458-7.051-2.296-10.555
			c-0.815-3.421-1.391-6.913-2.028-10.371c-1.233-6.755-2.688-13.384-4.773-19.922c-1.278-3.571-2.682-7.085-4.25-10.538
			c-1.788-3.949-3.808-7.751-5.895-11.547c-3.802-6.916-8.245-13.468-12.645-20.021c-3.593-5.117-7.46-10.033-11.511-14.802
			c-3.861-4.558-7.813-8.989-12.222-13.02c-3.314-2.753-6.716-5.376-10.126-7.988c-4.208-3.224-8.419-6.42-13-9.11
			c-1.613-0.948-3.258-1.836-4.919-2.699c-1.811-0.426-3.687-0.807-5.627-1.145c-0.398-0.071-0.793-0.141-1.19-0.2
			c-4.423-0.722-8.941-1.094-13.167-1.388c-5.283-0.378-10.236-0.307-15.147,0.214c-4.262,0.457-8.411,1.574-13.003,2.874
			c-3.23,0.925-6.544,2.084-9.858,3.455c-8.363,3.481-16.238,8.126-23.405,13.815c-2.358,1.879-4.688,3.856-6.939,5.771
			l-2.471,2.099l-0.99,0.84c-3.492,2.933-7.449,6.265-10.944,9.844c-6.267,6.434-11.514,13.686-15.936,19.984
			c-5.364,7.622-10.26,15.396-14.587,23.13c-0.429-2.029-0.855-4.058-1.277-6.089c-1.716-8.283-3.201-16.6-4.586-24.935
			c-0.822-0.325-1.636-0.686-2.445-1.113c-1.159-0.62-2.412-1.368-3.317-2.313c-1.433-1.484-2.333-3.238-2.987-5.17
			c-0.73-2.178-0.973-4.541-0.945-6.829c0.025-1.969,0.107-3.966,0.313-5.926c0.217-2.005,0.415-4.101,1.018-6.045
			c0.575-1.87,1.295-3.74,2.194-5.486c0.092-0.179,0.218-0.33,0.315-0.505c-0.346-1.918-0.695-3.835-1.022-5.756
			c-2.276-13.325-4.499-26.658-6.73-39.991c-1.083-6.518-2.183-13.014-3.534-19.482c-1.309-6.301-2.536-12.571-3.286-18.963
			c-0.604-6.352-0.728-12.721-0.934-19.104c-0.11-3.382-0.285-6.764-0.369-10.146c-0.068-3.086,0.167-6.174,0.395-9.254
			c0.276-3.749-3.072-6.981-6.696-7.082c-0.065,0-0.133,0-0.2,0c-3.777,0-6.609,3.01-6.879,6.688
			c-0.739,10.044-0.739,20.111-0.798,30.18c-0.034,4.857,0.008,9.768,0.446,14.608c0.002,0.017,0.004,0.034,0.005,0.051
			c0.229,0.171,0.455,0.346,0.683,0.517c1.492,1.122,2.962,2.304,4.27,3.641c1.221,1.25,2.417,2.527,3.639,3.774
			c1.188,1.213,0.934,3.311-0.285,4.383c-1.326,1.162-3.196,0.917-4.383-0.288c-0.477-0.488-0.951-0.976-1.444-1.447
			c-0.463-0.379-0.941-0.73-1.434-1.057c0.294,2.423,0.597,4.846,0.876,7.272c0.711,7.081,1.291,14.172,1.842,21.266
			c0.83,1.738,1.551,3.551,2.087,5.468c1.778,6.365,1.562,12.798-0.209,18.694c0.289,3.59,0.617,7.177,0.945,10.764
			c0.227,0.155,0.463,0.3,0.675,0.471c0.618,0.496,1.275,1.038,1.887,1.625c0.564,0.544,0.987,1.156,1.374,1.735
			c0.544,0.835,0.911,1.718,1.247,2.691l-0.087-0.305c0.079,0.214,0.164,0.432,0.251,0.649c0.245,0.618,0.499,1.255,0.612,1.912
			c0.135,0.801,0.217,1.639,0.243,2.491c0.051,1.718-0.491,3.59-1.447,5.015c-0.833,1.225-1.842,2.31-2.916,3.226
			c0.135,1.454,0.291,2.905,0.422,4.361c0.429,4.775,0.68,9.573,1.182,14.348c1.185,11.336,2.888,22.57,4.372,33.864
			c1.368,10.402,3.114,20.714,5.252,31.001c0.514,2.487,1.129,4.963,1.769,7.434c-0.866,1.826-1.736,3.65-2.586,5.479
			c-3.286,7.06-7.026,15.059-9.793,23.332c-3.405,10.18-5.534,18.478-6.702,26.127c-0.561,3.746-1.084,7.325-1.588,10.83
			c-0.265-1.096-0.545-2.188-0.81-3.284c-1.266-5.286-2.451-10.58-3.565-15.9c-1.108-5.212-1.989-10.464-3.021-15.691
			c-2.158-10.89-4.699-21.665-7.3-32.454c-2.575-10.69-5.227-21.346-7.266-32.143c-1.016-5.362-1.763-10.792-2.584-16.187
			c-0.815-5.3-1.721-10.586-2.541-15.888c-0.84-5.354-1.78-10.682-2.745-16.01c-0.044-0.242-0.073-0.486-0.116-0.728
			c-0.504,0.011-0.998,0.042-1.505,0.042c-1.777,0-3.605-0.068-5.43-0.203c-1.785-0.135-3.591-0.384-5.517-0.764l-0.245-0.048
			c-1.266-0.254-2.578-0.513-3.816-0.97c-1.585-0.587-3.249-1.238-4.657-2.211c-0.976-0.674-1.757-1.326-2.389-1.986
			c-0.381-0.389-0.905-1.004-1.247-1.703c-0.279-0.576-0.576-1.258-0.649-1.96l-0.023-0.228c-0.065-0.607-0.133-1.236-0.054-1.848
			c0.071-0.558,0.169-1.114,0.282-1.667c0.189-0.965,0.59-1.845,1.018-2.736c0.601-1.249,1.551-2.505,2.823-3.723
			c0.84-0.801,1.784-1.455,2.742-2.065c-5.31-4.265-9.403-10.143-11.375-17.197c-4.323-15.471,2.893-31.436,16.451-38.778
			c-0.459-2.911-0.904-5.823-1.29-8.737c-0.333-3.396-0.615-6.794-0.806-10.198c-0.497-0.685-0.873-1.43-1.053-2.275
			c-0.214-1.083-0.144-2.141,0.209-3.182c0.121-0.504,0.327-0.985,0.573-1.452c-0.115-4.224-0.196-8.446-0.283-12.674
			c-0.107-5.63-0.183-11.26-0.226-16.89c-0.042-5.176-0.234-10.343-0.234-15.522c-0.008-10.47,0.77-20.926,0.728-31.405
			c-0.008-2.601-0.353-5.238-0.51-7.844c-0.178-2.837-0.276-5.681-0.344-8.518c-0.118-5.562,0.386-11.158,0.829-16.695
			c0.389-4.823,1.032-9.607,1.684-14.394c2.445-13.705,5.39-27.312,8.628-40.851c1.763-7.367,3.357-14.766,5.179-22.125
			c0.812-3.306,1.661-6.561,2.691-9.81c1.066-3.339,2.536-6.561,3.938-9.765c0.914-2.115-0.849-4.64-2.846-5.235
			c-0.42-0.127-0.827-0.183-1.216-0.183c-1.825,0-3.258,1.289-4.011,3.018c-2.031,4.648-3.977,9.314-5.774,14.064
			c-1.912,5.04-3.255,10.354-4.713,15.547c-1.495,5.277-3.046,10.521-4.792,15.722c-1.636,4.894-3.624,9.649-5.269,14.549
			c-1.746,5.213-3.145,10.541-4.614,15.835c-1.444,5.167-2.601,10.394-3.641,15.663c-1.024,5.179-1.831,10.405-2.77,15.601
			c-1.114,6.098-1.972,12.233-2.491,18.407c-0.437,5.227-0.781,10.473-1.393,15.682c-0.623,5.244-1.368,10.47-1.989,15.714
			c-0.604,5.162-1.47,10.337-1.771,15.522c-0.319,5.531-0.688,11.059-0.804,16.599c-0.234,10.814-0.573,21.628-0.42,32.454
			c0.166,11.889,1.938,23.744,3.608,35.492c1.495,10.47,2.885,20.957,4.555,31.396c1.664,10.445,2.493,21.002,3.878,31.481
			c0.358,2.729,0.742,5.454,1.118,8.18c0.053-0.041,0.107-0.083,0.161-0.123c0.926-1.141,1.771-2.344,2.484-3.632
			c1.187-2.468,2.189-5.043,2.77-7.717c0.24-1.128,1.382-2.166,2.369-2.634c0.626-0.296,1.309-0.446,1.991-0.446
			c0.525,0,1.049,0.087,1.549,0.265c1.918,0.68,3.252,2.649,3.069,4.693c-0.039,0.482-0.155,0.956-0.254,1.43
			c-0.172,0.801-0.316,1.622-0.55,2.406c-0.344,1.156-0.818,2.293-1.292,3.402c-1.19,2.798-2.578,5.545-4.572,7.858
			c-1.461,1.698-2.979,3.162-4.843,4.383c-0.49,0.324-0.985,0.646-1.49,0.952c0.514,4.216,1.034,8.433,1.565,12.649
			c1.419,11.116,2.953,22.184,5.32,33.148c2.29,10.633,4.902,21.197,7.52,31.76c2.615,10.538,4.344,21.245,6.544,31.875
			c1.256,6.097,2.593,12.172,3.967,18.239c-1.71-1.673-3.368-3.321-4.951-4.926l-0.482-0.497l-0.384-0.389
			c-2.815-2.86-5.723-5.813-8.752-8.558c-2.897-2.626-6.016-5.393-10.137-8.967c-2.185-1.901-4.429-3.774-6.67-5.641
			c-2.516-5.006-4.995-10.03-7.429-15.078c-7.559-15.716-12.075-32.767-15.965-49.69c-1.805-7.844-3.114-15.781-4.724-23.659
			c-0.849-4.146-1.644-8.29-2.443-12.444c-0.829-4.33-1.777-8.651-2.541-12.997c-0.734-4.204-1.366-8.431-1.971-12.663
			c-0.221,0.067-0.444,0.145-0.663,0.211l-1.001,0.305c-0.97,0.302-1.972,0.612-2.984,0.821c-0.852,0.175-1.707,0.319-2.561,0.463
			c-0.525,0.087-1.046,0.178-1.568,0.271c-2.555,0.474-5.306,0.956-8.106,1.278c-2.24,0.262-4.53,0.361-6.747,0.457
			c-0.883,0.037-1.763,0.073-2.643,0.121c-1.23,0.068-2.493,0.104-3.76,0.104c-1.777,0-3.605-0.068-5.43-0.203
			c-1.785-0.135-3.591-0.384-5.517-0.764l-0.245-0.048c-1.266-0.254-2.578-0.513-3.816-0.97c-1.585-0.587-3.249-1.238-4.657-2.211
			c-0.976-0.674-1.757-1.326-2.392-1.986c-0.378-0.389-0.903-1.004-1.244-1.704c-0.279-0.575-0.576-1.258-0.649-1.96l-0.023-0.226
			c-0.065-0.609-0.133-1.238-0.054-1.85c0.071-0.558,0.169-1.114,0.282-1.667c0.189-0.965,0.59-1.845,1.018-2.736
			c0.601-1.249,1.554-2.505,2.823-3.723c1.298-1.238,2.84-2.177,4.307-3.035l0.138-0.082c1.148-0.674,2.338-1.371,3.537-2.003
			c0.805-0.428,1.64-0.78,2.504-1.124c-4.284-4.062-7.582-9.269-9.285-15.363c-5.021-17.962,5.486-36.617,23.445-41.638
			c6.104-1.706,12.277-1.582,17.979-0.018c-0.045-3.134-0.097-6.268-0.048-9.403c0.036-2.418,0.133-4.835,0.213-7.252
			c-1.475,0.681-3.166,0.595-4.765,0.626c-1.029,0.023-2.065,0.056-3.094,0.056c-1.729-0.006-3.444-0.039-5.164,0.025
			c-2.747,0.327-5.438,1.131-8.067,1.988c-2.835,1.041-5.582,2.406-8.284,3.732c-3.024,1.481-5.887,3.207-8.685,5.057
			c-2.141,1.486-4.197,3.108-6.064,4.928c-1.924,1.873-3.704,3.881-5.489,5.881c-1.1,1.264-2.177,2.536-3.244,3.828
			c-1.108,1.348-2.031,2.812-2.914,4.321c-0.73,1.252-2.555,1.489-3.701,0.716c-1.261-0.857-1.45-2.448-0.716-3.703
			c0.877-1.503,1.754-2.998,2.722-4.445c0.965-1.45,2-2.852,3.077-4.225c2.296-2.922,4.564-5.864,7.136-8.552
			c2.964-3.089,6.27-5.861,9.762-8.338c3.509-2.491,7.291-4.603,11.006-6.769c1.687-0.982,3.467-1.743,5.266-2.488
			c2.101-0.874,4.271-1.706,6.496-2.186c2.014-0.432,4.039-0.714,6.084-0.922c1.111-0.113,2.217-0.248,3.326-0.378
			c0.883-0.101,1.816-0.243,2.73-0.243c0.843,0,1.675,0.121,2.44,0.502c0.209,0.073,0.384,0.195,0.578,0.288
			c0.106-2.005,0.194-4.013,0.316-6.016c0.226-3.726,0.578-7.441,0.79-11.167c0.234-4.129,0.46-8.259,0.812-12.368
			c0.688-7.979,1.568-15.942,2.584-23.879c0.942-7.257,2.149-14.481,3.339-21.707c1.049-6.778,2.115-13.567,3.204-20.345
			c-0.107,0.688-0.226,1.376-0.336,2.062c0.369-2.423,0.714-4.84,0.999-7.272c0.288-2.519,0.42-5.052,0.666-7.571
			c0.537-5.395,1.395-10.754,2.256-16.106c0.179-1.1,0.359-2.197,0.537-3.3c-0.068,0.378-0.127,0.753-0.192,1.142
			c0.485-3.182,0.982-6.369,1.518-9.542c0.198-1.29,0.406-2.581,0.612-3.871c1.023-6.469,2.289-12.881,3.853-19.252
			c1.359-5.545,2.474-11.141,3.766-16.706c1.419-6.14,3.055-12.233,4.809-18.283c1.752-6.03,3.943-11.889,6.081-17.787
			c2.871-7.895,5.999-15.68,9.071-23.493c3.17-8.056,6.109-16.269,10.177-23.921c4.002-7.525,8.383-14.884,12.856-22.133
			c2.172-3.526,4.335-7.057,6.854-10.346c0.11-0.141,0.226-0.285,0.336-0.426c3.229-5.582,6.738-11.017,10.193-16.447
			c1.188-1.867,2.369-3.735,3.577-5.59c-0.101,0.014-0.203,0.028-0.302,0.045c-0.917-0.093-1.822-0.144-2.711-0.144
			c-0.513,0-1.015,0.017-1.52,0.042c-4.615,0.293-9.127,1.326-13.728,2.451c-2.967,0.728-5.906,1.955-8.49,3.035l-1.972,0.832
			c-1.686,0.69-3.404,1.465-5.18,2.315c-0.168-0.017-0.327-0.075-0.497-0.075c-0.471,0-0.948,0.065-1.419,0.2
			c-1.602,0.457-3.201,0.917-4.775,1.464c-1.943,0.685-3.816,1.754-5.605,2.773c-2.366,1.348-4.488,3.156-6.62,4.829
			c-4.761,3.729-9.333,7.712-13.936,11.638c-0.66,0.547-1.32,1.097-1.977,1.647c-2.55,2.113-5.193,4.118-7.697,6.296
			c-2.256,1.96-4.423,4.019-6.555,6.115c-4.101,4.022-7.977,8.231-11.99,12.332c-2.104,2.149-4.361,4.138-6.6,6.152
			c-1.96,1.763-3.76,3.704-5.523,5.667c-2.096,2.338-3.932,4.956-5.774,7.5c-2.194,3.032-4.321,6.132-6.476,9.192
			c-1.125,1.566-2.24,3.136-3.351,4.708c-3.052,4.259-6.09,8.527-9.071,12.831c-2.643,3.822-4.964,7.799-7.139,11.9
			c-4.203,7.915-8.104,15.993-12.233,23.95c-4.22,8.132-9.04,15.976-12.501,24.474c-1.613,3.957-3.241,7.923-4.832,11.9
			c-2.096,5.252-3.977,10.541-5.72,15.919c-2.733,8.465-4.524,17.16-6.611,25.803c-2.113,8.752-3.633,17.685-5.001,26.59
			c-1.41,9.235-1.898,18.599-3.514,27.808c-1.819,10.306-3.114,20.743-3.331,31.21c-0.161,7.886-0.601,15.767-0.773,23.654
			c-0.206,9.102,0.324,18.269,0.99,27.343c0.612,8.301,0.505,16.642,1.027,24.951c0.276,4.586,0.53,9.173,0.835,13.75
			c0.152,2.178,0.271,4.363,0.522,6.521c0.274,2.302,0.702,4.578,1.123,6.857c0.389,2.606,0.626,5.218,0.937,7.833
			c0.505,4.138,1.413,8.194,2.358,12.25c0.234,0.997,0.434,2.003,0.655,3.004c2.916,2.615,5.903,5.15,8.964,7.589
			c4.098,3.055,8.321,5.878,12.803,8.346c1.602,0.88,3.207,1.74,4.82,2.584c2.344,0.888,4.702,1.746,7.051,2.606
			c2.728,1.007,5.461,1.941,8.222,2.832c1.816,0.595,3.579,1.314,5.305,2.132c2.996,1.393,5.954,4.739,6.558,8.013
			c0.62,3.365,0.539,6.431-1.241,9.46c-1.089,1.845-2.555,3.311-4.4,4.409c-1.966,1.151-4.084,1.664-6.205,1.633
			c0.003,0.011,0.006,0.026,0.011,0.04c-2.099,0.18-4.409-0.305-6.414-0.691c-1.808-0.353-3.599-0.81-5.334-1.43
			c-2.995-1.063-5.974-2.169-8.93-3.311c-4.499-1.737-9.019-3.499-13.388-5.558c0.79,3.508,1.693,6.987,2.79,10.419
			c0.776,2.4,1.495,4.829,2.293,7.229c0.324,0.99,0.505,2.025,0.829,3.012c0.4,1.241,0.88,2.392,1.413,3.554
			c-0.118-0.251-0.237-0.502-0.353-0.753c0.916,1.988,1.242,4.45,2.7,6.143c-1.686,0.478-3.37,0.967-5.043,1.495
			c-5.825,2.127-11.638,4.406-17.178,7.195c-5.675,2.849-11.198,5.94-16.599,9.263c-6.924,4.967-13.085,11.071-18.698,17.465
			c-5.681,6.818-11,13.962-15.158,21.823c-3.224,7.187-5.74,14.67-8.631,21.992c-0.747,1.904-1.599,3.791-2.29,5.715
			c-0.719,2.014-1.348,4.048-1.96,6.098c-1.199,3.98-2.437,7.895-3.421,11.92c-0.759,4.008-1.41,8.019-1.87,12.078
			c-0.482,4.259-0.711,8.555-0.905,12.836c-0.355,7.929-0.406,15.835-0.003,23.755c0.443,6.338,1.08,12.684,1.949,18.971
			c0.942,6.851,1.822,13.714,3.007,20.523c1.402,8.013,3.17,15.939,5.379,23.766c2.22,7.875,4.445,15.75,6.595,23.639
			c2.172,7.96,4.55,15.835,6.927,23.73c1.125,3.706,2.183,7.435,3.3,11.147c1.131,3.757,2.355,7.48,3.579,11.206
			c1.881,5.368,3.935,10.676,5.951,15.996c2.178,5.72,4.502,11.39,7.063,16.946c2.522,5.469,5.088,10.916,7.737,16.32
			c3.811,2.53,7.81,4.744,11.914,6.8c3.128,1.405,6.242,2.674,9.565,3.5c2.087,0.296,4.158,0.344,6.265,0.271
			c1.258-0.121,2.482-0.319,3.709-0.564c0.398-1.106,0.773-2.217,1.128-3.337c0.651-2.017,1.311-4.031,1.881-6.076
			c-0.195-2.448-0.389-4.899-0.609-7.339c-0.034-0.099-0.068-0.197-0.093-0.296c-1.464-4.44-2.761-8.916-4.22-13.344
			c-3.452-9.937-7.272-19.747-11.192-29.501c-2.271-5.661-4.251-11.39-6.078-17.211c-1.427-4.561-2.801-9.136-4.282-13.677
			c-3.004-8.445-6.468-16.754-9.192-25.295c-1.176-3.687-1.879-7.48-2.55-11.288c-0.609-3.43-1.357-6.82-2.09-10.219
			c-0.773-3.619-1.611-7.221-2.285-10.857c-0.793-4.245-1.3-8.498-1.501-12.817c-0.175-3.729-0.172-7.503,0.003-11.237
			c0.09-2.121,0.178-4.236,0.417-6.341c0.279-2.429,0.781-4.854,1.3-7.241c1.709-7.878,4.956-15.496,9.325-22.274
			c1.788-2.77,3.977-5.308,6.073-7.847c2.66-3.23,5.588-6.287,9.003-8.733c2.076-1.487,4.197-3.007,6.518-4.101
			c2.256-1.06,4.566-1.859,6.941-2.634c3.421-1.117,7.054-2.005,10.636-2.468c3.246-0.415,6.394-0.135,9.551,0.415
			c1.049,0.183,2.11,0.403,3.17,0.632c3.013,0.643,6.169,1.487,8.989,2.753c2.265,1.027,4.507,2.099,6.535,3.543
			c1.312,0.928,2.601,1.895,3.898,2.854c2.863,2.135,5.616,4.411,8.36,6.699c3.337,2.787,6.673,5.576,9.79,8.611
			c2.612,2.541,5.029,5.28,7.35,8.095c5.165,6.259,9.824,12.893,14.298,19.654c4.341,6.558,8.58,13.2,12.602,19.961
			c4.273,7.187,8.899,14.159,13.361,21.233c4.2,6.628,8.225,13.378,12.509,19.961c5.379,7.906,10.797,15.804,16.402,23.555
			c2.84,3.926,5.839,7.723,8.673,11.643c2.894,4.005,5.715,8.05,8.544,12.095c4.744,6.809,9.48,13.598,14.501,20.207
			c4.984,6.569,10.14,13.034,15.42,19.372c1.274,1.528,2.565,3.042,3.849,4.561c0.264-0.569,0.521-1.143,0.787-1.712
			c2.29-4.911,5.052-9.472,8.03-13.993c1.193-1.808,2.434-3.582,3.667-5.362c0.29-0.516,0.584-1.032,0.877-1.549
			c0.872-1.512,1.986-3.461,3.173-4.883c2.485-2.97,6.135-4.626,9.861-4.626c1.738,0,3.492,0.361,5.151,1.117
			c3.887,1.774,7.088,5.827,7.314,10.208c0.161,3.024-0.054,3.76-1.063,6.558c-0.358,0.981-1.977,3.255-1.907,3.137
			c-0.276,0.454-0.592,0.866-0.9,1.297c-0.268,0.378-0.533,0.759-0.801,1.14c-1.08,1.841-2.118,3.708-3.124,5.591
			c-0.585,1.181-1.185,2.355-1.755,3.543c-2.24,4.86-4.38,9.748-6.679,14.577c-1.199,2.658-2.269,5.357-3.295,8.075
			c0.026,0.032,0.054,0.064,0.08,0.096c2.609,3.199,5.15,6.454,7.731,9.672c5.006,6.259,10.151,12.343,15.558,18.255
			c5.351,5.839,10.758,11.596,15.914,17.618c5.258,6.14,10.778,11.985,16.523,17.674c2.945,2.925,5.915,5.819,8.955,8.659
			c2.499,2.344,5.119,4.564,7.709,6.815c2.883,2.471,5.816,4.882,8.654,7.407c2.451,2.166,4.812,4.425,7.167,6.693
			c4.668,4.496,9.452,8.859,14.295,13.161c3.089,2.523,6.28,4.93,9.508,7.29c-0.043-0.024-0.086-0.046-0.129-0.07
			c0.341,0.249,0.688,0.488,1.03,0.736c1.376,0.999,2.761,1.984,4.15,2.965c0.746,0.526,1.486,1.059,2.234,1.582
			c1.352,0.945,2.707,1.883,4.062,2.82c0.673,0.466,1.345,0.936,2.018,1.4c8.033,5.542,16.509,10.414,25.236,14.774
			c6.008,2.871,12.033,5.678,18.041,8.543c0.187,0.089,0.376,0.178,0.563,0.267c1.424,0.678,2.851,1.355,4.284,2.029
			c0.108,0.051,0.218,0.1,0.326,0.151c0.087,0.041,0.174,0.08,0.261,0.121c0.48,0.224,0.96,0.445,1.442,0.667
			c0.863,0.398,1.729,0.79,2.598,1.176c0.264,0.117,0.527,0.234,0.791,0.349c0.44,0.193,0.881,0.377,1.323,0.565
			c0.88,0.376,1.765,0.738,2.654,1.093c0.325,0.13,0.646,0.268,0.972,0.395c0.326,0.126,0.656,0.24,0.983,0.362
			c0.426,0.16,0.845,0.339,1.274,0.493c0.037,0,0.075-0.004,0.111-0.004c0.867,0.31,1.728,0.64,2.605,0.92
			c0.008,0.002,0.015,0.006,0.023,0.008c1.334,0.423,2.671,0.849,4.011,1.266c0.005-0.003,0.01-0.006,0.015-0.009
			c5.125,1.609,10.26,3.179,15.428,4.634c2.612-1.159,5.142-2.479,7.438-4.2c3.963-2.99,7.41-6.527,10.487-10.411
			c2.863-3.605,5.571-7.246,7.562-11.395c0.061-0.125,0.103-0.255,0.162-0.381c0.871-0.938,1.659-1.857,2.327-2.666
			c0.694-0.835,1.331-1.667,1.96-2.536c1.382-1.915,2.338-4.124,3.258-6.265c0.646-1.503,0.922-2.987,1.19-4.431l0.161-0.869
			c0.251-1.292,0.502-2.586,0.747-3.89c0.395-2.152,0.871-4.293,1.345-6.434c0.448-2.025,0.903-4.048,1.278-6.095l0.172-0.888
			c0.443-2.327,0.897-4.733,1.035-7.13l0.096-1.721l0.096-1.718c0.203-3.661-0.07-7.494-0.843-11.717
			c-0.618-3.388-1.483-6.8-2.33-10.101c-0.341-1.32-0.688-2.648-1.01-3.974l-0.319-1.3c-0.894-3.655-1.819-7.429-2.454-11.212
			c-0.254-1.518-0.499-3.052-0.742-4.575c-0.479-2.953-0.95-5.915-1.5-8.862c-1.211-6.502-3.253-13.409-6.234-21.311
			c-3.167,2.897-6.579,5.502-10.399,7.56C816.295,916.571,805.128,920.187,793.747,921.547z"/>
		<path fill="#FFD03A" d="M854.086,612.252c-0.525-7.579-1.444-15.099-2.166-22.652c-0.353-3.605-0.708-7.21-1.148-10.803
			c-0.432-3.619-0.756-7.255-1.391-10.848c-0.626-3.543-1.458-7.051-2.296-10.555c-0.815-3.421-1.391-6.913-2.028-10.371
			c-1.233-6.755-2.688-13.384-4.773-19.922c-1.278-3.571-2.682-7.085-4.25-10.538c-1.788-3.949-3.808-7.751-5.895-11.547
			c-3.802-6.916-8.245-13.468-12.645-20.021c-3.593-5.117-7.46-10.033-11.511-14.802c-3.861-4.558-7.813-8.989-12.222-13.02
			c-3.314-2.753-6.716-5.376-10.126-7.988c-4.208-3.224-8.419-6.42-13-9.11c-1.613-0.948-3.258-1.836-4.919-2.699
			c-1.811-0.426-3.687-0.807-5.627-1.145c-0.398-0.071-0.793-0.141-1.19-0.2c-4.423-0.722-8.941-1.094-13.167-1.388
			c-5.283-0.378-10.236-0.307-15.147,0.214c-4.262,0.457-8.411,1.574-13.003,2.874c-3.23,0.925-6.544,2.084-9.858,3.455
			c-8.363,3.481-16.238,8.126-23.405,13.815c-2.358,1.879-4.688,3.856-6.939,5.771l-2.471,2.099l-0.99,0.84
			c-3.492,2.933-7.449,6.265-10.944,9.844c-6.267,6.434-11.514,13.686-15.936,19.984c-5.364,7.622-10.26,15.396-14.587,23.13
			c-0.429-2.029-0.855-4.058-1.277-6.089c-1.716-8.283-3.201-16.6-4.586-24.935c-0.822-0.325-1.636-0.686-2.445-1.113
			c-1.159-0.62-2.412-1.368-3.317-2.313c-1.433-1.484-2.333-3.238-2.987-5.17c-0.73-2.178-0.973-4.541-0.945-6.829
			c0.025-1.969,0.107-3.966,0.313-5.926c0.217-2.005,0.415-4.101,1.018-6.045c0.575-1.87,1.295-3.74,2.194-5.486
			c0.092-0.179,0.218-0.33,0.315-0.505c-0.346-1.918-0.695-3.835-1.022-5.756c-2.276-13.325-4.499-26.658-6.73-39.991
			c-1.083-6.518-2.183-13.014-3.534-19.482c-1.309-6.301-2.536-12.571-3.286-18.963c-0.604-6.352-0.728-12.721-0.934-19.104
			c-0.11-3.382-0.285-6.764-0.369-10.146c-0.068-3.086,0.167-6.174,0.395-9.254c0.276-3.749-3.072-6.981-6.696-7.082h-0.2
			c-3.777,0-6.609,3.01-6.879,6.688c-0.739,10.044-0.739,20.111-0.798,30.18c-0.034,4.857,0.008,9.768,0.446,14.608
			c0.002,0.017,0.004,0.034,0.005,0.051c0.229,0.171,0.455,0.346,0.683,0.517c1.492,1.122,2.962,2.304,4.27,3.641
			c1.221,1.25,2.417,2.527,3.639,3.774c1.188,1.213,0.934,3.311-0.285,4.383c-1.326,1.162-3.196,0.917-4.383-0.288
			c-0.477-0.488-0.951-0.976-1.444-1.447c-0.463-0.379-0.941-0.73-1.434-1.057c0.294,2.423,0.597,4.846,0.876,7.272
			c0.711,7.081,1.291,14.172,1.842,21.266c0.83,1.738,1.551,3.551,2.087,5.468c1.778,6.365,1.562,12.798-0.209,18.694
			c0.289,3.59,0.617,7.177,0.945,10.764c0.227,0.155,0.463,0.3,0.675,0.471c0.618,0.496,1.275,1.038,1.887,1.625
			c0.564,0.544,0.987,1.156,1.374,1.735c0.544,0.835,0.911,1.718,1.247,2.691l-0.087-0.305c0.079,0.214,0.164,0.432,0.251,0.649
			c0.245,0.618,0.499,1.255,0.612,1.912c0.135,0.801,0.217,1.639,0.243,2.491c0.051,1.718-0.491,3.59-1.447,5.015
			c-0.833,1.225-1.842,2.31-2.916,3.226c0.135,1.454,0.291,2.905,0.422,4.361c0.429,4.775,0.68,9.573,1.182,14.348
			c1.185,11.336,2.888,22.57,4.372,33.864c1.368,10.402,3.114,20.714,5.252,31.001c0.514,2.487,1.129,4.963,1.769,7.434
			c-0.866,1.826-1.736,3.65-2.586,5.479c-3.286,7.06-7.026,15.059-9.793,23.332c-3.405,10.18-5.534,18.478-6.702,26.127
			c-0.561,3.746-1.084,7.325-1.588,10.83c-0.265-1.096-0.545-2.188-0.81-3.284c-1.266-5.286-2.451-10.58-3.565-15.9
			c-1.108-5.212-1.989-10.464-3.021-15.691c-2.158-10.89-4.699-21.665-7.3-32.454c-2.575-10.69-5.227-21.346-7.266-32.143
			c-1.016-5.362-1.763-10.792-2.584-16.187c-0.815-5.3-1.721-10.586-2.541-15.888c-0.84-5.354-1.78-10.682-2.745-16.01
			c-0.044-0.242-0.073-0.486-0.116-0.728c-0.504,0.011-0.998,0.042-1.505,0.042c-1.777,0-3.605-0.068-5.43-0.203
			c-1.785-0.135-3.591-0.384-5.517-0.764l-0.245-0.048c-1.266-0.254-2.578-0.513-3.816-0.97c-1.585-0.587-3.249-1.238-4.657-2.211
			c-0.976-0.674-1.757-1.326-2.389-1.986c-0.381-0.389-0.905-1.004-1.247-1.703c-0.279-0.576-0.576-1.258-0.649-1.96l-0.023-0.228
			c-0.065-0.607-0.133-1.236-0.054-1.848c0.071-0.558,0.169-1.114,0.282-1.667c0.189-0.965,0.59-1.845,1.018-2.736
			c0.601-1.249,1.551-2.505,2.823-3.723c0.84-0.801,1.784-1.455,2.742-2.065c-5.31-4.265-9.403-10.143-11.375-17.197
			c-4.323-15.471,2.893-31.436,16.451-38.778c-0.459-2.911-0.904-5.823-1.29-8.737c-0.333-3.396-0.615-6.794-0.806-10.198
			c-0.497-0.685-0.873-1.43-1.053-2.275c-0.214-1.083-0.144-2.141,0.209-3.182c0.121-0.504,0.327-0.985,0.573-1.452
			c-0.115-4.224-0.196-8.446-0.283-12.674c-0.107-5.63-0.183-11.26-0.226-16.89c-0.042-5.176-0.234-10.343-0.234-15.522
			c-0.008-10.47,0.77-20.926,0.728-31.405c-0.008-2.601-0.353-5.238-0.51-7.844c-0.178-2.837-0.276-5.681-0.344-8.518
			c-0.118-5.562,0.386-11.158,0.829-16.695c0.389-4.823,1.032-9.607,1.684-14.394c2.445-13.705,5.39-27.312,8.628-40.851
			c1.763-7.367,3.357-14.766,5.179-22.125c0.812-3.306,1.661-6.561,2.691-9.81c1.066-3.339,2.536-6.561,3.938-9.765
			c0.914-2.115-0.849-4.64-2.846-5.235c-0.42-0.127-0.827-0.183-1.216-0.183c-1.825,0-3.258,1.289-4.011,3.018
			c-2.031,4.648-3.977,9.314-5.774,14.064c-1.912,5.04-3.255,10.354-4.713,15.547c-1.495,5.277-3.046,10.521-4.792,15.722
			c-1.636,4.894-3.624,9.649-5.269,14.549c-1.746,5.213-3.145,10.541-4.614,15.835c-1.444,5.167-2.601,10.394-3.641,15.663
			c-1.024,5.179-1.831,10.405-2.77,15.601c-1.114,6.098-1.972,12.233-2.491,18.407c-0.437,5.227-0.781,10.473-1.393,15.682
			c-0.623,5.244-1.368,10.47-1.989,15.714c-0.604,5.162-1.47,10.337-1.771,15.522c-0.319,5.531-0.688,11.059-0.804,16.599
			c-0.234,10.814-0.573,21.628-0.42,32.454c0.166,11.889,1.938,23.744,3.608,35.492c1.495,10.47,2.885,20.957,4.555,31.396
			c1.664,10.445,2.493,21.002,3.878,31.481c0.358,2.729,0.742,5.454,1.118,8.18c0.053-0.041,0.107-0.083,0.161-0.123
			c0.926-1.141,1.771-2.344,2.484-3.632c1.187-2.468,2.189-5.043,2.77-7.717c0.24-1.128,1.382-2.166,2.369-2.634
			c0.626-0.296,1.309-0.446,1.991-0.446c0.525,0,1.049,0.087,1.549,0.265c1.918,0.68,3.252,2.649,3.069,4.693
			c-0.039,0.482-0.155,0.956-0.254,1.43c-0.172,0.801-0.316,1.622-0.55,2.406c-0.344,1.156-0.818,2.293-1.292,3.402
			c-1.19,2.798-2.578,5.545-4.572,7.858c-1.461,1.698-2.979,3.162-4.843,4.383c-0.49,0.324-0.985,0.646-1.49,0.952
			c0.514,4.216,1.034,8.433,1.565,12.649c1.419,11.116,2.953,22.184,5.32,33.148c2.29,10.633,4.902,21.197,7.52,31.76
			c2.615,10.538,4.344,21.245,6.544,31.875c1.256,6.097,2.593,12.172,3.967,18.239c-1.71-1.673-3.368-3.321-4.951-4.926
			l-0.482-0.497l-0.384-0.389c-2.815-2.86-5.723-5.813-8.752-8.558c-2.897-2.626-6.016-5.393-10.137-8.967
			c-2.185-1.901-4.429-3.774-6.67-5.641c-2.516-5.006-4.995-10.03-7.429-15.078c-7.559-15.716-12.075-32.767-15.965-49.69
			c-1.805-7.844-3.114-15.781-4.724-23.659c-0.849-4.146-1.644-8.29-2.443-12.444c-0.829-4.33-1.777-8.651-2.541-12.997
			c-0.734-4.204-1.366-8.431-1.971-12.663c-0.221,0.067-0.444,0.145-0.663,0.211l-1.001,0.305c-0.97,0.302-1.972,0.612-2.984,0.821
			c-0.852,0.175-1.707,0.319-2.561,0.463c-0.525,0.087-1.046,0.178-1.568,0.271c-2.555,0.474-5.306,0.956-8.106,1.278
			c-2.24,0.262-4.53,0.361-6.747,0.457c-0.883,0.037-1.763,0.073-2.643,0.121c-1.23,0.068-2.493,0.104-3.76,0.104
			c-1.777,0-3.605-0.068-5.43-0.203c-1.785-0.135-3.591-0.384-5.517-0.764l-0.245-0.048c-1.266-0.254-2.578-0.513-3.816-0.97
			c-1.585-0.587-3.249-1.238-4.657-2.211c-0.976-0.674-1.757-1.326-2.392-1.986c-0.378-0.389-0.903-1.004-1.244-1.704
			c-0.279-0.575-0.576-1.258-0.649-1.96l-0.023-0.226c-0.065-0.609-0.133-1.238-0.054-1.85c0.071-0.558,0.169-1.114,0.282-1.667
			c0.189-0.965,0.59-1.845,1.018-2.736c0.601-1.249,1.554-2.505,2.823-3.723c1.298-1.238,2.84-2.177,4.307-3.035l0.138-0.082
			c1.148-0.674,2.338-1.371,3.537-2.003c0.805-0.428,1.64-0.78,2.504-1.124c-4.284-4.062-7.582-9.269-9.285-15.363
			c-5.021-17.962,5.486-36.617,23.445-41.638c6.104-1.706,12.277-1.582,17.979-0.018c-0.045-3.134-0.097-6.268-0.048-9.403
			c0.036-2.418,0.133-4.835,0.213-7.252c-1.475,0.681-3.166,0.595-4.765,0.626c-1.029,0.023-2.065,0.056-3.094,0.056
			c-1.729-0.006-3.444-0.039-5.164,0.025c-2.747,0.327-5.438,1.131-8.067,1.988c-2.835,1.041-5.582,2.406-8.284,3.732
			c-3.024,1.481-5.887,3.207-8.685,5.057c-2.141,1.486-4.197,3.108-6.064,4.928c-1.924,1.873-3.704,3.881-5.489,5.881
			c-1.1,1.264-2.177,2.536-3.244,3.828c-1.108,1.348-2.031,2.812-2.914,4.321c-0.73,1.252-2.555,1.489-3.701,0.716
			c-1.261-0.857-1.45-2.448-0.716-3.703c0.877-1.503,1.754-2.998,2.722-4.445c0.965-1.45,2-2.852,3.077-4.225
			c2.296-2.922,4.564-5.864,7.136-8.552c2.964-3.089,6.27-5.861,9.762-8.338c3.509-2.491,7.291-4.603,11.006-6.769
			c1.687-0.982,3.467-1.743,5.266-2.488c2.101-0.874,4.271-1.706,6.496-2.186c2.014-0.432,4.039-0.714,6.084-0.922
			c1.111-0.113,2.217-0.248,3.326-0.378c0.883-0.101,1.816-0.243,2.73-0.243c0.843,0,1.675,0.121,2.44,0.502
			c0.209,0.073,0.384,0.195,0.578,0.288c0.106-2.005,0.194-4.013,0.316-6.016c0.226-3.726,0.578-7.441,0.79-11.167
			c0.234-4.129,0.46-8.259,0.812-12.368c0.688-7.979,1.568-15.942,2.584-23.879c0.942-7.257,2.149-14.481,3.339-21.707
			c1.049-6.778,2.115-13.567,3.204-20.345c-0.107,0.688-0.226,1.376-0.336,2.062c0.369-2.423,0.714-4.84,0.999-7.272
			c0.288-2.519,0.42-5.052,0.666-7.571c0.537-5.395,1.395-10.754,2.256-16.106c0.179-1.1,0.359-2.197,0.537-3.3
			c-0.068,0.378-0.127,0.753-0.192,1.142c0.485-3.182,0.982-6.369,1.518-9.542c0.198-1.29,0.406-2.581,0.612-3.871
			c1.023-6.469,2.289-12.881,3.853-19.252c1.359-5.545,2.474-11.141,3.766-16.706c1.419-6.14,3.055-12.233,4.809-18.283
			c1.752-6.03,3.943-11.889,6.081-17.787c2.871-7.895,5.999-15.68,9.071-23.493c3.17-8.056,6.109-16.269,10.177-23.921
			c4.002-7.525,8.383-14.884,12.856-22.133c2.172-3.526,4.335-7.057,6.854-10.346c0.11-0.141,0.226-0.285,0.336-0.426
			c3.229-5.582,6.738-11.017,10.193-16.447c1.188-1.867,2.369-3.735,3.577-5.59c-0.101,0.014-0.203,0.028-0.302,0.045
			c-0.917-0.093-1.822-0.144-2.711-0.144c-0.513,0-1.015,0.017-1.52,0.042c-4.615,0.293-9.127,1.326-13.728,2.451
			c-2.967,0.728-5.906,1.955-8.49,3.035l-1.972,0.832c-1.686,0.69-3.404,1.465-5.18,2.315c-0.168-0.017-0.327-0.075-0.497-0.075
			c-0.471,0-0.948,0.065-1.419,0.2c-1.602,0.457-3.201,0.917-4.775,1.464c-1.943,0.685-3.816,1.754-5.605,2.773
			c-2.366,1.348-4.488,3.156-6.62,4.829c-4.761,3.729-9.333,7.712-13.936,11.638c-0.66,0.547-1.32,1.097-1.977,1.647
			c-2.55,2.113-5.193,4.118-7.697,6.296c-2.256,1.96-4.423,4.019-6.555,6.115c-4.101,4.022-7.977,8.231-11.99,12.332
			c-2.104,2.149-4.361,4.138-6.6,6.152c-1.96,1.763-3.76,3.704-5.523,5.667c-2.096,2.338-3.932,4.956-5.774,7.5
			c-2.194,3.032-4.321,6.132-6.476,9.192c-1.125,1.566-2.24,3.136-3.351,4.708c-3.052,4.259-6.09,8.527-9.071,12.831
			c-2.643,3.822-4.964,7.799-7.139,11.9c-4.203,7.915-8.104,15.993-12.233,23.95c-4.22,8.132-9.04,15.976-12.501,24.474
			c-1.613,3.957-3.241,7.923-4.832,11.9c-2.096,5.252-3.977,10.541-5.72,15.919c-2.733,8.465-4.524,17.16-6.611,25.803
			c-2.113,8.752-3.633,17.685-5.001,26.59c-1.41,9.235-1.898,18.599-3.514,27.808c-1.819,10.306-3.114,20.743-3.331,31.21
			c-0.161,7.886-0.601,15.767-0.773,23.654c-0.206,9.102,0.324,18.269,0.99,27.343c0.612,8.301,0.505,16.642,1.027,24.951
			c0.276,4.586,0.53,9.173,0.835,13.75c0.152,2.178,0.271,4.363,0.522,6.521c0.274,2.302,0.702,4.578,1.123,6.857
			c0.389,2.606,0.626,5.218,0.937,7.833c0.505,4.138,1.413,8.194,2.358,12.25c0.234,0.997,0.434,2.003,0.655,3.004
			c2.916,2.615,5.903,5.15,8.964,7.589c4.098,3.055,8.321,5.878,12.803,8.346c1.602,0.88,3.207,1.74,4.82,2.584
			c2.344,0.888,4.702,1.746,7.051,2.606c2.728,1.007,5.461,1.941,8.222,2.832c1.816,0.595,3.579,1.314,5.305,2.132
			c2.996,1.393,5.954,4.739,6.558,8.013c0.62,3.365,0.539,6.431-1.241,9.46c-1.089,1.845-2.555,3.311-4.4,4.409
			c-1.966,1.151-4.084,1.664-6.205,1.633c0.003,0.011,0.006,0.026,0.011,0.04c-2.099,0.18-4.409-0.305-6.414-0.691
			c-1.808-0.353-3.599-0.81-5.334-1.43c-2.995-1.063-5.974-2.169-8.93-3.311c-4.499-1.737-9.019-3.499-13.388-5.558
			c0.79,3.508,1.693,6.987,2.79,10.419c0.776,2.4,1.495,4.829,2.293,7.229c0.324,0.99,0.505,2.025,0.829,3.012
			c0.4,1.241,0.88,2.392,1.413,3.554c-0.118-0.251-0.237-0.502-0.353-0.753c0.916,1.988,1.242,4.45,2.7,6.143
			c-1.686,0.478-3.37,0.967-5.043,1.495c-5.825,2.127-11.638,4.406-17.178,7.195c-5.675,2.849-11.198,5.94-16.599,9.263
			c-6.924,4.967-13.085,11.071-18.698,17.465c-5.681,6.818-11,13.962-15.158,21.823c-3.224,7.187-5.74,14.67-8.631,21.992
			c-0.747,1.904-1.599,3.791-2.29,5.715c-0.719,2.014-1.348,4.048-1.96,6.098c-1.199,3.98-2.437,7.895-3.421,11.92
			c-0.759,4.008-1.41,8.019-1.87,12.078c-0.482,4.259-0.711,8.555-0.905,12.836c-0.355,7.929-0.406,15.835-0.003,23.755
			c0.443,6.338,1.08,12.684,1.949,18.971c0.942,6.851,1.822,13.714,3.007,20.523c1.402,8.013,3.17,15.939,5.379,23.766
			c2.22,7.875,4.445,15.75,6.595,23.639c2.172,7.96,4.55,15.835,6.927,23.73c1.125,3.706,2.183,7.435,3.3,11.147
			c1.131,3.757,2.355,7.48,3.579,11.206c1.881,5.368,3.935,10.676,5.951,15.996c2.178,5.72,4.502,11.39,7.063,16.946
			c2.522,5.469,5.088,10.916,7.737,16.32c3.811,2.53,7.81,4.744,11.914,6.8c3.128,1.405,6.242,2.674,9.565,3.5
			c2.087,0.296,4.158,0.344,6.265,0.271c1.258-0.121,2.482-0.319,3.709-0.564c0.398-1.106,0.773-2.217,1.128-3.337
			c0.651-2.017,1.311-4.031,1.881-6.076c-0.195-2.448-0.389-4.899-0.609-7.339c-0.034-0.099-0.068-0.197-0.093-0.296
			c-1.464-4.44-2.761-8.916-4.22-13.344c-3.452-9.937-7.272-19.747-11.192-29.501c-2.271-5.661-4.251-11.39-6.078-17.211
			c-1.427-4.561-2.801-9.136-4.282-13.677c-3.004-8.445-6.468-16.754-9.192-25.295c-1.176-3.687-1.879-7.48-2.55-11.288
			c-0.609-3.43-1.357-6.82-2.09-10.219c-0.773-3.619-1.611-7.221-2.285-10.857c-0.793-4.245-1.3-8.498-1.501-12.817
			c-0.175-3.729-0.172-7.503,0.003-11.237c0.09-2.121,0.178-4.236,0.417-6.341c0.279-2.429,0.781-4.854,1.3-7.241
			c1.709-7.878,4.956-15.496,9.325-22.274c1.788-2.77,3.977-5.308,6.073-7.847c2.66-3.23,5.588-6.287,9.003-8.733
			c2.076-1.487,4.197-3.007,6.518-4.101c2.256-1.06,4.566-1.859,6.941-2.634c3.421-1.117,7.054-2.005,10.636-2.468
			c3.246-0.415,6.394-0.135,9.551,0.415c1.049,0.183,2.11,0.403,3.17,0.632c3.013,0.643,6.169,1.487,8.989,2.753
			c2.265,1.027,4.507,2.099,6.535,3.543c1.312,0.928,2.601,1.895,3.898,2.854c2.863,2.135,5.616,4.411,8.36,6.699
			c3.337,2.787,6.673,5.576,9.79,8.611c2.612,2.541,5.029,5.28,7.35,8.095c5.165,6.259,9.824,12.893,14.298,19.654
			c4.341,6.558,8.58,13.2,12.602,19.961c4.273,7.187,8.899,14.159,13.361,21.233c4.2,6.628,8.225,13.378,12.509,19.961
			c5.379,7.906,10.797,15.804,16.402,23.555c2.84,3.926,5.839,7.723,8.673,11.643c2.894,4.005,5.715,8.05,8.544,12.095
			c4.744,6.809,9.48,13.598,14.501,20.207c4.984,6.569,10.14,13.034,15.42,19.372c1.274,1.528,2.565,3.042,3.849,4.561
			c0.264-0.569,0.521-1.143,0.787-1.712c2.29-4.911,5.052-9.472,8.03-13.993c1.193-1.808,2.434-3.582,3.667-5.362
			c0.29-0.516,0.584-1.032,0.877-1.549c0.872-1.512,1.986-3.461,3.173-4.883c2.485-2.97,6.135-4.626,9.861-4.626
			c1.738,0,3.492,0.361,5.151,1.117c3.887,1.774,7.088,5.827,7.314,10.208c0.161,3.024-0.054,3.76-1.063,6.558
			c-0.358,0.981-1.977,3.255-1.907,3.137c-0.276,0.454-0.592,0.866-0.9,1.297c-0.268,0.378-0.533,0.759-0.801,1.14
			c-1.08,1.841-2.118,3.708-3.124,5.591c-0.585,1.181-1.185,2.355-1.755,3.543c-2.24,4.86-4.38,9.748-6.679,14.577
			c-1.199,2.658-2.269,5.357-3.295,8.075c0.026,0.032,0.054,0.064,0.08,0.096c2.609,3.199,5.15,6.454,7.731,9.672
			c5.006,6.259,10.151,12.343,15.558,18.255c5.351,5.839,10.758,11.596,15.914,17.618c5.258,6.14,10.778,11.985,16.523,17.674
			c2.945,2.925,5.915,5.819,8.955,8.659c2.499,2.344,5.119,4.564,7.709,6.815c2.883,2.471,5.816,4.882,8.654,7.407
			c2.451,2.166,4.812,4.425,7.167,6.693c4.668,4.496,9.452,8.859,14.295,13.161c3.089,2.523,6.28,4.93,9.508,7.29
			c-0.043-0.024-0.086-0.046-0.129-0.07c0.341,0.249,0.688,0.488,1.03,0.736c1.376,0.999,2.761,1.984,4.15,2.965
			c0.746,0.526,1.486,1.059,2.234,1.582c1.352,0.945,2.707,1.883,4.062,2.82c0.673,0.466,1.345,0.936,2.018,1.4
			c8.033,5.542,16.509,10.414,25.236,14.774c6.008,2.871,12.033,5.678,18.041,8.543c0.187,0.089,0.376,0.178,0.563,0.267
			c1.424,0.678,2.851,1.355,4.284,2.029c0.108,0.051,0.218,0.1,0.326,0.151c0.087,0.041,0.174,0.08,0.261,0.121
			c0.48,0.224,0.96,0.445,1.442,0.667c0.863,0.398,1.729,0.79,2.598,1.176c0.264,0.117,0.527,0.234,0.791,0.349
			c0.44,0.193,0.881,0.377,1.323,0.565c0.88,0.376,1.765,0.738,2.654,1.093c0.325,0.13,0.646,0.268,0.972,0.395
			c0.326,0.126,0.656,0.24,0.983,0.362c0.426,0.16,0.845,0.339,1.274,0.493c0.037,0,0.075-0.004,0.111-0.004
			c0.867,0.31,1.728,0.64,2.605,0.92c0.008,0.002,0.015,0.006,0.023,0.008c1.334,0.423,2.671,0.849,4.011,1.266
			c0.005-0.003,0.01-0.006,0.015-0.009c5.125,1.609,10.26,3.179,15.428,4.634c2.612-1.159,5.142-2.479,7.438-4.2
			c3.963-2.99,7.41-6.527,10.487-10.411c2.863-3.605,5.571-7.246,7.562-11.395c0.061-0.125,0.103-0.255,0.162-0.381
			c0.871-0.938,1.659-1.857,2.327-2.666c0.694-0.835,1.331-1.667,1.96-2.536c1.382-1.915,2.338-4.124,3.258-6.265
			c0.646-1.503,0.922-2.987,1.19-4.431l0.161-0.869c0.251-1.292,0.502-2.586,0.747-3.89c0.395-2.152,0.871-4.293,1.345-6.434
			c0.448-2.025,0.903-4.048,1.278-6.095l0.172-0.888c0.443-2.327,0.897-4.733,1.035-7.13l0.096-1.721l0.096-1.718
			c0.203-3.661-0.07-7.494-0.843-11.717c-0.618-3.388-1.483-6.8-2.33-10.101c-0.341-1.32-0.688-2.648-1.01-3.974l-0.319-1.3
			c-0.894-3.655-1.819-7.429-2.454-11.212c-0.254-1.518-0.499-3.052-0.742-4.575c-0.479-2.953-0.95-5.915-1.5-8.862
			c-1.211-6.502-3.253-13.409-6.234-21.311c0.178-0.163,0.342-0.341,0.519-0.506c-4.927-16.594-11.267-32.916-17.896-48.379
			c-0.312,0.296-0.61,0.605-0.924,0.899c-1.251-2.834-2.54-5.648-3.958-8.403c-2.079-4.042-4.146-8.092-6.115-12.185
			c-1.845-3.822-3.396-7.773-5.19-11.621c-1.924-4.109-4.093-8.089-6.163-12.134c-2.127-4.152-4.104-8.383-6.008-12.647
			l-0.082-0.192c-0.511-0.818-1.002-1.65-1.494-2.48c-0.19-0.322-0.389-0.639-0.575-0.964c-2.045-3.56-3.994-7.161-5.926-10.786
			c-1.799-3.393-3.534-6.826-5.297-10.244c-1.769-3.436-3.706-6.772-5.616-10.129c-4.025-7.091-7.915-14.281-11.274-21.713
			c-3.207-7.094-6.349-14.21-9.711-21.239c-3.526-7.359-7.156-14.664-10.778-21.984c-1.743-3.531-3.447-7.08-5.396-10.504
			c-2.062-3.641-4.155-7.269-6.143-10.947c-1.77-3.27-3.495-6.565-5.199-9.871c-0.13-0.252-0.264-0.502-0.393-0.754
			c-1.765-3.433-3.505-6.879-5.236-10.329c-3.28-6.527-6.109-13.195-8.6-20.063c-2.829-7.793-5.404-15.663-7.773-23.606
			c-1.111-3.695-1.876-7.353-2.228-11.189c-0.409-4.382-0.744-8.751-0.997-13.14c-0.043-0.744-0.073-1.487-0.106-2.231
			c-0.007-0.15-0.014-0.3-0.02-0.451c-0.013-0.325-0.034-0.648-0.043-0.973c-0.036-1.226-0.046-2.452-0.002-3.679
			c0.124-3.488,0.635-6.942,1.466-10.336c0.257-1.047,0.577-2.083,0.93-3.108c0.093-0.27,0.198-0.536,0.297-0.805
			c0.281-0.759,0.588-1.509,0.918-2.249c0.587-1.312,1.228-2.599,1.956-3.825c0.755-1.267,1.537-2.547,2.376-3.786
			c1.108-1.643,2.316-3.216,3.757-4.56c3.089-2.894,6.62-5.224,10.572-6.738c4.578-1.763,9.308-2.412,14.199-2.477
			c3.357-0.045,6.693,0.395,9.991,0.97c0.415,0.073,0.818,0.152,1.224,0.22c4.045,0.742,8.341,1.357,12.126,3.083
			c3.921,1.791,7.678,3.751,11.13,6.358c3.605,2.716,7.054,5.644,10.182,8.899c2.73,2.843,5.156,6.028,7.43,9.243
			c2.747,3.887,5.486,7.799,8.123,11.77c4.231,6.352,8.507,12.735,12.19,19.428c3.949,7.153,7.703,14.427,11.339,21.75
			c1.828,3.667,3.275,7.523,4.947,11.271c1.602,3.585,3.235,7.167,4.922,10.727c0.522,1.111,1.06,2.22,1.599,3.326
			c0.133,0.014,0.276,0.031,0.417,0.048c1.608,0.155,3.726,0.276,5.754-0.127l0.319-0.065c1.261-0.246,2.347-0.468,3.497-1.016
			c2.35-1.111,3.813-2.169,5.404-3.875c1.331-1.43,2.358-3.156,3.184-4.665c0.522-0.939,0.922-1.78,1.224-2.561
			c1.109-2.942,1.847-5.379,2.341-7.658c0.807-3.743,1.204-7.618,1.585-11.37l0.135-1.269l0.228-2.225
			c0.073-0.688,0.144-1.371,0.217-2.054C854.128,613.061,854.105,612.658,854.086,612.252z"/>
		<g>
			<path fill="#FFE14C" d="M689.809,914.691c-1.963-1.785-3.935-3.574-5.85-5.421c-2.079-1.997-4.169-3.994-6.234-6.014
				c-1.958-1.919-3.723-3.937-5.401-6.094c-0.534-0.722-1.07-1.441-1.595-2.173c-0.739-1.004-1.453-1.785-2.702-2.155
				c-0.423-0.127-0.857-0.186-1.289-0.186c-0.784,0-1.563,0.197-2.254,0.581c-1.038,0.578-1.822,1.56-2.166,2.702
				c-0.307,1.055-0.282,2.601,0.398,3.54c1.929,2.651,3.819,5.396,6.016,7.844c2.223,2.476,4.51,4.885,6.803,7.291
				c4.112,4.347,8.197,8.693,12.487,12.865c2.023,1.963,5.249,2.132,7.322,0.118c2.039-1.983,2.056-5.272,0.118-7.319
				C693.634,918.341,691.773,916.488,689.809,914.691z M646.56,727.083c-1.475-8.247-3.114-16.472-4.716-24.703
				c-1.568-8.019-3.196-15.993-5.337-23.876c-2.231-8.191-4.454-16.371-6.293-24.66c-1.769-7.954-3.413-15.934-4.998-23.93
				c-0.462-2.322-0.91-4.64-1.342-6.959c-1.077-5.783-2.005-11.574-2.46-17.473c-0.646-8.391-0.747-16.783-0.79-25.196
				c-0.048-7.754,0.186-15.457,0.832-23.182c0.336-4.02,1.089-8.039,1.777-12.007c0.781-4.457,1.661-8.91,2.651-13.324
				c0.454-2.031,0.948-4.053,1.478-6.059c-0.496,0.922-0.982,1.856-1.436,2.778c-1.577,3.187-3.12,6.671-4.352,9.472l-0.9,2.031
				c-2.149,4.818-4.431,9.632-6.637,14.289l-0.211,0.446c-1.306,2.742-2.615,5.495-3.898,8.247l-0.254,0.539
				c-3.255,7.012-6.862,14.791-9.531,22.796c-3.416,10.177-5.545,18.483-6.713,26.144c-1.416,9.438-2.651,18.108-3.76,26.488
				l-0.031,0.217l-0.051,0.369c-0.471,3.602-0.998,7.686-1.3,11.697c-0.344,4.899-0.446,9.993-0.522,13.708l-0.008,0.454
				l-0.017,0.296c-0.804-1.74-1.743-3.407-2.651-5.012l-0.319-0.578c-0.956-1.704-1.921-3.416-2.911-5.1
				c-2.299-3.971-4.984-7.509-7.551-10.749c-2.995-3.768-6.284-7.074-10.312-10.873c-3.608-3.424-6.939-6.688-9.9-9.7l-0.488-0.496
				l-0.384-0.392l-0.169-0.169c-2.753-2.795-5.587-5.681-8.583-8.383c-3.072-2.775-6.194-5.545-10.137-8.969
				c-5.269-4.581-10.614-8.944-16.554-13.759l-0.259-0.217l-3.935-3.198c-6.798-5.537-14.137-11.367-21.817-16.503
				c-4-2.677-8.027-5.303-12.064-7.929l-1.802-1.168c-3.306-2.155-7.015-4.564-10.707-6.392c-2.962-1.461-6.504-3.131-10.295-4.44
				l-0.285-0.102l-1.142-0.369c-0.655,0.178-1.258,0.262-1.819,0.262c-0.268,0-0.547-0.017-0.815-0.068
				c-1.687-0.293-3.455-0.756-4.95-2.155l-0.646-0.135l-0.522-0.102c-1.661-0.285-3.396-0.401-5.083-0.519l-1.334-0.076
				c-1.929-0.135-3.867-0.234-5.807-0.336l-0.956-0.051c-2.197-0.102-4.237-0.2-6.276-0.327c-4.708-0.31-9.063-0.697-13.305-1.19
				c-0.907,0.224-1.785,0.45-2.657,0.677c-3.299,0.859-6.37,1.742-9.311,2.677c-5.134,1.864-11.192,4.172-17.183,7.192
				c-5.621,2.818-11.201,5.94-16.605,9.263c-6.132,4.395-12.25,10.109-18.709,17.468c-6.73,8.081-11.556,15.02-15.161,21.832
				c-2.073,4.617-3.878,9.44-5.624,14.097l-0.107,0.285c-0.95,2.55-1.904,5.091-2.897,7.618c-0.285,0.714-0.578,1.427-0.88,2.132
				l-0.217,0.527c-0.412,1.015-0.832,2.022-1.199,3.055c-0.623,1.752-1.269,3.749-1.957,6.09l-0.612,2.014
				c-1.066,3.489-2.014,6.648-2.809,9.911c-0.84,4.428-1.436,8.27-1.881,12.089c-0.46,4.138-0.688,8.264-0.905,12.848
				c-0.378,8.532-0.378,16.3,0,23.752c0.463,6.544,1.117,12.921,1.946,18.968l0.544,3.96c0.657,4.851,1.478,10.885,2.468,16.562
				c1.376,7.847,3.094,15.513,5.119,22.813c-0.276-7.037-0.322-14.086-0.076-21.135c0.285-8.27,1.661-16.554,3.12-24.692
				c0.764-4.313,1.495-8.651,2.485-12.93c0.922-3.977,1.912-7.954,3.599-11.688c1.955-4.344,4.002-8.651,6.267-12.845
				c1.988-3.684,4.228-7.232,6.496-10.746c2.062-3.207,4.093-6.513,6.375-9.576c2.57-3.458,5.314-6.778,8.03-10.117
				c2.778-3.416,5.672-6.764,8.676-9.976c2.626-2.829,5.396-5.622,8.459-7.988c7.274-5.59,15.773-9.471,24.576-11.973
				c8.061-2.29,16.546-2.77,24.866-1.963c1.113,0.109,2.222,0.269,3.333,0.406c3.103,0.382,6.197,0.835,9.261,1.417
				c2.939,0.553,6.093,1.063,8.927,2.056c2.426,0.852,4.784,1.853,7.133,2.866c8.123,3.467,15.917,7.427,23.259,12.334
				c1.754,1.176,3.416,2.51,5.1,3.768c1.622,1.202,3.258,2.392,4.818,3.65c3.323,2.668,6.611,5.379,9.9,8.078
				c3.416,2.804,6.947,5.565,10.07,8.693c3.111,3.123,6.084,6.344,8.978,9.675c5.418,6.236,10.368,12.904,16.007,18.937
				c3.145,3.372,6.346,6.692,9.549,10.012c2.83,2.933,5.662,5.865,8.449,8.841c5.791,6.177,11.133,12.729,16.472,19.282
				c5.218,6.394,10.631,12.602,15.632,19.163c5.134,6.73,10.292,13.435,15.905,19.778c5.328,6.008,11.22,11.519,16.673,17.409
				c0.443,0.477,0.883,0.953,1.326,1.43c1.989,0.728,4.002,1.368,6.042,1.895c2.039,0.29,4.062,0.409,6.132,0.4
				c2.336-0.262,4.589-0.73,6.84-1.385c2.206-0.914,4.279-1.997,6.327-3.216c1.024-0.753,1.989-1.549,2.894-2.457
				c1.151-1.436,2.214-2.922,3.201-4.468c0.025-0.494,0.054-0.99,0.079-1.489c0.336-6.51,0.203-12.994-0.082-19.499
				C649.708,745.115,648.188,736.109,646.56,727.083z M791.439,965.579c-1.052-1.165-2.192-2.265-3.275-3.404
				c-1.853-1.932-3.664-3.912-5.404-5.943c-3.768-4.389-7.827-8.493-11.652-12.811c-3.734-4.205-7.511-8.391-11.167-12.662
				c-3.472-4.05-7.105-8.019-10.371-12.244c-1.91-2.654-3.782-5.337-5.709-7.977c-2.248-3.089-4.547-6.135-6.752-9.254
				c-2.282-3.216-4.454-6.496-6.628-9.793c-2.223-3.388-4.313-6.863-6.654-10.177c-4.462-6.327-9.105-12.518-13.372-18.98
				c-2.115-3.187-4.036-6.51-6.042-9.776c-1.963-3.201-4.028-6.341-6.045-9.514c-1.8-2.818-3.545-5.686-5.275-8.549
				c-1.802-2.996-3.407-6.115-5.119-9.161c-3.482-6.196-7.199-12.384-9.917-18.956c-0.251-0.642-0.505-1.283-0.753-1.928
				c-0.57-1.478-1.159-2.634-2.567-3.492c-0.897-0.541-1.921-0.824-2.95-0.824c-0.451,0-0.9,0.056-1.34,0.161
				c-1.453,0.361-2.727,1.292-3.497,2.567c-0.697,1.151-1.168,2.981-0.657,4.299c0.874,2.245,1.715,4.521,2.671,6.736
				c0.838,1.949,1.802,3.828,2.767,5.706c1.797,3.517,3.506,7.057,5.142,10.648c1.58,3.45,3.038,6.964,4.691,10.388
				c1.613,3.314,3.359,6.552,5.162,9.768c3.76,6.702,7.181,13.581,11.034,20.235c1.946,3.357,3.926,6.688,6.013,9.96
				c2.005,3.148,4.09,6.259,6.033,9.438c4.155,6.806,7.861,13.869,12.1,20.627c1.997,3.179,4.155,6.267,6.307,9.336
				c2.11,3.012,4.121,6.084,6.194,9.122c2.409,3.54,5.153,6.913,7.771,10.304c2.256,2.936,4.572,5.833,6.961,8.656
				c2.124,2.519,4.163,5.103,6.203,7.695c2.499,3.19,5.153,6.2,7.836,9.229c2.409,2.719,4.691,5.557,7.116,8.259
				c1.543,1.712,3.139,3.379,4.758,5.018c2.313,2.324,4.967,5.317,8.321,5.906c1.673,0.494,3.351,0.528,5.043,0.116
				c1.687-0.417,3.154-1.224,4.406-2.431c1.202-1.176,2.048-2.567,2.533-4.177c0.488-1.67,0.53-3.351,0.118-5.038
				C795.188,970.011,793.131,967.461,791.439,965.579z M821.561,960.355c-0.604-1.819-0.948-3.757-1.461-5.613
				c-1.013-3.65-2.161-7.257-3.427-10.834c-2.897-8.18-6.47-16.185-10.346-23.944c-3.641-7.283-7.847-14.233-11.816-21.338
				c-3.574-6.378-6.888-12.896-10.473-19.282c-1.927-3.438-3.924-6.837-5.856-10.278c-1.87-3.337-3.497-6.82-5.133-10.275
				c-3.458-7.3-6.848-14.636-10.337-21.919c-3.441-7.156-6.812-14.349-9.954-21.64c-3.184-7.398-6.341-14.791-9.866-22.032
				c-5.579-11.471-11.062-22.991-15.747-34.863c-0.781-2.011-1.56-4.025-2.347-6.033c-2.161-5.805-4.299-11.612-6.504-17.4
				c-2.355-6.186-5.111-12.225-7.602-18.359c-1.159-3.015-2.307-6.039-3.339-9.096c-1.3-3.833-2.44-7.709-3.732-11.533
				c-1.227-3.61-2.544-7.176-3.72-10.8c-1.216-3.718-2.24-7.466-3.272-11.243c-2.031-7.427-3.969-14.868-5.923-22.311
				c-1.98-7.534-4.002-15.062-5.74-22.652c-0.872-3.85-1.585-7.737-2.29-11.621c-0.669-3.653-1.357-7.257-1.808-10.938
				c-0.197-1.991-0.417-3.98-0.638-5.971c-1.035-9.976-1.788-20.015-1.743-30.045c0.028-5.018,0.271-10.033,0.406-15.042
				c0.127-4.75,0.133-9.46,0.75-14.168c0.705-3.39,1.918-6.595,3.117-9.847c0.922-2.474-0.866-5.311-3.263-6.025
				c-0.468-0.138-0.928-0.203-1.374-0.203c-2.101,0-3.895,1.436-4.651,3.475c-1.368,3.692-2.784,7.342-3.582,11.212
				c-0.815,3.957-1.309,7.968-1.63,11.996c-0.601,7.618-1.45,15.211-1.918,22.85c-0.463,7.492-0.57,15.059-0.228,22.562
				c0.175,3.991,0.285,7.985,0.488,11.971c0.175,3.543,0.629,7.049,0.973,10.572c0.795,8.256,2.113,16.371,3.718,24.511
				c1.543,7.827,3.345,15.615,5.1,23.4c1.661,7.351,3.029,14.794,5.035,22.057c1.015,3.661,2.209,7.257,3.323,10.89
				c1.182,3.861,2.183,7.762,3.306,11.638c2.688,9.229,6.07,18.204,9.745,27.075c2.51,6.566,4.77,13.223,7.288,19.781
				c3.052,7.934,6.09,15.866,9.539,23.639c3.046,6.857,6.408,13.553,9.768,20.275c3.455,6.93,6.744,13.934,9.94,20.999
				c3.272,7.249,6.755,14.399,10.239,21.549c3.54,7.246,6.956,14.566,10.572,21.781c1.785,3.565,3.599,7.105,5.52,10.594
				c1.831,3.325,3.892,6.53,5.847,9.776c3.884,6.496,7.621,13.073,11.446,19.6c2.846,4.868,5.881,9.641,8.648,14.551
				c3.173,5.63,6.152,11.342,9.105,17.081c2.711,5.252,5.331,10.555,7.979,15.841c2.668,5.345,5.556,10.572,8.132,15.967
				c1.219,2.541,4.473,3.734,7.097,3.086c1.644-0.401,3.072-1.45,3.946-2.894c0.796-1.3,1.3-3.34,0.747-4.832
				C822.906,964.154,822.207,962.267,821.561,960.355z M703.495,498.184c1.704,1.041,4.231,1.619,6.191,0.948
				c3.791-1.3,7.582-2.739,11.547-3.388c2.818-0.166,5.681-0.02,8.481,0.341c2.764,0.519,5.517,1.137,8.146,2.149
				c3.08,1.492,6.016,3.255,8.944,5.023c2.9,1.752,5.858,3.469,8.608,5.455c2.268,1.989,4.231,4.174,6.18,6.521
				c2.254,2.725,4.696,5.478,7.446,7.717c1.128,1.151,2.46,1.955,3.994,2.426c2.358,0.697,4.961,0.412,7.108-0.798
				c4.222-2.35,6.2-8.264,3.551-12.518c-2.141-3.441-4.724-6.476-7.243-9.624c-2.231-2.784-4.445-5.452-7.19-7.754
				c-5.26-4.394-11.395-7.785-17.476-10.907c-3.441-1.769-7.066-3.464-10.859-4.296c-3.906-0.86-8.101-1.574-12.151-1.574
				c-0.319,0-0.643,0.006-0.962,0.014c-3.85,0.11-7.762,0.553-11.46,1.644c-3.56,1.058-7.057,2.46-10.566,3.667
				c-2.13,0.739-3.85,1.729-5.052,3.709c-1.123,1.845-1.467,4.093-0.948,6.191C700.3,495.231,701.642,497.067,703.495,498.184z
				 M854.164,612.845l-0.031-0.604c-0.344-4.911-0.84-9.734-1.402-15.079l-0.161-1.517c-0.209-2.023-0.417-4.045-0.604-6.059
				c-0.361-3.667-0.714-7.24-1.142-10.797c-0.107-0.866-0.2-1.729-0.302-2.595l-0.031-0.285c-0.305-2.674-0.606-5.362-1.058-7.968
				c-0.632-3.517-1.419-6.865-2.31-10.572c-0.618-2.643-1.131-5.39-1.636-8.2l-0.384-2.155c-1.469-8.03-2.936-14.182-4.784-19.936
				c-1.351-3.777-2.733-7.226-4.245-10.541c-1.856-4.118-3.935-7.988-5.898-11.553c-3.658-6.654-7.974-13.071-12.143-19.273
				l-0.511-0.745c-3.357-4.801-7.113-9.641-11.505-14.819c-3.43-4.042-7.568-8.749-12.224-13.02
				c-3.515-2.914-7.181-5.732-10.126-7.991c-3.878-2.959-8.273-6.324-13.014-9.11c-1.836-1.092-3.692-2.062-4.916-2.694
				c-1.627-0.395-3.416-0.764-5.638-1.165l-0.595-0.102l-0.604-0.099c-4.521-0.73-9.164-1.1-13.158-1.385
				c-2.296-0.152-4.496-0.237-6.527-0.237c-2.922,0-5.748,0.152-8.634,0.454c-4.253,0.463-8.414,1.577-13.014,2.885
				c-3.213,0.917-6.527,2.073-9.858,3.458c-4.166,1.729-8.214,3.751-12.114,6.05c2.44-0.561,4.945-0.843,7.474-0.9
				c0.477-0.008,0.956-0.017,1.436-0.017c1.534,0,3.063,0.059,4.598,0.229c1.912,0.2,3.799,0.637,5.678,1.024
				c4.222,0.846,8.501,1.619,12.631,2.818c3.362,0.981,6.569,2.592,9.821,3.859c3.895,1.529,7.723,3.08,11.466,4.942
				c6.586,3.292,12.498,7.703,18.356,12.117c3.517,2.651,6.956,5.337,10.261,8.264c2.835,2.516,5.354,5.413,7.785,8.315
				c2.502,2.996,4.809,6.132,7.032,9.331c2.536,3.624,5.255,7.156,7.5,10.975c3.938,6.679,7.762,13.432,11.429,20.272
				c3.641,6.778,7.554,13.398,11.319,20.111c1.924,3.433,3.76,6.922,5.452,10.473c1.546,3.247,2.931,6.569,4.425,9.833
				c3.362,7.384,6.603,14.8,9.531,22.367c2.933,7.568,5.136,15.288,7.08,23.149c0.005,0.014,0.011,0.028,0.017,0.042
				c1.351,3.416,2.778,6.803,4.101,10.236c0.231-1.788,0.415-3.579,0.598-5.342l0.169-1.554l0.226-2.223l0.099-0.973l0.118-1.083
				L854.164,612.845z"/>
			<g>
				<path fill="none" d="M585.979,381.011c-1.529-0.401-3.066-0.829-4.609-1.179c-1.543-0.265-3.083-0.564-4.623-0.801
					c-0.973-0.149-1.946-0.189-2.919-0.285c-0.934-0.093-1.859-0.228-2.787-0.324c-2.096-0.209-4.194-0.313-6.296-0.437
					c-1.3-0.082-2.603-0.113-3.907-0.076c-1.828,0.226-3.593,0.674-5.348,1.236c-0.592,0.223-1.188,0.462-1.732,0.745
					c-2.397,1.227-5.427,0.598-7.193-1.41c-0.126-0.144-0.202-0.312-0.312-0.464c0.191,3.404,0.473,6.802,0.806,10.198
					c0.386,2.914,0.831,5.825,1.29,8.737c2.181-1.181,4.508-2.161,6.996-2.856c16.041-4.485,32.611,3.439,39.551,17.977
					c-0.551-7.094-1.131-14.185-1.842-21.266c-0.279-2.427-0.581-4.849-0.876-7.272c-0.487-0.323-0.989-0.623-1.507-0.903
					C589.161,381.934,587.592,381.434,585.979,381.011z"/>
				<path fill="none" d="M589.804,471.219l-1.001,0.305c-0.97,0.302-1.972,0.612-2.984,0.821c-0.852,0.175-1.707,0.319-2.561,0.463
					c-0.525,0.087-1.046,0.178-1.568,0.271c-2.555,0.474-5.306,0.956-8.107,1.278c-2.24,0.262-4.53,0.361-6.747,0.457
					c-0.883,0.037-1.763,0.073-2.643,0.121c-0.737,0.041-1.499,0.045-2.255,0.063c0.042,0.242,0.072,0.487,0.116,0.728
					c0.965,5.328,1.904,10.656,2.745,16.01c0.821,5.303,1.726,10.589,2.541,15.888c0.821,5.396,1.568,10.826,2.584,16.187
					c2.039,10.797,4.691,21.453,7.266,32.143c2.601,10.789,5.142,21.564,7.3,32.454c1.032,5.227,1.912,10.479,3.021,15.691
					c1.114,5.32,2.299,10.614,3.565,15.9c0.265,1.096,0.544,2.189,0.81,3.284c0.504-3.505,1.027-7.084,1.588-10.83
					c1.168-7.65,3.297-15.948,6.702-26.127c2.767-8.273,6.507-16.272,9.793-23.332c0.85-1.83,1.72-3.654,2.586-5.479
					c-0.64-2.471-1.255-4.947-1.769-7.434c-2.138-10.287-3.884-20.599-5.252-31.001c-1.484-11.294-3.187-22.528-4.372-33.864
					c-0.502-4.775-0.753-9.573-1.182-14.348c-0.13-1.456-0.287-2.907-0.422-4.361c-0.145,0.124-0.276,0.277-0.423,0.393
					C596.343,469.095,593,470.271,589.804,471.219z"/>
				<path fill="none" d="M597.721,446.996c-0.328-3.587-0.657-7.174-0.945-10.764c-0.929,3.092-2.262,6.045-4.008,8.745
					C594.752,445.406,596.364,446.07,597.721,446.996z"/>
				<path fill="#FFB3B3" d="M573.537,459.175c-10.908,3.047-22.053,0.345-30.263-6.251c-0.958,0.61-1.903,1.263-2.742,2.065
					c-1.272,1.219-2.223,2.474-2.823,3.723c-0.429,0.891-0.829,1.771-1.018,2.736c-0.113,0.553-0.211,1.109-0.282,1.667
					c-0.079,0.612-0.011,1.241,0.054,1.848l0.023,0.228c0.073,0.702,0.37,1.385,0.649,1.96c0.341,0.699,0.866,1.314,1.247,1.703
					c0.632,0.66,1.413,1.312,2.389,1.986c1.407,0.973,3.072,1.625,4.657,2.211c1.238,0.457,2.55,0.716,3.816,0.97l0.245,0.048
					c1.926,0.381,3.732,0.629,5.517,0.764c1.825,0.135,3.653,0.203,5.43,0.203c0.507,0,1.001-0.03,1.505-0.042
					c0.755-0.017,1.517-0.022,2.255-0.063c0.88-0.048,1.76-0.085,2.643-0.121c2.217-0.096,4.507-0.195,6.747-0.457
					c2.801-0.321,5.551-0.804,8.107-1.278c0.522-0.093,1.044-0.183,1.568-0.271c0.855-0.144,1.709-0.288,2.561-0.463
					c1.013-0.209,2.014-0.519,2.984-0.821l1.001-0.305c3.196-0.948,6.538-2.124,9.331-4.321c0.148-0.116,0.279-0.27,0.423-0.393
					c1.074-0.916,2.084-2,2.916-3.226c0.956-1.424,1.498-3.297,1.447-5.015c-0.025-0.852-0.107-1.69-0.243-2.491
					c-0.113-0.657-0.367-1.295-0.612-1.912c-0.087-0.217-0.172-0.434-0.251-0.649l0.087,0.305c-0.336-0.973-0.702-1.856-1.247-2.691
					c-0.386-0.578-0.809-1.19-1.374-1.735c-0.612-0.587-1.269-1.128-1.887-1.625c-0.212-0.171-0.448-0.316-0.675-0.471
					c-1.356-0.926-2.969-1.59-4.954-2.019C588.445,451.657,581.794,456.867,573.537,459.175z"/>
				<path fill="#FFB3B3" d="M485.465,458.939c-11.865,3.317-24.01-0.173-32.35-8.082c-0.864,0.344-1.699,0.696-2.504,1.124
					c-1.199,0.632-2.389,1.329-3.537,2.003l-0.138,0.082c-1.467,0.857-3.01,1.797-4.307,3.035c-1.269,1.219-2.223,2.474-2.823,3.723
					c-0.429,0.891-0.829,1.771-1.018,2.736c-0.113,0.553-0.211,1.109-0.282,1.667c-0.079,0.612-0.011,1.241,0.054,1.85l0.023,0.226
					c0.073,0.702,0.37,1.385,0.649,1.96c0.341,0.699,0.866,1.314,1.244,1.704c0.635,0.66,1.416,1.312,2.392,1.986
					c1.407,0.973,3.072,1.625,4.657,2.211c1.238,0.457,2.55,0.717,3.816,0.97l0.245,0.048c1.926,0.381,3.732,0.629,5.517,0.764
					c1.825,0.135,3.653,0.203,5.43,0.203c1.266,0,2.53-0.037,3.76-0.104c0.88-0.048,1.76-0.085,2.643-0.121
					c2.217-0.096,4.507-0.195,6.747-0.457c2.801-0.322,5.551-0.804,8.106-1.278c0.522-0.093,1.044-0.183,1.568-0.271
					c0.855-0.144,1.709-0.288,2.561-0.463c1.013-0.209,2.014-0.519,2.984-0.821l1.001-0.305c0.22-0.065,0.443-0.143,0.663-0.211
					c2.992-0.916,6.067-2.064,8.667-4.111c1.241-0.976,2.395-2.228,3.339-3.619c0.956-1.424,1.501-3.297,1.447-5.015
					c-0.025-0.852-0.107-1.69-0.243-2.491c-0.113-0.657-0.367-1.295-0.612-1.912c-0.087-0.217-0.172-0.434-0.251-0.649l0.087,0.305
					c-0.336-0.973-0.702-1.856-1.247-2.691c-0.387-0.578-0.809-1.19-1.374-1.735c-0.539-0.516-1.11-0.984-1.661-1.43
					C496.673,453.999,491.504,457.252,485.465,458.939z"/>
				<path fill="#FFFFFF" d="M564.986,410.213c-4.073,1.661-6.03,6.315-4.372,10.388c1.661,4.076,6.318,6.033,10.391,4.372
					c4.073-1.661,6.03-6.315,4.369-10.388C573.716,410.512,569.059,408.551,564.986,410.213z"/>
				<path fill="#FFFFFF" d="M555.347,394.093c-2.488,0.696-4.816,1.676-6.996,2.856c-13.558,7.343-20.774,23.308-16.451,38.778
					c1.972,7.054,6.065,12.932,11.375,17.197c8.21,6.595,19.355,9.298,30.263,6.251c8.257-2.308,14.908-7.518,19.23-14.198
					c1.747-2.7,3.08-5.653,4.008-8.745c1.771-5.897,1.988-12.329,0.209-18.694c-0.536-1.918-1.257-3.73-2.087-5.468
					C587.958,397.532,571.388,389.608,555.347,394.093z M570.771,449.173c-12.067,3.374-24.601-3.686-27.975-15.753
					c-3.371-12.067,3.687-24.601,15.753-27.972c12.067-3.374,24.601,3.684,27.975,15.75
					C589.898,433.265,582.838,445.8,570.771,449.173z"/>
				<path fill="#FFFFFF" d="M470.154,412.427c-3.577,1.458-5.297,5.548-3.836,9.125c1.458,3.577,5.548,5.297,9.125,3.836
					c3.577-1.458,5.294-5.548,3.836-9.125C477.82,412.686,473.73,410.966,470.154,412.427z"/>
				<path fill="#FFFFFF" d="M467.275,393.857c-17.959,5.021-28.465,23.676-23.445,41.638c1.703,6.094,5.001,11.3,9.285,15.363
					c8.34,7.909,20.485,11.399,32.35,8.082c6.039-1.687,11.207-4.941,15.254-9.167c7.988-8.343,11.524-20.547,8.194-32.468
					c-3.314-11.857-12.583-20.428-23.658-23.466C479.552,392.275,473.379,392.151,467.275,393.857z M497.922,421.828
					c3.374,12.067-3.686,24.601-15.753,27.975c-12.067,3.374-24.601-3.686-27.972-15.753c-3.374-12.067,3.684-24.601,15.75-27.972
					C482.014,402.705,494.549,409.762,497.922,421.828z"/>
				<path d="M500.849,482.601c0.508,2.005,0.937,4.042,1.876,5.906c0.237,0.476,0.547,0.915,0.829,1.369
					c0.319,0.756,0.693,1.485,1.069,2.21c0.578,1.117,1.162,2.231,1.994,3.179c0.818,0.925,1.732,1.754,2.618,2.618
					c-0.282-0.285-0.573-0.57-0.855-0.858c0.951,0.956,1.859,1.845,2.95,2.623c1.173,0.838,2.409,1.611,3.712,2.234
					c0.774,0.368,1.628,0.605,2.488,0.809c1.623,0.659,3.332,1.059,5.113,1.197c2.479,0.195,4.849-0.268,7.181-1.052
					c0.855-0.288,1.706-0.578,2.525-0.942c0.605-0.269,1.184-0.591,1.751-0.935c0.504-0.306,1-0.628,1.49-0.952
					c1.864-1.221,3.382-2.685,4.843-4.383c1.994-2.313,3.382-5.06,4.572-7.858c0.474-1.108,0.948-2.245,1.292-3.402
					c0.234-0.784,0.378-1.605,0.55-2.406c0.099-0.474,0.214-0.948,0.254-1.43c0.183-2.045-1.151-4.014-3.069-4.693
					c-0.499-0.178-1.024-0.265-1.549-0.265c-0.683,0-1.365,0.15-1.991,0.446c-0.987,0.468-2.13,1.506-2.369,2.634
					c-0.581,2.674-1.582,5.249-2.77,7.717c-0.713,1.288-1.558,2.491-2.484,3.632c-0.055,0.04-0.108,0.082-0.161,0.123
					c-0.221,0.171-0.435,0.351-0.669,0.51c-0.73,0.496-1.452,0.996-2.194,1.464c-0.776,0.415-1.591,0.773-2.42,1.06
					c-0.347,0.068-0.699,0.11-1.055,0.13c-0.604,0.008-1.207,0.014-1.811,0.025c-1.066-0.023-2.115-0.192-3.173-0.33
					c-0.914-0.116-1.833-0.217-2.742-0.389c-0.796-0.268-1.557-0.609-2.305-0.996c-0.629-0.426-1.185-0.948-1.771-1.427
					c-0.519-0.432-1.035-0.858-1.532-1.306c-0.604-0.702-1.108-1.506-1.63-2.265c-0.527-0.776-1.063-1.543-1.554-2.341
					c-0.573-1.001-1.131-2.048-1.512-3.131c-0.068-0.367-0.11-0.736-0.158-1.106c-0.234-1.819-1.893-3.151-3.669-3.151
					c-0.169,0-0.341,0.011-0.513,0.037c-2.014,0.299-3.371,2.194-3.114,4.183c0.003,0.021,0.009,0.04,0.011,0.06
					C500.761,481.614,500.724,482.107,500.849,482.601z M436.719,506.208c-1.726-0.818-3.489-1.537-5.305-2.132
					c-2.761-0.891-5.495-1.825-8.222-2.832c-2.349-0.86-4.707-1.718-7.051-2.606c-1.613-0.843-3.218-1.704-4.82-2.584
					c-4.482-2.468-8.704-5.292-12.803-8.346c-3.061-2.439-6.048-4.974-8.964-7.589c-2.463-2.209-4.882-4.469-7.195-6.839
					c-2.615-2.68-5.255-5.339-7.838-8.05c-3.988-4.524-7.83-9.175-11.57-13.908c-7.994-11.548-15.293-23.583-22.638-35.551
					c-0.296-0.482-0.595-0.965-0.894-1.447c-4.448-7.912-8.645-15.982-12.258-24.297c-0.742-1.774-1.492-3.546-2.245-5.314
					c0.395,0.928,0.79,1.862,1.188,2.798c-2.005-4.821-3.949-9.661-5.892-14.498c-1.969-4.93-3.184-10.12-4.507-15.245
					c-1.32-5.136-2.931-10.191-4.397-15.29c-1.206-4.181-2.335-8.371-3.42-12.575c0.737-0.261,1.473-0.524,2.202-0.805
					c2.538-0.97,5.083-1.952,7.503-3.185c2.276-1.171,4.414-3.012,6.143-4.911c1.845-2.025,3.461-4.265,4.973-6.549
					c1.619-2.434,2.691-5.018,3.822-7.723c0.9-2.124,1.675-4.248,2.248-6.476c0.468-1.808,0.722-3.726,0.863-5.559
					c0.288-3.472-1.427-6.953-3.794-9.39c-2.68-2.761-6.702-3.67-10.371-2.745c-2.849,0.731-6.555,2.996-7.726,5.777
					c-0.793,1.85-1.529,3.613-1.997,5.565c-0.541,2.296-1.283,4.516-2.073,6.724c-0.829,1.726-1.763,3.393-2.823,4.99
					c-0.195,0.212-0.392,0.417-0.598,0.62c-0.84,0.508-1.712,0.948-2.626,1.365c0.611-0.258,1.222-0.514,1.834-0.77
					c-3.116,1.321-6.262,2.684-9.541,3.508c-0.235-0.255-0.5-0.469-0.763-0.695c-0.848-3.266-1.561-6.544-2.096-9.877
					c-0.395-3.345-0.64-6.693-0.598-10.07c0.054-3.929,0.313-7.853,0.592-11.773c0.251-3.599-3.201-6.609-6.611-6.609
					c-1.743,0-3.444,0.7-4.677,1.941c-1.303,1.303-1.808,2.871-1.935,4.668c-0.313,4.471-0.691,8.95-0.781,13.429
					c-0.059,2.688,0.036,5.362,0.197,8.033c-0.448-0.541-0.898-1.08-1.34-1.629c-3.935-5.187-7.601-10.605-11.229-16.007
					c-1.233-1.833-2.773-3.201-4.947-3.805c-0.716-0.195-1.453-0.293-2.189-0.293c-1.458,0-2.914,0.384-4.189,1.131
					c-3.706,2.166-5.486,7.573-2.97,11.316c2.572,3.822,5.145,7.635,7.61,11.519c2.437,3.859,4.705,7.799,7.331,11.539
					c0.654,0.931,1.316,1.857,1.993,2.772c-2.896-0.642-5.755-1.434-8.617-2.263c-3.111-0.9-6.191-1.952-9.204-3.145
					c-1.346-0.626-2.632-1.292-3.881-2.084c-1.439-1.298-2.727-2.73-4.022-4.189c-1.413-1.591-3.444-2.333-5.495-2.333
					c-2.155,0-4.332,0.821-5.847,2.333c-3.23,3.23-2.905,8.078,0,11.342c0.838,0.945,1.684,1.89,2.544,2.818
					c1.486,1.599,3.196,2.911,4.947,4.217c1.898,1.43,4.093,2.536,6.205,3.633c5.04,2.601,10.309,4.803,15.598,6.817
					c4.767,1.816,9.641,3.086,14.67,3.904c2.88,0.464,5.807,0.841,8.743,1.071c0.312,1.067,0.612,2.136,0.932,3.203
					c2.302,7.658,4.603,15.285,7.249,22.819c0.652,2.479,1.283,4.967,1.952,7.446c1.134,4.237,2.761,8.304,4.417,12.34
					c1.334,3.266,2.635,6.549,3.957,9.824c0.189,0.581,0.378,1.162,0.567,1.743c1.627,5.029,3.613,9.948,5.765,14.769
					c1.862,4.155,4.056,8.165,6.016,12.278c4.118,8.642,9.119,16.808,14.157,24.94c5.029,8.132,10.281,16.125,15.632,24.051
					c3.066,4.533,6.637,8.749,10.002,13.076c2.815,3.636,5.946,7.043,9.094,10.388c1.709,1.817,3.464,3.579,5.305,5.252
					c2.547,2.304,5.325,4.327,8.05,6.414c3.788,2.877,7.762,5.613,11.785,8.149c2.416,1.522,4.954,2.814,7.532,4.029
					c4.369,2.059,8.889,3.821,13.388,5.558c2.956,1.142,5.935,2.248,8.93,3.311c1.735,0.62,3.526,1.078,5.334,1.43
					c2.005,0.386,4.316,0.871,6.414,0.691c-0.006-0.014-0.008-0.028-0.011-0.04c2.121,0.031,4.239-0.482,6.205-1.633
					c1.845-1.097,3.311-2.564,4.4-4.409c1.78-3.029,1.862-6.095,1.241-9.46C442.674,510.946,439.715,507.601,436.719,506.208z
					 M546.255,378.015c0.11,0.152,0.186,0.32,0.312,0.464c1.766,2.008,4.795,2.637,7.193,1.41c0.544-0.282,1.139-0.522,1.732-0.745
					c1.754-0.561,3.52-1.01,5.348-1.236c1.303-0.037,2.606-0.005,3.907,0.076c2.101,0.124,4.2,0.228,6.296,0.437
					c0.928,0.096,1.853,0.231,2.787,0.324c0.973,0.096,1.946,0.135,2.919,0.285c1.54,0.237,3.08,0.536,4.623,0.801
					c1.543,0.35,3.08,0.778,4.609,1.179c1.613,0.423,3.182,0.922,4.693,1.616c0.518,0.28,1.02,0.58,1.507,0.903
					c0.494,0.327,0.972,0.678,1.434,1.057c0.494,0.471,0.968,0.959,1.444,1.447c1.188,1.204,3.057,1.45,4.383,0.288
					c1.218-1.072,1.472-3.17,0.285-4.383c-1.221-1.247-2.417-2.525-3.639-3.774c-1.309-1.337-2.778-2.519-4.27-3.641
					c-0.228-0.171-0.454-0.346-0.683-0.517c-1.137-0.85-2.28-1.695-3.396-2.571c-0.685-0.539-1.357-1.072-2.13-1.481
					c-1.323-0.694-2.671-1.348-4.036-1.949c-0.793-0.35-1.582-0.728-2.383-1.052c-0.993-0.406-2.019-0.654-3.057-0.908
					c-2.648-0.654-5.32-1.151-8.03-1.472c-1.805-0.212-3.622-0.355-5.433-0.355c-2.316,0-4.626,0.234-6.891,0.86
					c-1.715,0.474-3.407,1.08-5.038,1.786c-1.866,0.808-3.76,2.353-4.757,4.243c-0.246,0.466-0.453,0.948-0.573,1.452
					c-0.353,1.041-0.423,2.099-0.209,3.182C545.382,376.585,545.758,377.33,546.255,378.015z M570.771,449.173
					c12.067-3.373,19.127-15.908,15.753-27.975c-3.373-12.067-15.908-19.124-27.975-15.75
					c-12.067,3.371-19.124,15.905-15.753,27.972C546.17,445.487,558.705,452.547,570.771,449.173z M564.986,410.213
					c4.073-1.661,8.73,0.299,10.388,4.372c1.661,4.073-0.296,8.727-4.369,10.388c-4.073,1.661-8.73-0.296-10.391-4.372
					C558.956,416.528,560.913,411.874,564.986,410.213z M616.717,832.969c-1.659-0.756-3.413-1.117-5.151-1.117
					c-3.726,0-7.376,1.656-9.861,4.626c-1.188,1.422-2.302,3.371-3.173,4.883c-0.293,0.516-0.587,1.032-0.877,1.549
					c-1.233,1.78-2.474,3.554-3.667,5.362c-2.978,4.521-5.74,9.082-8.03,13.993c-0.265,0.569-0.522,1.142-0.787,1.712
					c-1.89,4.068-3.757,8.153-5.43,12.318c-1.977,4.931-3.723,9.974-5.396,15.02c-1.969,5.929-3.76,11.911-5.28,17.964
					c-0.243,0.965-0.465,1.938-0.677,2.911c-1.128,4.166-2.208,8.349-3.334,12.495c-2.798,10.352-5.946,20.669-7.889,31.23
					c-3.957,21.476-6.332,43.206-6.358,65.071c0,5.19,0.226,10.371,0.513,15.553c0.268,4.792,1.086,9.641,1.878,14.379
					c0.993,5.974,2.178,11.9,3.421,17.818c0.073,1.32,0.147,2.634,0.223,3.954c-0.838,0.011-1.675,0.037-2.51,0.073
					c-5.983,0.271-11.739,2.115-17.477,3.681c-2.302,0.62-4.55,1.382-6.772,2.22c-1.816,0.677-3.555,1.546-5.264,2.47
					c-1.147,0.393-2.297,0.779-3.441,1.18c-4.586,1.614-9.209,3.275-13.573,5.444c-4.135,2.048-8.084,4.406-12.024,6.817
					c-3.543,2.175-7.006,4.451-10.566,6.592c-3.895,2.349-7.943,4.482-11.669,7.113c-1.661,1.179-3.272,2.358-4.773,3.743
					c-1.475,1.359-2.708,2.917-3.986,4.462c-1.692,2.059-2.888,4.505-4.031,6.908c-0.9,1.89-1.816,3.785-2.428,5.799
					c-0.502,1.656-0.719,3.393-0.97,5.099c-0.02,1.227,0.082,2.448,0.279,3.661c0.369,1.151,0.781,2.293,1.25,3.41
					c0.702,1.007,1.413,2.005,2.132,2.993c0.99,0.937,2.051,1.774,3.193,2.51c1.323,0.632,2.643,1.241,3.983,1.833
					c1.343,0.553,2.736,0.874,4.191,0.973c4.301,0.694,8.687,0.251,12.853-0.981c2.86-0.843,5.658-1.949,8.445-3.001
					c3.311-1.261,6.611-2.521,9.912-3.779c5.257-2.014,10.354-4.426,15.587-6.504c8.701-3.159,17.457-6.076,26.265-8.93
					c4.829-1.563,9.525-3.531,14.227-5.458c4.327-1.763,8.592-3.661,12.825-5.621c3.816-1.771,7.61-3.599,11.398-5.433
					c1.537-0.739,3.091-1.52,4.524-2.445c0.843-0.55,2.076-1.422,2.626-1.881c0.9-0.739,1.574-1.692,2.282-2.617
					c1.216-1.574,1.34-3.489,1.628-5.359c0.323-2.096-0.552-4.234-1.731-6.006c0.221-2.497,0.049-5.06,0-7.55
					c-0.062-3.041-0.206-6.053-0.558-9.074c-0.268-2.347-0.567-4.705-0.925-7.035c-0.432-2.798-1.162-5.576-1.754-8.338
					c-1.151-5.393-2.07-10.834-2.705-16.314c-0.214-2.75-0.313-5.492-0.443-8.25c-0.127-2.623-0.288-5.252-0.333-7.878
					c-0.07-5.413,0.305-10.82,0.576-16.224c0.567-11.477,1.097-22.943,1.475-34.423c0.234-7.159,0.451-14.317,1.052-21.459
					c0.296-3.39,0.649-6.772,0.891-10.165c0.245-3.515,0.592-6.995,1.125-10.467c1.774-9.996,3.763-19.947,6.51-29.726
					c1.286-4.561,3.21-8.922,4.784-13.384c0.505-1.436,1.046-2.851,1.582-4.27c1.026-2.719,2.096-5.418,3.295-8.075
					c2.299-4.829,4.44-9.717,6.679-14.577c0.57-1.188,1.17-2.362,1.755-3.543c1.006-1.883,2.044-3.75,3.124-5.591
					c0.268-0.381,0.533-0.762,0.801-1.14c0.307-0.431,0.623-0.843,0.9-1.297c-0.071,0.118,1.549-2.155,1.907-3.137
					c1.01-2.798,1.224-3.534,1.063-6.558C623.805,838.797,620.604,834.744,616.717,832.969z M768.741,198.19
					c-2.034-1.718-4.109-2.843-6.865-2.843c-2.172,0-4.778,0.807-6.423,2.389c-1.165,0.824-2.248,1.771-3.173,2.846
					c-0.79,0.908-1.546,1.833-2.375,2.716c-1.509,1.619-3.1,3.156-4.685,4.705c-3.086,3.001-6.191,5.918-9.511,8.645
					c-3.28,2.386-6.623,4.541-10.284,6.279c-0.822,0.298-1.647,0.559-2.476,0.805c0.689-3.228,1.395-6.45,2.142-9.663
					c0.891-3.813,1.763-7.627,2.815-11.398c1.154-4.143,2.347-8.281,3.472-12.436c1.286-4.733-1.537-9.771-6.287-11.074
					c-0.773-0.214-1.554-0.316-2.33-0.316c-3.946,0-7.672,2.649-8.749,6.603c-1.125,4.155-2.321,8.284-3.5,12.43
					c-1.069,3.768-1.977,7.573-2.914,11.367c-0.653,2.624-1.246,5.258-1.794,7.901c-1.955-3.447-3.574-7.086-5.223-10.684
					c-0.979-2.149-3.526-3.794-5.717-4.397c-2.474-0.685-5.173-0.333-7.387,0.962c-2.138,1.261-3.74,3.337-4.397,5.729
					c-0.739,2.671-0.152,4.947,0.965,7.376c1.706,3.734,3.362,7.52,5.359,11.107c1.743,3.122,3.74,5.963,6.194,8.589
					c1.828,1.943,4.22,3.517,6.496,4.877c1.598,0.95,3.408,1.613,5.192,2.222c-0.912,8.729-1.585,17.477-2.621,26.194
					c-0.632,4.276-1.302,8.551-1.999,12.823c-1.042,3.487-2.131,6.964-3.257,10.439c-3.309,10.247-5.884,20.706-9.102,30.979
					c-3.309,10.586-7.537,20.855-11.646,31.145c-3.746,9.364-7.029,18.901-10.865,28.226c-1.422,3.252-3.035,6.383-4.705,9.525
					c-1.915,3.568-3.734,7.192-5.605,10.792c-2.087,4.031-4.27,7.996-6.69,11.847c-1.997,3.17-4.225,6.171-6.484,9.159
					c-2.141,2.668-4.366,5.249-6.665,7.793c-3.03,3.34-5.89,6.837-8.663,10.396c-0.965,1.236-1.942,2.464-2.873,3.726
					c-0.568,0.459-1.145,0.911-1.669,1.415c-1.499,1.435-2.707,3.069-3.704,4.874c-0.097,0.175-0.223,0.326-0.315,0.505
					c-0.9,1.746-1.619,3.616-2.194,5.486c-0.604,1.943-0.801,4.039-1.018,6.045c-0.206,1.96-0.288,3.957-0.313,5.926
					c-0.028,2.287,0.214,4.651,0.945,6.829c0.654,1.932,1.554,3.687,2.987,5.17c0.905,0.945,2.158,1.692,3.317,2.313
					c0.808,0.427,1.623,0.789,2.445,1.113c1.738,0.687,3.527,1.132,5.487,1.143c1.145,0,2.386-0.226,3.492-0.432
					c0.1-0.018,0.197-0.057,0.297-0.077c1.515,0.02,3.03-0.159,4.545-0.565c5.441-1.151,9.669-5.207,13.322-9.156
					c2.95-3.176,5.593-6.637,8.202-10.101c4.389-5.839,8.922-11.612,12.763-17.826c3.859-6.242,7.356-12.718,10.856-19.169
					c3.678-6.784,6.563-13.894,9.429-21.039c2.132-4.956,4.296-9.895,6.383-14.876c2.132-5.046,4.18-10.098,5.971-15.279
					c1.735-5.001,3.3-10.038,4.82-15.102c3.184-10.577,5.918-21.369,7.717-32.27c1.986-12.024,3.571-24.15,4.82-36.273
					c1.159-11.308,2.581-22.568,3.156-33.926c0.132-2.66,0.175-5.322,0.272-7.984c1.078,0.472,2.163,0.933,3.24,1.407
					c2.716,1.196,5.489,2.392,8.329,3.275c3.419,1.052,6.862,1.574,10.417,1.969c1.529-0.008,2.959-0.395,4.27-1.159
					c1.898-1.106,3.311-2.942,3.895-5.054c1.216-4.425-1.455-9.238-5.906-10.416c-4.278-1.136-8.402-2.434-12.488-4.048
					c2.672-1.428,5.293-3.147,7.697-4.971c3.407-2.572,6.781-5.198,9.911-8.121c2.445-2.285,4.947-4.524,7.328-6.874
					c1.216-1.193,2.383-2.417,3.427-3.768c0.937-0.88,1.636-1.907,2.104-3.066c0.767-1.636,1.774-4.11,1.565-5.999
					C771.593,202.99,771.124,200.187,768.741,198.19z M969.87,832.712c-0.206-3.049-0.522-6.25-1.413-9.192
					c-1.015-3.371-2.231-6.645-3.588-9.881c-2.034-4.86-4.451-9.57-6.944-14.205c-3.741-6.955-8.119-13.579-13.001-19.798
					c-1.093-2.097-2.213-4.179-3.329-6.255c-1.25-2.33-2.716-4.533-4.138-6.764c-1.673-2.626-3.562-5.136-5.54-7.545
					c-3.506-4.273-6.755-8.744-10.236-13.051c-3.543-4.38-7.573-8.383-12.069-11.793c-2.285-1.735-4.877-2.987-7.474-4.172
					c-0.536-0.242-1.085-0.455-1.64-0.649c-0.693-0.434-1.412-0.833-2.187-1.161c-1.87-0.798-4.014-1.281-6.126-1.281
					c-1.224,0-2.443,0.164-3.585,0.525c-1.754,0.556-3.275,1.275-4.823,2.24c-1.481,0.925-2.902,1.969-4.081,3.272
					c-1.537,1.712-2.815,3.526-3.96,5.514c-2.381,4.109-4.578,8.318-6.538,12.648c-1.266,2.795-2.22,5.748-3.272,8.634
					c-1.159,3.173-2.403,6.321-3.562,9.497c-2.519,6.882-5.351,13.643-7.861,20.534c-1.783,4.911-3.681,9.759-5.585,14.625
					c-1.907,4.865-4.175,9.612-6.358,14.354c0.293-0.629,0.592-1.267,0.888-1.907c-2.287,4.902-4.442,9.852-6.693,14.766
					c-1.241,2.564-2.499,5.1-4.053,7.506c-1.608,2.476-3.34,4.854-5.179,7.159c-2.543,2.951-5.293,5.696-8.11,8.371
					c6.629,15.463,12.968,31.785,17.896,48.379c4.644-4.333,8.77-9.277,12.798-14.129c2.97-3.582,5.999-7.17,8.634-11.009
					c2.931-4.29,4.82-9.175,6.902-13.925c2.397-4.908,4.964-9.717,7.3-14.661c-0.302,0.646-0.604,1.298-0.908,1.943
					c2.141-4.569,4.302-9.119,6.431-13.688c-0.502,1.086-1.007,2.166-1.512,3.247c3.204-6.69,6.648-13.257,9.858-19.947
					c3.706-7.734,6.981-15.652,10.109-23.637c1.873-4.783,3.471-9.665,5.056-14.552c1.235,1.98,2.461,3.969,3.693,5.946
					c2.637,4.228,5.274,8.456,8.14,12.529c3.365,4.786,6.865,9.471,10.301,14.205c-0.099-0.135-0.195-0.274-0.29-0.409
					c0.975,1.364,1.952,2.73,2.928,4.095c4.619,6.478,9.446,12.8,14.122,19.24c4.228,6.109,8.527,13.26,16.726,13.993
					c5.709,0.505,10.422-3.481,11.765-8.868C970.239,839.919,970.104,836.303,969.87,832.712z M482.169,449.803
					c12.067-3.373,19.126-15.908,15.753-27.975c-3.373-12.067-15.908-19.124-27.975-15.75c-12.067,3.371-19.124,15.905-15.75,27.972
					C457.568,446.117,470.103,453.177,482.169,449.803z M470.154,412.427c3.577-1.461,7.666,0.259,9.125,3.836
					c1.458,3.577-0.259,7.666-3.836,9.125c-3.577,1.461-7.666-0.259-9.125-3.836C464.857,417.975,466.577,413.885,470.154,412.427z
					 M628.747,442.537c0.077-0.099,0.158-0.195,0.236-0.294c0.574-0.736,1.128-1.488,1.711-2.219
					C630.045,440.859,629.396,441.699,628.747,442.537z M464.328,379.88c2.629-0.857,5.32-1.661,8.067-1.988
					c1.721-0.065,3.435-0.031,5.164-0.025c1.029,0,2.065-0.034,3.094-0.056c1.6-0.03,3.29,0.055,4.765-0.626
					c0.176-0.081,0.362-0.128,0.532-0.235c0.88-0.446,1.591-1.075,2.146-1.887c0.567-0.843,0.883-1.771,0.951-2.784
					c0.065-1.01-0.127-1.974-0.578-2.883c-0.268-0.398-0.539-0.795-0.807-1.196c-0.509-0.574-1.128-0.99-1.808-1.316
					c-0.195-0.094-0.369-0.216-0.578-0.288c-0.764-0.381-1.596-0.502-2.44-0.502c-0.914,0-1.847,0.141-2.73,0.243
					c-1.108,0.13-2.214,0.265-3.326,0.378c-2.045,0.209-4.07,0.491-6.084,0.922c-2.225,0.479-4.394,1.311-6.496,2.186
					c-1.8,0.745-3.579,1.506-5.266,2.488c-3.715,2.166-7.497,4.279-11.006,6.769c-3.492,2.477-6.798,5.249-9.762,8.338
					c-2.572,2.688-4.84,5.63-7.136,8.552c-1.077,1.374-2.113,2.776-3.077,4.225c-0.967,1.447-1.845,2.942-2.722,4.445
					c-0.733,1.255-0.544,2.846,0.716,3.703c1.145,0.773,2.97,0.536,3.701-0.716c0.883-1.509,1.805-2.973,2.914-4.321
					c1.066-1.292,2.144-2.564,3.244-3.828c1.785-2,3.565-4.008,5.489-5.881c1.867-1.819,3.923-3.441,6.064-4.928
					c2.798-1.85,5.661-3.577,8.685-5.057C458.746,382.286,461.493,380.92,464.328,379.88z"/>
			</g>
		</g>
	</g>
</g>
</svg>
