<?xml version="1.0" encoding="utf-8"?>
<!-- Designed by Vexels.com - 2019 All Rights Reserved - https://vexels.com/terms-and-conditions/  -->
<svg version="1.1" id="Layer_1" xmlns="http://www.w3.org/2000/svg" xmlns:xlink="http://www.w3.org/1999/xlink" x="0px" y="0px"
	 viewBox="0 0 500 500" enable-background="new 0 0 500 500" xml:space="preserve">
<g>
	<path fill="#AF979F" d="M289.497,113.804L34.063,262.246L34,284.292l176.503,101.904l255.434-148.442L466,215.708L289.497,113.804z
		"/>
	<polygon fill="#7ACED4" points="236.327,176.432 247.759,183.033 364.341,250.342 401.033,229.018 412.494,222.358 284.48,148.449 
			"/>
	<g>
		<path fill="#DFE1D4" d="M277.2,179.086c33.517,7.402,66.946,15.193,100.348,23.096l-93.069-53.733l-40.379,23.465
			C255.142,174.27,266.177,176.651,277.2,179.086z"/>
	</g>
	<g>
		<polygon fill="none" points="247.759,183.033 364.341,250.342 401.033,229.018 284.451,161.71 		"/>
		<g>
			<polygon fill="none" points="284.48,148.449 412.494,222.358 420.094,217.941 284.514,139.664 228.76,172.064 236.327,176.432 
							"/>
			<path fill="#DCD6DA" d="M289.497,113.804L34.063,262.246L210.566,364.15L466,215.708L289.497,113.804z M284.514,139.664
				l135.58,78.277l-7.6,4.417l-11.461,6.66l-36.692,21.323l-116.582-67.309l-11.432-6.6l-7.566-4.368L284.514,139.664z"/>
		</g>
	</g>
	<g>
		<path fill="#8A1C1C" d="M167.92,207.614c6.246,3.606,12.887,8.881,20.345,9.111c4.972,0.153,9.273-1.634,13.338-4.321
			c4.397-2.906,3.767-6.19,4.056-9.402c0.494-5.476-11.88-10.516-15.802-12.538c-5.495-2.833-12.27-2.854-17.762,0
			c-2.933,1.524-7.857,3.801-7.857,7.56C164.226,202.022,163.909,205.298,167.92,207.614z"/>
		<path fill="#8A1C1C" d="M137.114,226.236c6.247,3.607,12.889,8.877,20.345,9.129c4.987,0.169,9.294-1.62,13.369-4.317
			c4.368-2.89,3.751-6.094,4.028-9.392c0.458-5.484-11.904-10.519-15.839-12.549c-5.487-2.831-12.239-2.87-17.727-0.02
			c-2.936,1.525-7.874,3.816-7.874,7.551C133.403,220.647,133.092,223.914,137.114,226.236z"/>
		<path fill="#8A1C1C" d="M108.98,242.586c6.255,3.611,12.893,8.879,20.36,9.12c4.98,0.161,9.286-1.617,13.357-4.31
			c4.38-2.897,3.76-6.149,4.04-9.407c0.473-5.491-11.882-10.522-15.821-12.553c-5.495-2.833-12.27-2.854-17.762,0
			c-2.932,1.524-7.857,3.8-7.857,7.561C105.287,236.995,104.969,240.27,108.98,242.586z"/>
		<path fill="#8A1C1C" d="M118.797,259.011c0.003-0.891,0.013-1.783,0.008-2.674c0-0.044,0.065-2.429-0.025-1.382
			c0.472-5.491-11.882-10.521-15.821-12.552c-5.495-2.833-12.27-2.853-17.762,0c-2.934,1.524-7.861,3.803-7.861,7.553
			c-0.013,4.564-0.015,7.3,4.303,9.953c3.495,2.147,7.098,4.219,10.702,6.179c4.808,2.614,10.4,3.445,15.7,1.73
			C111.605,266.664,118.785,263.307,118.797,259.011z"/>
		<path fill="#8A1C1C" d="M152.819,279.767c0.003-0.891,0.013-1.783,0.008-2.674c0-0.044,0.065-2.43-0.025-1.381
			c0.472-5.49-11.882-10.524-15.821-12.553c-5.483-2.824-12.252-2.826-17.727,0.02c-2.93,1.523-7.862,3.795-7.862,7.568
			c-0.013,4.609,0.014,7.175,4.269,9.918c3.433,2.214,7.112,4.227,10.702,6.179c4.817,2.619,10.412,3.441,15.719,1.719
			C145.642,287.407,152.807,284.06,152.819,279.767z"/>
		<path fill="#8A1C1C" d="M237.485,274.527c2.269-1.319,5.478-2.615,6.942-4.866c1.232-1.894,0.856-5.88,0.932-6.77
			c0.471-5.49-11.882-10.521-15.821-12.552c-5.495-2.833-12.27-2.853-17.762,0c-2.934,1.524-7.861,3.804-7.861,7.553
			c-0.012,4.183-0.206,7,3.687,9.597c2.196,1.465,4.619,2.667,6.904,3.986C221.571,275.554,229.52,279.155,237.485,274.527z"/>
		<path fill="#8A1C1C" d="M324.612,273.59c0.412-4.859-5.17-7.196-8.685-9.226c-4.866-2.81-9.732-5.619-14.599-8.429
			c-3.978-2.297-7.616-4.548-12.307-5.177c-5.701-0.764-18.995,0.592-18.995,8.747c-0.009,3.231-0.427,6.329,2.007,8.872
			c1.417,1.48,3.439,2.444,5.201,3.462c5.478,3.163,10.956,6.325,16.434,9.488c5.595,3.23,10.769,5.662,17.541,5.125
			c4.108-0.326,9.182-1.616,11.876-5.02c1.22-1.541,1.435-2.857,1.553-4.738C324.681,276.014,324.68,272.79,324.612,273.59
			C324.82,271.136,324.624,273.446,324.612,273.59z"/>
		<path fill="#8A1C1C" d="M179.468,283.838c6.254,3.611,12.893,8.879,20.36,9.12c4.98,0.161,9.286-1.617,13.357-4.31
			c4.381-2.898,3.759-6.147,4.04-9.408c0.472-5.491-11.882-10.521-15.821-12.552c-5.495-2.833-12.27-2.854-17.762,0
			c-2.933,1.524-7.857,3.801-7.857,7.56C175.774,278.247,175.456,281.522,179.468,283.838z"/>
		<path fill="#8A1C1C" d="M189.284,300.264c0.003-0.891,0.013-1.783,0.008-2.674c0-0.042,0.063-2.423-0.025-1.386
			c0.466-5.489-11.883-10.518-15.821-12.548c-5.49-2.83-12.244-2.832-17.727,0.02c-2.922,1.52-7.874,3.79-7.874,7.57
			c-0.013,4.55-0.022,7.272,4.282,9.915c3.495,2.147,7.098,4.219,10.702,6.179c4.817,2.619,10.412,3.441,15.719,1.719
			C182.107,307.904,189.272,304.556,189.284,300.264z"/>
		<path fill="#8A1C1C" d="M198.291,218.821c0,4.88,0.442,7.61,4.98,10.316c3.558,2.121,7.145,4.353,10.827,6.251
			c6.187,3.19,13.18,2.582,19.108-0.782c2.414-1.37,5.538-2.78,6.368-5.667c0.258-0.895,0.129-1.923,0.152-2.839
			c0.013-0.515,0.039-3.039-0.022-2.325c0.464-5.486-11.844-10.494-15.789-12.533c-5.043-2.607-11.424-2.924-16.647-0.58
			C204.083,212.09,198.29,214.866,198.291,218.821z"/>
		<path fill="#8A1C1C" d="M183.293,254.01c6.138,3.544,13.615,2.368,19.464-0.989c2.33-1.337,5.204-2.678,6.007-5.464
			c0.258-0.897,0.13-1.925,0.153-2.843c0.007-0.283,0.049-3.149-0.022-2.319c0.473-5.49-11.882-10.524-15.821-12.553
			c-5.484-2.824-12.251-2.825-17.727,0.02c-2.932,1.523-7.866,3.799-7.866,7.56c-0.014,5.152,0.614,7.751,5.255,10.492
			C176.233,249.981,179.774,251.979,183.293,254.01z"/>
		<path fill="#8A1C1C" d="M147.246,246.192c-2.914,1.693-7.896,3.651-7.896,7.588c-0.015,5.134,0.577,7.725,5.25,10.485
			c3.643,2.152,7.294,4.538,11.106,6.377c6.262,3.022,13.102,2.066,18.95-1.291c2.323-1.334,5.178-2.659,5.978-5.44
			c0.394-1.371,0.123-5.082,0.13-5.167c0.436-5.183-9.341-8.807-12.917-10.872C161.591,244.259,153.987,242.275,147.246,246.192z"/>
		<path fill="#8A1C1C" d="M234.726,239.295c0,4.88,0.456,7.623,5.01,10.338c3.558,2.121,7.145,4.353,10.827,6.251
			c6.187,3.19,13.18,2.582,19.108-0.782c2.414-1.37,5.538-2.78,6.369-5.667c0.384-1.335,0.125-5.104,0.13-5.167
			c0.46-5.486-11.845-10.489-15.79-12.53c-5.054-2.615-11.444-2.951-16.681-0.6C240.515,232.565,234.72,235.342,234.726,239.295z"/>
		<path fill="#8A1C1C" d="M290.55,283.935c-6.973-4.026-13.946-8.052-20.919-12.078c-3.871-2.235-7.646-3.863-12.227-4.113
			c-5.414-0.296-16.917,1.542-16.917,8.929c-0.009,3.231-0.427,6.329,2.007,8.872c1.417,1.48,3.439,2.444,5.201,3.462
			c5.478,3.163,10.956,6.325,16.434,9.488c5.595,3.23,10.769,5.662,17.541,5.125c4.108-0.326,9.182-1.616,11.876-5.02
			c1.22-1.541,1.434-2.857,1.553-4.738c0.043-0.681,0.042-3.906-0.026-3.104C295.329,287.73,292.972,285.333,290.55,283.935z"/>
		<path fill="#8A1C1C" d="M254.698,294.362c-11.846-7.005-24.711-3.163-35.603,3.167c-8.529,4.957-17.34,9.609-25.659,14.911
			c-5.259,3.352-7.348,8.482-5.997,14.547c1.864,8.366,13.956,10.764,21.035,10.761c11.592-0.006,20.909-7.11,30.525-12.698
			c4.868-2.829,9.774-5.601,14.607-8.489c2.304-1.377,4.626-2.79,6.012-5.196c0.919-1.596,1.097-3.09,1.193-4.864
			c0.033-0.599,0.085-4.386-0.04-2.939C261.124,299.499,257.964,296.248,254.698,294.362z"/>
	</g>
	<g>
		<path fill="#E85875" d="M168.507,203.205l12.156,7.018c4.904,2.831,12.855,2.811,17.727-0.02l4.22-2.452
			c4.872-2.831,4.88-7.437-0.023-10.268l-12.156-7.018c-4.904-2.831-12.89-2.831-17.762,0l-4.22,2.452
			C163.577,195.748,163.603,200.374,168.507,203.205z"/>
		<path fill="#E85875" d="M137.701,221.827l12.156,7.018c4.904,2.831,12.855,2.851,17.727,0.02l4.254-2.472
			c4.872-2.831,4.812-7.437-0.092-10.268l-12.156-7.018c-4.904-2.831-12.855-2.851-17.727-0.02l-4.254,2.472
			C132.737,214.39,132.797,218.996,137.701,221.827z"/>
		<path fill="#E85875" d="M109.567,238.177l12.156,7.018c4.904,2.831,12.89,2.831,17.762,0l4.22-2.452
			c4.872-2.831,4.846-7.457-0.058-10.288l-12.156-7.018c-4.904-2.831-12.89-2.831-17.762,0l-4.22,2.452
			C104.637,230.72,104.663,235.346,109.567,238.177z"/>
		<path fill="#E85875" d="M115.689,249.422l-12.156-7.018c-4.904-2.831-12.89-2.831-17.762,0l-4.254,2.472
			c-4.838,2.811-4.812,7.437,0.092,10.268l12.156,7.018c4.904,2.831,12.89,2.831,17.727,0.02l4.254-2.472
			C120.618,256.879,120.592,252.253,115.689,249.422z"/>
		<path fill="#E85875" d="M202.529,223.96l12.156,7.018c4.904,2.831,12.89,2.831,17.762,0l4.254-2.472
			c4.838-2.811,4.812-7.437-0.092-10.268l-12.156-7.018c-4.869-2.811-12.855-2.811-17.693,0l-4.254,2.472
			C197.634,216.523,197.66,221.149,202.529,223.96z"/>
		<path fill="#E85875" d="M183.879,249.601c4.904,2.831,12.89,2.831,17.727,0.02l4.254-2.472c4.872-2.831,4.846-7.457-0.058-10.288
			l-12.156-7.018c-4.869-2.811-12.855-2.811-17.727,0.02l-4.254,2.472c-4.838,2.811-4.812,7.437,0.058,10.248L183.879,249.601z"/>
		<path fill="#E85875" d="M147.82,246.192l-4.254,2.472c-4.872,2.831-4.846,7.457,0.023,10.268l12.156,7.018
			c4.904,2.831,12.89,2.831,17.762,0l4.254-2.472c4.838-2.811,4.812-7.437-0.092-10.268l-12.156-7.018
			C160.644,243.38,152.658,243.38,147.82,246.192z"/>
		<path fill="#E85875" d="M149.711,270.178l-12.156-7.018c-4.869-2.811-12.855-2.811-17.727,0.02l-4.22,2.452
			c-4.872,2.831-4.846,7.457,0.023,10.268l12.156,7.018c4.904,2.831,12.89,2.831,17.762,0l4.22-2.452
			C154.641,277.635,154.615,273.009,149.711,270.178z"/>
		<path fill="#E85875" d="M238.994,244.457l12.156,7.018c4.904,2.831,12.89,2.831,17.762,0l4.254-2.472
			c4.838-2.811,4.812-7.437-0.092-10.268l-12.156-7.018c-4.904-2.831-12.89-2.831-17.727-0.02l-4.254,2.472
			C234.064,237,234.09,241.626,238.994,244.457z"/>
		<path fill="#E85875" d="M238.071,270.117l4.254-2.472c4.872-2.831,4.846-7.457-0.058-10.288l-12.156-7.018
			c-4.904-2.831-12.89-2.831-17.762,0l-4.254,2.472c-4.838,2.811-4.812,7.437,0.092,10.268l12.156,7.018
			C225.248,272.929,233.233,272.929,238.071,270.117z"/>
		<path fill="#E85875" d="M320.664,266.767l-23.587-13.618c-6.043-3.489-15.888-3.489-21.858-0.02l-0.137,0.08
			c-6.004,3.489-5.972,9.192,0.071,12.681l23.587,13.618c6.043,3.489,15.888,3.489,21.892,0l0.137-0.08
			C326.74,275.959,326.708,270.257,320.664,266.767z"/>
		<path fill="#E85875" d="M291.124,283.935l-23.587-13.618c-6.043-3.489-15.888-3.489-21.858-0.02l-0.137,0.08
			c-6.004,3.489-5.972,9.192,0.071,12.681l23.587,13.618c6.043,3.489,15.888,3.489,21.892,0l0.137-0.08
			C297.199,293.126,297.167,287.424,291.124,283.935z"/>
		<path fill="#E85875" d="M180.054,279.429l12.156,7.018c4.904,2.831,12.89,2.831,17.762,0l4.22-2.452
			c4.872-2.831,4.846-7.457-0.058-10.288l-12.156-7.018c-4.904-2.831-12.89-2.831-17.762,0l-4.22,2.452
			C175.124,271.972,175.15,276.598,180.054,279.429z"/>
		<path fill="#E85875" d="M186.176,290.674l-12.156-7.018c-4.904-2.831-12.855-2.811-17.727,0.02l-4.22,2.453
			c-4.872,2.831-4.88,7.437,0.023,10.268l12.156,7.018c4.904,2.831,12.89,2.831,17.762,0l4.22-2.452
			C191.105,298.131,191.079,293.505,186.176,290.674z"/>
		<path fill="#E85875" d="M255.272,294.362l-0.276-0.16c-8.15-4.705-21.506-4.705-29.603,0l-31.496,18.304
			c-8.131,4.725-8.054,12.442,0.096,17.147l0.276,0.16c8.15,4.705,21.437,4.705,29.568-0.02l31.496-18.304
			C263.431,306.784,263.422,299.068,255.272,294.362z"/>
	</g>
	<g enable-background="new    ">
		<defs>
			<path id="SVGID_1_" enable-background="new    " d="M351.851,212.311l0.006-2.205l0.01,0.007l-0.006,2.205
				C351.854,212.314,351.851,212.312,351.851,212.311z"/>
		</defs>
		<clipPath id="SVGID_2_">
			<use xlink:href="#SVGID_1_"  overflow="visible"/>
		</clipPath>
		<g clip-path="url(#SVGID_2_)" enable-background="new    ">
			<path fill="#1D2431" d="M351.867,210.113l-0.006,2.205c-0.007-0.004-0.01-0.006-0.01-0.006l0.006-2.205L351.867,210.113"/>
		</g>
	</g>
	<g enable-background="new    ">
		<defs>
			<path id="SVGID_3_" enable-background="new    " d="M352.122,210.225l-0.006,2.205c0,0-0.064-0.026-0.254-0.112l0.006-2.205
				C352.058,210.199,352.122,210.227,352.122,210.225z"/>
		</defs>
		<clipPath id="SVGID_4_">
			<use xlink:href="#SVGID_3_"  overflow="visible"/>
		</clipPath>
		<g clip-path="url(#SVGID_4_)" enable-background="new    ">
			<polyline fill="#1D2431" points="352.122,210.225 352.116,212.43 352.115,212.43 352.121,210.225 352.122,210.225 			"/>
			<polyline fill="#1E2533" points="352.121,210.225 352.115,212.43 352.11,212.428 352.116,210.223 352.12,210.225 			"/>
			<path fill="#1D2431" d="M352.116,210.223l-0.006,2.205c-0.02-0.008-0.09-0.039-0.249-0.11l0.006-2.205
				C352.026,210.185,352.096,210.215,352.116,210.223"/>
		</g>
	</g>
	<g>
		<path fill="#1B232F" d="M362.655,224.688c0.255-0.037,0.509-0.108,0.518-0.102c0,0,0,0.001-0.003,0.003
			c-0.756,0.16-1.014,0.209-1.014,0.209S362.397,224.738,362.655,224.688z"/>
	</g>
	<g>
		<path fill="#1B232F" d="M366.443,225.047c0.005,0,0.007,0,0.007,0c0.009,0.005-0.169,0.035-0.4,0.072
			C366.186,225.091,366.318,225.067,366.443,225.047z"/>
	</g>
	<g>
		<path fill="#2F3C51" d="M356.4,232.236c-0.417-0.252-0.606-0.557-0.611-0.898C355.941,231.651,356.146,231.952,356.4,232.236z"/>
	</g>
	<g>
		<path fill="#25366F" d="M287.54,162.322c-7.041,2.811-12.458,6.679-19.396,3.15c3.198-0.498,20.805-3.649,14.656-7.477
			c-5.227,0.917-14.555,0.897-18.639,3.19c-2.865,1.6-2.475,2.59-0.831,3.539c1.389,0.802,3.674,1.575,5.65,2.661
			c0.656,0.339,1.277,0.658,1.933,0.997c-3.09,1.475-9.514,3.609-11.052,5.702c-1.059,1.457-0.897,2.4-0.037,2.897
			c1.471,0.849,4.984,0.391,7.93-1.043C273.454,173.188,288.596,166.549,287.54,162.322z"/>
		<path fill="#25366F" d="M286.959,175.381c0.663,1.655,1.872,2.353,2.804,2.891c1.14,0.658,1.899,1.097,0.979,2.672
			c-1.159,1.954-7.627,2.632-3.93,5.005c0.098,0.062,0.195,0.12,0.29,0.175c4.46,2.575,5.702-2.098,9.542-2.527
			c3.199-0.379,4.141,1.794,7.724,2.353c0.29-1.069-0.7-1.85-1.954-2.574c-0.64-0.37-1.349-0.724-1.991-1.095
			c-1.001-0.578,7.582-4.486,2.126-7.636c-7.551,3.868-7.72,4.367-15.348,0.678L286.959,175.381z"/>
		<path fill="#25366F" d="M337.579,191.212c-7.006,2.831-12.458,6.679-19.396,3.15c3.198-0.498,20.839-3.629,14.691-7.457
			c-5.262,0.897-14.59,0.877-18.639,3.19c-2.865,1.6-2.475,2.59-0.831,3.539c1.389,0.802,3.674,1.575,5.65,2.661
			c0.656,0.339,1.277,0.658,1.933,0.997c-3.09,1.475-9.515,3.609-11.052,5.702c-1.071,1.449-0.913,2.391-0.052,2.888
			c1.472,0.85,4.999,0.4,7.945-1.034C323.528,202.098,338.67,195.459,337.579,191.212z"/>
		<path fill="#25366F" d="M355.747,212.125c-1.502-0.867-3.057-1.63-3.879-2.011c-0.918-0.53-2.32-1.421-3.934-2.353
			c-3.667-2.117-8.425-4.442-11.071-3.21c-1.751,0.857,3.915,4.406,4.881,4.965c0.783,0.452,2.999,1.825,5.422,3.224
			c3.029,1.749,6.381,3.537,7.663,3.615C362.655,216.889,359.351,214.206,355.747,212.125z"/>
		<path fill="#25366F" d="M348.233,215.235c-2.216-1.279-4.962-2.659-7.443-3.885c-2.424-1.205-4.617-2.277-5.755-2.933
			c-0.255-0.147-0.458-0.274-0.597-0.376c-0.176-0.132-0.337-0.239-0.484-0.324c-1.962-1.132-1.432,1.707-0.467,2.597
			c0.232,0.22,0.536,0.431,0.89,0.635c1.606,0.927,4.238,1.715,5.737,2.515c0.449,0.259,1.555,1.057,2.937,2.014
			c1.301,0.884,2.83,1.908,4.238,2.721c1.545,0.892,2.945,1.53,3.737,1.446C354.231,219.292,351.999,217.409,348.233,215.235z"/>
		<path fill="#25366F" d="M388.062,219.205c-0.218-0.598-0.751-1.111-1.481-1.532c-1.849-1.067-4.954-1.542-7.347-1.299
			c-6.33,0.598-5.243,4.127-8.502,6.101c-2.127,1.236-4.261,1.316-7.561,2.114c-6.63,1.351-8.529,4.382-7.381,6.749
			c-0.026-2.087,6.848-5.504,10.26-6.218c-0.093,0.015-0.193,0.031-0.294,0.047c-0.344,0.04-0.671,0.087-0.688,0.09
			c0.017-0.002,0.344-0.05,1.376-0.209c1.135-0.18,2.235-0.379,3.404-0.578c-1.467,2.413-3.805,8.932-10.417,8.454
			c-1.464-0.102-2.428-0.337-3.031-0.687c0.365,0.408,0.832,0.782,1.39,1.104c2.27,1.31,6.039,1.772,10.526,0.301
			c6.906-2.253,6.084-7.617,10.856-9.83C382.194,222.455,389.355,222.814,388.062,219.205z M379.339,222.794
			c-0.688,0.08-1.342,0.14-1.995,0.199c0.095-4.34,6.248-4.277,8.23-3.132C387.014,220.693,386.248,222.097,379.339,222.794z"/>
		<path fill="#25366F" d="M337.188,247.091c-6.631-3.828-14.968-5.184-18.639-3.05c-1.202,0.699-1.745,1.689-1.715,2.835
			c-0.001-0.033-0.013-0.069-0.013-0.102l-0.012,4.409c-0.007,2.368,2.533,5.443,7.055,8.053c6.596,3.808,14.968,5.184,18.639,3.051
			c1.164-0.676,1.717-1.625,1.72-2.727l0.013-4.409c0,0.007-0.003,0.013-0.003,0.02C344.255,252.794,341.707,249.7,337.188,247.091z
			"/>
		<path fill="#25366F" d="M260.178,202.629c-6.631-3.828-15.003-5.204-18.674-3.07c-1.191,0.692-1.733,1.673-1.708,2.808
			c-0.001-0.027-0.011-0.057-0.011-0.085l-0.012,4.409c-0.007,2.376,2.55,5.467,7.081,8.083c6.596,3.808,14.968,5.184,18.639,3.051
			c1.164-0.676,1.717-1.625,1.72-2.727l0.013-4.409c0,0.007-0.003,0.013-0.003,0.02
			C267.244,208.332,264.696,205.237,260.178,202.629z"/>
		<path fill="#25366F" d="M299.063,225.079c-6.631-3.828-14.968-5.184-18.639-3.05c-1.202,0.699-1.745,1.689-1.714,2.835
			c-0.001-0.033-0.013-0.069-0.013-0.102l-0.012,4.409c-0.007,2.368,2.533,5.442,7.055,8.053c6.631,3.828,14.968,5.184,18.639,3.051
			c1.167-0.678,1.724-1.629,1.727-2.733l0.013-4.409c0,0.008-0.003,0.016-0.003,0.024
			C306.139,230.785,303.601,227.699,299.063,225.079z"/>
		<path fill="#25366F" d="M224.529,182.01c-6.631-3.828-14.968-5.184-18.639-3.05c-1.202,0.699-1.745,1.689-1.715,2.835
			c-0.001-0.033-0.013-0.069-0.013-0.102l-0.012,4.409c-0.007,2.368,2.533,5.443,7.055,8.053c6.596,3.808,14.968,5.184,18.639,3.051
			c1.164-0.676,1.717-1.625,1.72-2.727l0.013-4.409c0,0.007-0.003,0.013-0.003,0.019
			C231.595,187.713,229.047,184.618,224.529,182.01z"/>
	</g>
	<g>
		<path fill="#5888B0" d="M260.178,202.629c-6.631-3.828-15.003-5.204-18.674-3.07c-3.671,2.133-1.269,6.978,5.362,10.807
			c6.596,3.808,14.968,5.184,18.639,3.05C269.176,211.282,266.774,206.437,260.178,202.629z"/>
		<path fill="#5888B0" d="M299.063,225.079c-6.631-3.828-14.968-5.184-18.639-3.05c-3.671,2.133-1.303,6.958,5.327,10.787
			c6.631,3.828,14.968,5.184,18.639,3.051C308.061,233.733,305.693,228.907,299.063,225.079z"/>
		<path fill="#5888B0" d="M224.529,182.01c-6.631-3.828-14.968-5.184-18.639-3.05s-1.303,6.958,5.327,10.787
			c6.596,3.808,14.968,5.184,18.639,3.051C233.528,190.663,231.125,185.818,224.529,182.01z"/>
		<path fill="#5888B0" d="M337.188,247.091c-6.631-3.828-14.968-5.184-18.639-3.05s-1.303,6.958,5.327,10.787
			c6.596,3.808,14.968,5.184,18.639,3.051C346.187,255.744,343.784,250.899,337.188,247.091z"/>
	</g>
</g>
</svg>
