<?xml version="1.0" encoding="utf-8"?>
<!--Designed by Vexels.com - 2017 All Rights Reserved - https://vexels.com/terms-and-conditions/-->
<svg version="1.1" id="Layer_1" xmlns="http://www.w3.org/2000/svg" xmlns:xlink="http://www.w3.org/1999/xlink" x="0px" y="0px"
	 viewBox="0 0 1200 1200" enable-background="new 0 0 1200 1200" xml:space="preserve">
<g>
	<g>
		<path fill="#FFEF8F" d="M142.336,326.606v688.125c0,67.92,55.033,122.952,122.947,122.952h667.934
			c67.904,0,122.905-55.032,122.905-122.952V309.348C757.959,369.285,440.345,329.54,142.336,326.606z"/>
		<path fill="#C0EABE" d="M1056.122,309.348V195.207c0-67.914-55.001-122.921-122.905-122.921H265.283
			c-67.913,0-122.947,55.007-122.947,122.921v131.399C440.345,329.54,757.959,369.285,1056.122,309.348z"/>
	</g>
	<path fill="#333333" d="M238.848,1150h722.283c65.938,0,119.574-53.652,119.574-119.6V169.564
		c0-65.917-53.636-119.564-119.574-119.564H238.848c-65.907,0-119.553,53.646-119.553,119.564V1030.4
		C119.295,1096.348,172.941,1150,238.848,1150z M1031.539,1030.4c0,38.831-31.599,70.434-70.408,70.434H624.594V734.405h406.946
		V1030.4z M1031.539,685.223H624.594V348.515h406.946V685.223z M168.441,169.564c0-38.815,31.598-70.398,70.407-70.398h722.283
		c38.81,0,70.408,31.583,70.408,70.398v129.775H168.441V169.564z M168.441,348.515h406.987v336.708H168.441V348.515z
		 M168.441,734.405h406.987v366.429h-336.58c-38.81,0-70.407-31.603-70.407-70.434V734.405z"/>
	<path fill="#333333" d="M727.251,544.43h73.397v82.264c0,13.591,10.998,24.573,24.604,24.573c13.563,0,24.572-10.982,24.572-24.573
		V544.43h73.366c13.595,0,24.583-10.993,24.583-24.588c0-13.58-10.988-24.578-24.583-24.578h-73.366v-82.265
		c0-13.595-11.009-24.572-24.572-24.572c-13.606,0-24.604,10.977-24.604,24.572v82.265h-73.397
		c-13.595,0-24.584,10.997-24.584,24.578C702.667,533.436,713.656,544.43,727.251,544.43z"/>
	<path fill="#333333" d="M270.56,1004.902c4.811,4.8,11.092,7.191,17.392,7.191c6.29,0,12.571-2.39,17.382-7.191l62.761-62.788
		l62.752,62.746c4.8,4.785,11.101,7.191,17.382,7.191c6.291,0,12.581-2.406,17.392-7.191c9.591-9.602,9.591-25.168,0-34.774
		l-62.741-62.736l62.741-62.736c9.591-9.607,9.591-25.168,0-34.77c-9.612-9.606-25.183-9.606-34.774,0l-62.752,62.741L305.334,809.8
		c-9.612-9.618-25.183-9.618-34.774,0c-9.602,9.612-9.602,25.157,0,34.769l62.772,62.782l-62.772,62.782
		C260.958,979.745,260.958,995.29,270.56,1004.902z"/>
	<path fill="#333333" d="M431.188,421.975l-160.98,160.98c-9.591,9.586-9.591,25.162,0,34.77c4.8,4.79,11.092,7.185,17.382,7.185
		c6.301,0,12.581-2.395,17.382-7.185l160.981-160.975c9.601-9.612,9.601-25.157,0-34.774
		C456.34,412.383,440.779,412.383,431.188,421.975z"/>
	<path fill="#333333" d="M305.117,483.52c17.351,0,31.495-14.051,31.495-31.479c0-17.387-14.144-31.454-31.495-31.454
		c-17.382,0-31.474,14.067-31.474,31.454C273.643,469.47,287.735,483.52,305.117,483.52z"/>
	<path fill="#333333" d="M430.992,556.142c-17.331,0-31.402,14.086-31.402,31.51c0,17.371,14.071,31.463,31.402,31.463
		c17.434,0,31.535-14.092,31.535-31.463C462.527,570.228,448.425,556.142,430.992,556.142z"/>
	<path fill="#333333" d="M733.2,883.202h184.042c13.595,0,24.583-10.982,24.583-24.568c0-13.595-10.988-24.599-24.583-24.599H733.2
		c-13.585,0-24.583,11.004-24.583,24.599C708.617,872.22,719.616,883.202,733.2,883.202z"/>
	<path fill="#333333" d="M733.2,990.055h184.042c13.595,0,24.583-10.988,24.583-24.583s-10.988-24.578-24.583-24.578H733.2
		c-13.585,0-24.583,10.982-24.583,24.578S719.616,990.055,733.2,990.055z"/>
</g>
</svg>
