<?xml version="1.0" encoding="utf-8"?>
<!-- Designed by Vexels.com - 2020 All Rights Reserved - https://vexels.com/terms-and-conditions/  -->
<svg version="1.1" id="Capa_1" xmlns="http://www.w3.org/2000/svg" xmlns:xlink="http://www.w3.org/1999/xlink" x="0px" y="0px"
	 viewBox="0 0 1200 1200" enable-background="new 0 0 1200 1200" xml:space="preserve">
<g>
	<path fill="#280412" d="M801.884,803.627c0.047-0.047,0.07-0.07,0.117-0.117c0.023,0.164,0.07,0.304,0.14,0.468
		c1.941,4.396,7.459,5.565,11.714,6.056c6.196,0.701,12.345,1.52,18.494,2.455c12.462,1.87,24.854,4.232,37.152,6.921
		c6.196,1.356,12.298,2.549,16.788,7.342c10.405,11.106,14.099,30.746,18.401,44.728c5.541,18.05,9.89,37.62,18.611,54.478
		c5.448,10.568,14.309,18.892,20.061,29.273c4.583,8.3,6.57,16.951,6.897,26.327c1.076,31.097-0.257,62.521-1.683,93.641
		c11.807-4.933,23.474-10.288,34.931-16.039c26.07-13.117,49.077-29.6,65.303-54.01c-4.629-21.16-19.009-41.244-28.595-60.37
		c-7.809-15.595-11.69-29.063-15.128-46.201c-7.575-37.573,0.257-78.373,2.245-116.274c0.912-17.232,1.941-34.51,1.683-51.789
		c-0.07-5.074-0.234-11.62-0.982-14.613c-0.07-0.257-0.398-1.286-0.444-1.567c-0.397-0.748-0.818-1.473-1.286-2.151
		c-1.169-1.707-2.478-3.273-3.881-4.816c-21.721-23.989-51.532-42.881-79.94-59.247c-2.034-0.491-3.881-1.496-5.307-3.04
		c-1.59-0.912-3.203-1.824-4.793-2.736c-6.336-3.577-12.766-7.201-19.453-10.124c-1.941-0.842-3.905-1.707-5.962-2.268
		c-1.076-0.281-1.473-0.21-1.637-0.21c2.151,9.493,10.592,21.651,17.232,32.616c12.369,6.477,24.784,12.906,36.802,20.014
		c15.735,9.282,38.415,21.51,46.785,38.462c2.876,5.845-2.081,15.548-9.586,12.462c-14.964-6.196-27.753-19.126-41.618-27.73
		c-13.514-8.37-27.59-15.735-41.642-23.147c-14.707-7.716-30.068-19.009-46.294-23.054c-2.245-0.561-4.466-1.076-6.804-0.959
		c-0.608,0.023-1.005,0.164-1.286,0.304c0.304,0.959,0.795,3.04,0.959,3.25c6.313,9.539,14.379,15.315,23.545,22.048
		c10.966,8.066,21.814,16.273,32.546,24.644c13.935,10.896,67.174,50.269,72.247,63.643c2.361,6.196-4.513,11.363-10.077,10.077
		c-15.665-3.624-30.302-15.712-45.008-22.376c-15.174-6.897-30.793-12.626-46.224-18.845c-15.642-6.289-36.498-15.922-55.226-12.252
		c-4.068,0.795-5.658,1.754-7.669,5.004c-0.21,0.351-0.257,2.128-0.351,2.946c0.14,0.164,0.281,0.304,0.468,0.491
		c5.378,4.84,13.701,8.043,20.505,10.896c21.02,8.815,42.834,15.689,63.339,25.766c6.383,3.133,44.751,25.953,49.077,29.904
		c10.194,9.352-5.027,24.503-15.151,15.151c-0.094-0.094-0.164-0.14-0.187-0.187c-0.187-0.094-41.501-31.518-108.792-21.955
		c-4.372,0.608-10.311,0.187-10.919,5.541c-0.047,0.351-0.07,0.701,0,1.029C801.93,803.534,801.884,803.58,801.884,803.627z
		 M803.17,736.033c0,0.023,0.047,0.117,0.14,0.304C803.263,736.173,803.216,736.08,803.17,736.033z M871.185,841.598
		c-3.227-1.683-8.487-1.894-11.948-2.549c-0.818-0.14-1.66-0.304-2.502-0.444c0.772,6.71,1.683,13.421,1.964,20.178
		c0.257,5.939-5.471,11.854-11.48,11.503c-25.813-1.52-51.719-2.736-77.531-0.772c-27.543,2.081-54.758,7.622-81.833,12.906
		c-7.646,1.496-14.449-3.273-14.823-11.293c-2.946-66.823-3.601-133.716-4.466-200.585c-0.842-66.612-5.635-133.926-2.174-200.422
		c0.164-3.18,2.689-5.284,5.354-5.798c0.327-0.164,0.655-0.327,1.005-0.444c12.439-4.466,26.982-4.232,40.052-4.91
		c14.473-0.748,28.922-1.403,43.395-1.87c28.361-0.912,56.909-2.361,85.27-1.567c7.084,0.21,10.451,5.798,10.147,11.176
		c4.84,14.566,3.881,31.401,4.045,46.528c0.187,16.086-0.07,32.172-0.094,48.258c-0.047,16.858,0.07,33.715,0.678,50.55
		c0.281,7.879,2.829,18.939,1.964,28.244c5.12,1.87,10.147,4.138,14.707,6.383c-3.764-7.459-5.962-15.081-4.863-22.142
		c3.133-20.061,26.257-12.906,38.462-7.482c2.712,1.192,5.401,2.455,8.113,3.741c0.047-37.947,0.07-75.895,0.14-113.819
		c-24.948-12.275-45.499-32.523-60.346-55.951c-8.113-12.813-14.426-27.262-16.741-42.32c-1.169-7.505-1.87-16.764-0.21-25.041
		c-14.309,0.281-28.595,0.748-42.881,0.397c-31.705-0.772-63.386-1.637-95.09-1.122c-15.478,0.234-31.167,1.8-46.622,0.935
		c-9.446-0.538-18.003-0.795-27.099,0.304c1.683,9.189,1.403,18.775,1.707,28.057c0.374,12.415,0.538,24.854,0.748,37.269
		c0.397,23.287,0.397,46.575,0.561,69.886c0.327,48.141,2.642,96.236,2.829,144.401c0.187,48.118,0,96.259,0,144.401v62.38
		c0,13.888,2.221,31.331-0.14,46.341c17.489-2.899,34.955-6.149,52.42-8.815c67.01-10.264,135.563-21.253,203.555-21.861
		c-3.975-13.842-7.996-27.8-14.146-40.636C872.424,843.702,870.016,841.107,871.185,841.598z M1060.267,976.88
		c3.905,9.329,8.324,20.014,4.863,30.115c-0.631,1.8-1.87,3.25-3.414,4.255c-14.216,31.284-38.649,50.947-69.161,66.776
		c-37.129,19.266-76.082,34.043-116.601,44.354c-76.058,19.359-154.969,24.456-233.132,26.304
		c-64.672,1.543-129.694,2.665-194.249-2.245c-60.744-4.629-121.791-14.94-178.28-38.532c-27.59-11.55-53.589-26.163-77.251-44.517
		c-11.878-9.189-23.124-19.196-33.505-30.068c-11.012-11.55-22.469-22.843-25.742-38.812c-0.701-3.414,0.772-6.664,3.227-8.511
		c4.209-7.856,10.849-14.613,15.361-22.376c5.12-8.791,9.282-18.003,12.766-27.59c7.038-19.43,19.593-37.737,23.732-57.961
		c1.169-5.682-0.327-76.994,7.155-108.792c5.401-22.937,20.973-39.14,35.656-56.629c12.556-14.964,25.111-29.951,37.62-44.985
		c-3.998-24.854-2.946-50.386-2.058-75.45c1.005-28.525,2.665-57.05,2.455-85.598c-0.327-45.219,5.728-91.162-4.372-135.61
		c-1.59-6.968,3.133-12.789,10.101-13.257c22.025-1.52,44.026-2.899,66.051-4.045c1.052-25.976,13.21-51.882,26.397-73.463
		c14.052-22.96,31.143-47.44,54.945-60.603c66.262-36.708,144.518-24.877,168.951-20.505c0-0.374-0.374-3.156,1.683-5.471
		c2.852-3.203,8.37-6.196,8.417-6.734c-12.182-0.865-79.519-4.723-94.202-15.993c-12.041-9.235-19.289-27.753-8.721-41.01
		c12.065-15.127,55.787,14.917,57.47,7.342c1.683-7.575-47.978-50.503-13.584-71.078c19.757-1.309,51.812,54.104,66.495,81.927
		c1.777,5.728,4.279,10.966,7.692,15.244c-0.585-1.309-3.39-7.108-7.692-15.244c-6.944-22.422-2.712-52.373,1.099-62.193
		c10.849-27.893,38.368-35.025,65.841-35.913c15.922-0.514,83.119,16.086,93.384,21.37c25.766,13.28,50.69,35.165,57.634,64.485
		c7.926,33.505-16.507,62.334-45.99,74.679c0.865,2.829,1.286,5.892,1.122,9.189c-0.538,10.896-7.365,20.879-15.922,28.268
		c4.115,1.847,8.16,3.975,12.111,6.126c15.618,8.417,30.419,18.424,44.096,29.717c19.43,16.039,44.284,40.239,41.758,67.945
		c-0.351,3.811-1.496,8.066-3.297,12.181c4.536,0.047,9.072,0.117,13.584,0.327c16.881,0.748,50.596,3.25,50.596,3.25
		s10.03,4.372,10.03,10.03c0.023,40.426,0.164,80.851,0.304,121.301c0.07,0.678,0.07,1.356,0.023,2.058
		c0.14,43.629,0.304,87.258,0.374,130.887c26.444,14.636,51.836,32.616,73.627,52.28c10.334,9.352,18.868,18.868,20.529,33.037
		c1.87,16.109,0.912,32.64,0.304,48.796c-1.847,50.526-16.811,112.86,5.775,160.581c2.736,5.775,5.495,11.55,8.277,17.325
		C1049.886,954.832,1055.52,965.611,1060.267,976.88z M934.056,1081.042c-2.502-17.653-1.637-35.843-2.174-53.613
		c-0.655-21.487,2.876-48.913-9.867-67.361c-6.289-9.095-13.771-17.021-18.471-27.122c-3.507-7.552-6.336-15.455-8.955-23.381
		c-39.046,0.538-77.929,4.045-116.694,8.511c-1.964,0.21-3.905,0.468-5.869,0.701c-7.529,39.724-22.118,77.625-50.152,107.623
		c-48.422,51.789-125.813,81.6-193.945,52.327c-32.289-13.865-57.657-39.327-77.157-68.062
		c-10.171-15.011-18.448-31.19-25.555-47.861c-5.12-12.018-11.62-25.672-13.07-39.187c-7.833-1.473-15.689-2.946-23.521-4.349
		c-18.12-3.25-36.404-5.401-54.548-8.324c-2.058,6.219-4.653,12.181-8.113,17.84c-7.459,12.252-17.162,22.212-28.712,30.676
		c-7.692,5.635-15.151,9.68-22.235,15.081c-0.234,1.146-0.631,2.338-1.239,3.554c-8.347,16.881-17.255,33.598-26.327,50.082
		c-5.237,9.493-10.919,22.96-18.214,32.429c22.937,14.894,47.744,26.748,73.557,35.796c8.511,2.969,17.115,5.635,25.766,8.066
		c2.689-25.041,11.48-54.384,31.705-68.95c5.354-3.858,12.275,2.525,10.708,8.23c-3.203,11.574-9.914,21.978-13.748,33.388
		c-3.647,10.802-5.705,21.698-6.43,32.99c40.075,9.189,81.342,13.514,122.306,15.665c62.661,3.273,125.766,2.151,188.451,0.21
		c65.747-2.057,131.915-6.968,196.12-21.744c-1.637-6.897-2.455-13.958-3.344-16.881c-5.822-19.57-19.336-31.541-30.699-47.58
		c-4.162-5.869,2.782-14.239,9.329-12.111c17.279,5.658,30.465,23.568,38.228,39.327c3.46,7.038,9.259,19.757,10.638,31.19
		c0.07,0,0.14-0.023,0.21-0.047C899.663,1093.341,917.035,1087.612,934.056,1081.042z M914.837,481.788
		c0.094-31.634,0.234-63.269,0.444-94.88c-12.813-0.935-25.602-2.058-38.438-2.852c-7.716-0.468-15.455-0.608-23.194-0.585
		c0.421,7.716,0.351,15.455,2.689,23.241c3.601,12.041,9.376,23.194,16.32,33.645C883.296,456.35,897.909,471.594,914.837,481.788z
		 M878.714,722.004c-5.752-4.209-11.527-8.417-17.395-12.509c-17.512-12.298-51.274-30.676-44.096-57.377
		c2.759-10.288,9.072-14.777,16.904-15.829c-0.912-8.277-0.094-17.395-0.304-24.246c-0.514-16.109-0.351-32.242-0.047-48.352
		c0.327-16.834,0.795-33.645,1.263-50.456c0.327-11.784-0.351-24.433,1.192-36.451c-26.654,0.748-53.379,0.468-80.033,0.959
		c-15.104,0.281-30.208,0.468-45.312,0.701c-10.077,0.14-20.832,0.795-31.003-0.678c10.896,62.404,9.984,127.403,11.41,190.508
		c1.426,62.942,2.268,125.907,4.629,188.825c23.498-4.466,47.136-8.628,70.961-10.568c22.937-1.87,45.944-1.169,68.88,0.094
		c0.14-3.905,0.327-7.833,0.421-11.761c-2.245-0.421-4.489-0.865-6.71-1.333c-15.642-3.343-41.922-8.721-46.271-27.426
		c-5.705-24.41,31.541-28.759,71.055-24.76c-5.004-1.894-10.054-3.788-15.034-5.752c-11.176-4.396-22.376-8.815-33.224-14.005
		c-7.108-3.39-15.782-7.482-20.038-14.52c-5.237-8.674-2.689-21.885,3.834-29.226c7.716-8.698,20.154-10.685,31.237-10.428
		C841.374,707.859,860.032,714.873,878.714,722.004z M838.405,356.793c12.906-18.892-19.921-46.505-31.915-56.722
		c-11.761-10.007-24.456-18.939-37.784-26.724c-4.068-2.385-3.086,2.128,1.052,7.108c4.793,5.752,9.095,11.971,12.86,18.541
		c7.739,13.538,12.93,28.642,13.701,44.284c0.327,6.921-0.234,15.151-2.852,22.189c12.556-0.07,25.111-0.561,37.667-0.982
		C833.448,361.937,836.394,359.763,838.405,356.793z M810.511,167.057c7.739-15.899,3.764-32.827-5.284-47.183
		c-7.201-11.457-17.115-21.113-28.688-29.016c3.951,13.304,2.876,28.969-0.234,42.67c-4.279,18.845-13,38.696-26.21,53.893
		c1.309,0.257,2.595,0.561,3.881,0.865c7.342,1.824,14.403,5.284,19.663,10.241C789.141,192.776,803.216,182.091,810.511,167.057z
		 M772.634,365.398c0.234-8.347,2.759-17.279,2.058-25.228c-1.099-12.439-6.079-24.293-12.485-34.861
		c-9.89-16.273-24.41-32.219-40.776-43.255c-6.757-0.585-13.467-2.104-19.944-4.255c-15.104-5.004-29.67-11.129-44.658-16.25
		c-1.8,3.273-4.209,6.477-6.874,9.493c5.027,6.523,9.867,13.257,15.642,19.289c11.293,11.714,23.241,22.773,34.23,34.791
		c10.568,11.574,21.02,24.059,26.865,38.766c2.221,5.611,4.419,14.029,4.022,21.604
		C744.694,365.304,758.652,365.281,772.634,365.398z M751.451,218.027c2.619,0.094,5.424-0.047,8.207,0.047
		c-0.304-1.941-1.52-3.811-3.951-5.471c-4.185-2.876-43.535-10.124-75.965-21.464c-29.413-10.288-52.256-25.368-55.132-17.676
		c-6.032,16.156,11.62,16.273,16.413,20.482c1.754,1.543,3.367,3.484,3.484,5.822c0.21,3.975-20.224-4.138-27.613-5.354
		c-1.216-0.187-2.525-0.164-3.951,0.187c-13.584,16.53,62.497,30.746,73.066,34.604c15.899,5.798,33.435,14.122,50.713,9.726
		c2.572-0.655,6.617-2.502,10.568-5.004c-0.023,0-0.07,0-0.094,0c-7.248-1.076-14.449-2.736-20.856-6.406
		C718.086,222.82,745.582,217.84,751.451,218.027z M721.219,182.933c29.764-20.365,50.667-76.83,26.467-107.132
		c-3.694-1.426-23.732-7.856-27.964-6.71c-5.541,1.496-28.642,32.546-34.417,43.629c-6.196,11.901-10.428,25.345-12.018,38.672
		c-0.655,5.448-0.795,11.059-0.444,16.507c0.07,0.959,0.187,1.941,0.327,2.899c4.489,1.356,9.025,2.642,13.538,3.881
		c11.059,3.016,22.212,5.682,33.435,8.043C720.518,182.792,720.869,182.862,721.219,182.933z M714.93,996.964
		c16.975-22.422,25.438-48.352,31.962-75.076c-15.782,2.034-31.541,4.209-47.276,6.5c-0.701,5.822-2.291,11.831-3.156,16.53
		c-2.151,11.714-6.593,23.147-13.093,33.178c4.793,3.227,8.978,7.529,12.719,11.854c3.928,4.559,8.394,9.773,12.065,15.385
		C710.511,1002.599,712.779,999.817,714.93,996.964z M705.531,366.052c0.023-1.824,0.047-3.671-0.21-5.565
		c-0.748-5.705-3.554-10.989-6.453-15.852c-7.529-12.626-17.863-23.381-27.964-33.949c-10.638-11.106-21.721-22.048-30.933-34.417
		c-2.221-2.946-4.629-6.266-6.734-9.773c-15.876,12.579-33.435,22.867-50.76,33.318c-16.764,10.147-34.136,20.084-48.843,33.154
		c-4.98,4.442-15.922,11.784-14.473,19.921c17.933,2.151,51.274,16.18,51.274,16.18s0.047,0.023,0.07,0.047
		c3.647-0.725,40.683,1.286,46.949,4.279c6.968-5.962,55.202-6.056,70.447-6.734C693.793,366.403,699.662,366.216,705.531,366.052z
		 M699.171,64.531c-12.345-1.122-24.433-0.982-35.562,0.468c-11.083,1.45-23.404,3.951-31.541,12.158
		c-7.762,7.833-11.083,19.102-12.439,29.787c-1.987,15.431-2.806,30.115,8.861,42.296c3.951,4.138,26.631,15.548,26.631,15.548
		s-0.397-12.532-0.047-17.115c1.216-16.647,6.126-32.85,13.678-47.697C675.79,86.135,686.171,73.229,699.171,64.531z
		 M692.531,1021.257c-2.782-5.869-6.336-11.41-10.147-16.647c-2.946-4.045-6.173-7.879-9.563-11.574
		c-0.234-0.257-0.468-0.561-0.725-0.888c-13.491,13.982-31.494,25.368-50.316,31.938c3.928,6.897,6.991,14.239,9.259,21.931
		c0.842,2.806,2.128,6.64,3.086,10.732c1.122-0.421,2.221-0.795,3.32-1.239C657.342,1047.771,676.304,1035.87,692.531,1021.257z
		 M675.486,931.989c-1.73,0.257-3.46,0.514-5.191,0.772c-30.512,4.676-60.861,10.404-91.7,12.579
		c-25.462,1.777-51.555-0.982-77.274-5.12c8.23,14.403,16.437,28.548,28.525,40.73c16.717,16.811,39.257,29.086,63.643,27.028
		c25.322-2.151,55.249-19.383,69.745-40.402c6.664-9.656,10.03-20.786,11.831-32.266
		C675.229,934.257,675.369,933.134,675.486,931.989z M628.888,236.381c0.818-0.888,1.52-1.894,2.151-2.923
		c-4.887-1.777-9.61-3.881-13.888-6.336c-10.615-1.707-21.627-1.473-32.196-0.678c-64.344,4.887-156.676,46.762-129.554,123.568
		c15.268-0.21,30.536-0.14,45.733,1.076c0.608-7.926,4.232-16.39,7.716-21.44c11.106-16.133,28.338-27.73,44.237-38.672
		c18.331-12.602,37.433-24.153,55.436-37.269C615.701,248.469,622.902,243.022,628.888,236.381z M614.555,1062.478
		c-0.164-0.865-0.304-1.707-0.421-2.432c-1.567-10.779-3.46-21.768-7.903-31.705c-3.133,0.631-6.266,1.146-9.376,1.45
		c-15.455,1.567-30.465-1.38-44.237-7.435c-3.11,5.541-6.593,10.849-7.833,17.208c-1.216,6.173-1.543,12.556-2.104,18.868
		c1.613,0.608,3.25,1.169,4.887,1.707C569.5,1067.107,592.46,1067.341,614.555,1062.478z M610.417,412.23
		c0.257-8.557,0.023-17.395,1.286-25.906c-4.863,0.935-9.68,1.333-15.128,1.005c-5.822-0.351-13.538,0.444-20.505-0.234
		c2.455,16.951,0.842,35.89,0.959,52.303c5.518-0.678,11.106-0.678,16.647-0.818c5.448-0.14,10.896-0.561,16.156-0.023
		C609.973,429.789,610.136,420.998,610.417,412.23z M609.411,468.157c0.047-3.905,0.094-7.809,0.14-11.714
		c-5.167,0.514-10.521,0.094-15.876-0.047c-5.495-0.14-11.036-0.14-16.507-0.795c0.023,4.138,0.07,8.3,0.094,12.439
		C587.387,466.918,600.199,467.339,609.411,468.157z M609.084,519.385c0.094-11.433,0.117-22.843,0.187-34.253
		c-7.248,0.772-14.683,0.468-21.931,0.327c-2.829-0.07-6.36,0.07-9.914-0.094c0.047,6.313,0.117,12.626,0.164,18.939
		c0.538,77.11,0.468,154.197,0.444,231.308c0,36.661,0,73.299-0.094,109.961c-0.023,4.068,0.047,8.207,0.117,12.369h28.197v-49.755
		c0-48.141-0.187-96.283,0-144.401C606.442,615.621,608.78,567.526,609.084,519.385z M606.255,871.97h-27.823
		c0.094,4.045,0.187,8.137,0.257,12.205c4.91-0.585,9.89-0.795,14.73-0.888c3.975-0.07,8.23-0.351,12.462-0.351
		C606.068,879.124,606.208,875.454,606.255,871.97z M607.097,920.579c-1.146-5.214-1.637-10.802-1.754-16.484
		c-8.885,0.047-17.957-0.865-26.841-1.052c-0.281,6.851-0.842,13.631-1.8,20.295c6.64-0.257,13.304-0.725,20.014-1.473
		C600.176,921.491,603.636,921.046,607.097,920.579z M604.829,218.495c0.935-0.047-2.619-6.593-5.471-7.365
		c-61.726-14.777-118.051-5.495-164.742,23.802c-21.394,13.397-37.667,35.539-50.573,56.746
		c-11.644,19.172-20.482,39.607-25.976,61.211c7.318-0.351,14.613-0.655,21.931-0.935c-10.685-34.884,45.64-97.405,56.909-87.351
		c11.27,10.077-21.23,22.376-31.424,44.938c-9.376,20.786-4.676,41.665-4.676,41.665s21.698-0.608,32.546-0.795
		c2.525-0.047,5.05-0.094,7.575-0.14c-5.401-17.559-6.71-36.217-0.561-53.987c13.351-38.508,52.607-60.954,89.292-72.925
		C547.919,217.419,586.311,212.884,604.829,218.495z M595.991,158.312c5.892-5.892-32.266-77.227-45.453-71.546
		C537.351,92.448,590.099,164.204,595.991,158.312z M582.523,170.938c7.95,0.959-24.69-18.237-43.793-24.901
		c-4.676-1.637-18.681-7.646-23.591-4.045c-4.068,2.993-1.263,8.674,1.473,11.854C527.695,166.636,566.975,169.068,582.523,170.938z
		 M554.045,430.747c0.257-14.449-1.076-30.769,1.169-45.57c-8.674-2.478-17.162-5.892-26.023-7.833
		c-11.784-2.619-23.755-3.975-35.773-4.7c-22.048-1.286-44.167-0.538-66.215-0.257c-21.043,0.281-42.086,0.888-63.105,1.707
		c1.964,20.435-1.987,40.66-16.624,56.512c-13.888,15.034-35.913,24.924-56.769,27.402c-0.491,14.566-1.099,29.179-1.169,43.816
		c-0.21,49.334-4.629,98.41-5.191,147.721c0.047-0.047,0.094-0.094,0.117-0.14c7.365-8.978,14.753-17.933,21.768-27.169
		c6.289-8.277,11.363-16.811,23.171-11.503c12.672,5.682,15.969,23.451,16.273,35.913c0.07,2.759-0.047,5.541-0.281,8.37
		c13-10.054,30.98-23.498,47.346-19.406c21.347,5.331,10.194,35.375,1.005,45.406c-14.94,16.297-32.546,29.974-47.931,45.827
		c-8.16,8.417-18.939,17.208-24.644,27.379c7.552-1.59,14.683-6.102,21.604-9.75c18.003-9.493,36.053-19.055,55.343-25.672
		c15.618-5.378,39.046-13.257,54.501-3.905c8.861,5.354,11.036,15.993,7.879,25.368c-3.227,9.656-12.345,15.922-20.645,20.996
		c-18.471,11.27-38.251,20.037-56.699,31.401c-8.885,5.471-25.742,11.433-29.437,21.183c10.919,4.092,23.428-2.525,34.417-4.185
		c14.94-2.245,31.284-5.939,46.435-5.424c11.27,0.397,22.352,4.232,27.099,15.338c4.536,10.685-1.567,20.014-10.545,25.813
		c-20.832,13.514-48.025,14.917-71.639,19.64c-11.527,2.315-27.005,4.957-34.58,14.987c-2.829,3.718-4.536,8.16-5.869,12.743
		c19.757,1.192,39.654,4.98,58.943,8.207c25.111,4.185,50.129,8.908,75.217,13.093c27.192,4.536,54.127,8.511,81.272,9.352
		c-1.473-12.088-1.286-24.433-1.333-36.498c-0.047-18.19-0.094-36.381-0.164-54.548c-0.234-76.549-0.304-153.099,0-229.625
		c0.14-38.181,0.187-76.339,0.538-114.497C553.671,469.069,553.671,449.896,554.045,430.747z M522.317,1048.543
		c1.917-13.117,5.331-25.181,13.701-35.305c-5.775-3.881-11.223-8.277-16.25-13.117c-8.113-7.786-16.063-17.068-22.937-27.169
		c-4.723,2.923-9.633,5.541-14.356,8.511c-4.536,2.899-9.165,5.892-12.649,10.077c-0.585,0.725-1.122,1.403-1.66,2.081
		c2.058,3.11,4.138,6.219,6.313,9.259C487.339,1020.79,503.379,1037.086,522.317,1048.543z M487.667,957.684
		c-3.601-6.944-6.523-14.122-8.581-21.347c-8.043-1.496-16.039-3.016-23.942-4.489c-6.43-1.216-12.836-2.432-19.266-3.671
		c4.209,9.797,7.482,20.295,11.901,29.437c2.806,5.798,5.822,11.503,8.978,17.162C464.94,967.247,477.286,961.612,487.667,957.684z
		 M356.616,787.003c15.011-9.89,91.513-41.875,84.265-53.893c-7.248-12.018-50.737,11.62-62.24,16.834
		c-11.807,5.331-82.511,44.611-91.607,32.687c-5.237-6.897,4.606-25.251,8.487-31.027c6.43-9.563,15.174-17.349,23.1-25.602
		c12.93-13.421,26.046-26.35,40.145-38.508c8.698-7.529,18.424-15.128,25.298-24.433c2.385-3.203,10.755-15.431-3.834-12.065
		c-14.59,3.367-73.229,55.53-85.177,63.503c-15.081,10.03-37.433,34.697-44.962,30.793c-7.529-3.905,32.102-44.213,44.213-52.888
		c7.692-5.518,15.408-10.989,23.1-16.53c9.586-6.921,10.405-32.64,5.331-42.039c-28.969,30.302-55.015,65.56-82.488,97.545
		c-5.307,6.149-10.919,12.158-15.852,18.611c-9.726,12.813-13.21,28.618-14.636,44.354c-2.361,25.859-3.297,83.517-4.279,88.38
		c-4.653,23.147-10.779,45.616-20.318,67.29c-5.869,13.351-15.689,33.248-29.413,43.255c9.189,8.324,16.437,18.845,25.251,27.87
		c9.212,9.399,19.055,18.167,29.507,26.21c3.273-10.919,9.96-22.376,14.029-30.886c8.253-17.232,17.138-35.001,28.034-50.783
		c1.52-2.198,18.354-16.039,27.636-22.259c15.595-10.381,27.59-24.293,33.178-42.413c4.887-15.782,8.253-32.172,22.259-42.507
		c12.298-9.095,73.136-18.752,87.842-23.171c5.261-1.59,10.802-3.11,15.618-5.869c2.081-1.216-0.748-4.91-3.133-5.12
		c-16.039-1.333-35.656,3.414-51.368,5.915c-10.989,1.754-62.988,17.933-70.166,3.203c-1.567-3.273,0.351-7.108,2.595-9.937
		C329.237,808.21,339.852,798.063,356.616,787.003z M335.854,422.424c13.047-12.976,16.18-30.395,14.286-47.744
		c-20.762,0.912-41.525,2.034-62.287,3.273c3.46,21.838,3.788,43.816,3.273,65.864C307.516,441.433,324.561,433.693,335.854,422.424
		z"/>
	<path fill="#FAF6ED" d="M802.001,803.487c-0.07-0.327-0.047-0.678,0-1.029c0.608-5.354,6.547-4.933,10.919-5.541
		c67.29-9.563,108.605,21.861,108.792,21.955c0.023,0.047,0.094,0.094,0.187,0.187c10.124,9.352,25.345-5.799,15.151-15.151
		c-4.325-3.951-42.694-26.771-49.077-29.904c-20.505-10.077-42.32-16.951-63.339-25.766c-6.804-2.852-15.127-6.056-20.505-10.896
		c-0.187-0.187-0.327-0.327-0.468-0.491c0.094-0.818,0.14-2.595,0.351-2.946c2.011-3.25,3.601-4.209,7.669-5.004
		c18.728-3.671,39.584,5.962,55.226,12.252c15.431,6.219,31.05,11.948,46.224,18.845c14.707,6.664,29.343,18.752,45.008,22.376
		c5.565,1.286,12.439-3.881,10.077-10.077c-5.074-13.374-58.312-52.747-72.247-63.643c-10.732-8.37-21.581-16.577-32.546-24.644
		c-9.165-6.734-17.232-12.509-23.545-22.048c-0.164-0.21-0.655-2.291-0.959-3.25c0.281-0.14,0.678-0.281,1.286-0.304
		c2.338-0.117,4.559,0.397,6.804,0.959c16.226,4.045,31.588,15.338,46.294,23.054c14.052,7.412,28.127,14.777,41.642,23.147
		c13.865,8.604,26.654,21.534,41.618,27.73c7.505,3.086,12.462-6.617,9.586-12.462c-8.37-16.951-31.05-29.179-46.785-38.462
		c-12.018-7.108-24.433-13.538-36.802-20.014c-6.64-10.966-15.081-23.124-17.232-32.616c0.164,0,0.561-0.07,1.637,0.21
		c2.058,0.561,4.022,1.426,5.962,2.268c6.687,2.923,13.117,6.547,19.453,10.124c1.59,0.912,3.203,1.824,4.793,2.736
		c1.426,1.543,3.273,2.549,5.307,3.04c28.408,16.367,58.219,35.258,79.94,59.247c1.403,1.543,2.712,3.11,3.881,4.816
		c0.468,0.678,0.888,1.403,1.286,2.151c0.047,0.281,0.374,1.309,0.444,1.567c0.748,2.993,0.912,9.539,0.982,14.613
		c0.257,17.279-0.772,34.557-1.683,51.789c-1.987,37.901-9.82,78.7-2.245,116.274c3.437,17.138,7.318,30.606,15.128,46.201
		c9.586,19.126,23.966,39.21,28.595,60.37c-16.226,24.41-39.233,40.893-65.303,54.01c-11.457,5.752-23.124,11.106-34.931,16.039
		c1.426-31.12,2.759-62.544,1.683-93.641c-0.327-9.376-2.315-18.027-6.897-26.327c-5.752-10.381-14.613-18.705-20.061-29.273
		c-8.721-16.858-13.07-36.428-18.611-54.478c-4.302-13.982-7.996-33.622-18.401-44.728c-4.489-4.793-10.592-5.986-16.788-7.342
		c-12.298-2.689-24.69-5.05-37.152-6.921c-6.149-0.935-12.298-1.754-18.494-2.455c-4.255-0.491-9.773-1.66-11.714-6.056
		c-0.07-0.164-0.117-0.304-0.14-0.468V803.487z M989.048,815.551c5.471-4.489,5.12-14.356,3.414-20.505
		c-1.847-6.664-6.196-12.743-12.602-15.572c-5.986-2.619-12.672,4.349-7.412,9.586c3.273,3.273,4.559,6.406,4.98,10.966
		c0.444,4.606-0.257,10.428,2.619,14.356C982.385,817.562,985.985,818.053,989.048,815.551z M962.768,857.123
		c5.424-5.541,5.003-16.834,1.964-23.521c-3.203-7.108-10.264-12.322-18.237-11.059c-4.536,0.701-4.91,6.523-2.478,9.352
		c2.946,3.414,5.588,4.887,6.547,9.586c0.959,4.793-0.14,9.914,2.198,14.356C954.655,859.461,960.009,859.952,962.768,857.123z
		 M803.216,799.629C803.52,799.512,803.357,799.512,803.216,799.629L803.216,799.629z"/>
	<path fill="#280412" d="M992.462,795.046c1.707,6.149,2.058,16.016-3.414,20.505c-3.063,2.502-6.664,2.011-9.002-1.169
		c-2.876-3.928-2.174-9.75-2.619-14.356c-0.421-4.559-1.707-7.692-4.98-10.966c-5.261-5.237,1.426-12.205,7.412-9.586
		C986.266,782.304,990.615,788.383,992.462,795.046z"/>
	<path fill="#280412" d="M964.732,833.602c3.039,6.687,3.46,17.98-1.964,23.521c-2.759,2.829-8.113,2.338-10.007-1.286
		c-2.338-4.442-1.239-9.563-2.198-14.356c-0.959-4.7-3.601-6.173-6.547-9.586c-2.432-2.829-2.057-8.651,2.478-9.352
		C954.468,821.28,961.529,826.494,964.732,833.602z"/>
	<path fill="#FAC950" d="M931.882,1027.43c0.538,17.77-0.327,35.96,2.174,53.613c-17.021,6.57-34.393,12.298-52.023,17.115
		c-0.07,0.023-0.14,0.047-0.21,0.047c-1.379-11.433-7.178-24.153-10.638-31.19c-7.762-15.759-20.949-33.669-38.228-39.327
		c-6.547-2.128-13.491,6.243-9.329,12.111c11.363,16.039,24.877,28.01,30.699,47.58c0.888,2.923,1.707,9.984,3.344,16.881
		c-64.204,14.777-130.372,19.687-196.12,21.744c-62.684,1.941-125.79,3.063-188.451-0.21c-40.963-2.151-82.231-6.477-122.306-15.665
		c0.725-11.293,2.782-22.188,6.43-32.99c3.834-11.41,10.545-21.814,13.748-33.388c1.567-5.705-5.354-12.088-10.708-8.23
		c-20.225,14.566-29.016,43.909-31.705,68.95c-8.651-2.432-17.255-5.097-25.766-8.066c-25.813-9.048-50.62-20.903-73.557-35.796
		c7.295-9.469,12.976-22.937,18.214-32.429c9.072-16.484,17.98-33.201,26.327-50.082c0.608-1.216,1.005-2.408,1.239-3.554
		c7.084-5.401,14.543-9.446,22.235-15.081c11.55-8.464,21.253-18.424,28.712-30.676c3.46-5.658,6.056-11.62,8.113-17.84
		c18.144,2.923,36.428,5.074,54.548,8.324c7.833,1.403,15.689,2.876,23.521,4.349c1.45,13.514,7.95,27.169,13.07,39.187
		c7.108,16.671,15.385,32.85,25.555,47.861c19.5,28.735,44.868,54.197,77.157,68.062c68.132,29.273,145.523-0.538,193.945-52.327
		c28.034-29.998,42.623-67.898,50.152-107.623c1.964-0.234,3.905-0.491,5.869-0.701c38.766-4.466,77.648-7.973,116.694-8.511
		c2.619,7.926,5.448,15.829,8.955,23.381c4.7,10.101,12.181,18.027,18.471,27.122C934.758,978.517,931.227,1005.943,931.882,1027.43
		z"/>
	<path fill="#FAC950" d="M915.281,386.908c-0.21,31.611-0.351,63.246-0.444,94.88c-16.928-10.194-31.541-25.439-42.179-41.431
		c-6.944-10.451-12.719-21.604-16.32-33.645c-2.338-7.786-2.268-15.525-2.689-23.241c7.739-0.023,15.478,0.117,23.194,0.585
		C889.679,384.851,902.469,385.973,915.281,386.908z"/>
	<path fill="#08736D" d="M914.767,506.969c-0.07,37.924-0.094,75.871-0.14,113.819c-2.712-1.286-5.401-2.549-8.113-3.741
		c-12.205-5.424-35.329-12.579-38.462,7.482c-1.099,7.061,1.099,14.683,4.863,22.142c-4.559-2.245-9.586-4.513-14.707-6.383
		c0.865-9.306-1.683-20.365-1.964-28.244c-0.608-16.834-0.725-33.692-0.678-50.55c0.023-16.086,0.281-32.172,0.094-48.258
		c-0.164-15.128,0.795-31.962-4.045-46.528c0.304-5.378-3.063-10.966-10.147-11.176c-28.361-0.795-56.909,0.655-85.27,1.567
		c-14.473,0.468-28.922,1.122-43.395,1.87c-13.07,0.678-27.613,0.444-40.052,4.91c-0.351,0.117-0.678,0.281-1.005,0.444
		c-2.665,0.514-5.191,2.619-5.354,5.798c-3.46,66.495,1.333,133.809,2.174,200.422c0.865,66.87,1.52,133.763,4.466,200.585
		c0.374,8.02,7.178,12.789,14.823,11.293c27.075-5.284,54.291-10.825,81.833-12.906c25.813-1.964,51.719-0.748,77.531,0.772
		c6.009,0.351,11.737-5.565,11.48-11.503c-0.281-6.757-1.192-13.467-1.964-20.178c0.842,0.14,1.683,0.304,2.502,0.444
		c3.46,0.655,8.721,0.865,11.948,2.549c-1.169-0.491,1.239,2.104,2.128,3.998c6.149,12.836,10.171,26.795,14.146,40.636
		c-67.992,0.608-136.545,11.597-203.555,21.861c-17.466,2.665-34.931,5.915-52.42,8.815c2.362-15.011,0.14-32.453,0.14-46.341
		v-62.38c0-48.141,0.187-96.283,0-144.401c-0.187-48.165-2.502-96.259-2.829-144.401c-0.164-23.311-0.164-46.598-0.561-69.886
		c-0.21-12.415-0.374-24.854-0.748-37.269c-0.304-9.282-0.023-18.868-1.707-28.057c9.095-1.099,17.653-0.842,27.099-0.304
		c15.455,0.865,31.143-0.701,46.622-0.935c31.705-0.514,63.386,0.351,95.09,1.122c14.286,0.351,28.572-0.117,42.881-0.397
		c-1.66,8.277-0.959,17.536,0.21,25.041c2.315,15.057,8.628,29.507,16.741,42.32C869.268,474.446,889.819,494.694,914.767,506.969z"
		/>
	<path fill="#FAC950" d="M861.318,709.495c5.869,4.092,11.644,8.3,17.395,12.509c-18.681-7.131-37.339-14.146-57.681-14.59
		c-11.083-0.257-23.521,1.73-31.237,10.428c-6.523,7.342-9.072,20.552-3.834,29.226c4.255,7.038,12.93,11.129,20.038,14.52
		c10.849,5.191,22.048,9.61,33.224,14.005c4.98,1.964,10.03,3.858,15.034,5.752c-39.514-3.998-76.76,0.351-71.055,24.76
		c4.349,18.705,30.629,24.082,46.271,27.426c2.221,0.468,4.466,0.912,6.71,1.333c-0.094,3.928-0.281,7.856-0.421,11.761
		c-22.937-1.263-45.944-1.964-68.88-0.094c-23.825,1.941-47.463,6.102-70.961,10.568c-2.362-62.918-3.203-125.883-4.629-188.825
		c-1.426-63.105-0.514-128.104-11.41-190.508c10.171,1.473,20.926,0.818,31.003,0.678c15.104-0.234,30.208-0.421,45.312-0.701
		c26.654-0.491,53.379-0.21,80.033-0.959c-1.543,12.018-0.865,24.667-1.192,36.451c-0.468,16.811-0.935,33.622-1.263,50.456
		c-0.304,16.109-0.468,32.242,0.047,48.352c0.21,6.851-0.608,15.969,0.304,24.246c-7.833,1.052-14.145,5.541-16.904,15.829
		C810.044,678.82,843.806,697.197,861.318,709.495z"/>
	<path fill="#D36448" d="M806.49,300.071c11.994,10.217,44.821,37.83,31.915,56.722c-2.011,2.969-4.957,5.144-7.271,7.692
		c-12.556,0.421-25.111,0.912-37.667,0.982c2.619-7.038,3.18-15.268,2.852-22.189c-0.772-15.642-5.962-30.746-13.701-44.284
		c-3.764-6.57-8.066-12.789-12.86-18.541c-4.138-4.98-5.12-9.493-1.052-7.108C782.033,281.133,794.729,290.064,806.49,300.071z"/>
	<path fill="#D36448" d="M805.227,119.874c9.048,14.356,13.023,31.284,5.284,47.183c-7.295,15.034-21.37,25.719-36.872,31.471
		c-5.261-4.957-12.322-8.417-19.663-10.241c-1.286-0.304-2.572-0.608-3.881-0.865c13.21-15.198,21.931-35.048,26.21-53.893
		c3.11-13.701,4.185-29.366,0.234-42.67C788.112,98.761,798.026,108.417,805.227,119.874z"/>
	<path fill="#280412" d="M803.216,799.629C803.357,799.512,803.52,799.512,803.216,799.629L803.216,799.629z"/>
	<path fill="#280412" d="M803.17,736.033c0.047,0.047,0.094,0.14,0.14,0.304C803.216,736.15,803.17,736.056,803.17,736.033z"/>
	<path fill="#280412" d="M802.001,803.487v0.023c-0.047,0.047-0.07,0.07-0.117,0.117C801.884,803.58,801.93,803.534,802.001,803.487
		z"/>
	<path fill="#D36448" d="M774.692,340.17c0.701,7.95-1.824,16.881-2.058,25.228c-13.982-0.117-27.94-0.094-41.922,0.094
		c0.397-7.575-1.8-15.993-4.022-21.604c-5.845-14.707-16.297-27.192-26.865-38.766c-10.989-12.018-22.937-23.077-34.23-34.791
		c-5.775-6.032-10.615-12.766-15.642-19.289c2.665-3.016,5.074-6.219,6.874-9.493c14.987,5.12,29.554,11.246,44.658,16.25
		c6.477,2.151,13.187,3.671,19.944,4.255c16.367,11.036,30.886,26.982,40.776,43.255
		C768.612,315.877,773.593,327.731,774.692,340.17z"/>
	<path fill="#FAC950" d="M759.658,218.074c-2.782-0.094-5.588,0.047-8.207-0.047c-5.869-0.187-33.365,4.793-25.111,9.493
		c6.406,3.671,13.608,5.331,20.856,6.406c0.023,0,0.07,0,0.094,0c-3.951,2.502-7.996,4.349-10.568,5.004
		c-17.279,4.396-34.814-3.928-50.713-9.726c-10.568-3.858-86.65-18.073-73.066-34.604c1.426-0.351,2.736-0.374,3.951-0.187
		c7.388,1.216,27.823,9.329,27.613,5.354c-0.117-2.338-1.73-4.279-3.484-5.822c-4.793-4.209-22.446-4.325-16.413-20.482
		c2.876-7.692,25.719,7.388,55.132,17.676c32.429,11.34,71.78,18.588,75.965,21.464
		C758.138,214.263,759.354,216.133,759.658,218.074z"/>
	<path fill="#D36448" d="M747.687,75.801c24.199,30.302,3.297,86.767-26.467,107.132c-0.351-0.07-0.701-0.14-1.076-0.21
		c-11.223-2.361-22.376-5.027-33.435-8.043c-4.513-1.239-9.048-2.525-13.538-3.881c-0.14-0.959-0.257-1.941-0.327-2.899
		c-0.351-5.448-0.21-11.059,0.444-16.507c1.59-13.327,5.822-26.771,12.018-38.672c5.775-11.083,28.876-42.133,34.417-43.629
		C723.955,67.945,743.992,74.375,747.687,75.801z"/>
	<path fill="#D36448" d="M746.892,921.888c-6.523,26.724-14.987,52.654-31.962,75.076c-2.151,2.852-4.419,5.635-6.781,8.37
		c-3.671-5.611-8.137-10.825-12.065-15.385c-3.741-4.325-7.926-8.628-12.719-11.854c6.5-10.03,10.942-21.464,13.093-33.178
		c0.865-4.7,2.455-10.708,3.156-16.53C715.351,926.097,731.109,923.922,746.892,921.888z"/>
	<path fill="#FAF6ED" d="M705.32,360.488c0.257,1.894,0.234,3.741,0.21,5.565c-5.869,0.164-11.737,0.351-17.629,0.608
		c-15.244,0.678-63.479,0.772-70.447,6.734c-6.266-2.993-43.302-5.004-46.949-4.279c-0.023-0.023-0.07-0.047-0.07-0.047
		s-33.341-14.029-51.274-16.18c-1.45-8.137,9.493-15.478,14.473-19.921c14.707-13.07,32.079-23.007,48.843-33.154
		c17.325-10.451,34.884-20.739,50.76-33.318c2.104,3.507,4.513,6.827,6.734,9.773c9.212,12.369,20.295,23.311,30.933,34.417
		c10.101,10.568,20.435,21.323,27.964,33.949C701.766,349.499,704.572,354.783,705.32,360.488z"/>
	<path fill="#D36448" d="M663.609,64.999c11.129-1.45,23.217-1.59,35.562-0.468c-13,8.698-23.381,21.604-30.419,35.446
		c-7.552,14.847-12.462,31.05-13.678,47.697c-0.351,4.583,0.047,17.115,0.047,17.115s-22.68-11.41-26.631-15.548
		c-11.667-12.181-10.849-26.865-8.861-42.296c1.356-10.685,4.676-21.955,12.439-29.787C640.204,68.95,652.526,66.449,663.609,64.999
		z"/>
	<path fill="#D36448" d="M682.383,1004.61c3.811,5.237,7.365,10.779,10.147,16.647c-16.226,14.613-35.188,26.514-55.086,34.253
		c-1.099,0.444-2.198,0.818-3.32,1.239c-0.959-4.092-2.245-7.926-3.086-10.732c-2.268-7.692-5.331-15.034-9.259-21.931
		c18.822-6.57,36.825-17.957,50.316-31.938c0.257,0.327,0.491,0.631,0.725,0.888C676.211,996.731,679.438,1000.565,682.383,1004.61z
		"/>
	<path fill="#FAF6ED" d="M670.296,932.76c1.73-0.257,3.46-0.514,5.191-0.772c-0.117,1.146-0.257,2.268-0.421,3.32
		c-1.8,11.48-5.167,22.609-11.831,32.266c-14.496,21.019-44.424,38.251-69.745,40.402c-24.386,2.058-46.926-10.217-63.643-27.028
		c-12.088-12.182-20.295-26.327-28.525-40.73c25.719,4.138,51.812,6.897,77.274,5.12
		C609.435,943.165,639.783,937.436,670.296,932.76z"/>
	<path fill="#D36448" d="M631.039,233.459c-0.631,1.029-1.333,2.034-2.151,2.923c-5.986,6.64-13.187,12.088-20.365,17.325
		c-18.003,13.117-37.106,24.667-55.436,37.269c-15.899,10.942-33.131,22.539-44.237,38.672c-3.484,5.05-7.108,13.514-7.716,21.44
		c-15.198-1.216-30.465-1.286-45.733-1.076c-27.122-76.806,65.21-118.682,129.554-123.568c10.568-0.795,21.581-1.029,32.196,0.678
		C621.429,229.578,626.152,231.682,631.039,233.459z"/>
	<path fill="#D36448" d="M614.134,1060.046c0.117,0.725,0.257,1.567,0.421,2.432c-22.095,4.863-45.055,4.629-66.987-2.338
		c-1.637-0.538-3.273-1.099-4.887-1.707c0.561-6.313,0.888-12.696,2.104-18.868c1.239-6.36,4.723-11.667,7.833-17.208
		c13.771,6.056,28.782,9.002,44.237,7.435c3.11-0.304,6.243-0.818,9.376-1.45C610.674,1038.279,612.568,1049.268,614.134,1060.046z"
		/>
	<path fill="#FAC950" d="M611.703,386.324c-1.263,8.511-1.029,17.349-1.286,25.906c-0.281,8.768-0.444,17.559-0.585,26.327
		c-5.261-0.538-10.708-0.117-16.156,0.023c-5.541,0.14-11.129,0.14-16.647,0.818c-0.117-16.413,1.496-35.352-0.959-52.303
		c6.968,0.678,14.683-0.117,20.505,0.234C602.023,387.656,606.84,387.259,611.703,386.324z"/>
	<path fill="#280412" d="M609.341,148.118c4.302,8.137,7.108,13.935,7.692,15.244C613.62,159.084,611.118,153.847,609.341,148.118z"
		/>
	<path fill="#FAC950" d="M609.552,456.443c-0.047,3.905-0.094,7.809-0.14,11.714c-9.212-0.818-22.025-1.239-32.149-0.117
		c-0.023-4.138-0.07-8.3-0.094-12.439c5.471,0.655,11.012,0.655,16.507,0.795C599.03,456.537,604.385,456.958,609.552,456.443z"/>
	<path fill="#FAC950" d="M609.271,485.132c-0.07,11.41-0.094,22.82-0.187,34.253c-0.304,48.141-2.642,96.236-2.829,144.401
		c-0.187,48.118,0,96.259,0,144.401v49.755h-28.197c-0.07-4.162-0.14-8.3-0.117-12.369c0.094-36.661,0.094-73.299,0.094-109.961
		c0.023-77.11,0.094-154.198-0.444-231.308c-0.047-6.313-0.117-12.626-0.164-18.939c3.554,0.164,7.084,0.023,9.914,0.094
		C594.588,485.599,602.023,485.903,609.271,485.132z"/>
	<path fill="#FAC950" d="M578.432,871.97h27.823c-0.047,3.484-0.187,7.155-0.374,10.966c-4.232,0-8.487,0.281-12.462,0.351
		c-4.84,0.094-9.82,0.304-14.73,0.888C578.619,880.106,578.525,876.015,578.432,871.97z"/>
	<path fill="#FAC950" d="M605.343,904.095c0.117,5.682,0.608,11.27,1.754,16.484c-3.46,0.468-6.921,0.912-10.381,1.286
		c-6.71,0.748-13.374,1.216-20.014,1.473c0.959-6.664,1.52-13.444,1.8-20.295C587.387,903.23,596.458,904.142,605.343,904.095z"/>
	<path fill="#D36448" d="M599.358,211.13c2.852,0.772,6.406,7.318,5.471,7.365c-18.518-5.611-56.909-1.076-75.17,4.863
		c-36.685,11.971-75.941,34.417-89.292,72.925c-6.149,17.77-4.84,36.428,0.561,53.987c-2.525,0.047-5.05,0.094-7.575,0.14
		c-10.849,0.187-32.546,0.795-32.546,0.795s-4.7-20.879,4.676-41.665c10.194-22.563,42.694-34.861,31.424-44.938
		c-11.27-10.054-67.594,52.467-56.909,87.351c-7.318,0.281-14.613,0.585-21.931,0.935c5.495-21.604,14.333-42.039,25.976-61.211
		c12.906-21.207,29.179-43.348,50.573-56.746C481.307,205.635,537.632,196.353,599.358,211.13z"/>
	<path fill="#FAC950" d="M550.538,86.767c13.187-5.682,51.345,65.654,45.453,71.546C590.099,164.204,537.351,92.448,550.538,86.767z
		"/>
	<path fill="#FAC950" d="M538.731,146.037c19.102,6.664,51.742,25.859,43.793,24.901c-15.548-1.87-54.828-4.302-65.911-17.091
		c-2.736-3.18-5.541-8.861-1.473-11.854C520.049,138.392,534.055,144.401,538.731,146.037z"/>
	<path fill="#08736D" d="M555.214,385.178c-2.245,14.8-0.912,31.12-1.169,45.57c-0.374,19.149-0.374,38.321-0.538,57.494
		c-0.351,38.158-0.397,76.316-0.538,114.497c-0.304,76.526-0.234,153.075,0,229.625c0.07,18.167,0.117,36.357,0.164,54.548
		c0.047,12.065-0.14,24.41,1.333,36.498c-27.145-0.842-54.08-4.816-81.272-9.352c-25.088-4.185-50.105-8.908-75.217-13.093
		c-19.289-3.227-39.187-7.014-58.943-8.207c1.333-4.583,3.04-9.025,5.869-12.743c7.575-10.03,23.054-12.672,34.58-14.987
		c23.615-4.723,50.807-6.126,71.639-19.64c8.978-5.799,15.081-15.128,10.545-25.813c-4.746-11.106-15.829-14.94-27.099-15.338
		c-15.151-0.514-31.494,3.18-46.435,5.424c-10.989,1.66-23.498,8.277-34.417,4.185c3.694-9.75,20.552-15.712,29.437-21.183
		c18.448-11.363,38.228-20.131,56.699-31.401c8.3-5.074,17.419-11.34,20.645-20.996c3.156-9.376,0.982-20.014-7.879-25.368
		c-15.455-9.352-38.883-1.473-54.501,3.905c-19.289,6.617-37.339,16.18-55.343,25.672c-6.921,3.647-14.052,8.16-21.604,9.75
		c5.705-10.171,16.484-18.962,24.644-27.379c15.385-15.852,32.991-29.53,47.931-45.827c9.189-10.03,20.341-40.075-1.005-45.406
		c-16.367-4.092-34.347,9.352-47.346,19.406c0.234-2.829,0.351-5.611,0.281-8.37c-0.304-12.462-3.601-30.232-16.273-35.913
		c-11.807-5.307-16.881,3.227-23.171,11.503c-7.014,9.235-14.403,18.19-21.768,27.169c-0.023,0.047-0.07,0.094-0.117,0.14
		c0.561-49.31,4.98-98.387,5.191-147.721c0.07-14.636,0.678-29.25,1.169-43.816c20.856-2.478,42.881-12.369,56.769-27.402
		c14.636-15.852,18.588-36.077,16.624-56.512c21.019-0.818,42.062-1.426,63.105-1.707c22.048-0.281,44.167-1.029,66.215,0.257
		c12.018,0.725,23.989,2.081,35.773,4.7C538.053,379.286,546.54,382.7,555.214,385.178z M522.668,542.953
		c1.473-3.554-0.491-7.505-2.689-10.147c-9.656-11.737-28.151-8.207-41.01-5.448c-8.16,1.754-15.572,3.975-24.036,2.689
		c-10.077-1.543-19.476-6.056-29.343-8.511c-20.739-5.191-41.384,1.216-62.17-2.315c-12.462-2.128-28.618-4.372-34.814,9.96
		c-1.45,3.39,0.164,7.95,4.489,7.809c7.342-0.234,12.509-3.975,20.014-2.104c9.025,2.245,17.582,4.77,26.958,5.027
		c10.896,0.304,21.768-2.011,32.64-0.374c10.124,1.496,19.523,6.079,29.296,8.932c17.489,5.12,31.331,1.403,48.656-1.379
		c3.343-0.538,7.435-1.403,10.849-0.701c3.203,0.631,5.167,3.063,8.3,3.858C516.238,551.908,520.353,548.517,522.668,542.953z
		 M518.927,649.243c9.235-6.78,1.917-14.169-7.739-16.717c-14.847-3.905-34.183-3.18-49.755-4.887
		c-9.236-1.005-19.406-2.174-29.039-2.081c-4.162,0.047-11.667,0.585-15.198,3.016c-4.513,3.133-4.396,5.518-2.268,8.066
		c1.45,1.754,3.881,3.601,6.406,5.822c8.511,7.505,27.519,5.471,38.766,6.453c11.69,1.052,23.334,2.315,35.048,3.156
		C502.818,652.609,512.497,653.966,518.927,649.243z M505.67,587.938c4.349-6.453-1.613-13.397-8.066-14.075
		c-6.313-0.655-12.252,1.964-18.588,2.011c-6.313,0.07-12.556-1.216-18.658-2.642c-12.065-2.806-23.966-6.991-36.381-8.02
		c-5.635-0.491-10.755,0.14-15.993,2.198c-6.804,2.642-9.89,5.354-17.372,3.367c-13.397-3.601-29.6-2.478-42.857,1.87
		c-6.243,2.058-6.453,10.942,0,12.906c7.996,2.432,16.273,2.315,24.55,2.759c7.552,0.397,12.602,3.601,19.663,5.074
		c7.318,1.52,13.14-0.982,19.687-3.718c6.827-2.852,11.153-2.736,18.284-1.099C450.701,593.362,490.075,611.108,505.67,587.938z"/>
	<path fill="#D36448" d="M536.019,1013.238c-8.37,10.124-11.784,22.189-13.701,35.305c-18.939-11.457-34.978-27.753-47.837-45.663
		c-2.174-3.04-4.255-6.149-6.313-9.259c0.538-0.678,1.076-1.356,1.66-2.081c3.484-4.185,8.113-7.178,12.649-10.077
		c4.723-2.969,9.633-5.588,14.356-8.511c6.874,10.101,14.824,19.383,22.937,27.169
		C524.796,1004.961,530.244,1009.356,536.019,1013.238z"/>
	<path fill="#280412" d="M519.979,532.805c2.198,2.642,4.162,6.593,2.689,10.147c-2.315,5.565-6.43,8.955-12.86,7.295
		c-3.133-0.795-5.097-3.227-8.3-3.858c-3.414-0.701-7.505,0.164-10.849,0.701c-17.325,2.782-31.167,6.5-48.656,1.379
		c-9.773-2.852-19.172-7.435-29.296-8.932c-10.872-1.637-21.744,0.678-32.64,0.374c-9.376-0.257-17.933-2.782-26.958-5.027
		c-7.505-1.87-12.672,1.87-20.014,2.104c-4.325,0.14-5.939-4.419-4.489-7.809c6.196-14.333,22.352-12.088,34.814-9.96
		c20.786,3.531,41.431-2.876,62.17,2.315c9.867,2.455,19.266,6.968,29.343,8.511c8.464,1.286,15.876-0.935,24.036-2.689
		C491.829,524.599,510.323,521.068,519.979,532.805z"/>
	<path fill="#280412" d="M511.188,632.525c9.656,2.549,16.975,9.937,7.739,16.717c-6.43,4.723-16.109,3.367-23.778,2.829
		c-11.714-0.842-23.358-2.104-35.048-3.156c-11.246-0.982-30.255,1.052-38.766-6.453c-2.525-2.221-4.957-4.068-6.406-5.822
		c-2.128-2.549-2.245-4.933,2.268-8.066c3.531-2.432,11.036-2.969,15.198-3.016c9.633-0.094,19.804,1.076,29.039,2.081
		C477.005,629.345,496.341,628.621,511.188,632.525z"/>
	<path fill="#280412" d="M497.604,573.862c6.453,0.678,12.415,7.622,8.066,14.075c-15.595,23.171-54.969,5.424-75.731,0.631
		c-7.131-1.637-11.457-1.754-18.284,1.099c-6.547,2.736-12.369,5.237-19.687,3.718c-7.061-1.473-12.111-4.676-19.663-5.074
		c-8.277-0.444-16.554-0.327-24.55-2.759c-6.453-1.964-6.243-10.849,0-12.906c13.257-4.349,29.46-5.471,42.857-1.87
		c7.482,1.987,10.568-0.725,17.372-3.367c5.237-2.058,10.358-2.689,15.993-2.198c12.415,1.029,24.316,5.214,36.381,8.02
		c6.102,1.426,12.345,2.712,18.658,2.642C485.352,575.826,491.291,573.208,497.604,573.862z"/>
	<path fill="#D36448" d="M479.086,936.338c2.058,7.225,4.98,14.403,8.581,21.347c-10.381,3.928-22.726,9.563-30.91,17.091
		c-3.156-5.658-6.173-11.363-8.978-17.162c-4.419-9.142-7.692-19.64-11.901-29.437c6.43,1.239,12.836,2.455,19.266,3.671
		C463.047,933.321,471.043,934.841,479.086,936.338z"/>
	<path fill="#FAF6ED" d="M440.881,733.11c7.248,12.018-69.254,44.003-84.265,53.893c-16.764,11.059-27.379,21.207-39.584,36.521
		c-2.245,2.829-4.162,6.664-2.595,9.937c7.178,14.73,59.177-1.45,70.166-3.203c15.712-2.502,35.329-7.248,51.368-5.915
		c2.385,0.21,5.214,3.905,3.133,5.12c-4.816,2.759-10.358,4.279-15.618,5.869c-14.707,4.419-75.544,14.075-87.842,23.171
		c-14.005,10.334-17.372,26.724-22.259,42.507c-5.588,18.12-17.582,32.032-33.178,42.413c-9.282,6.219-26.117,20.061-27.636,22.259
		c-10.896,15.782-19.78,33.552-28.034,50.783c-4.068,8.511-10.755,19.967-14.029,30.886c-10.451-8.043-20.295-16.811-29.507-26.21
		c-8.815-9.025-16.063-19.547-25.251-27.87c13.725-10.007,23.545-29.904,29.413-43.255c9.539-21.674,15.665-44.143,20.318-67.29
		c0.982-4.863,1.917-62.521,4.279-88.38c1.426-15.735,4.91-31.541,14.636-44.354c4.933-6.453,10.545-12.462,15.852-18.611
		c27.473-31.985,53.519-67.244,82.488-97.545c5.074,9.399,4.255,35.118-5.331,42.039c-7.692,5.541-15.408,11.012-23.1,16.53
		c-12.111,8.674-51.742,48.983-44.213,52.888c7.529,3.905,29.881-20.762,44.962-30.793c11.948-7.973,70.587-60.136,85.177-63.503
		c14.59-3.367,6.219,8.861,3.834,12.065c-6.874,9.306-16.6,16.904-25.298,24.433c-14.099,12.158-27.215,25.088-40.145,38.508
		c-7.926,8.253-16.671,16.039-23.1,25.602c-3.881,5.775-13.725,24.129-8.487,31.027c9.095,11.924,79.799-27.356,91.607-32.687
		C390.145,744.731,433.633,721.092,440.881,733.11z M275.765,835.87c0.795-5.284-1.847-9.376-4.255-13.935
		c-2.081-3.951-3.297-8.347-4.536-12.626c-2.595-9.119-15.642-6.991-16.133,2.174c-0.351,6.477,1.543,12.485,4.536,18.144
		c2.689,5.05,7.716,11.363,13.958,11.153C271.977,840.663,275.321,838.792,275.765,835.87z M241.208,793.316
		c0.397-3.227-1.169-5.144-2.549-7.762c-0.795-2.104-1.777-3.998-2.338-5.752c-0.982-3.156-1.52-6.36-2.338-9.539
		c-1.683-6.453-17.77,18.518-10.521,25.415c3.156,2.993,9.586,6.009,14.169,3.32C239.805,797.735,240.927,795.748,241.208,793.316z"
		/>
	<path fill="#FAC950" d="M350.14,374.68c1.894,17.349-1.239,34.768-14.286,47.744c-11.293,11.27-28.338,19.009-44.728,21.394
		c0.514-22.048,0.187-44.026-3.273-65.864C308.615,376.714,329.378,375.592,350.14,374.68z"/>
	<path fill="#280412" d="M271.51,821.935c2.408,4.559,5.05,8.651,4.255,13.935c-0.444,2.923-3.788,4.793-6.43,4.91
		c-6.243,0.21-11.27-6.102-13.958-11.153c-2.993-5.658-4.887-11.667-4.536-18.144c0.491-9.165,13.538-11.293,16.133-2.174
		C268.213,813.587,269.429,817.983,271.51,821.935z"/>
	<path fill="#280412" d="M238.659,785.554c1.379,2.619,2.946,4.536,2.549,7.762c-0.281,2.432-1.403,4.419-3.577,5.682
		c-4.583,2.689-11.012-0.327-14.169-3.32c-7.248-6.897,8.838-31.868,10.521-25.415c0.818,3.18,1.356,6.383,2.338,9.539
		C236.882,781.556,237.864,783.449,238.659,785.554z"/>
</g>
</svg>
