<svg xmlns="http://www.w3.org/2000/svg" xmlns:xlink="http://www.w3.org/1999/xlink" viewBox="0 0 1364.3 898.14"><defs><style>.cls-1{fill:#f3f9f0;}.cls-2{fill:#231f20;opacity:0.15;}.cls-3{clip-path:url(#clip-path);}.cls-4{fill:#e64e6e;}.cls-5{fill:#ef426d;}.cls-6{fill:#fff;}</style><clipPath id="clip-path" transform="translate(81.14 60.42)"><rect class="cls-1" x="33.27" width="1199.32" height="767.79" rx="106.41"/></clipPath></defs><g id="Layer_2" data-name="Layer 2"><g id="background"><path class="cls-2" d="M1206.11,685.78c0,60.33-47.91,109.25-107,109.25H107C47.91,795,0,746.11,0,685.78V116C0,55.69,47.91,6.77,107,6.77H1099.1c59.1,0,107,48.92,107,109.25Z" transform="translate(81.14 60.42)"/><rect class="cls-1" x="114.41" y="60.42" width="1199.32" height="767.79" rx="106.41"/><g class="cls-3"><rect class="cls-4" width="1359.21" height="286.51"/><rect class="cls-5" x="5.09" y="7.13" width="1359.2" height="286.5"/><rect class="cls-5" x="65.18" y="758.29" width="1273.66" height="139.86"/><path class="cls-6" d="M240.79,99.08h13.5v60.49h-13.5V135.78H216.73v23.79h-13.5V99.08h13.5v25.27h24.06Z" transform="translate(81.14 60.42)"/><path class="cls-6" d="M312.78,99.08v12H282.67v12.46h27.09v11.51H282.67v12.55h31.07v11.94H269.17V99.08Z" transform="translate(81.14 60.42)"/><path class="cls-6" d="M325.77,159.57V99.08h13.5v48.46h25.78v12Z" transform="translate(81.14 60.42)"/><path class="cls-6" d="M374.92,159.57V99.08h13.5v48.46h25.79v12Z" transform="translate(81.14 60.42)"/><path class="cls-6" d="M473.31,151.22a32.94,32.94,0,0,1-45.17,0A29.84,29.84,0,0,1,419,128.94a29.86,29.86,0,0,1,9.17-22.28,32.94,32.94,0,0,1,45.17,0,29.87,29.87,0,0,1,9.18,22.28A29.85,29.85,0,0,1,473.31,151.22ZM468.72,129a19.8,19.8,0,0,0-5.19-13.8,17.12,17.12,0,0,0-25.53,0,20.89,20.89,0,0,0,0,27.56,17.2,17.2,0,0,0,25.53,0A19.64,19.64,0,0,0,468.72,129Z" transform="translate(81.14 60.42)"/><path class="cls-6" d="M494.34,158.54a6.64,6.64,0,0,1-3-5.63,7.44,7.44,0,0,1,2.34-5.67,7.88,7.88,0,0,1,5.62-2.2,8.16,8.16,0,0,1,5.67,2.16,6.63,6.63,0,0,1,2.38,5.06q0,2.91-2.51,7l-5.19,8.91h-8.57Z" transform="translate(81.14 60.42)"/><path class="cls-6" d="M607.62,99v60.57h-6.15V111.11l-23.8,40.76h-3l-23.8-40.5v48.2H544.7V99H550l26.31,44.91L602.34,99Z" transform="translate(81.14 60.42)"/><path class="cls-6" d="M648.12,138.63v20.94H641.8V138.63L617.57,99h6.83l20.77,34,20.77-34h6.41Z" transform="translate(81.14 60.42)"/><path class="cls-6" d="M755.59,99v60.57h-5.28l-38.94-49.15v49.15H705V99h5.28l39,49.15V99Z" transform="translate(81.14 60.42)"/><path class="cls-6" d="M813.31,143.39H779.56l-7.27,16.18h-6.66L793.32,99h6.32l27.69,60.57h-6.75ZM811,138.2l-14.54-32.54L781.9,138.2Z" transform="translate(81.14 60.42)"/><path class="cls-6" d="M900.28,99v60.57h-6.14V111.11l-23.8,40.76h-3l-23.8-40.5v48.2h-6.14V99h5.28L869,143.91,895,99Z" transform="translate(81.14 60.42)"/><path class="cls-6" d="M962.85,154v5.53H920V99h41.54v5.54H926.42v21.54h31.32v5.46H926.42V154Z" transform="translate(81.14 60.42)"/><path class="cls-6" d="M1000.58,99h6.4v60.57h-6.4Z" transform="translate(81.14 60.42)"/><path class="cls-6" d="M1030.47,157.93a23.83,23.83,0,0,1-9.56-5.71l2.51-4.93a24.13,24.13,0,0,0,8.74,5.32,32.11,32.11,0,0,0,11.25,2q8.13,0,12.2-3a9.2,9.2,0,0,0,4.07-7.75,7.76,7.76,0,0,0-2.2-5.8,15.06,15.06,0,0,0-5.41-3.33,86.94,86.94,0,0,0-8.92-2.55,94,94,0,0,1-10.9-3.33,18,18,0,0,1-7-4.89c-1.93-2.19-2.9-5.17-2.9-8.92a15.09,15.09,0,0,1,2.43-8.35,16.53,16.53,0,0,1,7.44-6,30.44,30.44,0,0,1,12.46-2.25,36.79,36.79,0,0,1,10.17,1.43,29.17,29.17,0,0,1,8.61,3.93l-2.16,5.11a30,30,0,0,0-8.14-3.77,30.56,30.56,0,0,0-8.48-1.25q-8,0-12,3.07a9.52,9.52,0,0,0-4,7.92,7.9,7.9,0,0,0,2.21,5.84,14.5,14.5,0,0,0,5.54,3.38q3.33,1.17,9,2.55a90.47,90.47,0,0,1,10.78,3.25,17.58,17.58,0,0,1,7,4.84q2.86,3.24,2.86,8.78a14.9,14.9,0,0,1-2.47,8.36,16.62,16.62,0,0,1-7.57,6,31.66,31.66,0,0,1-12.55,2.2A39,39,0,0,1,1030.47,157.93Z" transform="translate(81.14 60.42)"/></g></g></g></svg>