<?xml version="1.0" encoding="utf-8"?>
<!--Designed by Vexels.com - 2018 All Rights Reserved - https://vexels.com/terms-and-conditions/-->
<svg version="1.1" id="Layer_1" xmlns="http://www.w3.org/2000/svg" xmlns:xlink="http://www.w3.org/1999/xlink" x="0px" y="0px"
	 viewBox="0 0 1200 1200" enable-background="new 0 0 1200 1200" xml:space="preserve">
<path d="M1070.65,309.65c-22.9-79.189-41.082-159.569-52.243-241.282c-1.491-10.913-11.984-22.101-24.265-17.169
	c-58.264,23.399-116.167,47.95-172.982,74.689c-6.461,3.041-9.073,8.151-9.153,13.491c-13.224,6.025-26.383,12.212-39.477,18.553
	c-3.687-0.236-6.775,1.51-8.908,4.288c-1.915,0.943-3.856,1.824-5.769,2.775c-9.691,4.828-3.056,17.054,6.009,16.369
	c0.659,0.779,1.397,1.517,2.267,2.177c20.848,15.789,42.427,30.502,64.589,44.261c-106.99,148.712-201.502,305.71-282.896,470.044
	c-36.791-75.71-76.957-149.642-120.324-221.826c-6.139-10.218-21.616-7.532-26.005,2.479c-5.066,11.557-10.028,23.161-15.077,34.726
	c-2.035,0.849-3.775,2.28-5.105,4.1c-7.13,3.036-11.372,13.985-6.18,21.896c-1.963,4.512-3.917,9.026-5.877,13.538
	c-3.329,2.994-5.419,7.468-5.158,11.882C288.478,738.99,214.844,914.19,143.38,1090.285c-14.311-1.247-18.964,15.936-10.213,26.03
	c2.421,2.793,4.844,5.587,7.266,8.38c5.014,5.784,15.06,5.215,20.363,0.033c32.067,7.334,63.887,15.542,95.494,24.744
	c7.809,2.274,15.774-3.063,17.52-10.778c37.578-165.933,83.531-329.873,137.986-491.04c8.129,10.595,15.82,21.486,23.132,32.623
	c22.762,50.082,47.703,99.114,74.667,147.052c7.931,19.368,15.482,38.881,22.851,58.373c3.221,8.517,10.425,10.505,16.259,7.995
	c4.342,7.042,8.622,14.119,13.056,21.108c5.562,8.768,20.289,9.487,22.879-2.498c26.602-123.081,68.33-242.326,125.004-354.812
	c52.835-104.869,118.809-198.803,190.668-290.464c47.876,24.492,97.696,45.315,148.335,63.293
	C1061.022,334.717,1074.272,322.178,1070.65,309.65z M414.89,525.13c1.038-2.371,2.06-4.747,3.097-7.117
	c3.061,5.224,6.091,10.466,9.115,15.709C423.099,530.798,419.09,527.881,414.89,525.13z M221.644,1080.886
	c-0.891,10.033-0.947,19.672,0.373,28.132c-8.129-2.155-16.269-4.265-24.429-6.298
	C206.864,1097.695,214.772,1090.048,221.644,1080.886z"/>
</svg>
