<svg xmlns="http://www.w3.org/2000/svg" xmlns:xlink="http://www.w3.org/1999/xlink" viewBox="0 0 89.17 62.85"><defs><style>.cls-1{fill:url(#radial-gradient);}.Graphic-Style-256{fill:url(#linear-gradient);}.cls-2{fill:#999;}.cls-3{fill:url(#radial-gradient-2);}.cls-4{fill:url(#linear-gradient-2);}.cls-5{fill:#f1f1f2;}.Graphic-Style-253{fill:url(#linear-gradient-3);}.Graphic-Style-255{fill:url(#linear-gradient-4);}.cls-6{fill:url(#linear-gradient-5);}.cls-7{fill:url(#linear-gradient-6);}.cls-8{fill:#d0d2d3;}.cls-9{fill:url(#linear-gradient-7);}.Graphic-Style-254{fill:url(#linear-gradient-8);}.cls-10{fill:url(#linear-gradient-10);}.cls-11{fill:url(#linear-gradient-11);}.cls-12{fill:url(#linear-gradient-12);}.cls-13{fill:#6e6e6e;}.cls-14{fill:url(#linear-gradient-13);}</style><radialGradient id="radial-gradient" cx="29.6" cy="-563.61" r="43.26" gradientTransform="translate(14.07 135.54) scale(1.03 0.14)" gradientUnits="userSpaceOnUse"><stop offset="0" stop-color="#bbbdbf"/><stop offset="0.21" stop-color="#c2c3c5"/><stop offset="0.51" stop-color="#d4d5d6"/><stop offset="0.86" stop-color="#f2f2f3"/><stop offset="0.99" stop-color="#fff"/></radialGradient><linearGradient id="linear-gradient" x1="44.61" y1="29.89" x2="44.61" y2="14.55" gradientUnits="userSpaceOnUse"><stop offset="0"/><stop offset="0.98" stop-color="#4c4c4d"/><stop offset="1" stop-color="#4d4d4e"/></linearGradient><radialGradient id="radial-gradient-2" cx="44.61" cy="0.95" r="28.8" gradientUnits="userSpaceOnUse"><stop offset="0" stop-color="#fff"/><stop offset="1" stop-color="#ccc"/></radialGradient><linearGradient id="linear-gradient-2" x1="51.73" y1="3.56" x2="57.78" y2="9.61" gradientUnits="userSpaceOnUse"><stop offset="0" stop-color="#b3b3b3"/><stop offset="1" stop-color="gray"/></linearGradient><linearGradient id="linear-gradient-3" x1="44.55" y1="56.83" x2="44.55" y2="23.74" gradientUnits="userSpaceOnUse"><stop offset="0" stop-color="gray"/><stop offset="0.19" stop-color="#959595"/><stop offset="0.52" stop-color="#b3b3b3"/><stop offset="0.8" stop-color="#c5c5c5"/><stop offset="1" stop-color="#cbcbcb"/></linearGradient><linearGradient id="linear-gradient-4" x1="44.56" y1="24.32" x2="44.56" y2="60.61" gradientUnits="userSpaceOnUse"><stop offset="0" stop-color="#121212"/><stop offset="0.07" stop-color="#5d5d5d"/><stop offset="0.35" stop-color="#0d0d0d"/><stop offset="0.52"/><stop offset="0.67" stop-color="#0b0b0b"/><stop offset="0.92" stop-color="#121212"/><stop offset="0.94" stop-color="#303030"/><stop offset="1" stop-color="#9c9c9c"/></linearGradient><linearGradient id="linear-gradient-5" x1="44.61" y1="24.94" x2="44.61" y2="28.88" gradientUnits="userSpaceOnUse"><stop offset="0" stop-color="#737373"/><stop offset="1" stop-color="#4d4d4d"/></linearGradient><linearGradient id="linear-gradient-6" x1="44.59" y1="24.96" x2="44.59" y2="28.63" gradientUnits="userSpaceOnUse"><stop offset="0" stop-color="#cbcbcb"/><stop offset="1" stop-color="gray"/></linearGradient><linearGradient id="linear-gradient-7" x1="18.76" y1="38.79" x2="18.76" y2="44.46" xlink:href="#linear-gradient"/><linearGradient id="linear-gradient-8" x1="18.76" y1="43.93" x2="18.76" y2="39.71" gradientUnits="userSpaceOnUse"><stop offset="0" stop-color="#c96703"/><stop offset="0.14" stop-color="#ed7803"/><stop offset="1" stop-color="#ffb42c"/></linearGradient><linearGradient id="linear-gradient-10" x1="44.56" y1="53.41" x2="44.56" y2="60.25" xlink:href="#linear-gradient"/><linearGradient id="linear-gradient-11" x1="44.56" y1="59.24" x2="44.56" y2="61.98" gradientUnits="userSpaceOnUse"><stop offset="0" stop-color="#4d4d4e"/><stop offset="0.02" stop-color="#4c4c4d"/><stop offset="1"/></linearGradient><linearGradient id="linear-gradient-12" x1="21.84" y1="59.83" x2="67.28" y2="59.83" gradientUnits="userSpaceOnUse"><stop offset="0" stop-color="#333"/><stop offset="0.14" stop-color="#565656"/><stop offset="0.32" stop-color="#7a7a7a"/><stop offset="0.46" stop-color="#909090"/><stop offset="0.55" stop-color="#989898"/><stop offset="0.62" stop-color="#929292"/><stop offset="0.72" stop-color="gray"/><stop offset="0.84" stop-color="#636363"/><stop offset="0.98" stop-color="#3b3b3b"/><stop offset="1" stop-color="#333"/></linearGradient><linearGradient id="linear-gradient-13" x1="44.49" y1="50" x2="44.49" y2="58.63" gradientUnits="userSpaceOnUse"><stop offset="0.17"/><stop offset="0.3" stop-color="#fff"/></linearGradient></defs><g id="Layer_2" data-name="Layer 2"><g id="Layer_3" data-name="Layer 3"><path class="cls-1" d="M89.17,56.81c0,3.34-20,6-44.58,6S0,60.15,0,56.81s20-6.05,44.59-6.05S89.17,53.47,89.17,56.81Z"/><rect class="Graphic-Style-256" x="24.21" y="15.02" width="40.8" height="15.28" rx="1.81"/><path class="cls-2" d="M52.81,0H29.31a1.69,1.69,0,0,0-1.69,1.69v34a1.69,1.69,0,0,0,1.69,1.69H59.92a1.69,1.69,0,0,0,1.69-1.69V8.8Z"/><path class="cls-3" d="M52.67.34H29.31A1.34,1.34,0,0,0,28,1.69v34A1.35,1.35,0,0,0,29.31,37H59.92a1.36,1.36,0,0,0,1.35-1.36V8.94L56.11,5.5Z"/><path class="cls-4" d="M56.68,4.93l4.59,4-7.47.31a1.37,1.37,0,0,1-1.35-1.44L52.67.34Z"/><path class="cls-5" d="M61.27,8.94s-6-.44-6.73-.52a1.47,1.47,0,0,1-1.35-1.35c0-.69-.52-6.73-.52-6.73Z"/><path class="Graphic-Style-253" d="M12.42,56.34a2,2,0,0,1-1.89-2.11V28.9A4.69,4.69,0,0,1,14.94,24H74.17a4.69,4.69,0,0,1,4.41,4.92V54.23a2,2,0,0,1-1.89,2.11Z"/><path class="Graphic-Style-255" d="M13.81,55.29a1.89,1.89,0,0,1-1.81-2V29.63A4.43,4.43,0,0,1,16.22,25H72.89a4.43,4.43,0,0,1,4.22,4.61V53.32a1.89,1.89,0,0,1-1.81,2Z"/><path class="cls-6" d="M16,24.94a3.94,3.94,0,0,0-3.91,3.94A4.4,4.4,0,0,1,16,26.19H73.21a4.4,4.4,0,0,1,3.9,2.69,3.93,3.93,0,0,0-3.9-3.94Z"/><path class="cls-7" d="M65.08,24v7.14a2.16,2.16,0,0,1-2.15,2.16H26.24a2.16,2.16,0,0,1-2.15-2.16V24Z"/><rect class="cls-8" x="24.15" y="24.94" width="40.92" height="1.24"/><path class="cls-9" d="M15.6,41.82A3.16,3.16,0,1,1,18.76,45,3.16,3.16,0,0,1,15.6,41.82Z"/><path class="Graphic-Style-254" d="M18.76,43.93a2.11,2.11,0,1,1,2.11-2.11,2.12,2.12,0,0,1-2.11,2.11Z"/><path class="Graphic-Style-253" d="M23,55.75V49.34a1.74,1.74,0,0,1,1.75-1.74H64.36a1.74,1.74,0,0,1,1.75,1.74v6.41Z"/><path d="M25.33,55.75V51.09a1.17,1.17,0,0,1,1.17-1.17H62.62a1.17,1.17,0,0,1,1.16,1.17v4.66Z"/><polygon class="cls-10" points="21.84 59.25 26.89 53.42 62.22 53.42 67.28 59.25 21.84 59.25"/><rect class="cls-11" x="21.84" y="59.25" width="45.44" height="2.33"/><rect class="cls-12" x="21.84" y="59.25" width="45.44" height="1.17"/><path class="cls-13" d="M62.31,57.89a1,1,0,0,1-.93,1.53H27.59a1,1,0,0,1-.93-1.53l4.13-5.56a3.14,3.14,0,0,1,2.54-1.54H55.64a3.14,3.14,0,0,1,2.54,1.54Z"/><path class="cls-14" d="M62.31,57.1a1,1,0,0,1-.93,1.53H27.59a1,1,0,0,1-.93-1.53l4.13-5.57A3.15,3.15,0,0,1,33.33,50H55.64a3.15,3.15,0,0,1,2.54,1.53Z"/></g></g></svg>