<?xml version="1.0" encoding="utf-8"?>
<!-- Designed by Vexels.com - 2020 All Rights Reserved - https://vexels.com/terms-and-conditions/  -->
<svg version="1.1" id="Layer_1" xmlns="http://www.w3.org/2000/svg" xmlns:xlink="http://www.w3.org/1999/xlink" x="0px" y="0px"
	 viewBox="0 0 1200 1200" enable-background="new 0 0 1200 1200" xml:space="preserve">
<g>
	<path fill="none" d="M919.712,322.829c0.367,0.016,0.635,0.028,0.785,0.035C920.349,322.857,920.079,322.845,919.712,322.829z"/>
	<path fill="none" d="M917.993,322.759c0.559,0.021,1.034,0.04,1.421,0.057C919.028,322.8,918.552,322.781,917.993,322.759z"/>
	<path fill="none" d="M932.294,323.335c1.741,0.166,3.67,0.393,5.742,0.681C935.964,323.729,934.035,323.501,932.294,323.335z"/>
	<path fill="none" d="M639.124,399.28L639.124,399.28l-4.733,15.163l4.756-15.163C639.139,399.28,639.132,399.28,639.124,399.28z"/>
	<path fill="none" d="M1091.41,448.139c-49.058-96.233-117.961-118.673-151.236-123.807
		C973.449,329.467,1042.351,351.906,1091.41,448.139z"/>
	<path fill="none" d="M910.018,322.526c1.122,0.025,2.166,0.051,3.127,0.077C912.184,322.576,911.14,322.551,910.018,322.526z"/>
	<path fill="none" d="M913.816,322.622c0.872,0.025,1.667,0.05,2.383,0.074C915.482,322.672,914.687,322.647,913.816,322.622z"/>
	<path fill="none" d="M525.914,399.775c14.671-0.134,33.007-0.459,56.216-0.574v0l0.436-0.002c0.059,0,0.114-0.001,0.173-0.001
		l15.638-0.083C567.383,399.162,543.905,399.606,525.914,399.775z"/>
	<polygon fill="none" points="617.439,618.672 604.414,655.455 617.44,618.671 	"/>
	<path fill="none" d="M700.906,399.801c-1.904,0.022-3.886,0.035-5.973,0.038v0C697.02,399.836,699.003,399.823,700.906,399.801z"/>
	<polygon fill="none" points="640.099,554.682 642.244,548.624 640.099,554.682 	"/>
	<polygon fill="none" points="672.664,399.674 660.537,433.304 672.664,399.674 	"/>
	<path fill="#502C84" d="M940.174,324.332c-0.73-0.113-1.443-0.219-2.138-0.316c-2.072-0.288-4.001-0.515-5.742-0.681
		c-3.358-0.32-6.091-0.45-8.048-0.489c-0.628-0.013-1.178-0.017-1.647-0.016c-1.271,0.002-1.943,0.041-1.943,0.041
		s-0.06-0.003-0.158-0.008c-0.15-0.007-0.418-0.019-0.785-0.035c-0.093-0.004-0.193-0.008-0.298-0.013
		c-0.387-0.016-0.862-0.036-1.421-0.057c-0.525-0.02-1.124-0.041-1.795-0.064c-0.716-0.024-1.511-0.049-2.383-0.074
		c-0.22-0.006-0.441-0.012-0.67-0.019c-0.962-0.026-2.005-0.052-3.127-0.077c-4.182-0.092-9.426-0.164-15.453-0.153
		c-8.286,0.015-18.034,0.186-28.47,0.672c-2.318,0.108-4.672,0.232-7.049,0.373c-4.756,0.282-9.614,0.634-14.505,1.069
		c-2.446,0.218-4.9,0.456-7.354,0.718c-6.135,0.653-12.269,1.448-18.27,2.411c-3.6,0.578-7.152,1.217-10.628,1.923
		c-25.486,5.177-46.842,13.949-52.746,28.661c-0.317,0.789-0.598,1.52-0.897,2.281s-0.615,1.549-0.897,2.281
		c-0.031,0.083-0.062,0.163-0.093,0.243c-0.031,0.08-0.061,0.161-0.093,0.243c-0.108,0.281-0.213,0.555-0.32,0.834
		c-0.107,0.279-0.216,0.561-0.32,0.834c-0.005,0.016-0.012,0.032-0.017,0.048c-0.006,0.016-0.012,0.032-0.017,0.048
		c-1.344,3.539-2.51,6.726-3.598,9.595c-4.715,12.432-7.974,18.892-17.978,22.147c-0.023,0.008-0.046,0.016-0.069,0.024
		c-0.395,0.128-0.806,0.248-1.223,0.366c-0.069,0.02-0.134,0.041-0.203,0.061c-0.42,0.116-0.854,0.225-1.297,0.332
		c-0.073,0.018-0.14,0.037-0.213,0.054c-0.215,0.051-0.444,0.097-0.667,0.145c-0.223,0.048-0.44,0.099-0.667,0.145
		c-0.094,0.019-0.18,0.04-0.274,0.059c-0.202,0.04-0.416,0.077-0.625,0.115c-0.209,0.038-0.413,0.078-0.625,0.115
		c-0.157,0.028-0.306,0.058-0.466,0.085c-0.213,0.036-0.44,0.069-0.66,0.102s-0.437,0.069-0.66,0.102
		c-0.164,0.024-0.319,0.051-0.484,0.074c-0.42,0.059-0.859,0.113-1.296,0.168c-0.107,0.013-0.211,0.027-0.316,0.04
		c-0.105,0.014-0.207,0.028-0.316,0.041c-0.402,0.047-0.825,0.089-1.241,0.133c-0.266,0.028-0.522,0.058-0.795,0.084
		c-0.37,0.036-0.758,0.067-1.14,0.1c-0.342,0.03-0.674,0.062-1.024,0.089c-0.367,0.029-0.754,0.054-1.132,0.08
		c-0.377,0.027-0.745,0.055-1.134,0.08c-0.185,0.012-0.379,0.022-0.571,0.032s-0.381,0.021-0.571,0.032
		c-0.213,0.012-0.428,0.024-0.64,0.036c-0.211,0.012-0.421,0.025-0.639,0.036c-0.301,0.015-0.618,0.027-0.924,0.04
		c-0.268,0.012-0.541,0.023-0.81,0.035c-0.269,0.012-0.533,0.025-0.81,0.035c-0.127,0.005-0.259,0.009-0.39,0.013
		c-0.131,0.004-0.261,0.008-0.39,0.013c-0.314,0.011-0.636,0.02-0.953,0.031c-0.316,0.011-0.627,0.022-0.953,0.031
		c-0.098,0.003-0.2,0.005-0.301,0.007c-0.101,0.002-0.202,0.005-0.301,0.007c-0.732,0.019-1.469,0.037-2.232,0.052
		c-0.116,0.002-0.241,0.004-0.359,0.006c-0.851,0.016-1.714,0.03-2.603,0.041c-0.116,0.001-0.24,0.002-0.359,0.004
		c-0.024,0-0.052,0-0.077,0c-1.903,0.022-3.886,0.035-5.973,0.038l-7.43,20.977l-7.43,20.977v0v0l-37.83,106.831l-2.145,6.058
		l-0.529,23.873l-0.294,13.276c-0.161,7.26-3.583,13.876-9.143,19.054c-3.473,3.235-7.807,5.877-12.693,7.786l-13.026,36.784v29.563
		h51.311l2.215,0.482l2.215,0.482c1.826-4.768,3.968-9.36,6.405-13.754c0.812-1.465,1.657-2.907,2.535-4.327
		c1.755-2.839,3.639-5.587,5.644-8.235c4.011-5.298,8.513-10.2,13.454-14.652c7.414-6.678,15.819-12.342,25.054-16.805
		c4.748-2.295,9.583-4.204,14.471-5.739c9.776-3.071,19.762-4.648,29.673-4.834c11.564-0.217,23.026,1.46,33.938,4.87v0
		c22.738,7.106,43.061,21.75,56.896,42.52c2.687,4.033,5.149,8.277,7.315,12.761c3.136,6.49,5.552,13.143,7.278,19.87
		c3.454,13.454,4.152,27.202,2.356,40.519c-0.898,6.658-2.42,13.209-4.533,19.562c16.629,26.692,37.745,49.499,60.782,67.043
		c45.284,24.392,95.605,21.914,134.747-4.247c61.061-48.1,85.981-57.334,85.981-57.334c1.226,7.563,2.259,14.685,3.171,21.521
		c0.465,3.483,0.883,6.856,1.272,10.157c-7.893-79.412-17.193-138.568-21.359-186.99c-2.93-34.044-7.431-64.592-13.197-91.921
		c-4.283-20.31-9.267-38.83-14.78-55.785c-1.915-4.138-3.868-8.151-5.851-12.043C1042.351,351.906,973.449,329.467,940.174,324.332z
		 M904.422,588.863c-8.47,24.987-35.591,38.378-60.579,29.909c-12.237-4.148-21.665-12.782-27.134-23.435
		c-5.7-11.101-7.096-24.394-2.774-37.145c5.927-17.488,20.998-29.26,38.072-31.869c7.323-1.119,15.009-0.581,22.508,1.961
		C899.503,536.754,912.892,563.876,904.422,588.863z M904.422,474.543c-8.47,24.987-35.591,38.378-60.579,29.909
		c-12.237-4.148-21.665-12.782-27.134-23.435c-5.7-11.101-7.096-24.394-2.774-37.146c5.927-17.488,20.998-29.26,38.072-31.869
		c7.323-1.119,15.009-0.581,22.508,1.961C899.503,422.433,912.892,449.556,904.422,474.543z M1022.522,588.863
		c-8.47,24.987-35.591,38.378-60.578,29.909c-12.237-4.148-21.666-12.782-27.135-23.435c-5.7-11.101-7.097-24.394-2.774-37.145
		c5.927-17.488,20.998-29.26,38.072-31.869c7.323-1.119,15.009-0.581,22.509,1.961
		C1017.602,536.754,1030.991,563.876,1022.522,588.863z M1022.522,474.543c-8.47,24.987-35.591,38.378-60.578,29.909
		c-12.237-4.148-21.666-12.782-27.135-23.435c-5.7-11.101-7.097-24.394-2.774-37.146c5.927-17.488,20.998-29.26,38.072-31.869
		c7.323-1.119,15.009-0.581,22.509,1.961C1017.602,422.433,1030.991,449.556,1022.522,474.543z"/>
	<path fill="#502C84" d="M1149.035,820.534c-0.026-0.299-0.055-0.583-0.082-0.882c0.066,0.924,0.137,1.861,0.197,2.767
		C1149.107,821.787,1149.093,821.179,1149.035,820.534z"/>
	<path fill="#6C41B7" d="M1149.15,822.419c-0.06-0.906-0.131-1.843-0.197-2.767c-0.547-7.654-1.308-15.861-2.357-24.774
		c-0.389-3.301-0.807-6.674-1.272-10.157c-0.912-6.836-1.945-13.959-3.171-21.521c0,0-24.92,9.234-85.981,57.334
		c-39.142,26.161-89.463,28.639-134.747,4.247c-23.037-17.544-44.153-40.352-60.782-67.043
		c-3.706,11.143-9.239,21.665-16.422,31.094c-1.368,1.795-2.809,3.54-4.295,5.252c24.411,52.379,59.747,114.023,120.249,133.356
		c60.16,19.223,145.149,12.276,171.662-12.097C1131.836,915.343,1154.627,906.029,1149.15,822.419z"/>
	<path fill="#36176C" d="M639.124,399.28c0.008,0,0.015,0,0.023,0l0.159-0.506c12.727,0.119,23.84,0.276,33.54,0.394l22.368-0.12
		l-0.281,0.791c2.087-0.003,4.068-0.016,5.973-0.038c0.025,0,0.053,0,0.077,0c0.119-0.001,0.243-0.002,0.359-0.004
		c0.889-0.011,1.752-0.025,2.603-0.041c0.117-0.002,0.243-0.004,0.359-0.006c0.763-0.015,1.5-0.033,2.232-0.052
		c0.099-0.003,0.2-0.005,0.301-0.007c0.101-0.002,0.202-0.005,0.301-0.007c0.326-0.009,0.636-0.021,0.953-0.031
		c0.316-0.011,0.639-0.02,0.953-0.031c0.129-0.005,0.259-0.009,0.39-0.013c0.131-0.004,0.263-0.008,0.39-0.013
		c0.277-0.011,0.541-0.023,0.81-0.035c0.268-0.012,0.542-0.023,0.81-0.035c0.306-0.014,0.623-0.025,0.924-0.04
		c0.219-0.011,0.428-0.024,0.639-0.036c0.212-0.012,0.426-0.024,0.64-0.036c0.19-0.011,0.379-0.022,0.571-0.032
		s0.386-0.021,0.571-0.032c0.388-0.025,0.757-0.053,1.134-0.08c0.378-0.026,0.765-0.051,1.132-0.08
		c0.35-0.027,0.682-0.059,1.024-0.089c0.382-0.033,0.77-0.064,1.14-0.1c0.273-0.026,0.529-0.057,0.795-0.084
		c0.416-0.044,0.839-0.086,1.241-0.133c0.109-0.013,0.211-0.027,0.316-0.041c0.105-0.014,0.21-0.027,0.316-0.04
		c0.436-0.055,0.876-0.108,1.296-0.168c0.165-0.023,0.321-0.05,0.484-0.074c0.223-0.033,0.44-0.069,0.66-0.102
		s0.447-0.066,0.66-0.102c0.16-0.027,0.309-0.057,0.466-0.085c0.211-0.037,0.416-0.077,0.625-0.115
		c0.209-0.038,0.422-0.075,0.625-0.115c0.094-0.019,0.18-0.04,0.274-0.059c0.226-0.047,0.444-0.097,0.667-0.145
		c0.223-0.048,0.452-0.094,0.667-0.145c0.073-0.017,0.14-0.037,0.213-0.054c0.443-0.107,0.878-0.216,1.297-0.332
		c0.069-0.019,0.134-0.041,0.203-0.061c0.416-0.118,0.828-0.238,1.223-0.366c0.023-0.008,0.046-0.016,0.069-0.024
		c10.004-3.255,13.263-9.715,17.978-22.147c1.088-2.869,2.254-6.056,3.598-9.595c0.006-0.016,0.012-0.032,0.017-0.048
		c0.006-0.016,0.012-0.032,0.017-0.048c0.104-0.272,0.213-0.555,0.32-0.834c0.107-0.278,0.211-0.553,0.32-0.834
		c0.031-0.082,0.062-0.163,0.093-0.243c0.031-0.08,0.061-0.16,0.093-0.243c0.283-0.732,0.598-1.521,0.897-2.281
		s0.58-1.491,0.897-2.281c5.904-14.712,27.26-23.483,52.746-28.661c3.476-0.706,7.028-1.345,10.628-1.923
		c6.001-0.964,12.135-1.758,18.27-2.411c2.454-0.261,4.908-0.5,7.354-0.718c4.891-0.435,9.75-0.787,14.505-1.069
		c2.378-0.141,4.731-0.265,7.049-0.373c10.435-0.486,20.183-0.657,28.47-0.672c6.027-0.011,11.271,0.061,15.453,0.153
		c1.122,0.025,2.166,0.051,3.127,0.077c0.229,0.006,0.45,0.012,0.67,0.019c0.872,0.025,1.667,0.05,2.383,0.074
		c0.67,0.023,1.269,0.044,1.795,0.064c0.559,0.021,1.034,0.04,1.421,0.057c0.106,0.005,0.205,0.009,0.298,0.013
		c0.367,0.016,0.636,0.028,0.785,0.035c0.098,0.005,0.158,0.008,0.158,0.008s0.673-0.039,1.943-0.041
		c0.468-0.001,1.019,0.003,1.647,0.016c1.957,0.039,4.691,0.169,8.048,0.489c1.742,0.166,3.67,0.393,5.742,0.681
		c0.696,0.097,1.408,0.203,2.138,0.316c33.275,5.134,102.177,27.573,151.236,123.807c1.984,3.892,3.936,7.906,5.851,12.043
		c-37.656-115.814-100.602-156.875-142.957-171.369v-3.211c0-13.317-10.794-24.112-24.111-24.112h-51.97
		c-11.857,0-21.694,8.567-23.711,19.844c-42.211,2.259-94.557,10.161-104.218,35.009c-19.641,50.528-1.859,40.907-146.894,40.907
		v41.835l35.844-0.191L639.124,399.28z"/>
	<path fill="#36176C" d="M287.046,321.4c0,0,147.932-7.468,165.111,35.329c15.632,38.945,10.092,43.335,66.456,43.099
		c0.489-0.002,0.985-0.005,1.483-0.008c0.464-0.003,0.927-0.005,1.399-0.008c1.422-0.009,2.921-0.023,4.419-0.037
		c17.99-0.169,41.469-0.613,72.463-0.661l4.984-0.027v-41.836c-145.035,0-127.253,9.62-146.895-40.907
		c-10.262-26.398-68.698-33.669-111.979-35.368c-2.16-11.102-11.924-19.485-23.657-19.485h-51.97
		c-13.317,0-24.113,10.795-24.113,24.112v6.063c-42.219,16.836-100.427,60.042-135.806,170.326
		C175.267,314.997,287.046,321.4,287.046,321.4z"/>
	<polygon fill="#502C84" points="603.398,745.869 603.832,745.869 603.832,657.099 603.398,658.324 	"/>
	<path fill="#6C41B7" d="M582.131,399.201c0.148-0.001,0.288-0.002,0.436-0.002L582.131,399.201L582.131,399.201z"/>
	<polygon fill="#6C41B7" points="672.664,399.674 660.537,433.304 660.537,433.303 641.621,486.002 640.099,554.682 
		642.244,548.624 680.074,441.793 680.074,441.793 680.074,441.792 687.504,420.815 694.933,399.839 694.933,399.839 
		695.214,399.048 672.846,399.168 672.664,399.674 	"/>
	<path fill="#6C41B7" d="M582.74,399.197l-2.603,7.375l-43.543,120.683l-8.722,24.172l-1.178,3.266l-28.943,77.457
		c17.213,9.992,31.811,24.856,41.426,43.828l25.793-70.074c-3.155-4.492-4.932-9.643-4.81-15.124l0.371-16.782l1.341-60.494
		l0.83-37.453c0.034-1.572,0.268-3.102,0.597-4.607c3.205-14.694,19.822-25.781,39.639-25.517c6.793,0.09,13.154,1.505,18.688,3.916
		l12.765-35.399l4.733-15.162v-0.001l0.119-0.384l-35.844,0.191l-0.038,0l-4.984,0.027L582.74,399.197z"/>
	<path fill="#6C41B7" d="M658.987,689.09c0.365-1.049,0.773-2.075,1.168-3.107l-2.215-0.482l-2.215-0.482h-51.311v-29.563
		l13.025-36.784c-5.531,2.161-11.776,3.372-18.401,3.284c-1.617-0.021-3.2-0.14-4.763-0.307c-0.431-0.046-0.849-0.127-1.276-0.183
		l-22.812,63.554H552.13l-8.186,1.78c7.37,19.644,8.527,40.358,4.313,59.794l3.326-0.724h20.815h30.967l-0.002-60.851h-9.417
		l9.417-26.597l0.035-0.098l0.435-1.226l0.035-0.101l0.043-0.12v28.141h-0.043v60.851h51.311l0.081,0.018
		C651.319,727.151,652.524,707.635,658.987,689.09z"/>
	<path fill="#502C84" d="M641.818,477.102l-0.197,8.9l18.916-52.699v0l12.128-33.63l0.182-0.507
		c-9.7-0.118-20.813-0.275-33.54-0.394l-0.159,0.506l-4.756,15.163l-12.765,35.399C633.889,455.186,642.076,465.438,641.818,477.102
		z"/>
	<polygon fill="#502C84" points="603.91,656.877 603.867,656.998 603.867,685.019 603.91,685.019 	"/>
	<polygon fill="#502C84" points="603.363,685.019 603.363,658.422 593.946,685.019 	"/>
	<path fill="#502C84" d="M369.589,432.613c3.34,3.244,6.462,6.709,9.364,10.357C376.054,439.319,372.929,435.859,369.589,432.613z"
		/>
	<polygon fill="#502C84" points="322.095,537.068 322.095,541.023 322.095,542.586 324.111,537.068 323.458,537.068 	"/>
	<path fill="#502C84" d="M143.853,820.534c60.118,40.181,146.615,24.554,200.715-58.609c-12.327-32.43-7.722-67.854,10.135-95.589
		c10.249-15.918,24.85-29.303,43.108-38.126c5.774-2.791,11.683-4.979,17.653-6.653c27.831-7.802,57.091-3.724,81.325,10.002
		c0.327,0.185,0.636,0.402,0.962,0.591l28.943-77.457l1.178-3.266l8.722-24.172l43.543-120.683l2.603-7.375
		c-0.059,0-0.114,0.001-0.173,0.001c-0.148,0.001-0.288,0.002-0.436,0.002c-23.209,0.116-41.545,0.44-56.216,0.574
		c-1.498,0.014-2.997,0.028-4.419,0.037c-0.472,0.003-0.934,0.006-1.399,0.008c-0.498,0.003-0.994,0.006-1.483,0.008
		c-56.365,0.236-50.825-4.155-66.456-43.099C434.978,313.932,287.046,321.4,287.046,321.4s-111.78-6.404-178.105,140.591
		c-0.549,1.216-1.104,2.414-1.646,3.652c-4.376,14.19-8.393,29.421-11.944,45.854c-5.58,25.828-15.711,74.808-20.25,106.52
		c-6.563,45.851-19.784,122.184-23.062,189.743c1.26-13.203,3.142-27.96,5.833-44.56C57.873,763.201,82.793,772.435,143.853,820.534
		z M294.36,389.686c66.343,0,120.319,53.976,120.319,120.321S360.703,630.328,294.36,630.328
		c-66.347,0-120.323-53.976-120.323-120.321S228.013,389.686,294.36,389.686z"/>
	<path fill="#502C84" d="M203.451,568.22c-2.684-4.176-5.088-8.549-7.188-13.089C198.361,559.674,200.767,564.043,203.451,568.22z"
		/>
	<path fill="#502C84" d="M388.114,456.482c2.408,4.202,4.542,8.578,6.379,13.108C392.657,465.06,390.522,460.685,388.114,456.482z"
		/>
	<path fill="#502C84" d="M368.777,588.177c-4.001,3.808-8.317,7.282-12.861,10.45C360.46,595.46,364.777,591.987,368.777,588.177z"
		/>
	<path fill="#502C84" d="M203.461,568.235c4.753,7.396,10.38,14.173,16.74,20.191C213.846,582.407,208.214,575.63,203.461,568.235z"
		/>
	<path fill="#502C84" d="M196.17,554.927c-2.059-4.475-3.818-9.114-5.258-13.891C192.348,545.815,194.115,550.45,196.17,554.927z"/>
	<path fill="#502C84" d="M564.97,605.903l-25.793,70.074c0.307,0.606,0.635,1.196,0.932,1.81c1.436,2.971,2.698,5.98,3.835,9.012
		l8.186-1.78h18.057l22.812-63.554C580.847,619.849,570.639,613.972,564.97,605.903z"/>
	<path fill="#6C41B7" d="M846.4,682.202c-16.614-34.381-51.101-54.445-86.946-54.445c-14.053,0-28.313,3.08-41.791,9.594
		c-23.184,11.204-40.618,30.766-49.088,55.08c-8.474,24.314-6.967,50.473,4.237,73.657c23.125,47.859,80.882,67.976,128.737,44.851
		C849.407,787.812,869.528,730.061,846.4,682.202z M791.232,789.592c-36.146,17.467-79.608,2.325-97.074-33.821
		c-17.467-36.145-2.323-79.607,33.821-97.073c36.146-17.467,79.608-2.324,97.074,33.821
		C842.52,728.664,827.377,772.126,791.232,789.592z"/>
	<path fill="#552E98" d="M860.643,757.738c2.113-6.352,3.635-12.903,4.533-19.562c1.796-13.317,1.098-27.065-2.356-40.519
		c-1.727-6.727-4.142-13.381-7.278-19.87c-2.166-4.484-4.629-8.728-7.315-12.761c-13.835-20.769-34.158-35.413-56.896-42.52v0
		c-10.911-3.41-22.374-5.087-33.938-4.87c-9.911,0.186-19.897,1.763-29.673,4.834c-4.888,1.536-9.724,3.444-14.471,5.739
		c-9.235,4.463-17.64,10.127-25.054,16.805c-4.942,4.452-9.443,9.354-13.454,14.652c-2.005,2.649-3.889,5.396-5.644,8.235
		c-0.877,1.42-1.723,2.862-2.535,4.327c-2.437,4.394-4.579,8.986-6.405,13.754c-0.395,1.033-0.803,2.059-1.168,3.107
		c-6.463,18.545-7.667,38.061-3.728,56.797c1.77,8.416,4.572,16.675,8.411,24.617c18.366,38.007,56.478,60.183,96.104,60.183
		c15.53,0,31.298-3.407,46.19-10.606c13.391-6.471,24.784-15.417,33.962-25.997c1.486-1.712,2.927-3.457,4.295-5.252
		C851.404,779.403,856.936,768.881,860.643,757.738z M801.549,810.94c-47.855,23.125-105.613,3.008-128.737-44.851
		c-11.204-23.184-12.711-49.343-4.237-73.657c8.471-24.314,25.904-43.876,49.088-55.08c13.478-6.514,27.738-9.594,41.791-9.594
		c35.845,0,70.332,20.064,86.946,54.445C869.528,730.061,849.407,787.812,801.549,810.94z"/>
	
		<ellipse transform="matrix(0.9831 -0.1831 0.1831 0.9831 -119.7303 151.2968)" fill="#26155F" cx="759.606" cy="724.145" rx="72.688" ry="72.688"/>
	<path fill="#6C41B7" d="M444.017,627.757c-14.053,0-28.313,3.08-41.791,9.594c-47.859,23.128-67.979,80.878-44.851,128.737
		c23.125,47.859,80.875,67.976,128.737,44.851c47.859-23.128,67.983-80.878,44.855-128.737
		C514.35,647.825,479.863,627.757,444.017,627.757z M475.796,789.592c-36.144,17.467-79.606,2.325-97.073-33.821
		c-17.467-36.145-2.325-79.607,33.821-97.073c36.144-17.467,79.606-2.324,97.073,33.821S511.942,772.126,475.796,789.592z"/>
	<path fill="#552E98" d="M543.944,686.799c-1.137-3.031-2.399-6.041-3.835-9.012c-0.297-0.615-0.625-1.204-0.932-1.81
		c-9.615-18.971-24.213-33.836-41.426-43.828c-0.326-0.189-0.635-0.405-0.962-0.591c-24.233-13.726-53.494-17.804-81.325-10.002
		c-5.97,1.674-11.88,3.862-17.653,6.653c-18.258,8.823-32.859,22.208-43.108,38.126c-17.857,27.734-22.462,63.159-10.135,95.589
		c1.096,2.884,2.299,5.75,3.665,8.579c3.655,7.563,8.119,14.469,13.193,20.728c20.428,25.196,51.17,39.455,82.911,39.455
		c15.53,0,31.298-3.407,46.19-10.606c30.676-14.824,51.015-42.522,57.729-73.488C552.47,727.157,551.314,706.443,543.944,686.799z
		 M486.112,810.94c-47.862,23.125-105.613,3.008-128.737-44.851c-23.128-47.859-3.007-105.609,44.851-128.737
		c13.478-6.514,27.738-9.594,41.791-9.594c35.845,0,70.332,20.068,86.95,54.445C554.095,730.061,533.971,787.812,486.112,810.94z"/>
	
		<ellipse transform="matrix(0.1863 -0.9825 0.9825 0.1863 -350.0345 1025.6621)" fill="#26155F" cx="444.17" cy="724.145" rx="72.688" ry="72.687"/>
	<path fill="#552E98" d="M294.36,630.328c66.343,0,120.319-53.976,120.319-120.321S360.703,389.686,294.36,389.686
		c-66.347,0-120.323,53.976-120.323,120.321S228.013,630.328,294.36,630.328z M203.456,568.229
		c-0.002-0.003-0.003-0.006-0.005-0.009c-2.684-4.177-5.09-8.547-7.188-13.089c-0.031-0.068-0.061-0.137-0.093-0.204
		c-2.056-4.477-3.822-9.112-5.258-13.891c-0.059-0.201-0.113-0.404-0.172-0.605c-0.613-2.079-1.158-4.187-1.646-6.316
		c-0.088-0.381-0.181-0.759-0.264-1.141c-0.504-2.311-0.942-4.647-1.295-7.01c-0.039-0.263-0.064-0.53-0.102-0.794
		c-0.292-2.054-0.512-4.129-0.686-6.219c-0.05-0.605-0.099-1.21-0.14-1.818c-0.155-2.358-0.26-4.73-0.26-7.126
		c0-2.716,0.134-5.401,0.332-8.068c0.04-0.535,0.075-1.071,0.122-1.604c0.231-2.573,0.544-5.123,0.951-7.641
		c0.074-0.455,0.164-0.904,0.242-1.356c0.418-2.384,0.906-4.744,1.476-7.071c0.068-0.275,0.122-0.554,0.192-0.828
		c0.628-2.473,1.361-4.904,2.157-7.306c0.168-0.509,0.34-1.016,0.515-1.522c0.83-2.381,1.721-4.733,2.709-7.035
		c0.118-0.276,0.25-0.544,0.371-0.819c0.949-2.163,1.971-4.286,3.055-6.372c0.189-0.363,0.368-0.732,0.561-1.092
		c1.17-2.191,2.42-4.333,3.735-6.432c0.26-0.415,0.527-0.824,0.792-1.235c1.381-2.14,2.813-4.245,4.336-6.278
		c0.002-0.001,0.002-0.002,0.003-0.004c1.53-2.04,3.152-4.007,4.82-5.933c0.295-0.341,0.585-0.684,0.884-1.021
		c1.651-1.859,3.361-3.664,5.134-5.405c0.283-0.277,0.575-0.545,0.859-0.819c1.758-1.688,3.564-3.327,5.432-4.895
		c0.126-0.106,0.246-0.219,0.373-0.325c1.949-1.62,3.969-3.157,6.028-4.639c0.375-0.269,0.749-0.537,1.127-0.801
		c2.069-1.45,4.184-2.842,6.357-4.147c0.213-0.128,0.432-0.246,0.646-0.372c2.097-1.24,4.242-2.407,6.427-3.507
		c0.287-0.144,0.568-0.297,0.857-0.44c2.278-1.121,4.606-2.155,6.972-3.117c0.413-0.168,0.828-0.328,1.243-0.491
		c2.433-0.954,4.9-1.848,7.415-2.627c2.264-0.701,4.569-1.304,6.894-1.858c0.506-0.12,1.011-0.238,1.519-0.352
		c2.359-0.525,4.736-0.997,7.149-1.365c0.004,0,0.007-0.001,0.011-0.001c2.361-0.36,4.757-0.613,7.165-0.817
		c0.597-0.05,1.191-0.096,1.79-0.137c2.433-0.165,4.882-0.279,7.358-0.279c2.945,0,5.853,0.151,8.739,0.384
		c0.422,0.034,0.847,0.058,1.267,0.097c2.775,0.257,5.518,0.626,8.228,1.09c0.433,0.074,0.863,0.153,1.294,0.232
		c2.768,0.509,5.504,1.105,8.195,1.821c0.189,0.05,0.375,0.109,0.564,0.161c2.834,0.771,5.629,1.639,8.366,2.63
		c2.946,1.066,5.825,2.27,8.644,3.58c0.16,0.074,0.321,0.143,0.481,0.217c2.757,1.297,5.447,2.713,8.071,4.231
		c0.17,0.099,0.341,0.195,0.511,0.294c2.637,1.545,5.205,3.195,7.694,4.951c0.102,0.072,0.205,0.145,0.307,0.218
		c2.394,1.7,4.703,3.507,6.947,5.39c0.146,0.122,0.307,0.227,0.451,0.35c1.815,1.539,3.575,3.141,5.285,4.794
		c0.061,0.059,0.123,0.117,0.184,0.176c3.34,3.246,6.464,6.706,9.364,10.357c0.221,0.278,0.44,0.557,0.658,0.837
		c1.386,1.778,2.73,3.59,4.002,5.455c0.002,0.001,0.002,0.001,0.002,0.002c0,0,0,0,0,0.001c1.382,2.024,2.683,4.108,3.929,6.228
		c0.193,0.328,0.38,0.659,0.57,0.989c2.408,4.202,4.543,8.577,6.379,13.108c0.169,0.418,0.334,0.838,0.497,1.259
		c0.874,2.236,1.695,4.498,2.422,6.803c0.005,0.017,0.011,0.033,0.017,0.05c0.725,2.308,1.352,4.66,1.923,7.032
		c0.124,0.516,0.241,1.033,0.359,1.552c0.525,2.329,0.996,4.676,1.367,7.059c0.007,0.047,0.018,0.093,0.026,0.14
		c0.37,2.4,0.633,4.835,0.841,7.284c0.051,0.595,0.096,1.19,0.136,1.788c0.169,2.465,0.287,4.945,0.287,7.452
		c0,2.752-0.137,5.47-0.34,8.171c-0.04,0.522-0.074,1.046-0.121,1.566c-0.233,2.601-0.555,5.176-0.971,7.721
		c-0.075,0.465-0.166,0.924-0.247,1.386c-0.445,2.515-0.959,5.007-1.576,7.46c-0.035,0.138-0.062,0.28-0.097,0.418
		c-0.653,2.552-1.419,5.058-2.249,7.535c-0.152,0.45-0.301,0.899-0.458,1.346c-0.852,2.432-1.779,4.83-2.797,7.18
		c-0.13,0.299-0.27,0.591-0.402,0.888c-1.037,2.334-2.144,4.63-3.338,6.874c-0.071,0.133-0.135,0.269-0.207,0.402
		c-1.248,2.324-2.595,4.589-4.006,6.807c-0.195,0.306-0.39,0.611-0.587,0.916c-1.447,2.225-2.96,4.404-4.562,6.512
		c-0.048,0.063-0.098,0.124-0.145,0.186c-1.662,2.179-3.406,4.292-5.226,6.337c-0.05,0.056-0.098,0.114-0.149,0.171
		c-1.816,2.031-3.714,3.988-5.677,5.878c-0.145,0.14-0.292,0.278-0.438,0.418c-4.001,3.811-8.317,7.283-12.861,10.45
		c-2.365,1.649-4.772,3.239-7.271,4.697c-0.053,0.03-0.105,0.06-0.157,0.09c-2.148,1.249-4.356,2.404-6.594,3.506
		c-0.708,0.349-1.43,0.671-2.147,1.005c-1.593,0.742-3.204,1.448-4.838,2.113c-0.799,0.325-1.599,0.648-2.406,0.954
		c-1.77,0.67-3.563,1.286-5.375,1.865c-0.621,0.199-1.232,0.422-1.859,0.609c-0.162,0.048-0.317,0.109-0.479,0.157
		c-2.388,0.703-4.81,1.325-7.261,1.865c-0.023,0.005-0.046,0.011-0.069,0.016c-2.455,0.54-4.94,0.996-7.453,1.366
		c-0.022,0.003-0.045,0.006-0.068,0.009c-2.251,0.33-4.533,0.566-6.827,0.754c-0.491,0.04-0.981,0.079-1.473,0.112
		c-2.356,0.16-4.726,0.265-7.122,0.269c-0.053,0-0.105,0.004-0.157,0.004c-2.941,0-5.846-0.151-8.729-0.384
		c-0.424-0.034-0.849-0.057-1.272-0.097c-2.773-0.257-5.514-0.625-8.224-1.089c-0.429-0.074-0.858-0.151-1.285-0.23
		c-2.77-0.509-5.511-1.105-8.204-1.821c-0.178-0.047-0.349-0.102-0.526-0.15c-2.837-0.77-5.634-1.639-8.373-2.63
		c-0.004-0.001-0.008-0.003-0.012-0.004c-0.002,0-0.002-0.001-0.005-0.002c-2.649-0.958-5.24-2.035-7.789-3.19
		c-0.278-0.127-0.558-0.25-0.837-0.379c-2.494-1.156-4.939-2.4-7.325-3.737c-0.192-0.107-0.379-0.22-0.57-0.328
		c-4.966-2.822-9.691-6.019-14.127-9.566c-0.076-0.06-0.152-0.118-0.227-0.178c-2.232-1.794-4.392-3.675-6.474-5.637
		c-0.059-0.057-0.118-0.114-0.178-0.17c-6.36-6.018-11.987-12.795-16.74-20.191C203.458,568.233,203.458,568.231,203.456,568.229z"
		/>
	<path fill="#6C41B7" d="M218.443,482.729h16.273l27.758-75.924c-2.516,0.779-4.982,1.672-7.415,2.627
		c-0.416,0.163-0.83,0.323-1.243,0.491c-2.365,0.962-4.694,1.996-6.972,3.117c-0.289,0.142-0.57,0.295-0.857,0.44
		c-2.185,1.099-4.33,2.267-6.427,3.507c-0.214,0.127-0.433,0.244-0.646,0.372c-2.173,1.305-4.288,2.697-6.357,4.147
		c-0.378,0.264-0.752,0.532-1.127,0.801c-2.059,1.482-4.079,3.019-6.028,4.639c-0.127,0.106-0.247,0.218-0.373,0.325
		c-1.868,1.568-3.673,3.207-5.432,4.895c-0.284,0.274-0.577,0.542-0.859,0.819c-1.773,1.741-3.483,3.546-5.134,5.405
		c-0.299,0.337-0.589,0.68-0.884,1.021c-1.668,1.926-3.29,3.893-4.82,5.933c-0.001,0.002-0.002,0.002-0.003,0.004
		c-1.524,2.033-2.955,4.138-4.336,6.278c-0.265,0.411-0.532,0.82-0.792,1.235c-1.315,2.099-2.565,4.24-3.735,6.432
		c-0.193,0.361-0.372,0.729-0.561,1.092c-1.084,2.086-2.106,4.209-3.055,6.372c-0.121,0.275-0.253,0.542-0.371,0.819
		c-0.988,2.302-1.88,4.654-2.709,7.035c-0.175,0.506-0.347,1.013-0.515,1.522c-0.796,2.402-1.529,4.833-2.157,7.306
		c-0.069,0.274-0.124,0.554-0.192,0.828c-0.57,2.327-1.058,4.687-1.476,7.071c-0.078,0.453-0.169,0.901-0.242,1.356
		c-0.407,2.518-0.72,5.068-0.951,7.641c-0.047,0.533-0.082,1.069-0.122,1.604c-0.198,2.667-0.332,5.351-0.332,8.068
		c0,2.397,0.106,4.768,0.26,7.126c0.04,0.608,0.089,1.213,0.14,1.818c0.174,2.089,0.394,4.165,0.686,6.219
		c0.037,0.264,0.063,0.531,0.102,0.794c0.353,2.363,0.791,4.699,1.295,7.01c0.083,0.382,0.177,0.76,0.264,1.141
		c0.488,2.129,1.033,4.237,1.646,6.316c0.059,0.201,0.112,0.405,0.172,0.605c1.44,4.777,3.199,9.416,5.258,13.891
		c0.031,0.068,0.062,0.136,0.093,0.204c2.1,4.54,4.504,8.913,7.188,13.089c0.002,0.003,0.002,0.006,0.005,0.009l14.987-40.995
		V482.729z"/>
	<path fill="#6C41B7" d="M301.523,584.432h-19.767h-14.22l-3.313,9.188v0l-6.488,17.993c0.003,0.001,0.007,0.002,0.012,0.004
		c2.739,0.991,5.536,1.859,8.373,2.63c0.177,0.048,0.349,0.103,0.526,0.15c2.693,0.716,5.433,1.312,8.204,1.821
		c0.427,0.079,0.856,0.157,1.285,0.23c2.71,0.464,5.451,0.832,8.224,1.089c0.423,0.039,0.849,0.063,1.272,0.097
		c2.883,0.233,5.788,0.384,8.729,0.384c0.052,0,0.104-0.004,0.157-0.004l12.278-33.581H301.523z"/>
	<path fill="#6C41B7" d="M321.216,435.582h1.912v36.684v10.464h15.289h5.561l13.593-37.178l0.001,0l6.548-17.909
		c-0.145-0.123-0.305-0.227-0.451-0.35c-2.244-1.883-4.553-3.69-6.947-5.39c-0.102-0.073-0.204-0.146-0.307-0.218
		c-2.489-1.756-5.057-3.406-7.694-4.951c-0.17-0.1-0.341-0.196-0.511-0.294c-2.623-1.518-5.314-2.933-8.071-4.231
		c-0.159-0.075-0.321-0.144-0.481-0.217c-2.819-1.31-5.699-2.514-8.644-3.58l-5.146,14.27L321.216,435.582z"/>
	<path fill="#6C41B7" d="M381.262,455.845l-10.987,30.696v50.527H352.19l-27.4,76.555c0.162-0.048,0.317-0.108,0.479-0.157
		c0.627-0.188,1.238-0.411,1.859-0.609c1.812-0.579,3.605-1.195,5.375-1.865c0.807-0.307,1.607-0.629,2.406-0.954
		c1.633-0.665,3.245-1.372,4.838-2.113c0.717-0.334,1.439-0.655,2.147-1.005c2.238-1.102,4.446-2.257,6.594-3.506
		c0.052-0.03,0.104-0.06,0.157-0.09c2.499-1.458,4.906-3.049,7.271-4.697c4.544-3.168,8.86-6.642,12.861-10.45
		c0.146-0.139,0.292-0.278,0.438-0.418c1.963-1.889,3.861-3.846,5.677-5.878c0.05-0.056,0.098-0.115,0.149-0.171
		c1.82-2.044,3.564-4.158,5.226-6.337c0.048-0.063,0.097-0.123,0.145-0.186c1.602-2.108,3.115-4.287,4.562-6.512
		c0.197-0.304,0.392-0.609,0.587-0.916c1.41-2.219,2.757-4.483,4.006-6.807c0.072-0.133,0.135-0.269,0.207-0.402
		c1.194-2.244,2.301-4.54,3.338-6.874c0.132-0.297,0.273-0.589,0.402-0.888c1.018-2.35,1.945-4.748,2.797-7.18
		c0.157-0.447,0.306-0.896,0.458-1.346c0.83-2.476,1.596-4.982,2.249-7.535c0.035-0.139,0.062-0.28,0.097-0.418
		c0.616-2.453,1.13-4.944,1.576-7.46c0.081-0.463,0.172-0.922,0.247-1.386c0.416-2.545,0.738-5.12,0.971-7.721
		c0.047-0.52,0.081-1.043,0.121-1.566c0.203-2.7,0.34-5.419,0.34-8.171c0-2.507-0.117-4.987-0.287-7.452
		c-0.04-0.598-0.085-1.193-0.136-1.788c-0.208-2.449-0.471-4.884-0.841-7.284c-0.007-0.047-0.018-0.093-0.026-0.14
		c-0.371-2.382-0.843-4.73-1.367-7.059c-0.117-0.518-0.235-1.036-0.359-1.552c-0.572-2.372-1.198-4.723-1.923-7.032
		c-0.007-0.017-0.012-0.033-0.017-0.05c-0.726-2.305-1.548-4.567-2.422-6.803c-0.164-0.421-0.328-0.84-0.497-1.259
		c-1.837-4.529-3.971-8.906-6.379-13.108c-0.19-0.33-0.377-0.661-0.57-0.989c-1.246-2.12-2.546-4.203-3.929-6.228c0,0,0,0,0-0.001
		L381.262,455.845L381.262,455.845z"/>
	<path fill="#7853D3" d="M220.38,588.597c2.082,1.962,4.242,3.843,6.474,5.637c0.075,0.06,0.151,0.118,0.227,0.178
		c4.436,3.547,9.161,6.744,14.127,9.566c0.191,0.108,0.378,0.221,0.57,0.328c2.386,1.337,4.832,2.581,7.325,3.737
		c0.279,0.129,0.559,0.252,0.837,0.379c2.549,1.155,5.14,2.232,7.789,3.19c0.002,0,0.002,0.001,0.005,0.002l6.488-17.993v0
		l3.313-9.188h-1.146v-27.255v-20.508H225.64h-7.197v-9.435l-14.987,40.995c0.002,0.002,0.002,0.004,0.005,0.006
		c4.753,7.395,10.385,14.172,16.74,20.191C220.262,588.483,220.321,588.54,220.38,588.597z"/>
	<path fill="#7853D3" d="M244.624,482.729h21.766v-47.147h42.212h12.613l4.653-12.9l5.146-14.27
		c-2.737-0.991-5.532-1.859-8.366-2.63c-0.189-0.052-0.375-0.111-0.564-0.161c-2.69-0.716-5.427-1.312-8.195-1.821
		c-0.431-0.079-0.861-0.158-1.294-0.232c-2.71-0.464-5.453-0.832-8.228-1.09c-0.421-0.039-0.845-0.063-1.267-0.097
		c-2.886-0.233-5.794-0.384-8.739-0.384c-2.475,0-4.924,0.114-7.358,0.279c-0.599,0.04-1.194,0.086-1.79,0.137
		c-2.408,0.204-4.804,0.457-7.165,0.817c-0.003,0-0.007,0.001-0.011,0.001c-2.413,0.368-4.79,0.84-7.149,1.365
		c-0.508,0.113-1.014,0.231-1.519,0.352c-2.325,0.553-4.63,1.157-6.894,1.858l-27.758,75.924H244.624z"/>
	<path fill="#7853D3" d="M324.111,537.068l-2.016,5.518v41.846h-15.3l-12.278,33.581c2.396-0.003,4.767-0.109,7.122-0.269
		c0.492-0.033,0.982-0.073,1.473-0.112c2.294-0.187,4.576-0.424,6.827-0.754c0.022-0.003,0.045-0.005,0.068-0.009
		c2.513-0.37,4.998-0.826,7.453-1.366c0.023-0.005,0.046-0.01,0.069-0.016c2.451-0.541,4.873-1.163,7.261-1.865l27.4-76.555H324.111
		z"/>
	<path fill="#7853D3" d="M357.571,445.551l-13.593,37.178h26.297v3.812l10.987-30.696v-0.001l2.354-6.579
		c0-0.001-0.001-0.002-0.002-0.002c-1.272-1.865-2.616-3.677-4.002-5.455c-0.218-0.28-0.436-0.559-0.658-0.837
		c-2.902-3.649-6.023-7.113-9.364-10.357c-0.061-0.059-0.123-0.117-0.184-0.176c-1.71-1.653-3.47-3.255-5.285-4.794L357.571,445.551
		L357.571,445.551z"/>
	<polygon fill="#38196E" points="301.523,584.432 306.795,584.432 322.095,584.432 322.095,542.586 322.095,541.023 
		322.095,537.068 323.458,537.068 324.111,537.068 352.19,537.068 370.274,537.068 370.274,486.541 370.274,482.729 
		343.978,482.729 338.416,482.729 323.128,482.729 323.128,472.265 323.128,435.582 321.216,435.582 308.603,435.582 
		266.39,435.582 266.39,482.729 244.624,482.729 234.716,482.729 218.443,482.729 218.443,527.234 218.443,536.669 225.64,536.669 
		266.39,536.669 266.39,557.177 266.39,584.432 267.536,584.432 281.757,584.432 	"/>
	<path fill="#38196E" d="M630.133,610.885c5.56-5.179,8.982-11.795,9.143-19.054l0.294-13.276l0.529-23.873v0l1.522-68.679
		l0.197-8.9c0.259-11.665-7.929-21.916-20.192-27.26c-5.533-2.411-11.894-3.826-18.688-3.916
		c-19.817-0.264-36.434,10.823-39.639,25.517c-0.329,1.505-0.563,3.035-0.597,4.607l-0.83,37.453l-1.341,60.494l-0.371,16.782
		c-0.121,5.481,1.655,10.632,4.81,15.124c5.67,8.07,15.877,13.947,28.029,15.562c0.427,0.057,0.844,0.137,1.276,0.183
		c1.563,0.167,3.146,0.286,4.763,0.307c6.626,0.088,12.87-1.123,18.401-3.284c0.001,0,0.001,0,0.001,0
		C622.326,616.763,626.66,614.12,630.133,610.885z M615.473,564.573c0,2.626-2.169,4.755-4.843,4.755h-19.283
		c-2.674,0-4.843-2.129-4.843-4.755v-61.264c0-2.626,2.169-4.755,4.843-4.755h19.283c2.674,0,4.843,2.129,4.843,4.755V564.573z"/>
	<path fill="#F29B00" d="M610.63,498.554h-19.283c-2.674,0-4.843,2.129-4.843,4.755v61.264c0,2.626,2.169,4.755,4.843,4.755h19.283
		c2.674,0,4.843-2.129,4.843-4.755v-61.264C615.473,500.683,613.304,498.554,610.63,498.554z"/>
	<path fill="#6C41B7" d="M344.568,761.925c-54.1,83.164-140.598,98.79-200.715,58.609c-61.06-48.1-85.98-57.334-85.98-57.334
		c-2.691,16.6-4.573,31.357-5.833,44.56c-9.286,97.263,16.15,107.582,16.15,107.582c26.513,24.373,111.502,31.32,171.661,12.097
		c61.602-19.684,97.122-83.237,121.577-136.208c-5.075-6.259-9.538-13.165-13.193-20.728
		C346.867,767.675,345.664,764.809,344.568,761.925z"/>
	<path fill="#552E98" d="M874.515,413.964c-7.5-2.542-15.185-3.08-22.508-1.961c-17.074,2.609-32.145,14.381-38.072,31.869
		c-4.322,12.751-2.926,26.045,2.774,37.146c5.47,10.653,14.898,19.287,27.134,23.435c24.988,8.47,52.109-4.921,60.579-29.909
		C912.892,449.556,899.503,422.433,874.515,413.964z M872.984,487.78c-15.773,7.621-34.737,1.014-42.359-14.758
		c-7.622-15.773-1.014-34.737,14.758-42.36c15.773-7.621,34.737-1.014,42.359,14.758
		C895.364,461.193,888.757,480.158,872.984,487.78z"/>
	<path fill="#552E98" d="M992.615,413.964c-7.501-2.542-15.186-3.08-22.509-1.961c-17.074,2.609-32.145,14.381-38.072,31.869
		c-4.322,12.751-2.926,26.045,2.774,37.146c5.47,10.653,14.898,19.287,27.135,23.435c24.987,8.47,52.108-4.921,60.578-29.909
		C1030.991,449.556,1017.602,422.433,992.615,413.964z M991.083,487.78c-15.773,7.622-34.738,1.014-42.359-14.758
		c-7.622-15.773-1.015-34.737,14.758-42.359c15.773-7.622,34.737-1.014,42.359,14.758
		C1013.463,461.193,1006.856,480.158,991.083,487.78z"/>
	<path fill="#552E98" d="M874.515,528.284c-7.5-2.542-15.185-3.08-22.508-1.961c-17.074,2.609-32.145,14.381-38.072,31.869
		c-4.322,12.751-2.926,26.045,2.774,37.145c5.47,10.653,14.898,19.287,27.134,23.435c24.988,8.47,52.109-4.921,60.579-29.909
		C912.892,563.876,899.503,536.754,874.515,528.284z M872.984,602.1c-15.773,7.621-34.737,1.014-42.359-14.758
		c-7.622-15.773-1.014-34.737,14.758-42.36c15.772-7.621,34.737-1.014,42.359,14.758C895.364,575.513,888.756,594.479,872.984,602.1
		z"/>
	<path fill="#552E98" d="M992.615,528.284c-7.501-2.542-15.186-3.08-22.509-1.961c-17.074,2.609-32.145,14.381-38.072,31.869
		c-4.322,12.751-2.926,26.045,2.774,37.145c5.47,10.653,14.898,19.287,27.135,23.435c24.987,8.47,52.108-4.921,60.578-29.909
		C1030.991,563.876,1017.602,536.754,992.615,528.284z M991.083,602.1c-15.773,7.621-34.737,1.014-42.359-14.758
		c-7.622-15.773-1.015-34.738,14.758-42.36c15.773-7.621,34.737-1.014,42.359,14.758
		C1013.463,575.514,1006.855,594.478,991.083,602.1z"/>
	<path fill="#F29B00" d="M963.482,430.662c-15.773,7.622-22.38,26.586-14.758,42.359c7.621,15.772,26.587,22.38,42.359,14.758
		c15.773-7.621,22.379-26.586,14.757-42.359C998.22,429.648,979.255,423.041,963.482,430.662z"/>
	<path fill="#2178E0" d="M845.383,430.662c-15.772,7.622-22.38,26.587-14.758,42.36c7.622,15.772,26.587,22.38,42.359,14.758
		c15.773-7.622,22.38-26.587,14.757-42.36C880.12,429.648,861.156,423.041,845.383,430.662z"/>
	<path fill="#DB00C7" d="M963.482,544.982c-15.773,7.622-22.38,26.587-14.758,42.36c7.622,15.772,26.587,22.38,42.359,14.758
		c15.772-7.622,22.379-26.587,14.758-42.36C998.22,543.968,979.255,537.361,963.482,544.982z"/>
	<path fill="#002CE2" d="M845.383,544.982c-15.772,7.622-22.38,26.587-14.758,42.36c7.622,15.772,26.587,22.38,42.359,14.758
		c15.772-7.622,22.38-26.587,14.757-42.36C880.12,543.968,861.155,537.361,845.383,544.982z"/>
</g>
</svg>
