<?xml version="1.0" encoding="utf-8"?>
<!-- Designed by Vexels.com - 2018 All Rights Reserved - https://vexels.com/terms-and-conditions/  -->
<svg version="1.1" id="Layer_1" xmlns="http://www.w3.org/2000/svg" xmlns:xlink="http://www.w3.org/1999/xlink" x="0px" y="0px"
	 viewBox="0 0 1200 1200" enable-background="new 0 0 1200 1200" xml:space="preserve">
<g>
	<g>
		<g>
			<path fill="#232122" d="M1114.215,915.154H85.785C66.022,915.154,50,899.133,50,879.369V181.206
				c0-19.764,16.022-35.785,35.785-35.785h1028.429c19.764,0,35.785,16.022,35.785,35.785v698.163
				C1150,899.133,1133.978,915.154,1114.215,915.154z"/>
		</g>
		<g>
			<path fill="#FFFFFF" d="M81.453,840.873V193.357c0-9.104,7.38-16.484,16.484-16.484h1004.127c9.104,0,16.484,7.38,16.484,16.484
				v647.516c0,9.104-7.38,16.484-16.484,16.484H97.937C88.833,857.356,81.453,849.977,81.453,840.873z"/>
		</g>
		<g>
			<rect x="475.252" y="915.154" fill="#727172" width="249.497" height="83.201"/>
		</g>
		<g>
			<path fill="#AFAFAF" d="M777.115,1054.579H422.885c-14.623,0-21.463-12.34-10.495-18.934l62.862-37.791h249.497l62.862,37.791
				C798.579,1042.239,791.738,1054.579,777.115,1054.579z"/>
		</g>
	</g>
	<g>
		<circle fill="#727172" cx="600" cy="160.831" r="7.621"/>
	</g>
</g>
</svg>
