<svg id="background" xmlns="http://www.w3.org/2000/svg" xmlns:xlink="http://www.w3.org/1999/xlink" viewBox="0 0 1921.88 801.92"><defs><style>.cls-1,.cls-3,.cls-5{opacity:0.4;}.cls-1{fill:url(#radial-gradient);}.cls-2,.cls-4,.cls-6{opacity:0.07;}.cls-2{fill:url(#radial-gradient-2);}.cls-3{fill:url(#radial-gradient-3);}.cls-4{fill:url(#radial-gradient-4);}.cls-5{fill:url(#radial-gradient-5);}.cls-6{fill:url(#radial-gradient-6);}.cls-7{fill:url(#linear-gradient);}.cls-8{fill:url(#linear-gradient-2);}.cls-9{fill:url(#linear-gradient-3);}.cls-10{fill:url(#linear-gradient-4);}.cls-11,.cls-16,.cls-21{opacity:0.5;}.cls-11{fill:url(#linear-gradient-5);}.cls-12{fill:url(#linear-gradient-6);}.cls-13{fill:url(#linear-gradient-7);}.cls-14{fill:url(#linear-gradient-8);}.cls-15{fill:url(#linear-gradient-9);}.cls-16{fill:url(#linear-gradient-10);}.cls-17{fill:url(#linear-gradient-11);}.cls-18{fill:url(#linear-gradient-12);}.cls-19{fill:url(#linear-gradient-13);}.cls-20{fill:url(#linear-gradient-14);}.cls-21{fill:url(#linear-gradient-15);}</style><radialGradient id="radial-gradient" cx="245.58" cy="3549.28" r="282.57" gradientTransform="translate(416.14 366.14) scale(0.99 0.11)" gradientUnits="userSpaceOnUse"><stop offset="0"/><stop offset="0.97" stop-opacity="0"/></radialGradient><radialGradient id="radial-gradient-2" cx="-191.64" cy="2988.04" r="282.62" gradientTransform="translate(632.76 352.45) scale(1.33 0.14)" xlink:href="#radial-gradient"/><radialGradient id="radial-gradient-3" cx="758.31" cy="3553.51" r="282.57" xlink:href="#radial-gradient"/><radialGradient id="radial-gradient-4" cx="187.6" cy="2991.54" r="282.62" gradientTransform="translate(632.76 352.45) scale(1.33 0.14)" xlink:href="#radial-gradient"/><radialGradient id="radial-gradient-5" cx="1243.14" cy="3535.73" r="282.57" xlink:href="#radial-gradient"/><radialGradient id="radial-gradient-6" cx="546.2" cy="2976.81" r="282.62" gradientTransform="translate(632.76 352.45) scale(1.33 0.14)" xlink:href="#radial-gradient"/><linearGradient id="linear-gradient" x1="309.92" y1="175.85" x2="379.32" y2="175.85" gradientUnits="userSpaceOnUse"><stop offset="0" stop-color="#666"/><stop offset="0.34" stop-color="#b1b1b1"/><stop offset="0.51" stop-color="#d9d9d9"/><stop offset="0.55" stop-color="#d0d0d0"/><stop offset="0.75" stop-color="#a6a7a9"/><stop offset="0.91" stop-color="#8c8d90"/><stop offset="1" stop-color="#828487"/></linearGradient><linearGradient id="linear-gradient-2" x1="513.21" y1="428.14" x2="778.7" y2="425.14" gradientUnits="userSpaceOnUse"><stop offset="0" stop-color="#de2616"/><stop offset="0.13" stop-color="#e23427"/><stop offset="0.39" stop-color="#ed5753"/><stop offset="0.43" stop-color="#ef5d5a"/><stop offset="0.57" stop-color="#ed4341"/><stop offset="0.73" stop-color="#eb292a"/><stop offset="0.88" stop-color="#ea191b"/><stop offset="1" stop-color="#ea1416"/></linearGradient><linearGradient id="linear-gradient-3" x1="230.61" y1="201.11" x2="556.39" y2="201.11" xlink:href="#linear-gradient"/><linearGradient id="linear-gradient-4" x1="230.61" y1="864.74" x2="556.39" y2="864.74" xlink:href="#linear-gradient"/><linearGradient id="linear-gradient-5" x1="668.78" y1="426.36" x2="847.27" y2="426.36" gradientUnits="userSpaceOnUse"><stop offset="0" stop-opacity="0"/><stop offset="1"/></linearGradient><linearGradient id="linear-gradient-6" x1="766.41" y1="172.85" x2="835.82" y2="172.85" xlink:href="#linear-gradient"/><linearGradient id="linear-gradient-7" x1="969.71" y1="425.14" x2="1235.19" y2="422.14" gradientUnits="userSpaceOnUse"><stop offset="0" stop-color="#0f547c"/><stop offset="0.13" stop-color="#13628d"/><stop offset="0.39" stop-color="#1e85b9"/><stop offset="0.43" stop-color="#208bc0"/><stop offset="0.57" stop-color="#1e71a7"/><stop offset="0.73" stop-color="#1c5790"/><stop offset="0.88" stop-color="#1b4781"/><stop offset="1" stop-color="#1b427c"/></linearGradient><linearGradient id="linear-gradient-8" x1="687.11" y1="198.11" x2="1012.89" y2="198.11" xlink:href="#linear-gradient"/><linearGradient id="linear-gradient-9" x1="687.11" y1="861.74" x2="1012.89" y2="861.74" xlink:href="#linear-gradient"/><linearGradient id="linear-gradient-10" x1="1125.28" y1="423.37" x2="1303.77" y2="423.37" xlink:href="#linear-gradient-5"/><linearGradient id="linear-gradient-11" x1="1222.91" y1="172.85" x2="1292.32" y2="172.85" xlink:href="#linear-gradient"/><linearGradient id="linear-gradient-12" x1="1426.2" y1="425.14" x2="1691.69" y2="422.14" gradientUnits="userSpaceOnUse"><stop offset="0" stop-color="#fc8409"/><stop offset="0.13" stop-color="#fd921a"/><stop offset="0.39" stop-color="#ffb546"/><stop offset="0.43" stop-color="#ffbb4d"/><stop offset="0.57" stop-color="#ffa134"/><stop offset="0.73" stop-color="#ff871d"/><stop offset="0.88" stop-color="#ff770e"/><stop offset="1" stop-color="#ff7209"/></linearGradient><linearGradient id="linear-gradient-13" x1="1143.61" y1="198.11" x2="1469.39" y2="198.11" xlink:href="#linear-gradient"/><linearGradient id="linear-gradient-14" x1="1143.61" y1="861.74" x2="1469.39" y2="861.74" xlink:href="#linear-gradient"/><linearGradient id="linear-gradient-15" x1="1581.77" y1="423.37" x2="1760.26" y2="423.37" xlink:href="#linear-gradient-5"/></defs><ellipse class="cls-1" cx="658.51" cy="769.34" rx="278.88" ry="32.1"/><ellipse class="cls-2" cx="377.06" cy="762.11" rx="377.06" ry="38.75"/><ellipse class="cls-3" cx="1164.52" cy="769.82" rx="278.88" ry="32.1"/><ellipse class="cls-4" cx="883.07" cy="762.59" rx="377.06" ry="38.75"/><ellipse class="cls-5" cx="1643" cy="767.8" rx="278.88" ry="32.1"/><ellipse class="cls-6" cx="1361.56" cy="760.57" rx="377.06" ry="38.75"/><path class="cls-7" d="M344.62,109.56h0a34.8,34.8,0,0,0-34.7,34.7v63.17a34.8,34.8,0,0,0,34.7,34.7h0a34.8,34.8,0,0,0,34.7-34.7V144.26A34.8,34.8,0,0,0,344.62,109.56Zm0,59.27a20.28,20.28,0,1,1,20.28-20.28A20.28,20.28,0,0,1,344.62,168.83Z" transform="translate(276.97 -106.56)"/><rect class="cls-8" x="507.58" y="113.25" width="325.78" height="626.23"/><path class="cls-9" d="M556.39,219.81H230.61l37.72-29.23a39,39,0,0,1,23.9-8.17H494.78a39,39,0,0,1,23.9,8.17Z" transform="translate(276.97 -106.56)"/><path class="cls-10" d="M230.61,846H556.39l-37.71,29.22a39,39,0,0,1-23.9,8.18H292.23a39,39,0,0,1-23.9-8.18Z" transform="translate(276.97 -106.56)"/><rect class="cls-11" x="670.47" y="113.25" width="162.89" height="626.23"/><path class="cls-12" d="M801.12,106.56h0a34.81,34.81,0,0,0-34.71,34.7v63.17a34.8,34.8,0,0,0,34.71,34.7h0a34.8,34.8,0,0,0,34.7-34.7V141.26A34.81,34.81,0,0,0,801.12,106.56Zm0,59.27a20.28,20.28,0,1,1,20.27-20.28A20.28,20.28,0,0,1,801.12,165.83Z" transform="translate(276.97 -106.56)"/><rect class="cls-13" x="964.07" y="110.25" width="325.78" height="626.23"/><path class="cls-14" d="M1012.89,216.81H687.11l37.71-29.23a39,39,0,0,1,23.9-8.17H951.28a39,39,0,0,1,23.9,8.17Z" transform="translate(276.97 -106.56)"/><path class="cls-15" d="M687.11,843h325.78l-37.71,29.22a39,39,0,0,1-23.9,8.18H748.72a39,39,0,0,1-23.9-8.18Z" transform="translate(276.97 -106.56)"/><rect class="cls-16" x="1126.97" y="110.25" width="162.89" height="626.23"/><path class="cls-17" d="M1257.61,106.56h0a34.81,34.81,0,0,0-34.7,34.7v63.17a34.8,34.8,0,0,0,34.7,34.7h0a34.8,34.8,0,0,0,34.71-34.7V141.26A34.81,34.81,0,0,0,1257.61,106.56Zm0,59.27a20.28,20.28,0,1,1,20.28-20.28A20.28,20.28,0,0,1,1257.61,165.83Z" transform="translate(276.97 -106.56)"/><rect class="cls-18" x="1420.57" y="110.25" width="325.78" height="626.23"/><path class="cls-19" d="M1469.39,216.81H1143.61l37.71-29.23a39,39,0,0,1,23.9-8.17h202.55a39,39,0,0,1,23.9,8.17Z" transform="translate(276.97 -106.56)"/><path class="cls-20" d="M1143.61,843h325.78l-37.72,29.22a39,39,0,0,1-23.9,8.18H1205.22a39,39,0,0,1-23.9-8.18Z" transform="translate(276.97 -106.56)"/><rect class="cls-21" x="1583.46" y="110.25" width="162.89" height="626.23"/></svg>