<?xml version="1.0" encoding="utf-8"?>
<!-- Designed by Vexels.com - 2017 All Rights Reserved - https://vexels.com/terms-and-conditions/  -->

<svg version="1.1" id="Layer_1" xmlns="http://www.w3.org/2000/svg" xmlns:xlink="http://www.w3.org/1999/xlink" x="0px" y="0px"
	 width="1200px" height="1200px" viewBox="0 0 1200 1200" enable-background="new 0 0 1200 1200" xml:space="preserve">
<path fill="#1B1C21" d="M718.642,642.73c1.263-6.855-1.363-12.347,9.605-20.589c10.976-8.21,5.492-24.679,12.332-38.389
	c6.856-13.726,28.792-46.616,30.179-56.229c1.379-9.605,46.639-146.78,60.349-161.861c13.71-10.976,54.849-20.558,78.188-86.408
	c19.187-26.065,83.658-63.107,109.723-119.328c13.718-12.34,56.229,4.121,83.65-28.792c3.943-1.619,6.305-8.691-0.767-8.691
	c-0.782-3.145,6.964-14.989-1.673-14.989c1.805-3.222,0.705-20.294-11.844-5.375c-3.152,3.912-3.95,10.403-10.767,10.76
	c5.5-5.5,1.495-26.531-7.932-23.386c-3.927,3.153,3.943,24.354-10.991,21.999c-10.217-2.363-25.934-2.363-18.064-28.274
	c6.29-14.144,8.621-35.353-2.347-32.998c-5.507,2.363,0,12.557-9.434,24.338c-9.419,11.789-19.644,29.056-24.361,44.78
	c-4.71,15.709-25.911,25.121-40.055,35.338c-14.136,10.217-43.208,14.918-66.779,61.271c-10.983,11.789-24.338,21.208-57.32,47.917
	c2.355-4.709,3.935-14.911,0.774-15.693c-3.129-0.79-3.904-6.297-2.354-8.652c1.58-2.363,2.354-9.435,2.354-9.435
	s7.87-12.564,2.347-16.483c-6.274-2.355-7.831,1.557-14.911-16.499c-7.064-17.273,1.123-19.164-8.288-28.583
	c7.537-12.92-1.673-23.362,0-26.925c2.874-6.096-9.008-18.32-12.912-12.038c-3.951,6.274-3.951,6.274-3.951,6.274l-3.911-11.781
	c0,0-4.71,0.774-4.71,4.709c0,3.943-7.87-0.767-10.217-1.557c-2.362-0.798-10.999-11.007-13.346-10.224
	c-2.37,0.79-1.572,7.869-1.572,7.869l-16.491-9.434l0.774,7.072l-5.491,3.145c0,0-14.137,0-22.789,2.362
	c-8.629,2.347-7.839,1.565-13.346,6.274c-5.5,4.718-13.354,16.499-13.354,16.499s-23.563,6.274-28.281,11.774
	c-4.718,5.507,7.08,0.798,9.434,0.798c2.355,0,8.629,3.137,6.274,3.919c-2.354,0.79-9.403,7.855-10.216,10.217
	c-0.775,2.355,4.717,0.782,7.064,1.565c2.37,0.79,1.588,16.499,1.588,18.846c0,2.37,0,12.579,3.129,17.296
	c3.153,4.71,6.298,8.645,4.71,11.782c-1.557,3.121-14.903-3.935-21.201-3.935c-6.274,0-54.199-9.427-72.263,0
	c-14.927,2.355-43.208,1.557-60.474,7.056c-14.934,3.927-36.128,0-60.496-4.701c-24.338-4.718-83.247,1.556-108.398,6.281
	c-25.14,4.702-67.546,0-74.629,0c-7.061,0-30.628-25.926-54.188-11.789c-4.713,3.935-7.862,7.862-16.495,10.209
	c-8.632,2.363-35.353,35.33-31.426,41.628c3.149,3.942,7.064,3.137,10.217-2.355c3.145-5.492,17.285-16.476,21.208-17.266
	c3.92-0.797,23.579,4.687,21.995,12.564c-1.58,7.855-21.208,10.209-29.857,7.855c-8.633-2.355-21.189,12.579-0.77,12.579
	c20.414,0,58.134-0.798,63.618-3.16c5.492-2.347-12.576,7.087,5.492-2.347c18.071-9.427,32.986-9.443,45.566-7.87
	c12.575,1.58,65.984,16.498,70.694,19.651c4.709,3.153,76.988-2.339,90.327-3.137c13.354-0.798,69.931,6.266,75.423,7.839
	c5.484,1.596,25.918,4.74,29.048,11.022c3.145,6.267-3.92,103.673-7.072,131.962c-3.137,28.281-6.259,20.434-3.137,28.281
	c3.137,7.831-6.267,3.935-4.71,18.846c1.573,14.91-6.29,11.789-5.499,20.426c0.782,8.621-3.928,18.056-3.928,22.766
	c0,4.709-17.265,14.918-13.354,17.289c3.935,2.354-7.846,11.75-6.289,14.911c1.572,3.137-5.5,7.863-5.5,7.863
	s-39.273,7.854-47.127,120.18c-15.709,18.854-21.983,17.289-25.136,29.071c-3.153,11.781-56.562,77.762-61.264,87.197
	c-6.278,3.145-13.346,13.339-30.636,1.557c-17.289-11.781-38.494-32.991-139.034-7.08c-12.579,0.798-19.644,8.668-41.627-3.911
	c-18.079-11.015-36.926-6.298-36.926-6.298c-9.431-1.564-14.144-10.217-20.422-4.717c-6.274,5.515-22.773,14.167-25.132,18.079
	c-2.358,3.927-18.075,1.588-22.792,23.571c-4.714,21.983-6.259,84.835,16.495,73.045c21.216-12.572,43.215-21.976,52.638-23.556
	c9.427-1.595,23.586-3.16,29.842-8.652c6.298-5.484,13.373-11.774,15.728-12.564c2.351-0.79,31.411-7.072,70.69,8.637
	c39.277,15.709,73.049,7.087,88.755,14.926c15.705,7.847,62.836,29.846,91.113,6.282c28.281-23.563,37.708-44.005,57.344-45.57
	c29.853-7.033,47.933,24.361,54.997,12.579c7.064-11.781,29.048-68.335,43.982-79.32c5.507,3.137,50.28,25.113,62.836,32.193
	c12.571,7.065,42.41,30.636,54.989,36.136c8.629,0.79,22.006-13.346,24.353-21.208c6.282-0.79,85.61,4.686,104.463,22.773
	c1.581,158.677,69.916,168.112,56.554,227.013c-1.564,14.144,0,24.345,0.798,33.773c0.782,9.427,13.338,17.297,18.846,29.861
	c4.717,8.629,2.378,21.193,14.926,14.919c12.556-6.29,47.91-27.483,52.611-49.474c6.306-9.427,23.579-14.16,35.354-22.796
	c11.781-8.637,67.568-64.401,30.635-79.32c-6.275-3.161-24.338,4.717-39.273,26.701c-11.774,0.767-31.418-0.775-43.2,11.789
	c-4.709-3.152-16.483-18.861-24.338-18.861c-18.079-14.927-5.081-116.509-32.998-190.894c-3.145-15.701,2.355-44.757-35.338-66.755
	c-28.289-18.846-56.561-40.048-69.141-46.337c-12.579-6.298-55.756-34.579-87.182-48.715
	C727.224,655.016,717.123,650.864,718.642,642.73z"/>
</svg>
