<?xml version="1.0" encoding="iso-8859-1"?>
<!-- Generator: Adobe Illustrator 18.0.0, SVG Export Plug-In . SVG Version: 6.00 Build 0)  -->
<!DOCTYPE svg PUBLIC "-//W3C//DTD SVG 1.1//EN" "http://www.w3.org/Graphics/SVG/1.1/DTD/svg11.dtd">
<svg version="1.1" id="Capa_1" xmlns="http://www.w3.org/2000/svg" xmlns:xlink="http://www.w3.org/1999/xlink" x="0px" y="0px"
	 viewBox="0 0 422.765 422.765" style="enable-background:new 0 0 422.765 422.765;" xml:space="preserve">
<g>
	<path d="M276.503,48.541V0H86.493L7.026,79.467v294.757h139.235v48.541h269.478V48.541H276.503z M82.392,23.899v51.467H30.925
		L82.392,23.899z M21.026,89.366h75.366V14h166.111v346.224H21.026V89.366z M401.739,408.765H160.261v-34.541h209.518v-14h-93.275
		v-15.38h93.275v-14h-93.275v-15.38h93.275v-14h-93.275v-15.38h93.275v-14h-93.275v-15.38h93.275v-14h-93.275v-15.38h93.275v-14
		h-93.275v-42.205h93.275v-14h-93.275V62.541h125.235V408.765z"/>
	<rect x="52.986" y="104.746" width="177.558" height="14"/>
	<rect x="52.986" y="160.951" width="177.558" height="14"/>
	<rect x="52.986" y="190.331" width="177.558" height="14"/>
	<rect x="52.986" y="219.711" width="177.558" height="14"/>
	<rect x="52.986" y="249.091" width="177.558" height="14"/>
	<rect x="52.986" y="278.471" width="177.558" height="14"/>
	<rect x="52.986" y="307.851" width="177.558" height="14"/>
</g>
<g>
</g>
<g>
</g>
<g>
</g>
<g>
</g>
<g>
</g>
<g>
</g>
<g>
</g>
<g>
</g>
<g>
</g>
<g>
</g>
<g>
</g>
<g>
</g>
<g>
</g>
<g>
</g>
<g>
</g>
</svg>
