<?xml version="1.0" encoding="utf-8"?>
<!--Designed by Vexels.com - 2017 All Rights Reserved - https://vexels.com/terms-and-conditions/-->

<svg version="1.1" id="Layer_1" xmlns="http://www.w3.org/2000/svg" xmlns:xlink="http://www.w3.org/1999/xlink" x="0px" y="0px"
	 width="1200px" height="1200px" viewBox="0 0 1200 1200" enable-background="new 0 0 1200 1200" xml:space="preserve">
<g>
	<g>
		<path fill="#FAA423" d="M994.13,158.276v961.428c0,16.665-13.631,30.296-30.296,30.296H236.166
			c-16.665,0-30.296-13.631-30.296-30.296V158.276c0-16.66,13.631-30.296,30.296-30.296h204.947c0,0.549-0.028,1.122-0.028,1.695
			v58.894H296.758c-16.665,0-30.296,13.635-30.296,30.3v840.242c0,16.667,13.631,30.3,30.296,30.3h606.483
			c16.665,0,30.297-13.633,30.297-30.3V218.869c0-16.665-13.632-30.3-30.297-30.3H758.914v-58.894c0-0.573-0.027-1.146-0.027-1.695
			h204.947C980.499,127.98,994.13,141.616,994.13,158.276z"/>
		<path fill="none" d="M442.054,127.98l-0.968,60.589v-58.894c0-0.573,0.028-1.146,0.028-1.695H442.054z"/>
		<path fill="none" d="M758.914,129.676v58.894l-0.725-60.589h0.697C758.887,128.529,758.914,129.103,758.914,129.676z"/>
	</g>
	<path fill="#12B36A" d="M758.914,188.569v10.422c0,16.666-13.631,30.297-30.296,30.297H471.381
		c-16.665,0-30.296-13.631-30.296-30.297v-10.422l0.968-60.589h-0.94c0.913-15.876,14.178-28.597,30.268-28.597h257.237
		c16.091,0,29.355,12.721,30.269,28.597h-0.697L758.914,188.569z"/>
	<path fill="none" d="M441.113,127.98h0.94l-0.968,60.589v-58.894C441.085,129.103,441.113,128.529,441.113,127.98z"/>
	<path fill="none" d="M758.914,129.676v58.894l-0.725-60.589h0.697C758.887,128.529,758.914,129.103,758.914,129.676z"/>
	<path fill="#12B36A" d="M674.814,99.384H525.186C525.339,72.087,558.783,50,600.016,50C641.245,50,674.66,72.087,674.814,99.384z"
		/>
	<path fill="#60C3AD" d="M525.186,312.119v168.045c0,16.663-13.631,30.292-30.296,30.292H369.162
		c-16.661,0-30.292-13.629-30.292-30.292V312.119c0-16.661,13.631-30.3,30.292-30.3H494.89
		C511.555,281.819,525.186,295.458,525.186,312.119z"/>
	<path fill="#414045" d="M854.137,400.49c0,12.965-13.639,23.565-30.3,23.565H614.193c-16.661,0-30.296-10.601-30.296-23.565
		c0-12.94,13.635-23.542,30.296-23.542h209.644C840.498,376.948,854.137,387.55,854.137,400.49z"/>
	<path fill="#414045" d="M851.074,602.744c0,12.933-13.635,23.538-30.3,23.538H374.525c-16.665,0-30.296-10.605-30.296-23.538
		c0-12.973,13.631-23.545,30.296-23.545h446.249C837.439,579.199,851.074,589.771,851.074,602.744z"/>
	<path fill="#414045" d="M851.074,690.962c0,12.969-13.635,23.541-30.3,23.541H374.525c-16.665,0-30.296-10.572-30.296-23.541
		c0-12.938,13.631-23.54,30.296-23.54h446.249C837.439,667.422,851.074,678.024,851.074,690.962z"/>
	<path fill="#414045" d="M851.074,779.185c0,12.965-13.635,23.566-30.3,23.566H374.525c-16.665,0-30.296-10.602-30.296-23.566
		c0-12.94,13.631-23.537,30.296-23.537h446.249C837.439,755.647,851.074,766.244,851.074,779.185z"/>
	<path fill="#414045" d="M851.074,867.433c0,12.939-13.635,23.537-30.3,23.537H374.525c-16.665,0-30.296-10.598-30.296-23.537
		c0-12.965,13.631-23.57,30.296-23.57h446.249C837.439,843.862,851.074,854.468,851.074,867.433z"/>
	<path fill="#FFFFFF" d="M903.241,188.569H758.914v10.422c0,16.666-13.631,30.297-30.296,30.297H471.381
		c-16.665,0-30.296-13.631-30.296-30.297v-10.422H296.758c-16.665,0-30.296,13.635-30.296,30.3v840.242
		c0,16.667,13.631,30.3,30.296,30.3h606.483c16.665,0,30.297-13.633,30.297-30.3V218.869
		C933.538,202.204,919.906,188.569,903.241,188.569z M338.871,312.119c0-16.661,13.631-30.3,30.292-30.3H494.89
		c16.665,0,30.296,13.639,30.296,30.3v168.045c0,16.663-13.631,30.292-30.296,30.292H369.162c-16.661,0-30.292-13.629-30.292-30.292
		V312.119z M820.774,979.194H374.525c-16.665,0-30.296-10.607-30.296-23.537c0-12.969,13.631-23.576,30.296-23.576h446.249
		c16.665,0,30.3,10.607,30.3,23.576C851.074,968.587,837.439,979.194,820.774,979.194z M820.774,890.97H374.525
		c-16.665,0-30.296-10.598-30.296-23.537c0-12.965,13.631-23.57,30.296-23.57h446.249c16.665,0,30.3,10.605,30.3,23.57
		C851.074,880.372,837.439,890.97,820.774,890.97z M820.774,802.751H374.525c-16.665,0-30.296-10.602-30.296-23.566
		c0-12.94,13.631-23.537,30.296-23.537h446.249c16.665,0,30.3,10.597,30.3,23.537C851.074,792.149,837.439,802.751,820.774,802.751z
		 M820.774,714.503H374.525c-16.665,0-30.296-10.572-30.296-23.541c0-12.938,13.631-23.54,30.296-23.54h446.249
		c16.665,0,30.3,10.603,30.3,23.54C851.074,703.931,837.439,714.503,820.774,714.503z M820.774,626.282H374.525
		c-16.665,0-30.296-10.605-30.296-23.538c0-12.973,13.631-23.545,30.296-23.545h446.249c16.665,0,30.3,10.572,30.3,23.545
		C851.074,615.677,837.439,626.282,820.774,626.282z M823.837,424.056H614.193c-16.661,0-30.296-10.601-30.296-23.565
		c0-12.94,13.635-23.542,30.296-23.542h209.644c16.661,0,30.3,10.602,30.3,23.542C854.137,413.455,840.498,424.056,823.837,424.056z
		"/>
	<path fill="#414045" d="M851.074,955.657c0,12.93-13.635,23.537-30.3,23.537H374.525c-16.665,0-30.296-10.607-30.296-23.537
		c0-12.969,13.631-23.576,30.296-23.576h446.249C837.439,932.081,851.074,942.688,851.074,955.657z"/>
</g>
</svg>
