<?xml version="1.0" encoding="utf-8"?>
<!-- Generator: Adobe Illustrator 23.0.6, SVG Export Plug-In . SVG Version: 6.00 Build 0)  -->
<svg version="1.1" id="Layer_1" xmlns="http://www.w3.org/2000/svg" xmlns:xlink="http://www.w3.org/1999/xlink" x="0px" y="0px"
	 viewBox="0 0 1200 1200" enable-background="new 0 0 1200 1200" xml:space="preserve">
<g>
	<g>
		<path fill="#C97435" d="M392.267,1129.142c11.021-35.214,22.042-70.429,33.064-105.643
			c11.021-35.214,22.042-70.429,33.063-105.644c13.286,4.116,27.072,6.199,41.03,7.207c13.958,1.008,28.087,0.94,42.057,0.754
			c39.891-0.532,79.774-1.611,119.636-3.211c39.862-1.6,79.704-3.721,119.513-6.337c11.104,35.479,22.208,70.958,33.312,106.437
			c11.104,35.479,22.208,70.958,33.312,106.437c13.095,19.735,27.8,24.678,38.097,18.134s16.185-24.578,11.645-50.798
			c-5.169-29.859-63.102-213.804-123.799-392.422c-60.697-178.619-124.16-351.911-140.389-360.466
			c-0.808-0.426-1.593-0.821-2.355-1.186c-0.762-0.365-1.502-0.7-2.22-1.007c-0.964-0.964-2.141-1.662-3.548-2.069
			c-1.407-0.407-3.043-0.523-4.925-0.322c-1.881-0.201-3.518-0.085-4.925,0.322c-1.407,0.407-2.584,1.106-3.548,2.069
			c-0.718,0.306-1.458,0.642-2.22,1.007c-0.762,0.365-1.547,0.76-2.355,1.186c-16.229,8.554-79.692,181.847-140.389,360.466
			s-118.63,362.563-123.8,392.422c-4.539,26.22,1.349,44.253,11.645,50.798S379.172,1148.877,392.267,1129.142z M469.887,881.133
			c23.195-74.115,46.39-148.23,69.586-222.345c23.196-74.115,46.392-148.23,69.589-222.344c0.934-2.984,2.498-7.319,4.384-12.522
			s4.093-11.273,6.314-17.73c2.221,6.457,4.428,12.528,6.314,17.73c1.886,5.203,3.45,9.537,4.384,12.522
			c23.28,74.378,46.559,148.757,69.837,223.135s46.556,148.758,69.834,223.136c-42.016,1.041-104.821-0.263-163.249-1.373
			C548.452,880.233,494.399,879.317,469.887,881.133z"/>
	</g>
	<path fill="#AD5A21" d="M342.524,1096.478c5.169-29.859,63.102-213.804,123.8-392.422s124.16-351.911,140.389-360.466
		c0.808-0.426,1.593-0.821,2.355-1.186c0.762-0.365,1.502-0.7,2.22-1.007c0.964-0.964,2.141-1.662,3.548-2.069
		c1.407-0.407,3.043-0.523,4.925-0.322c1.881-0.201,3.518-0.085,4.925,0.322c1.407,0.407,2.584,1.106,3.548,2.069
		c0.718,0.306,1.458,0.642,2.22,1.007c0.762,0.365,1.547,0.76,2.355,1.186c3.55,1.871,9.359,11.623,16.904,27.588
		c7.546,15.965,16.828,38.142,27.323,64.865c-5.875,7.107-11.567,14.287-17.08,21.538c-5.513,7.251-10.848,14.573-16.008,21.965
		c-2.248-7.183-4.496-14.367-6.744-21.55c-2.248-7.183-4.496-14.367-6.745-21.55c-0.934-2.984-2.498-7.319-4.384-12.522
		s-4.093-11.273-6.314-17.73c-2.221,6.457-4.428,12.528-6.314,17.73s-3.45,9.537-4.384,12.522
		c-23.197,74.114-46.394,148.229-69.589,222.344c-23.196,74.115-46.391,148.23-69.586,222.345c3.435-0.255,7.467-0.454,12.01-0.607
		c4.543-0.153,9.597-0.259,15.076-0.327c-1.259,7.305-2.482,14.622-3.672,21.951c-1.19,7.328-2.348,14.668-3.477,22.016
		c-5.336-0.598-10.636-1.384-15.881-2.416c-5.245-1.032-10.434-2.311-15.548-3.896c-11.021,35.215-22.042,70.429-33.063,105.644
		c-11.021,35.214-22.043,70.429-33.064,105.643c-13.095,19.735-27.8,24.678-38.097,18.134S337.985,1122.698,342.524,1096.478z"/>
	<g>
		<g>
			<g>
				<g>
					<path fill="#AD5A21" d="M166.517,336.395c28.927-7.522,59.464-20.728,89.308-35.903s58.997-32.32,85.154-47.721
						c0.017,0.792,0.067,1.59,0.153,2.391s0.208,1.607,0.369,2.415c4.109,20.664,9.302,41.112,15.547,61.234
						s13.542,39.916,21.86,59.273c0.373,0.868,0.751,1.739,1.141,2.605c0.39,0.866,0.793,1.728,1.216,2.577
						c-34.276-2.758-67.286-1.75-100.495-0.38c-33.209,1.37-66.618,3.101-101.694,1.788c-6.595-8.422-10.096-15.231-11.767-22.565
						C165.638,354.776,165.796,346.916,166.517,336.395z"/>
					<path fill="#C97435" d="M341.502,257.577c-0.161-0.808-0.283-1.613-0.369-2.415s-0.136-1.599-0.153-2.391
						c-0.155-7.148,2.506-13.847,7.059-18.872c4.553-5.026,10.999-8.378,18.415-8.834c11.252-0.692,22.485-1.847,33.699-3.234
						c11.213-1.387,22.406-3.004,33.576-4.621c46.485-6.727,113.182-23.277,178.147-39.476s128.197-32.046,167.751-37.366
						c1.56,29.245,4.912,58.394,10.018,87.232s11.966,57.365,20.544,85.368c0.015,0.05,0.031,0.1,0.047,0.15
						c0.016,0.05,0.031,0.1,0.047,0.15c-58.268,11.144-143.64,30.917-219.829,48.631c-76.188,17.714-143.194,33.37-164.728,36.281
						c-6.827,0.923-14.218,1.663-21.098,0.931s-13.246-2.935-18.023-7.898c-1.113-1.157-2.088-2.422-2.964-3.758
						s-1.654-2.744-2.372-4.187c-0.423-0.85-0.826-1.711-1.216-2.577c-0.39-0.866-0.768-1.737-1.141-2.605
						c-8.318-19.357-15.616-39.152-21.86-59.273S345.611,278.241,341.502,257.577z"/>
				</g>
				<path fill="#AD5A21" d="M779.626,140.369c-0.004-0.075-0.009-0.151-0.014-0.226s-0.01-0.151-0.014-0.226
					c-0.172-3.272-0.26-6.73,0.247-9.977s1.606-6.282,3.808-8.709c1.609-1.773,3.633-3.014,5.833-3.97
					c2.2-0.956,4.574-1.627,6.883-2.258c7.293-1.995,14.586-3.99,21.879-5.984c7.293-1.995,14.586-3.99,21.879-5.984
					c4.841,38.448,10.442,76.801,16.802,115.027c6.36,38.226,13.477,76.326,21.349,114.27c-4.838,0.865-9.676,1.73-14.514,2.595
					c-4.838,0.865-9.676,1.73-14.514,2.595c-4.042,0.723-8.259,1.421-12.375,1.46c-4.115,0.039-8.129-0.58-11.762-2.493
					c-4.177-2.199-7.189-5.743-9.505-9.868c-2.316-4.124-3.936-8.83-5.328-13.351c-0.015-0.05-0.031-0.1-0.047-0.15
					c-0.016-0.05-0.031-0.1-0.047-0.15c-8.578-28.002-15.438-56.53-20.544-85.368S781.186,169.614,779.626,140.369z"/>
				<path fill="#C97435" d="M838.858,92.896c-0.269-2.197-0.508-4.51-0.361-6.725c0.148-2.215,0.682-4.333,1.961-6.14
					c1.046-1.478,2.472-2.57,4.062-3.443c1.591-0.873,3.347-1.528,5.054-2.133c14.396-5.104,34.817-12.037,55.516-17.217
					s41.673-8.609,57.175-6.705c2.732,0.336,5.054,0.911,7.029,1.695c1.975,0.784,3.604,1.776,4.951,2.945
					c-7.407-2.997-11.556,4.195-13.62,13.819s-2.043,21.682-1.11,28.417c2.477,17.878,5.694,35.72,9.103,53.531
					c3.409,17.811,7.011,35.592,10.258,53.348c3.47,18.98,6.718,37.921,10.837,56.646c4.119,18.725,9.11,37.233,16.068,55.347
					c0.871,2.267,1.83,4.555,3.038,6.664c1.208,2.109,2.666,4.039,4.534,5.59c1.703,1.415,3.837,2.412,6.024,2.804
					c2.187,0.392,4.427,0.179,6.344-0.827c-1.207,2.252-3.143,3.988-5.392,5.391c-2.249,1.403-4.81,2.474-7.267,3.398
					c-18.303,6.879-37.22,12.114-56.45,15.654s-38.771,5.387-58.323,5.491c-4.088,0.022-7.907-1.396-10.918-3.819
					c-3.01-2.423-5.211-5.851-6.062-9.849c-0.512-2.406-1.02-4.813-1.525-7.221c-0.505-2.408-1.007-4.816-1.507-7.225
					c-7.872-37.944-14.989-76.044-21.349-114.27c-6.359-38.226-11.961-76.579-16.802-115.027c-0.213-1.69-0.427-3.379-0.639-5.069
					C839.276,96.276,839.065,94.586,838.858,92.896z"/>
			</g>
			<g>
				<g>
					<path fill="#AD5A21" d="M176.301,333.648c13.214-3.951,26.703-8.978,40.256-14.736c13.553-5.758,27.169-12.248,40.637-19.127
						c13.284-3.096,26.464-6.672,39.59-10.714c13.126-4.043,26.197-8.553,39.262-13.519c1.832-0.638,3.431-1.355,4.801-2.157
						c1.37-0.802,2.512-1.689,3.43-2.665c3.221,14.499,6.975,28.879,11.254,43.101c4.279,14.222,9.081,28.287,14.399,42.154
						c-32.79,0.915-65.486-0.085-97.84-3.606C239.735,348.857,207.723,342.815,176.301,333.648z"/>
					<path fill="#C97435" d="M257.194,299.785c14.683-7.499,29.19-15.461,43.246-23.444c14.056-7.983,27.661-15.987,40.54-23.569
						c0.017,0.792,0.067,1.59,0.153,2.391s0.208,1.607,0.369,2.415c0.437,2.197,0.888,4.392,1.351,6.584s0.938,4.381,1.424,6.568
						c-0.918,0.976-2.06,1.863-3.43,2.665c-1.37,0.802-2.969,1.52-4.801,2.157c-13.065,4.966-26.136,9.477-39.262,13.519
						C283.658,293.113,270.477,296.689,257.194,299.785z"/>
					<path fill="#9B4912" d="M176.301,333.648c31.422,9.168,63.434,15.209,95.788,18.73c32.354,3.521,65.05,4.521,97.84,3.606
						c1.424,3.713,2.884,7.411,4.38,11.095c1.497,3.684,3.03,7.353,4.6,11.006c0.373,0.868,0.751,1.739,1.141,2.605
						c0.39,0.866,0.793,1.728,1.216,2.577c-34.276-2.758-67.286-1.75-100.495-0.38c-33.209,1.37-66.618,3.101-101.694,1.788
						c-6.595-8.422-10.096-15.231-11.767-22.565c-1.672-7.334-1.514-15.194-0.792-25.715c1.621-0.421,3.247-0.863,4.878-1.322
						C173.026,334.614,174.662,334.138,176.301,333.648z"/>
					<path fill="#E09354" d="M341.502,257.577c-0.161-0.808-0.283-1.613-0.369-2.415s-0.136-1.599-0.153-2.391
						c-0.155-7.148,2.506-13.847,7.059-18.872c4.553-5.026,10.999-8.378,18.415-8.834c11.252-0.692,22.485-1.847,33.699-3.234
						c11.213-1.387,22.406-3.004,33.576-4.621c46.485-6.727,113.182-23.277,178.147-39.476s128.197-32.046,167.751-37.366
						c0.085,1.599,0.177,3.198,0.275,4.796c0.097,1.598,0.2,3.196,0.307,4.794c-0.449,0.989-0.9,1.915-1.317,2.609
						c-0.418,0.695-0.802,1.159-1.119,1.227c-85.452,13.955-151.386,30.567-217.137,48.039S429.316,237.637,344.6,255.029
						c1.678,3.425,2.48,6.412,2.42,9.012c-0.059,2.6-0.979,4.812-2.744,6.689c-0.486-2.187-0.961-4.376-1.424-6.568
						S341.939,259.775,341.502,257.577z"/>
					<path fill="#AD5A21" d="M589.218,327.836c35.419-8.036,70.541-16.756,105.569-25.674c35.028-8.917,69.96-18.031,104.998-26.854
						c1.566,6.322,3.213,12.623,4.945,18.901s3.55,12.532,5.457,18.759c0.015,0.05,0.031,0.1,0.047,0.15
						c0.016,0.05,0.031,0.1,0.047,0.15c-58.268,11.144-143.64,30.917-219.829,48.631c-76.188,17.714-143.194,33.37-164.728,36.281
						c-6.827,0.923-14.218,1.663-21.098,0.931s-13.246-2.935-18.023-7.898c-1.113-1.157-2.088-2.422-2.964-3.758
						s-1.654-2.744-2.372-4.187c-0.423-0.85-0.826-1.711-1.216-2.577c-0.39-0.866-0.768-1.737-1.141-2.605
						c-1.57-3.653-3.103-7.322-4.6-11.006c-1.497-3.684-2.957-7.382-4.38-11.095c48.852-1.364,80.478-3.246,111.49-7.364
						C512.429,344.501,542.826,338.146,589.218,327.836z"/>
				</g>
				<path fill="#9B4912" d="M878.278,332.332c-4.838,0.865-9.676,1.73-14.514,2.595c-4.838,0.865-9.676,1.73-14.514,2.595
					c-4.042,0.723-8.259,1.421-12.375,1.46c-4.115,0.039-8.129-0.58-11.762-2.493c-4.177-2.199-7.189-5.743-9.505-9.868
					c-2.316-4.124-3.936-8.83-5.328-13.351c-0.015-0.05-0.031-0.1-0.047-0.15c-0.016-0.05-0.031-0.1-0.047-0.15
					c-1.907-6.227-3.725-12.481-5.457-18.759s-3.379-12.579-4.945-18.901c10.704-2.696,21.42-5.362,32.151-7.987
					c10.731-2.625,21.478-5.208,32.245-7.739c2.202,12.153,4.472,24.294,6.819,36.42
					C873.345,308.127,875.769,320.238,878.278,332.332z"/>
				<path fill="#C97435" d="M779.598,139.917c-0.172-3.272-0.26-6.73,0.247-9.977s1.606-6.282,3.808-8.709
					c1.609-1.773,3.633-3.014,5.833-3.97c2.2-0.956,4.574-1.627,6.883-2.258c7.293-1.995,14.586-3.99,21.879-5.984
					c7.293-1.995,14.586-3.99,21.879-5.984c0.412,3.275,0.83,6.55,1.254,9.824c0.424,3.274,0.853,6.547,1.288,9.82
					c-4.237,8.719-14.773,10.712-26.455,12.203s-24.51,2.481-33.332,9.193c-0.292,0.45-0.698,1.342-1.162,2.411
					c-0.465,1.069-0.988,2.315-1.513,3.473c-0.107-1.598-0.21-3.196-0.307-4.794c-0.097-1.598-0.19-3.197-0.275-4.796
					c-0.004-0.075-0.009-0.151-0.014-0.226S779.602,139.992,779.598,139.917z"/>
				<path fill="#AD5A21" d="M983.198,228.08c2.748,14.959,5.643,29.847,9.226,44.577c3.583,14.73,7.855,29.3,13.356,43.624
					c0.871,2.267,1.83,4.555,3.038,6.664c1.208,2.109,2.666,4.039,4.534,5.59c1.703,1.415,3.837,2.412,6.024,2.804
					c2.187,0.392,4.427,0.179,6.344-0.827c-1.207,2.252-3.143,3.988-5.392,5.391c-2.249,1.403-4.81,2.474-7.267,3.398
					c-18.303,6.879-37.22,12.114-56.45,15.654s-38.771,5.387-58.323,5.491c-4.088,0.022-7.907-1.396-10.918-3.819
					c-3.01-2.423-5.211-5.851-6.062-9.849c-0.512-2.406-1.02-4.813-1.525-7.221c-0.505-2.408-1.007-4.816-1.507-7.225
					c-2.509-12.093-4.932-24.204-7.279-36.33c-2.347-12.126-4.617-24.266-6.819-36.42c8.576-2.016,17.163-4,25.767-5.943
					s17.224-3.843,25.866-5.691c11.472-2.453,22.856-5.315,34.103-8.616S972.273,232.29,983.198,228.08z"/>
				<path fill="#E09354" d="M838.858,92.896c-0.269-2.197-0.508-4.51-0.361-6.725c0.148-2.215,0.682-4.333,1.961-6.14
					c1.046-1.478,2.472-2.57,4.062-3.443c1.591-0.873,3.347-1.528,5.054-2.133c14.396-5.104,34.817-12.037,55.516-17.217
					s41.673-8.609,57.175-6.705c2.732,0.336,5.054,0.911,7.029,1.695c1.975,0.784,3.604,1.776,4.951,2.945
					c-6.108-2.471-10,1.985-12.334,9.02s-3.11,16.65-2.987,24.496c-19.053,2.806-38.304,5.967-57.473,9.427
					s-38.253,7.219-56.973,11.221c0.259,2.836,0.213,5.336-0.101,7.544c-0.314,2.208-0.896,4.126-1.708,5.797
					c-0.435-3.272-0.864-6.546-1.288-9.82c-0.424-3.274-0.842-6.549-1.254-9.824c-0.213-1.69-0.427-3.379-0.639-5.069
					C839.276,96.276,839.065,94.586,838.858,92.896z"/>
			</g>
			<path fill="#6BC3CE" d="M1013.353,328.535c-1.868-1.551-3.326-3.481-4.534-5.59c-1.208-2.109-2.167-4.397-3.038-6.664
				c-6.957-18.113-11.948-36.622-16.068-55.347c-4.119-18.725-7.367-37.666-10.837-56.646c-3.247-17.755-6.848-35.536-10.258-53.348
				c-3.409-17.812-6.626-35.654-9.103-53.531c-0.933-6.735-0.954-18.793,1.11-28.417s6.213-16.816,13.62-13.819
				c1.367,0.553,2.845,1.453,4.442,2.749c1.597,1.296,3.311,2.988,5.152,5.125c5.989,6.957,10.724,14.805,14.684,23.092
				s7.146,17.012,10.037,25.725c10.94,32.968,18.395,67.083,22.281,101.601c3.886,34.517,4.202,69.436,0.865,104.011
				c-0.22,2.278-0.528,4.688-1.241,6.871c-0.713,2.183-1.83,4.137-3.666,5.503c-0.172,0.128-0.349,0.245-0.529,0.355
				c-0.18,0.11-0.364,0.212-0.549,0.309c-1.917,1.006-4.157,1.219-6.344,0.827C1017.19,330.947,1015.056,329.95,1013.353,328.535z"
				/>
		</g>
		<path fill="#53B5BC" d="M959.518,75.929c7.611,8.306,14.021,17.612,19.468,27.478s9.93,20.292,13.687,30.838
			c4.219,11.844,7.592,23.976,10.311,36.26c2.719,12.284,4.784,24.719,6.39,37.169c1.568,12.164,2.683,24.385,3.404,36.63
			s1.049,24.514,1.043,36.776c-0.003,5.391-0.072,10.782-0.209,16.171s-0.343,10.776-0.619,16.16c-0.12,2.349-0.241,4.7-0.362,7.052
			c-0.121,2.352-0.244,4.706-0.37,7.059c-1.53-1.524-2.76-3.317-3.802-5.238c-1.042-1.921-1.897-3.969-2.678-6.003
			c-6.957-18.113-11.948-36.622-16.068-55.347c-4.119-18.725-7.367-37.666-10.837-56.646c-3.247-17.755-6.848-35.536-10.258-53.348
			c-3.409-17.812-6.626-35.654-9.103-53.531c-0.359-2.593-0.583-5.974-0.605-9.701C958.888,83.98,959.069,79.906,959.518,75.929z"/>
	</g>
	<path fill="#EFB73A" d="M601.678,404.981c-41.842-9.356-53.847-44.415-45.452-76.471c8.395-32.056,37.189-61.11,76.947-58.453
		c48.092,3.214,62.143,41.847,53.209,77.226C677.448,382.662,645.528,414.786,601.678,404.981z"/>
	<path fill="#D39822" d="M640.655,357.504c-2.667,3.282-6.366,6.248-10.598,8.21s-8.998,2.921-13.8,2.189
		c-2.816-0.429-5.414-1.402-7.779-2.702c-2.364-1.3-4.494-2.926-6.372-4.66c-2.932-2.709-5.391-5.743-7.306-8.984
		c-1.915-3.241-3.287-6.687-4.045-10.221c-0.68-3.171-0.854-6.447-0.396-9.644s1.547-6.316,3.392-9.174c0,0,0,0,0,0c0,0,0,0,0,0
		c3.918-6.069,11.775-9.907,20.259-11.068c8.484-1.161,17.595,0.355,24.021,4.995c6.58,4.751,9.435,12.311,9.545,20.035
		S645.053,352.092,640.655,357.504z"/>
</g>
</svg>
