<?xml version="1.0" encoding="utf-8"?>
<!-- Designed by Vexels.com - 2019 All Rights Reserved - https://vexels.com/terms-and-conditions/  -->
<svg version="1.1" id="Layer_1" xmlns="http://www.w3.org/2000/svg" xmlns:xlink="http://www.w3.org/1999/xlink" x="0px" y="0px"
	 viewBox="0 0 1200 1200" enable-background="new 0 0 1200 1200" xml:space="preserve">
<path fill="#2D7F75" d="M570.725,406.97v207.993c-30.89,11.603-53.316,40.878-54.629,75.393c-0.042,1.064-0.082,2.129-0.082,3.202
	v372.457c0,10.086,1.803,19.771,5.101,28.75C532.921,1126.908,563.893,1150,600,1150c36.104,0,67.079-23.092,78.883-55.235
	c3.298-8.978,5.1-18.664,5.1-28.75V693.557c0-1.073-0.042-2.138-0.081-3.202c-1.314-34.515-23.738-63.791-54.629-75.393V406.97
	c90.403-14.113,159.799-92.498,159.799-186.798V85.307c0-19.498-15.809-35.307-35.307-35.307s-35.306,15.809-35.306,35.307v134.865
	c0,53.03-35.024,98.028-83.154,113.086V85.307C635.307,65.809,619.498,50,600,50c-19.498,0-35.307,15.809-35.307,35.307v247.951
	c-48.13-15.058-83.153-60.056-83.153-113.086V85.307c0-19.498-15.81-35.307-35.307-35.307c-19.497,0-35.307,15.809-35.307,35.307
	v134.865C410.926,314.471,480.324,392.856,570.725,406.97z"/>
</svg>
