<?xml version="1.0" encoding="windows-1252"?>
<!-- Generator: Adobe Illustrator 16.0.0, SVG Export Plug-In . SVG Version: 6.00 Build 0)  -->
<!DOCTYPE svg PUBLIC "-//W3C//DTD SVG 1.1//EN" "http://www.w3.org/Graphics/SVG/1.1/DTD/svg11.dtd">
<svg version="1.1" id="Capa_1" xmlns="http://www.w3.org/2000/svg" xmlns:xlink="http://www.w3.org/1999/xlink" x="0px" y="0px" width="354.355px" height="354.355px" viewBox="0 0 354.355 354.355" style="enable-background:new 0 0 354.355 354.355;" xml:space="preserve">
<g>
	<path d="M297.842,246.044c-0.089-1.293-0.159-2.568-0.298-3.903c-0.939-9.734,5.452-12.777,11.568-16.826   c3.437-2.276,4.708-5.253,4.344-9.259c-1.115-12.477-27.021-20.783-17.291-33.79h29.79V0H40.593v49.943h18.75V14.061h247.865   v152.572H59.343v-48.793h-18.75v64.427h108.312v14.136c-23.761,1.191-40.063,3.621-40.063,6.423c0,3.978,32.852,7.202,73.396,7.202   c40.537,0,73.401-3.218,73.401-7.202c0-2.725-15.344-5.087-37.986-6.314v-14.237h72.493c-3.73,8.486,2.606,16.666,10.016,24.081   c3.018,3.038,12.452,10.38,4.408,15.696c-3.272,2.158-5.948,3.954-8.46,7.013c-4.147,5.051-3.918,10.982-3.567,16.981H15.077   v108.311h336.399V246.044H297.842z M338.978,341.857H27.578v-83.316h311.399V341.857z M63.507,284.051H46.32V266.87h17.188V284.051   z M90.845,284.051h-17.18V266.87h17.18V284.051z M118.963,284.051h-17.182V266.87h17.182V284.051z M146.301,284.051h-17.178V266.87   h17.178V284.051z M175.202,284.051h-17.18V266.87h17.18V284.051z M202.54,284.051h-17.183V266.87h17.183V284.051z M230.671,284.051   h-17.191V266.87h17.191V284.051z M258.01,284.051h-17.188V266.87h17.188V284.051z M51.783,308.785H34.61v-17.183h17.173V308.785z    M79.128,308.785H61.943v-17.183h17.178v17.183H79.128z M107.246,308.785H90.061v-17.183h17.185V308.785z M134.583,308.785h-17.18   v-17.183h17.18V308.785z M163.486,308.785h-17.185v-17.183h17.185V308.785z M190.83,308.785h-17.19v-17.183h17.19V308.785z    M218.944,308.785H201.77v-17.183h17.175V308.785z M246.282,308.785h-17.176v-17.183h17.176V308.785z M307.941,308.785h-17.183   v-17.183h17.183V308.785z M305.911,314.513h17.177v17.183h-17.177V314.513z M276.232,314.513h17.188v17.183h-17.188V314.513z    M40.454,317.638h17.185v17.182H40.454V317.638z M67.798,317.638H84.99v17.182H67.798V317.638z M95.926,317.638h17.18v17.182   h-17.18V317.638z M123.258,317.638h17.188v17.182h-17.188V317.638z M152.167,317.638h17.174v17.182h-17.174V317.638z    M179.5,317.638h17.185v17.182H179.5V317.638z M207.625,317.638h17.174v17.182h-17.174V317.638z M234.958,317.638h17.188v17.182   h-17.188V317.638z M299.976,264.292h-26.202v9.461h26.202V264.292z M298.715,272.488h-23.677v-6.943h23.688v6.943H298.715z    M331.483,264.292h-26.19v9.461h26.19V264.292z M330.229,272.488h-23.697v-6.943h23.697V272.488z M77.89,23.962   c1.065-0.807,2.534-0.802,3.598,0.017l72.726,55.916c0.738,0.553,1.17,1.422,1.17,2.347c0,0.926-0.433,1.792-1.16,2.348   l-72.731,55.92c-0.528,0.403-1.17,0.605-1.805,0.605c-0.626,0-1.261-0.197-1.786-0.594c-1.06-0.801-1.464-2.218-0.976-3.453   l14.631-37.026H5.843c-1.642,0-2.965-1.327-2.965-2.958V67.409c0-1.642,1.323-2.971,2.965-2.971h85.708L76.922,27.412   C76.427,26.173,76.831,24.761,77.89,23.962z"/>
</g>
<g>
</g>
<g>
</g>
<g>
</g>
<g>
</g>
<g>
</g>
<g>
</g>
<g>
</g>
<g>
</g>
<g>
</g>
<g>
</g>
<g>
</g>
<g>
</g>
<g>
</g>
<g>
</g>
<g>
</g>
</svg>