<?xml version="1.0" encoding="utf-8"?>
<!-- Designed by Vexels.com - 2018 All Rights Reserved - https://vexels.com/terms-and-conditions/  -->
<svg version="1.1" id="Layer_1" xmlns="http://www.w3.org/2000/svg" xmlns:xlink="http://www.w3.org/1999/xlink" x="0px" y="0px"
	 viewBox="0 0 1200 1200" enable-background="new 0 0 1200 1200" xml:space="preserve">
<g>
	<path fill="#232323" d="M1037.305,442.943C895.885,313.303,754.45,183.677,613.017,54.049c-4.991-4.574-12.62-5.818-18.017-0.87
		c-44.43,40.734-88.86,81.468-133.29,122.202c1.935-22.861,2.253-45.658,0.837-68.81c-0.204-3.35-3.514-5.977-6.669-6.177
		c-30.301-1.92-58.542,12.571-89.478,11.048c-4.773-0.235-8.082,4.281-7.822,8.697c2.95,50.208-2.712,100.756-1.465,151.136
		c-30.177,27.667-60.355,55.334-90.531,83.001c-18.245,16.728-36.491,33.456-54.736,50.183
		c-11.383,10.437-28.044,33.274-42.842,36.394c-15.984,3.369-11.342,27.911,4.698,24.529c5.402-1.139,9.974-3.25,14.174-5.892
		c26.824-0.735,53.645-1.444,80.463-2.405c10.972,206.311,18.255,412.853,25.249,619.331c0.702,20.72,1.398,41.44,2.065,62.161
		c0.177,5.498,5.631,9.447,10.732,9.449c178.788,0.06,357.561,0.907,536.345,1.529c27.067,0.094,54.134,0.38,81.202,0.443
		c6.196,0.015,12.774-4.876,12.563-11.599c-5.771-184.001-9.574-368.651-3.83-552.682c0.903-28.941,2.118-57.883,4.151-86.769
		c0.392-5.553,0.714-11.127,1.276-16.666c1.662-16.393,11.69-18.323,26.955-18.445c20.692-0.165,41.359,0.564,62.055,0.188
		C1037.027,463.847,1046.199,451.096,1037.305,442.943z M437.961,197.155c0.293-0.372,0.597-0.726,0.89-1.1
		c2.483-3.173,2.379-6.722,0.884-9.513c1.984-4.611,3.723-9.291,5.107-14.072c0.473-0.515,0.944-1.031,1.419-1.545
		c-0.615,6.93-1.398,13.854-2.35,20.775C441.927,193.518,439.945,195.336,437.961,197.155z M368.043,236.337
		c0.797,0.222,1.622,0.311,2.473,0.217c-0.83,1.395-1.626,2.817-2.432,4.231C368.071,239.303,368.057,237.82,368.043,236.337z
		 M372.342,156.918c-0.999,1.702-1.975,3.418-2.982,5.115c-0.654,1.102-0.951,2.205-1.037,3.264c0.134-3.432,0.303-6.859,0.5-10.283
		C369.884,155.782,371.07,156.402,372.342,156.918z M368.294,166.124c0.167,3.442,3.13,6.087,7.373,5.438
		c3.541-0.542,6.7-1.886,9.659-3.632c-0.057,0.059-0.115,0.118-0.172,0.178c-2.41,2.511-2.769,5.569-1.926,8.172
		c-5.821,7.963-11.027,16.196-15.134,24.824c-0.142,0.298-0.229,0.601-0.339,0.903C367.723,190.024,367.843,178.055,368.294,166.124
		z M448.045,136.76c-0.257-2.249-0.58-4.517-1.025-6.819c-0.133-0.694-0.38-1.381-0.678-2.052c0.326-0.389,0.664-0.78,0.988-1.168
		c0.317-0.381,0.571-0.784,0.794-1.195C448.137,129.274,448.111,133.018,448.045,136.76z M447.109,116.301
		c0.307-0.014,0.607-0.052,0.913-0.061c0.012,0.559,0.032,1.119,0.041,1.678C447.795,117.347,447.471,116.81,447.109,116.301z
		 M367.783,209.143c0.363,0.958,0.864,1.848,1.469,2.64c-0.486,0.716-0.95,1.454-1.432,2.174
		C367.806,212.352,367.793,210.747,367.783,209.143z M419.289,121.376c-4.751,4.243-9.494,8.494-14.249,12.73
		c-1.237,1.103-2.542,2.385-3.893,3.756c-0.326,0.126-0.65,0.252-0.972,0.375c-0.438-5.013-2.432-9.178-5.347-12.332
		c4.267-0.411,8.539-0.965,12.841-1.83C411.615,123.281,415.47,122.334,419.289,121.376z M368.148,258.221
		c0.571,0.497,1.175,0.928,1.815,1.274c-0.605,0.555-1.21,1.109-1.815,1.664C368.152,260.181,368.147,259.201,368.148,258.221z
		 M670.62,772.752c1.525,26.11,4.659,52.194,7.281,78.188c2.999,29.734,4.352,60.405,10.459,89.668
		c1.702,8.158,13.292,3.563,13.306-3.315c0.061-29.629-5.044-59.779-8.196-89.233c-2.719-25.415-4.971-51.011-8.692-76.328
		c14.008-1.146,27.966-2.649,41.887-4.458c-3.327,23.049-1.454,47.504-1.505,70.606c-0.061,28.201,0.165,56.395,0.698,84.591
		c0.945,50.071-0.802,102.244,7.921,151.678c0.634,3.594,7.698,5.75,8.081,1.022c4.271-52.791-0.663-106.76-1.575-159.687
		c-0.42-24.358-0.814-48.719-1.11-73.079c-0.299-24.663,2.717-52.041-1.632-76.577c16.37-2.314,32.703-5.056,49.031-8.107
		c0.655,62.06,3.006,124.059,6.412,186.033c3.319,60.388,4.444,122.854,13.69,182.814c-19.217,0.082-38.436,0.161-57.653,0.251
		c-0.006-0.874-0.053-1.727-0.11-2.473c-0.644-8.305-0.41-16.944-1.622-25.147c-0.624-4.228-6.998-5.076-8.212-0.832
		c-2.19,7.654-1.969,16.23-1.57,24.124c0.062,1.23,0.159,2.797,0.393,4.382c-13.838,0.065-27.678,0.129-41.518,0.196
		c-3.047-28.068-8.773-55.837-13.215-83.754c-0.448-2.816-4.936-3.154-4.829,0.09c0.935,28.324,3.494,56.501,11.402,83.696
		c-12.458,0.06-24.917,0.116-37.375,0.175c1.036-117.7-3.97-235.652-5.944-353.35C654.511,773.662,662.577,773.268,670.62,772.752z
		 M917.288,457.348c-0.773-0.682-1.584-1.336-2.425-1.968c0.934,0.371,1.878,0.809,2.818,1.239
		C917.552,456.865,917.412,457.098,917.288,457.348z M924.282,447.73c-0.913,0.832-1.741,1.744-2.536,2.688
		c-0.456-0.434-0.902-0.878-1.251-1.384c-0.658-0.955-0.896-2.007-1.679-2.898c-1.254-1.43-3.363-2.531-4.85-3.757
		c-3.112-2.566-6.018-5.351-8.771-8.297c-3.779-4.045-11.638,0.088-7.749,5.148c2.956,3.844,6.13,7.516,9.589,10.918
		c0.101,0.099,0.204,0.209,0.307,0.311c-2.627-1.561-5.241-3.059-7.589-4.602c-8.726-5.739-17.405-11.563-26.055-17.415
		c-4.065-2.75-11.058,2.426-6.686,6.428c7.983,7.309,16.343,14.017,24.993,20.522c6.488,4.88,13.402,11.18,21.308,13.543
		c-3.701,15.998-2.516,35.321-3.292,48.737c-3.445,59.49-4.452,119.125-4.909,178.702c-0.487,63.49-0.131,126.989,0.783,190.48
		c-1.532-0.08-3.068-0.101-4.498-0.221c-6.175-0.515-12.292,0.039-18.457,0.535c-6.172,0.497-6.114,9.348,0.119,9.831
		c4.948,0.383,9.852,0.878,14.821,0.65c2.601-0.12,5.419-0.127,8.177-0.397c0.168,10.872,0.338,21.744,0.536,32.615
		c-6.953,0.271-13.93,0.701-20.851,1.284c-5.441,0.459-7.345,8.575-1.034,9.252c7.318,0.785,14.745,1.206,22.12,1.474
		c0.759,39.428,1.69,78.852,2.771,118.268c0.604,22.019,1.265,44.037,2.018,66.052c-28.83,0.076-57.661,0.19-86.491,0.306
		c-0.577-61.662-8.997-124.072-12.162-185.653c-3.341-65.047-5.267-130.152-7.256-195.25c-0.201-6.55-6.847-10.717-12.827-9.319
		c-51.084,11.945-103.686,17.693-156.04,19.944c-5.081,0.219-7.4,5.677-7.276,9.972c3.491,120.245,3.144,241.006,9.713,361.133
		c-16.614,0.078-33.229,0.138-49.842,0.209c-0.092-6.281-1.497-12.561-2.441-19.066c-2.148-14.772-3.956-29.75-7.89-44.176
		c-1.154-4.234-9.893-5.572-9.814-0.123c0.196,13.599,1.731,27.109,3.353,40.603c0.835,6.944,0.656,15.381,2.324,22.823
		c-8.063,0.033-16.126,0.071-24.189,0.101c-1.269-7.759-6.029-15.312-9.22-22.269c-0.865-1.885-2.974-0.3-2.874,1.241
		c0.312,4.863,0.404,9.507,1.076,14.354c0.307,2.211,0.489,4.512,0.94,6.716c-52.317,0.193-104.635,0.342-156.953,0.356
		c-22.999,0.007-45.998,0.014-68.997,0.022c-1.059-31.686-2.151-63.373-3.259-95.059c9.362,0.283,18.385-2.116,27.442-4.46
		c7.892-2.043,16.341-3.507,23.638-7.138c4.434-2.205,4.668-8.65-1.077-9.275c-8.651-0.941-17.556,2.086-26.055,3.678
		c-8.391,1.572-16.485,3.652-24.301,6.925c-0.411-11.712-0.841-23.423-1.262-35.134c0.447,0.124,0.902,0.24,1.411,0.29
		c28.867,2.865,62.405,4.161,89.165-8.778c4.055-1.961,3.881-8.907-1.103-9.469c-14.508-1.635-29.755,1.162-44.347,1.792
		c-13.875,0.6-27.657,0.5-41.518-0.385c-1.609-0.103-2.995,0.267-4.188,0.907c-4.239-116.781-8.929-233.55-14.675-350.257
		c-1.423-28.902-2.865-57.795-4.502-86.676c17.035,1.962,32.814,0.343,49.793-2.852c4.532-0.853,2.509-7.436-1.542-7.231
		c-16.24,0.824-32.486,1.057-48.758,1.684c-0.819-14.103-1.695-28.203-2.637-42.3c19.221,4.769,42.838,4.724,60.34-3.395
		c3.544-1.644,1.133-5.715-1.427-6.755c-9.667-3.927-20.258-1.994-30.364-1.623c-9.772,0.358-19.553,0.329-29.303,1.116
		c-0.608-8.75-1.187-17.501-1.86-26.249c-0.345-4.49-3.912-8.737-8.724-8.44c-23.142,1.428-46.263,3.109-69.384,4.777
		c1.689-1.637,3.404-3.284,5.193-4.923c18.259-16.736,36.517-33.471,54.776-50.206c38.8-35.563,77.599-71.126,116.398-106.689
		c73.614-67.472,147.226-134.944,220.839-202.416c130.635,119.775,261.271,239.55,391.914,359.314
		c-6.138-0.07-12.277-0.142-18.421-0.175C960.572,438.633,937.601,435.587,924.282,447.73z"/>
	<path fill="#232323" d="M547.566,501.857c0.2-6.394-5.769-11.22-11.749-11.466c-44.314-1.823-88.629-3.6-132.949-5.29
		c-11.112-0.424-17.223,15.922-7.353,21.703c-6.183,69.186-9.851,138.581-15.392,207.822c-0.435,5.437,5.534,10.562,10.637,10.488
		c22.846-0.333,45.696-0.984,68.544-1.717c-0.032,0.2-0.139,0.376-0.147,0.583c-0.283,6.926,0.468,13.939,0.897,20.856
		c0.373,6.011,0.098,12.788,2.972,18.174c2.56,4.799,9.715,2.637,10.756-2.06c1.355-6.108,0.513-12.562-0.002-18.757
		c-0.531-6.378-0.799-12.886-1.918-19.193c6.704-0.224,13.407-0.453,20.111-0.682c-0.455,12.646,1.04,24.73,3.51,37.116
		c0.98,4.913,10.037,4.634,10.122-0.622c0.203-12.41,0.124-24.704-2.532-36.87c13.414-0.457,26.828-0.905,40.239-1.304
		c5.632-0.167,11.159-4.121,10.943-10.325C551.85,641.247,545.395,570.917,547.566,501.857z M468.899,701.416
		c3.956-29.543,2.099-60.921,2.479-90.724c19.584,0.041,39.218,0.48,58.617,0.008c0.701,29.676,1.112,59.353,2.042,88.826
		C510.999,700.203,489.95,700.785,468.899,701.416z M456.497,593.098c-17.094-0.091-34.304-1.445-50.815,0.836
		c1.243-27.16,2.396-54.322,3.229-81.498c2.614,0.113,5.081-1.102,6.922-2.985c14.706,0.46,29.414,0.878,44.119,1.324
		C457.281,538.009,456.989,565.647,456.497,593.098z M472.396,511.148c17.587,0.528,35.176,1.082,52.764,1.583
		c2.3,26.58,3.559,53.368,4.347,80.217c-17.212-4.903-35.796-2.257-53.512-0.567c-1.405,0.134-2.821,0.184-4.232,0.277
		C472.516,565.522,473.568,538.223,472.396,511.148z M405.488,598.289c10.633,13.484,32.89,12.779,48.599,12.5
		c0.677-0.012,1.357-0.001,2.033-0.011c-0.01,0.395-0.017,0.791-0.028,1.186c-0.802,29.508-4.172,60.39-1.924,89.94
		c-17.694,0.57-35.38,1.255-53.052,2.116C402.251,668.763,403.867,633.526,405.488,598.289z"/>
	<path fill="#232323" d="M780.426,1064.406c0.971-50.325-1.177-100.605-5.531-150.749c-0.346-3.986-7.345-6.025-7.358-1.168
		c-0.139,50.406,1.4,100.647,6.245,150.828C774.092,1066.54,780.348,1068.457,780.426,1064.406z"/>
	<path fill="#232323" d="M589.932,221.815c-8.08,2.904-14.167,7.386-20.49,13.047c-2.211,1.979-2.22,5.489-0.008,7.439
		c2.428,2.142,6.003,1.391,8.27-0.495c5.764-4.793,11.808-9.148,17.561-13.978C599.005,224.689,593.136,220.664,589.932,221.815z"/>
	<path fill="#232323" d="M600.442,236.138c-5.972,5.242-11.208,11.269-17.387,16.352c-3.938,3.24,1.508,8.705,5.438,6.715
		c7.87-3.986,15.829-9.035,21.144-16.255C614.071,236.923,605.332,231.845,600.442,236.138z"/>
	<path fill="#232323" d="M415.626,564.799c-3.955,6.38,6.274,11.708,10.35,5.974c3-4.22,5.965-8.494,9.088-12.623
		c2.596-3.431,6.443-7.285,7.459-11.591c0.615-2.603-2.227-6.109-5.089-4.802C427.684,546.213,421.09,555.985,415.626,564.799z"/>
	<path fill="#232323" d="M434.708,564.799c-1.359,0.626-1.375,0.511-2.333,1.698c-0.387,0.48-0.756,0.976-1.135,1.463
		c-3.56,4.569-7.106,8.997-9.887,14.099c-1.219,2.236,0.071,5.297,2.122,6.506c2.318,1.368,5.495,0.86,7.501-0.844
		c3.121-2.651,5.834-5.829,8.801-8.659c1.734-1.655,3.798-3.14,5.328-4.974c3.19-3.823,3.315-11.826-3.127-12.328
		C439.014,561.529,437.091,563.701,434.708,564.799z"/>
	<path fill="#232323" d="M483.718,564.732c3.207-3.358,6.592-6.509,10.115-9.533c3.829-3.285,6.798-7.357,10.721-10.692
		c1.975-1.679-0.562-5.915-2.952-4.581c-4.436,2.474-9.779,5.16-13.513,8.584c-3.642,3.338-6.806,7.349-9.648,11.372
		C476.19,563.068,480.877,567.704,483.718,564.732z"/>
	<path fill="#232323" d="M421.244,680.892c4.499-5.238,8.902-10.519,13.229-15.902c3.524-4.384,8.188-9.637,9.543-15.206
		c1.044-4.29-4.352-6.598-7.549-4.441c-4.674,3.154-8.18,7.834-11.483,12.342c-4.449,6.068-8.859,12.104-13.019,18.377
		C408.517,681.262,417.841,684.854,421.244,680.892z"/>
	<path fill="#232323" d="M503.866,664.73c1.83-2.31,2.612-4.326,3.221-7.176c0.68-3.178-2.514-5.809-5.41-5.854
		c-4.043-0.062-6.6,2.243-8.698,5.469c-2.164,3.327-4.622,6.484-6.366,10.059c-1.28,2.624-1.447,5.66,1.25,7.503
		c2.603,1.778,5.916,1.151,8.216-0.869C498.969,671.325,501.446,667.783,503.866,664.73z"/>
	<path fill="#232323" d="M513.57,665.62c-6.575,0.002-7.662,2.844-10.426,6.426c-2.533,3.283-5.241,6.536-7.463,10.045
		c-2.987,4.718,1.339,9.509,6.402,8.351c4.886-1.118,9.539-5.079,12.905-8.693c0.762-0.818,1.592-1.636,2.258-2.535
		c1.609-2.17,1.88-4.278,1.949-6.898C519.267,669.557,516.668,665.619,513.57,665.62z"/>
	<path fill="#232323" d="M837.95,479.539c0.201-6.394-5.769-11.22-11.747-11.466c-44.314-1.823-88.63-3.6-132.949-5.29
		c-5.617-0.214-9.95,3.87-11.606,8.703c-14.239,0.434-27.979,1.833-42.21,6.363c-5.964,1.898-5.639,10.154,1.134,10.19
		c14.801,0.079,28.859-2.603,43.107-5.242c0.619,0.636,1.374,1.193,2.223,1.689c-1.072,11.986-2.016,23.983-2.958,35.98
		c-0.691-0.891-1.654-1.623-3.128-1.903c-6.72-1.275-15.345-2.454-22.021-0.16c-4.209,1.446-10.418,4.277-12.926,7.997
		c-1.405,2.083,0.517,4.979,2.877,5.012c10.039,0.141,19.879-1.702,29.924-1.099c1.96,0.118,3.518-0.806,4.639-2.124
		c-4.195,54.684-7.425,109.448-11.801,164.119c-0.434,5.436,5.535,10.562,10.638,10.488c50.852-0.742,101.716-2.965,152.551-4.476
		c5.633-0.167,11.16-4.121,10.945-10.325C842.236,618.93,835.779,548.599,837.95,479.539z M746.883,570.78
		c-17.096-0.091-34.304-1.445-50.815,0.836c1.243-27.16,2.396-54.322,3.228-81.498c2.614,0.113,5.082-1.102,6.923-2.985
		c14.706,0.46,29.413,0.878,44.119,1.324C747.666,515.691,747.374,543.329,746.883,570.78z M762.78,488.83
		c17.588,0.528,35.176,1.082,52.765,1.583c2.299,26.58,3.557,53.368,4.347,80.217c-17.212-4.903-35.796-2.257-53.512-0.567
		c-1.406,0.134-2.821,0.184-4.232,0.277C762.902,543.204,763.954,515.906,762.78,488.83z M695.874,575.971
		c10.633,13.484,32.89,12.779,48.599,12.499c0.675-0.012,1.355-0.001,2.033-0.011c-0.012,0.395-0.017,0.791-0.028,1.186
		c-0.802,29.508-4.172,60.39-1.924,89.94c-17.694,0.57-35.38,1.255-53.052,2.116C692.637,646.445,694.253,611.208,695.874,575.971z
		 M761.763,588.374c19.584,0.041,39.219,0.48,58.617,0.008c0.702,29.676,1.112,59.353,2.043,88.826
		c-21.038,0.677-42.088,1.259-63.138,1.89C763.241,649.556,761.382,618.177,761.763,588.374z"/>
	<path fill="#232323" d="M706.012,542.481c-3.955,6.38,6.274,11.708,10.35,5.974c3-4.22,5.964-8.494,9.088-12.623
		c2.596-3.431,6.443-7.285,7.459-11.591c0.615-2.603-2.227-6.109-5.09-4.802C718.07,523.895,711.476,533.667,706.012,542.481z"/>
	<path fill="#232323" d="M725.094,542.482c-1.359,0.626-1.375,0.511-2.333,1.698c-0.387,0.481-0.756,0.976-1.135,1.463
		c-3.56,4.569-7.106,8.997-9.887,14.099c-1.219,2.236,0.071,5.297,2.12,6.506c2.319,1.368,5.495,0.86,7.502-0.844
		c3.12-2.651,5.833-5.83,8.8-8.659c1.736-1.655,3.799-3.14,5.329-4.974c3.19-3.823,3.315-11.826-3.127-12.328
		C729.4,539.211,727.477,541.383,725.094,542.482z"/>
	<path fill="#232323" d="M774.103,542.414c3.208-3.358,6.592-6.509,10.116-9.533c3.828-3.285,6.798-7.357,10.719-10.692
		c1.975-1.679-0.561-5.915-2.951-4.581c-4.436,2.474-9.779,5.16-13.514,8.584c-3.641,3.339-6.805,7.349-9.646,11.372
		C766.574,540.75,771.263,545.386,774.103,542.414z"/>
	<path fill="#232323" d="M711.63,658.574c4.498-5.238,8.902-10.519,13.229-15.902c3.524-4.384,8.188-9.637,9.543-15.206
		c1.044-4.29-4.352-6.598-7.55-4.441c-4.674,3.154-8.179,7.834-11.483,12.342c-4.448,6.068-8.857,12.104-13.018,18.377
		C698.903,658.945,708.227,662.536,711.63,658.574z"/>
	<path fill="#232323" d="M778.248,652.413c2.603,1.778,5.916,1.151,8.216-0.869c2.889-2.537,5.367-6.079,7.786-9.132
		c1.831-2.31,2.613-4.326,3.222-7.176c0.68-3.178-2.516-5.809-5.41-5.854c-4.043-0.063-6.6,2.243-8.698,5.468
		c-2.164,3.327-4.622,6.484-6.366,10.059C775.719,647.534,775.551,650.57,778.248,652.413z"/>
	<path fill="#232323" d="M793.529,649.728c-2.534,3.283-5.242,6.535-7.463,10.045c-2.987,4.718,1.339,9.509,6.402,8.351
		c4.886-1.118,9.539-5.079,12.905-8.693c0.762-0.818,1.591-1.636,2.258-2.535c1.609-2.17,1.879-4.278,1.948-6.898
		c0.074-2.759-2.527-6.697-5.625-6.696C797.381,643.304,796.294,646.146,793.529,649.728z"/>
	<path fill="#232323" d="M371.471,946.798c-9.69-1.796-19.923,2.534-29.56,4.002c-7.888,1.202-15.968,1.397-23.769,2.995
		c-5.48,1.122-8.698,11.017-1.691,12.451c9.57,1.958,19.898,1.42,29.556,0.161c9.516-1.241,20.218-2.143,27.518-8.655
		C376.919,954.724,376.699,947.767,371.471,946.798z"/>
	<path fill="#232323" d="M642.143,345.245c0.658-16.455-3.547-34.816-7.807-50.903c29.331-14.401,48.913-50.035,43.995-82.122
		c-6.02-39.274-59.179-68.652-96.454-58.512c-26.549,7.223-57.255,54.926-35.23,78.956c-7.122,34.169,18.722,62.841,50.582,67.587
		c-0.631,10.195-0.342,21.382,3.818,30.455c2.231,4.865,9.754,4.106,10.374-1.413c1.066-9.502-0.055-19.192-2.791-28.395
		c1.84-0.063,3.686-0.18,5.539-0.409c2.803-0.347,5.542-0.932,8.241-1.651c1.893,15.479,3.691,33.545,10.283,47.37
		C634.391,349.775,641.952,349.999,642.143,345.245z M638.479,273.433c0.961-0.121,1.938-0.449,2.899-1.062
		c0.465-0.296,0.886-0.61,1.331-0.913c-1.707,1.603-3.506,3.113-5.403,4.512C637.714,275.133,638.104,274.287,638.479,273.433z
		 M661.855,235.336c-0.017-14.382-5.642-29.748-12.607-43.308C660.667,203.788,664.337,219.794,661.855,235.336z M619.506,175.199
		c-2.124,0.652-3.849,2.39-4.637,4.44c-6.09-3.616-12.872-6.244-19.504-7.279C603.125,171.361,611.491,172.658,619.506,175.199z
		 M554.174,232.935c4.29-6.723,7.318-10.532,9.374-19.137c1.579-6.612,2.757-13.159,5.157-19.379
		c26.377-28.39,56.47,4.647,61.418,31.388c5.344,28.876-9.667,39.082-20.056,60.683c-13.277,1.218-27.119-2.562-37.289-11.173
		C559.882,264.397,559.064,247.921,554.174,232.935z"/>
</g>
</svg>
