<?xml version="1.0" encoding="utf-8"?>
<!-- Designed by Vexels.com - 2019 All Rights Reserved - https://vexels.com/terms-and-conditions/  -->
<svg version="1.1" id="Capa_1" xmlns="http://www.w3.org/2000/svg" xmlns:xlink="http://www.w3.org/1999/xlink" x="0px" y="0px"
	 viewBox="0 0 1200 1200" enable-background="new 0 0 1200 1200" xml:space="preserve">
<g>
	<g>
		<path fill="#231F20" d="M972.346,309.188c-5.396-37.96-16.521-74.787-32.745-109.426c18.37-15.394,20.004-55.109,15.347-75.186
			c-6.558-28.277-45.919-14.921-68.713-3.343c-16.615-26.225-55.995-38.493-83.489-44.265
			c-44.449-9.331-97.378-13.077-141.317,0.829c-0.984,0.311-1.822,0.776-2.551,1.327c-20.453-18.65-56.036-44.519-75.435-17.361
			c-16.158,22.62-16.425,59.905-1.332,83.839c-1.709,1.403-2.958,3.487-3.235,6.236c-3.735,37.077-47.258,59.342-65.736,89.005
			c-8.751,14.048-15.53,34.392-7.614,50.225c6.378,12.755,18.005,17.332,30.551,18.151c-7.626,14.843-9.201,32.395,0.938,47.138
			c5.019,7.298,12.311,12.766,20.269,15.618c-5.876,57.861-55.283,104.802-95.667,142.082
			c-44.69,41.255-93.88,77.719-136.426,121.294c-34.154,34.98-58.161,79.065-75.061,124.634
			c-15.242,41.099-30.974,94.214-19.988,138.501c6.663,81.413,55.89,155.341,125.954,199.802
			c90.089,57.169,199.998,62.134,301.357,38.144c38.717-9.164,77.151-20.995,113.709-36.923c0.009,0,0.017,0.002,0.026,0.002
			c17.584-0.62,35.214-12.476,50.348-20.612c18.079-9.719,35.78-20.237,52.487-32.178c31.869-22.778,61.805-52.089,71.997-91.295
			c9.352-35.977-3.661-77.557-42.245-89.148c-11.541-3.467-22.058-2.568-31.579,1.144c11.613-32.261,18.066-67.061,23.704-100.503
			c6.703-39.765,11.633-79.963,13.832-120.242c4.321-79.143,1.417-160.375-11.634-238.735c11.969,0.553,24.354-0.896,32.493-9.935
			c7.499-8.329,9.535-19.751,9.698-30.863c9.261-0.284,17.863-4.778,24.069-12.697C974.546,341.449,974.568,324.822,972.346,309.188
			z"/>
	</g>
	<g>
		<path fill="#D8C1AF" d="M920.603,199.299c-1.284-4.535,2.117-8.192,5.941-9.06c1.223-4.574,3.108-9.027,4.532-13.769
			c3.001-9.994,4.981-19.881,5.447-30.343c0.135-3.026,1.353-12.882,0.007-15.582c-3.82-7.662-15.729-4.722-21.73-3.749
			c-8.666,1.405-17.176,3.769-25.406,6.843c0.296,0.894,0.584,1.793,0.831,2.713c1.7,6.343-5.31,11.656-10.98,8.441
			c-14.594-8.277-26.658-19.57-42.077-26.829c-15.662-7.374-31.888-12.551-48.787-16.243c-21.719-4.746-44.021-7.39-66.232-8.323
			c-19.063-0.801-37.849,1.357-56.809,1.725c-1.621,3.366-5.561,5.61-9.204,2.956c-15.636-11.392-52.563-42.156-67.126-17.456
			c-12.058,20.451-6.742,43.736,0.411,64.773c2.674,1.128,4.705,3.64,4.669,7.661c-0.249,27.659-17.231,48.17-35.172,67.471
			c-9.812,10.556-20.218,20.937-27.498,33.491c-3.44,5.932-7.086,13.159-7.616,20.112c-1.367,17.963,16.885,16.151,29.532,14.445
			c9.03-1.218,18.556,9.515,9.988,17.158c-10.081,8.993-18.174,23.843-11.5,37.275c5.302,10.67,18.288,13.549,29.146,11.216
			c3.958-0.851,7.593,1.486,9.051,4.674c1.712,1.243,2.972,3.209,3.154,5.943c0.477,7.181,9.965,14.433,15.072,18.565
			c7.433,6.014,16.678,10.384,26.62,8.75c6.173-1.015,9.465,6.378,4.232,10.037c-13.511,9.446-28.961,7.404-41.318-3.398
			c-7.342-6.418-15.802-15.6-18.918-25.643c-2.138,0.872-4.341,1.455-6.577,1.814c1.464,52.96-35.801,97.373-71.449,133.426
			c-42.827,43.313-91.668,79.996-136.431,121.195c-39.919,36.74-69.944,78.056-90.193,128.649
			c-9.681,24.189-17.148,49.363-21.879,74.992c-3.874,20.984-4.899,42.22-7.433,63.314c4.612,37.475,18.619,73.56,39.681,105.42
			c55.712,84.276,158.499,124.872,256.724,126.705c75.148,1.403,148.635-22.038,219.98-46.338c0.026-0.029,0.044-0.061,0.07-0.09
			c8.818-9.576,22.399-14.248,33.734-20.169c12.946-6.762,25.689-13.921,38.101-21.623c23.58-14.632,48.24-31.406,64.774-54.134
			c18.544-25.492,33.789-65.662,7.414-91.467c-28.812-28.188-54.936,12.277-66.883,35.199c-4.996,9.586-19.022,4.54-19.394-5.253
			c-1.117-29.368-68.639,22.604-76.01,27.787c-2.451,1.723-4.718,1.538-6.44,0.365c-1.557,0.103-3.213-0.181-4.911-1.086
			c-37.552-20.021-73.343,13.218-98.489,37.768c-2.119,2.068-5.555,3.241-8.464,2.237c-7.718-2.662-10.796-7.211-12.44-15.103
			c-1.33-6.387,0.997-14.334-6.574-18.465c-6.026-3.288-16.763,2.38-21.967,5.022c-23.214,11.784-41.306,31.436-65.668,41.368
			c-54.526,22.229-109.078-11.134-152.29-41.793c-6.301-4.471-0.663-14.682,6.159-10.537c26.264,15.957,53.148,31.427,83.638,37.53
			c31.505,6.306,58.204-1.208,84.802-18.371c11.147-7.193,23.195-16.688,36.176-22.664c10.587-20.304,18.035-41.895,27.903-62.471
			c0.072-0.15,0.197-0.248,0.285-0.384c12.423-44.4,18.262-90.858-7.005-132.048c-36.114-58.874-113.464-60.596-171.994-39.886
			c-5.205,1.842-8.794-6.723-3.761-8.921c61.714-26.961,142.035-27.849,186.494,30.842c12.556,16.575,20.174,34.872,23.883,53.9
			c8.419,19.425,17.273,38.665,25.511,58.18c6.617,15.676,12.901,31.46,18.579,47.501c3.947,11.151,11.414,23.799,11.899,35.892
			c16.32-4.779,33.654-4.513,51.703,4.203c8.507-10.146,17.995-19.504,28.871-26.823c-3.509-12.276-1.895-27.447-2.153-39.316
			c-0.38-17.453-1.071-34.895-1.533-52.345c-0.968-36.601-1.562-73.199-2.396-109.802c-0.154-6.76,11.019-8.484,11.985-1.622
			c3.253,23.106,6.026,46.211,8.324,69.381c0.983-2.226,1.966-4.438,2.895-6.622c6.648-15.63,12.898-31.427,19.256-47.176
			c2.655-6.576,13.294-3.988,10.884,3.001c-5.423,15.729-10.976,31.42-16.107,47.247c-3.725,11.489-6.793,24.482-14.204,34.275
			c0.213,2.744,0.474,5.479,0.67,8.226c1.393,19.466,2.131,38.993,2.873,58.493c0.3,7.879,1.334,16.857,0.951,25.466
			c1.354-0.467,2.719-0.914,4.111-1.316c13.094-3.783,27.453-1.598,36.439,6.468c6.507-9.208,14.059-18.075,22.67-24.918
			c2.951-38.431,11.365-76.751,16.496-114.949c5.284-39.334,8.619-78.836,11.119-118.432c5.027-79.631,1.344-158.595-1.916-238.135
			c-3.628-2.424-4.374-7.761,0.076-10.73c0.714-0.476,1.436-0.874,2.162-1.231c1.694-1.388,3.994-2.056,6.187-1.896
			c7.557-1.182,15.434,0.789,22.781-2.755c11.841-5.713,9.963-21.091,8.939-32.531c-0.592-6.611,6.289-9.536,11.579-8.82
			c31.064,4.2,11.924-61.216,9.099-74.22C934.688,249.311,927.645,224.174,920.603,199.299z M703.995,248.884
			c-6.205-7.594-13.767-16.253-24.195-16.769c-6.283-0.311-10.986,1.841-15.98,5.348c-3.154,2.215-4.64,3.721-8.797,3.327
			c-2.305-0.218-4.125-1.401-4.854-3.695c-4.762-14.987,21.874-22.917,32.635-21.807c15.782,1.628,30.514,13.315,29.783,30.036
			C712.415,249.301,706.943,252.491,703.995,248.884z M783.37,331.346c-11.468-2.182-17.189-9.05-19.358-17.595
			c-4.712,7.105-11.095,12.254-22.219,12.044c-21.56-0.406-34.046-23.107-19.792-39.959c1.996-2.36,6.565,0.166,5.354,3.117
			c-5.003,12.184,4.652,27.797,19.118,23.713c6.007-1.696,8.698-5.857,11.67-10.662c3.306-5.344,6.875-11.917,8.6-17.983
			c0.195-0.687,0.524-1.279,0.922-1.806c-3.096-2.439-5.731-5.643-8.456-8.394c-4.041-4.08-1.29-12.452,4.959-11.973
			c6.671,0.511,13.362,0.562,20.045,0.313c3.646-0.136,7.108,2.689,8.055,6.133c1.055,3.84-0.807,7.21-3.839,9.433
			c-3.284,2.408-6.287,5.286-10.297,6.334c-0.143,0.037-0.278,0.043-0.419,0.074c0.117,0.456,0.191,0.919,0.158,1.388
			c-0.445,6.317-3.062,14.948-1.68,21.053c4.04,17.842,21.703,9.429,27.088,0.905c1.465-2.319,2.365-5.917,3.64-8.469
			c1.357-2.714,5.74-2.659,7.112,0C823.619,317.59,800.879,334.676,783.37,331.346z M874.016,266.283
			c-1.528,6.775-12.169,5.177-11.985-1.622c0.378-13.963-15.263-18.351-26.666-16.975c-9.347,1.129-15.403,4.372-21.81,11.1
			c-1.318,1.384-3.314,0.825-4.312-0.556c-12.278-16.977,19.286-27.615,30.752-27.794
			C860.226,230.119,878.897,244.639,874.016,266.283z"/>
		<path fill="#D8C1AF" d="M640.729,857.337c-2.224-6.183-4.465-12.359-6.705-18.536c-2.733,23.882-10.152,47.628-20.49,69.485
			c-1.943,12.489-7.071,24.379-14.272,34.894c0.272-0.004,0.54-0.036,0.813-0.035c7.711,0.032,16.43,2.297,21.74,8.277
			c2.363,2.66,4.205,13.416,5.817,19.474c13.045-12.284,27.546-24.202,43.191-32.29c-8.175-8.153-10.631-20.542-13.968-31.734
			C651.886,890.206,646.615,873.703,640.729,857.337z"/>
	</g>
	<g>
		<path fill="#FF5F5F" d="M632.783,107.826c-8.643-4.055-22.975-12.012-31.391-3.597c-6.791,6.791-2.338,16.648,1.66,24.419
			c0.334,1.398,0.861,2.713,1.598,3.857c4.938,7.659,12.985,8.834,20.87,5.472c3.852-1.642,7.264-4.662,10.161-7.659
			C641.597,124.2,641.376,111.857,632.783,107.826z"/>
		<path fill="#FF5F5F" d="M929.286,150.269c-0.35-5.47-4.657-9.73-10.343-8.966c-2.635,0.354-5.154,2.099-6.661,4.426
			c-0.003-0.022-0.006-0.045-0.009-0.067c-0.019,0.039-0.038,0.075-0.057,0.114c-2.417,1.456-4.933,2.708-7.622,3.65
			c-2.893,1.014-4.418,3.101-4.865,5.358c-3.069,3.439-4.099,8.522-1.512,12.725c2.368,3.848,5.484,7.052,9.87,8.461
			c5.437,1.747,11.197-0.405,14.601-4.811C926.944,165.65,929.731,157.202,929.286,150.269z"/>
		<path fill="#FF5F5F" d="M646.731,267.008c-0.764-5.689-3.42-10.497-7.305-14.135c-4.671-8.219-13.162-12.867-22.657-13.731
			c-8.916-0.812-18.416,3.515-24.744,9.654c-9.184,8.91-11.361,23.146-5,34.35c4.276,7.532,12.268,13.683,20.754,15.706
			c13.443,3.205,27.629-1.126,35.168-13.171C646.426,280.122,647.592,273.415,646.731,267.008z"/>
		<path fill="#FF5F5F" d="M890.315,293.29c-2.081-2.295-4.615-4.272-7.36-5.722c-6.727-3.553-13.321-3.928-20.699-2.717
			c-10.018,1.644-19.617,11.014-22.142,20.844c-1.38,5.372-1.518,10.48-0.1,15.821c2.587,9.744,12.36,17.569,22.474,17.942
			c4.748,1.442,9.911,1.616,14.692,0.311c9.125-2.49,16.558-10.43,19.249-19.368C899.285,310.918,896.963,300.621,890.315,293.29z"
			/>
	</g>
	<g>
		<path fill="#FFE4D2" d="M717.736,155.316c-13.266-5.913-27.921-4.743-41.656-0.827c-11.59,3.305-9.283,20.813,2.839,20.974
			c9.961,0.132,18.335,3.844,27.941,5.652c6.892,1.297,13.898-1.326,16.652-8.173C725.892,167.024,724.241,158.215,717.736,155.316z
			"/>
		<path fill="#FFE4D2" d="M860.325,179.351c-12.834-5.407-28.214-1.473-41.607-0.007c-15.077,1.65-15.108,21.837,0,23.491
			c13.397,1.466,28.761,5.405,41.607-0.007C871.789,197.998,871.812,184.19,860.325,179.351z"/>
		<g>
			<path fill="#FFE4D2" d="M784.139,262.195c-1.036,0.039-2.071,0.016-3.107,0.04c2.57,0.314,5.106,0.744,7.58,1.31
				C787.282,262.666,785.735,262.136,784.139,262.195z"/>
			<path fill="#FFE4D2" d="M762.854,261.914c0.114-0.009,0.229-0.014,0.343-0.023C763.082,261.898,762.966,261.901,762.854,261.914z
				"/>
			<path fill="#FFE4D2" d="M633.949,838.836c-0.018,0.155-0.046,0.31-0.065,0.466c0.075-0.011,0.149-0.017,0.223-0.027
				C634.055,839.128,634.002,838.982,633.949,838.836z"/>
			<path fill="#FFE4D2" d="M788.612,263.545c1.708,1.129,3.05,2.846,3.582,4.783c1.055,3.84-0.807,7.21-3.839,9.433
				c-3.284,2.408-6.287,5.286-10.297,6.334c-0.143,0.037-0.278,0.043-0.419,0.074c0.117,0.456,0.191,0.919,0.158,1.388
				c-0.445,6.317-3.062,14.948-1.68,21.053c4.04,17.842,21.703,9.429,27.088,0.905c1.465-2.319,2.365-5.917,3.64-8.469
				c1.357-2.714,5.74-2.659,7.112,0c9.587,18.579-13.153,35.665-30.662,32.335c-11.468-2.182-17.189-9.05-19.358-17.595
				c-4.712,7.105-11.095,12.254-22.219,12.044c-21.56-0.406-34.046-23.107-19.792-39.959c1.996-2.36,6.565,0.166,5.354,3.117
				c-5.003,12.184,4.652,27.797,19.118,23.713c6.007-1.696,8.698-5.857,11.67-10.662c3.306-5.344,6.875-11.917,8.6-17.983
				c0.195-0.687,0.524-1.279,0.922-1.806c-3.096-2.439-5.731-5.643-8.456-8.394c-3.762-3.798-1.633-11.306,3.719-11.941
				c-10.85,0.886-21.194,3.597-29.017,7.568c-15.059,7.644-27.967,23.511-27.225,41.136c0.726,17.247,13.646,28.814,28.762,34.636
				c27.894,10.744,63.608,8.646,77.327-16.923c9.108-10.579,12.992-25.062,7.347-40.496
				C815.138,274.409,802.907,266.816,788.612,263.545z"/>
			<path fill="#FFE4D2" d="M736.576,953.041c-1.557,0.103-3.213-0.181-4.911-1.086c-5.374-2.864-10.71-4.606-15.986-5.471
				c-2.413,1.643-4.793,3.356-7.122,5.188c-3.624,2.851-4.854,7.076-4.413,11.286c-2.847,1.467-5.716,2.922-8.606,4.373
				c-20.669,10.385-12.372,37.622,5.766,44.041c-9.683,14.627-5.263,37.889,14.526,42.161c1.078,0.233,2.14,0.396,3.209,0.592
				c-3.461,7.687-3.712,16.484,1.489,24.72c3.47,5.495,7.676,9.762,12.417,13.005c9.457-3.11,18.88-6.285,28.264-9.48
				c0.026-0.029,0.044-0.061,0.07-0.09c8.818-9.572,22.399-14.242,33.734-20.16c12.946-6.76,25.689-13.915,38.101-21.614
				c5.556-3.446,11.171-7.018,16.727-10.751c-6.26-8.175-16.578-13.568-27.382-11.971c0.179-1.637,0.298-3.292,0.3-4.984
				c0.015-14.528-9.535-23.615-21.256-26.072c2.036-4.524,3.778-9.261,5.116-14.286c3.279-12.321-1.266-21.749-9.026-27.066
				c2.04-8.928-1.214-17.806-7.539-23.055c-19.692,9.713-42.89,27.44-47.038,30.355
				C740.565,954.398,738.297,954.213,736.576,953.041z"/>
			<path fill="#FFE4D2" d="M644.054,1086.379c-0.966-6.374-3.746-12.446-8.227-16.845c7.745-16.314,0.304-38.811-23.845-39.196
				c-0.817-0.013-1.633,0.019-2.45,0.015c1.57-4.542,1.958-9.479,1.161-14.236c5.189-3.1,10.235-6.569,15.07-10.524
				c4.64-3.795,6.738-9.56,6.846-15.443c-2.132,1.751-5.23,2.67-7.896,1.75c-7.718-2.662-10.796-7.211-12.44-15.103
				c-1.33-6.387,0.997-14.334-6.574-18.466c-1.876-1.024-4.21-1.178-6.69-0.827c-5.486,0.776-11.693,4.03-15.277,5.849
				c-0.896,0.455-1.772,0.942-2.654,1.419c-21.953,11.889-39.592,30.4-63.014,39.949c-6.534,2.664-13.068,4.509-19.583,5.677
				c0.192,1.66,0.509,3.321,1.096,4.964c-7.542,9.945-9.942,22.855-2.332,35.865c3.484,5.957,8.87,10.801,15.138,14.813
				c-0.821,4.318-0.559,8.74,0.962,12.874c-5.363,7.627-7.089,17.232-2.097,28.733c1.277,2.943,2.991,5.631,4.987,8.135
				c-1.894,3.504-3.087,7.373-3.56,11.289c9.53,0.906,19.065,1.455,28.556,1.632c41.038,0.766,81.576-5.904,121.546-16.05
				C662.312,1101.333,656.043,1090.246,644.054,1086.379z"/>
			<path fill="#FFE4D2" d="M599.187,943.215c0.272-0.004,0.54-0.036,0.813-0.035c7.711,0.032,16.43,2.297,21.74,8.277
				c2.363,2.66,4.205,13.416,5.817,19.475c13.045-12.284,27.546-24.202,43.191-32.291c-8.175-8.153-10.631-20.542-13.968-31.734
				c-4.968-16.665-10.239-33.169-16.126-49.535c-2.171-6.037-4.36-12.067-6.547-18.098c-0.074,0.01-0.149,0.017-0.223,0.027
				c-2.776,23.725-10.155,47.304-20.426,69.02C611.516,920.811,606.388,932.701,599.187,943.215z"/>
			<path fill="#FFE4D2" d="M429.923,1087.69c4.724-5.33,7.588-12.029,7.195-18.95c11.366-5.222,17.799-18.116,14.36-30.487
				c12.764-1.046,20.357-16.159,16.399-27.137c-24.008-2.94-47.309-13.456-68.881-26.278c-4.087,1.438-7.163,4.923-8.278,8.88
				c-17.801-9.815-36.513,6.585-38.244,24.435c-0.068,0.701-0.059,1.395-0.093,2.094c-4.508,3.274-7.942,8.134-9.291,14.739
				c-2.179,10.668-1.735,20.449,0.937,29.716c26.162,19.661,55.835,34.687,87.166,45.211
				C434.383,1102.312,433.456,1094.635,429.923,1087.69z"/>
			<path fill="#FFE4D2" d="M788.47,668.77c29.195-2.263,29.333,20.42,29.194,37.239c-0.041,4.997-0.655,9.986-1.617,14.963
				c-1.849-3.747-8.691-4.182-10.751,0.976c-6.359,15.922-12.609,31.892-19.256,47.693c-0.929,2.208-1.912,4.445-2.895,6.695
				c-2.298-23.424-5.071-46.782-8.324-70.142c-0.966-6.938-12.139-5.194-11.985,1.64C762.836,707.834,759.275,671.032,788.47,668.77
				z"/>
		</g>
	</g>
</g>
</svg>
