<?xml version="1.0" encoding="UTF-8" standalone="no"?>
<!DOCTYPE svg PUBLIC "-//W3C//DTD SVG 1.1//EN"
 "http://www.w3.org/Graphics/SVG/1.1/DTD/svg11.dtd">
<!-- Generated by graphviz version 2.28.0 (20110507.0327)
 -->
<!-- Title: G Pages: 1 -->
<svg width="294pt" height="46pt"
 viewBox="0.00 0.00 294.00 46.00" xmlns="http://www.w3.org/2000/svg" xmlns:xlink="http://www.w3.org/1999/xlink">
<g id="graph1" class="graph" transform="scale(1 1) rotate(0) translate(4 42)">
<title>G</title>
<polygon fill="white" stroke="white" points="-4,5 -4,-42 291,-42 291,5 -4,5"/>
<!-- node0 -->
<g id="node1" class="node"><title>node0</title>
<polygon fill="none" stroke="black" points="0,-1 0,-37 286,-37 286,-1 0,-1"/>
<text text-anchor="middle" x="15" y="-15.3" font-family="Times New Roman,serif" font-size="14.00">37</text>
<polyline fill="none" stroke="black" points="30,-1 30,-37 "/>
<text text-anchor="middle" x="45" y="-15.3" font-family="Times New Roman,serif" font-size="14.00">11</text>
<polyline fill="none" stroke="black" points="60,-1 60,-37 "/>
<text text-anchor="middle" x="75" y="-15.3" font-family="Times New Roman,serif" font-size="14.00">14</text>
<polyline fill="none" stroke="black" points="90,-1 90,-37 "/>
<text text-anchor="middle" x="105" y="-15.3" font-family="Times New Roman,serif" font-size="14.00">50</text>
<polyline fill="none" stroke="black" points="120,-1 120,-37 "/>
<text text-anchor="middle" x="135" y="-15.3" font-family="Times New Roman,serif" font-size="14.00">24</text>
<polyline fill="none" stroke="black" points="150,-1 150,-37 "/>
<text text-anchor="middle" x="161.5" y="-15.3" font-family="Times New Roman,serif" font-size="14.00">7</text>
<polyline fill="none" stroke="black" points="173,-1 173,-37 "/>
<text text-anchor="middle" x="188" y="-15.3" font-family="Times New Roman,serif" font-size="14.00">17</text>
<polyline fill="none" stroke="black" points="203,-1 203,-37 "/>
<text text-anchor="middle" x="218" y="-15.3" font-family="Times New Roman,serif" font-size="14.00">88</text>
<polyline fill="none" stroke="black" points="233,-1 233,-37 "/>
<text text-anchor="middle" x="248" y="-15.3" font-family="Times New Roman,serif" font-size="14.00">99</text>
<polyline fill="none" stroke="black" points="263,-1 263,-37 "/>
<text text-anchor="middle" x="274.5" y="-15.3" font-family="Times New Roman,serif" font-size="14.00">9</text>
</g>
</g>
</svg>
