<?xml version="1.0" encoding="UTF-8" standalone="no"?>
<!DOCTYPE svg PUBLIC "-//W3C//DTD SVG 1.1//EN"
 "http://www.w3.org/Graphics/SVG/1.1/DTD/svg11.dtd">
<!-- Generated by graphviz version 2.28.0 (20110507.0327)
 -->
<!-- Title: G Pages: 1 -->
<svg width="300pt" height="712pt"
 viewBox="0.00 0.00 300.00 712.00" xmlns="http://www.w3.org/2000/svg" xmlns:xlink="http://www.w3.org/1999/xlink">
<g id="graph1" class="graph" transform="scale(1 1) rotate(0) translate(4 708)">
<title>G</title>
<polygon fill="white" stroke="white" points="-4,5 -4,-708 297,-708 297,5 -4,5"/>
<!-- node0 -->
<g id="node1" class="node"><title>node0</title>
<polygon fill="none" stroke="black" points="-0.5,-667 -0.5,-703 292.5,-703 292.5,-667 -0.5,-667"/>
<text text-anchor="middle" x="14.5" y="-681.3" font-family="Times New Roman,serif" font-size="14.00">75</text>
<polyline fill="none" stroke="black" points="29.5,-667 29.5,-703 "/>
<text text-anchor="middle" x="44.5" y="-681.3" font-family="Times New Roman,serif" font-size="14.00">53</text>
<polyline fill="none" stroke="black" points="59.5,-667 59.5,-703 "/>
<text text-anchor="middle" x="74.5" y="-681.3" font-family="Times New Roman,serif" font-size="14.00">36</text>
<polyline fill="none" stroke="black" points="89.5,-667 89.5,-703 "/>
<text text-anchor="middle" x="101" y="-681.3" font-family="Times New Roman,serif" font-size="14.00">2</text>
<polyline fill="none" stroke="black" points="112.5,-667 112.5,-703 "/>
<text text-anchor="middle" x="127.5" y="-681.3" font-family="Times New Roman,serif" font-size="14.00">60</text>
<polyline fill="none" stroke="black" points="142.5,-667 142.5,-703 "/>
<text text-anchor="middle" x="157.5" y="-681.3" font-family="Times New Roman,serif" font-size="14.00">18</text>
<polyline fill="none" stroke="black" points="172.5,-667 172.5,-703 "/>
<text text-anchor="middle" x="187.5" y="-681.3" font-family="Times New Roman,serif" font-size="14.00">65</text>
<polyline fill="none" stroke="black" points="202.5,-667 202.5,-703 "/>
<text text-anchor="middle" x="217.5" y="-681.3" font-family="Times New Roman,serif" font-size="14.00">64</text>
<polyline fill="none" stroke="black" points="232.5,-667 232.5,-703 "/>
<text text-anchor="middle" x="247.5" y="-681.3" font-family="Times New Roman,serif" font-size="14.00">55</text>
<polyline fill="none" stroke="black" points="262.5,-667 262.5,-703 "/>
<text text-anchor="middle" x="277.5" y="-681.3" font-family="Times New Roman,serif" font-size="14.00">82</text>
</g>
<!-- node1 -->
<g id="node3" class="node"><title>node1</title>
<polygon fill="none" stroke="black" points="-0.5,-593 -0.5,-629 292.5,-629 292.5,-593 -0.5,-593"/>
<text text-anchor="middle" x="14.5" y="-607.3" font-family="Times New Roman,serif" font-size="14.00">53</text>
<polyline fill="none" stroke="black" points="29.5,-593 29.5,-629 "/>
<text text-anchor="middle" x="44.5" y="-607.3" font-family="Times New Roman,serif" font-size="14.00">75</text>
<polyline fill="none" stroke="black" points="59.5,-593 59.5,-629 "/>
<text text-anchor="middle" x="74.5" y="-607.3" font-family="Times New Roman,serif" font-size="14.00">36</text>
<polyline fill="none" stroke="black" points="89.5,-593 89.5,-629 "/>
<text text-anchor="middle" x="101" y="-607.3" font-family="Times New Roman,serif" font-size="14.00">2</text>
<polyline fill="none" stroke="black" points="112.5,-593 112.5,-629 "/>
<text text-anchor="middle" x="127.5" y="-607.3" font-family="Times New Roman,serif" font-size="14.00">60</text>
<polyline fill="none" stroke="black" points="142.5,-593 142.5,-629 "/>
<text text-anchor="middle" x="157.5" y="-607.3" font-family="Times New Roman,serif" font-size="14.00">18</text>
<polyline fill="none" stroke="black" points="172.5,-593 172.5,-629 "/>
<text text-anchor="middle" x="187.5" y="-607.3" font-family="Times New Roman,serif" font-size="14.00">65</text>
<polyline fill="none" stroke="black" points="202.5,-593 202.5,-629 "/>
<text text-anchor="middle" x="217.5" y="-607.3" font-family="Times New Roman,serif" font-size="14.00">64</text>
<polyline fill="none" stroke="black" points="232.5,-593 232.5,-629 "/>
<text text-anchor="middle" x="247.5" y="-607.3" font-family="Times New Roman,serif" font-size="14.00">55</text>
<polyline fill="none" stroke="black" points="262.5,-593 262.5,-629 "/>
<text text-anchor="middle" x="277.5" y="-607.3" font-family="Times New Roman,serif" font-size="14.00">82</text>
</g>
<!-- node0&#45;&gt;node1 -->
<g id="edge2" class="edge"><title>node0:f0&#45;&gt;node1:f1</title>
<path fill="none" stroke="blue" d="M14,-666C14,-649.241 33.4257,-649.629 41.0138,-639.568"/>
<polygon fill="blue" stroke="blue" points="44.3615,-640.589 44,-630 37.6795,-638.503 44.3615,-640.589"/>
</g>
<!-- node0&#45;&gt;node1 -->
<g id="edge24" class="edge"><title>node0:f1&#45;&gt;node1:f0</title>
<path fill="none" stroke="red" d="M44,-666C44,-649.241 24.5743,-649.629 16.9862,-639.568"/>
<polygon fill="red" stroke="red" points="20.3205,-638.503 14,-630 13.6385,-640.589 20.3205,-638.503"/>
</g>
<!-- node2 -->
<g id="node5" class="node"><title>node2</title>
<polygon fill="none" stroke="black" points="-0.5,-519 -0.5,-555 292.5,-555 292.5,-519 -0.5,-519"/>
<text text-anchor="middle" x="14.5" y="-533.3" font-family="Times New Roman,serif" font-size="14.00">36</text>
<polyline fill="none" stroke="black" points="29.5,-519 29.5,-555 "/>
<text text-anchor="middle" x="44.5" y="-533.3" font-family="Times New Roman,serif" font-size="14.00">53</text>
<polyline fill="none" stroke="black" points="59.5,-519 59.5,-555 "/>
<text text-anchor="middle" x="74.5" y="-533.3" font-family="Times New Roman,serif" font-size="14.00">75</text>
<polyline fill="none" stroke="black" points="89.5,-519 89.5,-555 "/>
<text text-anchor="middle" x="101" y="-533.3" font-family="Times New Roman,serif" font-size="14.00">2</text>
<polyline fill="none" stroke="black" points="112.5,-519 112.5,-555 "/>
<text text-anchor="middle" x="127.5" y="-533.3" font-family="Times New Roman,serif" font-size="14.00">60</text>
<polyline fill="none" stroke="black" points="142.5,-519 142.5,-555 "/>
<text text-anchor="middle" x="157.5" y="-533.3" font-family="Times New Roman,serif" font-size="14.00">18</text>
<polyline fill="none" stroke="black" points="172.5,-519 172.5,-555 "/>
<text text-anchor="middle" x="187.5" y="-533.3" font-family="Times New Roman,serif" font-size="14.00">65</text>
<polyline fill="none" stroke="black" points="202.5,-519 202.5,-555 "/>
<text text-anchor="middle" x="217.5" y="-533.3" font-family="Times New Roman,serif" font-size="14.00">64</text>
<polyline fill="none" stroke="black" points="232.5,-519 232.5,-555 "/>
<text text-anchor="middle" x="247.5" y="-533.3" font-family="Times New Roman,serif" font-size="14.00">55</text>
<polyline fill="none" stroke="black" points="262.5,-519 262.5,-555 "/>
<text text-anchor="middle" x="277.5" y="-533.3" font-family="Times New Roman,serif" font-size="14.00">82</text>
</g>
<!-- node1&#45;&gt;node2 -->
<!-- node1&#45;&gt;node2 -->
<!-- node1&#45;&gt;node2 -->
<g id="edge26" class="edge"><title>node1:f1&#45;&gt;node2:f2</title>
<path fill="none" stroke="blue" d="M44,-592C44,-575.241 63.4257,-575.629 71.0138,-565.568"/>
<polygon fill="blue" stroke="blue" points="74.3615,-566.589 74,-556 67.6795,-564.503 74.3615,-566.589"/>
</g>
<!-- node1&#45;&gt;node2 -->
<g id="edge28" class="edge"><title>node1:f0&#45;&gt;node2:f1</title>
<path fill="none" stroke="blue" d="M14,-592C14,-575.241 33.4257,-575.629 41.0138,-565.568"/>
<polygon fill="blue" stroke="blue" points="44.3615,-566.589 44,-556 37.6795,-564.503 44.3615,-566.589"/>
</g>
<!-- node1&#45;&gt;node2 -->
<!-- node1&#45;&gt;node2 -->
<g id="edge50" class="edge"><title>node1:f2&#45;&gt;node2:f0</title>
<path fill="none" stroke="red" d="M74,-592C74,-565.032 28.8792,-581.151 16.8939,-565.627"/>
<polygon fill="red" stroke="red" points="20.2306,-564.569 14,-556 13.5269,-566.584 20.2306,-564.569"/>
</g>
<!-- node1&#45;&gt;node2 -->
<!-- node1&#45;&gt;node2 -->
<!-- node1&#45;&gt;node2 -->
<!-- node1&#45;&gt;node2 -->
<!-- node1&#45;&gt;node2 -->
<!-- node1&#45;&gt;node2 -->
<!-- node1&#45;&gt;node2 -->
<!-- node3 -->
<g id="node19" class="node"><title>node3</title>
<polygon fill="none" stroke="black" points="-0.5,-445 -0.5,-481 292.5,-481 292.5,-445 -0.5,-445"/>
<text text-anchor="middle" x="11" y="-459.3" font-family="Times New Roman,serif" font-size="14.00">2</text>
<polyline fill="none" stroke="black" points="22.5,-445 22.5,-481 "/>
<text text-anchor="middle" x="37.5" y="-459.3" font-family="Times New Roman,serif" font-size="14.00">36</text>
<polyline fill="none" stroke="black" points="52.5,-445 52.5,-481 "/>
<text text-anchor="middle" x="67.5" y="-459.3" font-family="Times New Roman,serif" font-size="14.00">53</text>
<polyline fill="none" stroke="black" points="82.5,-445 82.5,-481 "/>
<text text-anchor="middle" x="97.5" y="-459.3" font-family="Times New Roman,serif" font-size="14.00">75</text>
<polyline fill="none" stroke="black" points="112.5,-445 112.5,-481 "/>
<text text-anchor="middle" x="127.5" y="-459.3" font-family="Times New Roman,serif" font-size="14.00">60</text>
<polyline fill="none" stroke="black" points="142.5,-445 142.5,-481 "/>
<text text-anchor="middle" x="157.5" y="-459.3" font-family="Times New Roman,serif" font-size="14.00">18</text>
<polyline fill="none" stroke="black" points="172.5,-445 172.5,-481 "/>
<text text-anchor="middle" x="187.5" y="-459.3" font-family="Times New Roman,serif" font-size="14.00">65</text>
<polyline fill="none" stroke="black" points="202.5,-445 202.5,-481 "/>
<text text-anchor="middle" x="217.5" y="-459.3" font-family="Times New Roman,serif" font-size="14.00">64</text>
<polyline fill="none" stroke="black" points="232.5,-445 232.5,-481 "/>
<text text-anchor="middle" x="247.5" y="-459.3" font-family="Times New Roman,serif" font-size="14.00">55</text>
<polyline fill="none" stroke="black" points="262.5,-445 262.5,-481 "/>
<text text-anchor="middle" x="277.5" y="-459.3" font-family="Times New Roman,serif" font-size="14.00">82</text>
</g>
<!-- node2&#45;&gt;node3 -->
<!-- node2&#45;&gt;node3 -->
<!-- node2&#45;&gt;node3 -->
<!-- node2&#45;&gt;node3 -->
<!-- node2&#45;&gt;node3 -->
<!-- node2&#45;&gt;node3 -->
<!-- node2&#45;&gt;node3 -->
<!-- node2&#45;&gt;node3 -->
<!-- node2&#45;&gt;node3 -->
<!-- node2&#45;&gt;node3 -->
<!-- node2&#45;&gt;node3 -->
<g id="edge52" class="edge"><title>node2:f2&#45;&gt;node3:f3</title>
<path fill="none" stroke="blue" d="M74,-518C74,-503.167 88.0381,-501.126 94.1797,-491.89"/>
<polygon fill="blue" stroke="blue" points="97.6234,-492.576 97,-482 90.8918,-490.657 97.6234,-492.576"/>
</g>
<!-- node2&#45;&gt;node3 -->
<g id="edge54" class="edge"><title>node2:f1&#45;&gt;node3:f2</title>
<path fill="none" stroke="blue" d="M44,-518C44,-503.167 58.0381,-501.126 64.1797,-491.89"/>
<polygon fill="blue" stroke="blue" points="67.6234,-492.576 67,-482 60.8918,-490.657 67.6234,-492.576"/>
</g>
<!-- node2&#45;&gt;node3 -->
<g id="edge56" class="edge"><title>node2:f0&#45;&gt;node3:f1</title>
<path fill="none" stroke="blue" d="M14,-518C14,-503.167 28.0381,-501.126 34.1797,-491.89"/>
<polygon fill="blue" stroke="blue" points="37.6234,-492.576 37,-482 30.8918,-490.657 37.6234,-492.576"/>
</g>
<!-- node2&#45;&gt;node3 -->
<g id="edge78" class="edge"><title>node2:f3&#45;&gt;node3:f0</title>
<path fill="none" stroke="red" d="M101,-518C101,-478.958 27.084,-516.495 13.2247,-491.812"/>
<polygon fill="red" stroke="red" points="16.6247,-490.978 11,-482 9.79802,-492.526 16.6247,-490.978"/>
</g>
<!-- node4 -->
<g id="node34" class="node"><title>node4</title>
<polygon fill="none" stroke="black" points="-0.5,-371 -0.5,-407 292.5,-407 292.5,-371 -0.5,-371"/>
<text text-anchor="middle" x="11" y="-385.3" font-family="Times New Roman,serif" font-size="14.00">2</text>
<polyline fill="none" stroke="black" points="22.5,-371 22.5,-407 "/>
<text text-anchor="middle" x="37.5" y="-385.3" font-family="Times New Roman,serif" font-size="14.00">36</text>
<polyline fill="none" stroke="black" points="52.5,-371 52.5,-407 "/>
<text text-anchor="middle" x="67.5" y="-385.3" font-family="Times New Roman,serif" font-size="14.00">53</text>
<polyline fill="none" stroke="black" points="82.5,-371 82.5,-407 "/>
<text text-anchor="middle" x="97.5" y="-385.3" font-family="Times New Roman,serif" font-size="14.00">60</text>
<polyline fill="none" stroke="black" points="112.5,-371 112.5,-407 "/>
<text text-anchor="middle" x="127.5" y="-385.3" font-family="Times New Roman,serif" font-size="14.00">75</text>
<polyline fill="none" stroke="black" points="142.5,-371 142.5,-407 "/>
<text text-anchor="middle" x="157.5" y="-385.3" font-family="Times New Roman,serif" font-size="14.00">18</text>
<polyline fill="none" stroke="black" points="172.5,-371 172.5,-407 "/>
<text text-anchor="middle" x="187.5" y="-385.3" font-family="Times New Roman,serif" font-size="14.00">65</text>
<polyline fill="none" stroke="black" points="202.5,-371 202.5,-407 "/>
<text text-anchor="middle" x="217.5" y="-385.3" font-family="Times New Roman,serif" font-size="14.00">64</text>
<polyline fill="none" stroke="black" points="232.5,-371 232.5,-407 "/>
<text text-anchor="middle" x="247.5" y="-385.3" font-family="Times New Roman,serif" font-size="14.00">55</text>
<polyline fill="none" stroke="black" points="262.5,-371 262.5,-407 "/>
<text text-anchor="middle" x="277.5" y="-385.3" font-family="Times New Roman,serif" font-size="14.00">82</text>
</g>
<!-- node3&#45;&gt;node4 -->
<!-- node3&#45;&gt;node4 -->
<!-- node3&#45;&gt;node4 -->
<!-- node3&#45;&gt;node4 -->
<!-- node3&#45;&gt;node4 -->
<!-- node3&#45;&gt;node4 -->
<!-- node3&#45;&gt;node4 -->
<!-- node3&#45;&gt;node4 -->
<!-- node3&#45;&gt;node4 -->
<!-- node3&#45;&gt;node4 -->
<!-- node3&#45;&gt;node4 -->
<g id="edge80" class="edge"><title>node3:f3&#45;&gt;node4:f4</title>
<path fill="none" stroke="blue" d="M97,-444C97,-427.241 116.426,-427.629 124.014,-417.568"/>
<polygon fill="blue" stroke="blue" points="127.362,-418.589 127,-408 120.679,-416.503 127.362,-418.589"/>
</g>
<!-- node3&#45;&gt;node4 -->
<g id="edge102" class="edge"><title>node3:f4&#45;&gt;node4:f3</title>
<path fill="none" stroke="red" d="M127,-444C127,-427.241 107.574,-427.629 99.9862,-417.568"/>
<polygon fill="red" stroke="red" points="103.321,-416.503 97,-408 96.6385,-418.589 103.321,-416.503"/>
</g>
<!-- node5 -->
<g id="node47" class="node"><title>node5</title>
<polygon fill="none" stroke="black" points="-0.5,-297 -0.5,-333 292.5,-333 292.5,-297 -0.5,-297"/>
<text text-anchor="middle" x="11" y="-311.3" font-family="Times New Roman,serif" font-size="14.00">2</text>
<polyline fill="none" stroke="black" points="22.5,-297 22.5,-333 "/>
<text text-anchor="middle" x="37.5" y="-311.3" font-family="Times New Roman,serif" font-size="14.00">18</text>
<polyline fill="none" stroke="black" points="52.5,-297 52.5,-333 "/>
<text text-anchor="middle" x="67.5" y="-311.3" font-family="Times New Roman,serif" font-size="14.00">36</text>
<polyline fill="none" stroke="black" points="82.5,-297 82.5,-333 "/>
<text text-anchor="middle" x="97.5" y="-311.3" font-family="Times New Roman,serif" font-size="14.00">53</text>
<polyline fill="none" stroke="black" points="112.5,-297 112.5,-333 "/>
<text text-anchor="middle" x="127.5" y="-311.3" font-family="Times New Roman,serif" font-size="14.00">60</text>
<polyline fill="none" stroke="black" points="142.5,-297 142.5,-333 "/>
<text text-anchor="middle" x="157.5" y="-311.3" font-family="Times New Roman,serif" font-size="14.00">75</text>
<polyline fill="none" stroke="black" points="172.5,-297 172.5,-333 "/>
<text text-anchor="middle" x="187.5" y="-311.3" font-family="Times New Roman,serif" font-size="14.00">65</text>
<polyline fill="none" stroke="black" points="202.5,-297 202.5,-333 "/>
<text text-anchor="middle" x="217.5" y="-311.3" font-family="Times New Roman,serif" font-size="14.00">64</text>
<polyline fill="none" stroke="black" points="232.5,-297 232.5,-333 "/>
<text text-anchor="middle" x="247.5" y="-311.3" font-family="Times New Roman,serif" font-size="14.00">55</text>
<polyline fill="none" stroke="black" points="262.5,-297 262.5,-333 "/>
<text text-anchor="middle" x="277.5" y="-311.3" font-family="Times New Roman,serif" font-size="14.00">82</text>
</g>
<!-- node4&#45;&gt;node5 -->
<!-- node4&#45;&gt;node5 -->
<!-- node4&#45;&gt;node5 -->
<!-- node4&#45;&gt;node5 -->
<!-- node4&#45;&gt;node5 -->
<!-- node4&#45;&gt;node5 -->
<!-- node4&#45;&gt;node5 -->
<!-- node4&#45;&gt;node5 -->
<!-- node4&#45;&gt;node5 -->
<!-- node4&#45;&gt;node5 -->
<!-- node4&#45;&gt;node5 -->
<g id="edge104" class="edge"><title>node4:f4&#45;&gt;node5:f5</title>
<path fill="none" stroke="blue" d="M127,-370C127,-353.009 147.073,-353.724 154.914,-343.65"/>
<polygon fill="blue" stroke="blue" points="158.288,-344.591 158,-334 151.621,-342.459 158.288,-344.591"/>
</g>
<!-- node4&#45;&gt;node5 -->
<g id="edge106" class="edge"><title>node4:f3&#45;&gt;node5:f4</title>
<path fill="none" stroke="blue" d="M97,-370C97,-353.241 116.426,-353.629 124.014,-343.568"/>
<polygon fill="blue" stroke="blue" points="127.362,-344.589 127,-334 120.679,-342.503 127.362,-344.589"/>
</g>
<!-- node4&#45;&gt;node5 -->
<g id="edge108" class="edge"><title>node4:f2&#45;&gt;node5:f3</title>
<path fill="none" stroke="blue" d="M67,-370C67,-353.241 86.4257,-353.629 94.0138,-343.568"/>
<polygon fill="blue" stroke="blue" points="97.3615,-344.589 97,-334 90.6795,-342.503 97.3615,-344.589"/>
</g>
<!-- node4&#45;&gt;node5 -->
<g id="edge110" class="edge"><title>node4:f1&#45;&gt;node5:f2</title>
<path fill="none" stroke="blue" d="M37,-370C37,-353.241 56.4257,-353.629 64.0138,-343.568"/>
<polygon fill="blue" stroke="blue" points="67.3615,-344.589 67,-334 60.6795,-342.503 67.3615,-344.589"/>
</g>
<!-- node4&#45;&gt;node5 -->
<g id="edge132" class="edge"><title>node4:f5&#45;&gt;node5:f1</title>
<path fill="none" stroke="red" d="M158,-370C158,-317.838 53.4174,-380.044 38.7105,-343.965"/>
<polygon fill="red" stroke="red" points="42.1415,-343.264 37,-334 35.2424,-344.448 42.1415,-343.264"/>
</g>
<!-- node6 -->
<g id="node63" class="node"><title>node6</title>
<polygon fill="none" stroke="black" points="-0.5,-223 -0.5,-259 292.5,-259 292.5,-223 -0.5,-223"/>
<text text-anchor="middle" x="11" y="-237.3" font-family="Times New Roman,serif" font-size="14.00">2</text>
<polyline fill="none" stroke="black" points="22.5,-223 22.5,-259 "/>
<text text-anchor="middle" x="37.5" y="-237.3" font-family="Times New Roman,serif" font-size="14.00">18</text>
<polyline fill="none" stroke="black" points="52.5,-223 52.5,-259 "/>
<text text-anchor="middle" x="67.5" y="-237.3" font-family="Times New Roman,serif" font-size="14.00">36</text>
<polyline fill="none" stroke="black" points="82.5,-223 82.5,-259 "/>
<text text-anchor="middle" x="97.5" y="-237.3" font-family="Times New Roman,serif" font-size="14.00">53</text>
<polyline fill="none" stroke="black" points="112.5,-223 112.5,-259 "/>
<text text-anchor="middle" x="127.5" y="-237.3" font-family="Times New Roman,serif" font-size="14.00">60</text>
<polyline fill="none" stroke="black" points="142.5,-223 142.5,-259 "/>
<text text-anchor="middle" x="157.5" y="-237.3" font-family="Times New Roman,serif" font-size="14.00">65</text>
<polyline fill="none" stroke="black" points="172.5,-223 172.5,-259 "/>
<text text-anchor="middle" x="187.5" y="-237.3" font-family="Times New Roman,serif" font-size="14.00">75</text>
<polyline fill="none" stroke="black" points="202.5,-223 202.5,-259 "/>
<text text-anchor="middle" x="217.5" y="-237.3" font-family="Times New Roman,serif" font-size="14.00">64</text>
<polyline fill="none" stroke="black" points="232.5,-223 232.5,-259 "/>
<text text-anchor="middle" x="247.5" y="-237.3" font-family="Times New Roman,serif" font-size="14.00">55</text>
<polyline fill="none" stroke="black" points="262.5,-223 262.5,-259 "/>
<text text-anchor="middle" x="277.5" y="-237.3" font-family="Times New Roman,serif" font-size="14.00">82</text>
</g>
<!-- node5&#45;&gt;node6 -->
<!-- node5&#45;&gt;node6 -->
<!-- node5&#45;&gt;node6 -->
<!-- node5&#45;&gt;node6 -->
<!-- node5&#45;&gt;node6 -->
<!-- node5&#45;&gt;node6 -->
<!-- node5&#45;&gt;node6 -->
<!-- node5&#45;&gt;node6 -->
<!-- node5&#45;&gt;node6 -->
<!-- node5&#45;&gt;node6 -->
<!-- node5&#45;&gt;node6 -->
<g id="edge134" class="edge"><title>node5:f5&#45;&gt;node6:f6</title>
<path fill="none" stroke="blue" d="M158,-296C158,-279.241 177.426,-279.629 185.014,-269.568"/>
<polygon fill="blue" stroke="blue" points="188.362,-270.589 188,-260 181.679,-268.503 188.362,-270.589"/>
</g>
<!-- node5&#45;&gt;node6 -->
<g id="edge156" class="edge"><title>node5:f6&#45;&gt;node6:f5</title>
<path fill="none" stroke="red" d="M188,-296C188,-279.241 168.574,-279.629 160.986,-269.568"/>
<polygon fill="red" stroke="red" points="164.321,-268.503 158,-260 157.638,-270.589 164.321,-268.503"/>
</g>
<!-- node7 -->
<g id="node76" class="node"><title>node7</title>
<polygon fill="none" stroke="black" points="-0.5,-149 -0.5,-185 292.5,-185 292.5,-149 -0.5,-149"/>
<text text-anchor="middle" x="11" y="-163.3" font-family="Times New Roman,serif" font-size="14.00">2</text>
<polyline fill="none" stroke="black" points="22.5,-149 22.5,-185 "/>
<text text-anchor="middle" x="37.5" y="-163.3" font-family="Times New Roman,serif" font-size="14.00">18</text>
<polyline fill="none" stroke="black" points="52.5,-149 52.5,-185 "/>
<text text-anchor="middle" x="67.5" y="-163.3" font-family="Times New Roman,serif" font-size="14.00">36</text>
<polyline fill="none" stroke="black" points="82.5,-149 82.5,-185 "/>
<text text-anchor="middle" x="97.5" y="-163.3" font-family="Times New Roman,serif" font-size="14.00">53</text>
<polyline fill="none" stroke="black" points="112.5,-149 112.5,-185 "/>
<text text-anchor="middle" x="127.5" y="-163.3" font-family="Times New Roman,serif" font-size="14.00">60</text>
<polyline fill="none" stroke="black" points="142.5,-149 142.5,-185 "/>
<text text-anchor="middle" x="157.5" y="-163.3" font-family="Times New Roman,serif" font-size="14.00">64</text>
<polyline fill="none" stroke="black" points="172.5,-149 172.5,-185 "/>
<text text-anchor="middle" x="187.5" y="-163.3" font-family="Times New Roman,serif" font-size="14.00">65</text>
<polyline fill="none" stroke="black" points="202.5,-149 202.5,-185 "/>
<text text-anchor="middle" x="217.5" y="-163.3" font-family="Times New Roman,serif" font-size="14.00">75</text>
<polyline fill="none" stroke="black" points="232.5,-149 232.5,-185 "/>
<text text-anchor="middle" x="247.5" y="-163.3" font-family="Times New Roman,serif" font-size="14.00">55</text>
<polyline fill="none" stroke="black" points="262.5,-149 262.5,-185 "/>
<text text-anchor="middle" x="277.5" y="-163.3" font-family="Times New Roman,serif" font-size="14.00">82</text>
</g>
<!-- node6&#45;&gt;node7 -->
<!-- node6&#45;&gt;node7 -->
<!-- node6&#45;&gt;node7 -->
<!-- node6&#45;&gt;node7 -->
<!-- node6&#45;&gt;node7 -->
<!-- node6&#45;&gt;node7 -->
<!-- node6&#45;&gt;node7 -->
<!-- node6&#45;&gt;node7 -->
<!-- node6&#45;&gt;node7 -->
<!-- node6&#45;&gt;node7 -->
<!-- node6&#45;&gt;node7 -->
<g id="edge158" class="edge"><title>node6:f6&#45;&gt;node7:f7</title>
<path fill="none" stroke="blue" d="M188,-222C188,-205.241 207.426,-205.629 215.014,-195.568"/>
<polygon fill="blue" stroke="blue" points="218.362,-196.589 218,-186 211.679,-194.503 218.362,-196.589"/>
</g>
<!-- node6&#45;&gt;node7 -->
<g id="edge160" class="edge"><title>node6:f5&#45;&gt;node7:f6</title>
<path fill="none" stroke="blue" d="M158,-222C158,-205.241 177.426,-205.629 185.014,-195.568"/>
<polygon fill="blue" stroke="blue" points="188.362,-196.589 188,-186 181.679,-194.503 188.362,-196.589"/>
</g>
<!-- node6&#45;&gt;node7 -->
<g id="edge182" class="edge"><title>node6:f7&#45;&gt;node7:f5</title>
<path fill="none" stroke="red" d="M218,-222C218,-195.032 172.879,-211.151 160.894,-195.627"/>
<polygon fill="red" stroke="red" points="164.231,-194.569 158,-186 157.527,-196.584 164.231,-194.569"/>
</g>
<!-- node8 -->
<g id="node90" class="node"><title>node8</title>
<polygon fill="none" stroke="black" points="-0.5,-75 -0.5,-111 292.5,-111 292.5,-75 -0.5,-75"/>
<text text-anchor="middle" x="11" y="-89.3" font-family="Times New Roman,serif" font-size="14.00">2</text>
<polyline fill="none" stroke="black" points="22.5,-75 22.5,-111 "/>
<text text-anchor="middle" x="37.5" y="-89.3" font-family="Times New Roman,serif" font-size="14.00">18</text>
<polyline fill="none" stroke="black" points="52.5,-75 52.5,-111 "/>
<text text-anchor="middle" x="67.5" y="-89.3" font-family="Times New Roman,serif" font-size="14.00">36</text>
<polyline fill="none" stroke="black" points="82.5,-75 82.5,-111 "/>
<text text-anchor="middle" x="97.5" y="-89.3" font-family="Times New Roman,serif" font-size="14.00">53</text>
<polyline fill="none" stroke="black" points="112.5,-75 112.5,-111 "/>
<text text-anchor="middle" x="127.5" y="-89.3" font-family="Times New Roman,serif" font-size="14.00">55</text>
<polyline fill="none" stroke="black" points="142.5,-75 142.5,-111 "/>
<text text-anchor="middle" x="157.5" y="-89.3" font-family="Times New Roman,serif" font-size="14.00">60</text>
<polyline fill="none" stroke="black" points="172.5,-75 172.5,-111 "/>
<text text-anchor="middle" x="187.5" y="-89.3" font-family="Times New Roman,serif" font-size="14.00">64</text>
<polyline fill="none" stroke="black" points="202.5,-75 202.5,-111 "/>
<text text-anchor="middle" x="217.5" y="-89.3" font-family="Times New Roman,serif" font-size="14.00">65</text>
<polyline fill="none" stroke="black" points="232.5,-75 232.5,-111 "/>
<text text-anchor="middle" x="247.5" y="-89.3" font-family="Times New Roman,serif" font-size="14.00">75</text>
<polyline fill="none" stroke="black" points="262.5,-75 262.5,-111 "/>
<text text-anchor="middle" x="277.5" y="-89.3" font-family="Times New Roman,serif" font-size="14.00">82</text>
</g>
<!-- node7&#45;&gt;node8 -->
<g id="edge212" class="edge"><title>node7:f8&#45;&gt;node8:f4</title>
<path fill="none" stroke="red" d="M248,-148C248,-95.8376 143.417,-158.044 128.71,-121.965"/>
<polygon fill="red" stroke="red" points="132.141,-121.264 127,-112 125.242,-122.448 132.141,-121.264"/>
</g>
<!-- node7&#45;&gt;node8 -->
<!-- node7&#45;&gt;node8 -->
<!-- node7&#45;&gt;node8 -->
<!-- node7&#45;&gt;node8 -->
<!-- node7&#45;&gt;node8 -->
<!-- node7&#45;&gt;node8 -->
<!-- node7&#45;&gt;node8 -->
<!-- node7&#45;&gt;node8 -->
<!-- node7&#45;&gt;node8 -->
<!-- node7&#45;&gt;node8 -->
<!-- node7&#45;&gt;node8 -->
<g id="edge184" class="edge"><title>node7:f7&#45;&gt;node8:f8</title>
<path fill="none" stroke="blue" d="M218,-148C218,-131.241 237.426,-131.629 245.014,-121.568"/>
<polygon fill="blue" stroke="blue" points="248.362,-122.589 248,-112 241.679,-120.503 248.362,-122.589"/>
</g>
<!-- node7&#45;&gt;node8 -->
<g id="edge186" class="edge"><title>node7:f6&#45;&gt;node8:f7</title>
<path fill="none" stroke="blue" d="M188,-148C188,-131.241 207.426,-131.629 215.014,-121.568"/>
<polygon fill="blue" stroke="blue" points="218.362,-122.589 218,-112 211.679,-120.503 218.362,-122.589"/>
</g>
<!-- node7&#45;&gt;node8 -->
<g id="edge188" class="edge"><title>node7:f5&#45;&gt;node8:f6</title>
<path fill="none" stroke="blue" d="M158,-148C158,-131.241 177.426,-131.629 185.014,-121.568"/>
<polygon fill="blue" stroke="blue" points="188.362,-122.589 188,-112 181.679,-120.503 188.362,-122.589"/>
</g>
<!-- node7&#45;&gt;node8 -->
<g id="edge190" class="edge"><title>node7:f4&#45;&gt;node8:f5</title>
<path fill="none" stroke="blue" d="M127,-148C127,-131.009 147.073,-131.724 154.914,-121.65"/>
<polygon fill="blue" stroke="blue" points="158.288,-122.591 158,-112 151.621,-120.459 158.288,-122.591"/>
</g>
<!-- node9 -->
<g id="node106" class="node"><title>node9</title>
<polygon fill="none" stroke="black" points="-0.5,-1 -0.5,-37 292.5,-37 292.5,-1 -0.5,-1"/>
<text text-anchor="middle" x="11" y="-15.3" font-family="Times New Roman,serif" font-size="14.00">2</text>
<polyline fill="none" stroke="black" points="22.5,-1 22.5,-37 "/>
<text text-anchor="middle" x="37.5" y="-15.3" font-family="Times New Roman,serif" font-size="14.00">18</text>
<polyline fill="none" stroke="black" points="52.5,-1 52.5,-37 "/>
<text text-anchor="middle" x="67.5" y="-15.3" font-family="Times New Roman,serif" font-size="14.00">36</text>
<polyline fill="none" stroke="black" points="82.5,-1 82.5,-37 "/>
<text text-anchor="middle" x="97.5" y="-15.3" font-family="Times New Roman,serif" font-size="14.00">53</text>
<polyline fill="none" stroke="black" points="112.5,-1 112.5,-37 "/>
<text text-anchor="middle" x="127.5" y="-15.3" font-family="Times New Roman,serif" font-size="14.00">55</text>
<polyline fill="none" stroke="black" points="142.5,-1 142.5,-37 "/>
<text text-anchor="middle" x="157.5" y="-15.3" font-family="Times New Roman,serif" font-size="14.00">60</text>
<polyline fill="none" stroke="black" points="172.5,-1 172.5,-37 "/>
<text text-anchor="middle" x="187.5" y="-15.3" font-family="Times New Roman,serif" font-size="14.00">64</text>
<polyline fill="none" stroke="black" points="202.5,-1 202.5,-37 "/>
<text text-anchor="middle" x="217.5" y="-15.3" font-family="Times New Roman,serif" font-size="14.00">65</text>
<polyline fill="none" stroke="black" points="232.5,-1 232.5,-37 "/>
<text text-anchor="middle" x="247.5" y="-15.3" font-family="Times New Roman,serif" font-size="14.00">75</text>
<polyline fill="none" stroke="black" points="262.5,-1 262.5,-37 "/>
<text text-anchor="middle" x="277.5" y="-15.3" font-family="Times New Roman,serif" font-size="14.00">82</text>
</g>
<!-- node8&#45;&gt;node9 -->
<!-- node8&#45;&gt;node9 -->
<!-- node8&#45;&gt;node9 -->
<!-- node8&#45;&gt;node9 -->
<!-- node8&#45;&gt;node9 -->
<!-- node8&#45;&gt;node9 -->
<g id="edge214" class="edge"><title>node8:f9&#45;&gt;node9:f9</title>
<path fill="none" stroke="red" d="M278.209,-73.6272C284.955,-61.5864 286.483,-56.3937 282.793,-47.4554"/>
<polygon fill="red" stroke="red" points="285.838,-45.7203 278.208,-38.3699 279.589,-48.8743 285.838,-45.7203"/>
</g>
<!-- node8&#45;&gt;node9 -->
<!-- node8&#45;&gt;node9 -->
<!-- node8&#45;&gt;node9 -->
<!-- node8&#45;&gt;node9 -->
<!-- node8&#45;&gt;node9 -->
</g>
</svg>
