<?xml version="1.0" encoding="iso-8859-1"?>
<!-- Generator: Adobe Illustrator 19.0.0, SVG Export Plug-In . SVG Version: 6.00 Build 0)  -->
<svg version="1.1" id="Layer_1" xmlns="http://www.w3.org/2000/svg" xmlns:xlink="http://www.w3.org/1999/xlink" x="0px" y="0px"
	 viewBox="0 0 490.667 490.667" style="enable-background:new 0 0 490.667 490.667;" xml:space="preserve">
<g>
	<g>
		<path d="M437.333,0h-384C23.936,0,0,23.936,0,53.333V352c0,29.397,23.936,53.333,53.333,53.333h160v21.333h-74.667
			c-29.397,0-53.333,23.936-53.333,53.333c0,5.888,4.779,10.667,10.667,10.667h298.667c5.888,0,10.667-4.779,10.667-10.667
			c0-29.397-23.936-53.333-53.333-53.333h-74.667v-21.333h160c29.397,0,53.333-23.936,53.333-53.333V53.333
			C490.667,23.936,466.731,0,437.333,0z M351.979,448c13.909,0,25.771,8.917,30.187,21.333H108.48
			C112.896,456.917,124.757,448,138.645,448H351.979z M234.667,426.667v-21.333H256v21.333H234.667z M469.333,352
			c0,17.643-14.357,32-32,32h-384c-17.643,0-32-14.357-32-32v-10.667h448V352z M469.333,320h-448V53.333c0-17.643,14.357-32,32-32
			h384c17.643,0,32,14.357,32,32V320z"/>
	</g>
</g>
<g>
	<g>
		<path d="M270.763,64.811c-3.989-1.685-8.576-0.747-11.627,2.304l-21.333,21.333c-4.16,4.16-4.16,10.923,0,15.083
			c4.16,4.16,10.923,4.16,15.083,0l3.115-3.115v38.251c0,5.888,4.779,10.667,10.667,10.667s10.667-4.779,10.688-10.667v-64
			C277.355,70.357,274.752,66.453,270.763,64.811z"/>
	</g>
</g>
<g>
	<g>
		<path d="M334.763,64.811c-4.011-1.685-8.576-0.747-11.627,2.304l-21.333,21.333c-4.16,4.16-4.16,10.923,0,15.083
			c4.16,4.16,10.923,4.16,15.083,0l3.115-3.115v38.251c0,5.888,4.779,10.667,10.667,10.667c5.888,0,10.667-4.779,10.667-10.667v-64
			C341.333,70.357,338.731,66.453,334.763,64.811z"/>
	</g>
</g>
<g>
	<g>
		<path d="M202.667,64H160c-5.888,0-10.667,4.779-10.667,10.667v64c0,5.888,4.779,10.667,10.667,10.667h42.667
			c5.888,0,10.667-4.779,10.667-10.667v-64C213.333,68.779,208.555,64,202.667,64z M192,128h-21.333V85.333H192V128z"/>
	</g>
</g>
<g>
	<g>
		<path d="M117.333,64H74.667C68.779,64,64,68.779,64,74.667v64c0,5.888,4.779,10.667,10.667,10.667h42.667
			c5.888,0,10.667-4.779,10.667-10.667v-64C128,68.779,123.221,64,117.333,64z M106.667,128H85.333V85.333h21.333V128z"/>
	</g>
</g>
<g>
	<g>
		<path d="M416,64h-42.667c-5.888,0-10.667,4.779-10.667,10.667v64c0,5.888,4.779,10.667,10.667,10.667H416
			c5.888,0,10.667-4.779,10.667-10.667v-64C426.667,68.779,421.888,64,416,64z M405.333,128H384V85.333h21.333V128z"/>
	</g>
</g>
<g>
	<g>
		<path d="M185.429,192.811c-3.989-1.664-8.555-0.747-11.627,2.304l-21.333,21.333c-4.16,4.16-4.16,10.923,0,15.083
			c4.16,4.16,10.923,4.16,15.083,0l3.115-3.115v38.251c0,5.888,4.779,10.667,10.667,10.667s10.667-4.779,10.688-10.667v-64
			C192.021,198.357,189.419,194.453,185.429,192.811z"/>
	</g>
</g>
<g>
	<g>
		<path d="M334.763,192.811c-4.011-1.664-8.576-0.747-11.627,2.304l-21.333,21.333c-4.16,4.16-4.16,10.923,0,15.083
			c4.16,4.16,10.923,4.16,15.083,0l3.115-3.115v38.251c0,5.888,4.779,10.667,10.667,10.667c5.888,0,10.667-4.779,10.667-10.667v-64
			C341.333,198.357,338.731,194.453,334.763,192.811z"/>
	</g>
</g>
<g>
	<g>
		<path d="M266.667,192H224c-5.888,0-10.667,4.779-10.667,10.667v64c0,5.888,4.779,10.667,10.667,10.667h42.667
			c5.888,0,10.667-4.779,10.667-10.667v-64C277.333,196.779,272.555,192,266.667,192z M256,256h-21.333v-42.667H256V256z"/>
	</g>
</g>
<g>
	<g>
		<path d="M117.333,192H74.667C68.779,192,64,196.779,64,202.667v64c0,5.888,4.779,10.667,10.667,10.667h42.667
			c5.888,0,10.667-4.779,10.667-10.667v-64C128,196.779,123.221,192,117.333,192z M106.667,256H85.333v-42.667h21.333V256z"/>
	</g>
</g>
<g>
	<g>
		<path d="M416,192h-42.667c-5.888,0-10.667,4.779-10.667,10.667v64c0,5.888,4.779,10.667,10.667,10.667H416
			c5.888,0,10.667-4.779,10.667-10.667v-64C426.667,196.779,421.888,192,416,192z M405.333,256H384v-42.667h21.333V256z"/>
	</g>
</g>
<g>
</g>
<g>
</g>
<g>
</g>
<g>
</g>
<g>
</g>
<g>
</g>
<g>
</g>
<g>
</g>
<g>
</g>
<g>
</g>
<g>
</g>
<g>
</g>
<g>
</g>
<g>
</g>
<g>
</g>
</svg>
