<?xml version="1.0" encoding="UTF-8" standalone="no"?>
<!DOCTYPE svg PUBLIC "-//W3C//DTD SVG 1.1//EN"
 "http://www.w3.org/Graphics/SVG/1.1/DTD/svg11.dtd">
<!-- Generated by graphviz version 2.28.0 (20110507.0327)
 -->
<!-- Title: G Pages: 1 -->
<svg width="405pt" height="198pt"
 viewBox="0.00 0.00 405.00 198.00" xmlns="http://www.w3.org/2000/svg" xmlns:xlink="http://www.w3.org/1999/xlink">
<g id="graph1" class="graph" transform="scale(1 1) rotate(0) translate(4 194)">
<title>G</title>
<polygon fill="white" stroke="white" points="-4,5 -4,-194 402,-194 402,5 -4,5"/>
<!-- node0 -->
<g id="node1" class="node"><title>node0</title>
<polygon fill="none" stroke="black" points="97,-153 97,-189 397,-189 397,-153 97,-153"/>
<text text-anchor="middle" x="112" y="-167.3" font-family="Times New Roman,serif" font-size="14.00">15</text>
<polyline fill="none" stroke="black" points="127,-153 127,-189 "/>
<text text-anchor="middle" x="142" y="-167.3" font-family="Times New Roman,serif" font-size="14.00">57</text>
<polyline fill="none" stroke="black" points="157,-153 157,-189 "/>
<text text-anchor="middle" x="172" y="-167.3" font-family="Times New Roman,serif" font-size="14.00">14</text>
<polyline fill="none" stroke="black" points="187,-153 187,-189 "/>
<text text-anchor="middle" x="202" y="-167.3" font-family="Times New Roman,serif" font-size="14.00">22</text>
<polyline fill="none" stroke="black" points="217,-153 217,-189 "/>
<text text-anchor="middle" x="232" y="-167.3" font-family="Times New Roman,serif" font-size="14.00">72</text>
<polyline fill="none" stroke="black" points="247,-153 247,-189 "/>
<text text-anchor="middle" x="262" y="-167.3" font-family="Times New Roman,serif" font-size="14.00">79</text>
<polyline fill="none" stroke="black" points="277,-153 277,-189 "/>
<text text-anchor="middle" x="292" y="-167.3" font-family="Times New Roman,serif" font-size="14.00">26</text>
<polyline fill="none" stroke="black" points="307,-153 307,-189 "/>
<text text-anchor="middle" x="322" y="-167.3" font-family="Times New Roman,serif" font-size="14.00">56</text>
<polyline fill="none" stroke="black" points="337,-153 337,-189 "/>
<text text-anchor="middle" x="352" y="-167.3" font-family="Times New Roman,serif" font-size="14.00">42</text>
<polyline fill="none" stroke="black" points="367,-153 367,-189 "/>
<text text-anchor="middle" x="382" y="-167.3" font-family="Times New Roman,serif" font-size="14.00">40</text>
</g>
<!-- node1 -->
<g id="node5" class="node"><title>node1</title>
<polygon fill="none" stroke="black" points="97,-77 97,-113 397,-113 397,-77 97,-77"/>
<text text-anchor="middle" x="112" y="-91.3" font-family="Times New Roman,serif" font-size="14.00">14</text>
<polyline fill="none" stroke="black" points="127,-77 127,-113 "/>
<text text-anchor="middle" x="142" y="-91.3" font-family="Times New Roman,serif" font-size="14.00">57</text>
<polyline fill="none" stroke="black" points="157,-77 157,-113 "/>
<text text-anchor="middle" x="172" y="-91.3" font-family="Times New Roman,serif" font-size="14.00">14</text>
<polyline fill="none" stroke="black" points="187,-77 187,-113 "/>
<text text-anchor="middle" x="202" y="-91.3" font-family="Times New Roman,serif" font-size="14.00">22</text>
<polyline fill="none" stroke="black" points="217,-77 217,-113 "/>
<text text-anchor="middle" x="232" y="-91.3" font-family="Times New Roman,serif" font-size="14.00">72</text>
<polyline fill="none" stroke="black" points="247,-77 247,-113 "/>
<text text-anchor="middle" x="262" y="-91.3" font-family="Times New Roman,serif" font-size="14.00">79</text>
<polyline fill="none" stroke="black" points="277,-77 277,-113 "/>
<text text-anchor="middle" x="292" y="-91.3" font-family="Times New Roman,serif" font-size="14.00">26</text>
<polyline fill="none" stroke="black" points="307,-77 307,-113 "/>
<text text-anchor="middle" x="322" y="-91.3" font-family="Times New Roman,serif" font-size="14.00">56</text>
<polyline fill="none" stroke="black" points="337,-77 337,-113 "/>
<text text-anchor="middle" x="352" y="-91.3" font-family="Times New Roman,serif" font-size="14.00">42</text>
<polyline fill="none" stroke="black" points="367,-77 367,-113 "/>
<text text-anchor="middle" x="382" y="-91.3" font-family="Times New Roman,serif" font-size="14.00">40</text>
</g>
<!-- node0&#45;&gt;node1 -->
<g id="edge4" class="edge"><title>node0:f0&#45;&gt;node1:f0</title>
</g>
<!-- node2 -->
<g id="node2" class="node"><title>node2</title>
<polygon fill="none" stroke="black" points="97,-1 97,-37 397,-37 397,-1 97,-1"/>
<text text-anchor="middle" x="112" y="-15.3" font-family="Times New Roman,serif" font-size="14.00">14</text>
<polyline fill="none" stroke="black" points="127,-1 127,-37 "/>
<text text-anchor="middle" x="142" y="-15.3" font-family="Times New Roman,serif" font-size="14.00">57</text>
<polyline fill="none" stroke="black" points="157,-1 157,-37 "/>
<text text-anchor="middle" x="172" y="-15.3" font-family="Times New Roman,serif" font-size="14.00">14</text>
<polyline fill="none" stroke="black" points="187,-1 187,-37 "/>
<text text-anchor="middle" x="202" y="-15.3" font-family="Times New Roman,serif" font-size="14.00">22</text>
<polyline fill="none" stroke="black" points="217,-1 217,-37 "/>
<text text-anchor="middle" x="232" y="-15.3" font-family="Times New Roman,serif" font-size="14.00">72</text>
<polyline fill="none" stroke="black" points="247,-1 247,-37 "/>
<text text-anchor="middle" x="262" y="-15.3" font-family="Times New Roman,serif" font-size="14.00">79</text>
<polyline fill="none" stroke="black" points="277,-1 277,-37 "/>
<text text-anchor="middle" x="292" y="-15.3" font-family="Times New Roman,serif" font-size="14.00">26</text>
<polyline fill="none" stroke="black" points="307,-1 307,-37 "/>
<text text-anchor="middle" x="322" y="-15.3" font-family="Times New Roman,serif" font-size="14.00">56</text>
<polyline fill="none" stroke="black" points="337,-1 337,-37 "/>
<text text-anchor="middle" x="352" y="-15.3" font-family="Times New Roman,serif" font-size="14.00">42</text>
<polyline fill="none" stroke="black" points="367,-1 367,-37 "/>
<text text-anchor="middle" x="382" y="-15.3" font-family="Times New Roman,serif" font-size="14.00">40</text>
</g>
<!-- node2&#45;&gt;node2 -->
<g id="edge2" class="edge"><title>node2:f0&#45;&gt;node2:f2</title>
<path fill="none" stroke="red" d="M96.8535,-24.6621C85.3347,-27.7897 79,-25.9023 79,-19 79,-11.0128 105.154,-9.7409 146.766,-15.1843"/>
<polygon fill="red" stroke="red" points="146.378,-18.6641 156.766,-16.5786 147.345,-11.7312 146.378,-18.6641"/>
<text text-anchor="middle" x="39.5" y="-15.3" font-family="Times New Roman,serif" font-size="14.00">list[2] = list[0]</text>
</g>
<!-- node1&#45;&gt;node2 -->
<g id="edge6" class="edge"><title>node1:f0&#45;&gt;node2:f0</title>
</g>
<!-- node1&#45;&gt;node1 -->
<g id="edge8" class="edge"><title>node1:f2&#45;&gt;node1:f0</title>
<path fill="none" stroke="blue" d="M156.766,-97.4214C109.388,-104.417 79,-103.609 79,-95 79,-90.4703 81.7281,-88.1004 86.8592,-87.8903"/>
<polygon fill="blue" stroke="blue" points="86.455,-91.3682 96.8535,-89.3379 87.4585,-84.4405 86.455,-91.3682"/>
<text text-anchor="middle" x="39.5" y="-91.3" font-family="Times New Roman,serif" font-size="14.00">list[0] = list[2]</text>
</g>
</g>
</svg>
