<?xml version="1.0" encoding="utf-8"?>
<!-- Designed by Vexels.com - 2018 All Rights Reserved - https://vexels.com/terms-and-conditions/  -->
<svg version="1.1" id="Layer_1" xmlns="http://www.w3.org/2000/svg" xmlns:xlink="http://www.w3.org/1999/xlink" x="0px" y="0px"
	 viewBox="0 0 1200 1200" enable-background="new 0 0 1200 1200" xml:space="preserve">
<g>
	<path d="M792.547,1095.166c-1.297-12.019-2.193-41.629-2.193-41.629l-118.47-1.59c-21.819-2.286-45.598-3.542-70.486-3.542
		c-18.055,0-35.525,0.662-52.088,1.898l-141.454-1.898l1.79,54.981c0,0,0.224,0.001,0.653,0.004
		c8.04,26.095,90.521,46.609,191.099,46.609c105.901,0,191.751-22.743,191.751-50.797
		C793.149,1097.844,792.942,1096.498,792.547,1095.166z"/>
	<g>
		<path d="M581.929,938.046c-32.659,31.915-69.674,68.087-80.751,137.922c-0.041,0.259-0.064,0.516-0.083,0.773h18.357
			c10.523-62.523,43.367-94.655,75.156-125.721c28.981-28.321,56.356-55.071,60.75-100.824
			c5.973-62.184-18.588-91.733-47.028-125.947c-16.859-20.281-35.967-69.186-51.987-102.977
			c-27.265-57.511-7.265-114.354,8.85-138.874c2.752-4.187,1.588-9.811-2.598-12.562c-4.187-2.752-9.811-1.587-12.562,2.598
			c-12.085,18.388-20.816,42.86-23.953,67.141c-3.999,30.955,0.797,61.892,13.87,89.469c17,35.858,36.884,85.696,54.428,106.802
			c27.966,33.645,48.172,57.954,42.922,112.618C633.54,887.611,609.623,910.984,581.929,938.046z"/>
		<g>
			<path d="M715.556,391.3c-3.266-1.136-7.267,7.894-13.567,18.667c-4.064,6.074-9.078,10.344-14.082,13.351
				c6.748-2.731,15.829-6.425,16.603-6.833c0,0,8.407-11.161,11.077-15.584C718.261,396.477,718.823,392.441,715.556,391.3z"/>
			<path d="M689.975,409.733c7.545-9.907,12.677-19.144,3.266-20.454c-6.152-0.857-11.431,13.087-20.116,26.26
				c-4.2,6.369-9.017,11.586-13.676,15.487l3.487-0.514l2.45-0.361C667.495,429.754,682.428,419.643,689.975,409.733z"/>
			<path d="M470.17,288.619l-9.05,5.725c1.189,1.1,4.847,3.916,14.394,7.895c0.146-2.254-0.059-5.028,0.146-8.747
				C476.109,285.333,470.17,288.619,470.17,288.619z"/>
			<path d="M469.959,255.703l-7.072,7.121c0.434,1.249,2.347,4.458,10.674,6.046c0.725-2.277,0.73-4.904,1.214-8.386
				C475.713,253.76,469.959,255.703,469.959,255.703z"/>
			<path d="M471.679,361.454c-1.771,0.328-3.386,0.429-4.664,0.04l-0.302,0.308l12.346,2.422
				C477.846,360.595,475.005,360.838,471.679,361.454z"/>
			<path d="M471.747,326.52c-1.056,0.196-3.459,1.407-5.706,1.52c3.712,1.772,8.965,3.048,10.425,3.383
				C476.453,325.871,473.785,326.14,471.747,326.52z"/>
			<path d="M472.492,134.076c0.411,0.449,0.864,0.889,1.37,1.316c7.13-9.258,9.57-17.315,9.779-27.154
				C471.403,117.483,469.804,128.897,472.492,134.076z"/>
			<path d="M479.745,146.065c-2.205,1.063-12.739,7.823-14.235,18.573c-1.011-0.578-1.519-2.758-1.569-5.61
				c-0.4,2.471,0.036,6.738,6.122,10.34C476.985,162.499,479.864,154.492,479.745,146.065z"/>
			<path d="M473.182,217.781c0,0-8.289,10.42-10.993,11.06c1.084,1.244,4.683,4.791,11.161,5.832
				c1.185-1.77,2.105-3.682,2.369-5.576C476.656,222.374,473.182,217.781,473.182,217.781z"/>
			<path d="M472.765,181.404c-2.181,1.054-7.372,4.394-10.317,15.392c0.482,1.577,2.283,4.123,8.464,6.482
				c1.502-2.703,2.726-6.121,3.624-9.975C476.234,185.999,474.971,180.345,472.765,181.404z"/>
			<path d="M474.301,306.526c0.565-0.884,0.888-1.829,1.062-2.893C475.09,304.573,474.73,305.542,474.301,306.526z"/>
			<path d="M720.579,231.484l1.583-17.158c0,0-19.283-3.772-54.426-9.245l-0.504,20.232c13.837,1.755,24.346,3.243,28.602,3.936
				c8.405,1.372,17.843,2.395,25.383,4.856l-0.392-0.811l1.026-1.981C721.062,231.452,720.579,231.484,720.579,231.484z"/>
			<path d="M494.234,356.381c-1.185-0.17-8.752-0.545-7.187,7.9c1.56,8.44,8.956,9.467,17.397,7.903
				c30.982-3.781,90.21-1.676,137.783,1l0.497-20.904C540.294,344.722,495.408,356.542,494.234,356.381z"/>
			<path d="M494.427,282.444c-11.203,2.076-11.634,8.078-10.645,15.493c0.992,7.412,15.966,1.418,33.735-1.368
				c17.77-2.778,45.278-2.99,67.418-2.329c10.964,0.325,34.708,2.133,59.07,4.269l0.475-19.972
				c-14.625-1.366-29.581-2.809-43.03-4.231C553.253,269.215,505.628,280.365,494.427,282.444z"/>
			<path d="M502.914,169.245c-13.171,4.629-16.285,6.624-17.608,16.142c-1.324,9.515,5.693,8.47,5.693,8.47
				s2.024-2.95,44.455-11.593c25.248-5.143,72.218-1.822,111.25,2.766l0.557-23.396
				C547.187,147.498,515.411,164.853,502.914,169.245z"/>
			<path d="M504.087,117.272c39.272-20.806,81.982-14.049,81.982-14.049c19.57,1.135,41.981,4.356,62.393,7.954l0.494-20.765
				c-96.871-17.081-128.82,1.155-141.203,6.351c-13.739,5.765-14.057,10.978-14.546,17.375
				C492.719,120.536,494.936,122.059,504.087,117.272z"/>
			<path d="M720.135,249.205c0,0-23.251-2.992-53.335-6.555l-0.51,20.493c24.286,2.905,46.101,5.639,54.398,7.077l0.466-5.109
				l0.4-14.497L720.135,249.205z"/>
			<path d="M492.203,246.166c-6.279,1.546-10.005,5.069-9.179,13.672c0.824,8.603,9.018,4.895,25.814,0.364
				c16.796-4.531,48.651-9.799,85.24-5.513c13.159,1.542,31.777,3.686,50.827,5.923l0.487-20.454
				c-19.019-2.174-39.109-4.356-56.936-6.053C533.41,228.866,498.481,244.614,492.203,246.166z"/>
			<path d="M499.473,205.548c-9.615,2.297-14.76,4.412-15.577,13.186c-0.815,8.775,4.224,10.289,4.224,10.289
				s13.51-7.009,43.774-12.495c19.123-3.465,72.737,1.421,113.913,6.188l0.497-20.881c-7.2-1.061-14.863-2.162-22.986-3.292
				C557.389,190.169,509.092,203.249,499.473,205.548z"/>
			<path d="M490.764,320.329c-5.717,0.416-5.012,6.983-4.261,10.317c0.743,3.338,1.097,6.623,1.097,6.623s19.913-3.696,45.322-6.222
				c28.123-1.221,72.125,1.337,110.203,4.372l0.418-17.553c-19.925-1.681-39.662-3.492-53.109-5.08
				C552.26,308.277,496.481,319.914,490.764,320.329z"/>
			<path d="M719.472,285.894c-1.32-0.654-24.755-2.746-53.615-5.385l-0.497,19.942c17.159,1.616,32.762,3.226,42.175,4.389
				c4.538,0.562,8.355,1.074,11.577,1.597l0.629-7.979C719.741,298.459,721.741,287.017,719.472,285.894z"/>
			<path d="M722.372,177.979c-0.605-1.257-8.8-5.085-53.638-12.966l-0.567,22.758c17.007,2.346,30.773,4.663,37.844,6.117
				c6.991,1.436,12.417,2.824,16.596,4.393l-0.736-2.186C721.87,196.096,723,179.278,722.372,177.979z"/>
			<path d="M715.577,125.589c0,0,1.091-8.224,1.302-12.638c0.209-4.417-7.387-7.899-33.795-15.619
				c-4.305-0.979-8.495-1.891-12.594-2.752l-0.514,20.643c21.418,4.269,37.646,8.191,40.886,9.015
				c1.22,0.31,2.865,0.755,4.726,1.355L715.577,125.589z"/>
			<path d="M495.16,137.853c-6.389,2.345-7.052,7.099-7.31,14.745c-0.258,7.641,5.219,3.152,13.979-1.691
				c29.228-12.501,70.205-13.664,91.727-11.479c11.252,1.143,32.385,4.327,54.046,7.842l0.515-21.655
				c-16.596-2.497-35.303-4.919-54.918-6.85C533.794,112.919,501.547,135.51,495.16,137.853z"/>
			<path d="M718.984,324.22l-1.531-0.616c0,0-24.09-1.711-52.57-3.988l-0.438,17.596c27.011,2.391,47.964,4.684,52.794,5.357
				l0.933-7.505l0.857-2.458c-0.507,0.009-0.807-0.006-0.807-0.006L718.984,324.22z"/>
			<path d="M718.909,159.31l1.526-16.763c0,0,1.75-0.969-7.487-4.278c-4.782-1.71-20.772-5.306-43.319-9.189l-0.542,21.752
				c12.151,2.055,23.44,4.031,32.037,5.595c7.395,1.346,13.415,2.834,18.271,4.535l0.726-1.371
				C719.365,159.451,718.909,159.31,718.909,159.31z"/>
			<path d="M664.023,354.118l-0.507,20.343c26.676,1.693,46.461,3.286,49.783,3.509c0,0,0.002,0,0.003,0l2.207-11.391l1.844-7.423
				C717.353,359.156,712.168,358.432,664.023,354.118z"/>
			<path fill="#FFD1FF" d="M628.227,54.75c1.138,0.252,2.264,0.504,3.376,0.756C630.49,55.253,629.365,55.002,628.227,54.75z"/>
			<path fill="#FFD1FF" d="M567.285,51.662c1.52-0.232,3.059-0.442,4.619-0.628C570.344,51.22,568.805,51.43,567.285,51.662z"/>
			<path fill="#FFD1FF" d="M692.585,74.258c0.469,0.21,0.931,0.419,1.388,0.628C693.516,74.676,693.054,74.467,692.585,74.258z"/>
			<path fill="#FFD1FF" d="M690.754,73.454c0.488,0.211,0.968,0.422,1.444,0.632C691.722,73.875,691.241,73.664,690.754,73.454z"/>
			<path fill="#FFD1FF" d="M594.97,50.106c1.292,0.048,2.595,0.114,3.908,0.196C597.565,50.22,596.261,50.154,594.97,50.106z"/>
			<path fill="#FFD1FF" d="M682.531,70.131c0.691,0.262,1.371,0.524,2.042,0.786C683.903,70.655,683.223,70.393,682.531,70.131z"/>
			<path fill="#FFD1FF" d="M694.348,75.057c0.474,0.219,0.941,0.438,1.403,0.657C695.289,75.495,694.822,75.276,694.348,75.057z"/>
			<path fill="#FFD1FF" d="M572.181,51.001c1.617-0.19,3.252-0.357,4.911-0.495C575.433,50.645,573.797,50.811,572.181,51.001z"/>
			<path fill="#FFD1FF" d="M590.701,50.006c1.355,0.012,2.723,0.043,4.102,0.093C593.424,50.05,592.056,50.018,590.701,50.006z"/>
			<path fill="#FFD1FF" d="M631.771,55.544c1.113,0.252,2.213,0.505,3.3,0.757C633.984,56.048,632.884,55.796,631.771,55.544z"/>
			<path fill="#FFD1FF" d="M688.849,72.645c0.514,0.215,1.022,0.43,1.523,0.645C689.871,73.074,689.364,72.859,688.849,72.645z"/>
			<path fill="#FFD1FF" d="M686.864,71.828c0.551,0.223,1.095,0.446,1.633,0.669C687.96,72.274,687.415,72.051,686.864,71.828z"/>
			<path fill="#FFD1FF" d="M684.775,70.996c0.604,0.237,1.201,0.474,1.789,0.71C685.976,71.469,685.379,71.233,684.775,70.996z"/>
			<path fill="#FFD1FF" d="M557.653,53.471c1.444-0.324,2.912-0.625,4.397-0.909C560.565,52.846,559.097,53.147,557.653,53.471z"/>
			<path fill="#FFD1FF" d="M599.237,50.324c2.793,0.181,5.632,0.437,8.519,0.779C604.869,50.761,602.03,50.504,599.237,50.324z"/>
			<path fill="#FFD1FF" d="M718.765,90.686c0.28,0.265,0.554,0.53,0.824,0.796C719.319,91.217,719.045,90.952,718.765,90.686z"/>
			<path fill="#FFD1FF" d="M719.783,91.674c0.321,0.32,0.637,0.64,0.943,0.96C720.42,92.313,720.104,91.993,719.783,91.674z"/>
			<path fill="#FFD1FF" d="M562.437,52.487c1.456-0.274,2.933-0.526,4.427-0.759C565.37,51.961,563.893,52.212,562.437,52.487z"/>
			<path fill="#FFD1FF" d="M716.405,88.566c0.758,0.646,1.479,1.293,2.169,1.94C717.885,89.859,717.163,89.212,716.405,88.566z"/>
			<path fill="#FFD1FF" d="M711.016,84.415c0.468,0.327,0.925,0.655,1.372,0.982C711.941,85.07,711.484,84.742,711.016,84.415z"/>
			<path fill="#FFD1FF" d="M624.511,53.938c1.202,0.259,2.39,0.519,3.564,0.778C626.901,54.457,625.713,54.197,624.511,53.938z"/>
			<path fill="#FFD1FF" d="M696.039,75.851c0.542,0.258,1.075,0.517,1.6,0.775C697.114,76.367,696.581,76.109,696.039,75.851z"/>
			<path fill="#FFD1FF" d="M712.49,85.472c0.904,0.664,1.766,1.328,2.59,1.994C714.257,86.8,713.394,86.136,712.49,85.472z"/>
			<path fill="#FFD1FF" d="M715.167,87.536c0.373,0.302,0.737,0.605,1.094,0.907C715.904,88.141,715.539,87.838,715.167,87.536z"/>
			<path fill="#FFC666" d="M669.087,150.832l0.542-21.752c22.547,3.883,38.538,7.479,43.319,9.189
				c9.237,3.309,7.487,4.278,7.487,4.278l-1.526,16.763c0,0,0.456,0.141,1.213,0.281c3.452,0.639,13.268,1.254,15.727-11.663
				c1.826-9.574-5.204-15.598-12.577-19.254c2.805-2.351,13.257-12.493,4.499-26.867c-1.874-3.075-4.133-6.131-7.043-9.171
				c1.055,3.269,2.423,8.833-0.895,7.795c-3.636-1.141-7.365-11.54-8.818-16.017c-3.726-2.604-8.119-5.196-13.354-7.778
				c2.426,6.08,6.295,17.414,0.348,15.093c-5.958-2.324-12.488-15.107-15.483-21.601c-5.707-2.161-12.117-4.315-19.327-6.463
				c2.474,0.737,4.854,1.475,7.143,2.213l5.091,13.816c0,0,1.324,5.454-3.887,4.711c-6.36-0.907-13.783-17.503-16.058-22.95
				c2.667,0.736,5.236,1.472,7.71,2.209c-8.233-2.453-17.515-4.898-27.996-7.335c1.119,0.26,2.224,0.521,3.316,0.781
				c3.108,6.284,10.939,23.266,3.905,21.627c-6.835-1.594-14.888-18.068-17.923-24.803c-0.345-0.074-0.684-0.149-1.031-0.223
				c-5.385-1.153-10.62-2.008-15.713-2.611c3.538,3.28,8.889,8.92,10.279,14.136c2.121,7.974-3.596,8.391-7.561,7.839
				c-3.964-0.553-8.682-7.272-11.018-10.834c-1.625-2.475-6.151-8.686-8.756-12.237c-4.682-0.042-9.218,0.135-13.608,0.501
				c4.268,5.716,14.993,21.586,2.411,21.492c-12.445-0.095-19.593-13.476-21.851-18.528c-35.51,7.971-58.718,27.613-68.126,37.088
				c-14.343,14.447-26.839,35.317-17.026,43.535c-0.003-0.006-0.005-0.012-0.008-0.018c-2.688-5.18-1.089-16.593,11.149-25.838
				c-0.209,9.839-2.65,17.896-9.779,27.154c-1.286,1.67-2.707,3.375-4.314,5.141c-3.714,3.219-5.713,12.397-5.607,18.494
				c0.049,2.852,0.558,5.032,1.569,5.61c1.497-10.751,12.031-17.511,14.235-18.573c0.119,8.427-2.76,16.434-9.682,23.303
				c-0.409,0.406-0.828,0.81-1.266,1.209c-7.848,7.134-7.89,22.201-6.433,26.514c0.027-0.103,0.057-0.193,0.084-0.295
				c2.946-10.997,8.136-14.337,10.317-15.392c2.206-1.059,3.469,4.595,1.771,11.898c-0.898,3.854-2.122,7.273-3.624,9.975
				c-1.343,2.417-2.909,4.264-4.671,5.312c-3.735,2.224-3.735,2.224-3.735,2.224s-2.061,14.785-1.09,17.66
				c0.12,0.356,0.391,0.459,0.773,0.369c2.704-0.641,10.993-11.06,10.993-11.06s3.474,4.593,2.537,11.316
				c-0.263,1.894-1.183,3.807-2.369,5.576c-3.018,4.506-7.758,8.087-7.758,8.087s-4.405,2.124-3.995,9.035
				c0.406,6.911,1.187,11.131,1.187,11.131l0.101-0.101l7.072-7.121c0,0,5.754-1.943,4.817,4.781
				c-0.484,3.482-0.49,6.11-1.214,8.386c-0.674,2.118-1.97,3.932-4.876,5.838c-6.035,3.955-7.374,3.768-7.829,11.926
				c-0.45,8.161-0.45,8.161-0.45,8.161l0.715-0.452l9.05-5.725c0,0,5.939-3.286,5.49,4.873c-0.206,3.719-0.001,6.493-0.146,8.747
				c-0.032,0.487-0.079,0.953-0.151,1.395c-0.174,1.063-0.498,2.009-1.062,2.893c-0.498,0.779-1.177,1.514-2.136,2.239
				c-4.595,3.469-11.785,5.895-10.894,14.245c0.446,4.163,2.531,5.142,4.77,5.03c2.248-0.113,4.65-1.324,5.706-1.52
				c2.038-0.38,4.706-0.649,4.719,4.903c0.001,0.184,0.006,0.355,0.001,0.551c-0.169,6.142-2.558,8.549-8.686,13.18
				c-6.126,4.624-3.528,5.672-3.609,11.145c-0.044,3.174,1.075,4.656,2.843,5.194c1.278,0.389,2.894,0.287,4.664-0.04
				c3.326-0.616,6.167-0.859,7.38,2.77c0.326,0.976,0.541,2.216,0.608,3.822c0.314,7.585,0.988,7.676-5.437,9.523
				s-6.425,1.847-6.425,1.847s-2.113,25.048,15.674,35.067c7.367,4.145,19.857,10.459,38.849,15.84
				c-0.189,11.908-0.761,40.193-2.044,49.407c-1.642,11.792,9.885,18.907,17.048,21.402c5.332,1.86,18.71,3.73,27.513,4.266
				c25.795,2.861,45.987,1.056,53.977,0.062c0.769-0.096,1.53-0.244,2.28-0.429c0.003,0.004,0.013,0.018,0.013,0.018
				s17.273-3.362,29.395-7.688c12.116-4.32,10.891-13.499,10.891-13.499l1.535-53.353l-3.487,0.514
				c4.659-3.901,9.477-9.117,13.676-15.487c8.685-13.173,13.964-27.117,20.116-26.26c9.411,1.31,4.279,10.548-3.266,20.454
				c-7.547,9.91-22.48,20.021-24.589,20.417c-1.492,0.275,10.483,0.403,22.521-6.832c5.004-3.007,10.018-7.277,14.082-13.351
				c6.3-10.773,10.3-19.803,13.567-18.667c3.267,1.141,2.704,5.177,0.031,9.601c-2.67,4.423-11.077,15.584-11.077,15.584
				s14.753-7.539,20.453-23.877c5.701-16.328-2.153-14.001-11.661-14.639c-0.001,0-0.002,0-0.002,0
				c-3.323-0.223-23.108-1.816-49.784-3.509l0.507-20.343c48.146,4.314,53.33,5.039,53.33,5.039l-1.844,7.423
				c0,0,13.868-0.897,15.082-9.621c1.216-8.725-1.061-12.677-13.352-14.389c-4.83-0.673-25.783-2.966-52.794-5.357l0.438-17.596
				c28.48,2.277,52.57,3.988,52.57,3.988l1.531,0.616l-0.762,8.381c0,0,0.3,0.015,0.807,0.006
				c3.005-0.054,13.53-0.973,15.285-11.102c1.7-9.789,0.193-12.565-15.202-15.067c-3.222-0.524-7.039-1.036-11.577-1.597
				c-9.414-1.164-25.017-2.773-42.175-4.389l0.497-19.942c28.86,2.639,52.295,4.73,53.615,5.385
				c2.269,1.122,0.269,12.565,0.269,12.565s12.217-3.557,14.287-9.734c2.075-6.174,1.364-15.571-11.611-18.186
				c-0.484-0.098-1.07-0.205-1.731-0.32c-8.297-1.438-30.112-4.172-54.398-7.077l0.51-20.493
				c30.084,3.563,53.335,6.555,53.335,6.555l1.418,1.409l-0.4,14.497c0,0,15.277-2.318,14.092-17.034
				c-0.599-7.438-6.322-11.456-14.028-13.971c-7.54-2.461-16.977-3.484-25.383-4.856c-4.256-0.693-14.765-2.181-28.602-3.936
				l0.504-20.232c35.143,5.473,54.426,9.245,54.426,9.245l-1.583,17.158c0,0,0.483-0.031,1.271-0.171
				c3.442-0.607,12.724-3.269,13.285-14.37c0.491-9.732-2.147-14.761-12.53-18.661c-4.178-1.57-9.605-2.957-16.596-4.393
				c-7.07-1.454-20.836-3.771-37.844-6.117l0.567-22.758c44.838,7.881,53.033,11.709,53.638,12.966
				c0.627,1.299-0.502,18.116-0.502,18.116s13.755-0.109,14.837-13.696c0.805-10.047-3.53-16.61-17.312-21.437
				c-4.857-1.701-10.876-3.189-18.271-4.535C692.528,154.863,681.239,152.887,669.087,150.832z M647.602,147.271
				c-21.661-3.515-42.794-6.699-54.046-7.842c-21.522-2.185-62.499-1.023-91.727,11.479c-8.76,4.843-14.237,9.331-13.979,1.691
				c0.258-7.646,0.921-12.4,7.31-14.745c6.387-2.343,38.634-24.934,98.04-19.087c19.614,1.931,38.322,4.353,54.918,6.85
				L647.602,147.271z M507.753,96.762c12.383-5.196,44.332-23.431,141.203-6.351l-0.494,20.765
				c-20.412-3.598-42.822-6.819-62.393-7.954c0,0-42.71-6.757-81.982,14.049c-9.151,4.787-11.368,3.264-10.88-3.135
				C493.695,107.741,494.014,102.528,507.753,96.762z M710.86,124.239c-3.24-0.824-19.467-4.746-40.886-9.015l0.514-20.643
				c4.099,0.861,8.289,1.773,12.594,2.752c26.409,7.719,34.004,11.202,33.795,15.619c-0.211,4.414-1.302,12.638-1.302,12.638
				l0.01,0.005C713.725,124.994,712.08,124.548,710.86,124.239z M626.058,420.507c-15.245,11.517-19.786,11.492-21.149,10.387
				c-1.361-1.094,10.709-9.414,16.708-17.676c5.997-8.257,10.194-23.132,10.194-23.132s2.107-4.248,8.053-3.425
				c5.949,0.828,6.599,4.859,5.838,5.965C644.501,394.375,641.305,408.989,626.058,420.507z M583.793,427.957
				c-4.235,2.14-17.362,0.617-11.724-2.84c5.634-3.464,20.742-16.066,24.474-29.939c1.885-7.007,6.802-9.66,11.008-9.378
				c4.204,0.276,9.604,2.857,6.951,8.845C613.796,396.247,607.248,420.62,583.793,427.957z M580.183,390.779
				c0,0,0.573,17.658-17.612,26.346c-16.459,7.862-25.105,2.969-24.709,1.103c0.878-4.117,8.851-6.949,15.842-11.435
				c6.829-4.379,8.492-10.943,10.131-16.171c1.64-5.222,6.002-8.256,10.716-7.299C579.268,384.288,581.398,386.403,580.183,390.779z
				 M675.76,395.127c-0.305,0.644-6.498,16.503-22.066,27.739c-15.574,11.235-21.995,9.941-22.276,9.097
				c-0.286-0.837,5.927-2.366,15.389-14.254c9.457-11.885,17.845-26.132,17.845-26.132s3.044-3.177,8.144-2.463
				C677.899,389.824,677.179,392.124,675.76,395.127z M504.444,372.184c-8.441,1.564-15.836,0.538-17.397-7.903
				c-1.565-8.446,6.003-8.071,7.187-7.9c1.174,0.162,46.06-11.659,148.49-4.1l-0.497,20.904
				C594.654,370.508,535.426,368.403,504.444,372.184z M643.126,335.419c-38.078-3.034-82.08-5.592-110.203-4.372
				c-25.409,2.527-45.322,6.222-45.322,6.222s-0.354-3.285-1.097-6.623c-0.751-3.334-1.456-9.901,4.261-10.317
				c5.717-0.415,61.496-12.052,99.67-7.543c13.448,1.588,33.184,3.399,53.109,5.08L643.126,335.419z M644.004,298.51
				c-24.362-2.136-48.106-3.944-59.07-4.269c-22.141-0.661-49.648-0.449-67.418,2.329c-17.769,2.786-32.743,8.779-33.735,1.368
				c-0.989-7.415-0.558-13.417,10.645-15.493c11.202-2.078,58.826-13.229,107.023-8.137c13.449,1.422,28.405,2.865,43.03,4.231
				L644.004,298.51z M644.906,260.611c-19.05-2.236-37.668-4.381-50.827-5.923c-36.588-4.286-68.443,0.982-85.24,5.513
				c-16.796,4.531-24.99,8.239-25.814-0.364c-0.826-8.603,2.9-12.127,9.179-13.672c6.277-1.552,41.206-17.3,96.252-12.061
				c17.827,1.697,37.917,3.878,56.936,6.053L644.906,260.611z M645.807,222.716c-41.177-4.766-94.79-9.653-113.913-6.188
				c-30.264,5.486-43.774,12.495-43.774,12.495s-5.039-1.514-4.224-10.289c0.817-8.774,5.962-10.89,15.577-13.186
				c9.619-2.299,57.916-15.378,123.845-7.005c8.123,1.131,15.786,2.232,22.986,3.292L645.807,222.716z M535.454,182.264
				c-42.431,8.643-44.455,11.593-44.455,11.593s-7.017,1.044-5.693-8.47c1.324-9.518,4.438-11.513,17.608-16.142
				c12.497-4.392,44.273-21.747,144.346-7.611l-0.557,23.396C607.672,180.442,560.702,177.121,535.454,182.264z"/>
			<path d="M672.796,389.114c-5.1-0.714-8.144,2.463-8.144,2.463s-8.388,14.247-17.845,26.132
				c-9.462,11.888-15.676,13.417-15.389,14.254c0.28,0.844,6.702,2.138,22.276-9.097c15.568-11.235,21.761-27.094,22.066-27.739
				C677.179,392.124,677.899,389.824,672.796,389.114z"/>
			<path d="M639.864,386.662c-5.946-0.823-8.053,3.425-8.053,3.425s-4.197,14.875-10.194,23.132
				c-5.999,8.262-18.069,16.582-16.708,17.676c1.362,1.105,5.904,1.13,21.149-10.387c15.247-11.518,18.443-26.132,19.644-27.881
				C646.463,391.521,645.813,387.489,639.864,386.662z"/>
			<path d="M607.551,385.799c-4.205-0.282-9.122,2.371-11.008,9.378c-3.732,13.873-18.84,26.474-24.474,29.939
				c-5.638,3.458,7.489,4.98,11.724,2.84c23.455-7.337,30.003-31.71,30.709-33.313C617.155,388.656,611.755,386.075,607.551,385.799
				z"/>
			<path d="M574.55,383.323c-4.714-0.956-9.076,2.077-10.716,7.299c-1.639,5.228-3.301,11.792-10.131,16.171
				c-6.991,4.487-14.964,7.318-15.842,11.435c-0.397,1.865,8.249,6.758,24.709-1.103c18.185-8.688,17.612-26.346,17.612-26.346
				C581.398,386.403,579.268,384.288,574.55,383.323z"/>
			<path d="M719.834,100.432c3.319,1.038,1.95-4.527,0.895-7.795l0,0c-0.001-0.001-0.002-0.002-0.003-0.003
				c-0.306-0.32-0.622-0.64-0.943-0.96c-0.064-0.064-0.13-0.128-0.194-0.192c-0.269-0.265-0.544-0.53-0.824-0.796
				c-0.063-0.06-0.126-0.12-0.19-0.18c-0.69-0.647-1.412-1.294-2.169-1.94c-0.048-0.041-0.097-0.082-0.145-0.123
				c-0.357-0.302-0.721-0.605-1.094-0.907c-0.029-0.024-0.058-0.047-0.087-0.071c-0.823-0.665-1.686-1.33-2.59-1.994
				c-0.034-0.025-0.068-0.05-0.102-0.075c-0.447-0.327-0.904-0.655-1.372-0.982l0,0l0,0
				C712.468,88.892,716.198,99.291,719.834,100.432z"/>
			<path d="M698.01,91.73c5.947,2.321,2.078-9.013-0.348-15.093l0,0c-0.008-0.004-0.015-0.007-0.023-0.011
				c-0.524-0.259-1.058-0.517-1.6-0.775c-0.095-0.045-0.193-0.091-0.289-0.136c-0.462-0.219-0.928-0.438-1.403-0.657
				c-0.124-0.057-0.25-0.114-0.375-0.171c-0.457-0.21-0.919-0.419-1.388-0.628c-0.128-0.057-0.258-0.114-0.387-0.172
				c-0.476-0.211-0.956-0.422-1.444-0.632c-0.127-0.055-0.254-0.109-0.381-0.164c-0.501-0.215-1.009-0.43-1.523-0.645
				c-0.117-0.049-0.235-0.098-0.353-0.147c-0.537-0.223-1.081-0.446-1.633-0.669c-0.1-0.041-0.2-0.081-0.3-0.122
				c-0.588-0.237-1.185-0.474-1.789-0.71c-0.067-0.026-0.133-0.053-0.201-0.079c-0.671-0.262-1.351-0.524-2.042-0.786
				c0,0-0.003-0.001-0.005-0.002l0,0C685.521,76.624,692.051,89.407,698.01,91.73z"/>
			<path d="M671.546,84.407c5.211,0.743,3.887-4.711,3.887-4.711l-5.091-13.816c-2.289-0.738-4.669-1.476-7.143-2.213l-0.001,0
				c-2.474-0.737-5.043-1.473-7.71-2.209C657.763,66.904,665.186,83.499,671.546,84.407z"/>
			<path d="M642.424,78.739c7.034,1.639-0.797-15.343-3.905-21.627c-1.091-0.26-2.197-0.521-3.316-0.781
				c-0.044-0.01-0.088-0.02-0.132-0.03c-1.087-0.253-2.187-0.505-3.3-0.757c-0.056-0.013-0.112-0.025-0.168-0.038
				c-1.112-0.252-2.238-0.504-3.376-0.756c-0.051-0.011-0.101-0.022-0.152-0.034c-1.174-0.259-2.362-0.519-3.564-0.778
				c-0.003-0.001-0.007-0.001-0.01-0.002l0,0C627.535,60.671,635.588,77.145,642.424,78.739z"/>
			<path d="M610.474,73.077c3.965,0.553,9.683,0.135,7.561-7.839c-1.39-5.216-6.74-10.856-10.279-14.136l0,0h0
				c-2.888-0.341-5.727-0.598-8.519-0.779c-0.12-0.008-0.24-0.015-0.36-0.022c-1.313-0.082-2.616-0.148-3.908-0.196
				c-0.055-0.002-0.111-0.005-0.166-0.007c-1.38-0.05-2.747-0.081-4.102-0.093H590.7l0,0c2.604,3.551,7.131,9.763,8.756,12.237
				C601.792,65.805,606.51,72.524,610.474,73.077z"/>
			<path d="M579.503,71.999c12.582,0.094,1.857-15.776-2.411-21.492l0,0h0c-1.659,0.138-3.294,0.305-4.911,0.495
				c-0.092,0.011-0.185,0.021-0.277,0.032c-1.56,0.186-3.099,0.397-4.619,0.628c-0.141,0.021-0.28,0.044-0.42,0.066
				c-1.495,0.232-2.971,0.485-4.427,0.759c-0.13,0.024-0.258,0.051-0.387,0.076c-1.485,0.284-2.953,0.585-4.397,0.909h0l0,0
				C559.91,58.523,567.058,71.903,579.503,71.999z"/>
		</g>
		<rect x="563.02" y="484.563" fill="#FFC666" width="55.881" height="592.18"/>
		<path d="M618.902,504.163c0,0-18.93,1.747-36.819,1.821c-2.174,0.009-2.608,3.092-0.516,3.685
			c8.472,2.403,21.317,5.099,37.335,5.562V504.163z"/>
		<path d="M536.02,434.5c19.962,3.663,69.296,9.854,126.916-3.988c0,0-20.442,22.09-69.991,22.954
			c-31.409,0.548-49.677-8.026-58.843-14.377C531.857,437.533,533.334,434.007,536.02,434.5z"/>
		<path d="M519.452,1076.741c10.523-62.523,43.367-94.655,75.156-125.721c16.445-16.071,32.368-31.64,43.873-50.458
			c-4.472-5.717-8.14-11.933-10.616-18.402c-10.207,20.955-27.202,37.579-45.936,55.886
			c-32.659,31.915-69.674,68.087-80.751,137.922c-0.041,0.259-0.064,0.516-0.083,0.773H519.452z"/>
	</g>
	<ellipse fill="#FFC666" cx="598.603" cy="1053.538" rx="191.751" ry="49.849"/>
</g>
</svg>
