<?xml version="1.0" encoding="utf-8"?>
<!-- Designed by Vexels.com - 2016 All Rights Reserved - https://vexels.com/terms-and-conditions/  -->

<svg version="1.1" id="Layer_1" xmlns="http://www.w3.org/2000/svg" xmlns:xlink="http://www.w3.org/1999/xlink" x="0px" y="0px"
	 width="1200px" height="1200px" viewBox="0 0 1200 1200" enable-background="new 0 0 1200 1200" xml:space="preserve">
<g>
	<g id="background">
	</g>
	<g id="design">
		<path fill="#6198D8" d="M1150,599.994c0,181.657-147.239,328.902-328.885,328.902H378.897C197.252,928.897,50,781.657,50,599.994
			l0,0c0-181.651,147.252-328.891,328.896-328.891h442.219C1002.748,271.098,1150,418.343,1150,599.994L1150,599.994z"/>
		<g>
			<path fill="#FFFFFF" d="M709.348,468.538h-89.49l30.257-30.25l-25.851-25.831l-74.371,74.371l74.359,74.354l25.837-25.818
				l-30.257-30.275h89.497c47.024,0,85.285,38.261,85.285,85.266v54.64c0,47.036-38.261,85.271-85.285,85.271H490.646
				c-47.023,0-85.278-38.235-85.278-85.271v-27.317H368.83v27.317c0,67.27,54.527,121.815,121.815,121.815h218.69
				c67.282,0,121.815-54.533,121.815-121.815v-54.64C831.176,523.09,776.644,468.538,709.348,468.538z"/>
		</g>
	</g>
	<g id="vexels">
	</g>
</g>
</svg>
