<svg xmlns="http://www.w3.org/2000/svg" xmlns:xlink="http://www.w3.org/1999/xlink" viewBox="0 0 685.19 390.85"><defs><style>.cls-1{fill:url(#linear-gradient);}.cls-2{fill:#fd5f90;}.cls-3{fill:url(#linear-gradient-2);}.cls-4{fill:url(#linear-gradient-3);}.cls-5{fill:url(#linear-gradient-4);}.cls-6{fill:url(#linear-gradient-5);}.cls-7{fill:url(#linear-gradient-6);}.cls-8{fill:url(#linear-gradient-7);}.cls-9{fill:url(#linear-gradient-8);}.cls-10{fill:url(#linear-gradient-9);}.cls-11{fill:url(#linear-gradient-10);}</style><linearGradient id="linear-gradient" x1="10.5" y1="80.98" x2="73.44" y2="80.98" gradientUnits="userSpaceOnUse"><stop offset="0" stop-color="#8c3d99"/><stop offset="1" stop-color="#f0acc5"/></linearGradient><linearGradient id="linear-gradient-2" x1="361.81" y1="81.04" x2="511.8" y2="81.04" xlink:href="#linear-gradient"/><linearGradient id="linear-gradient-3" x1="91.26" y1="81.58" x2="214.56" y2="81.58" xlink:href="#linear-gradient"/><linearGradient id="linear-gradient-4" x1="222.43" y1="80.58" x2="344.53" y2="80.58" xlink:href="#linear-gradient"/><linearGradient id="linear-gradient-5" x1="521.55" y1="78.5" x2="642.9" y2="78.5" xlink:href="#linear-gradient"/><linearGradient id="linear-gradient-6" x1="555.68" y1="309.82" x2="685.19" y2="309.82" xlink:href="#linear-gradient"/><linearGradient id="linear-gradient-7" x1="123.99" y1="309.79" x2="252.09" y2="309.79" xlink:href="#linear-gradient"/><linearGradient id="linear-gradient-8" x1="411.78" y1="309.79" x2="535.47" y2="309.79" xlink:href="#linear-gradient"/><linearGradient id="linear-gradient-9" x1="0.04" y1="309.9" x2="123.72" y2="309.9" xlink:href="#linear-gradient"/><linearGradient id="linear-gradient-10" x1="264.7" y1="309.3" x2="392.82" y2="309.3" xlink:href="#linear-gradient"/></defs><g id="Layer_2" data-name="Layer 2"><g id="background"><polygon class="cls-1" points="50.34 161.95 50.34 21.57 10.51 21.57 10.5 0 73.44 0.12 73.4 161.95 50.34 161.95"/><path class="cls-2" d="M62.16.06V162H50.28V10.7H10.45V.06Z"/><polygon class="cls-3" points="454.74 161.99 454.74 128.22 361.81 128.22 361.81 112.15 453.24 0.1 480.89 0.1 394.02 106.72 454.97 106.72 454.97 78.62 477.57 78.62 477.57 106.72 511.8 106.72 511.8 128.22 477.57 128.22 477.57 161.99 454.74 161.99"/><path class="cls-2" d="M500.61,117.09H466.37V162H454.72V117.09H361.79v-8.56L450.3.06h13.27L376.7,106.68H455V78.58h11.41v28.1h34.24Z"/><polyline class="cls-4" points="214.56 151.16 214.56 162.19 91.35 162.19 91.32 156.48 91.32 151.39 91.36 151.39 91.36 72.92 96.95 72.89 191.22 72.89 191.22 22.72 91.26 22.72 91.26 0.98 214.31 0.98 214.31 22.72 214.28 22.72 214.28 84.73 214.43 92.57 214.31 92.57 214.31 94.63 113.98 94.63 113.98 151.39"/><polygon class="cls-2" points="202.22 151.16 102.84 151.16 102.84 83.3 191.26 83.3 203.14 83.3 203.17 83.3 203.17 81.24 203.18 81.24 203.14 79 203.14 11.39 203.17 11.39 203.17 0.75 91.3 0.75 91.3 9.08 91.3 11.39 191.26 11.39 191.26 72.66 91.39 72.66 91.39 72.68 91.39 83.3 91.39 151.16 91.36 151.16 91.36 161.8 91.39 161.8 91.39 161.95 203.42 161.95 203.42 151.16 202.22 151.16"/><polygon class="cls-5" points="222.43 161.11 222.43 150.47 321.81 150.47 321.81 93.71 269.77 93.71 269.77 91.64 269.76 86.09 269.76 75.6 269.77 75.58 269.77 71.97 272.64 71.97 312.11 21.8 231.1 21.8 231.1 0.06 344.53 0.06 344.53 15.85 300.41 71.97 344.43 71.97 344.43 150.47 344.47 156.02 344.47 161.11 222.43 161.11"/><polygon class="cls-2" points="333.35 8.38 333.35 0.06 231.1 0.06 231.1 10.7 317.98 10.7 269.78 71.97 269.77 71.97 269.77 71.97 269.76 71.99 269.76 80.54 269.77 80.54 269.77 82.61 321.81 82.61 321.81 150.47 222.43 150.47 222.43 161.11 321.81 161.11 333.25 161.11 333.29 161.11 333.29 150.47 333.25 150.47 333.25 82.61 333.25 71.99 333.25 71.97 283.4 71.97 283.44 71.87 333.35 8.38"/><polygon class="cls-6" points="521.55 156.79 521.55 146.3 620.23 146.3 620.23 89.54 596.19 89.54 596.21 89.56 567.7 89.72 528.37 89.72 538.2 0.21 635.22 0.21 635.22 21.95 558.24 21.95 553.21 67.72 587.43 67.8 642.86 67.8 642.86 146.3 642.9 151.85 642.9 156.71 521.55 156.79"/><polygon class="cls-2" points="631.69 146.15 631.69 78.29 631.69 67.67 631.69 67.65 581.84 67.65 541.39 67.56 547.65 10.7 624.05 10.7 624.05 0.06 537.64 0.06 529.02 78.46 562.09 78.46 576.29 78.39 576.19 78.29 620.24 78.29 620.24 146.15 520.86 146.15 520.86 156.79 620.24 156.79 631.69 156.79 631.73 156.79 631.73 146.15 631.69 146.15"/><path class="cls-7" d="M555.68,390.39V229h129.5l0,161.75Zm106-10.26V250.23H578.28v129.9Z"/><path class="cls-2" d="M566.33,228.8H554.45V390.7H672.77V228.8Zm94.56,151.26H566.33V239.44h94.56Z"/><polygon class="cls-8" points="158.08 390.81 224.07 250.5 141.23 250.5 123.99 250.56 123.99 228.76 252.09 228.76 252.09 243.84 183.42 390.81 158.08 390.81"/><path class="cls-2" d="M124,239.48V228.8H241v8.33L170.84,390.7h-13l69.41-151.26H135.68"/><path class="cls-9" d="M512.41,390.73V329.16l-45.16-.08H411.82v-78.5l0-5.55V228.84H535.47V390.73Zm-53.92-83.39,0,0,28.51-.16h25.43V250.58h-78v56.76Z"/><path class="cls-2" d="M522.53,228.8H411.67v10.64h0v78.5h49.85l50.73.09V390.7h11.88V228.8ZM481.3,307.13l-14.2.07.11.1H423.15V239.44h89.14v67.69Z"/><path class="cls-10" d="M23.1,229v72.68l45.15.08h55.44v78.5l0,5.55v5.09H0V229ZM77,323.45l0,0-28.51.15H23.1v56.59h78V323.45Z"/><path class="cls-2" d="M1.64,390.73H112.51V380.09h0v-78.5H62.62l-50.74-.08V228.84H0V390.73Zm41.23-78.32,14.2-.08-.1-.1H101v67.86H11.88V312.41Z"/><path class="cls-11" d="M264.7,390.73V299.31h16.13V227.87h95.86v71.24h16.13v91.62Zm106.24-9.94.46-60H287.51v59.51Zm-17.06-81.93V250.35H303.64v48.51Z"/><path class="cls-2" d="M365.8,299.11V227.87H280.09v71.24h-16.3V390.7H382.1V299.11ZM292,238.51h61.95v60.14H292Zm78.26,141.55H275.66V309.75h94.57Z"/></g></g></svg>