<?xml version="1.0" encoding="UTF-8" standalone="no"?>
<!-- Generator: Adobe Illustrator 16.0.0, SVG Export Plug-In . SVG Version: 6.00 Build 0)  -->

<svg
   xmlns:dc="http://purl.org/dc/elements/1.1/"
   xmlns:cc="http://creativecommons.org/ns#"
   xmlns:rdf="http://www.w3.org/1999/02/22-rdf-syntax-ns#"
   xmlns:svg="http://www.w3.org/2000/svg"
   xmlns="http://www.w3.org/2000/svg"
   xmlns:sodipodi="http://sodipodi.sourceforge.net/DTD/sodipodi-0.dtd"
   xmlns:inkscape="http://www.inkscape.org/namespaces/inkscape"
   version="1.0"
   x="0px"
   y="0px"
   width="1700px"
   height="1284px"
   viewBox="0 0 1700 1284"
   enable-background="new 0 0 1700 1284"
   xml:space="preserve"
   id="svg211"
   sodipodi:docname="OfficeIcons12-01.svg"
   inkscape:version="0.92.3 (2405546, 2018-03-11)"><metadata
   id="metadata217"><rdf:RDF><cc:Work
       rdf:about=""><dc:format>image/svg+xml</dc:format><dc:type
         rdf:resource="http://purl.org/dc/dcmitype/StillImage" /></cc:Work></rdf:RDF></metadata><defs
   id="defs215" /><sodipodi:namedview
   pagecolor="#ffffff"
   bordercolor="#666666"
   borderopacity="1"
   objecttolerance="10"
   gridtolerance="10"
   guidetolerance="10"
   inkscape:pageopacity="0"
   inkscape:pageshadow="2"
   inkscape:window-width="1960"
   inkscape:window-height="1248"
   id="namedview213"
   showgrid="false"
   inkscape:zoom="0.51986667"
   inkscape:cx="828.68853"
   inkscape:cy="537.0485"
   inkscape:window-x="640"
   inkscape:window-y="169"
   inkscape:window-maximized="0"
   inkscape:current-layer="svg211" />
<g
   id="background">
	<g
   id="g8">
		<g
   id="g6">
			<g
   id="g4">
				<rect
   x="-24.274"
   y="-14.175"
   fill-rule="evenodd"
   clip-rule="evenodd"
   fill="#0098CE"
   width="1749.175"
   height="1323.132"
   id="rect2" />
			</g>
		</g>
	</g>
	<polygon
   opacity="0.2"
   fill-rule="evenodd"
   clip-rule="evenodd"
   fill="#201315"
   points="1724.9,866.394 1436.779,440.683    285.531,922.732 582.486,1308.957 1724.9,1308.957  "
   id="polygon10" />
	<g
   id="g178">
		<path
   fill="#C2C2C0"
   d="M965.293,148.613c0,48.392-22.213,66.412-43.692,83.835c-31.073,25.201-66.293,53.764-49.956,197.345    l-23.054,2.621C830.82,276.2,873.052,241.949,906.989,214.429c20.378-16.533,35.108-28.478,35.108-65.815v-183.02h22.547    L965.293,148.613z"
   id="path12" />
		<path
   fill-rule="evenodd"
   clip-rule="evenodd"
   fill="#909596"
   d="M824.643,412.324h70.244c4.094,0,7.449,3.354,7.449,7.456v28.314    c0,4.095-3.355,7.45-7.449,7.45h-70.244c-4.098,0-7.45-3.355-7.45-7.45V419.78C817.192,415.679,820.545,412.324,824.643,412.324z"
   id="path14" />
		<path
   fill-rule="evenodd"
   clip-rule="evenodd"
   fill="#1F1B21"
   d="M1451.169,903.907c0,17.39-14.173,31.485-31.669,31.505    l-1108.518,0.616c-17.495,0.007-31.688-14.082-31.701-31.473l-0.235-434.582c-0.014-17.391,14.153-31.498,31.655-31.512    l1108.53-0.616c17.482-0.007,31.676,14.082,31.688,31.472L1451.169,903.907z"
   id="path16" />
		<path
   fill-rule="evenodd"
   clip-rule="evenodd"
   fill="#4F4D51"
   d="M1451.169,885.527c0,16.695-14.173,30.246-31.669,30.26    l-1108.518,0.589c-17.495,0.014-31.688-13.53-31.701-30.232l-0.235-417.441c-0.014-16.709,14.153-30.247,31.655-30.267    l1108.53-0.59c17.482-0.007,31.676,13.524,31.688,30.234L1451.169,885.527z"
   id="path18" />
		<path
   fill-rule="evenodd"
   clip-rule="evenodd"
   fill="#7E8081"
   d="M412.994,858.347c0.012,4.43-3.579,8.021-7.994,8.014    l-41.033,0.033c-4.416,0-8.006-3.578-8.006-8.008l-0.021-41.02c0-4.423,3.571-8.007,8-8.007l41.026-0.033    c4.422,0.007,8.002,3.585,8.015,8.008L412.994,858.347z"
   id="path20" />
		<path
   fill-rule="evenodd"
   clip-rule="evenodd"
   fill="#7E8081"
   d="M481.435,858.32c0.007,4.417-3.577,8.001-7.993,8.007    l-41.032,0.021c-4.416,0.007-8.007-3.571-7.993-8.001l-0.026-41.026c-0.014-4.415,3.571-8.001,7.993-8.001l41.025-0.025    c4.423-0.006,8.002,3.578,8.009,7.994L481.435,858.32z"
   id="path22" />
		<path
   fill-rule="evenodd"
   clip-rule="evenodd"
   fill="#7E8081"
   d="M549.883,858.282c0,4.422-3.584,8.006-7.992,8.006l-41.039,0.026    c-4.423,0-8-3.577-8-8.001l-0.027-41.025c0-4.43,3.578-8.007,7.994-8.007l41.032-0.033c4.416,0,8.007,3.584,8.007,8.008    L549.883,858.282z"
   id="path24" />
		<path
   fill-rule="evenodd"
   clip-rule="evenodd"
   fill="#7E8081"
   d="M618.318,858.242c0.014,4.422-3.576,8.007-7.992,8.014    l-41.026,0.025c-4.423-0.007-8.007-3.584-8.013-8.013l-0.02-41.02c0-4.424,3.577-8.008,7.999-8.008l41.026-0.02    c4.422-0.014,8.013,3.57,8,8.001L618.318,858.242z"
   id="path26" />
		<path
   fill-rule="evenodd"
   clip-rule="evenodd"
   fill="#7E8081"
   d="M1108.835,857.967c-0.007,4.423-3.591,8.007-8.007,8.001    L1048.393,866c-4.416,0-8.006-3.571-8.006-7.987l-0.04-41.039c0.013-4.416,3.591-8.007,8.015-8.007l52.435-0.026    c4.415-0.007,7.999,3.577,7.999,8.007L1108.835,857.967z"
   id="path28" />
		<path
   fill-rule="evenodd"
   clip-rule="evenodd"
   fill="#7E8081"
   d="M487.254,789.864c0,4.424-3.584,8.008-8.006,8.008l-41.026,0.026    c-4.411,0.007-8.009-3.577-8.009-8.001l-0.02-41.025c0-4.416,3.58-8,7.996-8l41.032-0.026c4.409,0,8.006,3.577,8.006,7.994    L487.254,789.864z"
   id="path30" />
		<path
   fill-rule="evenodd"
   clip-rule="evenodd"
   fill="#7E8081"
   d="M555.696,789.819c-0.007,4.43-3.584,8.008-7.999,8.015    l-41.033,0.019c-4.418,0.007-8.009-3.564-8.009-7.988l-0.02-41.031c-0.007-4.423,3.573-8.014,7.995-8.008l41.039-0.025    c4.409-0.007,7.993,3.584,8,8L555.696,789.819z"
   id="path32" />
		<path
   fill-rule="evenodd"
   clip-rule="evenodd"
   fill="#7E8081"
   d="M624.139,789.793c0,4.417-3.591,8.001-8,8.008l-41.039,0.013    c-4.412,0.021-8.009-3.571-7.996-7.994l-0.032-41.02c0.007-4.43,3.584-8.007,8.002-8.021l41.032-0.013    c4.416-0.014,8.006,3.572,8.006,7.994L624.139,789.793z"
   id="path34" />
		<path
   fill-rule="evenodd"
   clip-rule="evenodd"
   fill="#7E8081"
   d="M692.574,789.754c0,4.417-3.571,8.007-7.988,8.007l-41.037,0.027    c-4.418,0-8.01-3.584-8.01-8.002l-0.013-41.025c0-4.422,3.564-8.008,7.995-8.008l41.033-0.026c4.408,0,7.992,3.579,7.992,8.008    L692.574,789.754z"
   id="path36" />
		<path
   fill-rule="evenodd"
   clip-rule="evenodd"
   fill="#7E8081"
   d="M761.023,789.714c-0.008,4.417-3.592,8.008-8.01,8.008    l-41.017,0.026c-4.418,0-8.009-3.577-8.009-8.001l-0.026-41.026c0-4.415,3.577-8.006,8.002-8.006l41.026-0.026    c4.416-0.007,8.006,3.577,8,8.008L761.023,789.714z"
   id="path38" />
		<path
   fill-rule="evenodd"
   clip-rule="evenodd"
   fill="#7E8081"
   d="M829.459,789.669c0.006,4.422-3.578,8.014-8.01,8.014    l-41.02,0.025c-4.402,0-7.992-3.577-8.006-7.999l-0.014-41.026c-0.013-4.417,3.564-8.008,7.989-8.008l41.03-0.026    c4.412-0.007,8.002,3.584,8.002,8.008L829.459,789.669z"
   id="path40" />
		<path
   fill-rule="evenodd"
   clip-rule="evenodd"
   fill="#7E8081"
   d="M897.907,789.636c-0.013,4.417-3.577,8.008-8.009,8.008    l-41.025,0.026c-4.41,0-8-3.579-8.014-8.008l-0.014-41.02c0-4.417,3.584-8.007,8.002-8.007l41.024-0.026    c4.418,0,8.009,3.584,8.009,8.007L897.907,789.636z"
   id="path42" />
		<path
   fill-rule="evenodd"
   clip-rule="evenodd"
   fill="#7E8081"
   d="M966.343,789.597c0,4.43-3.577,8.007-7.995,8.014l-41.026,0.026    c-4.429-0.007-8.013-3.591-8.013-8.014l-0.027-41.02c0-4.416,3.578-8.008,8.007-8.008l41.02-0.025    c4.431,0,8.022,3.577,8.015,8.007L966.343,789.597z"
   id="path44" />
		<path
   fill-rule="evenodd"
   clip-rule="evenodd"
   fill="#7E8081"
   d="M1034.791,789.558c-0.006,4.416-3.59,8.007-8.002,8.007    l-41.039,0.026c-4.402,0-7.993-3.584-8-8.008l-0.02-41.02c0-4.416,3.578-8.006,8-8.006l41.025-0.026    c4.425,0,8.01,3.577,8.002,8.007L1034.791,789.558z"
   id="path46" />
		<path
   fill-rule="evenodd"
   clip-rule="evenodd"
   fill="#7E8081"
   d="M1103.233,789.519c-0.007,4.429-3.587,8.007-8.002,8.007    l-41.032,0.025c-4.416,0-7.994-3.577-8.007-7.999l-0.026-41.026c0-4.417,3.591-8.008,7.993-8.015l41.032-0.02    c4.425,0,8.01,3.584,8.01,8.008L1103.233,789.519z"
   id="path48" />
		<path
   fill-rule="evenodd"
   clip-rule="evenodd"
   fill="#7E8081"
   d="M1171.662,789.472c0.014,4.424-3.572,8.015-7.995,8.015    l-41.02,0.026c-4.423,0-8.007-3.578-8.007-8.008l-0.032-41.013c0-4.423,3.584-8.014,7.999-8.014l41.033-0.026    c4.418,0,8.009,3.578,8.009,8.007L1171.662,789.472z"
   id="path50" />
		<path
   fill-rule="evenodd"
   clip-rule="evenodd"
   fill="#7E8081"
   d="M555.508,721.397c0.006,4.416-3.578,8.008-8.002,8.008    l-41.02,0.013c-4.423,0.013-8.014-3.578-8.014-7.994l-0.026-41.02c0-4.43,3.591-8.008,8-8.008l41.032-0.032    c4.425,0,8.002,3.584,8.002,8L555.508,721.397z"
   id="path52" />
		<path
   fill-rule="evenodd"
   clip-rule="evenodd"
   fill="#7E8081"
   d="M623.949,721.351c0.007,4.424-3.584,8.008-7.995,8.015    l-41.026,0.026c-4.422,0-8.013-3.591-8.013-8.008l-0.021-41.025c0-4.417,3.578-8.008,8-8.001l41.026-0.026    c4.418-0.007,8.002,3.578,8.009,7.994L623.949,721.351z"
   id="path54" />
		<path
   fill-rule="evenodd"
   clip-rule="evenodd"
   fill="#7E8081"
   d="M692.385,721.318c0.014,4.423-3.573,8.007-7.988,8.007    l-41.026,0.027c-4.429,0-8.013-3.584-8.013-8.008l-0.027-41.02c0-4.422,3.584-8.008,8-8.014l41.026-0.02    c4.431,0,8.002,3.578,8.015,7.994L692.385,721.318z"
   id="path56" />
		<path
   fill-rule="evenodd"
   clip-rule="evenodd"
   fill="#7E8081"
   d="M760.834,721.28c0.004,4.415-3.587,8.006-8.002,8.006    l-41.02,0.026c-4.43,0-8.02-3.584-8.02-8.008l-0.02-41.019c0.006-4.423,3.584-8.007,8.006-8.007l41.025-0.026    c4.412,0,8.01,3.577,8.002,8.001L760.834,721.28z"
   id="path58" />
		<path
   fill-rule="evenodd"
   clip-rule="evenodd"
   fill="#7E8081"
   d="M829.273,721.24c0.007,4.415-3.578,8.007-8.006,8.007    l-41.02,0.021c-4.416,0.005-8.014-3.572-8.007-8.001l-0.026-41.02c0.014-4.417,3.584-8.008,8.006-8.014l41.027-0.021    c4.408-0.007,8.002,3.577,8.002,8.008L829.273,721.24z"
   id="path60" />
		<path
   fill-rule="evenodd"
   clip-rule="evenodd"
   fill="#7E8081"
   d="M897.723,721.194c0,4.436-3.578,8.014-8.007,8.014l-41.02,0.026    c-4.423,0-8.013-3.579-8.007-8.001l-0.025-41.026c-0.007-4.423,3.577-8.007,7.992-8.007l41.033-0.026    c4.402,0,8.006,3.585,8.006,8.007L897.723,721.194z"
   id="path62" />
		<path
   fill-rule="evenodd"
   clip-rule="evenodd"
   fill="#7E8081"
   d="M966.158,721.161c0.013,4.416-3.578,8.007-8,8.007l-41.026,0.026    c-4.409,0-8.007-3.577-8.007-8l-0.02-41.026c-0.006-4.423,3.578-8.015,8-8.015l41.026-0.019c4.402-0.007,7.999,3.577,7.999,8.007    L966.158,721.161z"
   id="path64" />
		<path
   fill-rule="evenodd"
   clip-rule="evenodd"
   fill="#7E8081"
   d="M1034.606,721.116c0,4.429-3.577,8.013-8.007,8.013    l-41.025,0.026c-4.416,0-8.002-3.578-8.009-8.008l-0.024-41.019c0.007-4.417,3.591-8.007,8-8.007l41.033-0.026    c4.408,0,7.992,3.584,8.006,8.007L1034.606,721.116z"
   id="path66" />
		<path
   fill-rule="evenodd"
   clip-rule="evenodd"
   fill="#7E8081"
   d="M1103.055,721.083c-0.013,4.416-3.59,8.014-8.012,8.007    l-41.02,0.032c-4.426-0.006-8.016-3.598-8.016-8.006l-0.026-41.026c0.013-4.417,3.593-8.008,8.009-8.008l41.02-0.026    c4.415,0,8.006,3.584,8.013,8.008L1103.055,721.083z"
   id="path68" />
		<path
   fill-rule="evenodd"
   clip-rule="evenodd"
   fill="#7E8081"
   d="M1171.49,721.043c0,4.417-3.59,8.008-7.999,8.008l-41.026,0.026    c-4.418,0.006-8.016-3.578-8.021-8.008l-0.014-41.013c0-4.423,3.58-8.014,7.996-8.014l41.032-0.026c4.415,0,8,3.578,8.007,8    L1171.49,721.043z"
   id="path70" />
		<path
   fill-rule="evenodd"
   clip-rule="evenodd"
   fill="#7E8081"
   d="M1239.934,721.004c0,4.423-3.592,8.007-7.994,8.007    l-41.039,0.026c-4.418,0-8.008-3.584-8.008-8.007l-0.027-41.02c-0.006-4.416,3.584-8.008,8.009-8.001l41.026-0.025    c4.416-0.007,8,3.571,8.013,8.001L1239.934,721.004z"
   id="path72" />
		<path
   fill-rule="evenodd"
   clip-rule="evenodd"
   fill="#7E8081"
   d="M1308.361,720.972c0.014,4.422-3.57,8-7.992,8.013l-41.02,0.014    c-4.418,0-8.009-3.577-8.009-8.008l-0.026-41.019c-0.014-4.416,3.577-8,8.002-8.007l41.033-0.014    c4.402-0.013,7.999,3.571,7.999,7.987L1308.361,720.972z"
   id="path74" />
		<path
   fill-rule="evenodd"
   clip-rule="evenodd"
   fill="#7E8081"
   d="M555.245,652.955c-0.007,4.424-3.593,8.015-8.009,8.008    l-41.032,0.032c-4.409,0-7.993-3.591-8-8.007l-0.02-41.02c-0.007-4.423,3.563-8.015,7.993-8.015l41.033-0.02    c4.418-0.006,7.994,3.578,8.008,8.001L555.245,652.955z"
   id="path76" />
		<path
   fill-rule="evenodd"
   clip-rule="evenodd"
   fill="#7E8081"
   d="M623.674,652.909c0.018,4.43-3.572,8.014-7.995,8.021    l-41.026,0.013c-4.415,0.007-8.006-3.57-8.013-7.994l-0.02-41.02c0-4.43,3.577-8.007,7.993-8.007l41.033-0.026    c4.418,0,8.008,3.578,8.008,8.001L623.674,652.909z"
   id="path78" />
		<path
   fill-rule="evenodd"
   clip-rule="evenodd"
   fill="#7E8081"
   d="M692.114,652.876c0.013,4.424-3.577,8.014-7.993,8.014    l-41.02,0.027c-4.429,0-8.014-3.591-8.014-8.002l-0.025-41.025c0-4.429,3.584-8.008,8-8.013l41.02-0.026    c4.428,0,8.008,3.584,8.008,8.007L692.114,652.876z"
   id="path80" />
		<path
   fill-rule="evenodd"
   clip-rule="evenodd"
   fill="#7E8081"
   d="M760.563,652.838c0.014,4.422-3.584,8.013-7.992,8.013    l-41.033,0.026c-4.416,0-8-3.584-8.006-8.008l-0.027-41.024c-0.013-4.424,3.584-8.008,7.994-8.008l41.032-0.026    c4.415,0,8.002,3.584,8.007,8.001L760.563,652.838z"
   id="path82" />
		<path
   fill-rule="evenodd"
   clip-rule="evenodd"
   fill="#7E8081"
   d="M829.005,652.805c0.007,4.417-3.577,8.007-7.999,8.007    l-41.027,0.027c-4.422,0-7.999-3.586-8.012-8.008l-0.027-41.02c0-4.424,3.591-8.008,8-8.008l41.039-0.026    c4.416,0,8,3.577,8.007,8.008L829.005,652.805z"
   id="path84" />
		<path
   fill-rule="evenodd"
   clip-rule="evenodd"
   fill="#7E8081"
   d="M897.44,652.765c0.007,4.417-3.577,8.001-7.986,8.008    l-41.026,0.02c-4.422,0.007-8.016-3.577-8.016-8.001l-0.018-41.02c-0.006-4.417,3.571-8.007,7.994-8.007l41.025-0.026    c4.416,0,8.007,3.585,8.014,8.007L897.44,652.765z"
   id="path86" />
		<path
   fill-rule="evenodd"
   clip-rule="evenodd"
   fill="#7E8081"
   d="M965.883,652.719c0.014,4.423-3.578,8.007-7.986,8.014    l-41.039,0.026c-4.405,0-7.989-3.577-8.01-8.007l-0.023-41.02c0-4.423,3.584-8.007,8-8.007l41.025-0.026    c4.43,0,8,3.577,8.02,8.008L965.883,652.719z"
   id="path88" />
		<path
   fill-rule="evenodd"
   clip-rule="evenodd"
   fill="#7E8081"
   d="M1034.332,652.687c0,4.43-3.584,8.008-8,8.008l-41.026,0.019    c-4.418,0.007-8.009-3.571-8.002-7.987l-0.033-41.032c-0.013-4.43,3.579-8.007,8.009-8.007l41.013-0.026    c4.423,0,8.007,3.577,8.013,8.001L1034.332,652.687z"
   id="path90" />
		<path
   fill-rule="evenodd"
   clip-rule="evenodd"
   fill="#7E8081"
   d="M1102.773,652.647c0.007,4.43-3.584,8.021-8,8.014l-41.032,0.02    c-4.405,0-8.009-3.578-8.009-8l-0.014-41.02c-0.006-4.424,3.578-8.015,7.996-8.015l41.025-0.026c4.416,0,8,3.584,8,8.001    L1102.773,652.647z"
   id="path92" />
		<path
   fill-rule="evenodd"
   clip-rule="evenodd"
   fill="#7E8081"
   d="M1171.216,652.601c0.007,4.424-3.577,8.015-8.007,8.015    l-41.02,0.026c-4.424,0-7.995-3.578-8.015-7.994l-0.021-41.033c0-4.422,3.578-8.007,7.989-8.007l41.04-0.026    c4.422,0,7.999,3.585,8.012,8.007L1171.216,652.601z"
   id="path94" />
		<path
   fill-rule="evenodd"
   clip-rule="evenodd"
   fill="#7E8081"
   d="M1239.658,652.568c0,4.423-3.598,8.007-8,8.007l-41.02,0.026    c-4.424,0.007-8.016-3.57-8.016-7.994l-0.025-41.032c0-4.416,3.59-8.007,7.994-8.007l41.027-0.026    c4.436,0.007,8.012,3.584,8.02,8.001L1239.658,652.568z"
   id="path96" />
		<path
   fill-rule="evenodd"
   clip-rule="evenodd"
   fill="#7E8081"
   d="M1308.106,652.529c-0.007,4.429-3.591,8.008-8.002,8.02    l-41.03,0.014c-4.418,0.007-8.009-3.577-8.009-8.001l-0.026-41.019c0.014-4.43,3.584-8.007,8.002-8.007l41.026-0.033    c4.423,0,7.999,3.577,8.007,8.007L1308.106,652.529z"
   id="path98" />
		<path
   fill-rule="evenodd"
   clip-rule="evenodd"
   fill="#7E8081"
   d="M486.264,584.553c0.007,4.416-3.584,8.001-8,8.007l-41.025,0.014    c-4.422,0.012-8.006-3.578-8.006-7.994l-0.021-41.02c-0.007-4.417,3.577-8.008,7.993-8.008l41.026-0.033    c4.423,0.008,8.013,3.585,8.013,8.008L486.264,584.553z"
   id="path100" />
		<path
   fill-rule="evenodd"
   clip-rule="evenodd"
   fill="#7E8081"
   d="M554.706,584.513c0.007,4.417-3.577,8.008-7.993,8.001    l-41.033,0.026c-4.415,0.007-8.006-3.578-8.006-8l-0.026-41.02c0.007-4.417,3.585-8.008,8-8.008l41.032-0.026    c4.416,0,8.007,3.585,8,8.001L554.706,584.513z"
   id="path102" />
		<path
   fill-rule="evenodd"
   clip-rule="evenodd"
   fill="#7E8081"
   d="M623.148,584.474c0.006,4.424-3.578,8.008-7.993,8.008    l-41.026,0.025c-4.422,0.007-8.02-3.577-8.02-8.007l-0.026-41.02c0-4.423,3.591-8.015,8.013-8.015l41.02-0.018    c4.423,0,8.007,3.577,8.014,8.006L623.148,584.474z"
   id="path104" />
		<path
   fill-rule="evenodd"
   clip-rule="evenodd"
   fill="#7E8081"
   d="M691.59,584.435c0.008,4.423-3.576,8.007-8.006,8.007    l-41.02,0.026c-4.416,0-8.008-3.577-8.008-8.001l-0.018-41.024c-0.008-4.431,3.57-8.008,7.986-8.008l41.032-0.026    c4.416,0,8.007,3.577,8.007,7.994L691.59,584.435z"
   id="path106" />
		<path
   fill-rule="evenodd"
   clip-rule="evenodd"
   fill="#7E8081"
   d="M760.039,584.396c0,4.416-3.59,8.008-8.013,8.008l-41.02,0.025    c-4.425,0-8.002-3.578-8.002-8l-0.033-41.026c-0.007-4.423,3.587-8.008,8.002-8.008l41.032-0.026c4.41-0.006,8,3.584,8,8.008    L760.039,584.396z"
   id="path108" />
		<path
   fill-rule="evenodd"
   clip-rule="evenodd"
   fill="#7E8081"
   d="M828.475,584.355c0,4.417-3.577,8.008-8.006,8.015l-41.02,0.02    c-4.432,0-8.009-3.578-8.009-8.001l-0.026-41.02c0.006-4.43,3.591-8.007,8.008-8.014l41.033-0.026c4.409,0,8,3.578,7.993,8.007    L828.475,584.355z"
   id="path110" />
		<path
   fill-rule="evenodd"
   clip-rule="evenodd"
   fill="#7E8081"
   d="M896.924,584.316c0,4.43-3.591,8.007-8.02,8.007l-41.006,0.033    c-4.426-0.006-8.022-3.584-8.016-8.008l-0.02-41.025c0-4.416,3.59-8.008,7.994-8.008l41.027-0.025    c4.422,0,8.012,3.584,8.012,8.007L896.924,584.316z"
   id="path112" />
		<path
   fill-rule="evenodd"
   clip-rule="evenodd"
   fill="#7E8081"
   d="M965.359,584.277c0.013,4.429-3.578,8.007-7.996,8.013    l-41.03,0.021c-4.417,0.013-8.009-3.571-8.015-8.008l-0.02-41.019c0-4.423,3.577-8,8.008-8.007l41.02-0.021    c4.416-0.006,8,3.578,8.006,8.001L965.359,584.277z"
   id="path114" />
		<path
   fill-rule="evenodd"
   clip-rule="evenodd"
   fill="#7E8081"
   d="M1033.808,584.238c0,4.422-3.584,8.014-8.009,8.007    l-41.023,0.027c-4.411,0-8.002-3.586-8.016-8.002l-0.013-41.02c-0.007-4.423,3.577-8.007,8.002-8.007l41.02-0.033    c4.409,0,8.007,3.577,7.999,8.008L1033.808,584.238z"
   id="path116" />
		<path
   fill-rule="evenodd"
   clip-rule="evenodd"
   fill="#7E8081"
   d="M1102.256,584.198c-0.006,4.43-3.59,8.014-8.021,8.014    l-41.02,0.021c-4.408,0-8.012-3.577-8.006-8.008l-0.02-41.006c0-4.431,3.584-8.008,8.002-8.008l41.018-0.039    c4.424,0,8.008,3.585,8.008,8.007L1102.256,584.198z"
   id="path118" />
		<path
   fill-rule="evenodd"
   clip-rule="evenodd"
   fill="#7E8081"
   d="M1170.691,584.165c-0.013,4.424-3.584,8.008-8.008,8.015    l-41.02,0.013c-4.422,0.007-8.006-3.577-8.02-8l-0.02-41.026c0.006-4.409,3.598-8.001,7.995-8.008l41.037-0.019    c4.418,0,7.995,3.584,8.009,8.001L1170.691,584.165z"
   id="path120" />
		<path
   fill-rule="evenodd"
   clip-rule="evenodd"
   fill="#7E8081"
   d="M1239.127,584.127c0.008,4.423-3.576,8-8.008,8.007l-41.013,0.02    c-4.423,0.013-8.02-3.578-8.013-7.994l-0.027-41.032c0-4.417,3.584-7.994,8.007-8.007l41.02-0.02c4.418-0.007,8.009,3.577,8.009,8    L1239.127,584.127z"
   id="path122" />
		<path
   fill-rule="evenodd"
   clip-rule="evenodd"
   fill="#7E8081"
   d="M1177.277,857.928c-0.007,4.417-3.598,8.007-8.014,8.007    l-41.012,0.026c-4.432,0.007-8.016-3.578-8.022-8.001l-0.032-41.025c0.006-4.424,3.597-8.008,8.002-8.008l41.039-0.026    c4.415-0.007,8.006,3.577,8.006,8.008L1177.277,857.928z"
   id="path124" />
		<path
   fill-rule="evenodd"
   clip-rule="evenodd"
   fill="#7E8081"
   d="M418.806,789.904c0,4.424-2.929,8.015-6.546,8.015l-47.585,0.025    c-3.616,0-6.552-3.577-6.552-7.994l-0.02-41.032c0-4.417,2.929-8.008,6.552-8.008l47.578-0.032    c3.617-0.006,6.552,3.578,6.56,7.994L418.806,789.904z"
   id="path126" />
		<path
   fill-rule="evenodd"
   clip-rule="evenodd"
   fill="#7E8081"
   d="M487.072,721.431c0,4.422-3.578,8.006-8.01,8.013l-115.175,0.06    c-4.416,0-7.993-3.578-8.007-7.988l-0.013-41.032c-0.014-4.429,3.57-8.008,7.995-8.021l115.167-0.059    c4.425-0.007,8.009,3.584,8.015,8.008L487.072,721.431z"
   id="path128" />
		<path
   fill-rule="evenodd"
   clip-rule="evenodd"
   fill="#7E8081"
   d="M1354.178,789.374c0.006,4.429-3.578,8.008-7.986,8.014    l-155.108,0.085c-4.415,0-8.013-3.57-8.013-8.001l-0.007-41.025c-0.013-4.423,3.577-8.008,7.993-8.008l155.088-0.078    c4.43-0.007,8.007,3.578,8.014,7.994L1354.178,789.374z"
   id="path130" />
		<path
   fill-rule="evenodd"
   clip-rule="evenodd"
   fill="#7E8081"
   d="M1370.299,584.055c0.013,4.417-3.574,8.007-7.996,8.007    l-103.768,0.06c-4.402,0.006-8.006-3.585-8.006-8.001l-0.014-41.025c0-4.424,3.578-8.008,7.993-8.015l103.78-0.06    c4.405,0.007,8.002,3.586,8.002,8.008L1370.299,584.055z"
   id="path132" />
		<path
   fill-rule="evenodd"
   clip-rule="evenodd"
   fill="#7E8081"
   d="M475.617,653.001c0.014,4.416-3.577,8.007-7.995,8.007    l-103.766,0.053c-4.424,0.007-8.002-3.577-8.008-7.994l-0.021-41.032c0-4.416,3.578-8.002,7.989-8.007l103.772-0.06    c4.424-0.007,8.008,3.578,8.008,8.001L475.617,653.001z"
   id="path134" />
		<path
   fill-rule="evenodd"
   clip-rule="evenodd"
   fill="#7E8081"
   d="M486.233,516.104c0,4.423-3.587,8.007-8.009,8.014l-41.033,0.02    c-4.408,0.007-7.999-3.578-7.999-7.994l-0.007-12.516c0-4.417,3.578-8.008,8-8.008l41.025-0.02c4.423-0.006,8.01,3.584,8.01,7.994    L486.233,516.104z"
   id="path136" />
		<path
   fill-rule="evenodd"
   clip-rule="evenodd"
   fill="#7E8081"
   d="M554.666,516.064c0,4.43-3.584,8.007-7.992,8.014l-41.033,0.021    c-4.416,0.006-8.006-3.578-8.006-7.994l-0.007-12.51c-0.007-4.416,3.584-8.007,7.999-8.007l41.02-0.033    c4.43,0,8.016,3.584,8.016,8.007L554.666,516.064z"
   id="path138" />
		<path
   fill-rule="evenodd"
   clip-rule="evenodd"
   fill="#7E8081"
   d="M623.115,516.031c0,4.424-3.59,8.001-8.006,8.015l-41.02,0.013    c-4.416,0.007-8.014-3.571-8.02-7.994l-0.007-12.516c0-4.416,3.584-7.994,7.999-7.994l41.04-0.038c4.415,0,7.999,3.59,7.999,8.006    L623.115,516.031z"
   id="path140" />
		<path
   fill-rule="evenodd"
   clip-rule="evenodd"
   fill="#7E8081"
   d="M691.551,515.993c0.007,4.415-3.577,8-7.993,8.007l-41.032,0.025    c-4.416,0-8.007-3.584-8.007-8.001l-0.013-12.516c0.006-4.415,3.584-7.999,8.006-7.999l41.033-0.026c4.416,0,8,3.577,8.006,8    V515.993z"
   id="path142" />
		<path
   fill-rule="evenodd"
   clip-rule="evenodd"
   fill="#7E8081"
   d="M760,515.96c0,4.417-3.591,7.994-8,8.008l-41.039,0.013    c-4.416,0.013-8-3.572-7.996-7.987l-0.004-12.522c-0.02-4.417,3.558-8.007,7.993-8.001l41.026-0.02    c4.429,0,8.006,3.577,8.006,7.994L760,515.96z"
   id="path144" />
		<path
   fill-rule="evenodd"
   clip-rule="evenodd"
   fill="#7E8081"
   d="M828.436,515.913c0.013,4.424-3.571,8.015-7.994,8.015    l-41.032,0.026c-4.415,0-8.002-3.591-8.002-8.008l-0.02-12.516c0-4.416,3.579-7.994,8.009-8.007l41.025-0.014    c4.423-0.007,8,3.578,8.007,7.995L828.436,515.913z"
   id="path146" />
		<path
   fill-rule="evenodd"
   clip-rule="evenodd"
   fill="#7E8081"
   d="M896.884,515.881c0,4.417-3.591,8.007-8.007,8.007l-41.02,0.021    c-4.417,0-8.015-3.577-8.015-8.001l-0.007-12.509c-0.006-4.423,3.58-8.008,7.996-8.008l41.025-0.02    c4.423-0.006,8.014,3.578,8.014,7.994L896.884,515.881z"
   id="path148" />
		<path
   fill-rule="evenodd"
   clip-rule="evenodd"
   fill="#7E8081"
   d="M965.24,515.842c0.014,4.423-3.57,8.008-7.986,8.008    l-41.033,0.025c-4.422,0-8.006-3.577-8-8.001l-0.013-12.516c0-4.416,3.577-8,8.007-8l41.02-0.026c4.415,0,8,3.578,7.992,8.001    L965.24,515.842z"
   id="path150" />
		<path
   fill-rule="evenodd"
   clip-rule="evenodd"
   fill="#7E8081"
   d="M1033.689,515.803c0.006,4.43-3.578,8.007-7.994,8.007    l-41.032,0.027c-4.415,0-8.009-3.579-8.009-7.995v-12.515c0-4.417,3.573-8.008,7.996-8.008l41.032-0.02    c4.416-0.007,8,3.584,7.993,7.994L1033.689,515.803z"
   id="path152" />
		<path
   fill-rule="evenodd"
   clip-rule="evenodd"
   fill="#7E8081"
   d="M1102.131,515.763c0.007,4.417-3.577,8.008-8,8.008    l-41.025,0.026c-4.422,0.007-8.002-3.577-8.009-7.994l-0.007-12.509c0.007-4.424,3.586-8.008,7.996-8.015l41.039-0.026    c4.416,0,7.993,3.591,8,8.001L1102.131,515.763z"
   id="path154" />
		<path
   fill-rule="evenodd"
   clip-rule="evenodd"
   fill="#7E8081"
   d="M1170.573,515.724c0,4.423-3.577,8.007-8.007,8.014l-41.006,0.02    c-4.444,0-8.016-3.577-8.008-7.994l-0.014-12.516c-0.007-4.415,3.566-8.007,7.995-8.007l41.02-0.021    c4.423-0.005,8.013,3.579,8.02,8.001V515.724z"
   id="path156" />
		<path
   fill-rule="evenodd"
   clip-rule="evenodd"
   fill="#7E8081"
   d="M1239.021,515.685c0,4.423-3.584,8.015-8.006,8.015    l-41.025,0.019c-4.426,0-8.016-3.584-8.016-7.994v-12.516c0-4.416,3.577-8,8.008-8.007l41.02-0.02    c4.423-0.007,8.007,3.577,8,7.994L1239.021,515.685z"
   id="path158" />
		<path
   fill-rule="evenodd"
   clip-rule="evenodd"
   fill="#7E8081"
   d="M1302.721,825.257c0.006,4.907-3.564,6.381-7.995,6.388    l-41.026,0.026c-4.429,0-8-1.48-7.993-6.383l-0.026-7.554c0-4.902,3.578-8.88,8-8.886l41.032-0.02    c4.425-0.007,8.009,3.977,8.009,8.879V825.257z"
   id="path160" />
		<path
   fill-rule="evenodd"
   clip-rule="evenodd"
   fill="#7E8081"
   d="M1302.74,853.766c0.007,4.909-3.577,6.39-8.002,6.396    l-41.02,0.021c-4.422,0.013-8.006-1.481-8.006-6.383l-0.007-7.535c0-4.907,3.571-8.892,7.993-8.886l41.026-0.033    c4.431,0.007,8.015,3.979,8.015,8.88V853.766z"
   id="path162" />
		<path
   fill-rule="evenodd"
   clip-rule="evenodd"
   fill="#7E8081"
   d="M1365.476,853.747c0.013,4.888-3.566,6.382-8.002,6.375    l-41.013,0.026c-4.43,0.007-8.007-1.468-8.007-6.376l-0.013-7.555c-0.007-4.895,3.584-8.879,8-8.885l41.025-0.026    c4.416,0,8.009,3.977,8.009,8.879V853.747z"
   id="path164" />
		<path
   fill-rule="evenodd"
   clip-rule="evenodd"
   fill="#7E8081"
   d="M1240.006,853.812c0.006,4.902-3.584,6.383-7.996,6.396    l-41.032,0.014c-4.423,0-8.013-1.469-8.02-6.377l0.013-7.555c-0.013-4.901,3.578-8.886,7.996-8.879l41.03-0.033    c4.411,0,7.995,3.979,7.995,8.872L1240.006,853.812z"
   id="path166" />
		<path
   fill-rule="evenodd"
   clip-rule="evenodd"
   fill="#7E8081"
   d="M1020.939,808.986l-3.402-0.007l-37.624,0.032l-27.416,0.007    l-41.02,0.026l-27.416,0.013l-41.032,0.026l-27.41,0.014l-41.033,0.026l-27.416,0.013l-41.02,0.025l-27.416,0.014l-20.51,0.013    l-20.516,0.014c-4.422,0-8.006,3.59-8,8.021l0.024,41.013c0,4.41,3.587,8.001,8.009,8.001l20.51-0.013l20.523-0.014l27.416-0.014    l41.032-0.02l27.403-0.02l41.02-0.02l27.416-0.02l41.032-0.013l27.423-0.026l41.023-0.026l27.405-0.014l37.624-0.02l3.406-0.007    c4.411,0,8.002-3.577,7.995-8.007l-0.02-41.019C1028.945,812.563,1025.361,808.979,1020.939,808.986z"
   id="path168" />
		<path
   fill-rule="evenodd"
   clip-rule="evenodd"
   fill="#7E8081"
   d="M1368.514,603.476l-41.037,0.014    c-4.411,0.007-8.002,3.591-8.002,8.014l0.033,41.02c0,4.423,3.584,8.008,8.002,8.001h3.393l0.026,19.415l0.013,26.217l0.008,14.81    c-0.008,4.416,3.597,8.007,8.008,7.994l29.623-0.02c4.418,0,8.008-3.585,7.995-8.007V706.13l-0.013-26.217l-0.027-27.423v-20.51    l-0.013-20.517C1376.516,607.042,1372.926,603.463,1368.514,603.476z"
   id="path170" />
		<path
   fill-rule="evenodd"
   clip-rule="evenodd"
   fill="#E6E645"
   d="M1293.579,489.945c5.839,0,10.603-4.757,10.603-10.602    c0-5.838-4.764-10.603-10.603-10.603c-5.846,0-10.603,4.765-10.603,10.603C1282.977,485.188,1287.733,489.945,1293.579,489.945z"
   id="path172" />
		<path
   fill-rule="evenodd"
   clip-rule="evenodd"
   fill="#E6E645"
   d="M1340.379,489.218c5.844,0,10.602-4.763,10.602-10.607    c0-5.833-4.758-10.603-10.602-10.603c-5.84,0-10.604,4.77-10.604,10.603C1329.775,484.455,1334.539,489.218,1340.379,489.218z"
   id="path174" />
		<path
   fill-rule="evenodd"
   clip-rule="evenodd"
   fill="#DBDAD9"
   d="M1386.449,489.218c5.84,0,10.603-4.763,10.603-10.607    c0-5.833-4.763-10.603-10.603-10.603c-5.839,0-10.602,4.77-10.602,10.603C1375.848,484.455,1380.61,489.218,1386.449,489.218z"
   id="path176" />
	</g>
</g>

<g
   id="Layer_3">
</g>
</svg>