<?xml version="1.0" encoding="utf-8"?>
<!-- Designed by Vexels.com - 2020 All Rights Reserved - https://vexels.com/terms-and-conditions/  -->
<svg version="1.1" id="Capa_1" xmlns="http://www.w3.org/2000/svg" xmlns:xlink="http://www.w3.org/1999/xlink" x="0px" y="0px"
	 viewBox="0 0 1200 1200" enable-background="new 0 0 1200 1200" xml:space="preserve">
<g>
	<path fill="#FFFFFF" d="M340.51,333.239c0,143.087,116.404,259.494,259.491,259.494c143.081,0,259.487-116.407,259.487-259.494
		c0-143.082-116.406-259.489-259.487-259.489C456.914,73.75,340.51,190.157,340.51,333.239z M593.085,508.879
		c-9.505,0-17.209-7.705-17.209-17.209c0-9.504,7.704-17.209,17.209-17.209c9.505,0,17.207,7.705,17.207,17.209
		C610.292,501.174,602.59,508.879,593.085,508.879z M698.514,259.306c0,34.256-26.362,64.341-67.156,76.644
		c-15.04,4.537-25.141,17.869-25.141,33.183v57.715c0,7.254-5.879,13.134-13.136,13.134c-7.256,0-13.136-5.88-13.136-13.134v-57.715
		c0-26.986,17.613-50.427,43.825-58.333c28.995-8.742,48.47-29.435,48.47-51.494c0-30.83-35.509-55.915-79.158-55.915
		c-43.642,0-79.151,25.086-79.151,55.915c0,7.254-5.881,13.134-13.136,13.134c-7.258,0-13.136-5.88-13.136-13.134
		c0-45.317,47.294-82.182,105.424-82.182C651.218,177.124,698.514,213.99,698.514,259.306z"/>
	<path fill="#FFC5C5" d="M1028.017,694.203c-19.531-15.485-66.115-45.791-97.961-12.436c-27.732,29.112-85.628,89.747-85.628,89.747
		c-0.998,1.047-2.181,1.901-3.487,2.524l-47.157,22.429c0.104,0.913,0.234,1.845,0.251,2.677c0.24,9.954-3.926,27.523-13.628,42.556
		c-9.247,14.321-26.774,31.554-57.728,32.296l-150.935,3.525l-0.556-23.742l150.933-3.525c16.506-0.398,29.401-7.611,38.332-21.438
		c7.599-11.77,9.942-24.917,9.834-29.107c-0.071-3.251-3.441-13.529-12.943-22.931c-8.11-8.017-23.356-17.438-47.764-16.85
		l-92.446,2.145c-2.785,0.112-5.328-0.792-7.477-2.424c-0.393-0.294-39.413-29.443-73.181-29.006l-59.964,1.426
		c-22.497,0.529-43.024,1.013-54.281,1.299c-7.782,0.174-48.488,3.166-88.744,45.378l-77.747,81.481l161.619,154.209l26.017-27.242
		c2.288-2.389,5.305-3.579,8.775-3.672l291.415,4.49L993.899,729.96L1028.017,694.203z"/>
	<path fill="#94F7F2" d="M447.954,1076.449L214.422,853.625l-51.094,53.534c-0.47,0.494-0.991,0.909-1.52,1.304l234.368,222.409
		c0.247-0.316,0.455-0.651,0.737-0.946L447.954,1076.449z"/>
	<path fill="#565656" d="M600.001,616.483c156.177,0,283.236-127.064,283.236-283.243S756.178,50,600.001,50
		c-156.183,0-283.242,127.061-283.242,283.239S443.818,616.483,600.001,616.483z M859.487,333.239
		c0,143.087-116.406,259.494-259.487,259.494c-143.086,0-259.491-116.407-259.491-259.494
		c0-143.082,116.404-259.489,259.491-259.489C743.082,73.75,859.487,190.157,859.487,333.239z"/>
	<path fill="#565656" d="M1053.452,684.744c-28.807-27.469-95.272-66.858-140.581-19.366c-25.09,26.328-74.821,78.428-84.106,88.153
		l-43.419,20.65c-2.971-4.841-6.683-9.718-11.302-14.287c-11.372-11.253-31.682-24.472-65.025-23.707l-88.435,2.052
		c-11.458-8.047-49.016-32.323-84.673-31.338l-59.955,1.426c-22.519,0.53-43.059,1.013-54.286,1.299
		c-27.198,0.599-69.162,14.766-105.365,52.73l-77.743,81.477l-16.336-15.589c-4.732-4.516-12.248-4.346-16.786,0.394l-59.289,62.123
		c-4.529,4.742-4.352,12.261,0.395,16.788c4.246,4.058,10.708,4.311,15.265,0.913c0.528-0.395,1.05-0.81,1.52-1.304l51.094-53.534
		l233.532,222.824l-51.041,53.476c-0.282,0.296-0.49,0.63-0.737,0.946c-3.696,4.751-3.319,11.598,1.125,15.842
		c2.302,2.195,5.255,3.286,8.203,3.286c3.13,0,6.254-1.234,8.589-3.677l59.242-62.065c2.174-2.277,3.355-5.327,3.286-8.477
		c-0.075-3.146-1.399-6.139-3.679-8.315l-38.394-36.633l22.422-23.483l295.482,4.554c3.277-0.004,6.495-1.28,8.773-3.676
		l292.622-306.691c2.178-2.281,3.355-5.331,3.286-8.478C1057.056,689.908,1055.732,686.916,1053.452,684.744z M747.625,988.076
		l-4.058-0.063l-291.415-4.49c-3.471,0.092-6.488,1.283-8.775,3.672l-26.017,27.242L255.742,860.228l77.747-81.481
		c40.256-42.212,80.961-45.204,88.744-45.378c11.257-0.286,31.784-0.769,54.281-1.299l59.964-1.426
		c33.768-0.437,72.788,28.713,73.181,29.006c2.149,1.632,4.692,2.536,7.477,2.424l92.446-2.145
		c24.408-0.588,39.654,8.832,47.764,16.85c9.501,9.401,12.871,19.679,12.943,22.931c0.108,4.19-2.234,17.337-9.834,29.107
		c-8.931,13.828-21.826,21.04-38.332,21.438l-150.933,3.525l0.556,23.742l150.935-3.525c30.954-0.742,48.481-17.975,57.728-32.296
		c9.702-15.033,13.868-32.602,13.628-42.556c-0.016-0.833-0.146-1.765-0.251-2.677l47.157-22.429
		c1.306-0.623,2.489-1.477,3.487-2.524c0,0,57.896-60.635,85.628-89.747c31.846-33.356,78.43-3.05,97.961,12.436l-34.117,35.757
		L747.625,988.076z"/>
	<path fill="#565656" d="M487.658,259.306c0,7.254,5.879,13.134,13.136,13.134c7.256,0,13.136-5.88,13.136-13.134
		c0-30.83,35.509-55.915,79.151-55.915c43.649,0,79.158,25.086,79.158,55.915c0,22.058-19.474,42.752-48.47,51.494
		c-26.212,7.906-43.825,31.347-43.825,58.333v57.715c0,7.254,5.881,13.134,13.136,13.134c7.258,0,13.136-5.88,13.136-13.134v-57.715
		c0-15.314,10.101-28.646,25.141-33.183c40.793-12.303,67.156-42.387,67.156-76.644c0-45.317-47.296-82.182-105.433-82.182
		C534.951,177.124,487.658,213.99,487.658,259.306z"/>
	<path fill="#565656" d="M593.085,474.462c-9.505,0-17.209,7.705-17.209,17.209c0,9.503,7.704,17.209,17.209,17.209
		c9.505,0,17.207-7.705,17.207-17.209C610.292,482.167,602.59,474.462,593.085,474.462z"/>
</g>
</svg>
