<?xml version="1.0" encoding="utf-8"?>
<!-- Designed by Vexels.com - 2020 All Rights Reserved - https://vexels.com/terms-and-conditions/  -->
<svg version="1.1" id="Layer_1" xmlns="http://www.w3.org/2000/svg" xmlns:xlink="http://www.w3.org/1999/xlink" x="0px" y="0px"
	 viewBox="0 0 1200 1200" enable-background="new 0 0 1200 1200" xml:space="preserve">
<g>
	<polygon fill="none" points="224.158,272.806 119.862,513.998 329.246,513.998 	"/>
	<polygon fill="none" points="870.094,513.998 1079.482,513.998 975.411,272.803 	"/>
	<path fill="#5EC1D2" d="M870.094,513.998l105.317-241.195l104.072,241.195h53.668c2.568,0,4.973,0.612,7.146,1.635
		l-139.401-323.066c-0.26-0.604-0.641-1.111-0.939-1.687c-0.468-0.904-0.914-1.809-1.48-2.659c-0.493-0.741-1.064-1.396-1.619-2.077
		c-0.576-0.707-1.126-1.42-1.775-2.071c-0.66-0.664-1.384-1.23-2.104-1.818c-0.67-0.549-1.313-1.113-2.04-1.602
		c-0.831-0.559-1.719-1.002-2.604-1.466c-0.591-0.311-1.114-0.705-1.736-0.977c-0.148-0.065-0.306-0.084-0.456-0.146
		c-0.955-0.396-1.952-0.654-2.945-0.942c-0.747-0.215-1.48-0.498-2.233-0.647c-0.993-0.199-2.011-0.243-3.026-0.332
		c-0.76-0.065-1.519-0.204-2.275-0.205c-0.439-0.002-0.88,0.06-1.32,0.079c-0.366-0.014-0.71-0.109-1.08-0.109H224.31
		c-0.006,0-0.012,0-0.019,0h-0.229c-0.025,0-0.05,0.008-0.075,0.008c-1.043,0.002-2.086,0.177-3.133,0.3
		c-0.687,0.082-1.384,0.091-2.061,0.224c-0.106,0.021-0.219,0.019-0.325,0.04c-0.701,0.146-1.386,0.443-2.083,0.647
		c-0.142,0.041-0.281,0.088-0.421,0.131c-0.762,0.235-1.54,0.408-2.279,0.707c-0.169,0.069-0.345,0.123-0.512,0.195
		c-0.044,0.019-0.09,0.024-0.135,0.043c-0.568,0.247-1.041,0.609-1.584,0.89c-0.129,0.067-0.254,0.139-0.383,0.208
		c-0.714,0.382-1.449,0.711-2.131,1.156c-0.167,0.111-0.337,0.216-0.502,0.33c-0.666,0.458-1.234,1.007-1.85,1.515
		c-0.612,0.503-1.253,0.958-1.823,1.516c-0.137,0.133-0.268,0.268-0.402,0.404c-0.589,0.604-1.074,1.28-1.605,1.931
		c-0.477,0.585-0.999,1.119-1.43,1.749c-0.112,0.161-0.21,0.329-0.318,0.493c-0.477,0.732-0.837,1.521-1.243,2.292
		c-0.069,0.132-0.146,0.259-0.214,0.392c-0.256,0.504-0.591,0.942-0.82,1.468l-0.089,0.206c-0.002,0.007-0.006,0.013-0.01,0.02
		L58.807,516.129c2.398-1.315,5.108-2.132,8.041-2.132h53.013l104.297-241.192l105.088,241.192h53.142
		c2.904,0,5.591,0.803,7.972,2.094l-124.175-285h304.889v656.048c0,3.352,0.687,6.524,1.782,9.496h51.62
		c1.095-2.973,1.782-6.145,1.782-9.496V231.091H933.4l-124.66,285.496c2.581-1.609,5.599-2.589,8.869-2.589H870.094z"/>
	<path fill="#5EC1D2" d="M800.892,536.252c-0.895,4.518-0.539,9.059,0.756,13.313c-0.346-3.805-0.614-7.627-0.71-11.485
		L800.892,536.252z"/>
	<path fill="#5EC1D2" d="M50.438,543.303c-0.044-0.809-0.089-1.618-0.123-2.429C50.296,541.692,50.386,542.491,50.438,543.303z"/>
	<path fill="#50959E" d="M403.418,896.635c-16.156,0-29.253,13.096-29.253,29.252v25.786h-60.027
		c-16.156,0-29.253,13.097-29.253,29.252v43.167h627.56v-43.167c0-16.155-13.097-29.252-29.253-29.252h-60.027v-25.786
		c0-16.156-13.096-29.252-29.251-29.252H624.477h-51.62H403.418z"/>
	<path fill="#F5C942" d="M329.246,513.998H119.862H66.848c-2.933,0-5.643,0.817-8.041,2.132c-5.347,2.93-8.965,8.603-8.802,15.139
		l0.169,6.812c0.025,0.936,0.104,1.86,0.14,2.793c0.035,0.812,0.079,1.621,0.123,2.429c5.135,93.552,84.343,171.274,178.466,169.057
		c93.37-2.2,167.702-76.115,170.052-170.08l0.275-11.011c0.166-6.564-3.486-12.259-8.871-15.177
		c-2.381-1.291-5.068-2.094-7.972-2.094H329.246z"/>
	<path fill="#F5C942" d="M1140.296,515.633c-2.173-1.023-4.579-1.635-7.146-1.635h-53.668H870.094H817.61
		c-3.27,0-6.288,0.981-8.869,2.589c-4.889,3.049-8.13,8.484-7.974,14.681l0.125,4.984l0.046,1.828
		c0.096,3.858,0.364,7.68,0.71,11.485c8.236,90.731,86.004,164.962,178.018,162.794c93.37-2.2,167.702-76.115,170.052-170.08
		l0.277-11.011C1150.166,524.367,1146.145,518.388,1140.296,515.633z"/>
</g>
</svg>
