<?xml version="1.0" encoding="UTF-8" standalone="no"?>
<!DOCTYPE svg PUBLIC "-//W3C//DTD SVG 1.1//EN"
 "http://www.w3.org/Graphics/SVG/1.1/DTD/svg11.dtd">
<!-- Generated by graphviz version 2.28.0 (20110507.0327)
 -->
<!-- Title: G Pages: 1 -->
<svg width="308pt" height="786pt"
 viewBox="0.00 0.00 308.00 786.00" xmlns="http://www.w3.org/2000/svg" xmlns:xlink="http://www.w3.org/1999/xlink">
<g id="graph1" class="graph" transform="scale(1 1) rotate(0) translate(4 782)">
<title>G</title>
<polygon fill="white" stroke="white" points="-4,5 -4,-782 305,-782 305,5 -4,5"/>
<!-- node0 -->
<g id="node1" class="node"><title>node0</title>
<polygon fill="none" stroke="black" points="0,-741 0,-777 300,-777 300,-741 0,-741"/>
<text text-anchor="middle" x="15" y="-755.3" font-family="Times New Roman,serif" font-size="14.00">15</text>
<polyline fill="none" stroke="black" points="30,-741 30,-777 "/>
<text text-anchor="middle" x="45" y="-755.3" font-family="Times New Roman,serif" font-size="14.00">57</text>
<polyline fill="none" stroke="black" points="60,-741 60,-777 "/>
<text text-anchor="middle" x="75" y="-755.3" font-family="Times New Roman,serif" font-size="14.00">14</text>
<polyline fill="none" stroke="black" points="90,-741 90,-777 "/>
<text text-anchor="middle" x="105" y="-755.3" font-family="Times New Roman,serif" font-size="14.00">22</text>
<polyline fill="none" stroke="black" points="120,-741 120,-777 "/>
<text text-anchor="middle" x="135" y="-755.3" font-family="Times New Roman,serif" font-size="14.00">72</text>
<polyline fill="none" stroke="black" points="150,-741 150,-777 "/>
<text text-anchor="middle" x="165" y="-755.3" font-family="Times New Roman,serif" font-size="14.00">79</text>
<polyline fill="none" stroke="black" points="180,-741 180,-777 "/>
<text text-anchor="middle" x="195" y="-755.3" font-family="Times New Roman,serif" font-size="14.00">26</text>
<polyline fill="none" stroke="black" points="210,-741 210,-777 "/>
<text text-anchor="middle" x="225" y="-755.3" font-family="Times New Roman,serif" font-size="14.00">56</text>
<polyline fill="none" stroke="black" points="240,-741 240,-777 "/>
<text text-anchor="middle" x="255" y="-755.3" font-family="Times New Roman,serif" font-size="14.00">42</text>
<polyline fill="none" stroke="black" points="270,-741 270,-777 "/>
<text text-anchor="middle" x="285" y="-755.3" font-family="Times New Roman,serif" font-size="14.00">40</text>
</g>
<!-- node1 -->
<g id="node3" class="node"><title>node1</title>
<polygon fill="none" stroke="black" points="0,-667 0,-703 300,-703 300,-667 0,-667"/>
<text text-anchor="middle" x="15" y="-681.3" font-family="Times New Roman,serif" font-size="14.00">14</text>
<polyline fill="none" stroke="black" points="30,-667 30,-703 "/>
<text text-anchor="middle" x="45" y="-681.3" font-family="Times New Roman,serif" font-size="14.00">57</text>
<polyline fill="none" stroke="black" points="60,-667 60,-703 "/>
<text text-anchor="middle" x="75" y="-681.3" font-family="Times New Roman,serif" font-size="14.00">15</text>
<polyline fill="none" stroke="black" points="90,-667 90,-703 "/>
<text text-anchor="middle" x="105" y="-681.3" font-family="Times New Roman,serif" font-size="14.00">22</text>
<polyline fill="none" stroke="black" points="120,-667 120,-703 "/>
<text text-anchor="middle" x="135" y="-681.3" font-family="Times New Roman,serif" font-size="14.00">72</text>
<polyline fill="none" stroke="black" points="150,-667 150,-703 "/>
<text text-anchor="middle" x="165" y="-681.3" font-family="Times New Roman,serif" font-size="14.00">79</text>
<polyline fill="none" stroke="black" points="180,-667 180,-703 "/>
<text text-anchor="middle" x="195" y="-681.3" font-family="Times New Roman,serif" font-size="14.00">26</text>
<polyline fill="none" stroke="black" points="210,-667 210,-703 "/>
<text text-anchor="middle" x="225" y="-681.3" font-family="Times New Roman,serif" font-size="14.00">56</text>
<polyline fill="none" stroke="black" points="240,-667 240,-703 "/>
<text text-anchor="middle" x="255" y="-681.3" font-family="Times New Roman,serif" font-size="14.00">42</text>
<polyline fill="none" stroke="black" points="270,-667 270,-703 "/>
<text text-anchor="middle" x="285" y="-681.3" font-family="Times New Roman,serif" font-size="14.00">40</text>
</g>
<!-- node0&#45;&gt;node1 -->
<g id="edge2" class="edge"><title>node0:f2&#45;&gt;node1:f0</title>
<path fill="none" stroke="red" d="M75,-740C75,-713.032 29.8792,-729.151 17.8939,-713.627"/>
<polygon fill="red" stroke="red" points="21.2306,-712.569 15,-704 14.5269,-714.584 21.2306,-712.569"/>
</g>
<!-- node0&#45;&gt;node1 -->
<g id="edge4" class="edge"><title>node0:f0&#45;&gt;node1:f2</title>
<path fill="none" stroke="blue" d="M15,-740C15,-713.032 60.1208,-729.151 72.1061,-713.627"/>
<polygon fill="blue" stroke="blue" points="75.4731,-714.584 75,-704 68.7694,-712.569 75.4731,-714.584"/>
</g>
<!-- node2 -->
<g id="node6" class="node"><title>node2</title>
<polygon fill="none" stroke="black" points="0,-593 0,-629 300,-629 300,-593 0,-593"/>
<text text-anchor="middle" x="15" y="-607.3" font-family="Times New Roman,serif" font-size="14.00">14</text>
<polyline fill="none" stroke="black" points="30,-593 30,-629 "/>
<text text-anchor="middle" x="45" y="-607.3" font-family="Times New Roman,serif" font-size="14.00">15</text>
<polyline fill="none" stroke="black" points="60,-593 60,-629 "/>
<text text-anchor="middle" x="75" y="-607.3" font-family="Times New Roman,serif" font-size="14.00">57</text>
<polyline fill="none" stroke="black" points="90,-593 90,-629 "/>
<text text-anchor="middle" x="105" y="-607.3" font-family="Times New Roman,serif" font-size="14.00">22</text>
<polyline fill="none" stroke="black" points="120,-593 120,-629 "/>
<text text-anchor="middle" x="135" y="-607.3" font-family="Times New Roman,serif" font-size="14.00">72</text>
<polyline fill="none" stroke="black" points="150,-593 150,-629 "/>
<text text-anchor="middle" x="165" y="-607.3" font-family="Times New Roman,serif" font-size="14.00">79</text>
<polyline fill="none" stroke="black" points="180,-593 180,-629 "/>
<text text-anchor="middle" x="195" y="-607.3" font-family="Times New Roman,serif" font-size="14.00">26</text>
<polyline fill="none" stroke="black" points="210,-593 210,-629 "/>
<text text-anchor="middle" x="225" y="-607.3" font-family="Times New Roman,serif" font-size="14.00">56</text>
<polyline fill="none" stroke="black" points="240,-593 240,-629 "/>
<text text-anchor="middle" x="255" y="-607.3" font-family="Times New Roman,serif" font-size="14.00">42</text>
<polyline fill="none" stroke="black" points="270,-593 270,-629 "/>
<text text-anchor="middle" x="285" y="-607.3" font-family="Times New Roman,serif" font-size="14.00">40</text>
</g>
<!-- node1&#45;&gt;node2 -->
<g id="edge6" class="edge"><title>node1:f2&#45;&gt;node2:f1</title>
<path fill="none" stroke="red" d="M75,-666C75,-649.241 55.5743,-649.629 47.9862,-639.568"/>
<polygon fill="red" stroke="red" points="51.3205,-638.503 45,-630 44.6385,-640.589 51.3205,-638.503"/>
</g>
<!-- node1&#45;&gt;node2 -->
<g id="edge8" class="edge"><title>node1:f1&#45;&gt;node2:f2</title>
<path fill="none" stroke="blue" d="M45,-666C45,-649.241 64.4257,-649.629 72.0138,-639.568"/>
<polygon fill="blue" stroke="blue" points="75.3615,-640.589 75,-630 68.6795,-638.503 75.3615,-640.589"/>
</g>
<!-- node3 -->
<g id="node9" class="node"><title>node3</title>
<polygon fill="none" stroke="black" points="0,-519 0,-555 300,-555 300,-519 0,-519"/>
<text text-anchor="middle" x="15" y="-533.3" font-family="Times New Roman,serif" font-size="14.00">14</text>
<polyline fill="none" stroke="black" points="30,-519 30,-555 "/>
<text text-anchor="middle" x="45" y="-533.3" font-family="Times New Roman,serif" font-size="14.00">15</text>
<polyline fill="none" stroke="black" points="60,-519 60,-555 "/>
<text text-anchor="middle" x="75" y="-533.3" font-family="Times New Roman,serif" font-size="14.00">22</text>
<polyline fill="none" stroke="black" points="90,-519 90,-555 "/>
<text text-anchor="middle" x="105" y="-533.3" font-family="Times New Roman,serif" font-size="14.00">57</text>
<polyline fill="none" stroke="black" points="120,-519 120,-555 "/>
<text text-anchor="middle" x="135" y="-533.3" font-family="Times New Roman,serif" font-size="14.00">72</text>
<polyline fill="none" stroke="black" points="150,-519 150,-555 "/>
<text text-anchor="middle" x="165" y="-533.3" font-family="Times New Roman,serif" font-size="14.00">79</text>
<polyline fill="none" stroke="black" points="180,-519 180,-555 "/>
<text text-anchor="middle" x="195" y="-533.3" font-family="Times New Roman,serif" font-size="14.00">26</text>
<polyline fill="none" stroke="black" points="210,-519 210,-555 "/>
<text text-anchor="middle" x="225" y="-533.3" font-family="Times New Roman,serif" font-size="14.00">56</text>
<polyline fill="none" stroke="black" points="240,-519 240,-555 "/>
<text text-anchor="middle" x="255" y="-533.3" font-family="Times New Roman,serif" font-size="14.00">42</text>
<polyline fill="none" stroke="black" points="270,-519 270,-555 "/>
<text text-anchor="middle" x="285" y="-533.3" font-family="Times New Roman,serif" font-size="14.00">40</text>
</g>
<!-- node2&#45;&gt;node3 -->
<g id="edge10" class="edge"><title>node2:f3&#45;&gt;node3:f2</title>
<path fill="none" stroke="red" d="M105,-592C105,-575.241 85.5743,-575.629 77.9862,-565.568"/>
<polygon fill="red" stroke="red" points="81.3205,-564.503 75,-556 74.6385,-566.589 81.3205,-564.503"/>
</g>
<!-- node2&#45;&gt;node3 -->
<g id="edge12" class="edge"><title>node2:f2&#45;&gt;node3:f3</title>
<path fill="none" stroke="blue" d="M75,-592C75,-575.241 94.4257,-575.629 102.014,-565.568"/>
<polygon fill="blue" stroke="blue" points="105.362,-566.589 105,-556 98.6795,-564.503 105.362,-566.589"/>
</g>
<!-- node4 -->
<g id="node12" class="node"><title>node4</title>
<polygon fill="none" stroke="black" points="0,-445 0,-481 300,-481 300,-445 0,-445"/>
<text text-anchor="middle" x="15" y="-459.3" font-family="Times New Roman,serif" font-size="14.00">14</text>
<polyline fill="none" stroke="black" points="30,-445 30,-481 "/>
<text text-anchor="middle" x="45" y="-459.3" font-family="Times New Roman,serif" font-size="14.00">15</text>
<polyline fill="none" stroke="black" points="60,-445 60,-481 "/>
<text text-anchor="middle" x="75" y="-459.3" font-family="Times New Roman,serif" font-size="14.00">22</text>
<polyline fill="none" stroke="black" points="90,-445 90,-481 "/>
<text text-anchor="middle" x="105" y="-459.3" font-family="Times New Roman,serif" font-size="14.00">26</text>
<polyline fill="none" stroke="black" points="120,-445 120,-481 "/>
<text text-anchor="middle" x="135" y="-459.3" font-family="Times New Roman,serif" font-size="14.00">72</text>
<polyline fill="none" stroke="black" points="150,-445 150,-481 "/>
<text text-anchor="middle" x="165" y="-459.3" font-family="Times New Roman,serif" font-size="14.00">79</text>
<polyline fill="none" stroke="black" points="180,-445 180,-481 "/>
<text text-anchor="middle" x="195" y="-459.3" font-family="Times New Roman,serif" font-size="14.00">57</text>
<polyline fill="none" stroke="black" points="210,-445 210,-481 "/>
<text text-anchor="middle" x="225" y="-459.3" font-family="Times New Roman,serif" font-size="14.00">56</text>
<polyline fill="none" stroke="black" points="240,-445 240,-481 "/>
<text text-anchor="middle" x="255" y="-459.3" font-family="Times New Roman,serif" font-size="14.00">42</text>
<polyline fill="none" stroke="black" points="270,-445 270,-481 "/>
<text text-anchor="middle" x="285" y="-459.3" font-family="Times New Roman,serif" font-size="14.00">40</text>
</g>
<!-- node3&#45;&gt;node4 -->
<g id="edge14" class="edge"><title>node3:f6&#45;&gt;node4:f3</title>
<path fill="none" stroke="red" d="M195,-518C195,-478.958 121.084,-516.495 107.225,-491.812"/>
<polygon fill="red" stroke="red" points="110.625,-490.978 105,-482 103.798,-492.526 110.625,-490.978"/>
</g>
<!-- node3&#45;&gt;node4 -->
<g id="edge16" class="edge"><title>node3:f3&#45;&gt;node4:f6</title>
<path fill="none" stroke="blue" d="M105,-518C105,-478.958 178.916,-516.495 192.775,-491.812"/>
<polygon fill="blue" stroke="blue" points="196.202,-492.526 195,-482 189.375,-490.978 196.202,-492.526"/>
</g>
<!-- node5 -->
<g id="node15" class="node"><title>node5</title>
<polygon fill="none" stroke="black" points="0,-371 0,-407 300,-407 300,-371 0,-371"/>
<text text-anchor="middle" x="15" y="-385.3" font-family="Times New Roman,serif" font-size="14.00">14</text>
<polyline fill="none" stroke="black" points="30,-371 30,-407 "/>
<text text-anchor="middle" x="45" y="-385.3" font-family="Times New Roman,serif" font-size="14.00">15</text>
<polyline fill="none" stroke="black" points="60,-371 60,-407 "/>
<text text-anchor="middle" x="75" y="-385.3" font-family="Times New Roman,serif" font-size="14.00">22</text>
<polyline fill="none" stroke="black" points="90,-371 90,-407 "/>
<text text-anchor="middle" x="105" y="-385.3" font-family="Times New Roman,serif" font-size="14.00">26</text>
<polyline fill="none" stroke="black" points="120,-371 120,-407 "/>
<text text-anchor="middle" x="135" y="-385.3" font-family="Times New Roman,serif" font-size="14.00">40</text>
<polyline fill="none" stroke="black" points="150,-371 150,-407 "/>
<text text-anchor="middle" x="165" y="-385.3" font-family="Times New Roman,serif" font-size="14.00">79</text>
<polyline fill="none" stroke="black" points="180,-371 180,-407 "/>
<text text-anchor="middle" x="195" y="-385.3" font-family="Times New Roman,serif" font-size="14.00">57</text>
<polyline fill="none" stroke="black" points="210,-371 210,-407 "/>
<text text-anchor="middle" x="225" y="-385.3" font-family="Times New Roman,serif" font-size="14.00">56</text>
<polyline fill="none" stroke="black" points="240,-371 240,-407 "/>
<text text-anchor="middle" x="255" y="-385.3" font-family="Times New Roman,serif" font-size="14.00">42</text>
<polyline fill="none" stroke="black" points="270,-371 270,-407 "/>
<text text-anchor="middle" x="285" y="-385.3" font-family="Times New Roman,serif" font-size="14.00">72</text>
</g>
<!-- node4&#45;&gt;node5 -->
<g id="edge18" class="edge"><title>node4:f9&#45;&gt;node5:f4</title>
<path fill="none" stroke="red" d="M285,-444C285,-379.323 151.511,-465.649 136.389,-418.078"/>
<polygon fill="red" stroke="red" points="139.833,-417.428 135,-408 132.898,-418.384 139.833,-417.428"/>
</g>
<!-- node4&#45;&gt;node5 -->
<g id="edge20" class="edge"><title>node4:f4&#45;&gt;node5:f9</title>
<path fill="none" stroke="blue" d="M135,-444C135,-379.323 268.489,-465.649 283.611,-418.078"/>
<polygon fill="blue" stroke="blue" points="287.102,-418.384 285,-408 280.167,-417.428 287.102,-418.384"/>
</g>
<!-- node6 -->
<g id="node18" class="node"><title>node6</title>
<polygon fill="none" stroke="black" points="0,-297 0,-333 300,-333 300,-297 0,-297"/>
<text text-anchor="middle" x="15" y="-311.3" font-family="Times New Roman,serif" font-size="14.00">14</text>
<polyline fill="none" stroke="black" points="30,-297 30,-333 "/>
<text text-anchor="middle" x="45" y="-311.3" font-family="Times New Roman,serif" font-size="14.00">15</text>
<polyline fill="none" stroke="black" points="60,-297 60,-333 "/>
<text text-anchor="middle" x="75" y="-311.3" font-family="Times New Roman,serif" font-size="14.00">22</text>
<polyline fill="none" stroke="black" points="90,-297 90,-333 "/>
<text text-anchor="middle" x="105" y="-311.3" font-family="Times New Roman,serif" font-size="14.00">26</text>
<polyline fill="none" stroke="black" points="120,-297 120,-333 "/>
<text text-anchor="middle" x="135" y="-311.3" font-family="Times New Roman,serif" font-size="14.00">40</text>
<polyline fill="none" stroke="black" points="150,-297 150,-333 "/>
<text text-anchor="middle" x="165" y="-311.3" font-family="Times New Roman,serif" font-size="14.00">42</text>
<polyline fill="none" stroke="black" points="180,-297 180,-333 "/>
<text text-anchor="middle" x="195" y="-311.3" font-family="Times New Roman,serif" font-size="14.00">57</text>
<polyline fill="none" stroke="black" points="210,-297 210,-333 "/>
<text text-anchor="middle" x="225" y="-311.3" font-family="Times New Roman,serif" font-size="14.00">56</text>
<polyline fill="none" stroke="black" points="240,-297 240,-333 "/>
<text text-anchor="middle" x="255" y="-311.3" font-family="Times New Roman,serif" font-size="14.00">79</text>
<polyline fill="none" stroke="black" points="270,-297 270,-333 "/>
<text text-anchor="middle" x="285" y="-311.3" font-family="Times New Roman,serif" font-size="14.00">72</text>
</g>
<!-- node5&#45;&gt;node6 -->
<g id="edge22" class="edge"><title>node5:f8&#45;&gt;node6:f5</title>
<path fill="none" stroke="red" d="M255,-370C255,-330.958 181.084,-368.495 167.225,-343.812"/>
<polygon fill="red" stroke="red" points="170.625,-342.978 165,-334 163.798,-344.526 170.625,-342.978"/>
</g>
<!-- node5&#45;&gt;node6 -->
<g id="edge24" class="edge"><title>node5:f5&#45;&gt;node6:f8</title>
<path fill="none" stroke="blue" d="M165,-370C165,-330.958 238.916,-368.495 252.775,-343.812"/>
<polygon fill="blue" stroke="blue" points="256.202,-344.526 255,-334 249.375,-342.978 256.202,-344.526"/>
</g>
<!-- node7 -->
<g id="node21" class="node"><title>node7</title>
<polygon fill="none" stroke="black" points="0,-223 0,-259 300,-259 300,-223 0,-223"/>
<text text-anchor="middle" x="15" y="-237.3" font-family="Times New Roman,serif" font-size="14.00">14</text>
<polyline fill="none" stroke="black" points="30,-223 30,-259 "/>
<text text-anchor="middle" x="45" y="-237.3" font-family="Times New Roman,serif" font-size="14.00">15</text>
<polyline fill="none" stroke="black" points="60,-223 60,-259 "/>
<text text-anchor="middle" x="75" y="-237.3" font-family="Times New Roman,serif" font-size="14.00">22</text>
<polyline fill="none" stroke="black" points="90,-223 90,-259 "/>
<text text-anchor="middle" x="105" y="-237.3" font-family="Times New Roman,serif" font-size="14.00">26</text>
<polyline fill="none" stroke="black" points="120,-223 120,-259 "/>
<text text-anchor="middle" x="135" y="-237.3" font-family="Times New Roman,serif" font-size="14.00">40</text>
<polyline fill="none" stroke="black" points="150,-223 150,-259 "/>
<text text-anchor="middle" x="165" y="-237.3" font-family="Times New Roman,serif" font-size="14.00">42</text>
<polyline fill="none" stroke="black" points="180,-223 180,-259 "/>
<text text-anchor="middle" x="195" y="-237.3" font-family="Times New Roman,serif" font-size="14.00">56</text>
<polyline fill="none" stroke="black" points="210,-223 210,-259 "/>
<text text-anchor="middle" x="225" y="-237.3" font-family="Times New Roman,serif" font-size="14.00">57</text>
<polyline fill="none" stroke="black" points="240,-223 240,-259 "/>
<text text-anchor="middle" x="255" y="-237.3" font-family="Times New Roman,serif" font-size="14.00">79</text>
<polyline fill="none" stroke="black" points="270,-223 270,-259 "/>
<text text-anchor="middle" x="285" y="-237.3" font-family="Times New Roman,serif" font-size="14.00">72</text>
</g>
<!-- node6&#45;&gt;node7 -->
<g id="edge26" class="edge"><title>node6:f7&#45;&gt;node7:f6</title>
<path fill="none" stroke="red" d="M225,-296C225,-279.241 205.574,-279.629 197.986,-269.568"/>
<polygon fill="red" stroke="red" points="201.321,-268.503 195,-260 194.638,-270.589 201.321,-268.503"/>
</g>
<!-- node6&#45;&gt;node7 -->
<g id="edge28" class="edge"><title>node6:f6&#45;&gt;node7:f7</title>
<path fill="none" stroke="blue" d="M195,-296C195,-279.241 214.426,-279.629 222.014,-269.568"/>
<polygon fill="blue" stroke="blue" points="225.362,-270.589 225,-260 218.679,-268.503 225.362,-270.589"/>
</g>
<!-- node8 -->
<g id="node24" class="node"><title>node8</title>
<polygon fill="none" stroke="black" points="0,-149 0,-185 300,-185 300,-149 0,-149"/>
<text text-anchor="middle" x="15" y="-163.3" font-family="Times New Roman,serif" font-size="14.00">14</text>
<polyline fill="none" stroke="black" points="30,-149 30,-185 "/>
<text text-anchor="middle" x="45" y="-163.3" font-family="Times New Roman,serif" font-size="14.00">15</text>
<polyline fill="none" stroke="black" points="60,-149 60,-185 "/>
<text text-anchor="middle" x="75" y="-163.3" font-family="Times New Roman,serif" font-size="14.00">22</text>
<polyline fill="none" stroke="black" points="90,-149 90,-185 "/>
<text text-anchor="middle" x="105" y="-163.3" font-family="Times New Roman,serif" font-size="14.00">26</text>
<polyline fill="none" stroke="black" points="120,-149 120,-185 "/>
<text text-anchor="middle" x="135" y="-163.3" font-family="Times New Roman,serif" font-size="14.00">40</text>
<polyline fill="none" stroke="black" points="150,-149 150,-185 "/>
<text text-anchor="middle" x="165" y="-163.3" font-family="Times New Roman,serif" font-size="14.00">42</text>
<polyline fill="none" stroke="black" points="180,-149 180,-185 "/>
<text text-anchor="middle" x="195" y="-163.3" font-family="Times New Roman,serif" font-size="14.00">56</text>
<polyline fill="none" stroke="black" points="210,-149 210,-185 "/>
<text text-anchor="middle" x="225" y="-163.3" font-family="Times New Roman,serif" font-size="14.00">57</text>
<polyline fill="none" stroke="black" points="240,-149 240,-185 "/>
<text text-anchor="middle" x="255" y="-163.3" font-family="Times New Roman,serif" font-size="14.00">79</text>
<polyline fill="none" stroke="black" points="270,-149 270,-185 "/>
<text text-anchor="middle" x="285" y="-163.3" font-family="Times New Roman,serif" font-size="14.00">72</text>
</g>
<!-- node7&#45;&gt;node8 -->
<g id="edge30" class="edge"><title>node7:f7&#45;&gt;node8:f7</title>
<path fill="none" stroke="red" d="M225,-222C217.969,-209.5 216.431,-204.324 220.386,-195.029"/>
<polygon fill="red" stroke="red" points="223.566,-196.497 225,-186 217.333,-193.312 223.566,-196.497"/>
</g>
<!-- node7&#45;&gt;node8 -->
<g id="edge32" class="edge"><title>node7:f7&#45;&gt;node8:f7</title>
<path fill="none" stroke="blue" d="M225.209,-221.627C231.955,-209.586 233.483,-204.394 229.793,-195.455"/>
<polygon fill="blue" stroke="blue" points="232.838,-193.72 225.208,-186.37 226.589,-196.874 232.838,-193.72"/>
</g>
<!-- node9 -->
<g id="node27" class="node"><title>node9</title>
<polygon fill="none" stroke="black" points="0,-75 0,-111 300,-111 300,-75 0,-75"/>
<text text-anchor="middle" x="15" y="-89.3" font-family="Times New Roman,serif" font-size="14.00">14</text>
<polyline fill="none" stroke="black" points="30,-75 30,-111 "/>
<text text-anchor="middle" x="45" y="-89.3" font-family="Times New Roman,serif" font-size="14.00">15</text>
<polyline fill="none" stroke="black" points="60,-75 60,-111 "/>
<text text-anchor="middle" x="75" y="-89.3" font-family="Times New Roman,serif" font-size="14.00">22</text>
<polyline fill="none" stroke="black" points="90,-75 90,-111 "/>
<text text-anchor="middle" x="105" y="-89.3" font-family="Times New Roman,serif" font-size="14.00">26</text>
<polyline fill="none" stroke="black" points="120,-75 120,-111 "/>
<text text-anchor="middle" x="135" y="-89.3" font-family="Times New Roman,serif" font-size="14.00">40</text>
<polyline fill="none" stroke="black" points="150,-75 150,-111 "/>
<text text-anchor="middle" x="165" y="-89.3" font-family="Times New Roman,serif" font-size="14.00">42</text>
<polyline fill="none" stroke="black" points="180,-75 180,-111 "/>
<text text-anchor="middle" x="195" y="-89.3" font-family="Times New Roman,serif" font-size="14.00">56</text>
<polyline fill="none" stroke="black" points="210,-75 210,-111 "/>
<text text-anchor="middle" x="225" y="-89.3" font-family="Times New Roman,serif" font-size="14.00">57</text>
<polyline fill="none" stroke="black" points="240,-75 240,-111 "/>
<text text-anchor="middle" x="255" y="-89.3" font-family="Times New Roman,serif" font-size="14.00">72</text>
<polyline fill="none" stroke="black" points="270,-75 270,-111 "/>
<text text-anchor="middle" x="285" y="-89.3" font-family="Times New Roman,serif" font-size="14.00">79</text>
</g>
<!-- node8&#45;&gt;node9 -->
<g id="edge34" class="edge"><title>node8:f9&#45;&gt;node9:f8</title>
<path fill="none" stroke="red" d="M285,-148C285,-131.241 265.574,-131.629 257.986,-121.568"/>
<polygon fill="red" stroke="red" points="261.321,-120.503 255,-112 254.638,-122.589 261.321,-120.503"/>
</g>
<!-- node8&#45;&gt;node9 -->
<g id="edge36" class="edge"><title>node8:f8&#45;&gt;node9:f9</title>
<path fill="none" stroke="blue" d="M255,-148C255,-131.241 274.426,-131.629 282.014,-121.568"/>
<polygon fill="blue" stroke="blue" points="285.362,-122.589 285,-112 278.679,-120.503 285.362,-122.589"/>
</g>
<!-- node10 -->
<g id="node30" class="node"><title>node10</title>
<polygon fill="none" stroke="black" points="0,-1 0,-37 300,-37 300,-1 0,-1"/>
<text text-anchor="middle" x="15" y="-15.3" font-family="Times New Roman,serif" font-size="14.00">14</text>
<polyline fill="none" stroke="black" points="30,-1 30,-37 "/>
<text text-anchor="middle" x="45" y="-15.3" font-family="Times New Roman,serif" font-size="14.00">15</text>
<polyline fill="none" stroke="black" points="60,-1 60,-37 "/>
<text text-anchor="middle" x="75" y="-15.3" font-family="Times New Roman,serif" font-size="14.00">22</text>
<polyline fill="none" stroke="black" points="90,-1 90,-37 "/>
<text text-anchor="middle" x="105" y="-15.3" font-family="Times New Roman,serif" font-size="14.00">26</text>
<polyline fill="none" stroke="black" points="120,-1 120,-37 "/>
<text text-anchor="middle" x="135" y="-15.3" font-family="Times New Roman,serif" font-size="14.00">40</text>
<polyline fill="none" stroke="black" points="150,-1 150,-37 "/>
<text text-anchor="middle" x="165" y="-15.3" font-family="Times New Roman,serif" font-size="14.00">42</text>
<polyline fill="none" stroke="black" points="180,-1 180,-37 "/>
<text text-anchor="middle" x="195" y="-15.3" font-family="Times New Roman,serif" font-size="14.00">56</text>
<polyline fill="none" stroke="black" points="210,-1 210,-37 "/>
<text text-anchor="middle" x="225" y="-15.3" font-family="Times New Roman,serif" font-size="14.00">57</text>
<polyline fill="none" stroke="black" points="240,-1 240,-37 "/>
<text text-anchor="middle" x="255" y="-15.3" font-family="Times New Roman,serif" font-size="14.00">72</text>
<polyline fill="none" stroke="black" points="270,-1 270,-37 "/>
<text text-anchor="middle" x="285" y="-15.3" font-family="Times New Roman,serif" font-size="14.00">79</text>
</g>
<!-- node9&#45;&gt;node10 -->
<g id="edge38" class="edge"><title>node9:f9&#45;&gt;node10:f9</title>
<path fill="none" stroke="red" d="M285,-74C277.969,-61.5 276.431,-56.3242 280.386,-47.0286"/>
<polygon fill="red" stroke="red" points="283.566,-48.4973 285,-38 277.333,-45.3117 283.566,-48.4973"/>
</g>
<!-- node9&#45;&gt;node10 -->
<g id="edge40" class="edge"><title>node9:f9&#45;&gt;node10:f9</title>
<path fill="none" stroke="blue" d="M285.209,-73.6272C291.955,-61.5864 293.483,-56.3937 289.793,-47.4554"/>
<polygon fill="blue" stroke="blue" points="292.838,-45.7203 285.208,-38.3699 286.589,-48.8743 292.838,-45.7203"/>
</g>
</g>
</svg>
