<?xml version="1.0" encoding="UTF-8" standalone="no"?>
<!DOCTYPE svg PUBLIC "-//W3C//DTD SVG 1.1//EN"
 "http://www.w3.org/Graphics/SVG/1.1/DTD/svg11.dtd">
<!-- Generated by graphviz version 2.28.0 (20110507.0327)
 -->
<!-- Title: G Pages: 1 -->
<svg width="308pt" height="120pt"
 viewBox="0.00 0.00 308.00 120.00" xmlns="http://www.w3.org/2000/svg" xmlns:xlink="http://www.w3.org/1999/xlink">
<g id="graph1" class="graph" transform="scale(1 1) rotate(0) translate(4 116)">
<title>G</title>
<polygon fill="white" stroke="white" points="-4,5 -4,-116 305,-116 305,5 -4,5"/>
<!-- node0 -->
<g id="node1" class="node"><title>node0</title>
<polygon fill="none" stroke="black" points="0,-75 0,-111 300,-111 300,-75 0,-75"/>
<text text-anchor="middle" x="15" y="-89.3" font-family="Times New Roman,serif" font-size="14.00">15</text>
<polyline fill="none" stroke="black" points="30,-75 30,-111 "/>
<text text-anchor="middle" x="45" y="-89.3" font-family="Times New Roman,serif" font-size="14.00">57</text>
<polyline fill="none" stroke="black" points="60,-75 60,-111 "/>
<text text-anchor="middle" x="75" y="-89.3" font-family="Times New Roman,serif" font-size="14.00">14</text>
<polyline fill="none" stroke="black" points="90,-75 90,-111 "/>
<text text-anchor="middle" x="105" y="-89.3" font-family="Times New Roman,serif" font-size="14.00">22</text>
<polyline fill="none" stroke="black" points="120,-75 120,-111 "/>
<text text-anchor="middle" x="135" y="-89.3" font-family="Times New Roman,serif" font-size="14.00">72</text>
<polyline fill="none" stroke="black" points="150,-75 150,-111 "/>
<text text-anchor="middle" x="165" y="-89.3" font-family="Times New Roman,serif" font-size="14.00">79</text>
<polyline fill="none" stroke="black" points="180,-75 180,-111 "/>
<text text-anchor="middle" x="195" y="-89.3" font-family="Times New Roman,serif" font-size="14.00">26</text>
<polyline fill="none" stroke="black" points="210,-75 210,-111 "/>
<text text-anchor="middle" x="225" y="-89.3" font-family="Times New Roman,serif" font-size="14.00">56</text>
<polyline fill="none" stroke="black" points="240,-75 240,-111 "/>
<text text-anchor="middle" x="255" y="-89.3" font-family="Times New Roman,serif" font-size="14.00">42</text>
<polyline fill="none" stroke="black" points="270,-75 270,-111 "/>
<text text-anchor="middle" x="285" y="-89.3" font-family="Times New Roman,serif" font-size="14.00">40</text>
</g>
<!-- node1 -->
<g id="node3" class="node"><title>node1</title>
<polygon fill="none" stroke="black" points="0,-1 0,-37 300,-37 300,-1 0,-1"/>
<text text-anchor="middle" x="15" y="-15.3" font-family="Times New Roman,serif" font-size="14.00">14</text>
<polyline fill="none" stroke="black" points="30,-1 30,-37 "/>
<text text-anchor="middle" x="45" y="-15.3" font-family="Times New Roman,serif" font-size="14.00">57</text>
<polyline fill="none" stroke="black" points="60,-1 60,-37 "/>
<text text-anchor="middle" x="75" y="-15.3" font-family="Times New Roman,serif" font-size="14.00">15</text>
<polyline fill="none" stroke="black" points="90,-1 90,-37 "/>
<text text-anchor="middle" x="105" y="-15.3" font-family="Times New Roman,serif" font-size="14.00">22</text>
<polyline fill="none" stroke="black" points="120,-1 120,-37 "/>
<text text-anchor="middle" x="135" y="-15.3" font-family="Times New Roman,serif" font-size="14.00">72</text>
<polyline fill="none" stroke="black" points="150,-1 150,-37 "/>
<text text-anchor="middle" x="165" y="-15.3" font-family="Times New Roman,serif" font-size="14.00">79</text>
<polyline fill="none" stroke="black" points="180,-1 180,-37 "/>
<text text-anchor="middle" x="195" y="-15.3" font-family="Times New Roman,serif" font-size="14.00">26</text>
<polyline fill="none" stroke="black" points="210,-1 210,-37 "/>
<text text-anchor="middle" x="225" y="-15.3" font-family="Times New Roman,serif" font-size="14.00">56</text>
<polyline fill="none" stroke="black" points="240,-1 240,-37 "/>
<text text-anchor="middle" x="255" y="-15.3" font-family="Times New Roman,serif" font-size="14.00">42</text>
<polyline fill="none" stroke="black" points="270,-1 270,-37 "/>
<text text-anchor="middle" x="285" y="-15.3" font-family="Times New Roman,serif" font-size="14.00">40</text>
</g>
<!-- node0&#45;&gt;node1 -->
<g id="edge2" class="edge"><title>node0:f2&#45;&gt;node1:f0</title>
<path fill="none" stroke="red" d="M75,-74C75,-47.0318 29.8792,-63.1505 17.8939,-47.6273"/>
<polygon fill="red" stroke="red" points="21.2306,-46.5691 15,-38 14.5269,-48.5843 21.2306,-46.5691"/>
</g>
<!-- node0&#45;&gt;node1 -->
<g id="edge4" class="edge"><title>node0:f0&#45;&gt;node1:f2</title>
<path fill="none" stroke="blue" d="M15,-74C15,-47.0318 60.1208,-63.1505 72.1061,-47.6273"/>
<polygon fill="blue" stroke="blue" points="75.4731,-48.5843 75,-38 68.7694,-46.5691 75.4731,-48.5843"/>
</g>
</g>
</svg>
