<?xml version="1.0" encoding="utf-8"?>
<!-- Generator: Adobe Illustrator 17.0.0, SVG Export Plug-In . SVG Version: 6.00 Build 0)  -->
<!DOCTYPE svg PUBLIC "-//W3C//DTD SVG 1.1//EN" "http://www.w3.org/Graphics/SVG/1.1/DTD/svg11.dtd">
<svg version="1.1" id="Layer_1" xmlns="http://www.w3.org/2000/svg" xmlns:xlink="http://www.w3.org/1999/xlink" x="0px" y="0px"
	 width="1200px" height="1200px" viewBox="0 0 1200 1200" enable-background="new 0 0 1200 1200" xml:space="preserve">
<g>
	<path opacity="0.2" fill-rule="evenodd" clip-rule="evenodd" d="M599.997,1150c265.979,0,482.923-13.62,482.923-30.311
		c0-16.703-216.943-30.328-482.923-30.328c-265.975,0-482.918,13.625-482.918,30.328C117.08,1136.38,334.023,1150,599.997,1150z"/>
	<path fill-rule="evenodd" clip-rule="evenodd" fill="#2A6433" d="M719.975,400.659l27.283,15.527
		c55.041,132.401,93.638,622.193-65.397,616.922C497.102,1026.977,650.33,530.502,719.975,400.659z"/>
	<path fill-rule="evenodd" clip-rule="evenodd" fill="#282223" d="M629.171,967.869c5.882-48.496,392.691-500.726,300.912-195.695
		C904.493,857.225,717.49,1095.88,734,1096.598c310.356,13.807,65.391,30.282-47.858,24.535
		c-86.192-4.377-3.616,19.737,44.242-93.497c22.167-52.439,147.523-260.004,142.911-280.772
		c-1.907-8.574-36.138,39.386-91.731,110.346C761.625,882.652,668.935,1089.47,629.171,967.869z"/>
	<path fill-rule="evenodd" clip-rule="evenodd" fill="#2E5131" d="M864.787,539.814c-2.539,0.873-297.162,176.362-104.127,188.552
		c46.69,2.954,162.33-6.388,196.217,29.259c28.279,29.749,13.151-12.699,20.244-12.538c42.592,0.978-2.481-10.405-5.212-22.188
		c-0.515-2.226,10.365-10.267,13.403-11.895c21.984-11.78-9.787-5.44-24.834-8.786c-7.644-1.709,19.981-12.468,17.822-15.971
		c-11.126-18.01-49.096,28.177-112.821,24.068c-46.642-3.008-113.968-6.019-127.06-17.054
		C734.872,651.848,930.351,585.112,864.787,539.814z"/>
	<path fill-rule="evenodd" clip-rule="evenodd" fill="#FDFDFE" d="M803.709,587.611L618.446,396.895
		c-3.809,15.152-312.922,675.358-45.389,675.208C765.616,1071.985,803.709,669.855,803.709,587.611z"/>
	<g>
		<defs>
			<path id="SVGID_1_" d="M821.777,583.993L636.515,393.285c-3.814,15.147-312.906,675.345-45.384,675.197
				C783.685,1068.361,821.777,666.234,821.777,583.993z"/>
		</defs>
		<use xlink:href="#SVGID_1_"  overflow="visible" fill-rule="evenodd" clip-rule="evenodd" fill="#9BB930"/>
		<clipPath id="SVGID_2_">
			<use xlink:href="#SVGID_1_"  overflow="visible"/>
		</clipPath>
		<g clip-path="url(#SVGID_2_)">
			<path fill-rule="evenodd" clip-rule="evenodd" fill="#7D962F" d="M621.307,665.503l8.85-21.8
				c9.406,32.752,117.835,83.029,170.965,63.519c0.215-0.07,1.318,13.122-4.259,16.856
				C762.525,747.099,647.116,696.669,621.307,665.503z"/>
			<path fill-rule="evenodd" clip-rule="evenodd" fill="#7D962F" d="M598.835,751.325l8.85-21.803
				c9.396,32.749,117.825,83.032,170.959,63.525c0.214-0.081-1.5,14.321-6.985,18.211
				C737.326,835.64,624.644,782.492,598.835,751.325z"/>
			<path fill-rule="evenodd" clip-rule="evenodd" fill="#7D962F" d="M566.142,837.823l8.844-21.797
				c9.412,32.744,117.841,83.031,170.959,63.519c0.219-0.075-0.627,10.99-5.609,15.49
				C708.715,923.506,591.951,868.994,566.142,837.823z"/>
			<path fill-rule="evenodd" clip-rule="evenodd" fill="#7D962F" d="M523.228,931.817l8.855-21.794
				c9.396,32.752,117.819,83.031,170.959,63.519c0.214-0.083-2.02,9.816-5.619,15.489
				C676.708,1021.58,549.043,962.981,523.228,931.817z"/>
			<path fill-rule="evenodd" clip-rule="evenodd" fill="#839C30" d="M856.967,621.228l-35.409,114.429
				c-4.586-61.904-151.498-128.871-208.774,59.818c-24.427,80.474-122.887,273.929,64.374,273.929l-143.034,23.155l-118.51-125.321
				l237.025-482.229L856.967,621.228z"/>
			<path fill-rule="evenodd" clip-rule="evenodd" fill="#5C6B2F" d="M780.829,323.367
				c77.236,46.696,166.556,139.742,156.158,240.002c-26.211,252.625-302.851,86.899-345.293-64.695
				C564.888,402.933,633.006,233.99,780.829,323.367z"/>
			<path fill-rule="evenodd" clip-rule="evenodd" fill="#697C30" d="M666.08,395.444l23.045,29.184
				c3.241,167.309-164.317,710.435-335.116,631.755C155.596,964.96,534.756,502.742,666.08,395.444z"/>
		</g>
	</g>
	<path fill-rule="evenodd" clip-rule="evenodd" fill="#FDFDFE" d="M672.16,387.213l20.619,30.304
		c-10.349,167.124-221.667,700.535-385.711,613.25C116.496,929.369,532.393,487.558,672.16,387.213z"/>
	<path fill-rule="evenodd" clip-rule="evenodd" fill="#25853D" d="M669.283,387.757l21.384,29.771
		c-6.102,167.335-203.829,705.935-370.037,622.833C127.547,943.833,532.093,491.613,669.283,387.757z"/>
	<path fill-rule="evenodd" clip-rule="evenodd" fill="#289C46" d="M612.875,538.563c23.779,38.607-149.253,533.495-280.952,467.653
		C176.9,928.697,560.742,465.97,612.875,538.563z"/>
	<path fill-rule="evenodd" clip-rule="evenodd" fill="#1A1414" d="M757.222,361.743c-2.154,0-4.302,0-6.444,0
		c-13.612-108.158-2.507-246.4,20.415-305.135c1.789-10.564,30.438-8.236,34.375,5.368c5.02,14.156-17.908,16.475-26.324,13.435
		C745.763,164.948,748.806,262.543,757.222,361.743z"/>
	<path fill-rule="evenodd" clip-rule="evenodd" fill="#2D924C" d="M823.663,257.499c52.61-15.985,106.945,9.538,121.37,57.008
		c14.416,47.464-16.542,98.901-69.157,114.881c-52.599,15.982-106.939-9.541-121.36-57.008
		C740.106,324.913,771.064,273.476,823.663,257.499z"/>
	<path fill-rule="evenodd" clip-rule="evenodd" fill="#FFFFFF" d="M838.721,264.6c43.787-13.296,89.015,7.944,101.025,47.456
		c11.994,39.513-13.773,82.324-57.554,95.628c-43.803,13.301-89.026-7.941-101.036-47.451
		C769.156,320.723,794.923,277.911,838.721,264.6z"/>
	<path fill-rule="evenodd" clip-rule="evenodd" fill="#1A1414" d="M866.02,307.264c25.194-3.49,48.458,14.108,51.951,39.303
		c3.482,25.207-14.115,48.467-39.314,51.957c-25.204,3.488-48.464-14.11-51.946-39.311
		C823.218,334.011,840.81,310.751,866.02,307.264z"/>
	<path fill-rule="evenodd" clip-rule="evenodd" fill="#FFFFFF" d="M847.951,334.249c-0.07-5.839,4.618-10.628,10.457-10.698
		c5.839-0.056,10.628,4.626,10.687,10.462c0.075,5.844-4.618,10.633-10.451,10.695C852.799,344.773,848.015,340.089,847.951,334.249
		z"/>
	<path fill-rule="evenodd" clip-rule="evenodd" fill="#2D924C" d="M790.311,354.051c-2.652,84.411,122.774,64.901,152.607,16.547
		C921.667,379.21,835.325,390.933,790.311,354.051z"/>
	<path fill-rule="evenodd" clip-rule="evenodd" fill="#282223" d="M847.421,223.828c14.303-1.484,70.995,8.89,81.864,22.265
		c14.898,18.366-78.537-0.225-84.033-2.076C826.701,237.786,845.573,223.994,847.421,223.828z"/>
	<path fill-rule="evenodd" clip-rule="evenodd" fill="#FDFDFE" d="M822.993,304.163c69.002,58.173,142.713,164.022,116.796,261.429
		c-65.29,245.438-312.692,38.583-330.964-117.779C597.276,349.067,690.941,192.817,822.993,304.163z"/>
	<g>
		<defs>
			<path id="SVGID_3_" d="M834.709,308.26c69.013,58.181,142.724,164.025,116.807,261.435
				c-65.29,245.433-312.692,38.58-330.97-117.782C608.997,353.168,702.651,196.921,834.709,308.26z"/>
		</defs>
		<use xlink:href="#SVGID_3_"  overflow="visible" fill-rule="evenodd" clip-rule="evenodd" fill="#2D924C"/>
		<clipPath id="SVGID_4_">
			<use xlink:href="#SVGID_3_"  overflow="visible"/>
		</clipPath>
		<g clip-path="url(#SVGID_4_)">
			<path fill-rule="evenodd" clip-rule="evenodd" fill="#282223" d="M696.689,561.788c0.027,0.284,0.07,0.584,0.118,0.908
				c7.071,43.707,105.857,122.391,155.446,117.594c1.189-0.112,2.384-0.27,3.584-0.458l1.355,5.85
				c-1.35,0.225-2.727,0.402-4.125,0.53c-51.089,4.945-162.544-77.535-169.261-119.094c-0.086-0.477-0.145-0.959-0.193-1.444
				L696.689,561.788z"/>
		</g>
	</g>
	<path fill-rule="evenodd" clip-rule="evenodd" fill="#7EAB47" d="M846.215,343.975c56.997,48.049,117.873,135.467,96.466,215.922
		c-53.927,202.715-258.26,31.865-273.367-97.281C659.786,381.06,737.138,252.008,846.215,343.975z"/>
	<path fill-rule="evenodd" clip-rule="evenodd" fill="#FDFDFE" d="M723.291,279.087c-66.484,10.612-111.782,73.111-101.17,139.597
		c10.606,66.487,73.111,111.785,139.595,101.165c66.49-10.601,111.787-73.111,101.165-139.59
		C852.269,313.773,789.775,268.475,723.291,279.087z"/>
	<path fill-rule="evenodd" clip-rule="evenodd" fill="#7EAB47" d="M728.316,275.862c-65.814,10.502-110.641,72.369-100.131,138.17
		c10.489,65.809,72.361,110.644,138.17,100.136c65.809-10.499,110.635-72.366,100.131-138.172
		C855.986,310.192,794.12,265.355,728.316,275.862z"/>
	<path fill-rule="evenodd" clip-rule="evenodd" fill="#94C244" d="M742.051,277.74c-60.072,9.589-100.999,66.058-91.404,126.127
		c9.589,60.075,66.055,100.999,126.117,91.41c60.077-9.589,100.993-66.061,91.42-126.128
		C858.595,309.078,802.117,268.148,742.051,277.74z"/>
	<path fill-rule="evenodd" clip-rule="evenodd" fill="#FFFFFF" d="M750.9,289.691c-47.649,1.029-85.528,36.721-84.596,79.721
		c0.937,42.991,40.316,77.011,87.971,75.977c47.66-1.029,85.538-36.722,84.601-79.716C837.944,322.679,798.561,288.66,750.9,289.691
		z"/>
	<path fill-rule="evenodd" clip-rule="evenodd" fill="#1A1414" d="M734.883,349.34c-26.061,4.717-43.375,29.675-38.661,55.746
		c4.714,26.075,29.677,43.391,55.744,38.671c26.077-4.717,43.39-29.669,38.671-55.746
		C785.918,361.934,760.966,344.626,734.883,349.34z"/>
	<path fill-rule="evenodd" clip-rule="evenodd" fill="#FFFFFF" d="M761.523,370.194c-1.827-5.807-8.014-9.021-13.815-7.195
		c-5.812,1.829-9.026,8.009-7.2,13.821c1.832,5.804,8.019,9.024,13.821,7.189C760.13,382.177,763.355,375.996,761.523,370.194z"/>
	<path fill-rule="evenodd" clip-rule="evenodd" fill="#2D924C" d="M839.664,368.991c26.945,73.523-102.408,144.633-142.959,68.378
		C718.266,438.762,810.046,414.555,839.664,368.991z"/>
	<path fill-rule="evenodd" clip-rule="evenodd" fill="#282223" d="M720.897,230.958c-16.119,3.495-74.23,35.047-81.286,53.515
		c-9.695,25.349,85.539-28.298,90.874-32.267C748.5,238.774,722.981,230.481,720.897,230.958z"/>
	<path fill-rule="evenodd" clip-rule="evenodd" fill="#282223" d="M699.667,539.512c12.664,14.064-16.001,44.02-32.645,31.059
		C673.135,568.126,694.605,554.187,699.667,539.512z"/>
	<path fill-rule="evenodd" clip-rule="evenodd" fill="#282223" d="M884.769,604.52c5.791,4.867,11.951,13.733,9.787,21.883
		c-5.48,20.555-26.19,3.233-27.711-9.862C865.875,608.275,873.712,595.196,884.769,604.52z"/>
	<path fill-rule="evenodd" clip-rule="evenodd" fill="#282223" d="M917.869,598.145c2.716,6.806,4.211,17.332-0.589,23.659
		c-12.091,15.947-21.851-8.327-18.096-20.626C901.547,593.402,912.689,585.12,917.869,598.145z"/>
	<path fill-rule="evenodd" clip-rule="evenodd" fill="#1A1414" d="M635.979,403.972c-2.137,0-4.296,0-6.444,0
		c-13.607-108.158-2.501-246.398,20.415-305.139c1.794-10.561,30.443-8.236,34.386,5.373c5.008,14.148-17.903,16.475-26.329,13.433
		C624.516,207.174,627.559,304.773,635.979,403.972z"/>
	<path fill-rule="evenodd" clip-rule="evenodd" fill="#2E5131" d="M524.331,943.785c-5.882-57.185-392.68-590.521-300.907-230.785
		c25.585,100.305,212.593,381.75,196.078,382.612c-310.356,16.269-65.386,35.706,47.869,28.919
		c86.182-5.159,3.611,23.275-44.253-110.255c-22.172-61.835-147.528-306.631-142.911-331.128
		c1.912-10.108,36.137,46.447,91.731,130.14C391.861,843.287,484.567,1087.199,524.331,943.785z"/>
	<path fill-rule="evenodd" clip-rule="evenodd" fill="#2E5131" d="M644.272,580.481c-2.539,0.873-293.535,189.015-100.505,201.21
		c46.685,2.949,162.34-6.388,196.212,29.251c28.285,29.755,13.156-12.693,20.249-12.533c42.593,0.975-2.485-10.414-5.218-22.188
		c-0.508-2.226,10.371-10.264,13.409-11.9c21.984-11.774-9.782-5.43-24.835-8.785c-7.649-1.706,19.981-12.465,17.812-15.971
		c-11.11-18.01-49.085,28.185-112.816,24.071c-46.637-3.008-113.962-6.016-127.049-17.051
		c-2.577-29.937,95.219-56.829,126.888-95.564C660.562,636.166,662.464,593.035,644.272,580.481z"/>
</g>
</svg>
