<?xml version="1.0" encoding="utf-8"?>
<!-- Designed by Vexels.com - 2020 All Rights Reserved - https://vexels.com/terms-and-conditions/  -->
<svg version="1.1" id="Capa_1" xmlns="http://www.w3.org/2000/svg" xmlns:xlink="http://www.w3.org/1999/xlink" x="0px" y="0px"
	 viewBox="0 0 1200 1200" style="enable-background:new 0 0 1200 1200;" xml:space="preserve">
<style type="text/css">
	.st0{fill:#2F1914;}
	.st1{fill:#D4C539;}
	.st2{fill:#E9D74B;}
	.st3{fill:#E7844B;}
	.st4{fill:#D0743F;}
	.st5{fill:#D2753E;}
	.st6{fill:#D1753E;}
	.st7{fill:#E4834B;}
	.st8{fill:#E5834B;}
	.st9{fill:#301A12;}
	.st10{fill:#2C1713;}
	.st11{fill:#E7D54B;}
	.st12{fill:#FCFCFC;}
</style>
<g>
	<path class="st0" d="M813.37,568.27c9.77,8.15,21.45,12.62,33.19,16.79c30.57,10.86,58.26,26.73,83.59,46.89
		c26.12,20.79,47.59,45.46,63.23,75.08c9.26,17.53,14.72,36.28,19.13,55.52c2.41,10.53,4.92,20.94,4.51,31.77
		c-0.74,19.65-4.06,38.78-11.36,57.19c-6.5,16.39-16.26,30.67-26.25,45.08c-18.75,27.04-43.02,47.04-71.99,62.06
		c-36.52,18.94-75.92,28.89-115.72,37.47c-20.69,4.46-41.79,6.57-62.82,8.98c-21.49,2.46-42.97,4.93-64.51,7
		c-29.83,2.87-59.64,0.84-89.47,0.38c-25.79-0.39-51.51-2.73-77.33-2.39c-10.87,0.14-21.73-0.59-32.56-1.74
		c-19.09-2.03-38-5.21-56.89-8.57c-35.74-6.36-70.61-15.23-102.45-33.54c-15.63-8.99-31.24-17.94-45.17-29.51
		c-15.5-12.88-27.32-28.76-38.1-45.6c-16.72-26.09-28-54.42-35.56-84.33c-3.43-13.55-3.46-27.45-3.83-41.3
		c-0.27-9.95-0.8-19.93,0.48-29.82c2.59-20.05,6.34-39.97,11.52-59.47c9.46-35.58,21.54-70.35,35.24-104.52
		c13.27-33.09,29.94-64.64,44.59-97.11c1.37-3.04,3.03-5.99,4.83-8.81c11.23-17.54,26.08-29.79,47.3-33.51
		c16.33-2.86,31.23,0.69,45.28,8.6c12.78,7.19,23.54,17.18,34.32,26.92c15.81,14.29,28.72,31.36,43.17,46.97
		c6.77,7.31,14.38,13.73,21.22,20.94c0.65,0.68,1.37,1.21,2.37,0.57c-25.63-29.55-39.61-63.84-44.31-102.09
		c-2.11-17.22-1.28-34.37,0.64-51.55c2.8-25.05,9.52-48.95,21.39-71.17c33.07-61.92,84.99-99.54,152.37-116.52
		c32.13-8.1,64.75-9.93,97.65-4.9c27.9,4.26,54.49,12.58,79.24,26.14c54.52,29.87,91.27,74.02,106.94,134.78
		c0.58,2.23,1.19,1.6,2.43,0.71c9.23-6.61,19.41-11.43,29.86-15.71c13.13-5.38,26.79-6.93,40.34-2.91
		c27.51,8.15,36.14,34.74,24.73,58.49c-10.84,22.58-29.66,37.43-51.11,49.23c-6,3.3-12.06,6.57-19.28,8.11
		c8.83,7.48,14.7,16.04,16.59,26.87c1.81,10.38-0.57,19.74-9.78,25.54c-6,3.78-11.25,7.76-15.67,13.43
		c-6.08,7.8-15.05,12.06-23.8,16.31c-2.38,1.16-4.95,1.86-7.62,2.24c-9.09,1.29-17.98-0.02-26.84-1.8
		c-1.41-0.28-2.52-0.43-3.77,0.75c-11.34,10.74-23.42,20.46-37.95,26.8C807.42,562.82,810.25,565.67,813.37,568.27z M906.17,497.2
		c6.67-2.86,10.5-8.27,12.91-14.7c2.06-5.51-1.43-9.74-4.24-13.97c-4.89-7.37-11.57-12.76-19.18-17.1c-0.81-0.46-1.52-0.97-2.5-1.03
		c-5.64-0.35-11.28-0.75-17.16-1.15c0.71,1.66,2.23,2.4,3.42,3.28c8.79,6.48,14.76,15.18,19.61,24.75c0.95,1.87,1.73,2.99,4.14,1.93
		c1.62-0.72,3.58-0.72,5.41-0.91c0.71-0.07,1.79-0.49,2.11,0.54c0.32,1.01-0.73,1.2-1.37,1.66c-5.82,4.17-12.59,5.8-19.46,6.66
		c-9.39,1.17-18.79,1.9-28.34,0.98c-8.58-0.83-16.65-3.51-24.94-5.42c-0.66-0.15-1.34-0.19-2.02-0.28
		c-10.75-3.34-21.09-4.04-31.75,1.41c-14.28,7.3-29.87,10.73-45.87,10.14c-15.86-0.59-30.73-4.96-42.65-16.39
		c-0.22-0.22-0.59-0.28-1.47-0.69c1.6,6.49,5.04,11.37,8.99,15.97c5.49,7.18,12.82,11.96,21.15,14.95
		c10.63,3.83,21.95,4.06,33.06,5.25c8.45,1.07,16.94,1.91,25.35,3.27c12.42,2.01,24.84,4.09,37.37,5.2
		c12.73,1.13,25.54,3.31,38.3,0.36c8.29-1.92,15.83-5.45,21.79-12.17c-1.61,0.16-3.22,0.36-4.83,0.48
		c-16.07,1.22-31.8-1.36-47.39-4.66c-12.3-2.6-24.58-5.28-36.83-8.12c-9.11-2.11-18.56-1.83-27.89-0.66
		c-0.92,0.12-2.12,0.52-2.36-0.63c-0.25-1.21,1.14-1.13,1.93-1.45c4.33-1.73,8.87-2.44,13.48-2.6c17.31-0.6,34.21,2.07,51.11,5.65
		c12.37,2.62,24.86,5.42,37.72,4.75c2.88-0.15,5.71-0.48,8.5-1.17C897.06,500.52,901.68,499.13,906.17,497.2z M832.59,349.75
		c1.92-1.66,3.76-0.17,5.44,0.38c11.46,3.79,23.16,5.99,35.25,5.97c1.26,0,2.51,0,3.99,0c-0.49-2.2-0.84-4.09-2.11-5.66
		c-10.49-32.76-27.2-61.67-52.21-85.64c-37.47-35.92-82.29-56.39-133.37-63.27c-23.83-3.21-47.69-2.01-71.52,1.92
		c-23.06,3.8-44.01,12.98-64.17,23.95c-49.65,27.02-86.48,65.8-106.72,119.29c-8.38,22.13-10.18,45.2-9.88,68.57
		c0.14,10.99,1.34,21.87,3.71,32.61c0.07,0.31,0.36,0.57,0.54,0.85c0.52,6.5,2.57,12.69,4.68,18.74
		c9.68,27.64,24.18,52.51,44.96,73.29c12.65,12.66,26.56,23.81,42.07,33.1c10.18,6.1,20.23,12.3,31.07,17.15
		c0.14,0.06,0.16,0.41,0.39,1.07c-5.49-0.31-10.76-0.84-15.86-2.33c-17.27-5.04-34.16-11.05-49.98-19.81
		c-7.42-4.11-13.72-9.75-20.59-14.61c-0.65-0.46-1.35-0.86-2.02-1.28c-0.13-0.2-0.31-0.3-0.54-0.3l0.04,0.06
		c-5.04-4.38-10-8.85-15.13-13.12c-6.87-5.71-13.01-12.17-19.09-18.65c-11-11.71-22.6-22.85-33.17-34.96
		c-7.46-8.56-15.28-16.75-24.22-23.79c-5.82-4.59-11.73-9.17-18.43-12.3c-16.21-7.57-32.57-10.2-50-2.85
		c-9.48,4-15.48,10.84-20.15,19.05c-22.96,40.35-43.31,82.05-61.67,124.66c-8,18.56-12.74,38.43-18.58,57.82
		c-7.68,25.47-11.59,51.7-15.53,77.96c-3.41,22.76-1.49,45.08,1.62,67.64c4.6,33.34,18.15,63.22,33.94,92.32
		c4.66,8.59,11.79,15.4,18.06,22.8c23.55,27.77,53.23,46.06,87.93,56.63c14.44,4.4,28.49,10.05,43.25,13.38
		c12.15,2.74,24.44,4.58,36.78,6.23c10.28,1.37,20.54,2.95,30.85,4.17c12.51,1.48,25.08,2.27,37.63,3.25
		c26.07,2.03,52.19,2.93,78.32,2.97c39.68,0.06,79.37-0.9,118.9-4.5c39.59-3.6,78.85-9.28,117.33-19.81
		c44.34-12.14,85.51-31,122.37-58.39c38-28.24,61.24-66.17,69.74-112.92c2.82-15.52,0.67-30.7-3.95-45.52
		c-12.81-41.04-34.33-77.01-64.22-107.85c-17.73-18.29-39.37-30.9-62.45-41.23c-6.75-3.02-13.46-6.14-20.19-9.21
		c-3.86-2.53-8.12-4.3-12.29-6.22c-11.69-5.38-22.23-12.33-30.79-22.04c-1.21-1.37-2.59-2.88-3.06-4.56
		c-0.89-3.11-2.4-2.54-4.58-1.6c-9.51,4.09-18.73,8.89-28.74,11.75c-3.96,1.13-7.99,1.87-12.04,1.94c-0.5-1.2,0.27-1.52,0.88-1.68
		c17.15-4.29,31.73-13.82,46.77-22.53c10.21-5.91,19.19-13.16,27.3-21.62c0.46-0.48,1.28-0.86,1.11-1.63
		c-0.22-0.98-1.25-0.9-1.97-0.99c-10.67-1.23-21.34-2.52-32.03-3.57c-14.26-1.39-28.69-1.76-42.65-5.03
		c-9.03-2.12-18.15-4.35-26.46-9.03c-8.81-4.96-15.31-11.9-19.69-20.83c-3.61-7.35-7.24-14.77-7.72-23.19
		c-0.9-15.96,4.95-28.91,17.63-38.65c8.59-6.6,18.38-11.14,28.25-15.4c11.25-4.86,22.35-10.02,33.07-15.95
		c3.4-1.88,6.09-4.57,8.3-7.74c3.04-4.36,6.16-8.67,9.05-13.14c7.18-11.09,17.13-18.94,28.69-24.96c1.33-0.69,2.68-1.38,4.27-1.1
		c-0.31,2.63-2.65,3.62-4.3,5.06c-2.43,2.13-5.12,3.95-7.71,5.89c-6.85,5.13-12.23,11.56-16.49,18.94
		c-8.71,15.12-20.39,26.76-36.61,34.09c-10.92,4.94-22.16,9.3-32.49,15.54c-7.69,4.64-13.95,10.54-18.59,18.25
		c-3.14,5.23-2.74,10.87-2.32,16.51c0.13,1.71,1.75,2.84,3.1,3.54c10.31,5.38,19.82,12.56,31.3,15.32
		c15.24,3.67,29.95,0.86,44.48-4.44c17.12-6.25,31.36-16.97,45.86-27.57c14.48-10.57,27.1-22.89,39.26-35.98
		c13.57-14.62,27.33-29.3,44.92-39.36c10.66-6.1,21.84-11.07,34.48-11.29c3.3-0.06,6.41,0.76,9.08,2.83
		c0.83,0.64,1.9,1.42,1.31,2.52c-0.53,0.99-1.57,0.05-2.38-0.05c-1.25-0.15-2.51-0.31-3.76-0.46c-6.58-1.15-12.61,0.9-18.3,3.71
		c-20.59,10.17-38.74,23.58-53.72,41.15c-6.29,7.37-12.85,14.51-19.4,21.65c-1.61,1.76-1.94,2.47,0.71,3.35
		c4.25,1.4,8.56,1.67,12.95,1.63c12.31,2.11,23.86-1.28,35.22-5.26c15.78-5.53,29.72-14.25,42.17-25.41
		c11.48-10.29,17.56-23.4,19.59-38.35c1.15-8.44-2.17-15.41-9.86-19.83c-13.47-7.73-27.72-9.44-42.77-5.76
		c-16.7,4.08-30.77,12.67-43.39,24.13c-9.15,8.31-17.7,17.31-27.59,24.77c-9.48,7.16-19.86,12.63-31.47,15.49
		c-3.82,0.94-7.67,1.07-12.15-0.85c2.58-0.69,4.47-1.2,6.37-1.7c17.27-5.33,31.61-15.25,44.16-28.03
		c4.84-4.93,9.24-10.27,15.25-15.57c-5.65,0.07-10.11-1.72-14.83-2.13c-9.68-2.93-19.14-6.36-27.81-11.69
		c-0.25-0.24-0.49-0.48-0.74-0.72L832.59,349.75z M854.54,480.54c12.97,3.01,26.05,4.87,39.37,1.44c2.88-0.74,2.24-1.51,1.28-3.27
		c-7.38-13.47-18.17-23.5-31.38-31.06c-6.08-3.48-6.21-3.47-11.29,1.33c-9.01,8.5-19.7,14.96-29.03,24.44
		C834.84,473.22,844.38,478.18,854.54,480.54z"/>
	<path class="st1" d="M842.05,609.06c-4.03,9.68-8.73,19-14.81,27.58c-2,2.82-0.09,4.3,1.76,5.67c5.87,4.33,11.32,9.1,16.34,14.38
		c11.59,12.2,23.23,24.41,33,38.13c5.88,8.25,10.07,17.6,14.63,26.69c6.24,12.47,8.92,25.84,10.74,39.37
		c0.96,7.14,0.64,14.51-0.12,21.78c-0.58,5.59-0.41,11.25-1.61,16.81c-3.13,14.45-8.84,27.89-15.98,40.75
		c-7.32,13.19-17.74,24.03-27.22,35.59c-3.07,3.74-6.11,7.49-9.52,10.95c-10.99,11.15-23.4,20.36-36.91,28.27
		c-14.18,8.3-28.86,15.22-44.74,19.62c-12.09,3.35-24,7.33-36.04,10.84c-15.89,4.63-31.85,9.08-48.22,11.75
		c-8.27,1.35-16.59,2.31-24.88,3.54c-7.83,1.16-15.64,2.5-23.48,3.64c-9.54,1.39-19.13,2.45-28.63,4.03
		c-14.78,2.46-29.79,1.95-44.63,3.91c-13.39,1.77-26.99,0.95-40.51,0.86c-16.02-0.11-32.03-0.82-47.99-2.16
		c-10.55-0.89-21.09-1.62-31.67-2.19c-11.79-0.63-23.41-3.36-34.81-6.67c-8.19-2.38-16.18-5.34-24.01-8.72
		c-1.25-0.54-3.13-0.71-2.92-2.86c32.25,9.51,64.86,8.44,97.39,2.4c26.51-4.92,49.72-17.39,70.8-33.99
		c6.81-5.36,13.66-10.66,19.93-16.65c0.34-0.33,0.67-0.59,0.41-1.41c-2.27,0.58-3.84,2.29-5.62,3.56
		c-14.93,10.75-30.92,19.61-47.77,26.96c-0.3,0.13-0.68,0.1-1.02,0.14c-0.62,0-1.24,0.02-1.53,0.72l0.05-0.03
		c-7.37,0.47-14.45,2.57-21.67,3.86c-10.19,1.81-20.37,3.89-30.75,3.67c-20.61-0.44-41.03-2.27-61.1-7.61
		c-13.72-3.65-27.15-8.05-40.11-13.69c-15.38-6.68-29.31-15.87-42.1-26.75c-5.78-4.92-11.76-9.65-16.03-16.06
		c-2.1-3.15-4.37-6.25-5.98-9.66c-1.58-3.35-3.65-5.89-7.17-6.95c-2.87-0.87-4.68-3.83-7.92-3.84c-3-4.74-5.22-9.84-7.3-15.33
		c1.87,0.43,2.81,1.65,3.99,2.47c12.84,8.88,26.23,16.62,41.72,19.95c2.22,2.56,5.51,2.46,8.41,3.14c1.49,0.35,3.14,0.4,5,0.15
		c-2.76-1.56-5.42-3.38-8.31-4.64c-6.37-2.78-11.21-7.57-16.4-11.91c-10.83-9.06-20.05-19.65-28.74-30.73
		c-0.77-0.98-1.86-1.34-2.87-1.83c-10.01-4.8-19.13-10.94-27.63-18.06c-0.23-0.19-0.66-0.15-1-0.22c-2.55-5.8-3.29-11.9-2.99-18.17
		c0.09-1.94,0.27-3.87,0.41-5.68c0.67-0.45,1.02-0.13,1.36,0.18c25.19,22.48,53.99,38.68,85.97,49.35
		c21.01,7.01,40.35,17.26,57.91,30.72c10.2,7.82,19.6,16.56,27,27.21c0.52,0.75,0.89,1.82,1.95,1.77c1.03-0.05,1.44,1.05,2.36,1.03
		c0.51-0.76,0.06-1.3-0.3-1.91c-17.33-29.27-43-49.07-72.89-64.02c-10.76-5.38-21.89-9.86-33.28-13.76
		c-13.42-4.6-25.52-11.79-37.17-19.77c0.44-2.9-2.42-3.76-3.71-5.44c-3.95-5.14-7.04-10.76-10.44-16.23
		c-6.42-10.32-10.15-21.59-13.05-33.24c-1.4-5.63-1.72-11.25-1.05-17.04c0.89-7.77,6.38-11.1,12.59-13.62
		c9.09-3.7,17.28-1.45,24.07,5.21c8,7.85,17.52,13.42,27.04,19.03c12.25,7.23,26.09,9.16,39.72,12.04
		c14.08,2.98,27.36-0.67,40.89-3.16c14.46-2.66,28.6-6.82,43.1-9.25c8.37-1.4,16.87-1.97,25.3-3.02c8.82-1.09,17.67-1.56,26.55-1.36
		c10.96,0.25,21.37,2.86,31.42,7.19c9.84,4.24,18.62,10.08,26.34,17.42c3.99,3.8,7.46,8.16,11.06,12.35
		c4.8,5.58,9.92,10.94,13.37,17.54c2.47,4.73,5.34,9.25,7.2,15.25c2.04-11.11,0.65-21.13-0.09-31.18
		c-0.59-7.99-2.19-15.65-4.91-23.18c-1.42-3.94-4.01-7.23-5.31-11.18c-0.35-1.06-1.26-2.02-0.5-3.24c0.94,1.17,1.88,2.32,2.81,3.5
		c0.43,0.55,0.82,1.24,1.64,0.9c0.81-0.34,0.64-1.19,0.55-1.82c-0.41-2.98-1.27-5.84-2.48-8.59c-7.36-16.78-19.92-28.61-35.49-37.7
		c-18.42-10.76-38.35-12.57-59.23-11.83c-23.56,0.84-44.78,9.41-66.26,17.39c-17.8,6.61-36.01,10.62-55.03,10.9
		c-2.01,0.03-3.41-0.5-4.92-1.8c-11.28-9.67-20.28-21.54-30.9-31.84c-4.75-4.61-9.9-8.58-15.65-11.94
		c-13.21-7.71-26.4-7.04-39.76-0.74c-2.18,1.03-4.29,2.22-6.44,3.33c-2.07-1.76-1.15-4.12-0.95-6.14
		c0.71-7.08,1.49-14.16,1.97-21.27c0.49-7.22,1.98-14.32,3.09-21.46c2.25-14.47,5.85-28.62,10.32-42.53
		c3.2-9.98,6.88-19.8,10.93-29.48c5.49-13.1,12.8-25.2,20.5-37.07c5.04-7.78,11.13-14.68,18.46-20.43
		c7.8-6.13,16.64-9.98,26.49-10.47c8.75-0.44,16.66,2.7,23.92,7.68c12.36,8.47,24.19,17.64,35.45,27.47
		c7.64,6.66,14.56,14.17,21.47,21.64c8.06,8.72,16.26,17.38,26.19,24.12c6.28,4.26,12.74,8.2,19.7,11.28
		c0.97,0.43,1.9,0.87,2.99,0.59c0,0-0.04-0.06-0.04-0.06c0.03,0.37,0.1,0.67,0.54,0.3c0.67,0.43,1.37,0.82,2.02,1.28
		c6.87,4.86,13.17,10.51,20.59,14.61c15.81,8.76,32.7,14.77,49.98,19.81c5.09,1.49,10.37,2.02,15.86,2.33
		c-0.23-0.67-0.25-1.01-0.39-1.07c-10.84-4.85-20.89-11.05-31.07-17.15c-15.51-9.29-29.41-20.44-42.07-33.1
		c-20.77-20.78-35.27-45.64-44.96-73.29c-2.12-6.05-4.16-12.24-4.68-18.74c-0.88-7.47-0.72-14.98-0.62-22.48
		c0.21-15.02,2.71-29.7,6.38-44.26c3.39-13.46,8.14-26.38,14.05-38.87c4.53-9.56,9.92-18.67,15.74-27.52
		c6.84-10.41,13.93-20.65,23.27-29.03c11.13-9.99,22.33-19.87,35.09-27.89c18.13-11.4,37.49-19.49,58.34-24.36
		c16.4-3.83,32.98-5.4,49.7-4.5c13.42,0.73,26.67,3.24,39.67,6.86c8.34,2.32,16.41,5.28,24.28,8.9
		c9.47,4.36,17.25,11.03,24.97,17.76c4.69,4.09,9.01,8.62,13.61,12.82c10.09,9.22,17.21,20.67,24.4,32.08
		c3.37,5.35,6.74,10.68,9.53,16.36c0.69,1.4,1.36,1.78,2.95,0.9c12.36-6.9,24.31-5.25,35.92,1.97
		c10.79,6.71,21.61,13.49,33.56,17.88c7.27,2.67,14.92,4.64,22.79,5.09c1.27,1.57,1.62,3.46,2.11,5.66c-1.48,0-2.74,0-3.99,0
		c-12.09,0.01-23.79-2.18-35.25-5.97c-1.68-0.55-3.52-2.05-5.44-0.38c-1.2,0.02-2.41,0.05-3.61,0.07c-1.59-0.28-2.94,0.41-4.27,1.1
		c-11.56,6.02-21.51,13.87-28.69,24.96c-2.89,4.46-6.01,8.77-9.05,13.14c-2.21,3.17-4.9,5.85-8.3,7.74
		c-10.73,5.93-21.82,11.09-33.07,15.95c-9.86,4.26-19.66,8.79-28.25,15.4c-12.67,9.74-18.53,22.69-17.63,38.65
		c0.48,8.41,4.11,15.84,7.72,23.19c4.39,8.92,10.88,15.87,19.69,20.83c8.32,4.68,17.43,6.91,26.46,9.03
		c13.97,3.28,28.4,3.64,42.65,5.03c10.69,1.05,21.36,2.34,32.03,3.57c0.72,0.08,1.76,0.01,1.97,0.99c0.17,0.78-0.65,1.15-1.11,1.63
		c-8.11,8.45-17.09,15.7-27.3,21.62c-15.04,8.71-29.62,18.24-46.77,22.53c-0.61,0.15-1.38,0.48-0.88,1.68
		c4.05-0.06,8.08-0.81,12.04-1.94c10.01-2.86,19.23-7.66,28.74-11.75c2.18-0.94,3.7-1.5,4.58,1.6c0.48,1.68,1.85,3.19,3.06,4.56
		c8.56,9.72,19.1,16.67,30.79,22.04c4.17,1.92,8.42,3.69,12.29,6.22C844.75,601.49,843.6,605.34,842.05,609.06z M670.21,370.14
		c2.73,3.34,6.02,6.06,9.85,8.05c9.16,4.77,17.95,2.17,22.89-6.93c3.91-7.2,4.91-15.1,4.38-23.12c-0.39-5.95-1.27-11.91-3.33-17.57
		c-4.16-11.49-9.49-22.3-19.95-29.46c-10.78-7.39-21.56-3.96-26.55,8.17c-2.27,5.52-3.12,11.28-2.9,17.25
		C654.94,342.79,659.84,357.45,670.21,370.14z"/>
	<path class="st2" d="M255.23,649.89c-2.07-1.76-1.15-4.12-0.95-6.14c0.71-7.08,1.49-14.16,1.97-21.27
		c0.49-7.22,1.98-14.32,3.09-21.46c2.25-14.47,5.85-28.62,10.32-42.53c3.2-9.98,6.88-19.8,10.93-29.48
		c5.49-13.1,12.8-25.2,20.5-37.07c5.04-7.78,11.13-14.68,18.46-20.43c7.8-6.13,16.64-9.98,26.49-10.47
		c8.75-0.44,16.66,2.7,23.92,7.68c12.36,8.47,24.19,17.64,35.45,27.47c7.64,6.66,14.56,14.17,21.47,21.64
		c8.06,8.72,16.26,17.38,26.19,24.12c6.28,4.26,12.74,8.2,19.7,11.28c0.97,0.43,1.9,0.87,2.99,0.59c-5.04-4.38-10-8.85-15.13-13.12
		c-6.87-5.71-13.01-12.17-19.09-18.65c-11-11.71-22.6-22.85-33.17-34.96c-7.46-8.56-15.28-16.75-24.22-23.79
		c-5.82-4.59-11.73-9.17-18.43-12.3c-16.21-7.57-32.57-10.2-50-2.85c-9.48,4-15.48,10.84-20.15,19.05
		c-22.96,40.35-43.31,82.05-61.67,124.66c-8,18.56-12.74,38.43-18.58,57.82c-7.68,25.47-11.59,51.7-15.53,77.96
		c-3.41,22.76-1.49,45.08,1.62,67.64c4.6,33.34,18.15,63.22,33.94,92.32c4.66,8.59,11.79,15.4,18.06,22.8
		c23.55,27.77,53.23,46.06,87.93,56.63c14.44,4.4,28.49,10.05,43.25,13.38c12.15,2.74,24.44,4.58,36.78,6.23
		c10.28,1.37,20.54,2.95,30.85,4.17c12.51,1.48,25.08,2.27,37.63,3.25c26.07,2.03,52.19,2.93,78.32,2.97
		c39.68,0.06,79.37-0.9,118.9-4.5c39.59-3.6,78.85-9.28,117.33-19.81c44.34-12.14,85.51-31,122.37-58.39
		c38-28.24,61.24-66.17,69.74-112.92c2.82-15.52,0.67-30.7-3.95-45.52c-12.81-41.04-34.33-77.01-64.22-107.85
		c-17.73-18.29-39.37-30.9-62.45-41.23c-6.75-3.02-13.46-6.14-20.19-9.21c-0.94,3.91-2.1,7.76-3.64,11.48
		c-4.03,9.68-8.73,19-14.81,27.58c-2,2.82-0.09,4.3,1.76,5.67c5.87,4.33,11.32,9.1,16.34,14.38c11.59,12.2,23.23,24.41,33,38.13
		c5.88,8.25,10.07,17.6,14.63,26.69c6.24,12.47,8.92,25.84,10.74,39.37c0.96,7.14,0.64,14.51-0.12,21.78
		c-0.58,5.59-0.41,11.25-1.61,16.81c-3.13,14.45-8.84,27.89-15.98,40.75c-7.32,13.19-17.74,24.03-27.22,35.59
		c-3.07,3.74-6.11,7.49-9.52,10.95c-10.99,11.15-23.4,20.36-36.91,28.27c-14.18,8.3-28.86,15.22-44.74,19.62
		c-12.09,3.35-24,7.33-36.04,10.84c-15.89,4.63-31.85,9.08-48.22,11.75c-8.27,1.35-16.59,2.31-24.88,3.54
		c-7.83,1.16-15.64,2.5-23.48,3.64c-9.54,1.39-19.13,2.45-28.63,4.03c-14.78,2.46-29.79,1.95-44.63,3.91
		c-13.39,1.77-26.99,0.95-40.51,0.86c-16.02-0.11-32.03-0.82-47.99-2.16c-10.55-0.89-21.09-1.62-31.67-2.19
		c-11.79-0.63-23.41-3.36-34.81-6.67c-8.19-2.38-16.18-5.34-24.01-8.72c-1.25-0.54-3.13-0.71-2.92-2.86c-0.99-0.3-2-0.55-2.98-0.89
		c-24.24-8.67-46.39-20.9-66.09-37.65c-18.48-15.72-33.55-33.94-43.58-56.13c-3.39-7.49-6.48-15.16-6.58-23.53
		c-0.03-2.55-0.66-4.27-2.41-6.02c-4.82-4.84-9.27-10.03-13.26-15.57c-9.19-12.77-13.43-26.51-7.52-42.01
		c0.41-1.08,0.17-1.77-0.53-2.46c-9.15-9.05-13.51-20.74-17.87-32.42c-3.98-10.66-3.81-21.59-2.43-32.73
		c1.71-13.88,8.49-25.03,17.8-34.86C240.5,659.9,247.39,654.25,255.23,649.89z"/>
	<path class="st2" d="M441.54,448.72c-0.88-7.47-0.72-14.98-0.62-22.48c0.21-15.02,2.71-29.7,6.38-44.26
		c3.39-13.46,8.14-26.38,14.05-38.87c4.53-9.56,9.92-18.67,15.74-27.52c6.84-10.41,13.93-20.65,23.27-29.03
		c11.13-9.99,22.33-19.87,35.09-27.89c18.13-11.4,37.49-19.49,58.34-24.36c16.4-3.83,32.98-5.4,49.7-4.5
		c13.42,0.73,26.67,3.24,39.67,6.86c8.34,2.32,16.41,5.28,24.28,8.9c9.47,4.36,17.25,11.03,24.97,17.76
		c4.69,4.09,9.01,8.62,13.61,12.82c10.09,9.22,17.21,20.67,24.4,32.08c3.37,5.35,6.74,10.68,9.53,16.36c0.69,1.4,1.36,1.78,2.95,0.9
		c12.36-6.9,24.31-5.25,35.92,1.97c10.79,6.71,21.61,13.49,33.56,17.88c7.27,2.67,14.92,4.64,22.79,5.09
		c-10.49-32.76-27.2-61.67-52.21-85.64c-37.47-35.92-82.29-56.39-133.37-63.27c-23.83-3.21-47.69-2.01-71.52,1.92
		c-23.06,3.8-44.01,12.98-64.17,23.95c-49.65,27.02-86.48,65.8-106.72,119.29c-8.38,22.13-10.18,45.2-9.88,68.57
		c0.14,10.99,1.34,21.87,3.71,32.61C441.07,448.17,441.36,448.43,441.54,448.72z"/>
	<path class="st3" d="M832.59,349.75c-1.2,0.02-2.41,0.05-3.61,0.07c-0.31,2.63-2.65,3.62-4.3,5.06c-2.43,2.13-5.12,3.95-7.71,5.89
		c-6.85,5.13-12.23,11.56-16.49,18.94c-8.71,15.12-20.39,26.76-36.61,34.09c-10.92,4.94-22.16,9.3-32.49,15.54
		c-7.69,4.64-13.95,10.54-18.59,18.25c-3.14,5.23-2.74,10.87-2.32,16.51c0.13,1.71,1.75,2.84,3.1,3.54
		c10.31,5.38,19.82,12.56,31.3,15.32c15.24,3.67,29.95,0.86,44.48-4.44c17.12-6.25,31.36-16.97,45.86-27.57
		c14.48-10.57,27.1-22.89,39.26-35.98c13.57-14.62,27.33-29.3,44.92-39.36c10.66-6.1,21.84-11.07,34.48-11.29
		c3.3-0.06,6.41,0.76,9.08,2.83c0.83,0.64,1.9,1.42,1.31,2.52c-0.53,0.99-1.57,0.05-2.38-0.05c-1.25-0.15-2.51-0.31-3.76-0.46
		c-0.2,1.79-1.11,3.26-2.13,4.66c-8.75,12.03-18.23,23.37-29.57,33.11c-10.29,8.84-21.54,16-34.18,20.96
		c-6.43,2.52-12.7,5.25-16.09,11.9c1.28,0.72,2.98-0.38,4.2,0.84c12.31,2.11,23.86-1.28,35.22-5.26
		c15.78-5.53,29.72-14.25,42.17-25.41c11.48-10.29,17.56-23.4,19.59-38.35c1.15-8.44-2.17-15.41-9.86-19.83
		c-13.47-7.73-27.72-9.44-42.77-5.76c-16.7,4.08-30.77,12.67-43.39,24.13c-9.15,8.31-17.7,17.31-27.59,24.77
		c-9.48,7.16-19.86,12.63-31.47,15.49c-3.82,0.94-7.67,1.07-12.15-0.85c2.58-0.69,4.47-1.2,6.37-1.7c0-2.07,1.8-2.5,3.1-3.32
		c2.43-1.54,5.04-2.81,7.38-4.47c9.28-6.58,17.11-14.7,24.15-23.55c3.62-4.55,6.65-9.57,9.94-14.38
		c-9.68-2.93-19.14-6.36-27.81-11.69c-0.25-0.24-0.49-0.48-0.74-0.72L832.59,349.75z"/>
	<path class="st4" d="M834.56,482.45c-10.75-3.34-21.09-4.04-31.75,1.41c-14.28,7.3-29.87,10.73-45.87,10.14
		c-15.86-0.59-30.73-4.96-42.65-16.39c-0.22-0.22-0.59-0.28-1.47-0.69c1.6,6.49,5.04,11.37,8.99,15.97c1.24-0.13,2.2,0.6,3.24,1.07
		c13.15,5.92,26.76,9.74,41.36,9.29c7.54-0.23,14.99-2.12,22.63-0.77c4.05,0.72,8.25,0.55,12.32,1.2
		c11.4,1.81,22.22,5.75,33.18,9.19c0.78,0.25,1.83,0.16,2.12,1.6c-4-0.39-7.87-0.8-11.75-1.13c-7.66-0.64-15.14-2.73-22.91-2.5
		c-8.71,0.26-17.52-0.81-25.99,2.25c8.45,1.07,16.94,1.91,25.35,3.27c12.42,2.01,24.84,4.09,37.37,5.2
		c12.73,1.13,25.54,3.31,38.3,0.36c8.29-1.92,15.83-5.45,21.79-12.17c-1.61,0.16-3.22,0.36-4.83,0.48
		c-16.07,1.22-31.8-1.36-47.39-4.66c-12.3-2.6-24.58-5.28-36.83-8.12c-9.11-2.11-18.56-1.83-27.89-0.66
		c-0.92,0.12-2.12,0.52-2.36-0.63c-0.25-1.21,1.14-1.13,1.93-1.45c4.33-1.73,8.87-2.44,13.48-2.6c17.31-0.6,34.21,2.07,51.11,5.65
		c12.37,2.62,24.86,5.42,37.72,4.75c2.88-0.15,5.71-0.48,8.5-1.18c-0.89-1.35-2.29-0.79-3.49-0.89c-2.64-0.21-5.27-0.04-7.93-0.36
		c-7.57-0.9-14.91-2.59-22.02-5.33c-6.69-2.57-13.72-3.78-20.66-5.39C833.3,488.27,832.72,486.67,834.56,482.45z"/>
	<path class="st5" d="M880.35,440.64c-1.22-1.22-2.92-0.12-4.2-0.84c3.39-6.65,9.66-9.38,16.09-11.9
		c12.64-4.96,23.89-12.12,34.18-20.96c11.34-9.74,20.82-21.09,29.57-33.11c1.02-1.4,1.93-2.88,2.13-4.66
		c-6.58-1.15-12.61,0.9-18.3,3.71c-20.59,10.17-38.74,23.58-53.72,41.15c-6.29,7.37-12.85,14.51-19.4,21.65
		c-1.61,1.76-1.94,2.47,0.71,3.35C871.65,440.41,875.96,440.68,880.35,440.64z"/>
	<path class="st6" d="M823.49,473.43c11.35-0.21,20.89,4.75,31.05,7.11c12.97,3.01,26.05,4.87,39.37,1.44
		c2.88-0.74,2.24-1.51,1.28-3.27c-7.38-13.47-18.17-23.5-31.38-31.06c-6.08-3.48-6.21-3.47-11.29,1.33
		C843.52,457.49,832.82,463.95,823.49,473.43z"/>
	<path class="st7" d="M834.56,482.45c-1.84,4.22-1.26,5.83,3.59,6.95c6.94,1.61,13.98,2.82,20.66,5.39
		c7.11,2.73,14.45,4.42,22.02,5.33c2.66,0.32,5.29,0.15,7.93,0.36c1.21,0.1,2.6-0.46,3.49,0.89c4.8-0.84,9.42-2.23,13.9-4.16
		c6.67-2.86,10.5-8.27,12.91-14.7c2.06-5.51-1.43-9.74-4.24-13.97c-4.89-7.37-11.57-12.76-19.18-17.1c-0.81-0.46-1.52-0.97-2.5-1.03
		c-5.64-0.35-11.28-0.75-17.16-1.15c0.71,1.66,2.23,2.4,3.42,3.28c8.79,6.48,14.76,15.18,19.61,24.75c0.95,1.87,1.73,2.99,4.14,1.93
		c1.62-0.72,3.58-0.72,5.41-0.91c0.71-0.07,1.79-0.49,2.11,0.54c0.32,1.01-0.73,1.2-1.37,1.66c-5.82,4.17-12.59,5.8-19.46,6.66
		c-9.39,1.17-18.79,1.9-28.34,0.98c-8.58-0.83-16.65-3.51-24.94-5.42C835.92,482.57,835.24,482.54,834.56,482.45z"/>
	<path class="st8" d="M776.02,513.09c8.46-3.06,17.27-2,25.99-2.25c7.77-0.23,15.25,1.87,22.91,2.5c3.88,0.32,7.75,0.74,11.75,1.13
		c-0.29-1.43-1.34-1.35-2.12-1.6c-10.96-3.44-21.79-7.38-33.18-9.19c-4.07-0.65-8.27-0.48-12.32-1.2
		c-7.63-1.35-15.09,0.54-22.63,0.77c-14.6,0.45-28.21-3.37-41.36-9.29c-1.04-0.47-2-1.2-3.24-1.07
		c5.49,7.18,12.82,11.96,21.14,14.95C753.58,511.67,764.9,511.9,776.02,513.09z"/>
	<path class="st4" d="M861.04,362.14c-3.29,4.81-6.32,9.83-9.94,14.38c-7.04,8.85-14.88,16.97-24.15,23.55
		c-2.34,1.66-4.95,2.94-7.38,4.47c-1.3,0.82-3.1,1.25-3.1,3.32c17.27-5.33,31.61-15.25,44.16-28.03
		c4.84-4.93,9.24-10.27,15.25-15.57C870.22,364.34,865.77,362.55,861.04,362.14z"/>
	<path class="st1" d="M832.49,349.73c0.25,0.24,0.49,0.48,0.74,0.72C832.98,350.21,832.73,349.97,832.49,349.73z"/>
	<path class="st2" d="M475.72,553.74c0.03,0.37,0.1,0.67,0.54,0.3C476.14,553.84,475.96,553.74,475.72,553.74z"/>
	<path class="st2" d="M276.82,785.24c0.44-2.9-2.42-3.76-3.71-5.44c-3.95-5.14-7.04-10.76-10.44-16.23
		c-6.42-10.32-10.15-21.59-13.05-33.24c-1.4-5.63-1.72-11.25-1.05-17.04c0.89-7.77,6.38-11.1,12.59-13.62
		c9.09-3.7,17.28-1.45,24.07,5.21c8,7.85,17.52,13.42,27.04,19.03c12.25,7.23,26.09,9.16,39.72,12.04
		c14.08,2.98,27.36-0.67,40.89-3.16c14.46-2.66,28.6-6.82,43.1-9.25c8.37-1.4,16.87-1.97,25.3-3.02c8.82-1.09,17.67-1.56,26.55-1.36
		c10.96,0.25,21.37,2.86,31.42,7.19c9.84,4.24,18.62,10.08,26.34,17.42c3.99,3.8,7.46,8.16,11.06,12.35
		c4.8,5.58,9.92,10.94,13.37,17.54c2.47,4.73,5.34,9.25,7.2,15.25c2.04-11.11,0.65-21.13-0.09-31.18
		c-0.59-7.99-2.19-15.65-4.91-23.18c-1.42-3.94-4.01-7.23-5.31-11.18c-0.35-1.06-1.26-2.02-0.5-3.24c0,0-0.1-0.09-0.1-0.09
		c-1.51,0.29-0.97-0.88-1.12-1.56l-0.01-0.02c-0.21-0.27-0.41-0.54-0.62-0.81c-2.03-3.38-4.72-6.26-7.18-9.31
		c-17.52-21.8-40.74-32-68.25-32.78c-17.58-0.5-34.28,4.58-50.72,10.06c-13.71,4.57-27.39,9.11-41.69,11.5
		c-9.81,1.64-19.8,1.5-29.62,3.15c-11.57,1.94-23.3,2.74-34.83,0.39c-15.13-3.08-26.91-12.48-38.26-22.3
		c-1.05-0.91-2.69-2.15-1.92-4.58c3.44,3.02,7.16,5.05,10.81,7.18c5.11-1.45,9.96-0.21,14.86,1.24c3.94,1.16,7.07,4.49,11.52,4.23
		c-7.31-7.74-15.39-14.64-23.36-21.67c-4.74-4.18-9.98-7.56-15.74-9.92c-6.99-2.86-14.25-4.04-21.43-0.17
		c-4.98,2.68-9.92,5.44-14.44,8.89c-8.35,6.37-13.67,15.16-19.52,23.64c-10.13,14.68-10.38,30.19-3.98,45.82
		c6.31,15.39,15.13,29.4,28.7,39.71C265.17,777.02,270.04,782.46,276.82,785.24z"/>
	<path class="st9" d="M276.82,785.24c-6.78-2.78-11.66-8.22-17.33-12.53c-13.56-10.31-22.39-24.31-28.7-39.71
		c-6.4-15.63-6.15-31.13,3.98-45.82c5.85-8.48,11.17-17.27,19.52-23.64c4.52-3.45,9.45-6.2,14.44-8.89
		c7.17-3.86,14.43-2.68,21.43,0.17c5.76,2.35,11,5.74,15.74,9.92c7.97,7.03,16.06,13.92,23.36,21.67c0,0-0.11,0.01-0.11,0.01
		c0.54,0.14,0.84,0.48,0.87,1.04c2.31,0.81,3.65,2.74,5.17,4.57c-11.4-1.95-22.46-4.74-32.31-11.1c-3.65-2.13-7.37-4.15-10.81-7.18
		c-0.77,2.42,0.87,3.67,1.92,4.58c11.35,9.82,23.13,19.22,38.26,22.3c11.52,2.35,23.26,1.55,34.83-0.39
		c9.82-1.65,19.81-1.51,29.62-3.15c14.3-2.39,27.98-6.93,41.69-11.5c16.44-5.48,33.14-10.56,50.72-10.06
		c27.51,0.78,50.73,10.98,68.25,32.78c2.46,3.06,5.15,5.93,7.18,9.31c0.21,0.27,0.41,0.54,0.62,0.81c0,0,0.01,0.02,0.01,0.02
		c0.71,0.28,0.9,0.93,1.12,1.56c0,0,0.1,0.09,0.1,0.09c0.94,1.17,1.88,2.32,2.81,3.5c0.43,0.55,0.82,1.24,1.64,0.9
		c0.81-0.34,0.64-1.19,0.55-1.82c-0.41-2.98-1.27-5.84-2.48-8.59c-7.36-16.78-19.92-28.61-35.49-37.7
		c-18.42-10.76-38.35-12.57-59.23-11.83c-23.56,0.84-44.78,9.41-66.26,17.39c-17.8,6.61-36.01,10.62-55.03,10.9
		c-2.01,0.03-3.41-0.5-4.92-1.8c-11.28-9.67-20.28-21.54-30.9-31.84c-4.75-4.61-9.9-8.58-15.65-11.94
		c-13.21-7.71-26.4-7.04-39.76-0.74c-2.18,1.03-4.29,2.22-6.44,3.33c-7.84,4.37-14.73,10.02-20.85,16.49
		c-9.31,9.83-16.08,20.99-17.8,34.86c-1.38,11.14-1.54,22.07,2.43,32.73c4.36,11.68,8.72,23.37,17.87,32.42
		c0.7,0.69,0.94,1.38,0.53,2.46c-5.91,15.49-1.68,29.24,7.52,42.01c3.99,5.54,8.44,10.73,13.26,15.57c1.74,1.75,2.38,3.46,2.41,6.02
		c0.1,8.37,3.19,16.04,6.58,23.53c10.03,22.18,25.1,40.41,43.58,56.13c19.7,16.75,41.85,28.98,66.09,37.65
		c0.97,0.35,1.98,0.6,2.98,0.89c32.25,9.51,64.86,8.44,97.39,2.4c26.51-4.92,49.72-17.39,70.8-33.99
		c6.81-5.36,13.66-10.66,19.93-16.65c0.34-0.33,0.67-0.59,0.41-1.41c-2.27,0.58-3.84,2.29-5.62,3.56
		c-14.93,10.75-30.92,19.61-47.77,26.96c-0.3,0.13-0.68,0.1-1.02,0.14c-0.31,0.67-0.94,0.66-1.53,0.72c0,0,0.05-0.03,0.05-0.03
		c-12.39,5.64-24.98,10.65-38.6,12.58c-10.97,1.56-21.83,4.22-32.9,4.61c-14.11,0.49-28.3-0.66-42.03-3.66
		c-38.33-8.36-71.48-26.1-97.15-56.47c-8.82-10.43-16.42-21.65-22.15-34.09c-3-4.74-5.22-9.84-7.3-15.33
		c1.87,0.43,2.81,1.65,3.99,2.47c12.84,8.88,26.23,16.62,41.72,19.95c1.59,0.57,3.17,0.72,5.39-0.13c-2.47-0.95-4.42-1.5-6.17-2.41
		c-22.31-11.67-43.17-25.3-59.76-44.62c-4.42-5.14-8.94-10.25-11-16.93c-2.55-5.8-3.29-11.9-2.99-18.17
		c0.09-1.94,0.27-3.87,0.41-5.68c0.67-0.45,1.02-0.13,1.36,0.18c25.19,22.48,53.99,38.68,85.97,49.35
		c21.01,7.01,40.35,17.26,57.91,30.72c10.2,7.82,19.6,16.56,27,27.21c0.52,0.75,0.89,1.82,1.95,1.77c1.03-0.05,1.44,1.05,2.36,1.03
		c0.51-0.76,0.06-1.3-0.3-1.91c-17.33-29.27-43-49.07-72.89-64.02c-10.76-5.38-21.89-9.86-33.28-13.76
		C300.58,800.41,288.48,793.22,276.82,785.24z"/>
	<path class="st10" d="M657.52,309.28c4.99-12.13,15.76-15.56,26.55-8.17c10.46,7.16,15.78,17.97,19.95,29.46
		c2.05,5.66,2.93,11.62,3.33,17.57c0.53,8.02-0.47,15.92-4.38,23.12c-4.94,9.1-13.73,11.7-22.89,6.93c-3.83-2-7.12-4.71-9.85-8.05
		c-10.37-12.69-15.27-27.34-15.59-43.61C654.41,320.56,655.25,314.8,657.52,309.28z M678.93,333.33c0.33,0.32,0.68,0.62,1.05,0.9
		c3.78,2.88,8.15,3.66,10.82,1.93c2.52-1.63,3.77-6.86,3.15-10.95c-1.45-9.55-6.1-16.83-14.39-21.86c-2.57-1.56-5.29-1.8-7.97-1.36
		c-3.95,0.65-4.01,3.82-3.72,7.03C668.62,318.42,672.09,326.63,678.93,333.33z"/>
	<path class="st11" d="M279.63,855.31c5.73,12.44,13.34,23.66,22.15,34.09c25.67,30.37,58.82,48.11,97.15,56.47
		c13.73,2.99,27.92,4.15,42.03,3.66c11.08-0.39,21.94-3.05,32.9-4.61c13.61-1.94,26.2-6.94,38.6-12.58
		c-7.37,0.47-14.45,2.58-21.67,3.86c-10.19,1.81-20.37,3.89-30.75,3.67c-20.61-0.44-41.03-2.27-61.1-7.61
		c-13.72-3.65-27.15-8.05-40.11-13.69c-15.38-6.68-29.31-15.87-42.1-26.75c-5.78-4.92-11.76-9.65-16.03-16.06
		c-2.1-3.15-4.37-6.25-5.98-9.66c-1.58-3.35-3.65-5.89-7.17-6.95C284.69,858.29,282.88,855.32,279.63,855.31z"/>
	<path class="st11" d="M246.5,798.3c2.06,6.69,6.58,11.79,11,16.93c16.59,19.32,37.45,32.96,59.76,44.62
		c1.75,0.92,3.7,1.46,6.17,2.41c-2.22,0.85-3.79,0.7-5.39,0.13c2.22,2.56,5.51,2.46,8.41,3.14c1.49,0.35,3.14,0.4,5,0.15
		c-2.76-1.56-5.42-3.38-8.31-4.64c-6.37-2.78-11.21-7.57-16.4-11.91c-10.83-9.06-20.05-19.65-28.74-30.73
		c-0.77-0.98-1.86-1.34-2.87-1.83c-10.01-4.8-19.13-10.94-27.63-18.06C247.27,798.33,246.84,798.37,246.5,798.3z"/>
	<path class="st11" d="M512.42,932.37c0.59-0.06,1.22-0.05,1.53-0.72C513.33,931.64,512.72,931.67,512.42,932.37z"/>
	<path class="st1" d="M302.88,680.95c9.84,6.36,20.91,9.14,32.31,11.1c-1.53-1.83-2.86-3.77-5.17-4.58
		c-0.29-0.35-0.58-0.69-0.87-1.04c0,0,0.11-0.01,0.11-0.01c-4.45,0.27-7.57-3.06-11.52-4.23C312.84,680.74,308,679.49,302.88,680.95
		z"/>
	<path class="st1" d="M566.3,720.04c-0.22-0.63-0.41-1.28-1.12-1.56C565.32,719.16,564.79,720.33,566.3,720.04z"/>
	<path class="st1" d="M565.17,718.46c-0.21-0.27-0.41-0.54-0.62-0.81C564.75,717.92,564.96,718.19,565.17,718.46z"/>
	<path class="st2" d="M329.14,686.43c0.29,0.34,0.58,0.69,0.87,1.04C329.98,686.91,329.69,686.57,329.14,686.43z"/>
	<path class="st12" d="M667.86,309.01c0.75,9.41,4.23,17.62,11.06,24.31c0.33,0.32,0.68,0.62,1.05,0.9
		c3.78,2.88,8.15,3.66,10.82,1.93c2.52-1.63,3.77-6.86,3.15-10.95c-1.45-9.55-6.1-16.83-14.39-21.86c-2.57-1.56-5.29-1.8-7.97-1.36
		C667.64,302.63,667.57,305.8,667.86,309.01z"/>
</g>
</svg>
