<?xml version="1.0" encoding="utf-8"?>
<!-- Generator: Adobe Illustrator 23.1.0, SVG Export Plug-In . SVG Version: 6.00 Build 0)  -->
<svg version="1.1" id="Capa_1" xmlns="http://www.w3.org/2000/svg" xmlns:xlink="http://www.w3.org/1999/xlink" x="0px" y="0px"
	 viewBox="0 0 1200 1200" style="enable-background:new 0 0 1200 1200;" xml:space="preserve">
<style type="text/css">
	.st0{opacity:0.57;fill:url(#SVGID_1_);}
	.st1{fill:#040B1F;}
	.st2{fill:#050C20;}
	.st3{fill:#5B1223;}
	.st4{fill:#060C20;}
	.st5{fill:#060B1F;}
	.st6{fill:#3A6CAD;}
	.st7{fill:#F38BB8;}
	.st8{fill:#DAE0F3;}
	.st9{fill:#92357C;}
	.st10{fill:#386BAE;}
</style>
<g>
	<linearGradient id="SVGID_1_" gradientUnits="userSpaceOnUse" x1="171.5874" y1="441.7616" x2="869.5303" y2="441.7616">
		<stop  offset="0.1264" style="stop-color:#FFFFFF;stop-opacity:0"/>
		<stop  offset="1" style="stop-color:#FFFFFF"/>
	</linearGradient>
	<path class="st0" d="M869.36,321.56L171.59,128.62v626.29l697.94-157.37C869.53,597.54,869.36,317.24,869.36,321.56z"/>
	<g>
		<g>
			<path class="st1" d="M225.81,1025.56c0.04-1.16,0.11-2.33,0.11-3.49c0.01-7.95,0.44-8.4,8.55-8.4
				c15.76-0.01,31.52-0.07,47.29,0.01c18.44,0.1,36.88,0.3,55.32,0.59c2.6,0.04,3.17-0.51,3.15-3.24
				c-0.21-29.19-0.18-58.37-0.3-87.56c-0.13-30.7-0.41-61.4-0.49-92.1c-0.01-2.69-0.8-3.29-3.32-3.28
				c-16.34,0.06-32.69-0.06-49.03-0.06c-19.02,0-35.82-6.08-51.13-17.38c-16.62-12.27-25.27-28.7-29.16-48.64
				c-2.87-14.7-1.88-29.25-0.89-43.88c0.83-12.19,4.78-23.96,5.51-36.17c0.81-13.49,3.14-26.84,3.32-40.4
				c0.33-23.45,1.7-46.89,1.09-70.34c-0.56-21.67-1.51-43.33-2.72-64.98c-0.71-12.66-2.33-25.27-3.38-37.91
				c-0.32-3.83-0.15-7.7-0.14-11.55c0-1.27,0.12-2.52,0.58-3.77c1.46-3.98,3.77-7.2,8.27-7.5c4.47-0.3,7.87,2.13,9.9,5.95
				c3.21,6.03,4.31,12.71,5.28,19.39c1.43,9.85,0.59,19.79,1.23,29.69c2.84,43.8,3.14,87.66,3.04,131.53
				c-0.05,19.61-1.8,39.1-5.47,58.37c-3.64,19.11-6.76,38.26-7.22,57.78c-0.55,23.52,10.36,45.28,37.46,54.61
				c10.45,3.6,20.93,5.78,32.02,5.6c15.75-0.25,31.5-0.06,47.33-0.06c-0.09-1.01-1.18-1.04-1.87-1.45
				c-16-9.18-31.4-19.25-45.22-31.53c-16.34-14.5-27.45-32.64-36.35-52.4c-7.57-16.79-11.32-34.31-12.72-52.61
				c-1.15-15.01-0.71-29.87,2.16-44.56c7.24-36.99,24.02-69.28,47.45-98.75c22.89-28.8,51.63-48.29,86.19-59.82
				c2.94-0.98,5.89-1.95,8.84-2.92c1.3,0.22,2.52-0.16,3.77-0.45c17.77-4.13,35.63-6.59,53.99-4.54c13.16,1.47,26.04,3.7,38.11,9.33
				c18.05,8.42,35.14,18.17,48,33.99c12.43,15.28,18.14,32.52,16,52.23c-0.38,3.47-0.59,6.96-0.88,10.43
				c-0.8,1.74-1.22,3.57-1.21,5.49c-1.47,3.65-3.04,7.24-4.7,10.81c-4.66,10-11.58,18.5-17.66,27.56
				c-8.98,13.38-20.37,24.5-33.41,33.91c-8.02,5.79-16.84,10.3-25.3,15.38c-1.94,0.04-3.93-0.01-5.81,0.19
				c-8.61,0.95-17.25,0.54-25.84,0.27c-5.58-0.17-11.09-0.65-16.67,0.09c-2.02,0.27-2.5,1.04-2.48,2.87
				c0.07,5.83,0.17,11.67-0.05,17.5c-0.12,3.03,1.03,3.68,3.83,3.69c13.86,0.06,27.73-0.42,41.58,0.48
				c2.95,0.19,3.87,1.15,3.73,3.97c-0.18,3.61-0.05,7.23-0.05,10.85c0,43.4,0.01,86.79,0.01,130.19c-1.86,0.04-3.73,0.11-5.59,0.11
				c-16.33,0.04-32.65,0.07-48.98,0.1c-0.82-6.12-0.84-12.27-0.91-18.42c1.58-1.3,3.52-1.22,5.33-1.1c2.95,0.2,4.17-0.69,4.06-3.89
				c-0.23-6.76-0.05-13.53-0.07-20.3c-0.01-4.31-0.04-4.3-4.54-4.13C413,781,411.25,781,409.5,781c-17.61,0.02-35.22,0.05-52.82,0.7
				c-2.95,0.11-4.48,1.06-3.97,4.14c1,6.15-0.12,12.3,0.01,18.45c0.13,6.14,0.18,6.13,6.18,6.19c0.7,0.01,1.4,0.05,2.1,0.07
				c-0.37,2.16-1.06,4.24-1.41,6.43c-1.43,9.06,0.48,17.77,1.9,26.61c0.71,4.43,0.51,9.09,0.1,13.58c-0.33,3.56-1.8,6.73-4.82,9.31
				c-3.69,3.14-7.09,6.74-10.09,10.55c-4.35,5.52-4.45,11.73,3.7,13.4c0.13,0.03,0.2,0.3,0.28,0.43c-3.26,3.12-5.68,6.58-4.37,11.34
				c1.31,4.73,4.83,6.6,9.48,7.43c3.72,0.67,6.86-0.52,10.13-1.68c0.02,1.52,0.07,3.03,0.07,4.55c0,32.77-0.01,65.53,0.02,98.3
				c0,1.52-0.9,3.48,2.23,3.48c33.11-0.02,66.22,0.08,99.33,0.15c0,6.29,0,12.58,0,18.87c-24.98,0.04-49.96,0.06-74.94,0.11
				c-11.67,0.02-23.34,0.08-35.01,0.12c-0.52-0.02-1.04-0.05-1.57-0.07c-0.01,0.1-0.01,0.2-0.02,0.3c0.53,0.04,1.06,0.07,1.59,0.11
				c3.66,2.46,6.87,5.29,7.79,9.91c0.07,0.41,0.13,0.81,0.2,1.22c-0.04,1.46-0.08,2.93-0.12,4.39c-0.03,0.24-0.06,0.48-0.08,0.71
				c-0.44,1.06-0.82,2.15-1.34,3.17c-2.79,5.53-8.63,8.72-14.62,8.05c-5.32-0.6-9.77-4.29-11.09-9.64
				c-1.6-6.47,0.95-11.52,5.91-15.59c2.01-0.96,3.95-2.1,6.89-2.52c-2.79,0-4.84,0-6.9,0c-1.16-0.05-2.32-0.15-3.48-0.15
				c-30.5-0.01-61-0.02-91.5-0.01c-4.77,0-9.54,0.09-14.3,0.14c-1.38-0.07-2.77-0.14-4.15-0.22c1.56,0.49,2.54,1.92,4.07,2.24
				c0.47,0.41,0.94,0.82,1.42,1.23c0.59,0.74,1.18,1.48,1.76,2.22c5.82,10.31-0.78,21.23-11.23,22.34
				c-6.6,0.7-12.45-3.66-14.07-9.92c-1.62-6.24,2.06-13.39,8.15-16.49c1.81-0.92,4.97,0.03,5.34-2.18c0.33-1.97-0.05-4.34-0.31-6.52
				C225.93,1026.01,225.86,1025.79,225.81,1025.56z"/>
			<path class="st2" d="M938.35,1062.59c1.17,0,2.34,0.01,3.51,0.01c1.4,0,2.8,0,4.2,0.01c0.47,0,0.93,0,1.4,0
				c1.05,0.05,2.09,0.14,3.14,0.14c35.25,0.11,70.5,0.2,105.75,0.38c2.12,0.01,5.59-1.1,5.82,2.07c0.25,3.51-3.42,1.97-5.41,2.57
				c-1.87,0-3.73,0-5.6,0.01c-11.91,0-23.82,0-35.73-0.01c-1.17,0-2.33,0-3.5,0c-6.31,0-12.61,0-18.92,0c-0.47,0-0.93,0-1.4,0
				c-0.93,0-1.87,0-2.8,0c-0.7,0-1.4,0-2.1,0c-0.93,0-1.87,0-2.8,0c-1.87,0-3.73,0-5.6,0c-2.34,0-4.67-0.01-7.01-0.01
				c-1.17,0-2.33,0-3.5,0c-2.34,0-4.67,0-7.01,0c-0.7,0-1.4,0-2.1,0c-2.34,0-4.67,0-7.01,0c-0.47,0-0.93,0-1.4,0
				c-2.1,0-4.2,0-6.31,0c-3.5,0-7,0-10.51,0c-5.37,0-10.74-0.01-16.11-0.01c-3.97,0-7.94,0-11.91,0c-6.07,0-12.14-0.01-18.22-0.01
				c-2.57,0-5.14,0-7.71-0.01c-3.5,0-7.01,0-10.51,0c-0.47,0-0.93,0-1.4,0c-2.1,0-4.2-0.01-6.31-0.01c-0.47,0-0.93,0-1.4,0
				c-0.7,0-1.4,0-2.1,0c-3.04,0-6.07,0-9.11,0c-3.5,0-7.01,0-10.51,0c-2.34,0-4.67,0-7.01,0c-5.6-0.01-11.21-0.02-16.81-0.02
				c-1.87,0-3.74,0-5.6,0c-1.4-0.05-2.79-0.14-4.19-0.15c-44.16-0.09-88.32-0.17-132.48-0.26c-11.55-0.02-23.11-0.12-34.66-0.13
				c-21.59-0.01-43.17,0.02-64.76,0.03c-1.87,0-3.74,0-5.61,0c-1.63,0-3.27,0-4.9,0c-0.91,0-1.83,0-2.74-0.01
				c-7.03-0.01-14.05-0.03-21.08-0.04c-10.74-0.01-21.49-0.02-32.23-0.03c-2.57,0-5.14,0-7.7,0.01c-4.9,0-9.81,0-14.71-0.01
				c-2.1,0-4.2-0.01-6.3-0.01c-8.87,0-17.75-0.01-26.62-0.01c-0.93,0-1.87-0.01-2.8-0.01c-5.58-0.05-11.15-0.13-16.73-0.13
				c-20.11,0.01-40.22,0.06-60.33,0.09c-0.47,0-0.93,0-1.4,0c-4.67,0-9.34,0-14.01,0c-1.87-0.01-3.74-0.01-5.6-0.01
				c-3.5,0-7.01,0-10.51,0c-0.93,0-1.87,0-2.8,0c-3.74,0-7.47,0-11.21,0c-1.63-0.06-3.26-0.17-4.89-0.17
				c-59.51-0.12-119.01-0.24-178.52-0.36c-1.16,0-2.34-0.01-3.49-0.17c-1.18-0.16-1.88-0.97-1.9-2.15c-0.03-1.2,0.67-2.01,1.84-2.2
				c1.03-0.17,2.09-0.17,3.14-0.17c14.12,0.01,28.24,0.05,42.36,0.05c20.06,0,40.13-0.04,60.19-0.06c0.94,0,1.87,0,2.81,0
				c17.58,0.06,35.16,0.17,52.73,0.18c23.52,0.01,47.04-0.05,70.55-0.08c0.47,0,0.94,0,1.41,0c20.29,0.06,40.58,0.14,60.88,0.16
				c11.89,0.01,23.79-0.08,35.68-0.12c5.95,0.04,11.9,0.09,17.85,0.11c6.17,0.02,6.16,0.01,6.16-6.03
				c-0.02-40.14-0.04-80.28-0.02-120.42c0-1.61,0.31-3.22,0.47-4.84c0.03-0.47-0.01-0.95,0.08-1.39
				c5.29-24.19,12.98-47.63,22.03-70.66c3.61-9.18,7.11-18.38,9.66-27.94c1.71-6.41-1.21-11.3-7.32-14.56
				c-7.72-4.13-16.23-5.45-24.92-5.65c-0.03-26.23-0.2-52.46-0.04-78.69c0.09-15.37-0.64-30.73-0.63-46.09
				c11.79,1.91,23.26,5.19,34.72,8.47c22.25,6.38,43.16,15.67,60.86,30.73c12.1,10.3,23.13,21.49,26.69,38.41
				c3.62,17.21,5.14,34.14,2.12,51.55c-5.62,32.49-15.22,63.72-28.31,93.94c-5.97,13.78-9.63,28.25-12.66,43.18
				c8.06,0,8.1-0.05,15.92,0.02c4.96,0.04,5.23,0.14,4.84,4.95c-0.64,7.81-0.58,15.62-0.62,23.43c-0.02,4.32-0.01,8.64-0.12,12.96
				c-0.13,4.74-0.79,5.41-5.61,5.5c-5.95,0.11-4.13,0.03-10.08,0.1c-0.82,0.01-1.85-0.52-2.53,0.58c1.63,1.86,3.37,3.54,5.28,5.09
				c12.08,9.8,26.76,13.63,41.18,18.04c10.01,3.06,20.6,3.35,30.67,6.35c17.5,5.21,25.19,13.16,26.67,29.74
				c0.3,3.38,1.42,3.81,4.31,3.8c37.47-0.04,74.94,0.05,112.4,0.07c37.93,0.02,75.87-0.01,113.8-0.01c8.9,0.01,17.8,0.01,26.7,0.02
				l0.34,0.07L938.35,1062.59z"/>
			<path class="st3" d="M491.46,685.73c-0.02,15.37,0.72,30.72,0.63,46.09c-0.16,26.23,0.01,52.46,0.04,78.69
				c0.03,39.39,0.06,78.78,0.11,118.18c0,0.68,0.23,1.36,0.36,2.04c-0.16,1.61-0.47,3.22-0.47,4.84
				c-0.01,40.14,0.01,80.28,0.02,120.42c0,6.04,0.01,6.05-6.16,6.03c-5.95-0.02-11.9-0.07-17.85-0.11
				c-0.2-9.53-0.39-19.07-0.59-28.6c0-6.29,0-12.58,0-18.87c-0.15-19.24-0.3-38.47-0.45-57.71c-0.32-41.28-0.63-82.55-0.97-123.82
				c-0.01-1.45,0.52-3.04-0.67-4.33c0-43.4-0.01-86.79-0.01-130.19c0-3.62-0.14-7.24,0.05-10.85c0.14-2.82-0.77-3.77-3.73-3.97
				c-13.86-0.9-27.72-0.43-41.58-0.48c-2.79-0.01-3.95-0.66-3.83-3.69c0.23-5.82,0.12-11.66,0.05-17.5
				c-0.02-1.83,0.46-2.6,2.48-2.87c5.58-0.75,11.1-0.26,16.67-0.09c8.59,0.26,17.22,0.67,25.84-0.27c1.88-0.21,3.87-0.16,5.81-0.19
				c29.29-0.02,58.58-0.04,87.86-0.06c8.16,0.02,16.32,0.06,24.48,0.05c35.55-0.03,71.1-0.07,106.65-0.1
				c35.18-0.05,70.36-0.1,105.55-0.17c0.88,0,1.88,0.36,2.63-0.47c1.63,0.03,3.26,0.08,4.89,0.08c29.48-0.01,58.96-0.02,88.44-0.03
				c14.71,0.04,29.41,0.05,44.12,0.13c19.14,0.1,38.29-0.28,57.43,0.34c3.61,0.12,4.64,1.42,4.5,4.84
				c-0.22,5.48-0.06,10.97-0.06,16.46c0,4.15-0.46,4.71-4.81,4.84c-7.47,0.23-14.94,0.42-22.41,0.49
				c-9.22,0.08-18.45,0.09-27.67-0.02c-1.94-0.02-2.58,0.31-2.48,2.42c1.21,24.73,0.65,49.48,0.74,74.22
				c0.14,43.08-0.02,86.17,0.06,129.25c0.11,56.27,0.34,112.55,0.52,168.82c0,0.81,0.08,1.63,0.12,2.44
				c-0.11,0.2-0.14,0.42-0.1,0.65c-8.9-0.01-17.8-0.01-26.7-0.02c-0.15-5.02-0.36-10.03-0.42-15.05
				c-0.52-43.89-1.03-87.78-1.52-131.67c-0.3-26.85-0.42-53.7-0.85-80.55c-0.22-13.66-0.15-27.31-0.37-40.97
				c-0.57-35.48-0.72-70.98-0.9-106.47c-0.01-2.66-0.68-3.32-3.26-3.31c-12.02,0.07-24.04-0.07-36.06-0.1
				c-121.65-0.29-243.31-0.57-364.96-0.85c-3.04-0.01-6.07,0.06-9.11-0.05C491.89,683.56,491.05,683.95,491.46,685.73z"/>
			<path class="st4" d="M936.4,657.77c-29.48,0.01-58.96,0.02-88.44,0.03c-1.63,0-3.26-0.05-4.89-0.08
				c-4.26-5.39,0.82-9.81,6.06-9.78c17.98,0.1,35.96-0.13,53.93,0.45c6.77,0.22,13.54,0.08,20.31,0.3c2.63,0.09,3-0.56,2.29-3.09
				c-7.11-25.47-14.09-50.98-21.08-76.48c-4.32-15.78-8.59-31.57-12.89-47.35c-0.26-0.97-0.57-1.92-1.36-2.81c0,1.2,0,2.4,0,3.6
				c0.01,24.75,0.02,49.5,0.03,74.25c0,4.68-0.25,4.88-4.97,5.03c-4.43,0.14-8.85,0.46-13.27,0.54c-4.26,0.08-4.8-0.55-4.8-4.84
				c-0.02-38.53-0.05-77.05-0.07-115.58c-0.03-53.47-0.07-106.94-0.1-160.4c0-7.44,0.01-7.45,7.26-7.16
				c3.73,0.15,7.45,0.31,11.17,0.54c3.53,0.22,4.25,1.89,4.27,4.88c0.1,13.66,0.4,27.31,0.43,40.96
				c0.08,34.56,0.15,69.11-0.03,103.67c-0.04,6.99,2.69,13.14,4.5,19.55c15.03,53.2,29.22,106.64,44.01,159.9
				C940.2,649.1,941.35,653.85,936.4,657.77z"/>
			<path class="st5" d="M686.2,658.36c-35.55,0.04-71.1,0.08-106.65,0.1c-8.16,0.01-16.32-0.03-24.48-0.05
				c-3.02-4.83-0.96-8.69,4.9-9.04c2.54-0.15,5.09-0.08,7.63-0.11c2.82,1.73,5.71,0.15,8.56,0.16c10.97,0.02,21.93-0.11,32.9-0.02
				c2.44,0.02,4.07-0.76,4.89-3c1.83-5.02,2.41-9.83-1.38-14.48c-2.02-2.47-4.05-5.07-4.56-8.51c-0.6-4.11,0.66-5.73,4.71-5.61
				c2.39,0.07,4.51,1.09,6.75,1.69c8.72,2.36,15.31-1.27,15.94-9.35c0.35-4.51-0.94-8.91-3.69-12.8
				c-3.57-5.04-8.34-8.72-13.23-12.28c-6.72-4.89-9.61-11.04-8.17-19.62c1.17-6.99,5.01-12.08,9.32-17.13
				c9.85,1.84,18.28,6.78,24.96,13.81c13.64,14.35,20.16,31.7,18.29,51.65c-0.8,8.49-3.06,16.64-8.09,23.86
				c-3.05,4.37-7.16,7.33-11.64,10.14c1.38-0.19,2.55,0.93,3.81,0.16c11.5,0,23-0.04,34.51,0.04c2.25,0.02,4.82-0.87,6.21,2.35
				c1.29,2.98,1.12,5.28-1.39,7.36C686.15,657.79,686.22,658.13,686.2,658.36z"/>
			<path class="st6" d="M549.49,565.32c0.29-3.48,0.51-6.97,0.88-10.44c2.13-19.7-3.58-36.94-16-52.23
				c-12.86-15.82-29.95-25.58-48-33.99c-12.07-5.63-24.95-7.86-38.11-9.33c-18.35-2.05-36.22,0.41-53.99,4.54
				c-1.25,0.29-2.47,0.67-3.77,0.45c8.42-3.28,17.25-5.06,26.03-6.96c19.28-4.19,38.6-3,57.93-0.15
				c26.71,3.94,51.68,13.05,75.64,25.22c2.49,1.26,4.9,2.65,7.08,4.41c0.97,10.7-0.22,21.4,0.05,32.1c0.02,0.81-0.13,1.62-0.18,2.44
				c-0.63,11.26-2.44,22.37-4.21,33.48c-0.17,3.05-2.18,5.68-1.96,8.83C550.94,564.62,550.45,565.2,549.49,565.32z"/>
			<path class="st7" d="M573.41,496.67c11.07,7.62,22.38,14.92,33.15,22.95c7.77,5.8,15.7,11.54,22.22,18.86
				c-3.11,3.11-6.21,6.22-9.31,9.33c-2.21,0-4.42-0.09-6.62,0.01c-4.92,0.23-8.28-1.88-10.76-6.16c-2.43-4.2-4.64-8.56-7.64-12.43
				c-6.64-8.56-15.38-14.7-23.94-21.06C570.78,504.16,572.68,500.56,573.41,496.67z"/>
			<path class="st6" d="M619.46,547.81c3.1-3.11,6.21-6.22,9.31-9.33c6.79,4.8,12.56,10.71,17.87,17.05
				c10.48,12.51,19.08,26.06,22.33,42.38c3.22,16.16-1.24,30.03-12.57,41.84c-2.9,3.03-6.12,5.67-9.45,8.19
				c-1.25,0.77-2.42-0.35-3.81-0.16c4.48-2.81,8.59-5.77,11.64-10.14c5.03-7.21,7.29-15.37,8.09-23.86
				c1.88-19.95-4.64-37.3-18.29-51.65c-6.68-7.03-15.11-11.98-24.96-13.81C619.6,548.14,619.55,547.97,619.46,547.81z"/>
			<path class="st8" d="M573.41,496.67c-0.73,3.89-2.63,7.49-2.91,11.5c-0.9,0.83-1.08,1.97-1.46,3.06
				c-3.64,10.42-7.29,20.85-11.02,31.24c-1.52,4.22-2.72,8.58-5.18,12.41c1.77-11.11,3.59-22.22,4.21-33.48
				c0.05-0.81,0.2-1.63,0.18-2.44c-0.27-10.7,0.91-21.4-0.05-32.1C562.68,489.96,568.22,493.03,573.41,496.67z"/>
			<path class="st9" d="M552.83,554.87c2.47-3.83,3.67-8.19,5.18-12.41c3.73-10.39,7.38-20.82,11.02-31.24
				c0.38-1.08,0.56-2.23,1.46-3.06c8.56,6.36,17.3,12.5,23.94,21.06c3.01,3.88,5.21,8.23,7.64,12.43c2.48,4.28,5.84,6.38,10.76,6.16
				c2.2-0.1,4.41-0.01,6.62-0.01c0.08,0.16,0.14,0.33,0.17,0.51c-4.31,5.05-8.15,10.13-9.32,17.13c-1.44,8.58,1.45,14.74,8.17,19.62
				c4.9,3.56,9.66,7.24,13.23,12.28c2.76,3.89,4.05,8.28,3.69,12.8c-0.63,8.08-7.22,11.71-15.94,9.35c-2.24-0.6-4.36-1.63-6.75-1.69
				c-4.04-0.11-5.31,1.51-4.71,5.61c0.51,3.44,2.54,6.04,4.56,8.51c3.79,4.64,3.21,9.45,1.38,14.48c-0.82,2.24-2.45,3.02-4.89,3
				c-10.96-0.08-21.93,0.05-32.9,0.02c-2.85-0.01-5.74,1.57-8.56-0.16c-2.77-3.72-0.12-6.96,1.16-10.13
				c2.12-5.23,1.65-9.57-2.59-13.61c-5.23-4.97-10.28-10.09-12.8-17.19c-1.33-3.76-1.09-6.96,1.21-10.2
				c1.75-2.46,3.38-4.99,5.28-7.35c3.51-4.38,4.2-9.83,1.27-12.8c-3.52-3.57-7.73-6.29-12.86-7.18c-0.01-1.92,0.41-3.74,1.21-5.49
				c0.95-0.12,1.44-0.7,1.38-1.63C550.65,560.55,552.67,557.92,552.83,554.87z"/>
			<path class="st9" d="M410.88,828.78c1.98,13.71,8.78,25.83,12.86,38.84c0.73,2.34,1.23,4.72,1.09,7.2
				c-0.32,5.46-4.55,8.82-9.8,7.28c-3.18-0.93-3.85,0.31-4.13,3c-1.73,16.52-11.98,27.22-24.83,36.12c-1.88,1.3-4.13,1.58-6.27,1.98
				c-5.52,1.03-9.34-3.06-8.03-8.55c0.79-3.31,2.5-6.23,4.38-9.05c1.07-1.61,2.1-3.24,2.72-5.35c-4.32,2.57-8.64,5.14-12.97,7.71
				c-3.27,1.16-6.41,2.35-10.13,1.68c-4.66-0.84-8.18-2.71-9.48-7.43c-1.31-4.75,1.11-8.22,4.37-11.34
				c-0.08-0.12-0.16-0.4-0.28-0.43c-8.14-1.67-8.04-7.87-3.7-13.4c3-3.81,6.4-7.41,10.09-10.55c3.02-2.58,4.49-5.75,4.82-9.31
				c0.41-4.5,0.62-9.16-0.1-13.58c-1.42-8.84-3.33-17.55-1.9-26.61c0.35-2.19,1.04-4.27,1.41-6.43c4.42-0.03,8.84,0.04,13.26-0.11
				c10.19-0.36,20.43,0.84,30.58-1.19c1.67-0.33,3.75-0.74,5.14,1.1C410.05,816.51,410.06,822.66,410.88,828.78z"/>
			<path class="st10" d="M409.97,810.35c-1.39-1.84-3.48-1.43-5.14-1.1c-10.14,2.03-20.39,0.83-30.58,1.19
				c-4.41,0.16-8.84,0.08-13.26,0.11c-0.7-0.03-1.4-0.07-2.1-0.07c-6-0.05-6.05-0.05-6.18-6.19c-0.13-6.15,0.99-12.3-0.01-18.45
				c-0.5-3.09,1.03-4.04,3.97-4.14c17.6-0.65,35.21-0.67,52.82-0.7c1.75,0,3.5,0,5.25-0.06c4.5-0.17,4.52-0.18,4.54,4.13
				c0.02,6.77-0.15,13.54,0.07,20.3c0.11,3.2-1.12,4.09-4.06,3.89C413.49,809.13,411.55,809.06,409.97,810.35z"/>
			<path class="st8" d="M357.6,1033.52c0.1,0.11,0.1,0.22,0.01,0.34c-0.53-0.04-1.06-0.07-1.59-0.11c0.01-0.1,0.01-0.2,0.02-0.3
				C356.56,1033.48,357.08,1033.5,357.6,1033.52z"/>
			<path class="st8" d="M365.49,1049.38c0.16,0.23,0.33,0.46,0.49,0.7c-0.19,0.01-0.38,0.02-0.57,0.02
				C365.43,1049.85,365.46,1049.62,365.49,1049.38z"/>
			<path class="st8" d="M365.4,1043.77c0.19,0,0.38,0.01,0.57,0.01c-0.12,0.4-0.24,0.81-0.37,1.21
				C365.53,1044.58,365.47,1044.18,365.4,1043.77z"/>
		</g>
		<circle class="st1" cx="351.91" cy="1047.26" r="14.65"/>
		<circle class="st1" cx="226.27" cy="1047.26" r="14.65"/>
		<path class="st1" d="M227.97,1033.8h245.44c1.56,0,2.82-1.26,2.82-2.82v-14.52c0-1.56-1.26-2.82-2.82-2.82H227.97
			c-1.56,0-2.82,1.26-2.82,2.82v14.52C225.15,1032.54,226.41,1033.8,227.97,1033.8z"/>
		<rect x="463.62" y="679.43" class="st3" width="16.56" height="384.47"/>
		<rect x="904.07" y="679.43" class="st3" width="16.56" height="384.47"/>
		<rect x="922.19" y="679.43" class="st3" width="16.56" height="384.47"/>
		<path class="st1" d="M1061.63,1071.38H138.37c-2,0-3.62-1.62-3.62-3.62v-3.26c0-2,1.62-3.62,3.62-3.62h923.25
			c2,0,3.62,1.62,3.62,3.62v3.26C1065.24,1069.77,1063.62,1071.38,1061.63,1071.38z"/>
		<path class="st1" d="M390.5,464.33c0,0,56-16.58,93.09,3.2s16.76,47.53,8.79,48.08c-7.97,0.55-19.23,2.75-47.25,2.2
			c-28.02-0.55-53.85-5.77-55.77-15.11C387.43,493.36,390.54,463.06,390.5,464.33z"/>
	</g>
</g>
</svg>
