<?xml version="1.0" encoding="utf-8"?>
<!--Designed by Vexels.com - 2017 All Rights Reserved - https://vexels.com/terms-and-conditions/-->
<svg version="1.1" id="Layer_1" xmlns="http://www.w3.org/2000/svg" xmlns:xlink="http://www.w3.org/1999/xlink" x="0px" y="0px"
	 viewBox="0 0 1200 1200" enable-background="new 0 0 1200 1200" xml:space="preserve">
<g>
	<g>
		<g>
			<path fill="#FFFFFF" d="M754.903,217.57c117.656,166.216,78.273,396.337-87.943,513.981
				c-166.208,117.648-396.314,78.277-513.973-87.931C35.342,477.4,74.714,247.287,240.914,129.639
				C407.126,11.999,637.259,51.366,754.903,217.57z"/>
		</g>
		<g>
			<path fill="#315934" d="M454.474,811.188c-119.462,0.008-237.164-55.924-311.287-160.631
				C21.908,479.202,62.636,241.123,233.976,119.84C405.331-1.447,643.414,39.284,764.701,210.632l0,0
				c58.758,83.006,81.67,183.926,64.519,284.169C812.065,595.04,756.904,682.6,673.897,741.35
				C607.26,788.519,530.503,811.181,454.474,811.188z M453.45,74.008c-71.249,0-143.148,21.231-205.599,65.43
				c-160.533,113.638-198.692,336.7-85.066,497.245c113.642,160.537,336.704,198.692,497.237,85.07
				c77.773-55.048,129.456-137.085,145.524-231.004c16.072-93.915-5.394-188.471-60.442-266.24l0,0
				C675.668,126.414,565.368,74.008,453.45,74.008z"/>
		</g>
	</g>
	<g>
		<g>
			<path fill="#85F1BE" d="M682.93,268.522c89.506,126.454,59.559,301.543-66.907,391.068
				c-126.466,89.51-301.55,59.547-391.064-66.915c-89.518-126.462-59.563-301.539,66.903-391.068
				C418.336,112.097,593.424,142.056,682.93,268.522z"/>
		</g>
		<g>
			<path fill="#315934" d="M454.357,723.05c-91.793,0.004-182.245-42.979-239.197-123.437
				c-93.196-131.656-61.9-314.597,69.764-407.805c131.68-93.2,314.621-61.884,407.809,69.776s61.892,314.601-69.772,407.805
				C571.755,705.633,512.782,723.046,454.357,723.05z M453.571,162.154c-53.637,0-107.759,15.978-154.772,49.256
				c-120.857,85.555-149.585,253.479-64.042,374.328c85.551,120.857,253.475,149.589,374.328,64.054
				c120.857-85.555,149.585-253.479,64.046-374.332c0,0,0,0-0.004,0C620.862,201.611,537.824,162.154,453.571,162.154z"/>
		</g>
	</g>
	<g>
		<path fill="#FFFFFF" d="M440.837,449.376c6.602-44.585-0.414-193.596-90.808-178.098
			c-90.378,15.494-112.028,187.264-48.342,252.353C365.39,588.712,433.939,495.977,440.837,449.376z"/>
	</g>
	<g>
		<path fill="#FFFFFF" d="M505.864,544.366c-27.981-38.015-77.413,15.138-79.266,56.119
			C424.746,641.447,563.441,622.592,505.864,544.366z"/>
	</g>
	<g>
		<path fill="#315934" d="M748.153,652.965c0,0,399.624,301.379,377.619,427.887c-26.938,154.951-257.247,52.938-470.538-341.003
			L748.153,652.965z"/>
	</g>
</g>
</svg>
