<?xml version="1.0" encoding="UTF-8" standalone="no"?>
<!--Designed by Vexels.com - 2018 All Rights Reserved - https://vexels.com/terms-and-conditions/-->

<svg
   xmlns:dc="http://purl.org/dc/elements/1.1/"
   xmlns:cc="http://creativecommons.org/ns#"
   xmlns:rdf="http://www.w3.org/1999/02/22-rdf-syntax-ns#"
   xmlns:svg="http://www.w3.org/2000/svg"
   xmlns="http://www.w3.org/2000/svg"
   xmlns:xlink="http://www.w3.org/1999/xlink"
   xmlns:sodipodi="http://sodipodi.sourceforge.net/DTD/sodipodi-0.dtd"
   xmlns:inkscape="http://www.inkscape.org/namespaces/inkscape"
   version="1.1"
   id="Layer_1"
   x="0px"
   y="0px"
   width="1200px"
   height="1200px"
   viewBox="0 0 1200 1200"
   enable-background="new 0 0 1200 1200"
   xml:space="preserve"
   sodipodi:docname="love-sound-wave-headphones-icon-by-Vexels.svg"
   inkscape:version="0.92.3 (2405546, 2018-03-11)"><metadata
   id="metadata139"><rdf:RDF><cc:Work
       rdf:about=""><dc:format>image/svg+xml</dc:format><dc:type
         rdf:resource="http://purl.org/dc/dcmitype/StillImage" /></cc:Work></rdf:RDF></metadata><defs
   id="defs137">
	
	
	
	
</defs><sodipodi:namedview
   pagecolor="#ffffff"
   bordercolor="#666666"
   borderopacity="1"
   objecttolerance="10"
   gridtolerance="10"
   guidetolerance="10"
   inkscape:pageopacity="0"
   inkscape:pageshadow="2"
   inkscape:window-width="2116"
   inkscape:window-height="1292"
   id="namedview135"
   showgrid="false"
   inkscape:zoom="0.19666667"
   inkscape:cx="610.16949"
   inkscape:cy="600"
   inkscape:window-x="0"
   inkscape:window-y="0"
   inkscape:window-maximized="0"
   inkscape:current-layer="Layer_1" />
<g
   id="g42">
		<g
   id="g4">
			<path
   style="fill:#ef3d46"
   inkscape:connector-curvature="0"
   id="path2"
   d="m 909.54,838.156 h -22.467 c -12.51,0 -39.092,-9.135 -59.242,-20.365 l -22.172,-12.354 c -19.396,-10.809 -40.901,-15.184 -46.953,-9.563 -2.019,1.878 -4.73,2.68 -7.861,2.32 -7.209,-0.819 -15.872,-7.508 -22.607,-17.45 -5.565,-8.215 -11.867,-12.769 -16.861,-12.173 -2.889,0.344 -5.146,2.476 -6.528,6.16 -2.031,5.42 -4.507,6.42 -6.205,6.319 -3.997,-0.253 -7.814,-6.841 -10.476,-18.075 -1.598,-6.752 -4.068,-10.696 -6.762,-10.817 -3.626,-0.174 -7.95,6.087 -11.496,16.719 -3.293,9.878 -9.662,16.604 -17.942,18.944 -8.781,2.477 -18.918,-0.386 -27.816,-7.857 l -19.496,-16.377 c -17.237,-14.482 -45.021,-14.164 -61.924,0.713 l -20.745,18.252 c -8.53,7.508 -18.334,10.476 -27.607,8.355 -9.276,-2.115 -16.819,-9.046 -21.25,-19.507 l -4.188,-9.907 c -4.064,-9.6 -9.444,-15.089 -14.791,-15.089 -0.05,0 -0.101,0 -0.147,0.003 -5.397,0.101 -10.626,5.805 -14.354,15.646 l -12.13,32.023 c -5.604,14.793 -13.96,24.96 -21.804,26.537 -3.525,0.707 -6.773,-0.381 -9.392,-3.146 -3.537,-3.726 -8.288,-5.712 -13.47,-5.618 -5.896,0.121 -11.727,2.998 -16,7.891 -8.866,10.154 -29.697,18.414 -46.438,18.414 h -29.953 c -0.495,0 -0.894,-0.398 -0.894,-0.893 0,-0.492 0.398,-0.891 0.894,-0.891 h 29.953 c 16.295,0 36.521,-7.985 45.093,-17.804 4.604,-5.271 10.912,-8.371 17.306,-8.501 5.651,-0.115 10.918,2.078 14.801,6.178 2.207,2.326 4.816,3.207 7.749,2.618 7.136,-1.433 15.18,-11.413 20.486,-25.421 l 12.129,-32.022 c 4.059,-10.712 9.736,-16.678 15.988,-16.796 0.064,-0.003 0.127,-0.003 0.188,-0.003 6.185,0 12.009,5.733 16.427,16.18 l 4.189,9.903 c 4.2,9.922 11.304,16.479 20.002,18.465 8.701,1.986 17.945,-0.84 26.033,-7.956 l 20.743,-18.255 c 17.538,-15.434 46.366,-15.767 64.255,-0.736 L 625.3,778.6 c 8.56,7.191 17.862,9.854 26.181,7.504 7.693,-2.172 13.636,-8.488 16.736,-17.791 3.927,-11.773 8.622,-18.125 13.265,-17.937 2.553,0.114 6.084,2.319 8.422,12.188 2.867,12.1 6.558,16.563 8.854,16.707 1.583,0.1 3.133,-1.736 4.418,-5.164 2.063,-5.5 5.482,-7.01 7.988,-7.307 5.674,-0.67 12.602,4.164 18.55,12.945 6.352,9.379 14.727,15.926 21.332,16.678 2.635,0.304 4.799,-0.324 6.446,-1.854 6.688,-6.209 28.681,-2.031 49.034,9.309 l 22.172,12.355 c 19.929,11.104 46.118,20.139 58.375,20.139 h 22.467 c 0.495,0 0.893,0.398 0.893,0.891 0,0.495 -0.398,0.893 -0.893,0.893 z" />
		</g>
		<g
   id="g8">
			<path
   style="fill:#ef3d46"
   inkscape:connector-curvature="0"
   id="path6"
   d="m 909.54,838.434 h -22.467 c -12.489,0 -39.033,-7.098 -59.162,-15.826 l -22.175,-9.609 c -19.446,-8.428 -41.022,-11.832 -47.115,-7.431 -6.788,4.901 -20.389,-0.39 -30.319,-11.788 -5.736,-6.588 -12.209,-10.113 -17.317,-9.426 -2.732,0.368 -4.863,1.992 -6.169,4.698 -2.09,4.336 -4.569,5.087 -6.288,4.958 -3.929,-0.304 -7.702,-5.459 -10.346,-14.148 -1.589,-5.212 -3.965,-8.162 -6.691,-8.313 -3.731,-0.221 -8.05,4.634 -11.604,12.934 -3.007,7.01 -8.654,12.077 -15.905,14.27 -9.227,2.789 -20.067,0.761 -29.742,-5.562 l -19.495,-12.737 c -17.291,-11.298 -45.152,-11.051 -62.101,0.552 l -20.743,14.198 c -9.04,6.188 -19.746,8.406 -29.373,6.09 -8.38,-2.016 -15.257,-7.283 -19.359,-14.823 l -4.192,-7.705 c -4.168,-7.664 -9.497,-11.796 -15.059,-11.69 -5.478,0.124 -10.556,4.424 -14.303,12.115 l -12.129,24.907 c -5.368,11.015 -13.392,18.882 -20.946,20.533 -3.809,0.831 -7.315,0.047 -10.134,-2.271 -7.935,-6.514 -21.229,-5.724 -29.63,1.764 -8.86,7.891 -29.656,14.311 -46.36,14.311 h -29.953 c -0.495,0 -0.894,-0.398 -0.894,-0.891 0,-0.493 0.398,-0.893 0.894,-0.893 h 29.953 c 16.33,0 36.592,-6.217 45.173,-13.857 9.031,-8.047 23.36,-8.86 31.946,-1.813 2.417,1.986 5.32,2.627 8.628,1.904 7.03,-1.535 14.585,-9.035 19.72,-19.569 l 12.129,-24.907 c 4.054,-8.321 9.687,-12.979 15.867,-13.117 0.092,-0.003 0.188,-0.003 0.283,-0.003 6.14,0 11.95,4.472 16.383,12.624 l 4.191,7.703 c 3.858,7.095 10.326,12.047 18.208,13.941 9.138,2.199 19.324,0.077 27.949,-5.827 l 20.742,-14.198 c 17.494,-11.971 46.243,-12.23 64.082,-0.572 l 19.498,12.736 c 9.235,6.034 19.531,7.986 28.25,5.348 6.738,-2.037 11.988,-6.748 14.78,-13.262 3.923,-9.155 8.798,-14.248 13.347,-14.013 2.496,0.136 5.963,1.909 8.297,9.573 2.81,9.221 6.373,12.705 8.775,12.891 2.09,0.165 3.635,-2.063 4.549,-3.956 1.573,-3.271 4.18,-5.241 7.533,-5.688 5.707,-0.77 12.77,2.977 18.9,10.021 9.186,10.541 21.972,15.811 27.932,11.511 6.65,-4.805 28.575,-1.557 48.866,7.242 l 22.178,9.609 c 19.944,8.646 46.166,15.679 58.452,15.679 h 22.467 c 0.495,0 0.893,0.4 0.893,0.893 0,0.493 -0.399,0.89 -0.894,0.89 z" />
		</g>
		<g
   id="g12">
			<path
   style="fill:#ef3d46"
   inkscape:connector-curvature="0"
   id="path10"
   d="m 909.54,838.711 h -22.467 c -12.463,0 -38.965,-5.067 -59.071,-11.293 l -22.172,-6.861 c -19.513,-6.041 -41.178,-8.469 -47.321,-5.301 -6.709,3.461 -20.215,-0.318 -30.098,-8.424 -5.945,-4.875 -12.861,-7.434 -18.049,-6.68 -2.481,0.365 -4.421,1.486 -5.612,3.252 -2.184,3.238 -4.719,3.725 -6.455,3.557 -3.803,-0.365 -7.479,-4.073 -10.081,-10.178 -1.548,-3.631 -3.809,-5.65 -6.532,-5.839 -3.796,-0.254 -8.247,3.171 -11.855,9.185 -7.109,11.85 -27.51,14.67 -45.476,6.284 l -19.496,-9.099 c -17.355,-8.098 -45.311,-7.921 -62.324,0.397 l -20.742,10.14 c -17.586,8.599 -39.366,5.78 -48.548,-6.278 l -4.188,-5.5 c -4.203,-5.521 -9.627,-8.501 -15.298,-8.33 -5.472,0.142 -10.515,3.201 -14.208,8.618 L 427.42,814.15 c -8.386,12.301 -22.248,18.172 -30.905,13.1 -7.997,-4.689 -21.392,-4.123 -29.856,1.262 -8.838,5.621 -29.583,10.199 -46.243,10.199 h -29.953 c -0.495,0 -0.894,-0.401 -0.894,-0.894 0,-0.493 0.398,-0.894 0.894,-0.894 h 29.953 c 16.371,0 36.689,-4.447 45.288,-9.918 8.973,-5.707 23.2,-6.287 31.716,-1.295 7.864,4.613 20.66,-1.025 28.527,-12.565 l 12.13,-17.788 c 4.023,-5.902 9.576,-9.238 15.634,-9.398 6.211,-0.158 12.2,3.043 16.761,9.032 l 4.188,5.503 c 8.698,11.414 29.488,13.998 46.346,5.757 l 20.742,-10.143 c 17.433,-8.524 46.08,-8.708 63.863,-0.409 l 19.493,9.099 c 17.167,8.012 36.544,5.503 43.197,-5.589 4.018,-6.697 8.949,-10.354 13.506,-10.043 3.39,0.233 6.246,2.689 8.05,6.919 2.303,5.403 5.524,8.804 8.607,9.099 1.813,0.174 3.464,-0.789 4.811,-2.779 1.477,-2.188 3.841,-3.578 6.829,-4.015 5.663,-0.828 13.117,1.878 19.44,7.06 9.223,7.566 22.116,11.334 28.146,8.221 6.603,-3.407 28.433,-1.082 48.665,5.183 l 22.173,6.862 c 19.97,6.181 46.233,11.209 58.546,11.209 h 22.467 c 0.495,0 0.893,0.401 0.893,0.894 0,0.493 -0.399,0.892 -0.894,0.892 z" />
		</g>
		<g
   id="g16">
			<path
   style="fill:#ef3d46"
   inkscape:connector-curvature="0"
   id="path14"
   d="m 909.54,838.988 h -22.467 c -12.434,0 -38.892,-3.037 -58.971,-6.769 l -22.175,-4.118 c -19.581,-3.637 -41.367,-5.088 -47.566,-3.168 -6.608,2.043 -19.97,-0.219 -29.779,-5.044 -9.183,-4.516 -20.162,-5.471 -23.977,-2.075 -1.836,1.631 -4.268,2.367 -6.835,2.075 -3.537,-0.401 -6.992,-2.629 -9.462,-6.107 -1.438,-2.024 -3.57,-3.21 -6.167,-3.428 -4.023,-0.333 -8.678,1.712 -12.444,5.482 -7.087,7.086 -27.372,8.784 -45.211,3.79 l -19.499,-5.461 c -17.429,-4.882 -45.508,-4.772 -62.596,0.241 l -20.748,6.084 c -17.462,5.123 -39.104,3.435 -48.247,-3.767 l -4.188,-3.302 c -8.616,-6.788 -21.989,-6.715 -29.807,0.165 l -12.13,10.676 c -8.345,7.34 -22.065,10.875 -30.599,7.871 -8.092,-2.848 -21.624,-2.506 -30.175,0.76 -8.802,3.357 -29.477,6.094 -46.084,6.094 H 290.46 c -0.495,0 -0.894,-0.398 -0.894,-0.895 0,-0.492 0.398,-0.89 0.894,-0.89 h 29.953 c 16.425,0 36.813,-2.683 45.444,-5.978 8.89,-3.396 22.971,-3.74 31.406,-0.775 7.982,2.809 20.92,-0.566 28.825,-7.525 l 12.136,-10.676 c 8.43,-7.422 22.826,-7.525 32.088,-0.228 l 4.191,3.302 c 8.736,6.883 29.665,8.436 46.641,3.455 l 20.742,-6.088 c 17.358,-5.088 45.88,-5.199 63.583,-0.241 l 19.496,5.459 c 17.291,4.84 36.789,3.345 43.469,-3.334 4.133,-4.136 9.323,-6.384 13.859,-5.995 3.137,0.262 5.719,1.703 7.47,4.168 2.178,3.065 5.17,5.022 8.209,5.37 2.09,0.239 3.974,-0.33 5.444,-1.636 4.377,-3.895 16.018,-3.083 25.951,1.804 9.459,4.657 22.228,6.874 28.468,4.943 6.538,-2.024 28.256,-0.625 48.418,3.118 l 22.172,4.121 c 19.997,3.711 46.302,6.735 58.646,6.735 h 22.467 c 0.495,0 0.893,0.397 0.893,0.89 0.002,0.499 -0.396,0.897 -0.891,0.897 z" />
		</g>
		<g
   id="g20">
			<path
   style="fill:#ef3d46"
   inkscape:connector-curvature="0"
   id="path18"
   d="m 909.54,839.265 h -22.467 c -12.407,0 -38.812,-1.011 -58.864,-2.252 l -22.172,-1.374 c -20,-1.238 -41.468,-1.709 -47.847,-1.052 -6.487,0.669 -19.66,-0.079 -29.361,-1.669 -9.364,-1.538 -20.606,-1.845 -24.563,-0.672 -4.307,1.273 -11.313,0.672 -15.61,-1.344 -3.882,-1.822 -12.729,-1.51 -19.313,0.687 -6.977,2.325 -27.029,2.877 -44.697,1.229 l -19.499,-1.822 c -17.521,-1.633 -45.744,-1.598 -62.923,0.08 l -20.739,2.031 c -17.314,1.691 -38.735,1.141 -47.761,-1.229 l -4.188,-1.1 c -8.808,-2.313 -22.479,-2.287 -30.473,0.056 l -12.13,3.561 c -8.227,2.412 -21.715,3.579 -30.068,2.598 -8.203,-0.964 -21.919,-0.85 -30.573,0.254 -8.748,1.111 -29.329,2.019 -45.877,2.019 h -29.953 c -0.495,0 -0.894,-0.401 -0.894,-0.894 0,-0.493 0.398,-0.89 0.894,-0.89 h 29.953 c 16.483,0 36.964,-0.901 45.653,-2.007 8.772,-1.117 22.685,-1.232 31.003,-0.257 8.159,0.954 21.329,-0.181 29.361,-2.535 l 12.13,-3.558 c 8.259,-2.424 22.354,-2.455 31.425,-0.074 l 4.194,1.103 c 8.849,2.323 29.995,2.854 47.127,1.179 l 20.742,-2.03 c 17.271,-1.688 45.646,-1.725 63.265,-0.079 l 19.493,1.818 c 17.465,1.63 37.19,1.117 43.973,-1.145 7.071,-2.357 16.324,-2.632 20.634,-0.609 3.894,1.827 10.467,2.396 14.346,1.246 4.235,-1.256 15.613,-0.975 25.358,0.623 9.574,1.57 22.531,2.313 28.89,1.656 6.461,-0.666 28.056,-0.197 48.141,1.047 l 22.172,1.373 c 20.018,1.238 46.379,2.249 58.753,2.249 h 22.467 c 0.495,0 0.893,0.397 0.893,0.89 0,0.493 -0.4,0.893 -0.895,0.893 z" />
		</g>
		<g
   id="g24">
			<path
   style="fill:#ef3d46"
   inkscape:connector-curvature="0"
   id="path22"
   d="m 454.154,849.734 c -5.754,0 -11.419,-0.613 -15.593,-1.839 l -12.13,-3.558 c -8.032,-2.355 -21.202,-3.49 -29.361,-2.535 -8.318,0.976 -22.225,0.86 -31.003,-0.26 -8.689,-1.102 -29.17,-2.004 -45.653,-2.004 h -29.953 c -0.495,0 -0.894,-0.398 -0.894,-0.891 0,-0.493 0.398,-0.891 0.894,-0.891 h 29.953 c 16.548,0 37.129,0.906 45.877,2.017 8.657,1.103 22.376,1.218 30.573,0.254 8.356,-0.976 21.848,0.188 30.068,2.6 l 12.13,3.555 c 7.994,2.347 21.662,2.376 30.473,0.06 l 4.188,-1.1 c 9.022,-2.367 30.446,-2.922 47.761,-1.229 l 20.739,2.028 c 17.179,1.68 45.405,1.715 62.923,0.079 l 19.499,-1.815 c 17.665,-1.65 37.721,-1.1 44.697,1.229 6.588,2.193 15.432,2.506 19.313,0.684 4.298,-2.016 11.301,-2.617 15.61,-1.34 3.953,1.17 15.204,0.863 24.563,-0.676 9.701,-1.588 22.874,-2.338 29.361,-1.668 6.385,0.657 27.847,0.188 47.847,-1.053 l 22.172,-1.373 c 20.059,-1.241 46.463,-2.25 58.864,-2.25 h 22.467 c 0.495,0 0.893,0.398 0.893,0.891 0,0.493 -0.397,0.891 -0.893,0.891 h -22.467 c -12.368,0 -38.727,1.008 -58.753,2.248 l -22.172,1.375 c -20.079,1.243 -41.674,1.712 -48.141,1.046 -6.358,-0.657 -19.318,0.089 -28.89,1.656 -9.748,1.598 -21.126,1.878 -25.358,0.622 -3.885,-1.152 -10.452,-0.58 -14.346,1.247 -4.31,2.022 -13.563,1.747 -20.634,-0.607 -6.782,-2.264 -26.511,-2.776 -43.973,-1.146 l -19.493,1.818 c -17.612,1.646 -45.988,1.609 -63.265,-0.083 l -20.742,-2.024 c -17.132,-1.677 -38.278,-1.149 -47.127,1.177 l -4.194,1.102 c -4.481,1.177 -10.2,1.763 -15.83,1.763 z" />
		</g>
		<g
   id="g28">
			<path
   style="fill:#ef3d46"
   inkscape:connector-curvature="0"
   id="path26"
   d="m 454.151,870.406 c -5.875,0 -11.664,-1.883 -15.926,-5.636 l -12.136,-10.673 c -7.905,-6.96 -20.843,-10.341 -28.825,-7.529 -8.43,2.966 -22.517,2.621 -31.406,-0.775 -8.631,-3.295 -29.02,-5.977 -45.444,-5.977 h -29.953 c -0.495,0 -0.894,-0.398 -0.894,-0.891 0,-0.495 0.398,-0.893 0.894,-0.893 h 29.953 c 16.607,0 37.282,2.734 46.084,6.096 8.551,3.262 22.083,3.602 30.175,0.757 8.533,-3.001 22.254,0.53 30.599,7.87 l 12.13,10.674 c 7.82,6.883 21.19,6.956 29.807,0.168 l 4.188,-3.302 c 9.144,-7.201 30.785,-8.89 48.247,-3.767 l 20.748,6.086 c 17.088,5.012 45.167,5.117 62.596,0.239 l 19.499,-5.459 c 17.842,-4.996 38.124,-3.298 45.211,3.79 3.767,3.768 8.43,5.813 12.444,5.478 2.597,-0.218 4.729,-1.4 6.167,-3.423 2.47,-3.48 5.925,-5.709 9.462,-6.109 2.564,-0.293 4.999,0.444 6.835,2.074 3.814,3.393 14.794,2.443 23.977,-2.074 9.81,-4.826 23.174,-7.087 29.779,-5.044 6.202,1.919 27.985,0.469 47.566,-3.169 l 22.175,-4.121 c 20.085,-3.729 46.54,-6.764 58.971,-6.764 h 22.467 c 0.495,0 0.893,0.397 0.893,0.893 0,0.492 -0.397,0.891 -0.893,0.891 h -22.467 c -12.342,0 -38.649,3.023 -58.646,6.738 l -22.172,4.114 c -20.159,3.747 -41.88,5.146 -48.418,3.122 -6.24,-1.928 -19.009,0.285 -28.468,4.939 -9.934,4.891 -21.574,5.698 -25.951,1.811 -1.471,-1.309 -3.354,-1.878 -5.444,-1.639 -3.039,0.344 -6.031,2.302 -8.209,5.37 -1.751,2.464 -4.333,3.905 -7.47,4.171 -4.536,0.377 -9.727,-1.863 -13.859,-5.998 -6.68,-6.68 -26.181,-8.174 -43.469,-3.334 l -19.496,5.459 c -17.703,4.957 -46.225,4.849 -63.583,-0.245 l -20.742,-6.083 c -16.981,-4.979 -37.904,-3.432 -46.641,3.454 L 470.313,865 c -4.581,3.605 -10.411,5.403 -16.162,5.406 z" />
		</g>
		<g
   id="g32">
			<path
   style="fill:#ef3d46"
   inkscape:connector-curvature="0"
   id="path30"
   d="m 454.163,891.066 c -0.15,0 -0.304,0 -0.454,-0.006 -6.058,-0.156 -11.61,-3.496 -15.634,-9.396 l -12.13,-17.789 c -7.87,-11.541 -20.663,-17.176 -28.527,-12.566 -8.516,4.996 -22.743,4.412 -31.716,-1.294 -8.599,-5.471 -28.917,-9.922 -45.288,-9.922 h -29.953 c -0.495,0 -0.894,-0.397 -0.894,-0.89 0,-0.496 0.398,-0.894 0.894,-0.894 h 29.953 c 16.66,0 37.405,4.575 46.243,10.198 8.465,5.389 21.859,5.951 29.856,1.262 8.657,-5.075 22.52,0.799 30.905,13.097 l 12.127,17.792 c 3.693,5.415 8.736,8.478 14.208,8.619 5.642,0.139 11.095,-2.809 15.298,-8.327 l 4.188,-5.503 c 9.188,-12.059 30.962,-14.874 48.548,-6.279 l 20.742,10.141 c 17.014,8.318 44.969,8.494 62.324,0.395 l 19.496,-9.096 c 17.966,-8.387 38.366,-5.566 45.476,6.283 3.608,6.014 8.086,9.451 11.855,9.183 2.724,-0.187 4.984,-2.205 6.532,-5.833 2.603,-6.107 6.278,-9.816 10.081,-10.182 1.742,-0.165 4.271,0.318 6.455,3.558 1.191,1.763 3.131,2.886 5.612,3.251 5.188,0.761 12.104,-1.804 18.049,-6.676 9.883,-8.109 23.389,-11.889 30.098,-8.424 6.141,3.165 27.809,0.739 47.321,-5.304 L 828,849.602 c 20.109,-6.225 46.614,-11.292 59.071,-11.292 h 22.467 c 0.495,0 0.893,0.397 0.893,0.894 0,0.492 -0.397,0.89 -0.893,0.89 h -22.467 c -12.313,0 -38.573,5.028 -58.546,11.213 l -22.173,6.862 c -20.232,6.267 -42.063,8.59 -48.665,5.182 -6.033,-3.109 -18.921,0.651 -28.146,8.219 -6.323,5.184 -13.777,7.887 -19.437,7.063 -2.992,-0.438 -5.356,-1.828 -6.833,-4.016 -1.341,-1.992 -3.007,-2.95 -4.811,-2.779 -3.083,0.295 -6.305,3.696 -8.607,9.1 -1.804,4.229 -4.66,6.686 -8.05,6.918 -4.563,0.315 -9.488,-3.346 -13.506,-10.043 -6.653,-11.092 -26.033,-13.598 -43.197,-5.586 l -19.493,9.097 c -17.78,8.298 -46.425,8.115 -63.863,-0.409 l -20.742,-10.141 c -16.857,-8.241 -37.647,-5.662 -46.346,5.754 l -4.188,5.506 c -4.447,5.837 -10.221,9.032 -16.305,9.032 z" />
		</g>
		<g
   id="g36">
			<path
   style="fill:#ef3d46"
   inkscape:connector-curvature="0"
   id="path34"
   d="m 454.16,911.732 c -0.095,0 -0.191,0 -0.283,-0.004 -6.181,-0.138 -11.813,-4.795 -15.867,-13.113 l -12.129,-24.908 c -5.135,-10.537 -12.689,-18.039 -19.72,-19.572 -3.302,-0.725 -6.208,-0.082 -8.628,1.904 -8.586,7.049 -22.915,6.234 -31.946,-1.809 -8.581,-7.645 -28.843,-13.86 -45.173,-13.86 h -29.953 c -0.495,0 -0.894,-0.401 -0.894,-0.894 0,-0.493 0.398,-0.89 0.894,-0.89 h 29.953 c 16.704,0 37.5,6.42 46.36,14.311 8.401,7.487 21.695,8.276 29.63,1.763 2.818,-2.316 6.325,-3.104 10.134,-2.267 7.555,1.647 15.578,9.518 20.946,20.53 l 12.129,24.907 c 3.747,7.69 8.825,11.991 14.303,12.114 5.538,0.143 10.891,-4.025 15.059,-11.689 l 4.192,-7.705 c 4.103,-7.541 10.979,-12.808 19.359,-14.826 9.621,-2.314 20.333,-0.096 29.373,6.092 l 20.743,14.199 c 16.948,11.602 44.81,11.85 62.101,0.551 l 19.495,-12.736 c 9.681,-6.322 20.521,-8.348 29.742,-5.563 7.251,2.193 12.898,7.26 15.905,14.27 3.555,8.301 7.929,13.126 11.604,12.934 2.727,-0.149 5.103,-3.104 6.691,-8.312 2.644,-8.69 6.417,-13.849 10.346,-14.149 1.725,-0.129 4.198,0.623 6.288,4.961 1.306,2.703 3.437,4.328 6.169,4.696 5.108,0.687 11.581,-2.836 17.317,-9.427 9.931,-11.401 23.531,-16.689 30.319,-11.785 6.09,4.398 27.669,0.997 47.115,-7.434 l 22.175,-9.609 c 20.132,-8.728 46.673,-15.825 59.162,-15.825 h 22.467 c 0.495,0 0.893,0.397 0.893,0.89 0,0.493 -0.397,0.894 -0.893,0.894 h -22.467 c -12.286,0 -38.508,7.032 -58.452,15.679 l -22.178,9.609 c -20.291,8.799 -42.213,12.047 -48.866,7.242 -5.96,-4.304 -18.749,0.973 -27.932,11.514 -6.131,7.041 -13.205,10.793 -18.9,10.021 -3.354,-0.451 -5.96,-2.42 -7.533,-5.691 -0.914,-1.893 -2.436,-4.121 -4.549,-3.953 -2.402,0.183 -5.966,3.666 -8.775,12.887 -2.334,7.667 -5.801,9.438 -8.297,9.574 -4.578,0.242 -9.424,-4.857 -13.347,-14.014 -2.792,-6.514 -8.042,-11.225 -14.78,-13.264 -8.716,-2.633 -19.015,-0.684 -28.25,5.35 l -19.498,12.736 c -17.839,11.658 -46.588,11.402 -64.082,-0.574 L 520.89,883.288 c -8.625,-5.9 -18.809,-8.025 -27.949,-5.827 -7.882,1.898 -14.35,6.851 -18.208,13.942 l -4.191,7.705 c -4.432,8.153 -10.242,12.624 -16.382,12.624 z" />
		</g>
		<g
   id="g40">
			<path
   style="fill:#ef3d46"
   inkscape:connector-curvature="0"
   id="path38"
   d="m 454.154,932.398 c -0.062,0 -0.124,0 -0.188,0 -6.252,-0.121 -11.93,-6.088 -15.988,-16.799 l -12.129,-32.023 c -5.307,-14.01 -13.351,-23.984 -20.486,-25.42 -2.938,-0.59 -5.542,0.291 -7.749,2.62 -3.883,4.097 -9.114,6.29 -14.801,6.175 -6.394,-0.129 -12.701,-3.227 -17.306,-8.5 -8.571,-9.818 -28.798,-17.805 -45.093,-17.805 h -29.953 c -0.495,0 -0.894,-0.4 -0.894,-0.893 0,-0.493 0.398,-0.893 0.894,-0.893 h 29.953 c 16.74,0 37.571,8.262 46.438,18.416 4.273,4.894 10.104,7.77 16,7.891 5.155,0.104 9.933,-1.893 13.47,-5.621 2.618,-2.762 5.86,-3.85 9.392,-3.139 7.844,1.576 16.2,11.743 21.804,26.535 l 12.13,32.022 c 3.729,9.839 8.957,15.543 14.354,15.649 0.047,0 0.098,0 0.147,0 5.347,0 10.727,-5.486 14.791,-15.09 l 4.188,-9.904 c 4.431,-10.467 11.974,-17.394 21.25,-19.51 9.273,-2.116 19.077,0.85 27.607,8.356 l 20.745,18.255 c 16.902,14.873 44.687,15.195 61.924,0.711 l 19.496,-16.377 c 8.898,-7.473 19.035,-10.338 27.816,-7.859 8.28,2.338 14.649,9.067 17.942,18.945 3.546,10.631 7.806,16.871 11.496,16.719 2.693,-0.121 5.164,-4.063 6.762,-10.818 2.661,-11.233 6.479,-17.821 10.476,-18.074 1.698,-0.112 4.174,0.898 6.205,6.319 1.382,3.688 3.64,5.818 6.528,6.161 4.997,0.589 11.296,-3.959 16.861,-12.174 6.735,-9.945 15.398,-16.631 22.607,-17.451 3.119,-0.359 5.843,0.443 7.861,2.317 6.058,5.627 27.558,1.25 46.953,-9.56 l 22.172,-12.354 c 20.15,-11.23 46.732,-20.367 59.242,-20.367 h 22.467 c 0.495,0 0.893,0.4 0.893,0.893 0,0.493 -0.397,0.893 -0.893,0.893 h -22.467 c -12.257,0 -38.446,9.035 -58.375,20.139 l -22.172,12.356 c -20.351,11.34 -42.346,15.517 -49.034,9.309 -1.647,-1.53 -3.817,-2.154 -6.446,-1.854 -6.605,0.752 -14.98,7.302 -21.332,16.678 -5.945,8.781 -12.869,13.627 -18.55,12.947 -2.506,-0.299 -5.925,-1.808 -7.988,-7.308 -1.282,-3.429 -2.835,-5.265 -4.418,-5.161 -2.297,0.145 -5.987,4.604 -8.854,16.703 -2.338,9.866 -5.869,12.074 -8.422,12.189 -4.596,0.183 -9.338,-6.164 -13.265,-17.937 -3.101,-9.303 -9.043,-15.62 -16.736,-17.792 -8.321,-2.352 -17.621,0.318 -26.181,7.508 l -19.496,16.374 c -17.889,15.03 -46.714,14.7 -64.255,-0.737 l -20.743,-18.254 c -8.088,-7.116 -17.332,-9.943 -26.033,-7.956 -8.698,1.987 -15.802,8.545 -20.002,18.464 l -4.189,9.906 c -4.417,10.447 -10.241,16.18 -16.426,16.18 z" />
		</g>
	</g><g
   id="g84">
		<g
   id="g46">
			<path
   style="fill:#5c74b8"
   inkscape:connector-curvature="0"
   id="path44"
   d="m 909.54,731.137 h -22.467 c -12.51,0 -39.092,-9.135 -59.242,-20.365 l -22.172,-12.354 c -19.396,-10.809 -40.901,-15.184 -46.953,-9.563 -2.019,1.878 -4.73,2.68 -7.861,2.32 -7.209,-0.819 -15.872,-7.508 -22.607,-17.45 -5.565,-8.215 -11.867,-12.769 -16.861,-12.174 -2.889,0.345 -5.146,2.476 -6.528,6.161 -2.031,5.42 -4.507,6.42 -6.205,6.319 -3.997,-0.253 -7.814,-6.841 -10.476,-18.075 -1.598,-6.753 -4.068,-10.697 -6.762,-10.817 -3.626,-0.174 -7.95,6.087 -11.496,16.719 -3.293,9.878 -9.662,16.604 -17.942,18.944 -8.781,2.477 -18.918,-0.386 -27.816,-7.858 l -19.496,-16.377 c -17.237,-14.481 -45.021,-14.163 -61.924,0.714 l -20.745,18.252 c -8.53,7.507 -18.334,10.475 -27.607,8.355 -9.276,-2.115 -16.819,-9.046 -21.25,-19.507 l -4.188,-9.907 c -4.064,-9.601 -9.444,-15.089 -14.791,-15.089 -0.05,0 -0.101,0 -0.147,0.003 -5.397,0.1 -10.626,5.804 -14.354,15.646 l -12.13,32.022 c -5.604,14.794 -13.96,24.961 -21.804,26.538 -3.525,0.707 -6.773,-0.381 -9.392,-3.146 -3.537,-3.726 -8.288,-5.712 -13.47,-5.618 -5.896,0.121 -11.727,2.998 -16,7.891 -8.866,10.154 -29.697,18.414 -46.438,18.414 h -29.953 c -0.495,0 -0.894,-0.398 -0.894,-0.893 0,-0.492 0.398,-0.891 0.894,-0.891 h 29.953 c 16.295,0 36.521,-7.985 45.093,-17.804 4.604,-5.271 10.912,-8.372 17.306,-8.501 5.651,-0.115 10.918,2.078 14.801,6.178 2.207,2.326 4.816,3.207 7.749,2.617 7.136,-1.432 15.18,-11.412 20.486,-25.42 l 12.129,-32.023 c 4.059,-10.711 9.736,-16.678 15.988,-16.795 0.064,-0.003 0.127,-0.003 0.188,-0.003 6.185,0 12.009,5.733 16.427,16.18 l 4.189,9.903 c 4.2,9.922 11.304,16.478 20.002,18.465 8.701,1.986 17.945,-0.84 26.033,-7.956 l 20.743,-18.255 c 17.538,-15.434 46.366,-15.767 64.255,-0.736 L 625.3,671.58 c 8.56,7.191 17.862,9.854 26.181,7.504 7.693,-2.172 13.636,-8.488 16.736,-17.791 3.927,-11.773 8.622,-18.125 13.265,-17.937 2.553,0.114 6.084,2.319 8.422,12.188 2.867,12.1 6.558,16.563 8.854,16.707 1.583,0.1 3.133,-1.736 4.418,-5.164 2.063,-5.5 5.482,-7.01 7.988,-7.308 5.674,-0.669 12.602,4.165 18.55,12.946 6.352,9.379 14.727,15.926 21.332,16.678 2.635,0.303 4.799,-0.324 6.446,-1.854 6.688,-6.209 28.681,-2.031 49.034,9.309 l 22.172,12.355 c 19.929,11.104 46.118,20.139 58.375,20.139 h 22.467 c 0.495,0 0.893,0.398 0.893,0.891 0,0.495 -0.398,0.894 -0.893,0.894 z" />
		</g>
		<g
   id="g50">
			<path
   style="fill:#5c74b8"
   inkscape:connector-curvature="0"
   id="path48"
   d="m 909.54,731.414 h -22.467 c -12.489,0 -39.033,-7.098 -59.162,-15.826 l -22.175,-9.609 c -19.446,-8.428 -41.022,-11.832 -47.115,-7.431 -6.788,4.901 -20.389,-0.39 -30.319,-11.788 -5.736,-6.588 -12.209,-10.113 -17.317,-9.426 -2.732,0.368 -4.863,1.992 -6.169,4.698 -2.09,4.336 -4.569,5.087 -6.288,4.958 -3.929,-0.304 -7.702,-5.459 -10.346,-14.148 -1.589,-5.212 -3.965,-8.162 -6.691,-8.313 -3.731,-0.221 -8.05,4.633 -11.604,12.934 -3.007,7.01 -8.654,12.076 -15.905,14.27 -9.227,2.789 -20.067,0.761 -29.742,-5.563 l -19.495,-12.736 c -17.291,-11.298 -45.152,-11.051 -62.101,0.551 l -20.743,14.199 c -9.04,6.188 -19.746,8.406 -29.373,6.09 -8.38,-2.016 -15.257,-7.283 -19.359,-14.823 l -4.192,-7.706 c -4.168,-7.663 -9.497,-11.796 -15.059,-11.689 -5.478,0.123 -10.556,4.424 -14.303,12.115 l -12.129,24.906 c -5.368,11.016 -13.392,18.883 -20.946,20.533 -3.809,0.832 -7.315,0.048 -10.134,-2.27 -7.935,-6.514 -21.229,-5.724 -29.63,1.764 -8.86,7.891 -29.656,14.311 -46.36,14.311 h -29.953 c -0.495,0 -0.894,-0.398 -0.894,-0.891 0,-0.493 0.398,-0.893 0.894,-0.893 h 29.953 c 16.33,0 36.592,-6.217 45.173,-13.857 9.031,-8.047 23.36,-8.86 31.946,-1.813 2.417,1.986 5.32,2.627 8.628,1.904 7.03,-1.536 14.585,-9.035 19.72,-19.569 l 12.129,-24.907 c 4.054,-8.322 9.687,-12.979 15.867,-13.117 0.092,-0.004 0.188,-0.004 0.283,-0.004 6.14,0 11.95,4.473 16.383,12.625 l 4.191,7.703 c 3.858,7.094 10.326,12.047 18.208,13.941 9.138,2.199 19.324,0.077 27.949,-5.827 l 20.742,-14.198 c 17.494,-11.971 46.243,-12.23 64.082,-0.572 l 19.498,12.736 c 9.235,6.034 19.531,7.985 28.25,5.348 6.738,-2.037 11.988,-6.748 14.78,-13.262 3.923,-9.155 8.798,-14.249 13.347,-14.014 2.496,0.137 5.963,1.91 8.297,9.574 2.81,9.221 6.373,12.705 8.775,12.891 2.09,0.164 3.635,-2.063 4.549,-3.956 1.573,-3.272 4.18,-5.241 7.533,-5.688 5.707,-0.77 12.77,2.977 18.9,10.021 9.186,10.541 21.972,15.811 27.932,11.511 6.65,-4.805 28.575,-1.557 48.866,7.242 l 22.178,9.609 c 19.944,8.646 46.166,15.679 58.452,15.679 h 22.467 c 0.495,0 0.893,0.4 0.893,0.893 0,0.493 -0.399,0.89 -0.894,0.89 z" />
		</g>
		<g
   id="g54">
			<path
   style="fill:#5c74b8"
   inkscape:connector-curvature="0"
   id="path52"
   d="m 909.54,731.691 h -22.467 c -12.463,0 -38.965,-5.067 -59.071,-11.293 l -22.172,-6.861 c -19.513,-6.041 -41.178,-8.469 -47.321,-5.301 -6.709,3.461 -20.215,-0.318 -30.098,-8.424 -5.945,-4.875 -12.861,-7.434 -18.049,-6.68 -2.481,0.365 -4.421,1.486 -5.612,3.252 -2.184,3.238 -4.719,3.725 -6.455,3.557 -3.803,-0.365 -7.479,-4.073 -10.081,-10.178 -1.548,-3.631 -3.809,-5.65 -6.532,-5.84 -3.796,-0.253 -8.247,3.172 -11.855,9.186 -7.109,11.85 -27.51,14.67 -45.476,6.284 l -19.496,-9.099 c -17.355,-8.098 -45.311,-7.921 -62.324,0.397 l -20.742,10.14 c -17.586,8.598 -39.366,5.78 -48.548,-6.278 l -4.188,-5.501 c -4.203,-5.521 -9.627,-8.5 -15.298,-8.33 -5.472,0.143 -10.515,3.201 -14.208,8.619 L 427.42,707.13 c -8.386,12.301 -22.248,18.172 -30.905,13.1 -7.997,-4.689 -21.392,-4.123 -29.856,1.262 -8.838,5.621 -29.583,10.199 -46.243,10.199 h -29.953 c -0.495,0 -0.894,-0.401 -0.894,-0.894 0,-0.493 0.398,-0.894 0.894,-0.894 h 29.953 c 16.371,0 36.689,-4.447 45.288,-9.918 8.973,-5.707 23.2,-6.287 31.716,-1.295 7.864,4.613 20.66,-1.025 28.527,-12.565 l 12.13,-17.789 c 4.023,-5.901 9.576,-9.237 15.634,-9.397 6.211,-0.158 12.2,3.043 16.761,9.032 l 4.188,5.503 c 8.698,11.414 29.488,13.998 46.346,5.757 l 20.742,-10.143 c 17.433,-8.524 46.08,-8.708 63.863,-0.409 l 19.493,9.099 c 17.167,8.012 36.544,5.503 43.197,-5.589 4.018,-6.697 8.949,-10.355 13.506,-10.043 3.39,0.233 6.246,2.689 8.05,6.918 2.303,5.404 5.524,8.805 8.607,9.1 1.813,0.174 3.464,-0.789 4.811,-2.779 1.477,-2.188 3.841,-3.578 6.829,-4.015 5.663,-0.828 13.117,1.878 19.44,7.06 9.223,7.566 22.116,11.334 28.146,8.221 6.603,-3.407 28.433,-1.082 48.665,5.182 l 22.173,6.863 c 19.97,6.181 46.233,11.209 58.546,11.209 h 22.467 c 0.495,0 0.893,0.401 0.893,0.894 0,0.493 -0.399,0.892 -0.894,0.892 z" />
		</g>
		<g
   id="g58">
			<path
   style="fill:#5c74b8"
   inkscape:connector-curvature="0"
   id="path56"
   d="m 909.54,731.968 h -22.467 c -12.434,0 -38.892,-3.036 -58.971,-6.768 l -22.175,-4.118 c -19.581,-3.637 -41.367,-5.088 -47.566,-3.168 -6.608,2.043 -19.97,-0.219 -29.779,-5.044 -9.183,-4.516 -20.162,-5.471 -23.977,-2.075 -1.836,1.631 -4.268,2.367 -6.835,2.075 -3.537,-0.401 -6.992,-2.63 -9.462,-6.107 -1.438,-2.024 -3.57,-3.21 -6.167,-3.429 -4.023,-0.332 -8.678,1.713 -12.444,5.483 -7.087,7.086 -27.372,8.784 -45.211,3.79 l -19.499,-5.461 c -17.429,-4.882 -45.508,-4.773 -62.596,0.241 l -20.748,6.084 c -17.462,5.123 -39.104,3.435 -48.247,-3.767 l -4.188,-3.302 c -8.616,-6.788 -21.989,-6.715 -29.807,0.165 l -12.13,10.676 c -8.345,7.34 -22.065,10.874 -30.599,7.871 -8.092,-2.848 -21.624,-2.506 -30.175,0.76 -8.802,3.357 -29.477,6.093 -46.084,6.093 H 290.46 c -0.495,0 -0.894,-0.397 -0.894,-0.894 0,-0.492 0.398,-0.89 0.894,-0.89 h 29.953 c 16.425,0 36.813,-2.683 45.444,-5.978 8.89,-3.396 22.971,-3.74 31.406,-0.775 7.982,2.809 20.92,-0.566 28.825,-7.525 l 12.136,-10.676 c 8.43,-7.423 22.826,-7.525 32.088,-0.228 l 4.191,3.302 c 8.736,6.883 29.665,8.436 46.641,3.454 l 20.742,-6.087 c 17.358,-5.088 45.88,-5.199 63.583,-0.242 l 19.496,5.46 c 17.291,4.84 36.789,3.345 43.469,-3.334 4.133,-4.136 9.323,-6.385 13.859,-5.995 3.137,0.262 5.719,1.703 7.47,4.168 2.178,3.064 5.17,5.022 8.209,5.37 2.09,0.239 3.974,-0.33 5.444,-1.636 4.377,-3.895 16.018,-3.084 25.951,1.804 9.459,4.657 22.228,6.874 28.468,4.943 6.538,-2.024 28.256,-0.625 48.418,3.118 l 22.172,4.121 c 19.997,3.711 46.302,6.735 58.646,6.735 h 22.467 c 0.495,0 0.893,0.397 0.893,0.89 0.002,0.498 -0.396,0.896 -0.891,0.896 z" />
		</g>
		<g
   id="g62">
			<path
   style="fill:#5c74b8"
   inkscape:connector-curvature="0"
   id="path60"
   d="m 909.54,732.245 h -22.467 c -12.407,0 -38.812,-1.011 -58.864,-2.252 l -22.172,-1.374 c -20,-1.238 -41.468,-1.709 -47.847,-1.053 -6.487,0.67 -19.66,-0.079 -29.361,-1.668 -9.364,-1.539 -20.606,-1.845 -24.563,-0.672 -4.307,1.273 -11.313,0.672 -15.61,-1.344 -3.882,-1.822 -12.729,-1.51 -19.313,0.687 -6.977,2.325 -27.029,2.877 -44.697,1.229 l -19.499,-1.822 c -17.521,-1.633 -45.744,-1.598 -62.923,0.08 l -20.739,2.031 c -17.314,1.691 -38.735,1.141 -47.761,-1.229 l -4.188,-1.1 c -8.808,-2.313 -22.479,-2.288 -30.473,0.056 l -12.13,3.561 c -8.227,2.412 -21.715,3.579 -30.068,2.598 -8.203,-0.965 -21.919,-0.85 -30.573,0.254 -8.748,1.11 -29.329,2.019 -45.877,2.019 h -29.953 c -0.495,0 -0.894,-0.401 -0.894,-0.894 0,-0.493 0.398,-0.89 0.894,-0.89 h 29.953 c 16.483,0 36.964,-0.902 45.653,-2.007 8.772,-1.117 22.685,-1.232 31.003,-0.258 8.159,0.955 21.329,-0.18 29.361,-2.534 l 12.13,-3.558 c 8.259,-2.424 22.354,-2.455 31.425,-0.074 l 4.194,1.103 c 8.849,2.323 29.995,2.854 47.127,1.179 l 20.742,-2.03 c 17.271,-1.689 45.646,-1.725 63.265,-0.079 l 19.493,1.818 c 17.465,1.63 37.19,1.117 43.973,-1.145 7.071,-2.357 16.324,-2.632 20.634,-0.609 3.894,1.827 10.467,2.396 14.346,1.246 4.235,-1.256 15.613,-0.975 25.358,0.623 9.574,1.57 22.531,2.313 28.89,1.656 6.461,-0.666 28.056,-0.197 48.141,1.046 l 22.172,1.374 c 20.018,1.238 46.379,2.249 58.753,2.249 h 22.467 c 0.495,0 0.893,0.397 0.893,0.89 0,0.493 -0.4,0.893 -0.895,0.893 z" />
		</g>
		<g
   id="g66">
			<path
   style="fill:#5c74b8"
   inkscape:connector-curvature="0"
   id="path64"
   d="m 454.154,742.715 c -5.754,0 -11.419,-0.613 -15.593,-1.84 l -12.13,-3.557 c -8.032,-2.355 -21.202,-3.49 -29.361,-2.535 -8.318,0.976 -22.225,0.86 -31.003,-0.26 -8.689,-1.103 -29.17,-2.004 -45.653,-2.004 h -29.953 c -0.495,0 -0.894,-0.398 -0.894,-0.891 0,-0.493 0.398,-0.891 0.894,-0.891 h 29.953 c 16.548,0 37.129,0.905 45.877,2.017 8.657,1.103 22.376,1.218 30.573,0.253 8.356,-0.975 21.848,0.189 30.068,2.601 l 12.13,3.555 c 7.994,2.347 21.662,2.376 30.473,0.06 l 4.188,-1.1 c 9.022,-2.367 30.446,-2.922 47.761,-1.229 l 20.739,2.028 c 17.179,1.68 45.405,1.715 62.923,0.079 l 19.499,-1.815 c 17.665,-1.65 37.721,-1.1 44.697,1.229 6.588,2.193 15.432,2.506 19.313,0.684 4.298,-2.016 11.301,-2.617 15.61,-1.341 3.953,1.171 15.204,0.864 24.563,-0.675 9.701,-1.589 22.874,-2.338 29.361,-1.668 6.385,0.656 27.847,0.188 47.847,-1.053 l 22.172,-1.373 c 20.059,-1.241 46.463,-2.25 58.864,-2.25 h 22.467 c 0.495,0 0.893,0.398 0.893,0.891 0,0.493 -0.397,0.891 -0.893,0.891 h -22.467 c -12.368,0 -38.727,1.008 -58.753,2.248 l -22.172,1.374 c -20.079,1.244 -41.674,1.713 -48.141,1.046 -6.358,-0.656 -19.318,0.089 -28.89,1.657 -9.748,1.598 -21.126,1.878 -25.358,0.622 -3.885,-1.152 -10.452,-0.58 -14.346,1.246 -4.31,2.023 -13.563,1.748 -20.634,-0.606 -6.782,-2.264 -26.511,-2.776 -43.973,-1.147 l -19.493,1.819 c -17.612,1.646 -45.988,1.609 -63.265,-0.083 l -20.742,-2.024 c -17.132,-1.677 -38.278,-1.149 -47.127,1.177 l -4.194,1.102 c -4.481,1.177 -10.2,1.763 -15.83,1.763 z" />
		</g>
		<g
   id="g70">
			<path
   style="fill:#5c74b8"
   inkscape:connector-curvature="0"
   id="path68"
   d="m 454.151,763.387 c -5.875,0 -11.664,-1.883 -15.926,-5.636 l -12.136,-10.673 c -7.905,-6.96 -20.843,-10.341 -28.825,-7.529 -8.43,2.966 -22.517,2.621 -31.406,-0.775 -8.631,-3.295 -29.02,-5.977 -45.444,-5.977 h -29.953 c -0.495,0 -0.894,-0.398 -0.894,-0.891 0,-0.496 0.398,-0.894 0.894,-0.894 h 29.953 c 16.607,0 37.282,2.735 46.084,6.096 8.551,3.263 22.083,3.603 30.175,0.758 8.533,-3.001 22.254,0.53 30.599,7.87 l 12.13,10.674 c 7.82,6.883 21.19,6.956 29.807,0.168 l 4.188,-3.302 c 9.144,-7.201 30.785,-8.89 48.247,-3.767 l 20.748,6.086 c 17.088,5.012 45.167,5.117 62.596,0.239 l 19.499,-5.459 c 17.842,-4.996 38.124,-3.298 45.211,3.79 3.767,3.768 8.43,5.813 12.444,5.477 2.597,-0.217 4.729,-1.399 6.167,-3.422 2.47,-3.48 5.925,-5.709 9.462,-6.11 2.564,-0.292 4.999,0.445 6.835,2.075 3.814,3.393 14.794,2.443 23.977,-2.075 9.81,-4.825 23.174,-7.086 29.779,-5.043 6.202,1.919 27.985,0.468 47.566,-3.169 l 22.175,-4.121 c 20.085,-3.729 46.54,-6.765 58.971,-6.765 h 22.467 c 0.495,0 0.893,0.397 0.893,0.894 0,0.492 -0.397,0.891 -0.893,0.891 h -22.467 c -12.342,0 -38.649,3.023 -58.646,6.738 l -22.172,4.114 c -20.159,3.747 -41.88,5.146 -48.418,3.122 -6.24,-1.928 -19.009,0.285 -28.468,4.939 -9.934,4.891 -21.574,5.697 -25.951,1.811 -1.471,-1.309 -3.354,-1.878 -5.444,-1.639 -3.039,0.344 -6.031,2.301 -8.209,5.37 -1.751,2.464 -4.333,3.905 -7.47,4.171 -4.536,0.377 -9.727,-1.863 -13.859,-5.998 -6.68,-6.68 -26.181,-8.174 -43.469,-3.334 l -19.496,5.459 c -17.703,4.957 -46.225,4.849 -63.583,-0.245 l -20.742,-6.084 c -16.981,-4.979 -37.904,-3.431 -46.641,3.454 l -4.191,3.305 c -4.583,3.606 -10.413,5.404 -16.164,5.407 z" />
		</g>
		<g
   id="g74">
			<path
   style="fill:#5c74b8"
   inkscape:connector-curvature="0"
   id="path72"
   d="m 454.163,784.047 c -0.15,0 -0.304,0 -0.454,-0.006 -6.058,-0.156 -11.61,-3.496 -15.634,-9.397 l -12.13,-17.788 c -7.87,-11.541 -20.663,-17.177 -28.527,-12.566 -8.516,4.996 -22.743,4.412 -31.716,-1.294 -8.599,-5.471 -28.917,-9.922 -45.288,-9.922 h -29.953 c -0.495,0 -0.894,-0.397 -0.894,-0.89 0,-0.496 0.398,-0.894 0.894,-0.894 h 29.953 c 16.66,0 37.405,4.575 46.243,10.198 8.465,5.389 21.859,5.951 29.856,1.262 8.657,-5.076 22.52,0.799 30.905,13.097 l 12.127,17.792 c 3.693,5.414 8.736,8.478 14.208,8.619 5.642,0.139 11.095,-2.81 15.298,-8.328 l 4.188,-5.502 c 9.188,-12.059 30.962,-14.875 48.548,-6.279 l 20.742,10.141 c 17.014,8.318 44.969,8.494 62.324,0.395 l 19.496,-9.096 c 17.966,-8.387 38.366,-5.566 45.476,6.283 3.608,6.014 8.086,9.451 11.855,9.182 2.724,-0.186 4.984,-2.204 6.532,-5.832 2.603,-6.108 6.278,-9.816 10.081,-10.182 1.742,-0.165 4.271,0.318 6.455,3.558 1.191,1.763 3.131,2.886 5.612,3.251 5.188,0.761 12.104,-1.804 18.049,-6.676 9.883,-8.109 23.389,-11.889 30.098,-8.425 6.141,3.166 27.809,0.74 47.321,-5.303 L 828,742.583 c 20.109,-6.225 46.614,-11.292 59.071,-11.292 h 22.467 c 0.495,0 0.893,0.397 0.893,0.894 0,0.492 -0.397,0.89 -0.893,0.89 h -22.467 c -12.313,0 -38.573,5.028 -58.546,11.213 l -22.173,6.862 c -20.232,6.267 -42.063,8.59 -48.665,5.182 -6.033,-3.109 -18.921,0.651 -28.146,8.218 -6.323,5.185 -13.777,7.888 -19.437,7.063 -2.992,-0.438 -5.356,-1.828 -6.833,-4.016 -1.341,-1.992 -3.007,-2.95 -4.811,-2.779 -3.083,0.295 -6.305,3.696 -8.607,9.1 -1.804,4.229 -4.66,6.686 -8.05,6.918 -4.563,0.314 -9.488,-3.346 -13.506,-10.043 -6.653,-11.092 -26.033,-13.598 -43.197,-5.586 l -19.493,9.097 c -17.78,8.298 -46.425,8.114 -63.863,-0.409 l -20.742,-10.141 c -16.857,-8.241 -37.647,-5.662 -46.346,5.754 l -4.188,5.506 c -4.447,5.838 -10.221,9.033 -16.305,9.033 z" />
		</g>
		<g
   id="g78">
			<path
   style="fill:#5c74b8"
   inkscape:connector-curvature="0"
   id="path76"
   d="m 454.16,804.713 c -0.095,0 -0.191,0 -0.283,-0.004 -6.181,-0.139 -11.813,-4.795 -15.867,-13.113 l -12.129,-24.908 c -5.135,-10.537 -12.689,-18.039 -19.72,-19.572 -3.302,-0.725 -6.208,-0.082 -8.628,1.904 -8.586,7.049 -22.915,6.234 -31.946,-1.81 -8.581,-7.644 -28.843,-13.859 -45.173,-13.859 h -29.953 c -0.495,0 -0.894,-0.401 -0.894,-0.894 0,-0.493 0.398,-0.891 0.894,-0.891 h 29.953 c 16.704,0 37.5,6.42 46.36,14.312 8.401,7.487 21.695,8.276 29.63,1.763 2.818,-2.316 6.325,-3.104 10.134,-2.268 7.555,1.648 15.578,9.519 20.946,20.531 l 12.129,24.907 c 3.747,7.69 8.825,11.991 14.303,12.114 5.538,0.143 10.891,-4.025 15.059,-11.689 l 4.192,-7.705 c 4.103,-7.541 10.979,-12.809 19.359,-14.827 9.621,-2.313 20.333,-0.095 29.373,6.093 l 20.743,14.199 c 16.948,11.602 44.81,11.85 62.101,0.551 l 19.495,-12.736 c 9.681,-6.322 20.521,-8.348 29.742,-5.563 7.251,2.193 12.898,7.26 15.905,14.27 3.555,8.301 7.929,13.126 11.604,12.934 2.727,-0.15 5.103,-3.104 6.691,-8.312 2.644,-8.69 6.417,-13.849 10.346,-14.149 1.725,-0.129 4.198,0.623 6.288,4.961 1.306,2.703 3.437,4.328 6.169,4.696 5.108,0.687 11.581,-2.836 17.317,-9.427 9.931,-11.401 23.531,-16.689 30.319,-11.785 6.09,4.398 27.669,0.997 47.115,-7.434 l 22.175,-9.609 c 20.132,-8.728 46.673,-15.826 59.162,-15.826 h 22.467 c 0.495,0 0.893,0.398 0.893,0.891 0,0.493 -0.397,0.894 -0.893,0.894 h -22.467 c -12.286,0 -38.508,7.032 -58.452,15.679 l -22.178,9.609 c -20.291,8.799 -42.213,12.047 -48.866,7.242 -5.96,-4.305 -18.749,0.973 -27.932,11.514 -6.131,7.041 -13.205,10.793 -18.9,10.021 -3.354,-0.451 -5.96,-2.42 -7.533,-5.691 -0.914,-1.893 -2.436,-4.121 -4.549,-3.953 -2.402,0.183 -5.966,3.666 -8.775,12.887 -2.334,7.667 -5.801,9.438 -8.297,9.574 -4.578,0.241 -9.424,-4.857 -13.347,-14.014 -2.792,-6.514 -8.042,-11.225 -14.78,-13.264 -8.716,-2.633 -19.015,-0.684 -28.25,5.35 l -19.498,12.736 c -17.839,11.658 -46.588,11.402 -64.082,-0.574 L 520.89,776.269 c -8.625,-5.9 -18.809,-8.025 -27.949,-5.827 -7.882,1.898 -14.35,6.851 -18.208,13.942 l -4.191,7.705 c -4.432,8.151 -10.242,12.624 -16.382,12.624 z" />
		</g>
		<g
   id="g82">
			<path
   style="fill:#5c74b8"
   inkscape:connector-curvature="0"
   id="path80"
   d="m 454.154,825.379 c -0.062,0 -0.124,0 -0.188,0 -6.252,-0.121 -11.93,-6.088 -15.988,-16.799 l -12.129,-32.023 c -5.307,-14.01 -13.351,-23.984 -20.486,-25.42 -2.938,-0.59 -5.542,0.291 -7.749,2.62 -3.883,4.097 -9.114,6.29 -14.801,6.175 -6.394,-0.129 -12.701,-3.227 -17.306,-8.5 -8.571,-9.818 -28.798,-17.805 -45.093,-17.805 h -29.953 c -0.495,0 -0.894,-0.4 -0.894,-0.893 0,-0.493 0.398,-0.893 0.894,-0.893 h 29.953 c 16.74,0 37.571,8.262 46.438,18.416 4.273,4.893 10.104,7.77 16,7.891 5.155,0.104 9.933,-1.893 13.47,-5.621 2.618,-2.762 5.86,-3.85 9.392,-3.139 7.844,1.576 16.2,11.743 21.804,26.534 l 12.13,32.023 c 3.729,9.839 8.957,15.542 14.354,15.649 0.047,0 0.098,0 0.147,0 5.347,0 10.727,-5.486 14.791,-15.09 l 4.188,-9.904 c 4.431,-10.467 11.974,-17.394 21.25,-19.51 9.273,-2.117 19.077,0.849 27.607,8.356 l 20.745,18.255 c 16.902,14.873 44.687,15.195 61.924,0.71 l 19.496,-16.377 c 8.898,-7.472 19.035,-10.337 27.816,-7.858 8.28,2.338 14.649,9.066 17.942,18.944 3.546,10.632 7.806,16.872 11.496,16.72 2.693,-0.121 5.164,-4.063 6.762,-10.818 2.661,-11.233 6.479,-17.821 10.476,-18.074 1.698,-0.113 4.174,0.898 6.205,6.318 1.382,3.688 3.64,5.819 6.528,6.161 4.997,0.59 11.296,-3.958 16.861,-12.173 6.735,-9.945 15.398,-16.631 22.607,-17.451 3.119,-0.359 5.843,0.442 7.861,2.317 6.058,5.627 27.558,1.249 46.953,-9.56 l 22.172,-12.354 c 20.15,-11.23 46.732,-20.367 59.242,-20.367 h 22.467 c 0.495,0 0.893,0.4 0.893,0.893 0,0.493 -0.397,0.893 -0.893,0.893 h -22.467 c -12.257,0 -38.446,9.035 -58.375,20.139 l -22.172,12.356 c -20.351,11.339 -42.346,15.517 -49.034,9.309 -1.647,-1.53 -3.817,-2.155 -6.446,-1.854 -6.605,0.752 -14.98,7.302 -21.332,16.678 -5.945,8.781 -12.869,13.627 -18.55,12.946 -2.506,-0.298 -5.925,-1.807 -7.988,-7.308 -1.282,-3.428 -2.835,-5.264 -4.418,-5.16 -2.297,0.145 -5.987,4.604 -8.854,16.703 -2.338,9.866 -5.869,12.074 -8.422,12.189 -4.596,0.182 -9.338,-6.164 -13.265,-17.937 -3.101,-9.303 -9.043,-15.62 -16.736,-17.792 -8.321,-2.353 -17.621,0.318 -26.181,7.508 l -19.496,16.373 c -17.889,15.031 -46.714,14.701 -64.255,-0.736 l -20.743,-18.254 c -8.088,-7.116 -17.332,-9.943 -26.033,-7.957 -8.698,1.987 -15.802,8.546 -20.002,18.465 l -4.189,9.906 c -4.417,10.446 -10.241,16.18 -16.426,16.18 z" />
		</g>
	</g><g
   id="g126">
		<defs
   id="defs87">
			<path
   inkscape:connector-curvature="0"
   d="m 1075.208,664.627 0.063,-0.646 c 0.907,-8.986 -1.733,-17.783 -7.455,-24.78 -5.715,-6.979 -13.81,-11.327 -22.791,-12.241 l -25.429,-2.547 c 0.436,-7.865 0.725,-15.744 0.725,-23.637 0,-33.377 -3.926,-66.496 -11.66,-98.641 20.173,-13.226 29.305,-39.135 20.471,-62.634 C 962.336,261.832 789.888,142.447 600.004,142.447 c -189.883,0 -362.341,119.385 -429.14,297.057 -8.831,23.496 0.304,49.405 20.478,62.631 -7.737,32.18 -11.667,65.273 -11.667,98.641 0,7.861 0.289,15.748 0.73,23.637 l -25.443,2.547 c -8.976,0.914 -17.066,5.262 -22.779,12.241 -5.719,6.997 -8.365,15.794 -7.457,24.78 l 0.07,0.646 c -50.764,17.824 -82.352,95.117 -73.23,185.785 9.125,90.682 55.482,160.225 108.787,167.564 l 0.06,0.557 c 1.754,17.392 16.468,30.408 33.594,30.408 1.12,0 2.264,-0.063 3.414,-0.165 l 116.87,-11.771 c 0.009,0 0.009,0 0.009,0 18.526,-1.868 32.1,-18.467 30.237,-37.004 L 308.849,645.445 c -1.868,-18.544 -18.467,-32.088 -37.007,-30.237 l -62.122,6.252 c -0.362,-6.906 -0.592,-13.813 -0.592,-20.686 0,-30.467 3.72,-60.66 10.652,-90.048 21.506,0.15 41.827,-12.863 49.827,-34.124 51.409,-136.779 184.186,-228.678 330.396,-228.678 146.2,0 278.984,91.898 330.397,228.678 7.682,20.459 27.521,34.203 49.36,34.203 0.159,0 0.304,-0.05 0.463,-0.05 6.931,29.374 10.642,59.542 10.642,90.019 0,6.912 -0.228,13.809 -0.575,20.686 l -62.13,-6.252 c -9.008,-0.908 -17.777,1.739 -24.775,7.455 -6.988,5.709 -11.336,13.81 -12.229,22.782 l -35.684,354.55 c -0.908,8.981 1.739,17.78 7.445,24.764 5.716,6.997 13.81,11.345 22.785,12.246 0,0 0,0 0.006,0 l 116.862,11.771 c 1.149,0.103 2.284,0.165 3.422,0.165 17.123,0 31.84,-13.02 33.597,-30.408 l 0.051,-0.557 c 53.299,-7.34 99.674,-76.895 108.791,-167.564 9.137,-90.672 -22.461,-167.961 -73.223,-185.785 z"
   id="SVGID_1_" />
		</defs>
		<use
   height="100%"
   width="100%"
   y="0"
   x="0"
   style="overflow:visible;fill:#252f70"
   id="use89"
   overflow="visible"
   xlink:href="#SVGID_1_" />
		<clipPath
   id="SVGID_2_">
			<use
   height="100%"
   width="100%"
   y="0"
   x="0"
   style="overflow:visible"
   id="use91"
   overflow="visible"
   xlink:href="#SVGID_1_" />
		</clipPath>
		<g
   id="g96"
   clip-path="url(#SVGID_2_)">
			<polygon
   style="fill:#38499e"
   id="polygon94"
   points="157.696,609.532 95.496,663.96 162.879,1039.105 " />
		</g>
		<g
   id="g100"
   clip-path="url(#SVGID_2_)">
			<polygon
   style="fill:#38499e"
   id="polygon98"
   points="1041.52,609.532 1103.718,663.96 1036.338,1039.105 " />
		</g>
		<g
   id="g104"
   clip-path="url(#SVGID_2_)">
			<path
   style="fill:#191d52"
   inkscape:connector-curvature="0"
   id="path102"
   d="m 190.704,501.708 c 0,0 18.717,10.528 34.146,8.81 3,-0.332 41.697,-6.166 41.697,-6.166 l 137.577,-175.581 244.482,-57.019 252.259,189.195 43.194,66.518 36.164,-16.708 c 0,0 15.236,-1.774 28.437,-8.622 3.873,-2.01 24.059,-20.24 24.059,-20.24 L 1045.025,412.242 976.183,299.505 778.19,135.256 474.097,123.161 210.612,311.488 l -58.747,112.738 11.23,62.637 z" />
		</g>
		<g
   id="g108"
   clip-path="url(#SVGID_2_)">
			<path
   style="fill:#191d52"
   inkscape:connector-curvature="0"
   id="path106"
   d="m 180.404,624.412 29.314,-2.951 74.16,-10.308 53.293,43.413 c 0,0 32.512,376.764 36.02,376.117 3.502,-0.648 -198.325,49.243 -199.943,46.004 -1.621,-3.242 -15.228,-44.385 -15.228,-44.385 l 2.331,-14.326 -35.557,-353.35 -3.219,-27.396 15.063,-9.718 z" />
		</g>
		<g
   id="g112"
   clip-path="url(#SVGID_2_)">
			<path
   style="fill:#191d52"
   inkscape:connector-curvature="0"
   id="path110"
   d="m 1019.646,624.412 -29.314,-2.951 -74.162,-10.308 -53.287,43.413 c 0,0 -32.516,376.764 -36.021,376.117 -3.505,-0.648 198.323,49.243 199.944,46.004 1.618,-3.242 15.228,-44.385 15.228,-44.385 l -2.335,-14.326 35.561,-353.35 3.219,-27.396 -15.068,-9.718 z" />
		</g>
		<g
   id="g116"
   clip-path="url(#SVGID_2_)">
			<path
   style="fill:#38499e"
   inkscape:connector-curvature="0"
   id="path114"
   d="m 305.641,223.372 c 0,0 366.294,-169.321 685.071,104.532 C 1015.793,349.453 778.19,147.35 778.19,147.35 L 466.991,128.237 Z" />
		</g>
		<g
   id="g120"
   clip-path="url(#SVGID_2_)">
			<polygon
   style="fill:#38499e"
   id="polygon118"
   points="364.384,1048.941 312.55,587.504 262.013,603.053 312.55,1059.19 " />
		</g>
		<g
   id="g124"
   clip-path="url(#SVGID_2_)">
			<polygon
   style="fill:#38499e"
   id="polygon122"
   points="836.506,1048.941 888.338,587.504 938.878,603.053 888.338,1059.19 " />
		</g>
	</g>
</svg>