<?xml version="1.0" encoding="utf-8"?>
<!--Designed by Vexels.com - 2017 All Rights Reserved - https://vexels.com/terms-and-conditions/-->
<svg version="1.1" id="Layer_1" xmlns="http://www.w3.org/2000/svg" xmlns:xlink="http://www.w3.org/1999/xlink" x="0px" y="0px"
	 viewBox="0 0 1200 1200" enable-background="new 0 0 1200 1200" xml:space="preserve">
<g>
	<g>
		<path fill="#303030" d="M67.212,643.898c-9.506,0-17.212-7.709-17.212-17.215V573.32c0-9.506,7.706-17.215,17.212-17.215
			c9.509,0,17.215,7.709,17.215,17.215v53.363C84.427,636.189,76.721,643.898,67.212,643.898z"/>
	</g>
	<g>
		<path fill="#303030" d="M109.837,704.149c-9.509,0-17.215-7.706-17.215-17.215V513.069c0-9.509,7.706-17.215,17.215-17.215
			c9.506,0,17.212,7.706,17.212,17.215v173.865C127.049,696.443,119.343,704.149,109.837,704.149z"/>
	</g>
	<g>
		<path fill="#303030" d="M152.456,651.648c-9.506,0-17.215-7.709-17.215-17.221v-68.854c0-9.506,7.709-17.215,17.215-17.215
			c9.509,0,17.215,7.709,17.215,17.215v68.854C169.672,643.939,161.965,651.648,152.456,651.648z"/>
	</g>
	<g>
		<path fill="#303030" d="M195.085,724.806c-9.509,0-17.215-7.706-17.215-17.215V492.412c0-9.506,7.706-17.215,17.215-17.215
			c9.503,0,17.212,7.709,17.212,17.215v215.179C212.297,717.1,204.588,724.806,195.085,724.806z"/>
	</g>
	<g>
		<path fill="#303030" d="M237.704,650.783c-9.503,0-17.212-7.709-17.212-17.215v-67.136c0-9.506,7.709-17.215,17.212-17.215
			c9.509,0,17.215,7.709,17.215,17.215v67.136C254.919,643.074,247.213,650.783,237.704,650.783z"/>
	</g>
	<g>
		<path fill="#303030" d="M280.327,631.847c-9.506,0-17.215-7.706-17.215-17.212v-29.266c0-9.506,7.709-17.215,17.215-17.215
			c9.509,0,17.218,7.709,17.218,17.215v29.266C297.544,624.141,289.835,631.847,280.327,631.847z"/>
	</g>
	<g>
		<path fill="#303030" d="M322.952,623.241c-9.506,0-17.215-7.706-17.215-17.215v-12.052c0-9.506,7.709-17.212,17.215-17.212
			c9.506,0,17.215,7.706,17.215,17.212v12.052C340.167,615.534,332.458,623.241,322.952,623.241z"/>
	</g>
	<g>
		<path fill="#303030" d="M365.574,652.507c-9.509,0-17.215-7.709-17.215-17.215v-70.578c0-9.512,7.706-17.218,17.215-17.218
			c9.506,0,17.215,7.706,17.215,17.218v70.578C382.789,644.798,375.08,652.507,365.574,652.507z"/>
	</g>
	<g>
		<path fill="#303030" d="M408.197,760.092c-9.506,0-17.215-7.703-17.215-17.212V457.12c0-9.506,7.709-17.212,17.215-17.212
			c9.509,0,17.212,7.706,17.212,17.212v285.76C425.408,752.389,417.705,760.092,408.197,760.092z"/>
	</g>
	<g>
		<path fill="#303030" d="M450.822,680.049c-9.509,0-17.218-7.706-17.218-17.215V537.169c0-9.506,7.709-17.215,17.218-17.215
			c9.503,0,17.212,7.709,17.212,17.215v125.665C468.034,672.343,460.325,680.049,450.822,680.049z"/>
	</g>
	<g>
		<path fill="#303030" d="M493.441,784.198c-9.506,0-17.212-7.709-17.212-17.218V433.02c0-9.506,7.706-17.212,17.212-17.212
			c9.506,0,17.215,7.706,17.215,17.212v333.96C510.656,776.489,502.947,784.198,493.441,784.198z"/>
	</g>
	<g>
		<path fill="#303030" d="M536.066,664.555c-9.506,0-17.212-7.706-17.212-17.215v-94.678c0-9.509,7.706-17.218,17.212-17.218
			c9.506,0,17.212,7.709,17.212,17.218v94.678C553.279,656.849,545.572,664.555,536.066,664.555z"/>
	</g>
	<g>
		<path fill="#303030" d="M578.686,758.374c-9.503,0-17.212-7.706-17.212-17.215V458.841c0-9.506,7.709-17.212,17.212-17.212
			c9.509,0,17.218,7.706,17.218,17.212v282.318C595.904,750.668,588.195,758.374,578.686,758.374z"/>
	</g>
	<g>
		<path fill="#303030" d="M621.311,740.3c-9.509,0-17.218-7.709-17.218-17.215V476.918c0-9.509,7.709-17.218,17.218-17.218
			c9.506,0,17.215,7.709,17.215,17.218v246.167C638.526,732.591,630.817,740.3,621.311,740.3z"/>
	</g>
	<g>
		<path fill="#303030" d="M663.933,679.187c-9.503,0-17.212-7.709-17.212-17.212V538.028c0-9.506,7.709-17.215,17.212-17.215
			c9.509,0,17.215,7.709,17.215,17.215v123.947C681.148,671.478,673.443,679.187,663.933,679.187z"/>
	</g>
	<g>
		<path fill="#303030" d="M706.556,633.568c-9.506,0-17.215-7.703-17.215-17.212v-32.709c0-9.509,7.709-17.215,17.215-17.215
			c9.509,0,17.218,7.706,17.218,17.215v32.709C723.774,625.865,716.065,633.568,706.556,633.568z"/>
	</g>
	<g>
		<path fill="#303030" d="M749.181,754.929c-9.506,0-17.215-7.706-17.215-17.212V462.283c0-9.506,7.709-17.212,17.215-17.212
			s17.212,7.706,17.212,17.212v275.433C766.393,747.223,758.687,754.929,749.181,754.929z"/>
	</g>
	<g>
		<path fill="#303030" d="M791.803,814.32c-9.509,0-17.215-7.706-17.215-17.215V402.897c0-9.509,7.706-17.218,17.215-17.218
			c9.506,0,17.215,7.709,17.215,17.218v394.208C809.018,806.614,801.309,814.32,791.803,814.32z"/>
	</g>
	<g>
		<path fill="#303030" d="M834.423,690.376c-9.503,0-17.212-7.709-17.212-17.215v-146.32c0-9.509,7.709-17.218,17.212-17.218
			c9.509,0,17.215,7.709,17.215,17.218v146.32C851.638,682.667,843.932,690.376,834.423,690.376z"/>
	</g>
	<g>
		<path fill="#303030" d="M877.048,648.202c-9.506,0-17.212-7.709-17.212-17.215v-61.969c0-9.512,7.706-17.221,17.212-17.221
			c9.509,0,17.218,7.709,17.218,17.221v61.969C894.266,640.493,886.557,648.202,877.048,648.202z"/>
	</g>
	<g>
		<path fill="#303030" d="M919.67,631.847c-9.506,0-17.215-7.706-17.215-17.212v-29.266c0-9.506,7.709-17.215,17.215-17.215
			c9.509,0,17.218,7.709,17.218,17.215v29.266C936.888,624.141,929.179,631.847,919.67,631.847z"/>
	</g>
	<g>
		<path fill="#303030" d="M962.296,745.463c-9.506,0-17.215-7.709-17.215-17.215V471.751c0-9.506,7.709-17.212,17.215-17.212
			c9.503,0,17.212,7.706,17.212,17.212v256.497C979.508,737.754,971.799,745.463,962.296,745.463z"/>
	</g>
	<g>
		<path fill="#303030" d="M1004.918,652.507c-9.506,0-17.215-7.709-17.215-17.215v-70.578c0-9.512,7.709-17.218,17.215-17.218
			c9.509,0,17.215,7.706,17.215,17.218v70.578C1022.133,644.798,1014.427,652.507,1004.918,652.507z"/>
	</g>
	<g>
		<path fill="#303030" d="M1047.541,741.159c-9.506,0-17.215-7.706-17.215-17.215V476.056c0-9.506,7.709-17.215,17.215-17.215
			c9.506,0,17.215,7.709,17.215,17.215v247.888C1064.755,733.453,1057.046,741.159,1047.541,741.159z"/>
	</g>
	<g>
		<path fill="#303030" d="M1090.166,648.202c-9.509,0-17.218-7.709-17.218-17.215v-61.969c0-9.512,7.709-17.221,17.218-17.221
			c9.503,0,17.212,7.709,17.212,17.221v61.969C1107.378,640.493,1099.669,648.202,1090.166,648.202z"/>
	</g>
	<g>
		<path fill="#303030" d="M1132.785,633.568c-9.503,0-17.212-7.703-17.212-17.212v-32.709c0-9.509,7.709-17.215,17.212-17.215
			c9.509,0,17.215,7.706,17.215,17.215v32.709C1150,625.865,1142.294,633.568,1132.785,633.568z"/>
	</g>
</g>
</svg>
