<?xml version="1.0" encoding="utf-8"?>
<!-- Generator: Adobe Illustrator 24.1.3, SVG Export Plug-In . SVG Version: 6.00 Build 0)  -->
<svg version="1.1" id="Layer_1" xmlns="http://www.w3.org/2000/svg" xmlns:xlink="http://www.w3.org/1999/xlink" x="0px" y="0px"
	 viewBox="0 0 1499.9 1500" style="enable-background:new 0 0 1499.9 1500;" xml:space="preserve">
<style type="text/css">
	.st0{fill:#FFFFFF;}
</style>
<polygon class="st0" points="531.8,1.3 77.2,161.2 21.1,659.8 353.9,907.5 434.5,912.1 639,848.2 531.2,1091.7 549.2,1151.5 
	809.7,1464.8 940.3,1488.2 1212.7,1498.8 1305.7,1420 1456.1,1091.7 1485.3,996.1 1477.1,953.4 1222.3,661.7 1163.5,625.5 
	900.3,636.1 850.3,625.7 915.2,304.5 896.1,252.1 "/>
<g>
	<g>
		<g>
			<path d="M344.3,519.9c7.2,4.9,14.8,7.5,21.9,7.5c16.4,0,28.5-12.9,31.7-33.8c4.6-29.8-10.8-66.9-34.4-82.9
				c-7.2-4.9-14.8-7.5-21.8-7.5c-16.4,0-28.5,12.9-31.7,33.8C305.4,466.8,320.8,504,344.3,519.9z"/>
			<path d="M228.3,587.1c7.2,4.9,14.8,7.5,21.9,7.5c16.4,0,28.5-12.9,31.7-33.8c4.6-29.8-10.8-66.9-34.3-82.9
				c-7.2-4.9-14.8-7.5-21.9-7.5c-16.4,0-28.5,12.9-31.7,33.8C189.4,534,204.8,571.2,228.3,587.1z"/>
			<path d="M112.3,654.3c7.2,4.9,14.8,7.5,21.9,7.5c16.4,0,28.5-12.9,31.7-33.8c4.6-29.8-10.8-66.9-34.3-82.8
				c-7.2-4.9-14.8-7.5-21.9-7.5c-16.4,0-28.5,13-31.7,33.8C73.4,601.1,88.8,638.3,112.3,654.3z"/>
			<path d="M758,505.1c4.2,0,8.7-0.7,13.3-2.1c27.6-8.3,53.8-39.5,58.4-69.6c2.1-13.7-0.5-25.6-7.3-33.6c-8.2-9.5-21.6-12.5-36.6-8
				c-27.6,8.2-53.8,39.5-58.4,69.6c-2.1,13.7,0.5,25.7,7.4,33.6C740.5,501.6,748.5,505.1,758,505.1z"/>
			<path d="M554.6,697.9c-27.6,8.3-53.8,39.5-58.4,69.6c-2.1,13.7,0.5,25.6,7.4,33.6c5.6,6.6,13.7,10,23.2,10l0,0
				c4.2,0,8.7-0.7,13.3-2.1c27.6-8.2,53.8-39.4,58.4-69.6c2.1-13.7-0.5-25.6-7.3-33.6C583,696.4,569.5,693.5,554.6,697.9z"/>
			<path d="M434.7,184.8c-1.6,10.4,4.5,20.9,17.1,29.7c15.9,11,40.3,17.9,63.7,17.9l0,0c10.3,0,19.7-1.3,27.9-3.9
				c14.7-4.6,23.6-12.9,25.2-23.2c1.6-10.4-4.5-20.9-17.1-29.7c-15.9-11.1-40.3-17.9-63.7-17.9c-10.3,0-19.7,1.3-27.9,3.9
				C445.3,166.2,436.3,174.5,434.7,184.8z"/>
			<path d="M1484.3,964.3c-1.9-3.5-4.2-7.1-7.2-11l0,0l-215.3-274.7c-23.7-30.3-72.5-54-111.3-54l-264.6,0.9l44.6-291.7
				c0-0.1,0-0.3,0-0.3c0.5-3.7,0.7-7.5,0.8-11.3c0.8-32.6-14.5-68.7-38.4-91c-2.9-2.8-6.1-5.6-10.1-8.4c0,0,0,0-0.1,0L595.9,23.9
				C574.6,9.2,542.1,0,510.9,0c-13.7,0-26.3,1.8-37.4,5.2L140.4,109.3c-3.1,1-6.1,2.2-9.2,3.5c-0.6,0.3-1.2,0.5-1.8,0.8
				c-30.3,14-56.5,44.8-65.4,76.9c-1,3.3-1.9,6.7-2.4,10.3c0,0,0,0.1,0,0.1l0,0L1,597.5C-5,637,16,685.8,48.8,708.6l286.8,198.9
				c21.2,14.7,53.7,23.9,84.9,23.9c9,0,17.3-1,25.2-2.5c4-0.5,8.1-1.4,12.2-2.7c0.1,0,0.1-0.1,0.2-0.1l149.2-46.6l-83.2,171.6
				c-17.4,35.9-11.8,88.7,12.9,120.2l215.3,274.8c2,2.6,4.5,5.1,6.8,7.5c23.1,24.1,61,42.5,94.2,45.7c3.4,0.3,6.8,0.7,10,0.7
				c0,0,0,0,0,0h0c0,0,0.2,0,0.2,0c0,0,0,0,0,0l349-1.2c39.9-0.1,84.9-28.4,102.3-64.3l175-361c1.8-3.6,3.1-7.3,4.2-11
				C1504.5,1031.7,1500.6,992.7,1484.3,964.3z M1212.5,1463.7l-349,1.2c0,0,0,0,0,0c-9.5-0.3-16.8-2.7-19.9-7.6
				c-3-4.9-2.4-12.6,1.8-21.2l175-360.9c11.5-23.6,44.6-44.4,70.8-44.5l349.1-1.2c0.1,0,0.1,0,0.2,0c9.5,0,16.7,2.7,19.7,7.6
				c2.2,3.5,2.4,8.5,0.8,14.3c-0.8,2.4-1.6,4.8-2.6,6.9l-175,360.9C1271.9,1442.8,1238.8,1463.6,1212.5,1463.7z M555.7,1066.4
				l175-360.9c1.2-2.4,2.5-4.5,3.8-6.3c3.5-4.8,7.6-7.8,11.7-8.2c5.7-0.7,12.4,3.4,18.3,11l215.3,274.7
				c16.2,20.7,20.4,59.5,8.9,83.1l-175,361c-4.2,8.6-9.9,13.9-15.5,14.6c-4.4,0.5-9-1.6-13.6-5.8c-1.4-1.4-2.8-2.9-4-4.4
				c-0.2-0.3-0.5-0.5-0.7-0.7c0,0,0,0,0,0l-215.3-274.7C548.4,1128.9,544.3,1090.1,555.7,1066.4z M575.8,52.8l286.8,198.9
				c2.3,1.6,4.5,3.6,6.6,5.6c3.5,3.6,4.2,6.2,4.1,6.8c-0.1,1-2.9,5.2-13.9,8.7L526.3,377c0,0,0,0,0,0c-26.3,8.2-69.1,1.6-91.8-14.1
				L147.7,164c-9.5-6.6-10.9-11.5-10.7-12.4c0.1-0.7,1.5-2.9,6-5.4c2.6-1.3,5.2-2.4,7.8-3.3c0.1,0,0.1,0,0.2-0.1c0,0,0.1,0,0.1,0
				L484,38.8c7.5-2.4,16.8-3.6,26.9-3.6C534.9,35.2,560.4,42.1,575.8,52.8z M35.8,602.9l60.6-396.5c0.4-2.4,1.1-4.8,1.8-7.2
				c2-5.6,5-9.6,8.7-11.3c5.3-2.3,12.8-0.4,20.7,5l286.8,198.9c21.6,15,37,50.9,33.1,76.8l-60.6,396.5c-1.4,9.5-5.3,16.2-10.5,18.5
				c-5.3,2.3-12.8,0.4-20.7-5.1c0,0,0,0,0,0L68.8,679.7C47.2,664.7,31.8,628.9,35.8,602.9z M447.4,892.6c-2.2,0.7-4.8,1.1-7.3,1.6
				c-5.9,0.7-10.8-0.3-13.9-2.9c-4.3-3.7-6-11.3-4.5-20.8L482.3,474c4-26,29.4-55.6,54.5-63.4l333.1-104.2
				c9.1-2.9,16.9-2.4,21.2,1.4c3.1,2.7,4.8,7.4,5,13.4c0,2.5-0.1,5-0.4,7.4l-45.4,297.1l-48.9,0.2c-4.8,0-9.1,0.5-13,1.2
				c-32.4,4.7-65.4,25.8-83.3,53.1c-2.2,3.3-4.3,6.6-6,10c0,0,0,0,0,0.1c0,0,0,0,0,0l-70.7,145.9L447.4,892.6z M1234.1,700.3
				L1449.4,975c1.7,2.2,3.2,4.7,4.7,7.3c2.2,4.5,2.1,7.2,1.9,7.8c-0.4,0.8-4.4,4.1-15.9,4.1l-349.1,1.2c-0.1,0-0.1,0-0.2,0
				c-27.5,0-66.4-18.9-83.4-40.5L792.2,680.2c-7.1-9.1-7-14.2-6.6-15.1c0.3-0.6,2.3-2.3,7.2-3.4c2.9-0.5,5.8-0.8,8.7-0.8l349.2-1.2
				C1178.7,659.8,1216.9,678.3,1234.1,700.3z"/>
			<path d="M757.3,910.9c12.2,0,23.4-8.5,30.6-23.4c9.2-19,9.9-44.5,3.2-65.5c-1.9-5.8-4.3-11.3-7.3-16.1c-1.3-2.1-2.5-4.2-4-6.1
				c-2.7-3.4-5.8-6.1-8.9-8.3c-5.4-3.8-11.1-6.1-17-6.1c-11.4,0-21.8,7.4-29,20.4c-0.5,1-1.1,1.9-1.6,3c-2.6,5.4-4.4,11.5-5.7,17.7
				c-1.3,6.2-1.9,12.5-1.9,19c0,19,5.4,38.1,15.7,51C738.8,905.9,748,910.9,757.3,910.9z"/>
			<path d="M902,1091.7c12.2,0,23.4-8.5,30.6-23.4c12.9-26.6,9.3-66-8.1-87.8c-7.4-9.2-16.6-14.3-25.9-14.3
				c-12.2,0-23.4,8.5-30.6,23.3c-12.9,26.6-9.3,66,8.1,87.8C883.5,1086.6,892.7,1091.7,902,1091.7z"/>
			<path d="M767.9,996.1c-12.2,0-23.4,8.5-30.6,23.3c-12.9,26.7-9.2,66.1,8.2,87.8c7.4,9.2,16.6,14.4,25.9,14.4
				c12.2,0,23.4-8.5,30.6-23.4c12.9-26.6,9.2-66-8.1-87.7C786.4,1001.2,777.2,996.1,767.9,996.1z"/>
			<path d="M640.7,1151.5c12.2,0,23.4-8.5,30.6-23.4c12.9-26.6,9.2-66-8.2-87.7c-7.4-9.2-16.6-14.4-25.9-14.4
				c-12.2,0-23.4,8.5-30.6,23.4c-12.9,26.6-9.3,66,8.1,87.8C622.2,1146.4,631.4,1151.5,640.7,1151.5z"/>
			<path d="M781.9,1206.8c-12.2,0-23.4,8.5-30.6,23.3c-12.9,26.6-9.2,66,8.1,87.8c7.4,9.2,16.6,14.3,25.9,14.3
				c12.2,0,23.4-8.5,30.6-23.4c12.9-26.6,9.3-66-8.1-87.7C800.4,1211.9,791.2,1206.8,781.9,1206.8z"/>
			<path d="M1348.8,1080.5c-27.8-0.3-60.8,21.1-73.7,47.6c-12.9,26.6-0.7,48.3,27.1,48.5c27.8,0.3,60.8-21.1,73.7-47.6
				C1388.7,1102.5,1376.6,1080.7,1348.8,1080.5z"/>
			<path d="M1127.2,1078.5c-27.8-0.3-60.8,21.1-73.7,47.6c-12.8,26.6-0.7,48.2,27.1,48.5c27.8,0.3,60.8-21.1,73.7-47.6
				C1167.1,1100.5,1155,1078.8,1127.2,1078.5z"/>
			<path d="M1289.8,1202.2c-27.8-0.3-60.8,21.1-73.6,47.6c-12.9,26.6-0.7,48.3,27.1,48.5c27.8,0.2,60.8-21.1,73.7-47.6
				C1329.7,1224.2,1317.6,1202.4,1289.8,1202.2z"/>
			<path d="M1068.2,1200.3c-27.8-0.3-60.8,21.1-73.7,47.6c-12.9,26.6-0.7,48.2,27.1,48.5c27.8,0.3,60.8-21.1,73.6-47.6
				C1108.1,1222.2,1096,1200.5,1068.2,1200.3z"/>
			<path d="M1230.8,1323.9c-27.8-0.2-60.8,21.1-73.7,47.6c-12.9,26.5-0.7,48.3,27.1,48.5c27.8,0.3,60.8-21,73.7-47.6
				C1270.7,1345.9,1258.6,1324.2,1230.8,1323.9z"/>
			<path d="M1009.2,1322c-27.8-0.2-60.8,21.1-73.7,47.6c-12.9,26.5-0.7,48.2,27.1,48.5c27.8,0.3,60.8-21.1,73.7-47.6
				C1049.1,1343.9,1037,1322.2,1009.2,1322z"/>
			<path d="M1193.2,779.3h0.4c13.6-0.1,23.2-4.4,27-12.3c3.8-7.9,1.3-18.1-7.1-28.8c-16.7-21.4-52.4-38.8-79.9-38.8
				c-13.6,0.1-23.2,4.4-27,12.3c-3.8,7.8-1.3,18.1,7.1,28.8C1130.3,761.9,1166,779.3,1193.2,779.3z"/>
			<path d="M969.6,774.7h0.4c13.6-0.1,23.2-4.4,27-12.3c3.8-7.8,1.3-18.1-7.1-28.8c-16.7-21.4-52.4-38.8-79.9-38.8
				c-13.6,0.1-23.2,4.4-27,12.3c-3.8,7.9-1.3,18.1,7.1,28.8C906.6,757.3,942.4,774.7,969.6,774.7z"/>
			<path d="M1335.3,952h0.4c13.6-0.1,23.2-4.4,27-12.3c3.8-7.9,1.3-18.1-7.1-28.8c-16.7-21.4-52.4-38.7-79.9-38.7
				c-13.6,0.1-23.2,4.4-27,12.3c-3.8,7.9-1.3,18.1,7.1,28.8C1272.5,934.6,1308.2,952,1335.3,952z"/>
			<path d="M1111.7,947.4h0.4c13.6-0.1,23.2-4.4,27-12.3c3.8-7.8,1.3-18.1-7.1-28.8c-16.7-21.4-52.4-38.8-80-38.8
				c-13.6,0.1-23.2,4.4-27,12.3c-3.8,7.8-1.3,18.1,7.1,28.8C1048.8,930,1084.5,947.4,1111.7,947.4z"/>
		</g>
	</g>
</g>
</svg>
