<?xml version="1.0" encoding="utf-8"?>
<!-- Designed by Vexels.com - 2016 All Rights Reserved - https://vexels.com/terms-and-conditions/  -->

<svg version="1.0" id="Capa_1" xmlns="http://www.w3.org/2000/svg" xmlns:xlink="http://www.w3.org/1999/xlink" x="0px" y="0px"
	 width="1200px" height="1199.999px" viewBox="0 0 1200 1199.999" enable-background="new 0 0 1200 1199.999" xml:space="preserve">
<g>
	
		<path fill-rule="evenodd" clip-rule="evenodd" fill="none" stroke="#C2C3C2" stroke-width="20.465" stroke-miterlimit="22.9256" d="
		M595.604,501.888c-24.663-216.821,82.543-152.274,82.543-249.205"/>
	<path fill-rule="evenodd" clip-rule="evenodd" fill="#919697" d="M564.305,485.324h61.97c3.615,0,6.568,2.954,6.568,6.566v24.979
		c0,3.627-2.954,6.576-6.568,6.576h-61.97c-3.612,0-6.576-2.949-6.576-6.576V491.89
		C557.729,488.278,560.693,485.324,564.305,485.324z"/>
	<path fill-rule="evenodd" clip-rule="evenodd" fill="#1F1B22" d="M1116.994,918.972c0.01,15.343-12.497,27.782-27.93,27.797
		l-977.882,0.547c-15.436,0.005-27.953-12.429-27.966-27.777l-0.211-383.363c-0.015-15.353,12.487-27.787,27.926-27.797
		l977.896-0.543c15.421-0.01,27.94,12.414,27.95,27.762L1116.994,918.972z"/>
	<path fill-rule="evenodd" clip-rule="evenodd" fill="#4E4D52" d="M1116.994,902.76c0.01,14.735-12.497,26.682-27.93,26.692
		l-977.882,0.527c-15.436,0.005-27.953-11.942-27.966-26.677l-0.211-368.247c-0.015-14.735,12.487-26.687,27.926-26.692
		l977.896-0.528c15.421-0.01,27.94,11.942,27.95,26.667L1116.994,902.76z"/>
	<path fill-rule="evenodd" clip-rule="evenodd" fill="#7D8082" d="M201.168,878.781c0.007,3.908-3.153,7.068-7.051,7.068
		l-36.198,0.03c-3.893,0-7.061-3.155-7.061-7.064l-0.025-36.187c0-3.904,3.158-7.058,7.059-7.063l36.194-0.025
		c3.901,0.01,7.059,3.17,7.069,7.064L201.168,878.781z"/>
	<path fill-rule="evenodd" clip-rule="evenodd" fill="#7D8082" d="M261.545,878.761c0.008,3.893-3.158,7.063-7.054,7.063
		l-36.194,0.02c-3.896,0-7.061-3.155-7.061-7.048l-0.017-36.207c-0.008-3.893,3.147-7.048,7.048-7.054l36.195-0.01
		c3.896-0.025,7.063,3.155,7.063,7.034L261.545,878.761z"/>
	<path fill-rule="evenodd" clip-rule="evenodd" fill="#7D8082" d="M321.925,878.721c0.003,3.908-3.162,7.063-7.054,7.063
		l-36.197,0.04c-3.904,0-7.063-3.17-7.063-7.063l-0.018-36.202c0-3.898,3.158-7.059,7.051-7.059l36.195-0.03
		c3.906,0,7.063,3.165,7.063,7.069L321.925,878.721z"/>
	<path fill-rule="evenodd" clip-rule="evenodd" fill="#7D8082" d="M382.294,878.68c0.012,3.908-3.155,7.074-7.051,7.083
		l-36.192,0.02c-3.908,0-7.063-3.175-7.066-7.069l-0.015-36.187c0-3.898,3.15-7.063,7.048-7.059l36.197-0.025
		c3.906-0.005,7.066,3.155,7.061,7.068L382.294,878.68z"/>
	<path fill-rule="evenodd" clip-rule="evenodd" fill="#7D8082" d="M815.005,878.454c-0.003,3.909-3.16,7.059-7.061,7.043
		l-46.252,0.041c-3.904,0-7.061-3.155-7.066-7.054l-0.035-36.198c0.007-3.898,3.167-7.063,7.068-7.063l46.252-0.025
		c3.898,0,7.061,3.16,7.066,7.059L815.005,878.454z"/>
	<path fill-rule="evenodd" clip-rule="evenodd" fill="#7D8082" d="M266.675,818.368c0,3.909-3.163,7.068-7.064,7.068l-36.187,0.03
		c-3.899,0.005-7.066-3.155-7.066-7.068l-0.018-36.192c-0.003-3.893,3.153-7.054,7.048-7.054l36.202-0.025
		c3.891,0,7.061,3.16,7.061,7.054L266.675,818.368z"/>
	<path fill-rule="evenodd" clip-rule="evenodd" fill="#7D8082" d="M327.052,818.333c0,3.908-3.16,7.063-7.056,7.063l-36.197,0.025
		c-3.898,0.005-7.066-3.145-7.066-7.054l-0.02-36.187c-0.003-3.908,3.157-7.063,7.061-7.058l36.195-0.035
		c3.893-0.005,7.054,3.16,7.063,7.059L327.052,818.333z"/>
	<path fill-rule="evenodd" clip-rule="evenodd" fill="#7D8082" d="M387.424,818.308c0.005,3.893-3.163,7.054-7.056,7.069
		l-36.195,0.005c-3.896,0.015-7.063-3.15-7.056-7.048l-0.028-36.192c0.005-3.898,3.162-7.058,7.061-7.069l36.195-0.01
		c3.898-0.015,7.061,3.14,7.063,7.049L387.424,818.308z"/>
	<path fill-rule="evenodd" clip-rule="evenodd" fill="#7D8082" d="M447.801,818.273c0,3.898-3.15,7.074-7.046,7.074l-36.205,0.015
		c-3.894-0.005-7.059-3.16-7.066-7.054l-0.012-36.197c0-3.909,3.15-7.064,7.061-7.074l36.19-0.01c3.891,0,7.056,3.16,7.051,7.054
		L447.801,818.273z"/>
	<path fill-rule="evenodd" clip-rule="evenodd" fill="#7D8082" d="M508.181,818.243c0,3.893-3.167,7.054-7.059,7.059l-36.185,0.035
		c-3.896,0-7.063-3.175-7.066-7.063l-0.025-36.202c0-3.904,3.158-7.059,7.056-7.059l36.192-0.015c3.898-0.01,7.066,3.16,7.058,7.058
		L508.181,818.243z"/>
	<path fill-rule="evenodd" clip-rule="evenodd" fill="#7D8082" d="M568.555,818.197c0.005,3.909-3.157,7.069-7.061,7.069
		l-36.192,0.025c-3.884,0.005-7.051-3.155-7.058-7.054l-0.018-36.192c-0.007-3.904,3.153-7.064,7.051-7.064l36.198-0.02
		c3.884-0.01,7.059,3.15,7.059,7.059L568.555,818.197z"/>
	<path fill-rule="evenodd" clip-rule="evenodd" fill="#7D8082" d="M628.935,818.162c-0.01,3.908-3.158,7.069-7.066,7.069
		l-36.187,0.03c-3.893,0-7.061-3.155-7.071-7.064l-0.012-36.187c0-3.898,3.16-7.063,7.056-7.063l36.197-0.025
		c3.889,0,7.059,3.16,7.059,7.064L628.935,818.162z"/>
	<path fill-rule="evenodd" clip-rule="evenodd" fill="#7D8082" d="M689.302,818.132c0.005,3.904-3.153,7.068-7.051,7.074
		l-36.189,0.02c-3.909,0-7.069-3.17-7.069-7.063l-0.025-36.187c0-3.898,3.16-7.059,7.061-7.063l36.192-0.03
		c3.904,0,7.074,3.16,7.074,7.063L689.302,818.132z"/>
	<path fill-rule="evenodd" clip-rule="evenodd" fill="#7D8082" d="M749.692,818.102c-0.008,3.893-3.17,7.074-7.063,7.074l-36.2,0.01
		c-3.886,0.005-7.056-3.16-7.061-7.063l-0.015-36.182c0-3.898,3.155-7.064,7.056-7.064l36.19-0.02c3.906,0,7.061,3.15,7.061,7.054
		L749.692,818.102z"/>
	<path fill-rule="evenodd" clip-rule="evenodd" fill="#7D8082" d="M810.066,818.072c-0.007,3.898-3.17,7.063-7.053,7.063
		l-36.203,0.015c-3.893,0-7.054-3.155-7.061-7.054l-0.028-36.192c0.008-3.898,3.167-7.058,7.054-7.069l36.2-0.025
		c3.896-0.005,7.064,3.17,7.064,7.069L810.066,818.072z"/>
	<path fill-rule="evenodd" clip-rule="evenodd" fill="#7D8082" d="M870.431,818.027c0.013,3.909-3.147,7.068-7.054,7.068
		l-36.18,0.02c-3.906,0.01-7.066-3.155-7.066-7.058l-0.033-36.182c0-3.909,3.165-7.069,7.061-7.069l36.19-0.015
		c3.904,0,7.071,3.155,7.063,7.059L870.431,818.027z"/>
	<path fill-rule="evenodd" clip-rule="evenodd" fill="#7D8082" d="M326.891,757.971c0,3.888-3.163,7.063-7.066,7.069l-36.182,0.005
		c-3.898,0-7.071-3.16-7.076-7.048l-0.012-36.198c0-3.893,3.158-7.054,7.051-7.054l36.197-0.025c3.901,0,7.059,3.165,7.059,7.058
		L326.891,757.971z"/>
	<path fill-rule="evenodd" clip-rule="evenodd" fill="#7D8082" d="M387.266,757.931c0,3.908-3.167,7.068-7.056,7.068l-36.197,0.025
		c-3.896,0-7.064-3.165-7.064-7.064l-0.02-36.187c0-3.894,3.158-7.064,7.064-7.064l36.182-0.025c3.904,0,7.063,3.155,7.071,7.054
		L387.266,757.931z"/>
	<path fill-rule="evenodd" clip-rule="evenodd" fill="#7D8082" d="M447.638,757.906c0.007,3.893-3.153,7.054-7.049,7.054
		l-36.192,0.03c-3.909,0-7.068-3.15-7.071-7.069l-0.023-36.182c0-3.898,3.16-7.069,7.054-7.069l36.202-0.015
		c3.893,0,7.054,3.155,7.061,7.054L447.638,757.906z"/>
	<path fill-rule="evenodd" clip-rule="evenodd" fill="#7D8082" d="M508.018,757.875c0.003,3.898-3.16,7.064-7.059,7.064
		l-36.182,0.015c-3.913,0-7.079-3.16-7.081-7.059l-0.018-36.192c0.01-3.894,3.173-7.064,7.066-7.054l36.19-0.036
		c3.889,0.005,7.059,3.16,7.059,7.059L508.018,757.875z"/>
	<path fill-rule="evenodd" clip-rule="evenodd" fill="#7D8082" d="M568.39,757.835c0.005,3.894-3.15,7.059-7.063,7.059
		l-36.185,0.025c-3.896,0-7.068-3.155-7.064-7.059l-0.017-36.187c0.005-3.898,3.16-7.059,7.056-7.074l36.194-0.015
		c3.899-0.005,7.054,3.155,7.054,7.059L568.39,757.835z"/>
	<path fill-rule="evenodd" clip-rule="evenodd" fill="#7D8082" d="M628.769,757.795c0.008,3.909-3.153,7.068-7.061,7.068
		l-36.187,0.02c-3.898,0-7.068-3.16-7.061-7.048l-0.025-36.192c-0.005-3.904,3.162-7.069,7.053-7.069l36.195-0.03
		c3.893,0,7.066,3.17,7.066,7.074L628.769,757.795z"/>
	<path fill-rule="evenodd" clip-rule="evenodd" fill="#7D8082" d="M689.149,757.765c0.002,3.904-3.158,7.059-7.064,7.059
		l-36.19,0.035c-3.891-0.021-7.063-3.175-7.066-7.064l-0.012-36.202c-0.015-3.898,3.153-7.059,7.051-7.059l36.197-0.02
		c3.884-0.005,7.056,3.16,7.056,7.059L689.149,757.765z"/>
	<path fill-rule="evenodd" clip-rule="evenodd" fill="#7D8082" d="M749.526,757.72c0,3.913-3.158,7.078-7.064,7.078l-36.192,0.02
		c-3.896,0-7.059-3.155-7.064-7.063l-0.02-36.192c0.005-3.888,3.165-7.058,7.059-7.058l36.2-0.025c3.884,0,7.054,3.16,7.054,7.063
		L749.526,757.72z"/>
	<path fill-rule="evenodd" clip-rule="evenodd" fill="#7D8082" d="M809.911,757.695c-0.018,3.893-3.175,7.068-7.076,7.068
		l-36.182,0.02c-3.904,0-7.074-3.165-7.074-7.063l-0.015-36.187c0.01-3.898,3.167-7.068,7.056-7.068l36.192-0.015
		c3.896,0,7.063,3.155,7.066,7.059L809.911,757.695z"/>
	<path fill-rule="evenodd" clip-rule="evenodd" fill="#7D8082" d="M870.278,757.655c0,3.903-3.165,7.078-7.061,7.078l-36.187,0.01
		c-3.893,0.005-7.066-3.155-7.071-7.054l-0.012-36.192c0-3.898,3.157-7.063,7.051-7.063l36.194-0.025
		c3.896,0,7.059,3.165,7.068,7.064L870.278,757.655z"/>
	<path fill-rule="evenodd" clip-rule="evenodd" fill="#7D8082" d="M930.655,757.624c0,3.898-3.167,7.063-7.054,7.063l-36.198,0.03
		c-3.896,0-7.066-3.165-7.068-7.063l-0.025-36.182c0-3.909,3.168-7.074,7.064-7.074l36.192-0.025c3.896,0,7.064,3.16,7.072,7.063
		L930.655,757.624z"/>
	<path fill-rule="evenodd" clip-rule="evenodd" fill="#7D8082" d="M991.03,757.604c0.005,3.898-3.155,7.054-7.061,7.059
		l-36.185,0.02c-3.898,0-7.064-3.16-7.064-7.069l-0.023-36.182c-0.01-3.898,3.158-7.063,7.056-7.063l36.195-0.02
		c3.888,0,7.061,3.15,7.056,7.054L991.03,757.604z"/>
	<path fill-rule="evenodd" clip-rule="evenodd" fill="#7D8082" d="M326.652,697.599c-0.005,3.898-3.16,7.069-7.064,7.064
		l-36.192,0.02c-3.894,0-7.051-3.155-7.064-7.059l-0.017-36.192c-0.003-3.894,3.153-7.059,7.051-7.059l36.205-0.025
		c3.891-0.005,7.048,3.16,7.054,7.068L326.652,697.599z"/>
	<path fill-rule="evenodd" clip-rule="evenodd" fill="#7D8082" d="M387.017,697.558c0.015,3.909-3.15,7.064-7.054,7.074
		l-36.19,0.005c-3.896,0.015-7.063-3.14-7.066-7.048l-0.015-36.192c-0.01-3.898,3.155-7.058,7.054-7.058l36.192-0.021
		c3.898,0,7.061,3.16,7.061,7.059L387.017,697.558z"/>
	<path fill-rule="evenodd" clip-rule="evenodd" fill="#7D8082" d="M447.402,697.523c0.002,3.913-3.163,7.074-7.051,7.079
		l-36.197,0.02c-3.901,0-7.066-3.17-7.069-7.064l-0.017-36.192c0-3.898,3.165-7.064,7.056-7.064l36.189-0.025
		c3.909,0.005,7.059,3.16,7.059,7.069L447.402,697.523z"/>
	<path fill-rule="evenodd" clip-rule="evenodd" fill="#7D8082" d="M507.776,697.493c0.01,3.898-3.16,7.068-7.048,7.068l-36.2,0.03
		c-3.896-0.01-7.059-3.165-7.066-7.074l-0.023-36.187c-0.005-3.898,3.167-7.068,7.056-7.068l36.192-0.015
		c3.904-0.01,7.063,3.16,7.066,7.054L507.776,697.493z"/>
	<path fill-rule="evenodd" clip-rule="evenodd" fill="#7D8082" d="M568.148,697.458c0.015,3.904-3.145,7.063-7.048,7.069
		l-36.197,0.03c-3.901-0.01-7.059-3.175-7.069-7.064l-0.02-36.192c-0.003-3.898,3.167-7.064,7.056-7.064l36.2-0.025
		c3.898,0,7.061,3.16,7.068,7.064L568.148,697.458z"/>
	<path fill-rule="evenodd" clip-rule="evenodd" fill="#7D8082" d="M628.523,697.428c0,3.894-3.158,7.059-7.046,7.059l-36.19,0.025
		c-3.904,0.005-7.071-3.155-7.071-7.059l-0.017-36.192c-0.008-3.904,3.15-7.059,7.054-7.059l36.194-0.015
		c3.899-0.015,7.059,3.155,7.063,7.053L628.523,697.428z"/>
	<path fill-rule="evenodd" clip-rule="evenodd" fill="#7D8082" d="M688.903,697.398c0.01,3.898-3.158,7.058-7.041,7.058
		l-36.207,0.02c-3.891,0-7.051-3.155-7.061-7.058l-0.025-36.182c0-3.909,3.155-7.064,7.056-7.069l36.194-0.015
		c3.899,0,7.054,3.145,7.069,7.064L688.903,697.398z"/>
	<path fill-rule="evenodd" clip-rule="evenodd" fill="#7D8082" d="M749.28,697.353c0.008,3.908-3.16,7.063-7.048,7.074
		l-36.194,0.005c-3.901,0.02-7.064-3.14-7.061-7.034l-0.023-36.202c-0.018-3.904,3.16-7.064,7.056-7.064l36.187-0.02
		c3.896,0,7.061,3.155,7.061,7.059L749.28,697.353z"/>
	<path fill-rule="evenodd" clip-rule="evenodd" fill="#7D8082" d="M809.662,697.328c0.005,3.904-3.162,7.068-7.058,7.068
		l-36.195,0.02c-3.888,0-7.063-3.16-7.071-7.063l-0.012-36.182c-0.003-3.904,3.16-7.064,7.056-7.068l36.195-0.03
		c3.891,0,7.051,3.16,7.063,7.063L809.662,697.328z"/>
	<path fill-rule="evenodd" clip-rule="evenodd" fill="#7D8082" d="M870.04,697.282c0.005,3.904-3.165,7.068-7.064,7.074l-36.19,0.02
		c-3.898,0-7.051-3.16-7.066-7.048l-0.02-36.202c0-3.898,3.165-7.054,7.046-7.064l36.205-0.02c3.906-0.005,7.061,3.165,7.066,7.059
		L870.04,697.282z"/>
	<path fill-rule="evenodd" clip-rule="evenodd" fill="#7D8082" d="M930.417,697.257c0,3.904-3.173,7.059-7.061,7.059l-36.189,0.025
		c-3.896,0.01-7.064-3.155-7.064-7.054l-0.028-36.192c0-3.898,3.171-7.058,7.056-7.068l36.195-0.02
		c3.906,0.005,7.066,3.17,7.066,7.059L930.417,697.257z"/>
	<path fill-rule="evenodd" clip-rule="evenodd" fill="#7D8082" d="M990.796,697.222c-0.003,3.904-3.167,7.059-7.056,7.079
		l-36.2,0.005c-3.896,0.005-7.063-3.155-7.063-7.048l-0.023-36.192c0.012-3.914,3.162-7.069,7.058-7.069l36.182-0.03
		c3.911,0.015,7.069,3.17,7.071,7.063L990.796,697.222z"/>
	<path fill-rule="evenodd" clip-rule="evenodd" fill="#7D8082" d="M265.805,637.252c0.003,3.898-3.16,7.058-7.063,7.063
		l-36.187,0.02c-3.896,0.005-7.061-3.155-7.066-7.048l-0.02-36.192c0-3.908,3.157-7.068,7.061-7.068l36.185-0.025
		c3.904,0,7.071,3.16,7.071,7.064L265.805,637.252z"/>
	<path fill-rule="evenodd" clip-rule="evenodd" fill="#7D8082" d="M326.183,637.222c0.005,3.898-3.158,7.059-7.054,7.059
		l-36.192,0.02c-3.896,0.01-7.066-3.165-7.066-7.059l-0.028-36.182c0.012-3.904,3.163-7.068,7.061-7.068l36.2-0.025
		c3.888,0,7.059,3.165,7.059,7.068L326.183,637.222z"/>
	<path fill-rule="evenodd" clip-rule="evenodd" fill="#7D8082" d="M386.557,637.181c0,3.909-3.153,7.063-7.051,7.063l-36.194,0.03
		c-3.896,0-7.072-3.165-7.072-7.063l-0.02-36.187c0-3.904,3.16-7.069,7.066-7.069l36.182-0.02c3.898-0.005,7.061,3.155,7.076,7.059
		L386.557,637.181z"/>
	<path fill-rule="evenodd" clip-rule="evenodd" fill="#7D8082" d="M446.932,637.151c0.005,3.904-3.157,7.064-7.058,7.064
		l-36.192,0.015c-3.893,0-7.059-3.155-7.059-7.059l-0.02-36.182c-0.005-3.904,3.158-7.058,7.046-7.074l36.202-0.01
		c3.886-0.01,7.056,3.145,7.066,7.054L446.932,637.151z"/>
	<path fill-rule="evenodd" clip-rule="evenodd" fill="#7D8082" d="M507.316,637.116c0.005,3.893-3.175,7.059-7.071,7.059
		l-36.185,0.025c-3.901,0-7.058-3.155-7.056-7.058l-0.03-36.187c0-3.904,3.162-7.074,7.054-7.074l36.202-0.015
		c3.891-0.01,7.056,3.165,7.056,7.058L507.316,637.116z"/>
	<path fill-rule="evenodd" clip-rule="evenodd" fill="#7D8082" d="M567.686,637.086c0,3.898-3.158,7.059-7.061,7.059l-36.189,0.02
		c-3.901,0-7.064-3.16-7.056-7.054l-0.035-36.192c0.01-3.898,3.167-7.064,7.069-7.069l36.192-0.01
		c3.896-0.005,7.064,3.14,7.064,7.054L567.686,637.086z"/>
	<path fill-rule="evenodd" clip-rule="evenodd" fill="#7D8082" d="M628.068,637.051c-0.005,3.904-3.165,7.059-7.071,7.059
		l-36.172,0.02c-3.908,0-7.078-3.155-7.074-7.059l-0.02-36.182c0-3.909,3.168-7.063,7.051-7.074l36.192-0.025
		c3.904,0,7.071,3.165,7.071,7.079L628.068,637.051z"/>
	<path fill-rule="evenodd" clip-rule="evenodd" fill="#7D8082" d="M688.438,637.005c0.007,3.909-3.155,7.068-7.056,7.074
		l-36.192,0.025c-3.898,0.005-7.063-3.15-7.069-7.068l-0.017-36.182c0-3.904,3.16-7.064,7.068-7.069l36.185-0.02
		c3.896,0,7.054,3.16,7.064,7.059L688.438,637.005z"/>
	<path fill-rule="evenodd" clip-rule="evenodd" fill="#7D8082" d="M748.815,636.971c0.005,3.898-3.153,7.079-7.056,7.074
		l-36.192,0.025c-3.899,0-7.064-3.171-7.066-7.064l-0.017-36.182c-0.01-3.904,3.16-7.059,7.061-7.068l36.182-0.025
		c3.891,0,7.063,3.155,7.063,7.068L748.815,636.971z"/>
	<path fill-rule="evenodd" clip-rule="evenodd" fill="#7D8082" d="M809.208,636.945c-0.01,3.909-3.175,7.063-7.074,7.063
		l-36.192,0.015c-3.891,0-7.068-3.155-7.068-7.059l-0.01-36.182c0-3.898,3.16-7.059,7.051-7.059l36.192-0.03
		c3.904,0,7.061,3.165,7.063,7.058L809.208,636.945z"/>
	<path fill-rule="evenodd" clip-rule="evenodd" fill="#7D8082" d="M869.572,636.91c-0.005,3.913-3.157,7.069-7.063,7.069
		l-36.182,0.015c-3.904,0-7.064-3.16-7.074-7.054l-0.023-36.192c0.01-3.889,3.175-7.064,7.056-7.064l36.205-0.025
		c3.896,0.005,7.054,3.165,7.063,7.059L869.572,636.91z"/>
	<path fill-rule="evenodd" clip-rule="evenodd" fill="#7D8082" d="M929.947,636.88c0.003,3.898-3.158,7.059-7.064,7.059l-36.18,0.03
		c-3.901,0-7.079-3.17-7.079-7.063l-0.012-36.187c-0.008-3.898,3.158-7.068,7.063-7.074l36.183-0.015
		c3.896,0,7.066,3.16,7.066,7.063L929.947,636.88z"/>
	<path fill-rule="evenodd" clip-rule="evenodd" fill="#7D8082" d="M875.382,878.419c-0.01,3.893-3.175,7.048-7.074,7.063
		l-36.177,0.015c-3.904,0-7.066-3.155-7.071-7.053l-0.03-36.198c0.005-3.904,3.175-7.063,7.056-7.063l36.202-0.015
		c3.898-0.015,7.066,3.16,7.066,7.059L875.382,878.419z"/>
	<path fill-rule="evenodd" clip-rule="evenodd" fill="#7D8082" d="M206.295,818.404c0,3.908-2.583,7.074-5.775,7.074l-41.975,0.02
		c-3.193,0-5.785-3.155-5.785-7.049l-0.015-36.202c0-3.888,2.585-7.058,5.78-7.058l41.972-0.03c3.19,0,5.778,3.155,5.785,7.048
		L206.295,818.404z"/>
	<path fill-rule="evenodd" clip-rule="evenodd" fill="#7D8082" d="M266.514,757.996c0,3.908-3.16,7.074-7.058,7.074l-101.606,0.05
		c-3.896,0-7.054-3.155-7.061-7.048l-0.018-36.192c-0.01-3.899,3.153-7.069,7.051-7.074l101.598-0.056
		c3.904,0,7.064,3.17,7.071,7.064L266.514,757.996z"/>
	<path fill-rule="evenodd" clip-rule="evenodd" fill="#7D8082" d="M1031.44,817.946c0.005,3.898-3.158,7.054-7.046,7.063
		l-136.834,0.07c-3.888,0.01-7.061-3.145-7.061-7.048l-0.015-36.202c-0.005-3.894,3.158-7.054,7.054-7.054l136.814-0.08
		c3.904,0,7.066,3.165,7.071,7.054L1031.44,817.946z"/>
	<path fill-rule="evenodd" clip-rule="evenodd" fill="#7D8082" d="M1045.662,636.82c0.003,3.893-3.15,7.063-7.056,7.063
		l-91.541,0.045c-3.884,0.005-7.059-3.155-7.063-7.059l-0.01-36.187c-0.005-3.894,3.158-7.069,7.054-7.069l91.545-0.055
		c3.886,0,7.056,3.155,7.056,7.063L1045.662,636.82z"/>
	<path fill-rule="evenodd" clip-rule="evenodd" fill="#7D8082" d="M256.411,697.639c0.01,3.894-3.158,7.059-7.051,7.059
		l-91.541,0.05c-3.898,0.01-7.059-3.155-7.063-7.048l-0.023-36.192c0.007-3.913,3.16-7.069,7.048-7.079l91.548-0.04
		c3.904-0.015,7.061,3.15,7.061,7.054L256.411,697.639z"/>
	<path fill-rule="evenodd" clip-rule="evenodd" fill="#7D8082" d="M265.775,576.874c0,3.898-3.16,7.064-7.061,7.069l-36.2,0.015
		c-3.891,0-7.056-3.16-7.056-7.048l-0.007-11.048c-0.008-3.898,3.155-7.054,7.056-7.054l36.192-0.025
		c3.898-0.005,7.059,3.16,7.066,7.049L265.775,576.874z"/>
	<path fill-rule="evenodd" clip-rule="evenodd" fill="#7D8082" d="M326.15,576.839c0,3.913-3.165,7.063-7.054,7.063l-36.2,0.025
		c-3.896,0-7.063-3.155-7.066-7.063l-0.003-11.032c-0.005-3.889,3.16-7.054,7.056-7.054l36.185-0.035
		c3.906,0,7.069,3.165,7.069,7.059L326.15,576.839z"/>
	<path fill-rule="evenodd" clip-rule="evenodd" fill="#7D8082" d="M386.525,576.809c0.002,3.899-3.168,7.064-7.056,7.074
		l-36.192,0.01c-3.896,0-7.066-3.165-7.066-7.054l-0.008-11.048c0-3.888,3.158-7.054,7.054-7.054l36.202-0.02
		c3.898,0,7.059,3.16,7.056,7.059L386.525,576.809z"/>
	<path fill-rule="evenodd" clip-rule="evenodd" fill="#7D8082" d="M446.899,576.769c0.005,3.894-3.162,7.059-7.048,7.059
		l-36.2,0.025c-3.901,0-7.064-3.155-7.069-7.044l-0.007-11.042c0-3.899,3.162-7.069,7.061-7.069l36.2-0.015
		c3.894,0,7.056,3.155,7.059,7.048L446.899,576.769z"/>
	<path fill-rule="evenodd" clip-rule="evenodd" fill="#7D8082" d="M507.279,576.744c0,3.899-3.158,7.054-7.059,7.064l-36.2,0.015
		c-3.896,0.005-7.056-3.16-7.046-7.054l-0.015-11.037c-0.015-3.898,3.142-7.068,7.056-7.063l36.19-0.02
		c3.901,0,7.059,3.16,7.059,7.058L507.279,576.744z"/>
	<path fill-rule="evenodd" clip-rule="evenodd" fill="#7D8082" d="M567.656,576.709c0.01,3.893-3.155,7.068-7.058,7.068
		l-36.195,0.02c-3.896-0.005-7.061-3.165-7.061-7.063l-0.018-11.032c0-3.899,3.16-7.064,7.064-7.074l36.192-0.02
		c3.901,0,7.063,3.17,7.063,7.068L567.656,576.709z"/>
	<path fill-rule="evenodd" clip-rule="evenodd" fill="#7D8082" d="M628.038,576.674c-0.002,3.904-3.17,7.058-7.066,7.063
		l-36.19,0.015c-3.896,0-7.066-3.155-7.068-7.048v-11.032c-0.01-3.913,3.158-7.068,7.051-7.068l36.182-0.02
		c3.914-0.01,7.071,3.155,7.076,7.058L628.038,576.674z"/>
	<path fill-rule="evenodd" clip-rule="evenodd" fill="#7D8082" d="M688.338,576.638c0.003,3.909-3.153,7.074-7.048,7.069
		l-36.2,0.015c-3.901,0.005-7.066-3.145-7.056-7.048l-0.012-11.037c-0.003-3.909,3.157-7.064,7.066-7.064l36.185-0.025
		c3.893,0,7.056,3.155,7.054,7.069L688.338,576.638z"/>
	<path fill-rule="evenodd" clip-rule="evenodd" fill="#7D8082" d="M748.718,576.603c0.01,3.904-3.155,7.068-7.054,7.068
		l-36.192,0.015c-3.906,0.01-7.071-3.165-7.063-7.049l-0.008-11.047c0-3.894,3.155-7.054,7.059-7.054l36.194-0.02
		c3.896-0.005,7.056,3.165,7.048,7.054L748.718,576.603z"/>
	<path fill-rule="evenodd" clip-rule="evenodd" fill="#7D8082" d="M809.097,576.568c0,3.893-3.158,7.074-7.064,7.068l-36.192,0.025
		c-3.896,0.005-7.054-3.155-7.066-7.059l-0.003-11.032c0.003-3.904,3.16-7.059,7.054-7.064l36.205-0.03
		c3.894-0.005,7.049,3.16,7.059,7.063L809.097,576.568z"/>
	<path fill-rule="evenodd" clip-rule="evenodd" fill="#7D8082" d="M869.472,576.538c0,3.898-3.16,7.064-7.063,7.064l-36.175,0.025
		c-3.916,0-7.066-3.165-7.066-7.058l-0.008-11.037c-0.007-3.899,3.143-7.059,7.048-7.059l36.192-0.02
		c3.896-0.005,7.059,3.15,7.071,7.048V576.538z"/>
	<path fill-rule="evenodd" clip-rule="evenodd" fill="#7D8082" d="M929.851,576.503c0,3.904-3.16,7.068-7.066,7.068l-36.185,0.015
		c-3.904,0-7.071-3.16-7.071-7.048v-11.043c0.003-3.893,3.158-7.063,7.059-7.063l36.189-0.015c3.901,0,7.066,3.155,7.059,7.049
		L929.851,576.503z"/>
	<path fill-rule="evenodd" clip-rule="evenodd" fill="#7D8082" d="M986.049,849.592c0.005,4.335-3.145,5.632-7.059,5.641
		l-36.185,0.02c-3.906,0-7.064-1.311-7.059-5.627l-0.02-6.672c0.005-4.32,3.16-7.832,7.061-7.837l36.194-0.02
		c3.894,0,7.064,3.501,7.066,7.837V849.592z"/>
	<path fill-rule="evenodd" clip-rule="evenodd" fill="#7D8082" d="M986.059,874.741c0.008,4.331-3.153,5.642-7.054,5.642
		l-36.182,0.02c-3.909,0.015-7.069-1.306-7.069-5.622l-0.008-6.662c0-4.326,3.155-7.837,7.059-7.837l36.185-0.025
		c3.913,0,7.068,3.506,7.074,7.832L986.059,874.741z"/>
	<path fill-rule="evenodd" clip-rule="evenodd" fill="#7D8082" d="M1041.41,874.721c0.003,4.316-3.15,5.637-7.061,5.632
		l-36.182,0.015c-3.908,0.015-7.058-1.296-7.066-5.617l-0.01-6.667c-0.007-4.321,3.16-7.832,7.061-7.832l36.192-0.03
		c3.896,0,7.064,3.512,7.056,7.837L1041.41,874.721z"/>
	<path fill-rule="evenodd" clip-rule="evenodd" fill="#7D8082" d="M930.718,874.781c0.003,4.331-3.16,5.637-7.054,5.642l-36.19,0.02
		c-3.904,0-7.074-1.301-7.074-5.632l0.005-6.656c-0.012-4.336,3.153-7.843,7.051-7.843l36.194-0.025
		c3.896-0.005,7.059,3.506,7.059,7.827L930.718,874.781z"/>
	<path fill-rule="evenodd" clip-rule="evenodd" fill="#7D8082" d="M737.471,835.233h-3.004l-33.19,0.03l-24.183,0.005l-36.19,0.02
		l-24.183,0.025l-36.2,0.01l-24.175,0.025l-36.197,0.005l-24.185,0.01l-36.185,0.04l-24.192,0.005h-18.091l-18.096,0.03
		c-3.898,0-7.064,3.155-7.059,7.063l0.025,36.177c0.003,3.903,3.16,7.063,7.063,7.063l18.094-0.02h18.099l24.185-0.015l36.197-0.015
		l24.18-0.02l36.187-0.02l24.185-0.015l36.192-0.015l24.188-0.015l36.194-0.025l24.18-0.02l33.185-0.015h3.01
		c3.891,0,7.053-3.165,7.051-7.063l-0.02-36.192C744.533,838.399,741.372,835.233,737.471,835.233z"/>
	<path fill-rule="evenodd" clip-rule="evenodd" fill="#7D8082" d="M1044.082,653.951l-36.197,0.01
		c-3.889,0.005-7.056,3.16-7.056,7.069l0.028,36.187c0,3.893,3.165,7.064,7.061,7.054h2.992l0.023,17.132l0.01,23.13v13.062
		c0,3.899,3.175,7.059,7.068,7.054l26.132-0.02c3.896,0,7.064-3.155,7.054-7.063v-13.062l-0.02-23.125l-0.015-24.185v-18.096
		l-0.018-18.107C1051.144,657.091,1047.974,653.931,1044.082,653.951z"/>
	<path fill-rule="evenodd" clip-rule="evenodd" fill="#E6E645" d="M977.978,553.795c5.155,0,9.357-4.2,9.357-9.355
		c0-5.144-4.203-9.349-9.357-9.349c-5.152,0-9.35,4.205-9.35,9.349C968.628,549.595,972.826,553.795,977.978,553.795z"/>
	<path fill-rule="evenodd" clip-rule="evenodd" fill="#E6E645" d="M1019.262,553.157c5.157,0,9.359-4.205,9.359-9.36
		c0-5.144-4.202-9.349-9.359-9.349c-5.147,0-9.352,4.205-9.352,9.349C1009.91,548.952,1014.115,553.157,1019.262,553.157z"/>
	<path fill-rule="evenodd" clip-rule="evenodd" fill="#DCDBDA" d="M1059.908,553.157c5.15,0,9.357-4.205,9.357-9.36
		c0-5.144-4.207-9.349-9.357-9.349c-5.152,0-9.352,4.205-9.352,9.349C1050.556,548.952,1054.755,553.157,1059.908,553.157z"/>
</g>
</svg>
