<?xml version="1.0" encoding="utf-8"?>
<!-- Generator: Adobe Illustrator 17.0.0, SVG Export Plug-In . SVG Version: 6.00 Build 0)  -->
<!DOCTYPE svg PUBLIC "-//W3C//DTD SVG 1.1//EN" "http://www.w3.org/Graphics/SVG/1.1/DTD/svg11.dtd">
<svg version="1.1" id="Layer_1" xmlns="http://www.w3.org/2000/svg" xmlns:xlink="http://www.w3.org/1999/xlink" x="0px" y="0px"
	 width="1200px" height="1200px" viewBox="0 0 1200 1200" enable-background="new 0 0 1200 1200" xml:space="preserve">
<g>
	<path fill="#F59B2E" d="M967.821,500.362c0,248.747-201.634,450.362-450.367,450.362S67.092,749.109,67.092,500.362
		C67.092,251.634,268.722,50,517.454,50S967.821,251.634,967.821,500.362z"/>
	<g>
		<defs>
			<path id="SVGID_1_" d="M967.821,500.362c0,248.747-201.634,450.362-450.367,450.362S67.092,749.109,67.092,500.362
				C67.092,251.634,268.722,50,517.454,50S967.821,251.634,967.821,500.362z"/>
		</defs>
		<clipPath id="SVGID_2_">
			<use xlink:href="#SVGID_1_"  overflow="visible"/>
		</clipPath>
		<linearGradient id="SVGID_3_" gradientUnits="userSpaceOnUse" x1="1007.4437" y1="925.6226" x2="586.7455" y2="577.0438">
			<stop  offset="0" style="stop-color:#FFFFFF"/>
			<stop  offset="0.0718" style="stop-color:#DFDFDF"/>
			<stop  offset="0.2156" style="stop-color:#A5A5A5"/>
			<stop  offset="0.3593" style="stop-color:#727272"/>
			<stop  offset="0.4998" style="stop-color:#494949"/>
			<stop  offset="0.6362" style="stop-color:#292929"/>
			<stop  offset="0.7674" style="stop-color:#121212"/>
			<stop  offset="0.8912" style="stop-color:#050505"/>
			<stop  offset="1" style="stop-color:#000000"/>
		</linearGradient>
		<polygon opacity="0.5" clip-path="url(#SVGID_2_)" fill="url(#SVGID_3_)" points="438.119,788.044 800.075,1150 
			1030.998,1065.885 1132.907,726.278 858.516,450.273 600.317,192.092 543.547,222.946 527.695,303.561 506.348,347.116 
			545.172,378.84 541.923,390.188 511.794,365.056 429.904,422.647 390.939,481.107 378.281,508.539 488.345,632.111 
			403.645,600.058 		"/>
	</g>
	<g>
		<path fill="#004E6F" d="M598.949,189.463c-12.919-9.937-42.473,0.057-52.627,7.945c-44.087,34.199-40.526,137.993-39.974,149.708
			l29.709-1.392c-1.76-38.316,4.408-106.134,28.495-124.827c4.34-3.345,11.71-7.289,25.654-2.997
			C590.206,217.9,607.117,195.726,598.949,189.463z"/>
		<path fill="#004E6F" d="M377.204,542.004v133.198c0,77.426,62.781,140.216,140.251,140.216
			c77.449,0,140.255-62.79,140.255-140.216V542.004H377.204z"/>
		<g>
			<g>
				<path fill="#FFFFFF" d="M511.794,365.056c-74.82,2.977-134.591,64.57-134.591,140.139v2.803h134.591V365.056z"/>
				<path fill="#FFFFFF" d="M528.797,365.423v142.575h128.911v-2.803C657.709,431.521,600.959,371.185,528.797,365.423z"/>
			</g>
		</g>
		<path opacity="0.4" fill="#FFFFFF" d="M594.85,190.757c0,0-56.077-18.095-77.401,64.879c0,0-7.883,31.995-7.419,85.758
			l11.59-0.464c0,0-10.193-148.316,66.28-138.592C587.901,202.338,593.463,197.234,594.85,190.757z"/>
		<path fill="#F59B2E" d="M466.968,385.607c0,0-52.037,11-73.057,83.07C393.912,468.677,442.948,456.672,466.968,385.607z"/>
		<path fill="#F59B2E" d="M562.208,381.295c0,0,52.481,8.661,76.695,79.707C638.903,461.002,589.379,451.2,562.208,381.295z"/>
		<path opacity="0.2" d="M410.924,736.852c0,0,29.017,61.051,112.078,65.053c0,0,55.435,2.629,95.066-62.037
			C618.068,739.868,550.024,791.91,410.924,736.852z"/>
	</g>
</g>
</svg>
