<?xml version="1.0" encoding="utf-8"?>
<!-- Designed by Vexels.com - 2016 All Rights Reserved - https://vexels.com/terms-and-conditions/  -->

<svg version="1.1" id="Layer_1" xmlns="http://www.w3.org/2000/svg" xmlns:xlink="http://www.w3.org/1999/xlink" x="0px" y="0px"
	 width="1200px" height="1200px" viewBox="0 0 1200 1200" enable-background="new 0 0 1200 1200" xml:space="preserve">
<g>
	<path fill-rule="evenodd" clip-rule="evenodd" fill="#FFEECE" d="M645.083,1018.873c-30.349-7.352-130.422-55.256-184.962-61.894
		c-32.723-19.914-65.45-39.834-98.17-59.754c37.94,8.774,101.489,16.834,150.102,49.794
		C557.108,972.632,605.007,989.702,645.083,1018.873z"/>
	<path fill-rule="evenodd" clip-rule="evenodd" fill="#FFEECE" d="M365.506,895.09c32.726,19.924,65.447,39.834,98.17,59.754
		c-33.671,37.231-68.766,71.613-71.138,130.899c-59.107-13.783-109.673-13.34-158.106,1.334
		c-41.584-25.259-83.162-50.512-124.741-75.776c11.761,2.997,23.522,5.998,35.282,8.99c52.171-18.02,105.763-17.543,156.509-7.106
		C311.441,956.029,339.185,920.934,365.506,895.09z"/>
	<path fill-rule="evenodd" clip-rule="evenodd" fill="#9E2B2D" d="M659.562,670.09l34.042-86.681
		c-78.696,16.588-206.928-7.342-202.984,86.247c2.603,61.796,55.777,51.88,58.28,54.488c17.331,2.338-20.83-39.436-3.504-37.093
		C572.784,698.468,648.542,682.859,659.562,670.09z"/>
	<path fill-rule="evenodd" clip-rule="evenodd" fill="#666265" d="M925.225,782.575l-91.661,16.662
		c14.251,35.647,53.701,132.223-9.753,158.052c-2.628,1.068-27.805,11.928-27.926,11.992c-0.982,5.512,75.539,13.911,82.611-2.352
		c7.563-17.39,28.059,40.932,29.358-23.955c0.167-8.351,12.922-89.583,14.688-117.696
		C923.439,811.042,924.335,796.811,925.225,782.575z"/>
	<path fill-rule="evenodd" clip-rule="evenodd" fill="#241D1E" d="M908.46,782.575l-90.617,16.662
		c16.485,35.647,62.013,132.223,0.175,158.052c-2.561,1.068-27.052,11.928-27.168,11.992c-0.635,5.512,76.413,13.911,82.46-2.352
		c6.466-17.39,30.628,40.932,27.852-23.955c-0.354-8.351,7.297-89.583,7.297-117.696C908.46,811.042,908.46,796.811,908.46,782.575z
		"/>
	<path fill="#1A1414" d="M908.46,782.575l-0.089-0.443l-91.19,16.77l0.246,0.532c10.233,22.104,31.611,67.671,31.602,105.094
		c0,11.436-1.993,22.1-6.88,31.105c-4.886,9.005-12.663,16.366-24.306,21.234c-1.297,0.541-8.053,3.518-14.509,6.382
		c-3.233,1.427-6.385,2.824-8.737,3.863c-1.176,0.522-2.153,0.959-2.839,1.264c-0.345,0.148-0.61,0.271-0.8,0.355l-0.219,0.098
		l-0.056,0.029l-0.052,0.025l-0.209,0.113l-0.027,0.231l-0.008,0.118c0,0.354,0.172,0.655,0.396,0.906
		c0.438,0.463,1.132,0.852,2.076,1.245c3.309,1.378,9.81,2.701,17.804,3.71c7.992,1.004,17.454,1.673,26.592,1.673
		c8.67,0,17.05-0.6,23.627-2.101c3.29-0.753,6.131-1.722,8.338-2.977c2.21-1.255,3.804-2.8,4.517-4.714
		c0.438-1.181,0.952-1.964,1.491-2.431c0.536-0.473,1.097-0.665,1.745-0.665c1.099-0.01,2.473,0.625,3.964,1.629
		c2.224,1.506,4.694,3.818,7.121,5.752c2.431,1.934,4.803,3.548,7.062,3.568c1.018,0.01,2.013-0.364,2.844-1.181
		c1.25-1.23,2.19-3.376,2.854-6.796c0.66-3.425,1.019-8.144,1.019-14.536c0-2.82-0.069-5.969-0.217-9.473
		c-0.01-0.177-0.01-0.404-0.01-0.664c0-5.615,1.826-28.029,3.647-52.427c1.826-24.402,3.661-50.818,3.661-64.586
		c0-14.236,0-28.467,0-42.703v-0.546l-0.546,0.103L908.46,782.575h-0.468c0,14.236,0,28.467,0,42.703
		c0.01,13.7-1.821,40.124-3.646,64.517c-1.826,24.412-3.651,46.772-3.651,52.496c0,0.271,0.005,0.507,0.015,0.703
		c0.148,3.494,0.217,6.629,0.217,9.433c0,8.473-0.655,13.96-1.732,17.262c-0.546,1.648-1.186,2.751-1.869,3.415
		c-0.689,0.66-1.393,0.916-2.205,0.92c-1.191,0.01-2.628-0.625-4.143-1.634c-2.293-1.506-4.778-3.813-7.17-5.752
		c-2.401-1.924-4.684-3.543-6.832-3.568c-0.841-0.005-1.658,0.286-2.352,0.895c-0.694,0.61-1.267,1.535-1.739,2.805
		c-0.605,1.629-2.013,3.046-4.111,4.237c-6.292,3.582-18.579,4.965-31.515,4.955c-11.089,0-22.675-0.994-31.469-2.372
		c-4.396-0.689-8.105-1.471-10.68-2.269c-1.287-0.393-2.296-0.802-2.952-1.176c-0.328-0.187-0.559-0.369-0.696-0.516
		c-0.133-0.153-0.155-0.246-0.155-0.286v-0.015l-0.453-0.049l0.219,0.404l-0.194-0.359l0.174,0.369l0.02-0.01l-0.194-0.359
		l0.174,0.369c0.271-0.133,24.619-10.935,27.146-11.987c11.818-4.931,19.779-12.46,24.757-21.642
		c4.982-9.177,6.992-19.998,6.992-31.538c-0.01-37.748-21.457-83.353-31.688-105.478l-0.413,0.187l0.081,0.453l90.614-16.662
		L908.46,782.575h-0.468H908.46z"/>
	<path fill-rule="evenodd" clip-rule="evenodd" fill="#666265" d="M749.985,786.738l-91.66,16.667
		c14.248,35.646,53.706,132.227-9.755,158.047c-2.628,1.068-27.805,11.933-27.926,11.992c-0.982,5.516,75.539,13.916,82.611-2.347
		c7.561-17.395,28.056,40.931,29.358-23.955c0.17-8.35,12.927-89.589,14.693-117.692
		C748.198,815.21,749.094,800.979,749.985,786.738z"/>
	<path fill-rule="evenodd" clip-rule="evenodd" fill="#241D1E" d="M733.478,786.738l-90.617,16.667
		c16.487,35.646,62.012,132.227,0.177,158.047c-2.559,1.068-27.05,11.933-27.165,11.992c-0.635,5.516,76.408,13.916,82.458-2.347
		c6.469-17.395,30.63,40.931,27.855-23.955c-0.357-8.35,7.292-89.589,7.292-117.692C733.478,815.21,733.478,800.979,733.478,786.738
		z"/>
	<path fill="#1A1414" d="M733.478,786.738l-0.086-0.443l-91.193,16.77l0.248,0.532c10.233,22.104,31.614,67.671,31.604,105.094
		c0,11.436-1.995,22.104-6.882,31.109c-4.887,9.006-12.661,16.362-24.309,21.228c-1.292,0.542-8.048,3.519-14.509,6.382
		c-3.228,1.432-6.382,2.825-8.734,3.868c-1.174,0.522-2.151,0.955-2.837,1.26c-0.345,0.153-0.613,0.271-0.8,0.354l-0.217,0.103
		l-0.059,0.025l-0.054,0.03l-0.209,0.113l-0.027,0.231l-0.005,0.118c0.003,0.349,0.167,0.65,0.396,0.9
		c0.433,0.468,1.127,0.856,2.074,1.255c3.312,1.368,9.812,2.697,17.809,3.706c7.989,0.999,17.449,1.668,26.59,1.668
		c8.673,0,17.053-0.6,23.625-2.096c3.29-0.753,6.131-1.722,8.341-2.977c2.207-1.255,3.804-2.8,4.515-4.714
		c0.438-1.181,0.952-1.963,1.491-2.436c0.536-0.472,1.098-0.659,1.745-0.664c1.102-0.01,2.475,0.625,3.961,1.634
		c2.229,1.506,4.699,3.814,7.126,5.752c2.431,1.934,4.8,3.553,7.059,3.573c1.018,0,2.013-0.374,2.844-1.186
		c1.248-1.23,2.19-3.376,2.854-6.801c0.657-3.424,1.024-8.139,1.024-14.531c0-2.825-0.072-5.974-0.222-9.478
		c-0.005-0.177-0.012-0.399-0.012-0.664c0-5.615,1.826-28.024,3.651-52.426c1.828-24.403,3.654-50.813,3.654-64.576
		c0-14.24,0-28.472,0-42.712v-0.546l-0.541,0.103L733.478,786.738h-0.463c0,14.24,0,28.472,0,42.712
		c0.005,13.695-1.823,40.115-3.646,64.512c-1.828,24.412-3.651,46.767-3.654,52.49c0,0.275,0.003,0.506,0.013,0.703
		c0.148,3.494,0.221,6.633,0.221,9.438c0.003,8.473-0.657,13.955-1.734,17.262c-0.546,1.649-1.186,2.746-1.872,3.41
		c-0.686,0.664-1.393,0.92-2.202,0.925c-1.191,0.005-2.623-0.625-4.146-1.634c-2.293-1.506-4.773-3.814-7.169-5.752
		c-2.402-1.929-4.68-3.548-6.83-3.568c-0.842-0.005-1.658,0.28-2.35,0.895c-0.694,0.615-1.27,1.53-1.739,2.805
		c-0.605,1.629-2.015,3.041-4.114,4.232c-6.287,3.587-18.578,4.965-31.513,4.96c-11.087,0-22.673-0.989-31.471-2.367
		c-4.397-0.689-8.103-1.476-10.679-2.273c-1.289-0.394-2.298-0.802-2.952-1.181c-0.325-0.187-0.561-0.364-0.696-0.512
		c-0.135-0.153-0.158-0.246-0.158-0.285l0.003-0.015l-0.453-0.054l0.219,0.404l-0.199-0.359l0.182,0.369l0.017-0.01l-0.199-0.359
		l0.182,0.369c0.266-0.133,24.614-10.929,27.141-11.977c11.82-4.936,19.779-12.46,24.759-21.647c4.98-9.182,6.99-20.003,6.99-31.543
		c-0.01-37.743-21.46-83.349-31.685-105.478l-0.419,0.192l0.084,0.452l90.615-16.667L733.478,786.738h-0.463H733.478z"/>
	<path fill-rule="evenodd" clip-rule="evenodd" fill="#E83A4B" d="M706.387,731.083L596.723,788.47
		c-24.078,63.552,390.893,116.313,390.893-62.662L706.387,731.083z"/>
	<path fill-rule="evenodd" clip-rule="evenodd" fill="#9E2B2D" d="M699.977,734.115l-109.663,53.971
		c-24.075,57.161,390.891,92.979,390.891-66.185L699.977,734.115z"/>
	<path fill-rule="evenodd" clip-rule="evenodd" fill="#E83A4B" d="M956.379,550.268c-119.815-2.382-225.046-4.783-344.859-7.17
		c-77.641,84.102-71.519,186.538-45.749,225c18.561,27.699,184.74,31.109,189.895,9.034c2.736-11.722,14.484-15.156,17.855-8.567
		c0.637,1.24,8.513,13.282,26.735,15.181c75.143,7.829,196.311-11.352,217.712-25.539
		C1053.89,734.4,1007.009,585.801,956.379,550.268z"/>
	<path fill-rule="evenodd" clip-rule="evenodd" fill="#C62D32" d="M941.867,560.341c-111.636-2.229-209.689-4.458-321.33-6.683
		c-72.336,78.369-66.64,173.809-42.624,209.647c17.294,25.809,172.138,28.983,176.938,8.414c2.549-10.919,13.498-14.113,16.64-7.977
		c0.591,1.146,7.93,12.376,24.904,14.142c70.013,7.293,182.924-10.58,202.858-23.797
		C1032.73,731.91,989.043,593.438,941.867,560.341z"/>
	<path fill-rule="evenodd" clip-rule="evenodd" fill="#727276" d="M546.89,687.687c164.784,44.435,343.171,14.236,479.606-12.154
		c3.637,5.098,15.053,58.445,7.573,76.032c-153.368,28.029-344.544,51.058-479.559,11.805
		C550.874,757.587,544.708,694.861,546.89,687.687z"/>
	<path fill-rule="evenodd" clip-rule="evenodd" fill="#50494E" d="M546.89,678.633c160.456,9.817,343.171,14.236,479.606-12.15
		c3.637,5.088,15.053,58.44,7.573,76.027c-153.368,28.024-344.544,51.058-479.559,11.805
		C550.874,748.528,544.708,685.802,546.89,678.633z"/>
	<path fill-rule="evenodd" clip-rule="evenodd" fill="#FFFFFF" d="M756.508,773.408c-71.962,9.207-110.434,14.718-190.321,0.615
		c-15.055-2.657-24.641,25.692,4.052,38.23c40.132,17.543,137.306,11.259,174.219-16.632
		C759.172,784.499,769.457,772.138,756.508,773.408z"/>
	<path fill-rule="evenodd" clip-rule="evenodd" fill="#E5E4E6" d="M756.508,766.715c-71.962,9.207-110.434,14.718-190.321,0.615
		c-15.055-2.657-24.641,25.682,4.052,38.23c40.132,17.538,137.306,11.264,174.219-16.633
		C759.172,777.807,769.457,765.446,756.508,766.715z"/>
	<path fill="#E2B748" d="M756.508,766.715l-0.022-0.177c-40.518,5.192-70.407,9.197-103.044,9.197
		c-25.333,0-52.321-2.411-87.227-8.572c-0.674-0.123-1.341-0.177-1.993-0.177c-3.59,0-6.756,1.737-9.022,4.517
		c-2.263,2.786-3.629,6.614-3.629,10.807c-0.003,8.075,5.09,17.508,18.603,23.413c15.074,6.584,38.131,9.812,63.03,9.812
		c41.557,0,88.216-8.98,111.361-26.464c5.007-3.789,9.505-7.716,12.753-11.215c3.245-3.499,5.263-6.53,5.278-8.656
		c0.003-0.856-0.355-1.575-1.088-2.037c-0.731-0.472-1.818-0.714-3.307-0.714c-0.516,0-1.087,0.03-1.71,0.089h-0.003h-0.002
		L756.508,766.715l0.017,0.167c0.613-0.059,1.171-0.088,1.675-0.088c1.452,0,2.475,0.246,3.115,0.654
		c0.639,0.419,0.925,0.989,0.927,1.752c0.013,1.909-1.946,4.96-5.182,8.425c-3.228,3.469-7.709,7.391-12.706,11.165
		c-23.014,17.395-69.646,26.4-111.152,26.395c-24.865,0-47.896-3.228-62.888-9.783c-13.419-5.866-18.397-15.166-18.399-23.093
		c0-4.114,1.341-7.869,3.555-10.58c2.209-2.716,5.277-4.4,8.749-4.4c0.63,0,1.279,0.054,1.936,0.172
		c34.918,6.161,61.928,8.582,87.283,8.582c32.667,0,62.575-4.016,103.086-9.202L756.508,766.715l0.017,0.167L756.508,766.715z"/>
	<path fill-rule="evenodd" clip-rule="evenodd" fill="#FFFFFF" d="M772.586,772.477c88.312,5.452,135.588,8.936,231.426-8.41
		c18.06-3.267,32.285,23.541-1.457,36.966c-60.3,23.989-167.726,15.028-224.15-13.847
		C758.343,776.921,756.087,771.848,772.586,772.477z"/>
	<path fill-rule="evenodd" clip-rule="evenodd" fill="#E5E4E6" d="M772.586,765.78c88.312,5.457,135.588,8.946,231.426-8.405
		c18.06-3.267,32.285,23.546-1.457,36.966c-60.3,23.989-167.726,15.023-224.15-13.847
		C758.343,770.224,756.087,765.15,772.586,765.78z"/>
	<path fill-rule="evenodd" clip-rule="evenodd" fill="#FED36D" d="M711.593,676.969h88.828c12.44,0,22.611,10.279,22.611,22.847
		v66.918c0,12.568-10.172,22.858-22.611,22.858h-88.828c-12.438,0-22.606-10.289-22.606-22.858v-66.918
		C688.987,687.249,699.155,676.969,711.593,676.969z M728.616,698.552c-7.667,0-13.943,6.343-13.943,14.093v41.271
		c0,7.75,6.276,14.088,13.943,14.088H783.4c7.669,0,13.941-6.338,13.941-14.088v-41.271c0-7.75-6.272-14.093-13.941-14.093H728.616z
		"/>
	<path fill-rule="evenodd" clip-rule="evenodd" fill="#F5B81D" d="M710.798,674.75h85.718c11.997,0,21.817,9.92,21.817,22.045
		v64.581c0,12.125-9.819,22.05-21.817,22.05h-85.718c-11.997,0-21.811-9.925-21.811-22.05v-64.581
		C688.987,684.67,698.801,674.75,710.798,674.75z M727.231,695.575c-7.403,0-13.458,6.121-13.458,13.601v39.819
		c0,7.48,6.055,13.596,13.458,13.596h52.859c7.396,0,13.451-6.117,13.451-13.596v-39.819c0-7.48-6.055-13.601-13.451-13.601H727.231
		z"/>
	<path fill-rule="evenodd" clip-rule="evenodd" fill="#241D1E" d="M577.473,719.288c3.88,0,7.029,3.14,7.029,7.027
		c0,3.882-3.149,7.027-7.029,7.027c-3.882,0-7.034-3.144-7.034-7.027C570.439,722.428,573.591,719.288,577.473,719.288z"/>
	<path fill-rule="evenodd" clip-rule="evenodd" fill="#241D1E" d="M618.09,722.408c3.885,0,7.034,3.149,7.034,7.032
		c0,3.882-3.149,7.027-7.034,7.027c-3.88,0-7.027-3.144-7.027-7.027C611.063,725.558,614.21,722.408,618.09,722.408z"/>
	<path fill-rule="evenodd" clip-rule="evenodd" fill="#241D1E" d="M656.11,726.571c3.883,0,7.03,3.154,7.03,7.032
		c0,3.883-3.147,7.037-7.03,7.037s-7.034-3.154-7.034-7.037C649.076,729.725,652.228,726.571,656.11,726.571z"/>
	<path fill-rule="evenodd" clip-rule="evenodd" fill="#241D1E" d="M848.793,725.016c3.885,0,7.034,3.14,7.034,7.027
		c0,3.883-3.149,7.027-7.034,7.027c-3.88,0-7.029-3.144-7.029-7.027C841.763,728.156,844.913,725.016,848.793,725.016z"/>
	<path fill-rule="evenodd" clip-rule="evenodd" fill="#241D1E" d="M890.455,720.327c3.883,0,7.032,3.144,7.032,7.027
		c0,3.888-3.149,7.032-7.032,7.032s-7.027-3.144-7.027-7.032C883.428,723.471,886.572,720.327,890.455,720.327z"/>
	<path fill-rule="evenodd" clip-rule="evenodd" fill="#ED6978" d="M862.947,293.13L683.15,256.608
		c-44.902-62.248-2.374-157.225,116.936-142.266c145.831,18.296,171.207,49.951,206.091,198.373
		c5.28,22.439,29.844,110.551,67.538,64.99c2.298-2.78,8.311-9.487,10.447-14.098c1.555-3.376,9.935-5.216,15.899,6.673
		c2.647,5.261-9.876,15.86-16.878,25.756c-12.75,18.03-67.898,42.083-112.47-28.492C948.683,332.664,903.898,298.267,862.947,293.13
		z"/>
	<path fill-rule="evenodd" clip-rule="evenodd" fill="#DF2832" d="M862.66,289.494l-182.25-45.468
		c-25.633-35.533-22.776-81.735,6.596-112.062c65.637-67.764,232.428-59.759,286.655,69.029
		c10.781,25.589,20.052,57.766,29.775,99.14c5.275,22.444,29.845,110.556,67.534,64.99c2.303-2.78,8.316-9.487,10.447-14.093
		c1.555-3.381,9.94-5.216,15.899,6.668c2.647,5.265-9.871,15.854-16.878,25.76c-12.75,18.025-67.888,42.078-112.465-28.492
		C945.947,320.081,903.613,294.626,862.66,289.494z"/>
	<g>
		<defs>
			<path id="SVGID_1_" d="M862.66,289.494l-182.25-45.468c-25.633-35.533-22.776-81.735,6.596-112.062
				c65.637-67.764,232.428-59.759,286.655,69.029c10.781,25.589,20.052,57.766,29.775,99.14
				c5.275,22.444,29.845,110.556,67.534,64.99c2.303-2.78,8.316-9.487,10.447-14.093c1.555-3.381,9.94-5.216,15.899,6.668
				c2.647,5.265-9.871,15.854-16.878,25.76c-12.75,18.025-67.888,42.078-112.465-28.492
				C945.947,320.081,903.613,294.626,862.66,289.494z"/>
		</defs>
		<clipPath id="SVGID_2_">
			<use xlink:href="#SVGID_1_"  overflow="visible"/>
		</clipPath>
		<path clip-path="url(#SVGID_2_)" fill-rule="evenodd" clip-rule="evenodd" fill="#E83A4B" d="M868.24,309.861
			c12.289-10.206,36.348-17.316,38.183-36.025c-4.552-107.687-194.4-92.871-201.424-100.242
			c-30.396-31.882,27.074-75.348,95.287-66.795c119.434,14.979,158.372,55.728,189.314,187.395
			c4.67,19.9,48.603,139.707,82.035,99.292c7.022-8.489,33.954-29.815,9.537,17.361c-7.229,13.946-83.496-5.432-123.03-68.025
			C938.595,311.884,904.563,314.418,868.24,309.861z"/>
	</g>
	<path fill-rule="evenodd" clip-rule="evenodd" fill="#FFFFFF" d="M1108.063,290.94c25.707,3.74,44.366,27.931,41.679,54.021
		c-2.697,26.1-25.711,44.214-51.423,40.464c-25.716-3.74-44.371-27.931-41.684-54.026
		C1059.332,305.314,1082.357,287.191,1108.063,290.94z"/>
	<path fill-rule="evenodd" clip-rule="evenodd" fill="#E5E4E6" d="M1105.657,290.586c24.382,3.558,42.083,26.494,39.524,51.24
		c-2.544,24.742-24.382,41.93-48.76,38.373c-24.378-3.548-42.083-26.489-39.524-51.236
		C1059.441,304.217,1081.279,287.033,1105.657,290.586z"/>
	<path fill-rule="evenodd" clip-rule="evenodd" fill="#FFFFFF" d="M1102.65,297.018c16.78,2.445,28.969,18.246,27.207,35.287
		c-1.752,17.036-16.79,28.86-33.575,26.42c-16.79-2.446-28.969-18.246-27.217-35.283
		C1070.828,306.407,1085.861,294.577,1102.65,297.018z"/>
	<path fill-rule="evenodd" clip-rule="evenodd" fill="#FFFFFF" d="M862.064,629.291c-17.075,43.323-39.844,55.689-100.791,54.788
		c-73.601-1.092-94.323-23.285-94.323-40.582c0-1.904,0.143-7.44,0.657-13.867c-70.122-6.353-116.52-20.766-116.52-45.813
		c0-7.583,4.069-29.422,12.066-45.095c-32.689-16.066-52.205-34.431-51.117-98.746c1.09-64.315,70.156-194.082,243.408-194.082
		c173.255,0,248.475,161.939,249.572,200.617c1.078,38.678-17.001,61.757-31.788,73.945c26.681,29.516,25.613,73.837-20.928,91.065
		C930.176,619.716,898.968,625.664,862.064,629.291z"/>
	<path fill-rule="evenodd" clip-rule="evenodd" fill="#E5E4E6" d="M857.443,624.237c-16.844,42.752-39.317,54.951-99.457,54.061
		c-72.629-1.078-93.077-22.975-93.077-40.046c0-1.875,0.141-7.342,0.65-13.685c-69.202-6.269-114.987-20.495-114.987-45.213
		c0-7.484,4.016-29.033,11.909-44.484c-32.259-15.86-51.518-33.983-50.443-97.447c1.072-63.469,69.226-191.528,240.195-191.528
		c170.967,0,245.202,159.803,246.275,197.969c1.078,38.171-16.775,60.94-31.365,72.971c26.336,29.126,25.273,72.863-20.648,89.869
		C924.66,614.78,893.86,620.65,857.443,624.237z"/>
	<path fill-rule="evenodd" clip-rule="evenodd" fill="#FFFFFF" d="M846.66,609.288c-15.818,40.838-36.921,52.486-93.395,51.644
		c-68.2-1.028-87.404-21.952-87.404-38.255c0-1.796,0.128-7.017,0.613-13.075c-64.987-5.993-107.978-19.58-107.978-43.195
		c0-7.145,3.764-27.734,11.182-42.496c-30.292-15.151-48.379-32.463-47.37-93.092c1.011-60.629,65.007-182.971,225.556-182.971
		c160.547,0,230.251,152.668,231.259,189.127c1.013,36.463-15.752,58.213-29.446,69.708c24.722,27.818,23.733,69.61-19.393,85.844
		C909.779,600.254,880.864,605.858,846.66,609.288z"/>
	<ellipse fill-rule="evenodd" clip-rule="evenodd" fill="#FAC6A1" cx="589.296" cy="388.515" rx="37.737" ry="36.645"/>
	<path fill-rule="evenodd" clip-rule="evenodd" fill="#E5A16E" d="M589.296,367.351c12.034,0,21.789,9.477,21.789,21.164
		c0,11.687-9.755,21.159-21.789,21.159c-12.029,0-21.785-9.473-21.785-21.159C567.511,376.828,577.267,367.351,589.296,367.351z"/>
	<path fill-rule="evenodd" clip-rule="evenodd" fill="#FFFFFF" d="M590.319,404.144c-13.525-13.498-13.466-45.773,1.117-71.303
		c4.424-7.75,24.636,0.379,25.994,9.453c1.326,8.843-1.356,51.388-10.843,64.94C603.111,412.194,597.388,411.195,590.319,404.144z"
		/>
	<path fill-rule="evenodd" clip-rule="evenodd" fill="#FCD4B7" d="M930.284,358.115c19.875,0,35.996,17.144,35.996,38.289
		s-16.121,38.289-35.996,38.289c-19.88,0-35.986-17.144-35.986-38.289S910.404,358.115,930.284,358.115z"/>
	<path fill-rule="evenodd" clip-rule="evenodd" fill="#F7B17D" d="M922.888,376.465c10.353,0,18.748,8.921,18.748,19.939
		c0,11.013-8.395,19.939-18.748,19.939s-18.748-8.926-18.748-19.939C904.14,385.386,912.534,376.465,922.888,376.465z"/>
	<path fill-rule="evenodd" clip-rule="evenodd" fill="#FEF4ED" d="M760.85,256.711c89.382,0,161.846,62.421,161.846,139.417
		c0,76.991-72.464,139.407-161.846,139.407c-89.384,0-161.846-62.416-161.846-139.407
		C599.004,319.132,671.466,256.711,760.85,256.711z"/>
	<path fill-rule="evenodd" clip-rule="evenodd" fill="#FAC6A1" d="M750.034,257.513c89.382,0,161.841,62.421,161.841,139.417
		c0,76.991-72.459,139.407-161.841,139.407c-89.387,0-161.846-62.416-161.846-139.407
		C588.188,319.934,660.647,257.513,750.034,257.513z"/>
	<path fill-rule="evenodd" clip-rule="evenodd" fill="#FCD4B7" d="M740.773,290.321c86.872,0,157.294,52.426,157.294,117.095
		c0,64.67-70.422,117.096-157.294,117.096c-86.877,0-157.299-52.426-157.299-117.096
		C583.474,342.747,653.896,290.321,740.773,290.321z"/>
	<g>
		<defs>
			<path id="SVGID_3_" d="M740.773,290.321c86.872,0,157.294,52.426,157.294,117.095c0,64.67-70.422,117.096-157.294,117.096
				c-86.877,0-157.299-52.426-157.299-117.096C583.474,342.747,653.896,290.321,740.773,290.321z"/>
		</defs>
		<clipPath id="SVGID_4_">
			<use xlink:href="#SVGID_3_"  overflow="visible"/>
		</clipPath>
		<g clip-path="url(#SVGID_4_)">
			<g>
				<defs>
					<path id="SVGID_5_" d="M833.21,432.308c0,17.278,14.449,31.37,32.166,31.37s32.166-14.092,32.166-31.37
						c0-17.28-14.449-31.37-32.166-31.37S833.21,415.029,833.21,432.308"/>
				</defs>
				<clipPath id="SVGID_6_">
					<use xlink:href="#SVGID_5_"  overflow="visible"/>
				</clipPath>
				
					<radialGradient id="SVGID_7_" cx="0" cy="1200" r="1" gradientTransform="matrix(44.9289 0 0 -44.9289 865.3763 54346.9297)" gradientUnits="userSpaceOnUse">
					<stop  offset="0" style="stop-color:#F8B783"/>
					<stop  offset="1" style="stop-color:#FCD4B5"/>
				</radialGradient>
				<rect x="833.21" y="400.938" clip-path="url(#SVGID_6_)" fill="url(#SVGID_7_)" width="64.331" height="62.741"/>
			</g>
		</g>
		<g clip-path="url(#SVGID_4_)">
			<g>
				<defs>
					<path id="SVGID_8_" d="M593.459,430.194c0,17.278,14.451,31.37,32.166,31.37c17.62,0,32.009-13.939,32.164-31.088v-0.565
						c-0.155-17.151-14.544-31.088-32.164-31.088C607.909,398.824,593.459,412.915,593.459,430.194"/>
				</defs>
				<clipPath id="SVGID_9_">
					<use xlink:href="#SVGID_8_"  overflow="visible"/>
				</clipPath>
				
					<radialGradient id="SVGID_10_" cx="0" cy="1200" r="1" gradientTransform="matrix(44.9303 0 0 -44.9303 625.6247 54346.5273)" gradientUnits="userSpaceOnUse">
					<stop  offset="0" style="stop-color:#F8B783"/>
					<stop  offset="1" style="stop-color:#FCD4B5"/>
				</radialGradient>
				<rect x="593.459" y="398.824" clip-path="url(#SVGID_9_)" fill="url(#SVGID_10_)" width="64.33" height="62.741"/>
			</g>
		</g>
		<path clip-path="url(#SVGID_4_)" fill-rule="evenodd" clip-rule="evenodd" fill="#FAC6A1" d="M849.336,276.296l-57.524-22.547
			l-63.572-4.591c-20.933,0-66.379,21.632-51.959,60.516c12.464,33.609,153.038,46.94,105.763-21.199
			c-13.554-19.541-33.776-15.412-45.616-6.584c-12.046,8.976-15.087,22.823,6.067,21.543c1.599-0.093-47.441,9.438-30.182-19.959
			c16.719-28.472,112.407-13.709,156.396,16.76C882.04,309.482,869.696,272.743,849.336,276.296z"/>
	</g>
	<path fill-rule="evenodd" clip-rule="evenodd" fill="#241D1E" d="M862.583,444.495c8.555,36.094-63.811,74.472-110.568,73.606
		c-10.376-0.192-20.751-0.345-20.094-0.719c13.025-7.48,3.568-22.429,3.302-24.309c-0.221-1.535,3.639,2.982,20.651,3.71
		c1.272,0.054,10.511-4.419,11.379-5.699L862.583,444.495z"/>
	<path fill="#C98651" d="M732.27,494.426c1.516,1.969,3.656,3.184,5.939,3.898c2.305,0.714,4.827,0.979,7.48,0.979
		c5.934-0.01,12.565-1.358,18.352-3.056c2.891-0.852,5.563-1.801,7.819-2.731c2.263-0.94,4.077-1.836,5.428-2.761
		c1.321-0.905,1.653-2.716,0.743-4.04c-0.91-1.319-2.719-1.644-4.037-0.738c-0.726,0.511-2.33,1.343-4.355,2.175
		c-3.056,1.265-7.147,2.618-11.421,3.637c-4.276,1.028-8.752,1.717-12.528,1.708c-2.244,0.01-4.237-0.236-5.745-0.714
		c-1.525-0.482-2.495-1.142-3.068-1.89c-0.98-1.275-2.803-1.511-4.072-0.532c-1.27,0.974-1.511,2.795-0.532,4.064H732.27z"/>
	<path fill-rule="evenodd" clip-rule="evenodd" fill="#FFFFFF" d="M836.163,362.273c15.04,0,27.239,13.635,27.239,30.445
		c0,16.814-12.199,30.445-27.239,30.445c-15.046,0-27.242-13.63-27.242-30.445C808.922,375.908,821.118,362.273,836.163,362.273z"/>
	<path fill-rule="evenodd" clip-rule="evenodd" fill="#3D3237" d="M831.673,384.352c11.072,0,20.045,8.764,20.045,19.565
		c0,10.811-8.973,19.58-20.045,19.58c-11.064,0-20.037-8.769-20.037-19.58C811.635,393.117,820.608,384.352,831.673,384.352z"/>
	<path fill-rule="evenodd" clip-rule="evenodd" fill="#FFFFFF" d="M821.659,389.948c3.742,0,6.779,2.967,6.779,6.623
		c0,3.651-3.036,6.614-6.779,6.614c-3.742,0-6.778-2.962-6.778-6.614C814.881,392.915,817.917,389.948,821.659,389.948z"/>
	<path fill-rule="evenodd" clip-rule="evenodd" fill="#FFFFFF" d="M822.663,405c2.16,0,3.907,1.712,3.907,3.813
		c0,2.111-1.747,3.829-3.907,3.829c-2.165,0-3.915-1.718-3.915-3.829C818.748,406.713,820.498,405,822.663,405z"/>
	<path fill-rule="evenodd" clip-rule="evenodd" fill="#FFFFFF" d="M648.232,531.638l6.985-25.78
		c11.689,14.064,74.735,42.235,85.477,21.022c1.289-2.539,0.425-3.218,2.286-4.429c4.033-2.618,13.464-3.73,18.539-0.419
		c2.239,1.467,1.051,2.338,2.561,4.311c12.277,16.116,68.434-4.478,89.492-22.41c1.998-1.707,30.996,7.052,33.501,6.88
		l-71.517,35.651l-104.063,3.203L648.232,531.638z"/>
	<path fill-rule="evenodd" clip-rule="evenodd" fill="#FAC6A1" d="M815.385,325.893c12.63-14.339,46.566-5.432,60.091,2.072
		c7.8,4.33,12.292,19.22,3.322,21.145c-8.747,1.87-51.364,1.84-65.486-6.791C808.142,339.164,808.789,333.383,815.385,325.893z"/>
	<path fill-rule="evenodd" clip-rule="evenodd" fill="#FFFFFF" d="M732.408,433.251c-24.894-39.086-67.966,47.9-118.011,13.453
		c-4.763-3.282-2.236,24.899,11.505,42.334C665.945,539.835,783.39,513.288,732.408,433.251z"/>
	<path fill-rule="evenodd" clip-rule="evenodd" fill="#E5E4E6" d="M896.138,308.69c-40.365-42.93-211.657-74.118-268.716-30.726
		c-22.126-3.932-46.27-74.353,67.152-85.662c50.8-5.064,142.692,12.46,186.275,41.522
		C909.39,252.858,922.174,275.902,896.138,308.69z"/>
	<path fill-rule="evenodd" clip-rule="evenodd" fill="#FFFFFF" d="M893.462,293.485c-39.477-35.666-197.977-66.269-253.784-30.214
		c-21.639-3.263-35.683-60.501,54.747-66.707c49.757-3.41,127.469,8.026,179.216,33.733
		C903.106,244.936,918.927,266.238,893.462,293.485z"/>
	<path fill-rule="evenodd" clip-rule="evenodd" fill="#FFFFFF" d="M726.102,256.987c-20.928,0-66.375,18.143-51.954,50.764
		c12.467,28.201,153.035,39.386,105.763-17.784c-13.555-16.392-33.776-12.927-45.616-5.526
		c-12.049,7.539-15.088,19.152,6.067,18.079c1.599-0.079-47.445,7.918-30.185-16.741c16.726-23.891,112.404-11.51,156.396,14.064
		c7.064,4.104,33.304,4.232,6.402-9.251C820.973,264.53,780.826,260.299,726.102,256.987z"/>
	<path fill-rule="evenodd" clip-rule="evenodd" fill="#FFF7ED" d="M816.741,320.239c12.632-14.344,46.568-5.433,60.091,2.072
		c7.802,4.33,12.299,19.221,3.324,21.145c-8.744,1.875-51.368,1.845-65.491-6.791C809.497,333.511,810.142,327.734,816.741,320.239z
		"/>
	<path fill-rule="evenodd" clip-rule="evenodd" fill="#C98651" d="M841.862,456.506l-4.837-0.807
		c6.52,0,27.589-12.401,15.761-14.315c-2.182-0.345-5.814-0.64-6.99-1.378c-0.724-0.452,0.327-3.764,1.646-3.568
		c3.639,0.546,27.242,3.75,28.238,5.054c0.618,0.807-4.146,3.046-4.19,3.046c-3.203-0.02-5.536-0.477-8.57-1.038
		c-0.583-0.113-0.868,2.249-6.483,6.2C854.368,451.168,844.061,456.92,841.862,456.506z"/>
	<path fill-rule="evenodd" clip-rule="evenodd" fill="#FFFFFF" d="M766.553,427.444c28.29-37.605,67.007,51.728,120.964,20.18
		c5.132-3.006,0.664,24.998-14.686,41.626C828.118,537.695,708.618,504.475,766.553,427.444z"/>
	<path fill-rule="evenodd" clip-rule="evenodd" fill="#FFFFFF" d="M674.721,362.676c15.702,0,28.44,13.538,28.44,30.239
		c0,16.711-12.737,30.248-28.44,30.248c-15.712,0-28.447-13.537-28.447-30.248C646.274,376.214,659.009,362.676,674.721,362.676z"/>
	<path fill-rule="evenodd" clip-rule="evenodd" fill="#3D3237" d="M673.771,387.566c11.067,0,20.04,8.759,20.04,19.575
		c0,10.806-8.973,19.565-20.04,19.565c-11.07,0-20.04-8.759-20.04-19.565C653.731,396.325,662.702,387.566,673.771,387.566z"/>
	<path fill-rule="evenodd" clip-rule="evenodd" fill="#FFFFFF" d="M666.557,391.419c3.747,0,6.783,2.962,6.783,6.619
		c0,3.651-3.036,6.619-6.783,6.619c-3.742,0-6.776-2.967-6.776-6.619C659.782,394.381,662.815,391.419,666.557,391.419z"/>
	<path fill-rule="evenodd" clip-rule="evenodd" fill="#FFFFFF" d="M667.564,406.467c2.158,0,3.91,1.712,3.91,3.818
		c0,2.111-1.752,3.824-3.91,3.824c-2.163,0-3.912-1.713-3.912-3.824C663.651,408.179,665.401,406.467,667.564,406.467z"/>
	<path fill-rule="evenodd" clip-rule="evenodd" fill="#FCD4B7" d="M773.961,425.909l-47.628-3.661
		c-8.405,2.682-18.224,28.684,4.382,33.521c11.926,2.549,32.763,1.481,41.598-8.228
		C776.729,442.694,773.961,436.809,773.961,425.909z"/>
	<path fill="#C98651" d="M736.069,387.886c0.817,2.593,1.86,5.501,2.687,8.468c0.824,2.967,1.424,5.979,1.422,8.666
		c0,1.471-0.172,2.834-0.553,4.064c-0.578,1.84-1.558,3.391-3.322,4.768c-1.767,1.368-4.407,2.539-8.277,3.238
		c-4.343,0.782-7.78,3.479-9.994,6.943c-2.232,3.484-3.364,7.75-3.371,12.12c0.003,4.232,1.075,8.582,3.422,12.4
		c2.34,3.804,5.996,7.042,10.936,8.873c4.476,1.663,9.802,2.588,15.326,2.598c4.872,0,9.893-0.733,14.588-2.387
		c4.692-1.648,9.074-4.256,12.524-8.036c1.222-1.348,2.62-3.277,3.757-5.688c1.134-2.397,1.997-5.295,1.997-8.484
		c0.003-2.455-0.529-5.078-1.821-7.662c-1.291-2.589-3.324-5.112-6.227-7.455c-1.08-0.876-2.665-0.714-3.538,0.374
		c-0.876,1.073-0.706,2.658,0.374,3.533c2.431,1.968,3.954,3.927,4.891,5.797c0.93,1.87,1.287,3.666,1.292,5.413
		c0.003,2.259-0.627,4.448-1.521,6.343c-0.885,1.89-2.037,3.469-2.923,4.434c-2.785,3.056-6.415,5.251-10.481,6.687
		c-4.06,1.432-8.54,2.092-12.912,2.092c-4.953,0-9.758-0.852-13.572-2.274c-3.897-1.457-6.596-3.883-8.409-6.801
		c-1.801-2.918-2.672-6.377-2.67-9.758c-0.005-3.489,0.937-6.87,2.571-9.399c1.649-2.534,3.856-4.197,6.651-4.709
		c2.962-0.532,5.469-1.343,7.588-2.411c3.174-1.595,5.448-3.839,6.825-6.417c1.385-2.578,1.883-5.403,1.883-8.198
		c-0.008-3.41-0.724-6.821-1.609-10.014c-0.89-3.189-1.961-6.186-2.736-8.636c-0.419-1.324-1.833-2.057-3.157-1.644
		C736.384,385.145,735.651,386.562,736.069,387.886z"/>
	<polygon fill-rule="evenodd" clip-rule="evenodd" fill="#008846" points="851.216,664.643 828.669,683.809 857.549,717.772 
		880.096,698.601 	"/>
	<path fill-rule="evenodd" clip-rule="evenodd" fill="#009F52" d="M825.042,656.415c-12.14,10.314-17.956,23.413-13,29.239
		c4.96,5.831,18.817,2.19,30.957-8.124c12.137-10.319,17.956-23.418,12.996-29.244C851.036,642.455,837.177,646.096,825.042,656.415
		z"/>
	<path fill-rule="evenodd" clip-rule="evenodd" fill="#007241" d="M740.887,540.608c-32.945,28.014-36.943,77.424-8.929,110.369
		c28.009,32.94,77.422,36.936,110.367,8.931c32.943-28.019,36.945-77.429,8.929-110.369
		C823.241,516.594,773.829,512.599,740.887,540.608z"/>
	<path fill-rule="evenodd" clip-rule="evenodd" fill="#009A4C" d="M730.395,545.106c-32.942,28.005-36.938,77.425-8.931,110.365
		c28.014,32.945,77.427,36.945,110.372,8.931c32.942-28.009,36.938-77.424,8.928-110.369
		C812.75,521.092,763.34,517.092,730.395,545.106z"/>
	<path fill-rule="evenodd" clip-rule="evenodd" fill="#43BEDE" d="M741.56,558.235c-25.691,21.844-28.811,60.383-6.965,86.075
		c21.846,25.692,60.383,28.812,86.08,6.963c25.689-21.844,28.804-60.383,6.958-86.075
		C805.789,539.506,767.25,536.386,741.56,558.235z"/>
	<g>
		<defs>
			<path id="SVGID_11_" d="M741.56,558.235c-25.691,21.844-28.811,60.383-6.965,86.075c21.846,25.692,60.383,28.812,86.08,6.963
				c25.689-21.844,28.804-60.383,6.958-86.075C805.789,539.506,767.25,536.386,741.56,558.235z"/>
		</defs>
		<clipPath id="SVGID_12_">
			<use xlink:href="#SVGID_11_"  overflow="visible"/>
		</clipPath>
		<path clip-path="url(#SVGID_12_)" fill-rule="evenodd" clip-rule="evenodd" fill="#ADDDF0" d="M751.675,554.111
			c-25.692,21.843-28.812,60.383-6.966,86.075c21.844,25.691,60.383,28.812,86.078,6.968c25.694-21.844,28.809-60.383,6.96-86.075
			C815.904,535.383,777.367,532.268,751.675,554.111z"/>
		<polygon clip-path="url(#SVGID_12_)" fill-rule="evenodd" clip-rule="evenodd" fill="#E2F2F7" points="818.042,530.865 
			830.404,533.488 807.18,675.852 792.196,675.099 		"/>
		<polygon clip-path="url(#SVGID_12_)" fill-rule="evenodd" clip-rule="evenodd" fill="#E2F2F7" points="781.746,495.278 
			800.372,499.224 765.38,713.683 742.808,712.557 		"/>
	</g>
	<path fill-rule="evenodd" clip-rule="evenodd" fill="#FFEECE" d="M512.319,942.413c-11.372-40.474-3.528-93.348,3.725-118.562
		c48.234-67.184,32.908-52.357,80.354-95.533c41.03-37.339,2.345-129.914-104.221-166.796c8.149-5.079,229.092-8.484,238.397,0.399
		c37.521,35.814,56.137,132.011,69.386,155.404c20.857,36.803-30.964,45.08-86.154,82.734
		c-17.921,12.223-34.283,32.005-51.132,51.01c-9.908,12.784-25.406,72.203-16.086,166.412L512.319,942.413z"/>
	<path fill="#FFDF9C" d="M512.319,942.413l0.165-0.044c-4.136-14.723-5.725-31.1-5.725-47.185c0-28.078,4.849-55.276,9.453-71.283
		l-0.167-0.049l0.14,0.103c48.251-67.204,32.881-52.328,80.33-95.508c10.814-9.836,16.108-23.502,16.103-38.943
		c-0.005-43.397-41.738-100.926-120.38-128.143l-0.06,0.163l0.096,0.148c0.494-0.315,2.079-0.67,4.515-0.999
		c17.11-2.313,77.058-4.074,131.982-4.069c25.48,0,49.889,0.379,68.444,1.255c9.278,0.438,17.09,0.999,22.845,1.698
		c2.871,0.35,5.23,0.738,6.995,1.156c1.764,0.418,2.936,0.881,3.403,1.334c18.717,17.862,32.753,50.856,43.749,82.296
		c11,31.449,18.957,61.328,25.605,73.069c3.223,5.683,4.697,10.668,4.697,15.181c0.01,12.282-10.973,21.169-27.862,30.957
		c-16.878,9.783-39.605,20.446-62.945,36.37c-17.939,12.248-34.31,32.034-51.157,51.039l-0.008,0.005h-0.003
		c-3.914,5.059-8.648,17.233-12.42,35.863c-3.772,18.62-6.574,43.687-6.574,74.491c0,17.016,0.856,35.779,2.876,56.181l0.172-0.015
		l0.084-0.153l-134.27-75.067L512.319,942.413l0.165-0.044L512.319,942.413l-0.089,0.158l134.565,75.229l-0.032-0.335
		c-2.02-20.392-2.874-39.145-2.874-56.151c0-30.78,2.803-55.827,6.565-74.427c3.764-18.596,8.513-30.755,12.358-35.71l-0.138-0.108
		l0.128,0.118c16.856-19.009,33.213-38.781,51.1-50.98c23.305-15.904,46.019-26.572,62.918-36.365
		c16.888-9.788,28.024-18.724,28.034-31.252c0-4.591-1.501-9.635-4.744-15.353c-6.601-11.647-14.578-41.561-25.579-73.015
		c-11.003-31.464-25.035-64.478-43.835-82.429c-0.578-0.546-1.777-0.994-3.563-1.417c-12.472-2.967-53.755-4.123-98.365-4.123
		c-31.393,0-64.419,0.575-90.159,1.496c-12.87,0.468-23.918,1.014-32.034,1.624c-4.057,0.305-7.382,0.625-9.834,0.959
		c-2.458,0.33-4.023,0.66-4.655,1.044l-0.31,0.197l0.345,0.123c78.546,27.168,120.157,84.633,120.152,127.809
		c-0.003,15.368-5.26,28.915-15.99,38.687c-47.449,43.165-32.16,28.393-80.384,95.563l-0.015,0.025l-0.01,0.029
		c-4.614,16.042-9.465,43.259-9.465,71.377c0,16.11,1.592,32.517,5.74,47.279l0.02,0.069l0.061,0.04L512.319,942.413z"/>
	<g>
		<g>
			<defs>
				<path id="SVGID_13_" d="M721.858,436.344c0,9.457,10.984,17.125,24.533,17.125c13.549,0,24.53-7.668,24.53-17.125
					c0-9.458-10.981-17.125-24.53-17.125C732.842,419.219,721.858,426.885,721.858,436.344"/>
			</defs>
			<clipPath id="SVGID_14_">
				<use xlink:href="#SVGID_13_"  overflow="visible"/>
			</clipPath>
			
				<radialGradient id="SVGID_15_" cx="0" cy="1200" r="1" gradientTransform="matrix(29.9169 0 0 -29.9168 746.3903 36336.5391)" gradientUnits="userSpaceOnUse">
				<stop  offset="0" style="stop-color:#F8B783"/>
				<stop  offset="1" style="stop-color:#FCD4B5"/>
			</radialGradient>
			<rect x="721.858" y="419.219" clip-path="url(#SVGID_14_)" fill="url(#SVGID_15_)" width="49.063" height="34.25"/>
		</g>
	</g>
	<path fill-rule="evenodd" clip-rule="evenodd" fill="#FCD4B7" d="M811.503,418.212c17.838-11.249,78.908-3.725,46.647-0.113
		c-13.903,1.555-7.524,9.113-34.913,9.113C818.672,427.213,813.04,423.458,811.503,418.212z"/>
	<path fill-rule="evenodd" clip-rule="evenodd" fill="#FCD4B7" d="M655.928,421.578c16.359-13.306,77.892-13.178,46.298-5.713
		c-13.616,3.213-6.373,9.95-33.565,13.242C664.127,429.653,658.089,426.598,655.928,421.578z"/>
	<path fill-rule="evenodd" clip-rule="evenodd" fill="#F5B81D" d="M717.274,725.739h18.687c3.558,0,6.476,2.913,6.476,6.481
		c0,3.558-2.918,6.476-6.476,6.476h-18.687c-3.565,0-6.481-2.918-6.481-6.476C710.793,728.652,713.709,725.739,717.274,725.739z"/>
	<path fill-rule="evenodd" clip-rule="evenodd" fill="#FAC6A1" d="M633.627,359.999c4.136-18.66,38.151-27.251,53.62-27.202
		c8.926,0.024,20.048,10.895,13.121,16.913c-6.759,5.856-44.095,26.41-60.632,25.672
		C633.691,375.116,631.464,369.743,633.627,359.999z"/>
	<path fill-rule="evenodd" clip-rule="evenodd" fill="#FFF7ED" d="M633.278,353.681c4.136-18.66,38.156-27.246,53.622-27.198
		c8.926,0.025,20.047,10.895,13.116,16.908c-6.754,5.861-44.091,26.41-60.632,25.677
		C633.339,368.793,631.115,363.429,633.278,353.681z"/>
	<path fill-rule="evenodd" clip-rule="evenodd" fill="#F2CC6F" d="M508.047,942.413c-11.369-40.474-3.523-93.348,3.725-118.562
		c48.241-67.184,32.908-52.357,80.362-95.533c41.027-37.339,2.338-129.914-104.221-166.796c8.144-5.079,229.089-8.484,238.397,0.399
		c37.516,35.814,56.132,132.011,69.386,155.404c20.855,36.803-30.967,45.08-86.161,82.734
		c-17.912,12.223-34.279,32.005-51.133,51.01c-9.903,12.784-25.406,72.203-16.084,166.412L508.047,942.413z"/>
	<g>
		<defs>
			<path id="SVGID_16_" d="M508.047,942.413c-11.369-40.474-3.523-93.348,3.725-118.562c48.241-67.184,32.908-52.357,80.362-95.533
				c41.027-37.339,2.338-129.914-104.221-166.796c8.144-5.079,229.089-8.484,238.397,0.399
				c37.516,35.814,56.132,132.011,69.386,155.404c20.855,36.803-30.967,45.08-86.161,82.734
				c-17.912,12.223-34.279,32.005-51.133,51.01c-9.903,12.784-25.406,72.203-16.084,166.412L508.047,942.413z"/>
		</defs>
		<clipPath id="SVGID_17_">
			<use xlink:href="#SVGID_16_"  overflow="visible"/>
		</clipPath>
		<polygon clip-path="url(#SVGID_17_)" fill-rule="evenodd" clip-rule="evenodd" fill="#DDB241" points="683.5,858.095 
			794.474,755.653 578.211,725.065 495.689,824.663 		"/>
		<path clip-path="url(#SVGID_17_)" fill-rule="evenodd" clip-rule="evenodd" fill="#DDB241" d="M719.963,554.155l12.806,20.633
			c-8.882,0-9.615-0.123-15.065,7.819c0.059,0.172-0.795,31.119-8.294,28.398c-10.725-3.898-109.676-22.641-109.676-4.149
			c0,4.36,1.046,10.196,2.85,14.167l-48.377-3.558l-55.49-54.774L719.963,554.155z"/>
	</g>
	<path fill="#FFDF9C" d="M508.047,942.413l0.17-0.044c-4.138-14.723-5.73-31.104-5.73-47.185c0-28.078,4.849-55.276,9.453-71.283
		l-0.167-0.049l0.143,0.103c48.254-67.204,32.878-52.328,80.335-95.508c10.806-9.836,16.103-23.497,16.103-38.943
		c-0.008-43.392-41.738-100.926-120.383-128.143l-0.057,0.163l0.091,0.148c0.495-0.315,2.077-0.67,4.515-0.999
		c17.112-2.313,77.055-4.074,131.979-4.069c25.485,0,49.897,0.379,68.449,1.255c9.278,0.438,17.092,0.999,22.84,1.698
		c2.879,0.35,5.236,0.738,7,1.156c1.762,0.418,2.938,0.881,3.4,1.334c18.719,17.862,32.753,50.856,43.751,82.296
		c10.998,31.449,18.957,61.328,25.605,73.069c3.221,5.683,4.695,10.668,4.695,15.181c0.01,12.282-10.971,21.169-27.859,30.957
		c-16.879,9.783-39.605,20.446-62.94,36.37c-17.949,12.248-34.315,32.034-51.169,51.039l-0.002,0.005h-0.003
		c-3.912,5.054-8.644,17.233-12.42,35.858c-3.769,18.625-6.572,43.692-6.572,74.491c0,17.016,0.854,35.784,2.874,56.186l0.172-0.015
		l0.086-0.153L508.134,942.26L508.047,942.413l0.17-0.044L508.047,942.413l-0.084,0.158l134.565,75.229l-0.037-0.335
		c-2.013-20.392-2.871-39.15-2.871-56.156c0-30.78,2.8-55.827,6.569-74.422c3.76-18.596,8.506-30.755,12.353-35.71l-0.14-0.108
		l0.13,0.118c16.859-19.009,33.218-38.781,51.1-50.98c23.31-15.904,46.019-26.572,62.92-36.365
		c16.888-9.788,28.022-18.724,28.034-31.252c0-4.591-1.499-9.635-4.741-15.353c-6.602-11.647-14.581-41.561-25.581-73.015
		c-11.008-31.464-25.037-64.478-43.837-82.429c-0.575-0.546-1.771-0.994-3.563-1.417c-12.469-2.967-53.755-4.123-98.367-4.123
		c-31.39,0-64.414,0.575-90.154,1.496c-12.87,0.468-23.92,1.014-32.034,1.624c-4.057,0.305-7.382,0.625-9.837,0.959
		c-2.458,0.33-4.02,0.66-4.65,1.044l-0.31,0.197l0.344,0.123c78.539,27.173,120.157,84.633,120.147,127.809
		c0,15.368-5.261,28.92-15.991,38.687c-47.446,43.165-32.16,28.393-80.381,95.563l-0.02,0.025l-0.008,0.029
		c-4.616,16.042-9.468,43.259-9.468,71.377c0,16.11,1.597,32.512,5.742,47.279l0.02,0.069l0.064,0.04L508.047,942.413z"/>
	<path fill-rule="evenodd" clip-rule="evenodd" fill="#FFFFFF" d="M583.351,662.556l-10.341,53.061
		c9.386,20.682-1.537,53.002-47.648,38.599c-80.588-25.165-19.954-134.752,4.716-139.018
		C558.895,610.213,594.241,627.697,583.351,662.556z"/>
	<path fill-rule="evenodd" clip-rule="evenodd" fill="#DF2832" d="M555.069,625.547c4.353-7.986,57.778-43.338,82.842,18.95
		c15.171,37.698-23.868,73.423-63.08,68.365c-39.753-5.112-75.645-63.606-63.634-102.254c4.702-15.112,23.812-24.452,34.854-6.245
		C549.813,610.568,552.315,621.452,555.069,625.547z"/>
	<path fill-rule="evenodd" clip-rule="evenodd" fill="#9E2B2D" d="M984.31,581.505c31.055,6.456,83.162,57.17,27.438,131.843
		c-29.284,39.244-129.339,75.879-110.158,26.194c19.103-49.494-13.596-67.16,67.627-96.985
		C1010.419,627.422,998.442,628.184,984.31,581.505z"/>
	<path fill-rule="evenodd" clip-rule="evenodd" fill="#FFFFFF" d="M918.085,735.276l-18.665-50.257
		c-16.504-12.479-24.693-45.537,14.049-57.829c67.706-21.46,79.215,103.145,64.305,119.822
		C960.35,766.489,927.528,770.465,918.085,735.276z"/>
	<path fill-rule="evenodd" clip-rule="evenodd" fill="#FFEECE" d="M748.939,595.421c-0.92-15.53-8.075-50.724-83.708-53.238
		c-43.899-1.457-183.296-17.843-195.514,30.652c-14.74,58.533-7.962,7.829,67.524,7.829c54.751,0,115.804,9.959,139.677,9.959
		c0.16,0,4.84-26.228,22.102-26.799C717.067,563.229,739.452,578.39,748.939,595.421z"/>
	<path fill-rule="evenodd" clip-rule="evenodd" fill="#9E7036" d="M532.278,544.87c0.473,0.029,0.874-0.325,0.898-0.802
		c0.029-0.468-0.33-0.871-0.797-0.895c-5.019-0.295-11.751,2.701-15.183,5.521c-1.262,1.028-2.123,2.086-2.374,3.006
		c-0.345,1.255,0.175,2.229,1.84,2.706c2.07,0.586,6.486,0.256,14.28-1.732c11.269-2.884,14.624-3.085,14.824-2.303
		c0.115,0.447-1.274,1.806-2.49,3.002c-1.309,1.274-2.463,2.411-2.111,3.346l0.005,0.005h-0.005l0.017,0.044l0.003,0.01l0.01,0.01
		c0.174,0.374,0.593,0.571,0.989,0.463c1.973,0.148,7.032-1.24,17.983-5.354c11.736-4.399,15.063-5.398,15.205-5.044
		c-0.025,0.03-0.63,0.753-1.309,1.565c-1.115,1.338-2.369,2.849-2.261,4.153c0.111,1.417,1.508,2.313,5.531,1.993
		c5.354-0.413,7.076-3.13,8.479-5.344c1.617-2.544,2.684-4.232,12.213,2.549c0.881,0.625,2.232,1.068,3.241,1.009
		c0.494-0.025,0.945-0.177,1.289-0.458c0.396-0.335,0.623-0.797,0.593-1.422c-0.037-0.802-0.561-1.954-1.872-3.509
		c-0.302-0.364-0.836-0.409-1.198-0.108c-0.359,0.3-0.413,0.842-0.111,1.201c1.046,1.24,1.462,2.027,1.481,2.485l0.017,0.044
		c-0.039,0.035-0.148,0.054-0.293,0.064c-0.652,0.039-1.558-0.266-2.158-0.694c-10.993-7.819-12.445-5.531-14.647-2.072
		c-1.193,1.885-2.665,4.203-7.169,4.562c-2.743,0.212-3.664-0.01-3.696-0.428c-0.047-0.635,0.967-1.855,1.867-2.933
		c0.999-1.201,1.892-2.269,1.624-3.174l-0.025-0.084c-0.512-1.353-4.392-0.827-17.398,4.055
		c-13.013,4.886-16.711,6.087-16.809,5.821c-0.017-0.103,0.829-0.689,1.71-1.545c1.537-1.511,3.304-3.238,2.95-4.635
		c-0.438-1.713-4.348-2.135-16.901,1.068c-7.475,1.914-11.589,2.258-13.399,1.747c-0.529-0.153-0.723-0.369-0.652-0.615
		c0.153-0.576,0.812-1.329,1.806-2.141C521.464,547.389,527.679,544.604,532.278,544.87z"/>
	<path fill-rule="evenodd" clip-rule="evenodd" fill="#9E7036" d="M628.332,549.431c0.438-0.177,0.642-0.674,0.465-1.112
		c-0.179-0.433-0.676-0.644-1.107-0.467c-4.313,1.791-5.504,3.552-4.854,5.127l0.035,0.069c0.898,1.964,5.378,3.253,9.783,3.779
		c3.867,0.468,7.782,0.325,9.261-0.463c0.767,0.576,1.784,1.255,2.962,1.88c4.458,2.362,11.136,3.936,15.048-3.45
		c0.3-0.566,5.337-2.279,9.411-2.647c1.403-0.128,2.652-0.079,3.477,0.266c0.593,0.251,0.93,0.709,0.831,1.467
		c-0.16,1.225-1.154,3.031-3.351,5.595c-0.753,0.458-1.506,0.915-2.217,1.343c-2.248,1.378-4.121,2.519-4.598,2.726
		c-5.689,2.51-8.951,5.108-10.154,6.816c-0.723,1.028-0.824,1.909-0.376,2.529c0.435,0.601,1.312,0.797,2.559,0.473
		c2.212-0.566,6.252-2.938,11.601-8.095c1.72-1.663,3.13-3.139,4.261-4.458c3.491-2.116,7.044-4.232,7.44-4.202
		c0.47,0.039,0.878-0.305,0.916-0.783c0.039-0.468-0.31-0.876-0.78-0.915c-0.576-0.044-2.544,0.974-4.904,2.342
		c0.777-1.27,1.184-2.308,1.289-3.149c0.221-1.678-0.527-2.701-1.862-3.263c-1.1-0.463-2.625-0.541-4.284-0.388
		c-4.525,0.418-10.336,2.736-10.767,3.553c-3.253,6.131-8.932,4.753-12.745,2.731c-1.13-0.596-2.104-1.245-2.81-1.791l-0.347-0.271
		c-0.17-0.325-0.497-0.65-0.997-0.984c-0.271-0.177-0.6-0.182-0.866-0.039l-0.003-0.005c-0.527,0.276-0.625,0.694-0.345,1.21
		l0.12,0.177l0.192,0.212c-1.137,0.369-4.409,0.3-7.762-0.103c-3.932-0.482-7.849-1.457-8.432-2.785l-0.01-0.025
		C624.145,551.685,625.168,550.74,628.332,549.431z M665.713,564.243c-5.007,4.788-8.668,6.963-10.634,7.475
		c-0.497,0.128-0.75,0.182-0.76,0.167c0,0,0.135-0.182,0.398-0.551c1.063-1.511,4.077-3.858,9.448-6.23
		C664.426,564.991,664.973,564.686,665.713,564.243z"/>
	<path fill-rule="evenodd" clip-rule="evenodd" fill="#DDB241" d="M642.95,1018.868c-30.351-7.347-128.288-60.226-182.828-66.87
		c-32.723-19.919-65.45-39.834-98.17-59.754c37.94,8.774,101.489,16.835,150.102,49.794
		C557.108,967.652,602.877,989.702,642.95,1018.868z"/>
	<path fill-rule="evenodd" clip-rule="evenodd" fill="#F2CC6F" d="M361.951,890.818c32.721,19.924,65.447,39.839,98.17,59.759
		c-33.673,37.231-68.768,71.618-71.143,130.899c-59.099-13.783-109.671-13.341-158.104,1.338
		c-41.579-25.264-83.159-50.527-124.738-75.781c11.758,2.997,23.519,5.994,35.28,8.995c52.17-18.025,105.763-17.548,156.507-7.115
		C307.886,951.767,335.63,916.667,361.951,890.818z"/>
	<g>
		<defs>
			<path id="SVGID_18_" d="M361.951,890.818c32.721,19.924,65.447,39.839,98.17,59.759c-33.673,37.231-68.768,71.618-71.143,130.899
				c-59.099-13.783-109.671-13.341-158.104,1.338c-41.579-25.264-83.159-50.527-124.738-75.781
				c11.758,2.997,23.519,5.994,35.28,8.995c52.17-18.025,105.763-17.548,156.507-7.115
				C307.886,951.767,335.63,916.667,361.951,890.818z"/>
		</defs>
		<clipPath id="SVGID_19_">
			<use xlink:href="#SVGID_18_"  overflow="visible"/>
		</clipPath>
		<polygon clip-path="url(#SVGID_19_)" fill-rule="evenodd" clip-rule="evenodd" fill="#DDB241" points="405.343,1089.295 
			286.539,1001.089 133.595,1011.757 230.343,1089.295 		"/>
	</g>
	<path fill-rule="evenodd" clip-rule="evenodd" fill="#B36D3D" d="M97.238,1007.476c-27.288-20.85-37.674,2.067-46.787-22.965
		c-4.542-12.484,26.516-24.757,37.167-6.456c9.008,15.476,12.806,13.7,14.849,16.244
		C107.547,1000.626,101.204,1003.151,97.238,1007.476z"/>
	<path fill-rule="evenodd" clip-rule="evenodd" fill="#F2CC6F" d="M103.418,984.963c5.046,1.117,152.1,58.903,152.1,79.289
		c0,81.489-101.984,2.298-124.824-13.562C116.087,1040.549,41.984,984.963,103.418,984.963z"/>
	<path fill-rule="evenodd" clip-rule="evenodd" fill="#866535" d="M248.45,1066.92c-4.424-3.745-12.612-1.338-18.291,5.374
		c-5.674,6.717-6.692,15.19-2.266,18.93c4.421,3.74,12.614,1.339,18.291-5.374C251.862,1079.133,252.876,1070.664,248.45,1066.92z"
		/>
	<path fill-rule="evenodd" clip-rule="evenodd" fill="#B36D3D" d="M242.451,1073.051c28.76,18.768,34.566-4.503,45.52,19.786
		c5.455,12.11-24.607,26.661-36.587,9.197c-10.132-14.763-13.785-12.705-16.015-15.087
		C229.829,1081.013,239.169,1074.109,242.451,1073.051z"/>
	<path fill-rule="evenodd" clip-rule="evenodd" fill="#008846" d="M908.613,759.29L908.613,759.29
		c-6.387,5.432-7.17,15.112-1.737,21.504l10.004,11.765c5.438,6.392,15.107,7.175,21.494,1.742v-0.005
		c6.392-5.433,7.179-15.107,1.747-21.499l-10.009-11.766C924.674,754.644,915,753.862,908.613,759.29z"/>
	<path fill-rule="evenodd" clip-rule="evenodd" fill="#DF2832" d="M875.261,679.937c-9.366-0.905-70.601,24.392-31.754,81.951
		c23.517,34.835,76.733,22.075,95.117-14.452c18.645-37.019-10.683-101.659-50.758-113.745c-15.671-4.734-34.743,6.23-25.534,26.243
		C865.469,666.749,873.345,675.203,875.261,679.937z"/>
</g>
</svg>
