<?xml version="1.0" encoding="utf-8"?>
<!-- Designed by Vexels.com - 2019 All Rights Reserved - https://vexels.com/terms-and-conditions/  -->
<svg version="1.1" id="Capa_1" xmlns="http://www.w3.org/2000/svg" xmlns:xlink="http://www.w3.org/1999/xlink" x="0px" y="0px"
	 viewBox="0 0 1200 1200" enable-background="new 0 0 1200 1200" xml:space="preserve">
<g>
	<g>
		<path fill="#D14242" d="M1102.019,1010.557c-1.647,4.927-6.034,8.887-13.098,8.652c-165.777-5.499-331.642-8.391-497.52-8.524
			c-82.163-0.066-164.325,0.535-246.478,1.796c-40.301,0.618-80.599,1.399-120.893,2.339c-39.568,0.922-83.04,6.369-122.14,0.074
			c-1.117-0.18-2.135-0.577-3.051-1.129c-5.296,0.681-10.404,1.909-14.974,4.221c-14.453,7.311-26.071,31.527-12.876,45.277
			c15.294,15.934,37.088,16.187,58.139,16.001c73.142-0.647,146.161-5.048,219.245-7.35c74.514-2.347,149.036,1.676,223.523,3.204
			c86.638,1.777,173.37,0.676,259.984,2.782c42.694,1.039,85.109,2.345,127.851,1.522c45.036-0.868,94.313,2.797,138.429-6.61
			C1131.477,1065.708,1131.757,1022.697,1102.019,1010.557z"/>
		<path fill="#D14242" d="M98.143,803.622c-3.397,5.638-8.934,9.866-15.392,11.476c-2.626,0.654-3.078,3.66-0.715,5.007
			c17.093,9.742,33.768-5.007,42.075-18.88c2.358-3.939,4.444-8.025,6.629-12.058c2.221-4.099,4.705-9.411,9.122-11.657
			c3.329-1.692,7.209-1.433,10.606-2.852c0.708-0.296,1.792-0.99,2.886-1.882c0.544-0.532,1.103-1.045,1.677-1.54
			c1.555-1.627,2.67-3.488,1.972-4.854c-6.923-13.548-23.432-21.299-38.456-17.824c-15.051,3.481-26.273,17.596-26.611,32.769
			c-0.073,3.281,4.711,4.178,5.253,0.753c1.198-7.556,6.094-12.677,12.387-15.545c-4.819,4.457-7.92,10.007-8.015,17.956
			C101.481,791.331,101.815,797.529,98.143,803.622z"/>
		<path fill="#D14242" d="M503.971,667.19c-6.922-13.549-23.431-21.299-38.455-17.825c-15.051,3.481-26.273,17.596-26.611,32.769
			c-0.073,3.28,4.711,4.178,5.253,0.753c1.198-7.556,6.094-12.677,12.388-15.545c-4.82,4.457-7.92,10.007-8.015,17.955
			c-0.082,6.843,0.253,13.041-3.419,19.133c-3.397,5.638-8.934,9.866-15.392,11.476c-2.626,0.654-3.078,3.66-0.714,5.007
			c17.093,9.742,33.767-5.007,42.075-18.88c2.359-3.939,4.444-8.025,6.629-12.057c2.221-4.099,4.705-9.412,9.122-11.657
			c3.329-1.692,7.21-1.433,10.606-2.852C499.616,674.557,505.355,669.898,503.971,667.19z"/>
		<path fill="#D14242" d="M847.409,774.52c1.836-1.981,3.876-3.723,6.059-5.246c0.062-0.449,0.022-0.878-0.175-1.264
			c-6.923-13.549-23.432-21.299-38.456-17.824c-15.051,3.481-26.273,17.596-26.611,32.769c-0.073,3.28,4.711,4.178,5.253,0.753
			c1.197-7.556,6.094-12.677,12.387-15.545c-4.819,4.457-7.92,10.007-8.015,17.956c-0.082,6.843,0.253,13.041-3.419,19.133
			c-3.397,5.638-8.934,9.866-15.391,11.476c-2.626,0.654-3.078,3.66-0.715,5.007c17.093,9.741,33.768-5.007,42.075-18.88
			c2.359-3.939,4.444-8.025,6.629-12.058c2.221-4.099,4.705-9.411,9.122-11.657c2.974-1.512,6.387-1.475,9.503-2.459
			C846.222,775.953,846.762,775.218,847.409,774.52z"/>
		<path fill="#D14242" d="M145.33,891.39c0.003-0.024-0.002-0.043,0.001-0.066c0.28-2.206-1.811-3.206-3.747-3.411
			c-0.263-0.028-0.524-0.042-0.774-0.041c-3.312,0.002-5.808,2.827-7.598,5.372c-3.632,5.163-4.48,11.759-5.035,17.863
			c-0.601,6.611,11.435,2.81,13.473-0.166c0.197-0.287,0.339-0.609,0.475-0.936c1.21-2.919,0.213-7.254,0.853-10.422
			C143.542,896.788,144.915,894.189,145.33,891.39z"/>
		<path fill="#D14242" d="M326.266,858.062c-4.599,5.138-6.41,12.383-7.403,19.008c-0.187,1.247,0.983,2.54,2.105,2.897
			c2.995,0.956,5.432,0.528,7.435-0.703c3.462-2.127,5.618-6.666,7.05-10.718c0.952-2.694,2.184-5.686,1.747-8.58
			c-0.08-0.532-0.198-1.061-0.405-1.583C334.362,852.246,329.84,854.069,326.266,858.062z"/>
		<path fill="#D14242" d="M270.527,788.396c8.723,0.925,20.523-14.214,25.732-19.913c8.185-8.957,14.954-19.344,18.531-30.954
			c2.42-7.854,0.775-52.289,19.726-39.951c8.189,5.331,8.166-1.199,12.647-2.748c0.014-0.005,0.025-0.012,0.039-0.017
			c2.993-1.008,0.638-6.234-3.033-10.584c-5.369-6.364-11.137-6.662-19.128-6.763c-10.433-0.131-24.003,9.77-29.439,19.469
			c-7.784,13.888-3.905,24.942-10.403,39.081c-2.959,6.438-6.411,9.575-12.174,13.731c-4.366,3.149-6.802,5.792-8.04,10.359
			c0.2,0.47,0.349,0.968,0.448,1.494c0.164,0.867,0.216,1.793,0.163,2.772c-0.166,3.029-1.193,6.466-2.029,9.617
			C263.578,780.718,264.873,787.796,270.527,788.396z"/>
		<path fill="#D14242" d="M491.345,793.44c0.003-0.024-0.001-0.043,0.001-0.067c0.28-2.206-1.811-3.205-3.747-3.411
			c-0.263-0.028-0.523-0.041-0.774-0.041c-3.312,0.002-5.808,2.827-7.598,5.372c-3.632,5.163-4.48,11.759-5.035,17.864
			c-0.601,6.61,11.435,2.809,13.473-0.166c0.197-0.287,0.339-0.61,0.475-0.936c1.21-2.919,0.213-7.254,0.854-10.421
			C489.557,798.838,490.929,796.238,491.345,793.44z"/>
		<path fill="#D14242" d="M672.281,760.112c-4.599,5.138-6.411,12.384-7.404,19.008c-0.187,1.248,0.984,2.539,2.106,2.897
			c2.995,0.956,5.432,0.528,7.435-0.702c3.463-2.127,5.618-6.666,7.05-10.718c0.952-2.694,2.184-5.686,1.747-8.58
			c-0.08-0.531-0.198-1.061-0.405-1.583C680.377,754.296,675.855,756.119,672.281,760.112z"/>
		<path fill="#D14242" d="M693.177,596.88c0.014-0.005,0.026-0.012,0.039-0.017c2.993-1.007,0.638-6.233-3.033-10.584
			c-5.369-6.364-11.137-6.662-19.128-6.762c-10.433-0.131-24.002,9.77-29.438,19.468c-7.784,13.888-3.906,24.942-10.404,39.081
			c-2.959,6.438-6.411,9.575-12.174,13.731c-4.366,3.149-6.802,5.792-8.04,10.359c0.2,0.47,0.349,0.968,0.448,1.493
			c0.164,0.867,0.217,1.794,0.163,2.773c-0.166,3.029-1.193,6.467-2.029,9.617c0.011,6.73,1.306,13.807,6.96,14.408
			c8.722,0.924,20.523-14.214,25.731-19.914c8.185-8.957,14.954-19.344,18.531-30.953c2.42-7.854,0.775-52.289,19.726-39.951
			C688.718,604.959,688.696,598.429,693.177,596.88z"/>
		<path fill="#D14242" d="M840.667,891.855c0.003-0.024-0.002-0.043,0.001-0.067c0.28-2.206-1.812-3.205-3.748-3.411
			c-0.263-0.028-0.523-0.041-0.774-0.041c-3.312,0.002-5.808,2.827-7.598,5.371c-3.632,5.163-4.48,11.759-5.035,17.863
			c-0.601,6.611,11.435,2.81,13.474-0.166c0.197-0.287,0.339-0.609,0.474-0.936c1.21-2.919,0.213-7.254,0.854-10.422
			C838.879,897.253,840.25,894.654,840.667,891.855z"/>
		<path fill="#D14242" d="M1021.603,858.528c-4.599,5.138-6.411,12.383-7.404,19.008c-0.187,1.247,0.983,2.54,2.105,2.897
			c2.995,0.956,5.432,0.528,7.435-0.703c3.462-2.126,5.618-6.666,7.05-10.718c0.952-2.694,2.184-5.686,1.748-8.58
			c-0.081-0.532-0.198-1.061-0.405-1.583C1029.699,852.712,1025.176,854.535,1021.603,858.528z"/>
		<path fill="#D14242" d="M958.904,774.454c0.011,6.729,1.306,13.807,6.959,14.408c8.722,0.925,20.523-14.214,25.731-19.913
			c8.185-8.957,14.954-19.344,18.531-30.954c2.42-7.854,0.775-52.289,19.726-39.951c8.188,5.331,8.166-1.199,12.647-2.748
			c0.013-0.005,0.025-0.012,0.039-0.017c2.992-1.008,0.638-6.234-3.033-10.584c-5.369-6.364-11.137-6.662-19.128-6.762
			c-10.433-0.131-24.002,9.77-29.438,19.469c-7.784,13.888-3.905,24.942-10.404,39.081c-2.959,6.438-6.411,9.574-12.174,13.731
			c-4.366,3.148-6.802,5.792-8.04,10.358c0.2,0.47,0.349,0.969,0.449,1.494c0.164,0.867,0.216,1.794,0.162,2.772
			C960.767,767.865,959.74,771.302,958.904,774.454z"/>
		<path fill="#D14242" d="M1129.035,412.381c-33.06-17.347-97.272-27.062-106.148-29.042
			c-66.106-14.742-132.122-30.903-195.496-54.926c-12.139-4.602-24.17-9.482-36.064-14.673
			c-29.577-12.909-58.474-27.353-86.413-43.442c-25.235-14.532-49.425-33.507-76.374-44.785
			c-9.229-3.862-18.959-9.868-28.999-10.441c-39.251-2.238-75.565,29.175-110.895,49.19
			c-109.202,61.868-225.9,102.85-349.16,126.645c-28.208,5.446-95.303,11.782-89.08,54.331c0.78,5.336,2.961,9.873,6.143,13.371
			c41.361-11.88,88.523-8.654,131.972-8.852c24.015-22.148,62.478-34.624,90.887-48.984c28.352-14.332,61.295-25.117,89.624-39.493
			c10.722-6.211,36.898-21.264,47.622-27.474c29.171-16.89,50.863-32.209,79.063-50.655c20.266-13.256,29.598-19.43,53.871-35.201
			c51.334-33.353,87.376,3.539,130.14,31.449c2.268,1.48,22.962,13.733,25.252,15.177c53.237,33.543,108.362,59.792,166.937,82.157
			c53.341,20.368,123.55,45.907,177.113,75.708c27.768,0.913,55.534,1.878,83.297,2.948c2.544,0.098,4.737,0.76,6.598,1.82
			c3.318-1.672,5.965-3.645,7.713-5.995C1155.708,439.011,1145.282,420.906,1129.035,412.381z"/>
		<path fill="#D14242" d="M769.396,383.601c-35.319-18.494-120.318-90.148-154.298-122.773c1.742,5.098,29.597,55.193,50.235,93.582
			c16.187,30.11,28.25,58.081,40.266,90.042c0.097,0.258,0.143,0.514,0.211,0.771c64.388,0.583,128.772,1.608,193.148,3.062
			C858.544,432.011,805.213,402.356,769.396,383.601z"/>
		<path fill="#D14242" d="M330.854,446.76c0.878-0.015,1.756-0.036,2.634-0.051c46.284-0.793,92.571-1.346,138.859-1.689
			c15.185-32.944,33.386-72.558,48.564-102.695c5.728-11.373,36.539-70.303,42.303-82.356
			c-34.055,26.048-93.564,88.182-128.15,113.54C400.967,398.511,367.222,424.996,330.854,446.76z"/>
		<path fill="#D14242" d="M559.849,378.449c-6.843,22.098-12.667,46.284-17.339,66.229c17.973-0.045,35.946-0.079,53.919-0.056
			c15.363,0.019,30.726,0.098,46.09,0.168c-20.699-54.366-42.172-131.596-52.481-184.82
			C582.066,284.116,570.003,345.655,559.849,378.449z"/>
	</g>
	<g>
		<path fill="#EBE1CC" d="M384.35,727.611c-1.788-1.244-4.206-2.081-7.407-2.582c-8.86-1.388-11.718-4.296-16.511-11.606
			c-4.167-6.357-7.824-13.244-13.27-18.593c-4.481,1.549-4.458,8.079-12.647,2.748c-18.951-12.338-17.306,32.097-19.726,39.951
			c-3.577,11.609-10.347,21.996-18.531,30.954c-5.208,5.7-17.009,20.838-25.732,19.913c-5.653-0.6-6.948-7.678-6.959-14.408
			c-0.628,2.367-1.15,4.576-1.102,6.304c0.17,6.124,1.738,12.319,4.89,17.622c0.859,1.445,2.136,5.293,1.602,6.884
			c-0.832,2.477-5.464,3.019-8.922,3.133c-5.718,0.182-11.423-0.716-17.136-0.385c1.304,6.516,1.709,13.432,2.983,19.855
			c0.925,4.663,1.959,9.307,3.134,13.915c0.539,2.113,0.962,4.499,2.033,6.426c1.555,2.802,4.104,5.024,7.128,5.363
			c0.762,0.026,1.524,0.032,2.286,0.043c3.67,0.054,7.338,0.002,10.989-0.278c17.324-1.326,30.008-5.634,42.788-17.401
			c5.138-0.819,9.478-2.417,14.705-2.457c6.796-0.051,26.778-1.746,27.96,8.491c0.521,4.514-4.546,14.613-6.882,18.575
			c-1.828,3.1-3.953,7.251-7.955,4.33c-1.767-1.29-3.078-3.136-4.868-4.439c0.437,2.894-0.795,5.886-1.747,8.58
			c-1.432,4.052-3.588,8.592-7.05,10.718c1.745,1.147,3.861,1.942,6.115,2.423c8.177,1.746,13.359,3.048,21.632,4.303
			c1.357,0.206,3.106-0.609,3.563-1.973c6.178-18.471,13.992-36.302,23.397-53.392c1.443-2.624-1.652-4.683-4.366-4.355
			c-5.228,0.632-11.804-1.661-16.515-4.965c-4.987-3.499-9.896-7.117-14.731-10.818c-7.875-6.028-8.634-5.234-12.38-13.805
			c-0.246-1.618,1.636-8.423,1.699-10.078c0.517-13.824-1.095-17.648-4.402-24.963c-3.789-8.38-1.459-17.948,1.258-24.124
			c5.192,1.432,7.983,1.662,12.522,4.9c4.959,3.538,7.007,6.985,10.998,11.395c5.231,5.78,13.386,5.473,13.997-1.158
			c-4.404-4.175-8.235-9.647-4.33-6.369c2.035,1.708,4.231,2.78,6.209,3.606c5.821,1.296,15.572-3.084,15.714-10.066
			C388.902,733.906,387.791,730.005,384.35,727.611z"/>
		<path fill="#EBE1CC" d="M241.557,838.644c-1.168-4.885-2.244-9.792-3.143-14.731c-0.887-4.873-1.97-10.011-2.402-15.081
			c-0.252,0.086-0.506,0.138-0.757,0.234c-5.525,2.107-12.673,2.855-19.187,0.794c-10.392-3.3-11.203-21.576-12.251-29.982
			c-0.451-3.614-0.352-9.102,1.179-13.325c-3.737-1.145-7.472-2.39-11.349-3.493c-13.269-3.777-28.218-0.815-38.616,8.175
			c-0.527,0.551-1.103,1.072-1.677,1.54c-0.431,0.422-0.87,0.835-1.281,1.279c-8.063,8.698-9.775,19.636-7.793,30.945
			c1.933,11.032,11.35,24.955,20.213,32.766c-3.829,2.917-12.178,8.833-15.261,12.182c-3.137,3.408-7.862,5.123-8.137,10.116
			c-0.303,5.511,2.657,11.604,3.464,17.054c0.756,5.104,2.62,10.044,3.377,15.148c-0.955-0.37-1.803-0.675-2.604-0.943
			c-0.003,0.023,0.002,0.042-0.001,0.066c-0.416,2.799-1.788,5.398-2.353,8.192c-0.64,3.168,0.357,7.503-0.853,10.422
			c0.097,0.015,0.176,0.029,0.28,0.043c6.165,0.879,12.34,2.837,18.532,3.145c0.889,0.044,1.542-0.293,1.978-0.815
			c0.936,1.299,2.901-0.164,3.392-1.789c2.951-9.777-6.905-22.559-5.069-33.224c1.897-11.029,3.445-15.212,13.457-17.662
			c8.553-2.093,16.676-3.951,24.156-8.788c2.77-1.791,5.358-3.819,7.84-5.973c6.532,4.08,27.115,5.109,34.245,6.388
			c0.243,0.044,0.49,0.065,0.733,0.107c1.746,0.302,3.501,0.546,5.261,0.771c-2.442-2.247-3.078-4.381-4.015-7.943
			C242.423,842.401,242.005,840.519,241.557,838.644z"/>
		<path fill="#EBE1CC" d="M730.364,629.661c-1.788-1.244-4.206-2.081-7.407-2.583c-8.86-1.387-11.718-4.297-16.51-11.606
			c-4.168-6.357-7.824-13.244-13.271-18.593c-4.48,1.549-4.458,8.079-12.646,2.748c-18.951-12.338-17.307,32.097-19.726,39.951
			c-3.577,11.609-10.346,21.996-18.531,30.953c-5.208,5.7-17.009,20.838-25.731,19.914c-5.654-0.601-6.949-7.678-6.963-14.398
			c-2.148,8.102-0.48,16.731,3.791,23.916c0.859,1.445,2.135,5.293,1.592,6.911c-1.68,4.824-25.864,3.637-26.048,2.72
			c1.304,6.516,1.708,13.432,2.983,19.855c0.926,4.662,1.96,9.307,3.134,13.914c0.539,2.113,0.962,4.499,2.033,6.426
			c1.556,2.802,4.104,5.024,7.129,5.363c0.514,0.017,1.029,0.018,1.544,0.029c3.916,0.081,7.835,0.034,11.731-0.264
			c17.323-1.327,30.007-5.634,42.792-17.405c6-5.502,24.969-2.645,32.29-1.794c1.967,0.229,9.574,4.035,10.48,6.218
			c2.045,5.03-4.409,15.804-6.992,20.188c-1.827,3.1-3.953,7.251-7.955,4.33c-1.767-1.29-3.079-3.136-4.868-4.44
			c0.437,2.894-0.795,5.886-1.747,8.58c-1.432,4.052-3.587,8.592-7.05,10.718c1.745,1.146,3.861,1.941,6.115,2.422
			c8.178,1.746,13.359,3.048,21.632,4.303c1.357,0.206,3.107-0.608,3.563-1.973c6.178-18.471,13.992-36.302,23.397-53.392
			c1.443-2.624-1.651-4.683-4.366-4.355c-5.227,0.632-11.804-1.661-16.515-4.966c-4.987-3.498-9.897-7.117-14.731-10.818
			c-7.876-6.028-8.635-5.234-12.381-13.805c-0.246-1.618,1.636-8.423,1.699-10.078c0.518-13.823-1.094-17.647-4.402-24.962
			c-3.789-8.38-1.459-17.948,1.258-24.123c5.192,1.432,7.983,1.662,12.523,4.9c4.959,3.537,7.006,6.985,10.997,11.395
			c5.231,5.78,13.386,5.473,13.997-1.158c-4.404-4.176-8.235-9.647-4.33-6.37c2.035,1.708,4.231,2.78,6.21,3.606
			c5.821,1.295,15.571-3.084,15.713-10.066C734.917,635.956,733.805,632.055,730.364,629.661z"/>
		<path fill="#EBE1CC" d="M585.966,736.639c-0.771-4.755-1.24-9.04-1.537-10.676c-0.887-4.873-1.97-10.011-2.402-15.081
			c-0.253,0.085-0.506,0.138-0.757,0.234c-5.525,2.107-12.673,2.855-19.187,0.795c-10.392-3.301-11.203-21.577-12.251-29.983
			c-0.45-3.613-0.351-9.102,1.18-13.325c-3.738-1.145-7.472-2.389-11.35-3.493c-14.58-4.15-31.207-0.189-41.574,10.994
			c-8.063,8.698-9.774,19.636-7.793,30.945c1.933,11.032,11.35,24.955,20.213,32.766c-3.828,2.917-12.178,8.833-15.261,12.183
			c-3.137,3.408-7.862,5.123-8.137,10.116c-0.303,5.51,2.657,11.604,3.464,17.054c0.756,5.104,2.621,10.044,3.377,15.148
			c-0.955-0.37-1.803-0.675-2.605-0.876c-0.173,1.163-4.536,18.415-3.206,18.613c0.098,0.015,0.176,0.029,0.28,0.044
			c7.822,1.122,23.433,8.174,24.456-3.818c0.842-9.874-7.369-18.718-5.624-28.865c1.898-11.029,3.445-15.212,13.457-17.662
			c8.553-2.093,16.676-3.951,24.157-8.788c2.77-1.791,5.357-3.819,7.839-5.973c6.476,4.045,26.742,5.091,34.039,6.355
			c0.064,0.011,0.144,0.022,0.205,0.033c1.986,0.356,3.99,0.622,5.988,0.877C589.372,753.789,587.25,744.561,585.966,736.639z"/>
		<path fill="#EBE1CC" d="M1079.686,728.076c-1.788-1.244-4.206-2.081-7.407-2.582c-8.859-1.388-11.718-4.297-16.51-11.606
			c-4.168-6.356-7.824-13.244-13.27-18.593c-4.481,1.549-4.459,8.079-12.647,2.748c-18.951-12.338-17.306,32.097-19.726,39.951
			c-3.577,11.609-10.346,21.996-18.531,30.954c-5.208,5.7-17.009,20.838-25.731,19.913c-5.654-0.6-6.949-7.678-6.959-14.408
			c-0.628,2.367-1.15,4.576-1.102,6.304c0.17,6.124,1.738,12.319,4.89,17.622c0.859,1.445,2.135,5.293,1.599,6.89
			c-1.631,4.825-25.88,3.613-26.055,2.741c1.303,6.516,1.708,13.431,2.983,19.855c1.253,6.31,1.983,14.605,5.164,20.336
			c4.063,7.321,13.366,5.672,20.407,5.133c17.316-1.326,29.997-5.63,42.776-17.39c6.602-6.062,24.113-2.761,32.306-1.808
			c1.966,0.229,9.575,4.036,10.473,6.201c0.798,1.924-0.688,5.041-1.564,6.829c-1.863,3.806-6.368,22.821-13.376,17.706
			c-1.767-1.29-3.079-3.136-4.868-4.439c0.437,2.894-0.795,5.886-1.748,8.58c-1.432,4.052-3.588,8.592-7.05,10.718
			c1.745,1.147,3.862,1.941,6.115,2.423c8.178,1.746,13.36,3.048,21.631,4.303c1.357,0.206,3.107-0.608,3.563-1.973
			c6.178-18.471,13.992-36.302,23.397-53.392c1.444-2.624-1.651-4.683-4.366-4.354c-5.227,0.632-11.804-1.661-16.515-4.966
			c-7.652-5.368-25.494-13.973-27.112-24.622c-0.246-1.618,1.636-8.423,1.699-10.078c0.518-13.823-1.094-17.648-4.402-24.963
			c-3.788-8.38-1.459-17.948,1.258-24.123c5.192,1.432,7.983,1.662,12.523,4.9c4.958,3.538,7.006,6.985,10.997,11.395
			c5.232,5.78,13.386,5.474,13.997-1.157c-4.403-4.176-8.235-9.647-4.33-6.37c2.035,1.708,4.231,2.78,6.21,3.606
			c5.821,1.296,15.571-3.084,15.713-10.066C1084.238,734.371,1083.127,730.47,1079.686,728.076z"/>
		<path fill="#EBE1CC" d="M936.116,839.605c-1.286-6.754-2.134-13.949-2.366-15.227c-0.887-4.873-1.97-10.011-2.402-15.08
			c-0.253,0.085-0.506,0.138-0.758,0.234c-5.525,2.106-12.673,2.854-19.187,0.794c-10.393-3.3-11.204-21.576-12.251-29.982
			c-0.45-3.614-0.352-9.103,1.18-13.325c-3.738-1.145-7.472-2.389-11.35-3.493c-11.998-3.415-25.373-1.326-35.514,5.748
			c-11.932,8.323-16.315,22.135-13.853,36.191c1.932,11.032,11.35,24.954,20.213,32.766c-3.828,2.917-12.178,8.833-15.261,12.182
			c-3.137,3.408-7.862,5.123-8.137,10.116c-0.303,5.51,2.657,11.604,3.464,17.054c0.756,5.104,2.621,10.044,3.377,15.148
			c-0.955-0.37-1.803-0.674-2.609-0.877c-1.557-0.328-3.053,18.637-3.202,18.615c0.098,0.015,0.176,0.029,0.313,0.048
			c8.297,1.188,23.404,8.627,24.423-3.822c0.808-9.88-7.37-18.718-5.624-28.865c1.898-11.029,3.445-15.212,13.458-17.662
			c8.553-2.093,16.676-3.951,24.156-8.788c2.77-1.791,5.358-3.819,7.84-5.973c6.531,4.08,27.114,5.109,34.245,6.388
			c0.275,0.049,0.554,0.074,0.829,0.122c1.362,0.235,2.581,0.506,3.938,0.29C939.084,852.517,937.386,846.276,936.116,839.605z"/>
		<path fill="#EBE1CC" d="M330.854,446.76c36.368-21.765,70.113-48.249,104.212-73.251c34.585-25.358,94.095-87.493,128.15-113.54
			c-5.764,12.052-36.575,70.982-42.303,82.356c-15.178,30.137-33.379,69.751-48.564,102.695c23.387-0.174,46.774-0.283,70.162-0.342
			c4.672-19.944,10.496-44.131,17.339-66.229c10.154-32.794,22.217-94.333,30.189-118.48
			c10.309,53.224,31.782,130.454,52.481,184.82c21.097,0.096,42.194,0.242,63.29,0.433c-0.068-0.257-0.113-0.512-0.211-0.771
			c-12.015-31.961-24.078-59.932-40.266-90.042c-20.638-38.39-48.493-88.484-50.235-93.582
			c33.98,32.625,118.979,104.279,154.298,122.773c35.817,18.755,89.148,48.41,129.561,64.684
			c50.03,1.13,100.055,2.509,150.073,4.155c-53.563-29.801-123.773-55.34-177.113-75.708
			c-58.575-22.366-113.701-48.614-166.937-82.157c-2.29-1.443-22.984-13.696-25.252-15.177
			c-42.764-27.91-78.807-64.802-130.14-31.449c-24.273,15.771-33.605,21.945-53.871,35.201
			c-28.201,18.445-49.892,33.764-79.063,50.655c-10.725,6.209-36.901,21.263-47.622,27.474
			c-28.329,14.377-61.272,25.161-89.624,39.493c-28.409,14.36-66.872,26.836-90.887,48.984c4.546-0.021,9.066-0.067,13.52-0.185
			C244.974,448.438,287.913,447.504,330.854,446.76z"/>
		<path fill="#EBE1CC" d="M1131.653,487.463c-30.732-1.433-146.601-3.421-158.829-3.76c-58.159-1.612-116.328-2.876-174.502-3.784
			c-69.225-1.081-138.459-1.659-207.693-1.723c-68.203-0.063-136.419,0.849-204.612,1.912c-21.125,0.329-42.254-0.019-63.386,0.357
			c-14.408,0.256-220.999,10.879-263.256,3.213c-1.402,21.295,11.714,42.918,31.899,45.611c14.921,1.99,27.638-6.21,35.152-18.823
			c6.417,14.125,19.651,24.423,34.848,23.646c13.819-0.708,24.343-9.172,30.672-20.866c8.415,13.491,19.895,20.479,37.043,17.813
			c4.051-0.63,7.413-2.357,10.269-4.772c5.484-4.636,9.075-11.855,11.885-19.053c-0.301,0.77,3.029,4.365,6.88,8.066
			c9.433,9.066,20.268,14.326,33.734,12.361c14.42-2.105,24.487-14.314,28.354-27.533c0.184,0.302,0.364,0.59,0.557,0.923
			c5.992,10.306,9.23,20.638,20.636,25.006c17.259,6.608,31.539-4.333,39.709-18.543c2.675,6.803,6.939,12.676,12.275,17.25
			c20.322,17.416,44.602,8.183,55.646-11.67c0.254-0.044,0.528-0.064,0.772-0.121c5.824,7.558,13.927,13.089,22.498,15.503
			c22.407,6.308,41.526-9.142,47.847-30.481c-0.972,3.28,8.866,18.317,11.294,20.962c7.352,8.011,26.139,9.261,37.027,7.567
			c2.522-0.392,11.312-6.65,16.681-15.988c1.561-2.714,2.839-5.679,3.579-8.847c0.014-0.06,0.035-0.118,0.049-0.178
			c0.048,0.058,0.099,0.118,0.146,0.176c4.259,5.177,9.47,10.89,15.188,15.115c10.176,7.518,23.195,8.071,33.618,0.716
			c2.257-1.593,13.516-11.796,11.731-15.07c2.365,4.339,4.847,8.5,8.736,12.204c20.73,19.746,52.69,11.943,63.007-12.935
			c6.88,10.029,18.535,19.637,30.706,18.69c12.622-0.982,23.11-11.606,29.666-22.181c8.799,27.408,43.24,37.476,61.222,10.424
			c0.761-1.145,4.845-9.176,5.51-10.671c0,0,5.293,15.694,17.763,20.115c12.578,4.459,24.716-3.545,32.41-12.983
			c1.072-1.315,9.905-13.241,10.06-10.025c0.789,16.394,13.803,21.991,26.076,22.966c0.678,0.054,1.355,0.102,2.026,0.129
			c6.042,0.24,11.777-2.474,16.812-6.353c4.608-3.55,8.631-8.073,11.745-12.239c2.858,5.311,4.601,11.777,8.85,16.224
			c6.034,6.316,12.326,4.742,20.27,6.013c14.294,2.287,24.677-7.315,30.895-19.881c6.078,13.641,20.277,23.237,34.929,21.801
			c10.77-1.055,17.636-16.482,21.555-24.614c3.818,7.472,11.341,20.326,18.606,22.767c15.056,5.059,29.91-0.656,35.87-17.431
			c1.827-5.142,3.54-10.926,3.027-16.389C1139.087,487.89,1136.375,487.683,1131.653,487.463z"/>
	</g>
	<g>
		<path fill="#9E1C1C" d="M262.465,780.292c-0.048-1.728,0.475-3.937,1.102-6.304c0.836-3.15,1.863-6.587,2.029-9.615
			c0.173-3.151-1.007-6.415-4.31-7.635c-0.541-0.199-1.088-0.308-1.637-0.38c-5.894-0.768-12.225,5.236-17.933,5.753
			c-0.333,0.03-0.665,0.036-0.998,0.056c-6.346,0.398-12.701-0.805-19.067-1.081c-5.227-0.228-9.227-2.577-13.574,0.761
			c-4.85,3.724-4.935,12.612-4.26,18.03c1.047,8.406,1.858,26.682,12.251,29.982c6.513,2.06,13.662,1.312,19.187-0.794
			c0.252-0.096,0.506-0.148,0.757-0.234c0.431,5.07,1.515,10.208,2.402,15.081c0.899,4.937,1.975,9.842,3.142,14.726
			c2.293,9.594,6.791,20.276,18.408,16.089c0.511-0.189,0.861-0.298,1.015-0.83c-0.51,1.755-9.274-4.978-9.929-6.158
			c-3.171-5.711-3.912-14.019-5.167-20.34c-1.274-6.423-1.679-13.339-2.983-19.855c4.754-0.276,9.573,0.386,14.395,0.408
			c2.832,0.013,10.439,0.486,11.662-3.155c0.534-1.591-0.743-5.438-1.602-6.884C264.203,792.612,262.635,786.417,262.465,780.292z"
			/>
		<path fill="#9E1C1C" d="M608.731,682.345c0.105-5.485,2.583-10.486,2.88-15.924c0.054-0.977,0.001-1.903-0.163-2.771
			c-1.581-8.355-10.895-4.567-16.112-2.439c-9.578,3.906-17.429,2.371-27.67,1.926c-5.227-0.227-9.227-2.577-13.576,0.762
			c-1.408,1.081-2.379,2.773-3.079,4.705c-1.531,4.222-1.63,9.711-1.18,13.325c1.047,8.406,1.858,26.682,12.251,29.983
			c6.514,2.06,13.663,1.312,19.187-0.795c0.251-0.096,0.505-0.148,0.757-0.234c0.431,5.07,1.514,10.207,2.402,15.081
			c1.69,9.279,2.297,31.296,15.786,32.098c1.168,0.069,5.651-0.602,5.327-2.346c-0.12-0.649-3.086-0.926-3.653-1.208
			c-2.085-1.036-3.697-2.685-4.825-4.716c-1.07-1.927-1.494-4.312-2.033-6.426c-1.174-4.608-2.208-9.252-3.134-13.914
			c-1.274-6.424-1.679-13.339-2.983-19.855c4.754-0.275,9.573,0.386,14.395,0.408c2.828,0.013,10.454,0.444,11.663-3.155
			c0.534-1.59-0.742-5.439-1.601-6.884C610.391,694.953,608.612,688.515,608.731,682.345z"/>
		<path fill="#9E1C1C" d="M957.887,780.758c0.004-2.157,0.247-4.307,0.774-6.42c0.685-2.744,1.836-5.379,2.22-8.181
			c0.384-2.802-0.166-5.961-2.323-7.791c-2.181-1.85-5.426-1.855-8.157-1.005c-2.731,0.85-5.177,2.421-7.83,3.49
			c-9.575,3.856-20.33,0.795-30.615-0.082c-18.596-1.585-12.889,24.997-10.095,36.017c0.898,3.54,1.958,7.19,4.38,9.924
			c2.96,3.341,7.589,4.816,12.053,4.905c4.463,0.089,8.85-1.047,13.169-2.174c1.021,10.496,2.799,20.919,5.318,31.16
			c1.161,4.718,2.631,9.657,6.207,12.947c3.575,3.29,9.92,4.036,13.013,0.29c-3.232,0.564-6.498-1.364-8.437-4.011
			c-1.939-2.647-2.807-5.909-3.57-9.1c-2.586-10.805-4.434-21.786-5.528-32.842c6.96,0.531,13.957,0.584,20.925,0.158
			c1.269-0.078,2.623-0.203,3.617-0.997c2.389-1.907,0.979-5.686-0.402-8.413C959.803,793.098,957.876,786.902,957.887,780.758z"/>
		<path fill="#9E1C1C" d="M551.724,176.063c0.451,1.055,0.777,1.848,1.031,2.468c0.973,2.365,1.047,2.489,2.662,4.499
			c0.427,0.53,0.97,1.211,1.593,1.988c1.821,3.049,4.297,5.519,7.354,7.348c1.32,1.522,2.903,2.662,4.697,3.391l9.586,3.987
			l11.02,1.524l0.453,0.048c0.453,0.019,0.901,0.027,1.344,0.027c7.765,0,13.806-2.783,20.245-5.753
			c4.761-2.54,8.639-6.057,11.386-10.278c3.616-3.902,6.089-8.549,7.378-13.944l1.418-10.453c0.209-5.517-0.96-10.739-3.475-15.524
			c-0.986-3.396-2.754-6.394-5.259-8.92c-2.882-4.348-6.733-7.826-11.563-10.392l-9.559-3.974c-1.789-0.475-3.645-0.838-5.429-1.068
			c-6.471-1.278-11.484-0.734-18.408,0.684l-0.48,0.072c-5.185,1.217-9.777,3.595-13.647,7.062
			c-2.996,1.779-5.426,4.178-7.226,7.136c-3.51,3.825-5.914,8.366-7.155,13.528c-0.337,1.535-1.455,9.095-1.458,10.593
			c-0.194,1.93,0.034,3.873,0.673,5.776C548.951,169.505,549.9,172.925,551.724,176.063z"/>
		<path fill="#9E1C1C" d="M1148.091,471.926c-0.764-9.628-14.249-18.339-27.127-18.788
			c-328.351-11.459-657.057-12.769-985.489-3.926c-21.512,0.579-43.942,0.556-65.048,5.268c-22.841,5.1-29.451,22.469-3.463,31.356
			c10.743,3.674,22.393,3.263,33.738,2.825c335.88-12.954,672.29-12.614,1008.106,1.902c9.4,0.406,19.292,0.722,27.659-3.58
			C1145.295,482.444,1148.498,477.055,1148.091,471.926z"/>
	</g>
	<g>
		<path fill="#4C5168" d="M240.826,681.193c0.35,44.377,0.469,80.94-0.109,80.975c0.333-0.021,0.665-0.026,0.998-0.056
			c5.708-0.518,12.04-6.522,17.933-5.754c-0.798-80.355-1.45-160.7-1.627-241.059c-3.85-3.701-7.181-7.296-6.88-8.066
			c-2.81,7.198-6.401,14.417-11.885,19.053c0,0,0.004,0.493,0.005,0.575C239.352,538.381,240.326,617.767,240.826,681.193z"/>
		<path fill="#4C5168" d="M258.911,853.173c0.664,0.005,1.178,0.07,1.554,0.172l-0.001-0.198c-0.763-0.011-1.524-0.017-2.286-0.043
			C258.42,853.131,258.661,853.171,258.911,853.173z"/>
		<path fill="#4C5168" d="M604.192,755.154c0.243,0.027,0.484,0.068,0.733,0.069c0.3,0.002,0.569,0.017,0.811,0.041v-0.081
			C605.222,755.172,604.707,755.171,604.192,755.154z"/>
		<path fill="#4C5168" d="M585.893,664.266c0.612-0.025,1.225-0.048,1.837-0.104c5.408-0.49,11.375-5.914,16.999-5.834
			c0-22.203-0.319-44.406-0.319-66.61c-0.054,0.041-0.108,0.083-0.162,0.125l-0.234-75.044c-5.718-4.225-10.929-9.938-15.188-15.115
			l-0.195,0.003c-0.741,3.169-2.019,6.134-3.579,8.848c0,9.849,0.022,19.698,0.059,29.547
			C585.266,581.476,585.69,622.874,585.893,664.266z"/>
		<path fill="#4C5168" d="M605.737,755.265l0.013,1.588c0.07-0.025,0.122-0.036,0.193-0.062
			C607.715,756.152,607.511,755.44,605.737,755.265z"/>
		<path fill="#4C5168" d="M953.512,853.569c0.244,0.028,0.484,0.068,0.735,0.07c0.713,0.005,1.245,0.082,1.625,0.197l-0.002-0.222
			C955.084,853.603,954.298,853.596,953.512,853.569z"/>
		<path fill="#4C5168" d="M935.222,659.157c0.139,22.231,0.313,44.461,0.548,66.691c0.024-0.028,0.048-0.058,0.072-0.086
			l0.372,36.622c-0.02,0.021-0.038,0.043-0.058,0.064l0.002,0.181c0.298-0.02,0.595-0.023,0.893-0.051
			c5.75-0.521,12.133-6.614,18.063-5.74c-0.637-81.672-1.509-163.337-1.757-245.011c-5.035,3.879-10.77,6.593-16.812,6.353
			c-0.671-0.027-1.348-0.075-2.026-0.129l0.078,10.551C934.808,572.119,934.949,615.639,935.222,659.157z"/>
		<path fill="#4C5168" d="M955.872,853.836l0.009,1.105C956.716,854.503,956.661,854.075,955.872,853.836z"/>
		<path fill="#4C5168" d="M1089.606,992.634c-36.995-1.227-73.994-2.306-110.997-3.272v-17.485h-8.871v-9.721h-13.062L955.88,854.94
			c-0.17,0.089-0.372,0.178-0.616,0.266c-6.823,2.459-8.391,1.029-11.616-1.382c-0.524-0.392-0.972-0.773-1.384-1.151
			c-1.727-0.22-3.45-0.462-5.164-0.755c0.076,7.18,0.171,14.359,0.228,21.552c0.1,27.79,0.15,60.322,0.41,88.687h-13.354v9.721
			h-7.981v15.984c-95.69-2.116-191.4-3.334-287.116-3.645v-12.338h-8.871v-9.721h-13.064l-1.603-205.303
			c-6.646,2.354-8.232,0.942-11.423-1.444c-0.525-0.392-0.973-0.773-1.384-1.152c-2.004-0.255-4.008-0.522-5.994-0.878
			c-0.061-0.011-0.142-0.022-0.205-0.033l0.15,14.327c-0.02,0.02,0.199,23.825,0.249,23.788c0.258,24.096,0.439,48.193,0.755,72.276
			c0,0,0.178,70.818,0.505,98.42h-13.339v9.721h-7.981v12.263c-70.728,0.061-141.454,0.583-212.173,1.625
			c-23.88,0.352-47.758,0.779-71.637,1.244v-15.132h-8.87v-9.721h-13.086l-0.842-107.651c-0.158,0.079-0.331,0.158-0.547,0.236
			c-6.823,2.459-8.391,1.029-11.616-1.382c-0.525-0.392-0.973-0.773-1.384-1.151c-1.76-0.224-3.515-0.469-5.261-0.771l0.194,16.99
			c0.007-0.004,0.147,11.483,0.147,11.483c-0.005,0.004-0.011,0.007-0.017,0.011c0,0,0.24,62.48,0.242,62.478l0.116,10.476
			c-0.002,0.001-0.003,0.001-0.004,0.002l0.056,9.28h-13.354v9.721h-7.982v16.302c-39.939,0.134-83.25-2.38-121.209,7.083
			c-8.719,2.174-7.619,14.525-1.017,18.503c0.916,0.552,1.934,0.949,3.051,1.129c39.1,6.295,82.572,0.849,122.14-0.074
			c40.294-0.94,80.591-1.721,120.893-2.339c82.152-1.261,164.315-1.862,246.478-1.796c165.878,0.133,331.743,3.025,497.52,8.524
			c7.065,0.235,11.451-3.725,13.098-8.652C1104.565,1002.937,1100.541,992.997,1089.606,992.634z"/>
	</g>
</g>
</svg>
