<?xml version="1.0" encoding="utf-8"?>
<!-- Designed by Vexels.com - 2019 All Rights Reserved - https://vexels.com/terms-and-conditions/  -->
<svg version="1.1" id="Layer_1" xmlns="http://www.w3.org/2000/svg" xmlns:xlink="http://www.w3.org/1999/xlink" x="0px" y="0px"
	 viewBox="0 0 1200 1200" style="enable-background:new 0 0 1200 1200;" xml:space="preserve">
<style type="text/css">
	.st0{fill:#367473;}
	.st1{fill:#FFD393;}
	.st2{fill:#C78847;}
	.st3{fill:#093737;}
	.st4{fill:#CA793F;}
	.st5{fill:#2A4F52;}
	.st6{fill:#CEDBE3;}
	.st7{fill:#1A4C4B;}
	.st8{fill:#E8C47F;}
	.st9{fill:#F69654;}
	.st10{fill:#E2DDCF;}
	.st11{fill:#FFFFFF;}
	.st12{fill:#17201F;}
	.st13{fill:#98998A;}
	.st14{fill:#193441;}
	.st15{fill:#BB4F54;}
	.st16{fill:#57252B;}
	.st17{fill:#28434C;}
	.st18{fill:#8C3439;}
	.st19{fill:#59262C;}
	.st20{fill:#8F2D36;}
	.st21{fill:#E3DED0;}
	.st22{fill:#BABBA7;}
	.st23{fill:#9C4C23;}
	.st24{fill:#F79653;}
	.st25{fill:#6F343B;}
	.st26{fill:#CA653E;}
	.st27{fill:#AD8D6C;}
	.st28{fill:#CB793F;}
</style>
<g>
	<path class="st0" d="M671.7,983.7c2.8-0.7,5.7-1.2,8.5-0.9c8.8-7.1,18-13.9,25.4-22.5c14.7-17,20.7-39.6,28.9-60.5
		c9.7-24.6,22.8-47.8,39-68.7c1.5-1.9,3.1-4.2,2.8-6.6c-0.4-3.2-3.8-4.9-6.7-6.3c-19.6-9.5-34.9-26.3-45.7-45.1
		c-1.2-2.1-2.3-4.2-3.4-6.3c-0.3-0.6-0.6-1.2-0.9-1.8c-0.9-1.7-1.7-3.5-2.5-5.2c-0.3-0.6-0.5-1.2-0.8-1.7c-0.8-1.8-1.6-3.7-2.4-5.5
		c-0.4-1.1-0.9-2.1-1.3-3.2c-0.3-0.9-0.7-1.7-1-2.6c0-0.1-0.1-0.2-0.1-0.3c-1.3-3.4-2.5-6.8-3.7-10.3c-0.4-1.2-0.8-2.3-1.2-3.5
		c-2.1-6.7-4.1-13.4-6-20.1c-2-7.2-3.9-14.6-8.2-20.7c-4.3-6.1-11.6-10.7-19-9.6c-2.1,0.3-4.1,1.1-5.9,2.1v0c-1,3.5-1.8,7-2.4,10.6
		c-2.7,17.4-0.1,35.2,6.2,51.7v0c0,0,0,0,0,0c2.6,6.8,5.9,13.3,9.7,19.5c0.7,1.1,1.5,2.3,2.2,3.4c0.5,0.8,1,1.6,1.5,2.3
		c15.5,22.2,37.7,39.2,61.7,51.8c-8,23.7-19.3,46.5-30.6,68.8c-11.3,22.2-23.8,44.1-39.7,63.4c-6.7,8.2-15.3,14.8-22.4,22.6
		c0.2,0.1,0.5,0.2,0.7,0.3C660.2,974.9,668.9,977.5,671.7,983.7z"/>
	<path class="st0" d="M471.4,1001.1c0.9,0.6,1.7,1.3,2.7,1.6c1.4,0.3,2.8-0.3,4.1-0.7c0.4-0.1,0.9-0.2,1.4-0.3
		c4-2.5,8.3-4.9,12.2-7.6c16.6-11.6,27-29.9,35.6-48.3c0.4-0.9,0.9-1.9,1.3-2.8c10.1-21.9,18.9-44.3,26.3-67.2
		c4.4-13.7,8.4-27.8,7.9-42.2c-0.6-13.6-5.1-26.6-9.7-39.3c-0.3-0.7-0.5-1.4-0.8-2.2c-0.6-1.8-1.3-3.5-1.9-5.3
		c-0.1-0.4-0.3-0.7-0.4-1.1c-2.9-7.9-5.9-15.8-9.1-23.5c0,0,0-0.1-0.1-0.1c-0.1-0.2-0.1-0.4-0.2-0.5c0,0,0,0,0,0l0,0v0
		c-7.1-16.8-15.4-32.9-26.7-47c-2.2-2.7-6.3-5.4-8.6-2.9c-1,1.1-1,2.7-1,4.1c0,3.4,0.2,6.8,0.7,10.2v0c4.8,9.1,9.2,18.4,13.4,27.7
		c-2.1-0.3-4.2-0.6-6.3-0.8c-0.2,0-0.4,0-0.5-0.1c-1.2-0.1-2.5-0.2-3.7-0.3c-0.7-0.1-1.4-0.1-2.2-0.2c-0.3,0-0.5,0-0.8-0.1
		c-0.3,0-0.5,0-0.8-0.1c-1.8-0.1-3.5-0.3-5.3-0.4l0,0c-2.2-0.2-4.3-0.3-6.4-0.5c-1.7-0.2-3.5-0.3-5.2-0.5c-0.5-0.1-1.1-0.1-1.6-0.2
		c-1.2-0.2-2.4-0.3-3.6-0.5c-0.6-0.1-1.2-0.2-1.9-0.3c-1.2-0.2-2.3-0.4-3.5-0.6c-0.6-0.1-1.2-0.2-1.8-0.3c-1.4-0.3-2.8-0.5-4.1-0.8
		c-0.3-0.1-0.7-0.1-1-0.2c-1.7-0.4-3.4-0.8-5.1-1.2c-0.5-0.1-0.9-0.2-1.4-0.4c-1.2-0.3-2.5-0.6-3.7-1c-0.6-0.2-1.2-0.3-1.8-0.5
		c-1.1-0.3-2.2-0.6-3.4-1c-0.6-0.2-1.2-0.4-1.8-0.5c-1.2-0.4-2.4-0.8-3.6-1.2c-0.5-0.2-0.9-0.3-1.4-0.4c-1.7-0.6-3.3-1.2-4.9-1.8
		c-0.3-0.1-0.6-0.2-0.9-0.4c-1.3-0.5-2.7-1-4-1.6c-0.5-0.2-1.1-0.4-1.6-0.7c-1.1-0.5-2.2-0.9-3.3-1.4c-0.6-0.2-1.1-0.5-1.7-0.8
		c-1.1-0.5-2.2-1-3.3-1.5c-0.5-0.2-1-0.5-1.5-0.7c-1.6-0.8-3.1-1.5-4.7-2.3c0,0,0,0,0,0c-2.2-1.2-4.5-2.4-6.6-3.6
		c-0.6-0.3-1.1-0.6-1.7-0.9c-2.2-1.3-4.4-2.5-6.5-3.9c0,0,0,0,0,0c-3.2-2-6.4-4.1-9.4-6.3c-1.5-1.1-3.1-2.2-4.6-3.4
		c-2.6-2-5.1-4-7.6-6.1c-0.4-0.4-0.8-0.7-1.2-1c0,0,0,0,0,0c0,0,0,0,0,0c-1.9-1.6-3.8-3.3-5.6-5c-0.5-0.4-0.9-0.9-1.4-1.3
		c-1.8-1.7-3.6-3.5-5.4-5.3c0,0,0,0,0,0c-1.1-1.1-2.2-2.3-3.3-3.5c-0.2-0.2-0.4-0.4-0.6-0.6c-0.9-1-1.9-2.1-2.8-3.2
		c-0.3-0.4-0.6-0.7-1-1.1c-0.8-0.9-1.6-1.9-2.4-2.9c-0.4-0.5-0.8-1-1.2-1.5c-0.6-0.8-1.3-1.6-1.9-2.5c-0.5-0.7-1-1.3-1.5-2
		c-0.7-0.9-1.3-1.8-1.9-2.7c-0.5-0.6-0.9-1.3-1.4-1.9c-0.7-1-1.3-2-2-3c-0.4-0.6-0.8-1.1-1.1-1.7c-0.7-1.1-1.4-2.2-2.1-3.3
		c-0.3-0.5-0.6-1-0.9-1.5c-0.6-1.1-1.3-2.2-1.9-3.3c-0.3-0.6-0.6-1.1-0.9-1.7c1.8,10.7,5.7,21,11,30.6c0.5,0.9,1,1.8,1.5,2.7
		c3.3,5.7,7,11.1,11.1,16.2c9.5,11.8,20.7,22.1,32.6,31.6c1.1,0.9,2.3,1.8,3.4,2.8c5.4,4.2,10.8,8.3,16.3,12.4
		c4.2,3.1,8.4,6.2,12.8,8.9c2.1,1.3,4.2,2.5,6.4,3.7c1.4,0.7,2.7,1.4,4.1,2.1c13.4,6.5,28,10.3,42.8,11.1c1.5,0.1,3,0.1,4.4,0.2
		c0.4,0,0.7,0,1,0c2.9,0,5.9-0.1,8.8-0.3c8.8-0.6,17.6-2,26.4-3.6c2.4,6.1,4.6,12.1,6.7,18.3c0,0,0,0,0,0c2.7,7.9,5.3,15.9,7.6,23.9
		c1.7,5.9,3.3,12,3.1,18.1c0,0.7-0.1,1.3-0.1,2c-0.5,5.2-2.2,10.2-3.9,15.2c-0.9,2.6-1.9,5.2-2.8,7.9c-11.3,31-24.7,61.3-40.3,90.4
		c-1.7,3.1-3.4,6.2-5.2,9.3c-4.8,8.1-10.2,15.9-17.2,22c-6.9,6-15.6,10.7-23,16.2c1.6,0.5,3.2,1.1,4.7,1.8
		C461.4,998,467.2,998.3,471.4,1001.1z"/>
	<path class="st1" d="M611.8,785.7c1.2-0.2,2.4-0.4,3.6-0.5c0.9-0.1,1.7-0.3,2.6-0.4c1.5-0.2,3-0.5,4.5-0.8c1.2-0.2,2.3-0.4,3.5-0.6
		c1.2-0.2,2.3-0.5,3.5-0.7c2.3-0.5,4.6-1,7-1.5c1.1-0.3,2.3-0.5,3.5-0.8c1.1-0.3,2.2-0.5,3.2-0.8c2.4-0.6,4.7-1.2,7-1.9
		c1.1-0.3,2.3-0.6,3.4-1c1-0.3,1.9-0.6,2.9-0.9c0.2-0.1,0.4-0.1,0.6-0.2c2-0.6,3.9-1.3,5.9-2c0.3-0.1,0.7-0.2,1-0.4
		c1.4-0.5,2.9-1,4.3-1.6c1.1-0.4,2.1-0.8,3.2-1.3c0.7-0.3,1.4-0.5,2-0.8c1.1-0.5,2.2-0.9,3.2-1.4c1.4-0.6,2.8-1.3,4.2-2.1
		c-3.8-6.2-7.1-12.7-9.7-19.5c-2.7,1.4-5.3,2.9-8,4.4c-0.5,0.3-1,0.5-1.4,0.8c-0.5,0.3-1,0.6-1.5,0.8c-0.2,0.1-0.4,0.2-0.6,0.3
		c-0.2,0.1-0.5,0.3-0.7,0.4c-0.4,0.2-0.9,0.4-1.3,0.7c-0.7,0.3-1.3,0.7-2,1c-0.4,0.2-0.8,0.4-1.2,0.6c-0.1,0-0.1,0.1-0.2,0.1
		c-0.2,0.1-0.4,0.2-0.6,0.3c-1.4,0.7-2.8,1.3-4.2,1.9c-0.1,0-0.2,0.1-0.3,0.1c-1.2,0.5-2.4,1-3.6,1.4c-0.4,0.1-0.8,0.3-1.1,0.4
		c-0.1,0-0.2,0.1-0.3,0.1c-0.6,0.2-1.2,0.4-1.8,0.6c-0.3,0.1-0.6,0.2-0.8,0.3c-0.4,0.1-0.7,0.3-1.1,0.4c-0.7,0.2-1.4,0.4-2.1,0.7
		c-0.5,0.2-1,0.3-1.5,0.5c-0.1,0-0.2,0.1-0.2,0.1c-0.2,0.1-0.5,0.1-0.7,0.2c-1.1,0.3-2.2,0.6-3.3,0.9c-0.3,0.1-0.7,0.2-1,0.2
		c-0.5,0.1-1,0.2-1.6,0.4c-0.5,0.1-1.1,0.2-1.6,0.4c-0.4,0.1-0.9,0.2-1.3,0.3c-0.7,0.1-1.3,0.3-2,0.4c-0.2,0-0.3,0.1-0.5,0.1
		c-0.1,0-0.3,0-0.4,0.1c-0.3,0.1-0.6,0.1-0.9,0.2c-0.5,0.1-1,0.2-1.4,0.2c-0.8,0.1-1.5,0.2-2.3,0.4c-0.3,0-0.5,0.1-0.8,0.1
		c-0.3,0-0.7,0.1-1,0.1c-0.1,0-0.2,0-0.2,0c-0.8,0.1-1.6,0.2-2.4,0.3c-0.4,0-0.7,0.1-1.1,0.1c-0.8,0.1-1.5,0.2-2.3,0.2
		c-0.6,0.1-1.3,0.1-1.9,0.2c-0.4,0-0.8,0.1-1.2,0.1c-0.7,0.1-1.5,0.1-2.2,0.2c-0.2,0-0.4,0-0.6,0c-0.8,0.1-1.6,0.1-2.4,0.2
		c-0.2,0-0.5,0-0.7,0c-2.2,0.1-4.3,0.3-6.5,0.4c2.7,6.2,5.2,12.4,7.5,18.7c1.5-0.2,3-0.4,4.5-0.6
		C609.5,786.1,610.6,785.9,611.8,785.7z"/>
	<path class="st2" d="M611.8,785.7c1.2-0.2,2.4-0.4,3.6-0.5c0.9-0.1,1.7-0.3,2.6-0.4c3.4-6.2,6.7-12.9,6.6-19.5
		c-1.9,0.4-3.9,0.7-5.9,1C618.8,772.7,615.2,779.5,611.8,785.7z"/>
	<path class="st2" d="M659,753.2c-1.7,0.9-3.5,1.8-5.3,2.7c2.7,6.3,3.9,12.9,3.4,19.6c2-0.6,3.9-1.3,5.9-2
		C663.4,766.5,662,759.7,659,753.2z"/>
	<path class="st3" d="M676.8,768.1c-1.1,0.5-2.2,0.9-3.2,1.4c-0.7,0.3-1.4,0.6-2,0.8c-1.1,0.5-2.1,0.9-3.2,1.3
		c-1.4,0.6-2.8,1.1-4.3,1.6c-0.3,0.1-0.7,0.2-1,0.4c-2,0.7-3.9,1.4-5.9,2c-0.2,0.1-0.4,0.2-0.6,0.2c-1,0.3-1.9,0.6-2.9,0.9
		c-1.1,0.4-2.3,0.7-3.4,1c-2.3,0.7-4.7,1.3-7,1.9c-1.1,0.3-2.2,0.5-3.2,0.8c-1.2,0.3-2.3,0.5-3.5,0.8c-2.3,0.5-4.6,1-7,1.5
		c-1.2,0.2-2.3,0.5-3.5,0.7c-1.2,0.2-2.3,0.4-3.5,0.6c-1.5,0.3-3,0.5-4.5,0.8c-0.9,0.2-1.7,0.3-2.6,0.4c-1.2,0.2-2.4,0.4-3.6,0.5
		c-1.2,0.2-2.3,0.4-3.5,0.5c-1.5,0.2-3,0.4-4.5,0.6c0.9,2.3,1.7,4.6,2.6,7c0.8,2.3,1.6,4.7,2.4,7c0.8,2.4,1.6,4.8,2.3,7.3
		c0.7,2.4,1.4,4.9,2,7.4c1.2,5,2,10,2.3,15.1c0.5,10-1.4,20.1-3.8,29.8c-1.4,5.9-3,11.7-4.7,17.4c9.5-11.8,18.7-23.7,28-35.7
		c2.2-2.9,4.5-6.4,3.4-9.8c-0.9-2.8-3.7-4.4-5.1-7c-2.5-4.6,0.3-10.1,3.4-14.4c7.3-10.3,16.1-19.4,26.1-27.2
		c6.6-5.1,13.7-9.6,20.5-14.5c-0.7-1.1-1.5-2.2-2.2-3.4C679.6,766.7,678.2,767.4,676.8,768.1z"/>
	<path class="st4" d="M381,548c1.6-0.8,3.2-1.7,4.5-3c2-2,3.2-4.9,2.4-7.6c-0.4-1.3-1.3-2.4-2.2-3.3c-1-1.1-2.2-2-3.5-2.8
		C380.6,536.6,380.3,542.3,381,548z"/>
	<path class="st4" d="M769.8,590.4c0.1-2.7-1.4-5.2-3.5-6.8c-2.1-1.6-4.7-2.5-7.2-3.2c-15.3-4-31.5-1.6-46.9,2.4
		c17.7,3.7,34.9,9.1,51.7,16C766.8,596.6,769.7,594,769.8,590.4z"/>
	<path class="st4" d="M816.1,613.6c1.7-3,2.7-6.6,1.5-9.8c-0.6-1.6-1.8-3-3.1-4.1c-4.1-3.3-9.7-3.9-15-4
		c-11.5-0.3-23.3,0.9-34.6,3.4c15.1,6.3,29.8,13.7,43.8,22.2C811.7,619.4,814.3,616.7,816.1,613.6z"/>
	<path class="st4" d="M589,572.9c-2-1.2-4.6-0.6-6.8,0.1c-10.2,3.1-18.9,8.2-26.9,15.2c11.9-2.2,23.9-4.2,36-5.9
		C591.9,578.8,592,574.6,589,572.9z"/>
	<path class="st4" d="M652.7,570.8c0.2-1.1,0.3-2.3-0.1-3.4c-0.9-2.1-3.7-2.6-6-2.6c-19.2-0.2-38.4,6-53.9,17.2
		c19.7-2.7,39.5-4.6,59.1-5C652.1,575,652.4,572.9,652.7,570.8z"/>
	<path class="st4" d="M852.8,636.6c0.6-4.8-3.2-9-7.4-11.5c-10.8-6.3-23.5-5-36-3.4c12,7.3,23.6,15.4,34.7,24
		C848.3,643.8,852.2,641,852.8,636.6z"/>
	<path class="st4" d="M886.2,684.5c5.8,6,11.8,11.7,18.1,17c2.9-1.2,5.9-2.3,8.8-3.5c1.3-0.5,2.7-1.1,3.4-2.3c1.1-1.8,0.2-4.2-0.9-6
		c-4.3-6.8-11.6-11.4-19.2-14c-7.3-2.5-15-3.3-22.7-4.1c1.7,1.7,3.4,3.3,5,5C881.2,679.2,883.7,681.9,886.2,684.5z"/>
	<path class="st4" d="M882.3,669.6c1.9-0.8,3.7-2.2,4.2-4.1c0.5-2.3-1.1-4.4-2.8-6c-5.4-5.2-12.5-8.3-19.8-10
		c-5.9-1.4-12-1.9-18-2.2c9.6,7.7,18.9,15.8,27.7,24.4C876.5,671.5,879.5,670.9,882.3,669.6z"/>
	<path class="st4" d="M709.4,582.2c1.4-1.4,3-2.7,4.4-4.2c1.9-2.1,3.2-5,2.3-7.6c-1.3-3.5-5.9-4.3-9.7-4.3
		c-16.2,0.1-31.9,5.1-47.2,10.9C676.1,577.1,692.9,578.9,709.4,582.2z"/>
	<polygon class="st0" points="763.9,598.7 763.9,598.7 763.9,598.7 	"/>
	<path class="st0" d="M938.8,725.4c0.9,0.5,1.8,0.9,2.7,1.4C940.6,726.3,939.7,725.8,938.8,725.4z"/>
	<path class="st0" d="M934.5,723c0.8,0.4,1.6,0.9,2.4,1.3C936.1,723.9,935.3,723.4,934.5,723z"/>
	<path class="st0" d="M963.4,736.1c1.2,0.4,2.5,0.8,3.7,1.2C965.9,736.9,964.6,736.5,963.4,736.1z"/>
	<path class="st0" d="M946.9,729.4c5.2,2.5,10.5,4.6,15.9,6.5C957.4,734,952.1,731.8,946.9,729.4z"/>
	<path class="st0" d="M930.5,720.6L930.5,720.6C930.5,720.6,930.6,720.7,930.5,720.6C930.6,720.7,930.5,720.6,930.5,720.6z"/>
	<path class="st0" d="M943.1,727.5c1,0.5,2.1,1,3.1,1.5C945.1,728.6,944.1,728.1,943.1,727.5z"/>
	<path class="st0" d="M917.5,711.9c1.8,1.3,3.6,2.6,5.5,3.8C921.1,714.5,919.3,713.2,917.5,711.9z"/>
	<path class="st0" d="M905.4,702.5c3.9,3.2,7.8,6.3,11.9,9.3C913.2,708.8,909.2,705.7,905.4,702.5z"/>
	<path class="st0" d="M929.8,720.2c-2-1.2-3.9-2.5-5.9-3.8C925.8,717.7,927.8,718.9,929.8,720.2L929.8,720.2z"/>
	<path class="st0" d="M967.3,737.3c3.7,1.1,7.4,2.1,11.2,2.9C974.7,739.4,971,738.4,967.3,737.3z"/>
	<path class="st0" d="M573.3,585C573.3,585,573.3,585,573.3,585C573.3,585,573.3,585,573.3,585z"/>
	<path class="st0" d="M564.2,586.6c0.1,0,0.2,0,0.3-0.1C564.3,586.6,564.2,586.6,564.2,586.6z"/>
	<polygon class="st0" points="553.9,588.5 553.9,588.5 553.9,588.5 	"/>
	<path class="st0" d="M1028.5,740.7c1.8-0.3,3.5-0.7,5.3-1.2C1032,739.9,1030.3,740.3,1028.5,740.7z"/>
	<path class="st0" d="M1023.2,741.6c1.7-0.3,3.4-0.6,5.2-0.9C1026.7,741,1024.9,741.3,1023.2,741.6z"/>
	<path class="st0" d="M1018,742.3c1.6-0.2,3.3-0.4,4.9-0.6C1021.2,741.9,1019.6,742.1,1018,742.3z"/>
	<path class="st0" d="M1040.6,737.7L1040.6,737.7c1-0.3,2-0.6,3-0.9C1042.5,737.1,1041.6,737.4,1040.6,737.7z"/>
	<path class="st0" d="M1033.8,739.5c1.8-0.4,3.6-0.9,5.4-1.4C1037.4,738.6,1035.6,739.1,1033.8,739.5z"/>
	<path class="st0" d="M996.8,742.8c1.4,0.1,2.9,0.1,4.3,0.2C999.7,742.9,998.3,742.9,996.8,742.8z"/>
	<path class="st0" d="M994.1,742.5c-5.2-0.5-10.4-1.2-15.5-2.3C983.8,741.3,988.9,742.1,994.1,742.5L994.1,742.5z"/>
	<path class="st0" d="M1007.4,743c1.5,0,2.9-0.1,4.4-0.2C1010.4,742.9,1008.9,743,1007.4,743z"/>
	<path class="st0" d="M1006.4,743c-1.4,0-2.8,0-4.2,0C1003.5,743,1004.9,743,1006.4,743z"/>
	<path class="st0" d="M1012.7,742.8c1.6-0.1,3.1-0.2,4.7-0.4C1015.8,742.5,1014.3,742.7,1012.7,742.8z"/>
	<path class="st5" d="M383.9,526.8C383.9,526.8,383.8,526.8,383.9,526.8C383.8,526.8,383.9,526.8,383.9,526.8z"/>
	<path class="st5" d="M424.7,594.5c0.2,0.1,0.5,0.2,0.7,0.2C425.2,594.6,425,594.5,424.7,594.5z"/>
	<path class="st5" d="M382.6,555.5C382.6,555.5,382.6,555.5,382.6,555.5C382.6,555.5,382.6,555.5,382.6,555.5z"/>
	<path class="st5" d="M1022.9,741.7c0.1,0,0.2,0,0.3,0C1023.1,741.6,1023,741.6,1022.9,741.7z"/>
	<path class="st5" d="M1028.4,740.7c0,0,0.1,0,0.1,0C1028.5,740.7,1028.4,740.7,1028.4,740.7z"/>
	<path class="st5" d="M967.1,737.2c0.1,0,0.1,0,0.2,0C967.2,737.3,967.1,737.3,967.1,737.2z"/>
	<path class="st5" d="M1033.8,739.5C1033.8,739.5,1033.8,739.5,1033.8,739.5C1033.8,739.5,1033.8,739.5,1033.8,739.5z"/>
	<path class="st5" d="M895,693.2c0.1,0.1,0.1,0.1,0.2,0.2C895.1,693.4,895,693.3,895,693.2z"/>
	<path class="st5" d="M917.2,711.8c0.1,0.1,0.2,0.1,0.2,0.2C917.4,711.9,917.3,711.8,917.2,711.8z"/>
	<path class="st5" d="M1043.5,736.8c1.5-0.5,2.9-1,4.4-1.5C1046.4,735.8,1045,736.3,1043.5,736.8z"/>
	<path class="st5" d="M946.1,729.1c0.2,0.1,0.5,0.2,0.7,0.3C946.6,729.3,946.4,729.2,946.1,729.1z"/>
	<path class="st5" d="M941.5,726.8c0.5,0.3,1,0.5,1.5,0.8C942.5,727.3,942,727,941.5,726.8z"/>
	<path class="st5" d="M978.5,740.2c0.1,0,0.1,0,0.2,0C978.6,740.2,978.5,740.2,978.5,740.2z"/>
	<path class="st5" d="M1017.4,742.4c0.2,0,0.4,0,0.6-0.1C1017.8,742.3,1017.6,742.3,1017.4,742.4z"/>
	<path class="st5" d="M1001.1,743c0.3,0,0.7,0,1,0C1001.8,743,1001.5,743,1001.1,743z"/>
	<path class="st5" d="M1011.8,742.8c0.3,0,0.6,0,0.9,0C1012.4,742.8,1012.1,742.8,1011.8,742.8z"/>
	<path class="st5" d="M936.9,724.3c0.6,0.4,1.3,0.7,1.9,1.1C938.2,725,937.5,724.7,936.9,724.3z"/>
	<path class="st5" d="M922.9,715.7c0.3,0.2,0.6,0.4,1,0.6C923.6,716.2,923.3,716,922.9,715.7z"/>
	<path class="st5" d="M930.6,720.7c1.3,0.8,2.6,1.6,3.9,2.3C933.2,722.2,931.9,721.5,930.6,720.7z"/>
	<path class="st5" d="M891,689.4c-0.2-0.2-0.4-0.4-0.6-0.6C890.6,689.1,890.8,689.3,891,689.4z"/>
	<path class="st5" d="M1007.4,743c-0.4,0-0.7,0-1.1,0C1006.7,743,1007.1,743,1007.4,743z"/>
	<path class="st5" d="M407.7,508c-0.3-0.1-0.5-0.3-0.8-0.4c0.3,0.1,0.6,0.2,0.9,0.3L407.7,508z"/>
	<path class="st4" d="M935.3,712.5c0.7-1.8,1.1-4.2-0.4-5.5c-0.6-0.6-1.5-0.9-2.4-1.1c-9.1-2.4-17.9-3.5-27.2-3.3
		c7.8,6.5,15.9,12.5,24.4,17.7C932.2,718.1,934.1,715.4,935.3,712.5z"/>
	<path class="st4" d="M995.1,736.4c-0.1-2.7-1.4-5.6-3.8-6.9c-2.2-1.2-4.8-0.9-7.3-0.4c-7.3,1.3-14,3.7-20.6,6.9
		c10,3.3,20.3,5.6,30.8,6.5C994.7,740.5,995.2,738.5,995.1,736.4z"/>
	<path class="st4" d="M964.9,730.6c0.8-1.9,1.1-4.3-0.1-6c-1-1.5-2.8-2.1-4.5-2.6c-9.6-2.8-19.9-3.2-29.8-1.3
		c10.3,6.3,21.1,11.4,32.3,15.2C963.3,734,964.2,732.4,964.9,730.6z"/>
	<path class="st4" d="M553.9,588.5c-0.6-2.1-0.7-4.4-1.3-6.4c-8.3,4-16.7,7.9-25.1,11.6C536.2,591.9,545,590.1,553.9,588.5z"/>
	<path class="st6" d="M409.4,382.5c-1.1-0.9-2.2-1.9-3.3-2.8c-13.1-11-26.6-21.9-42.5-28.1c-1.2-0.5-2.5-0.9-3.8-0.8
		c-1.3,0.1-2.6,0.9-2.9,2.2c-0.4,1.5,0.7,2.9,1.7,4c9.6,10.9,20.1,20.9,31.4,29.9c3,0.2,5.9,0.4,8.9,0.7c2,0.2,3.9,0.4,5.9,0.7
		c4.9,0.6,9.8,1.4,14.6,2.6C416,388.1,412.7,385.3,409.4,382.5z"/>
	<path class="st0" d="M390.3,399c0.1,0,0.2,0,0.2,0.1C390.5,399,390.4,399,390.3,399z"/>
	<path class="st0" d="M394.5,400.3c-0.2-0.1-0.4-0.1-0.5-0.2C394.2,400.2,394.3,400.3,394.5,400.3z"/>
	<path class="st6" d="M343.9,440.2c1.6,0.1,3.2,0,4.4-1c1.6-1.4,1.7-3.7,1.6-5.8c-0.2-2.8-0.8-5.9-3.2-7.3l-0.9,0
		c-10.4,0.6-20.7,2.1-30.8,4.4c-1.1,0.3-2.2,0.5-3.2,0.9c-1.7,0.7-1.6,3.1,0.2,3.6c4,1.1,8.1,1.6,12.1,2.3
		C330.6,438.7,337.2,439.7,343.9,440.2z"/>
	<path class="st6" d="M347.3,447.8l-0.4-0.5c-10.5-0.6-21.2,0.5-31.3,3.3c-1.6,0.4-1.8,2.7-0.2,3.4c1.4,0.7,3,1.1,4.5,1.4
		c8.2,2,16.5,3.9,24.9,4.3c1,0,2,0.1,2.9-0.3c2-0.9,2.8-3.4,2.6-5.6C350,451.6,349,449.4,347.3,447.8z"/>
	<path class="st3" d="M534.2,793.7c-0.7,0.1-1.5,0.1-2.2,0.2c-0.5,0.1-1,0.1-1.6,0.2c-4.2,0.5-8.4,0.9-12.6,1.4
		c-0.3,0-0.5,0.1-0.8,0.1c-4.3,0.5-8.6,1.1-12.9,1.7c-0.5,0.1-1,0.2-1.6,0.2c1,5.2,2.5,10.2,4.8,14.9c5.5,11.4,15.7,21,28.1,23.3
		c3.1,0.6,6.3,0.8,9.2,1.8c0.1-0.7,0.1-1.3,0.1-2c0.2-6.1-1.4-12.2-3.1-18.1C539.5,809.6,537,801.6,534.2,793.7z"/>
	<path class="st0" d="M284.1,771.4c-1-1.2-2-2.4-2.9-3.6C282.1,769,283.1,770.2,284.1,771.4z"/>
	<path class="st0" d="M530.5,794.1c-4.2,0.4-8.4,0.9-12.6,1.4C522.1,795,526.3,794.6,530.5,794.1z"/>
	<path class="st0" d="M517.1,795.7c-4.3,0.5-8.6,1.1-12.9,1.7C508.4,796.8,512.8,796.2,517.1,795.7z"/>
	<path class="st1" d="M254.8,696.1c0,0.3,0.1,0.5,0.1,0.8c-0.1-0.6-0.1-1.1-0.2-1.7C254.7,695.6,254.7,695.9,254.8,696.1z"/>
	<path class="st1" d="M284.8,772.3c0,0.1,0.1,0.1,0.1,0.2c-0.3-0.3-0.6-0.7-0.9-1.1C284.4,771.7,284.6,772,284.8,772.3z"/>
	<path class="st1" d="M257.8,714.8c-0.1-0.5-0.2-0.9-0.3-1.4C257.6,713.9,257.7,714.3,257.8,714.8z"/>
	<path class="st1" d="M289.5,777.5c-0.3-0.4-0.6-0.7-1-1.1C288.8,776.8,289.1,777.1,289.5,777.5z"/>
	<polygon class="st1" points="344.7,657.2 344.7,657.2 344.7,657.2 344.7,657.2 	"/>
	<path class="st1" d="M502.6,797.6C502.6,797.6,502.6,797.6,502.6,797.6c0.5-0.1,1-0.2,1.6-0.2C503.6,797.5,503.1,797.5,502.6,797.6
		z"/>
	<path class="st1" d="M517.9,795.6c-0.3,0-0.5,0.1-0.8,0.1C517.4,795.6,517.6,795.6,517.9,795.6z"/>
	<path class="st1" d="M530.5,794.1c0.5-0.1,1-0.1,1.6-0.2c0.7-0.1,1.5-0.1,2.2-0.2c0,0,0,0,0,0c-0.7,0.1-1.5,0.1-2.2,0.2
		C531.5,794,531,794.1,530.5,794.1z"/>
	<path class="st7" d="M405.9,507.3c0.3,0.1,0.7,0.2,1,0.3c-0.2-0.1-0.4-0.2-0.6-0.3L405.9,507.3L405.9,507.3L405.9,507.3z"/>
	<path class="st8" d="M407.8,507.9c-0.3-0.1-0.6-0.2-0.9-0.3c0.3,0.1,0.5,0.3,0.8,0.4L407.8,507.9z"/>
	<path class="st0" d="M348.1,585.8c0.2-0.8,0.4-1.7,0.6-2.5c0,0.2-0.1,0.3-0.1,0.5C348.4,584.4,348.2,585.1,348.1,585.8z"/>
	<path class="st0" d="M376.8,531.3c1-1.1,2.1-2.2,3.2-3.2c-0.8,0.8-1.6,1.6-2.4,2.4C377.3,530.7,377,531,376.8,531.3z"/>
	<path class="st8" d="M367.9,541.9c-0.4,0.5-0.8,1-1.1,1.5C367.2,542.9,367.6,542.4,367.9,541.9z"/>
	<path class="st8" d="M363.4,548.6c-0.4,0.7-0.8,1.4-1.3,2.1C362.5,550,362.9,549.3,363.4,548.6z"/>
	<path class="st8" d="M379.9,528.1c0.4-0.4,0.8-0.8,1.1-1.1C380.7,527.3,380.3,527.7,379.9,528.1z"/>
	<path class="st5" d="M266,500.8c-0.5-0.3-0.7-1-0.8-1.6c-0.4-3-0.1-6,0.8-8.8l0.2-1.1c-3.1,4-5.1,8.8-5.9,13.8
		c-0.2,1.6-0.2,3.6,1.3,4.4c1.3,0.7,2.9-0.2,4-1.1c2.6-2.1,4.7-4.6,6.2-7.5c-1.3,0.6-2.5,1.2-3.8,1.8
		C267.5,500.8,266.6,501.2,266,500.8z"/>
	<path class="st9" d="M463,433.6c-1.1-2.6-2.2-5.3-3.2-7.9c-1.8-4.4-3.6-8.9-6.2-12.9c-0.1-0.1-0.2-0.3-0.3-0.4
		c-5.6-8.5-14.5-14.6-24-18.4c-3.2-1.3-6.6-2.3-10-3.1c-4.8-1.2-9.7-2-14.6-2.6c-2-0.2-3.9-0.5-5.9-0.7c-2.9-0.3-5.9-0.5-8.9-0.7
		c-7.5-0.4-15-0.2-22.3,1.3c5,2.9,10,5.9,14.9,9c0,0,0.1,0,0.1,0.1c2.6,0.5,5.2,1,7.7,1.8c0.1,0,0.2,0,0.2,0.1
		c1.1,0.3,2.3,0.7,3.4,1.1c0.2,0.1,0.4,0.1,0.5,0.2c1.3,0.4,2.5,0.9,3.8,1.4c1.4,0.6,2.9,1.3,4.3,1.9c5.6,2.7,10.9,5.8,16.2,9.1
		c12.5,7.7,25,15.8,34.4,27.1c1.1,1.3,2.2,2.7,3.6,3.6c1.4,1,3.3,1.4,4.9,0.8c1.8-0.8,2.8-2.9,2.8-4.9
		C464.5,437.4,463.7,435.5,463,433.6z"/>
	<path class="st6" d="M382.6,397.2C382.6,397.2,382.5,397.2,382.6,397.2c-5-3.2-9.9-6.1-15-9c-13.9-8-28.3-15-43.1-21.1
		c-5.4-2.2-10.8-4.3-16.5-5.4c-1.4-0.3-2.9-0.5-4.2,0c-1.3,0.5-2.3,2-1.8,3.4c0.3,0.7,0.8,1.1,1.4,1.6c11.8,9.4,24.5,17.7,37.4,25.6
		c2.1,1.3,4.2,2.6,6.3,3.8c2.6,1.6,5.2,3.1,7.8,4.7c1.2,0.7,2.5,1.5,3.9,1.6c1.2,0.1,2.4-0.3,3.6-0.6c7.1-2,14.5-2.9,21.8-2.6
		l0.1-0.8C383.8,398,383.2,397.6,382.6,397.2z"/>
	<path class="st0" d="M581.2,736.8c0.1,0.1,0.1,0.2,0.2,0.3C581.3,737,581.2,736.9,581.2,736.8z"/>
	<path class="st0" d="M586.5,747.2C586.5,747.2,586.5,747.2,586.5,747.2C586.5,747.2,586.5,747.2,586.5,747.2z"/>
	<path class="st0" d="M294.1,782.2c-0.3-0.3-0.7-0.7-1-1C293.5,781.6,293.8,781.9,294.1,782.2z"/>
	<path class="st0" d="M285,772.4c-0.3-0.3-0.6-0.7-0.9-1.1c0.2,0.3,0.5,0.6,0.7,0.9C284.9,772.3,284.9,772.4,285,772.4z"/>
	<path class="st0" d="M280.9,767.5c0.1,0.1,0.2,0.2,0.2,0.3c-1-1.3-2-2.6-2.9-4C279.1,765,280,766.2,280.9,767.5L280.9,767.5z"/>
	<path class="st0" d="M298.9,786.7C298.9,786.7,298.9,786.7,298.9,786.7C298.9,786.7,298.9,786.7,298.9,786.7z"/>
	<path class="st0" d="M288.5,776.4c0.3,0.4,0.6,0.7,1,1.1C289.1,777.1,288.8,776.8,288.5,776.4z"/>
	<path class="st0" d="M71.8,986.7c4.2,0,8.4,1.4,11.7,3.9c0.6,0.5,1.2,1,1.9,1.2c0.9,0.3,1.9,0.3,2.9,0.2c3.1-0.3,6.4-0.4,9.3,0.4
		c3.9-1.9,7.8-3.8,11.6-5.9c14.7-8.4,27.1-20.3,39-32.3c34.6-34.7,67.6-70.9,99-108.6c11.1-13.3,22.4-28.2,22.6-45.4
		c0.1-10.8-4.4-21.2-8.7-31.1c-3.1-7.1-6.2-14.2-9.3-21.2c-9,31-20.8,61.3-39.2,88.6c-31.7,47.1-71.8,89.4-118.1,124.7
		c-9.2,7-21.3,16-31.2,25.1c1.3,0.2,2.6,0.5,3.9,0.5C68.7,986.9,70.2,986.7,71.8,986.7z"/>
	<path class="st0" d="M294.4,815.7c3.6-8.1,6.9-16.2,9.7-24.6v0C301.3,799.5,298,807.6,294.4,815.7z"/>
	<path class="st0" d="M275,759c0.5,0.8,1.1,1.6,1.6,2.4C276.1,760.7,275.6,759.8,275,759z"/>
	<path class="st0" d="M271.2,752.7c0.8,1.4,1.6,2.8,2.4,4.2C272.8,755.5,272,754.1,271.2,752.7z"/>
	<path class="st5" d="M273.7,756.9c0.4,0.7,0.9,1.4,1.4,2.2C274.6,758.3,274.1,757.6,273.7,756.9z"/>
	<path class="st5" d="M289.5,777.5c1.2,1.3,2.4,2.5,3.7,3.7C291.9,780,290.7,778.8,289.5,777.5z"/>
	<path class="st5" d="M276.6,761.5c0.5,0.8,1,1.6,1.6,2.3C277.7,763,277.2,762.2,276.6,761.5z"/>
	<path class="st5" d="M285,772.4c1.1,1.3,2.3,2.7,3.5,4C287.3,775.1,286.1,773.8,285,772.4z"/>
	<path class="st5" d="M281.2,767.7c1,1.2,1.9,2.4,2.9,3.6C283.1,770.2,282.1,769,281.2,767.7z"/>
	<path class="st5" d="M271,752.2c0.1,0.2,0.2,0.3,0.3,0.5C271.2,752.5,271.1,752.4,271,752.2c-5.5-10-9.2-20.6-11.9-31.6
		c-0.3,1.1-0.5,2.1-0.8,3.2c0.3-1.1,0.5-2.1,0.8-3.2C261.8,731.6,265.5,742.2,271,752.2z"/>
	<path class="st5" d="M304,791.1c-1.7-1.4-3.4-2.9-5.1-4.4C300.6,788.2,302.3,789.7,304,791.1C304,791.1,304,791.1,304,791.1z"/>
	<path class="st5" d="M298.9,786.7c-1.6-1.5-3.2-2.9-4.8-4.5C295.7,783.7,297.3,785.2,298.9,786.7z"/>
	<path class="st5" d="M298.9,786.7C298.9,786.7,298.9,786.7,298.9,786.7c-1.6-1.5-3.2-3-4.8-4.5c-0.3-0.3-0.7-0.7-1-1
		c-1.2-1.2-2.5-2.5-3.7-3.7c-0.3-0.4-0.6-0.7-1-1.1c-1.2-1.3-2.4-2.6-3.5-4c0-0.1-0.1-0.1-0.1-0.2c-0.3-0.3-0.5-0.6-0.7-0.9
		c-1-1.2-2-2.4-2.9-3.6c-0.1-0.1-0.2-0.2-0.2-0.3v0c-0.9-1.2-1.8-2.4-2.7-3.7c-0.5-0.8-1.1-1.5-1.6-2.3c-0.5-0.8-1.1-1.6-1.6-2.4
		c-0.5-0.7-0.9-1.4-1.4-2.2c-0.8-1.4-1.7-2.8-2.4-4.2c-0.1-0.2-0.2-0.3-0.3-0.5c-5.5-10-9.2-20.6-11.9-31.6
		c-0.3,1.1-0.5,2.1-0.8,3.2c-2,8-4.2,16.1-6.5,24.1c3.1,7.1,6.2,14.1,9.3,21.2c4.4,9.9,8.8,20.3,8.7,31.1
		c-0.1,17.3-11.5,32.2-22.6,45.4c-31.3,37.7-64.4,73.9-99,108.6c-12,12-24.3,24-39,32.3c-3.7,2.1-7.6,4-11.6,5.9
		c1.5,0.4,2.8,1.1,4,2.2c3.8,3.5,3.5,9.4,2.9,14.5c8,0.4,15.4-0.2,21-2.9c21.1-10.2,38.9-23.9,53.7-41.8c0-2.3,7.1-8.6,8.7-10.5
		c3.1-3.8,6.2-7.5,9.4-11.3c6.4-7.8,12.9-15.7,19.4-23.5c12-14.5,24.4-28.5,37.7-41.8c8.9-9,17.5-18.3,23.5-29.1
		c6-10.6,11.5-21.5,16.4-32.5c3.6-8.1,6.9-16.2,9.7-24.6C302.3,789.7,300.6,788.2,298.9,786.7z"/>
	<path class="st10" d="M101.7,994.7c-1.2-1.1-2.5-1.7-4-2.2c-2.9-0.8-6.3-0.7-9.3-0.4c-1,0.1-2,0.2-2.9-0.2
		c-0.7-0.3-1.3-0.8-1.9-1.2c-3.3-2.5-7.5-3.9-11.7-3.9c-1.5,0-3.1,0.2-4.6,0.1c-1.3-0.1-2.6-0.3-3.9-0.5c-0.3-0.1-0.6-0.1-1-0.2
		c-9.5-1.5-19.5,1.1-27,7.1c-3.4,2.7-6.4,6.3-7.3,10.5c5.5-3.1,12.1-4.3,18.3-3.4c-4.7,3.7-8.2,8.9-9.9,14.6
		c9.3-4.1,19.5-6.4,29.7-6.5c-2.2,1.1-3.8,3.3-4.1,5.7c5.4-2.3,11.2-3.4,17-3.2c4.4,0.1,8.8,1,13.2,1.2c4.4,0.2,8.6-0.3,12.3-2.7
		c0-0.1,0-0.1,0-0.2C105.2,1004.1,105.4,998.2,101.7,994.7z"/>
	<path class="st11" d="M478,451.8c-0.4-0.4-1-0.5-1.5-0.5c-0.3,0-0.5,0.1-0.8,0.2c1.5,4.6,1.5,9.4,0.2,14c0.2-0.2,0.5-0.3,0.7-0.5
		c0.6-0.5,1.1-1.1,1.4-1.8c0.4-0.9,0.4-1.9,0.4-2.8c0-2.4,0-4.7,0-7.1C478.3,452.7,478.3,452.2,478,451.8z"/>
	<path class="st11" d="M469.1,463.2c-0.2,0.7-0.4,1.4-0.6,2.1c-0.3,0.2,0,1.4,0.3,1.7c0.2,0.2,0.5,0.3,0.8,0.4
		c-0.1-0.3-0.1-0.6-0.2-1C469.4,465.3,469.3,464.2,469.1,463.2z"/>
	<path class="st11" d="M436,456.8c-0.3-0.3-0.5-0.5-0.8-0.7c0.2,2.8-0.5,5.7-1.2,8.4c-0.2,0.9-0.5,1.9-1,2.7
		c1.1,0.1,2.3,0.1,3.4,0.1c1.6-0.1,3.6-0.6,3.8-2.2l-0.1-0.7C439.5,461.5,438.1,458.8,436,456.8z"/>
	<path class="st11" d="M421.8,454.1c0.5-1.7,1.2-3.4,2.3-4.8c-4.6-1.5-9.6-1.6-14.2-0.3c-0.3,0.1-0.6,0.2-0.8,0.4
		c-0.5,0.5-0.2,1.3,0.1,1.9c2.4,5.1,6.4,9.3,11.2,12.1c0.8,0.5,1.6,0.9,2.5,1.2c-0.9-1.3-1.5-2.9-1.7-4.5
		C420.8,458.1,421.2,456.1,421.8,454.1z"/>
	<path class="st12" d="M435.2,456c-0.8-0.7-1.7-1.4-2.6-2c-1.4-1-2.9-2.1-4.4-3c-1.3-0.7-2.6-1.3-4-1.8c-1.1,1.4-1.8,3.1-2.3,4.8
		c-0.6,2-1,4-0.7,6.1c0.2,1.6,0.8,3.2,1.7,4.5c3.2,1.4,6.7,2.3,10.2,2.5c0.5-0.8,0.8-1.8,1-2.7C434.7,461.7,435.4,458.9,435.2,456z"
		/>
	<path class="st12" d="M475.7,451.5c-0.5,0.2-1,0.4-1.4,0.7c-0.6,0.5-1.2,1-1.7,1.7c-1.2,1.7-1.9,3.7-2.5,5.7
		c-0.1,0.4-0.2,0.7-0.3,1.1c-0.2,0.8-0.5,1.6-0.7,2.5c0.1,1,0.2,2.1,0.3,3.1c0,0.3,0.1,0.6,0.2,1c0.1,0,0.1,0,0.2,0
		c0.4,0.1,0.7,0.1,1.1,0.1c1.2,0,2.3-0.4,3.4-0.9c0.6-0.3,1.1-0.6,1.6-1C477.3,460.9,477.2,456.1,475.7,451.5z"/>
	<path class="st3" d="M421.4,950.5C421.4,950.5,421.4,950.5,421.4,950.5c5.1-3.1,12.5-1.7,16,3.1c0.3,0.4,0.5,0.8,0.9,1
		c0.9,0.7,2.1,0.5,3.3,0.3c3.8-0.7,7.7-0.8,11.5,0.2s7.2,3.2,9.2,6.5c0.6,1,1.1,2.3,1.2,3.5c6.7-0.4,13.4-1,20-2.3
		c3.1-0.6,6.1-1.4,9-2.3c1.8-3.1,3.5-6.2,5.2-9.3c15.5-29.2,29-59.4,40.3-90.4C500.6,892.6,462.8,924.3,421.4,950.5z"/>
	<g>
		<path class="st13" d="M463.5,965.1c-0.1-1.2-0.6-2.5-1.2-3.5c-2-3.3-5.5-5.5-9.2-6.5s-7.7-0.9-11.5-0.2c-1.1,0.2-2.4,0.4-3.3-0.3
			c-0.4-0.3-0.6-0.7-0.9-1c-3.5-4.9-10.9-6.3-16-3.1c0.1,0.1,0.3,0.2,0.4,0.3l-0.9,0c0.2-0.1,0.3-0.2,0.5-0.3c0,0,0,0,0,0
			c-4.9-4.2-7.7-1.9-16-1.5c-7,0.3-14.7,3.9-19.4,9.2l13.2-0.4c-3.8,0.5-10.3,2.9-13,5.6c-1.7,1.7-0.7,4.7,1.8,5.1
			c6.3,1,6.7,0.9,16.3,1c0,0,0,0,0,0c-3,1.3-2,5.7,1.1,5.9c17.1,1.1,41.4,1.1,54.4-4.9c1.1-0.5,2.3-1.1,3-2.1
			C463.4,967.3,463.6,966.2,463.5,965.1z"/>
	</g>
	<path class="st13" d="M421.8,950.8c-0.1-0.1-0.3-0.2-0.4-0.3c-0.2,0.1-0.4,0.2-0.5,0.3L421.8,950.8z"/>
	<path class="st5" d="M1135.9,616c-3.9-2.4-8.1-4.3-12.4-6c2.5,7.9,2.1,16.4,1.3,24.8c0.2-0.1,0.4-0.2,0.6-0.3
		c1.5-0.6,3.3-1,4.7-0.2c1.9,1,2.5,3.5,2.7,5.6c1.3,13-1.1,26.4-6.9,38.1c-1.9,3.8-6.5,12.7-10.8,14.9c0,0.4-0.1,0.8-0.1,1.2
		c-1.2,8.1-8.3,14.1-15.3,18.4c-7.2,4.4-21,11.3-29.4,13.3c0,0-0.1,0-0.1,0c-7.5,4.3-15.2,7.9-22.4,10.5c-2,0.7-4,1.4-6,2
		c0,0,0,0,0,0c-0.1,0-0.1,0-0.2,0.1c-0.4,0.1-0.7,0.2-1.1,0.4c0,0,0,0,0-0.1c0.3-0.4,0.5-0.8,0.7-1.2c-0.3,0.1-0.5,0.2-0.8,0.2
		c-0.5,0.1-0.9,0.3-1.4,0.4c-1.8,0.5-3.6,1-5.4,1.4c0,0,0,0,0,0c0,0,0,0,0,0c-1.8,0.4-3.5,0.8-5.3,1.2c0,0-0.1,0-0.1,0
		c-1.7,0.3-3.4,0.6-5.1,0.9c-0.1,0-0.2,0-0.3,0c-1.6,0.2-3.3,0.5-4.9,0.6c-0.2,0-0.4,0-0.6,0.1c-1.6,0.2-3.1,0.3-4.7,0.4
		c-0.1,0-0.2,0-0.2,0c-0.2,0-0.4,0-0.6,0c-1.5,0.1-2.9,0.2-4.4,0.2c-0.4,0-0.7,0-1.1,0c-1.4,0-2.8,0-4.2,0c-0.1,0-0.2,0-0.3,0
		c-0.2,0-0.5,0-0.7,0c-1.4,0-2.9-0.1-4.3-0.2c0,0-0.1,0-0.1,0c-0.9-0.1-1.7-0.1-2.6-0.2c-5.2-0.5-10.4-1.2-15.5-2.3c0,0-0.1,0-0.1,0
		c0,0-0.1,0-0.1,0c-1.9-0.4-3.8-0.8-5.6-1.3c0,0,0,0,0,0c-1.9-0.5-3.7-1-5.6-1.6c-0.1,0-0.1,0-0.2,0c-1.2-0.4-2.5-0.8-3.7-1.2
		c-0.2-0.1-0.4-0.1-0.6-0.2c-5.4-1.8-10.7-4-15.9-6.4c-0.1,0-0.2-0.1-0.3-0.1c-0.2-0.1-0.3-0.1-0.5-0.2c-1-0.5-2.1-1-3.1-1.5
		c-0.3-0.2-0.7-0.3-1-0.5c-0.2-0.1-0.3-0.2-0.5-0.2c-0.9-0.5-1.8-0.9-2.7-1.4c-0.7-0.4-1.3-0.7-2-1.1c-0.8-0.4-1.6-0.9-2.3-1.3
		c-1.3-0.8-2.6-1.5-3.9-2.3c0,0-0.1,0-0.1-0.1c-0.3-0.2-0.5-0.3-0.8-0.5c-2-1.2-3.9-2.5-5.9-3.8c-0.3-0.2-0.6-0.4-1-0.6
		c-1.8-1.2-3.7-2.5-5.5-3.8c-0.1-0.1-0.1-0.1-0.2-0.2c0,0,0,0,0,0c-4-2.9-8-6-11.8-9.3c-0.4-0.3-0.8-0.6-1.1-1
		c-1.5-1.3-3.1-2.6-4.6-4c0,0,0,0,0,0c-1.5-1.3-3-2.7-4.5-4.1c-0.1-0.1-0.1-0.1-0.2-0.2c-1.3-1.2-2.6-2.5-3.9-3.8
		c-0.2-0.2-0.4-0.4-0.6-0.6c-1.4-1.4-2.8-2.8-4.2-4.3c0,0-0.1-0.1-0.1-0.1c-2.5-2.6-5-5.3-7.5-7.9c-45.8-46.5-105.2-81.7-169.2-94.5
		c-7.2-1.4-14.4-2.6-21.7-3.4c0,0,0,0,0,0c-4.8-0.6-9.6-1-14.5-1.3l0,0c-0.3,0-0.5,0-0.8,0c-2-0.1-4.1-0.2-6.1-0.3h0
		c-0.8,0-1.6,0-2.3-0.1l0,0c-3.8-0.1-7.7-0.1-11.6-0.1c-0.2,0-0.4,0-0.6,0l0,0c-2.6,0.1-5.1,0.1-7.7,0.2h0c-1.6,0.1-3.1,0.1-4.7,0.2
		c-1.2,0.1-2.4,0.1-3.6,0.2l0,0c-1.5,0.1-3.1,0.2-4.6,0.3l0,0c-1.1,0.1-2.3,0.2-3.5,0.3l0,0c-5.7,0.4-11.4,1-17.2,1.6
		c0,0-0.1,0-0.1,0c-3.4,0.4-6.7,0.8-10.1,1.2l0,0c-0.2,0-0.3,0-0.5,0.1h0c-2.4,0.3-4.8,0.6-7.2,1c0,0,0,0,0,0c0,0,0,0,0,0
		c-6.4,0.9-12.9,1.9-19.3,2.9c0,0,0,0,0,0c0,0,0,0-0.1,0l0,0c-2.9,0.5-5.9,1-8.8,1.5c0,0,0,0,0,0c-0.1,0-0.2,0-0.3,0.1l0,0
		c-2.9,0.5-5.9,1-8.8,1.6l0,0c-0.5,0.1-1,0.2-1.5,0.3v0l0,0c0,0,0,0,0,0c-8.8,1.7-17.7,3.4-26.4,5.2c-8.5,3.7-17,7.2-25.7,10.1
		c-0.4,0.1-0.8,0.3-1.3,0.4c-7,2.4-14.1,4.4-21.4,5.9c-8.2,4.4-16.8,7.7-25.7,9.1c-6.4,1-13,1.2-19.6,0.1l-5.3-3.9l-7.6-5.6
		c1.8-0.8,3.6-1.7,5.4-2.6c5.2-2.6,10.3-5.4,15.3-8.4c-1.8-0.4-3.7-0.8-5.5-1.2c0,0-0.1,0-0.1,0c-1.8-0.4-3.5-0.9-5.3-1.4
		c-0.1,0-0.3-0.1-0.4-0.1c-1.6-0.5-3.3-1-4.9-1.5c-0.2-0.1-0.5-0.2-0.7-0.2c-1.6-0.5-3.1-1.1-4.7-1.6l0,0c0,0,0,0,0,0l0,0
		c-1.8-0.7-3.5-1.3-5.2-2.1c-0.5-0.2-1.1-0.5-1.6-0.7c-1.2-0.5-2.4-1-3.5-1.6c0,0,0,0,0,0c-0.9-0.4-1.8-0.9-2.7-1.4c0,0,0,0,0,0
		c-0.7-0.4-1.4-0.8-2.1-1.3c0,0,0,0,0,0c-0.7-0.4-1.4-0.9-2-1.4c0,0,0,0-0.1,0c-0.7-0.5-1.3-1-2-1.5c0,0,0,0-0.1-0.1
		c-0.6-0.5-1.3-1-1.9-1.6c0,0,0,0-0.1-0.1c-0.6-0.5-1.2-1.1-1.8-1.7c0,0,0,0,0,0c-0.6-0.6-1.2-1.2-1.7-1.8c0,0,0,0,0,0
		c-0.6-0.6-1.1-1.2-1.7-1.9c0,0,0,0,0,0c-0.5-0.7-1.1-1.3-1.6-2c-0.1-0.1-0.2-0.3-0.3-0.4c-1-1.3-1.9-2.7-2.8-4.1l0,0
		c-0.9-1.4-1.7-2.9-2.4-4.4l0,0c0,0,0,0,0,0c-0.4-0.7-0.7-1.5-1.1-2.2c0,0,0,0,0,0c-0.3-0.8-0.7-1.5-1-2.3c0,0,0,0,0,0
		c-0.6-1.5-1.1-3.1-1.6-4.7c0,0,0,0,0,0c0,0,0,0,0,0c-0.6-2.1-1.1-4.2-1.4-6.3l0,0c0-0.1,0-0.2,0-0.3c0-0.1,0-0.2,0-0.3
		c-0.1-0.8-0.2-1.6-0.3-2.4c0-0.1,0-0.2,0-0.4c0-0.6-0.1-1.1-0.1-1.7c0-0.2,0-0.4,0-0.5c0-0.5,0-1.1,0-1.6c0-0.1,0-0.2,0-0.3
		c0-0.1,0-0.2,0-0.3c0-0.5,0-1,0.1-1.6c0-0.2,0-0.4,0.1-0.7c0-0.5,0.1-1,0.1-1.5c0-0.2,0.1-0.4,0.1-0.7c0.1-0.5,0.1-1,0.2-1.5
		c0-0.1,0-0.1,0-0.2c0-0.1,0-0.1,0-0.2c0.5-2.8,1.4-5.6,2.5-8.2c0,0,0-0.1,0-0.1c0.3-0.6,0.6-1.3,1-1.9c0-0.1,0.1-0.2,0.1-0.3
		c0.4-0.7,0.7-1.3,1.1-1.9c0-0.1,0.1-0.1,0.1-0.2c-14.6,11.9-25.8,28.1-32.8,45.8c-1.2,3-2.2,5.9-3.1,8.9c-1.8,6-3.1,12.1-4.1,18.2
		c-2.4,15.3-2.5,31-2.7,47c0,1.2,0,2.5,0,3.7c0.1,3.7,0.5,7.4,1.2,11.1c0.3,0.6,0.6,1.1,1,1.7c0.6,1.1,1.2,2.2,1.9,3.3
		c0.3,0.5,0.6,1,0.9,1.5c0.7,1.1,1.4,2.2,2.1,3.3c0.4,0.6,0.7,1.1,1.1,1.7c0.7,1,1.3,2,2,3c0.4,0.6,0.9,1.3,1.4,1.9
		c0.6,0.9,1.3,1.8,1.9,2.7c0.5,0.7,1,1.3,1.5,2c0.6,0.8,1.3,1.7,1.9,2.5c0.4,0.5,0.8,1,1.2,1.5c0.8,1,1.6,1.9,2.4,2.9
		c0.3,0.4,0.6,0.7,1,1.1c0.9,1.1,1.8,2.1,2.8,3.2c0.2,0.2,0.4,0.4,0.6,0.6c1.1,1.2,2.2,2.3,3.3,3.5c1.7,1.8,3.5,3.6,5.4,5.3
		c0.5,0.4,0.9,0.9,1.4,1.3c1.8,1.7,3.7,3.4,5.6,5c0,0,0,0,0,0c0.4,0.4,0.8,0.7,1.2,1c6.8,5.8,14,11.1,21.6,15.8
		c2.1,1.3,4.3,2.6,6.5,3.9c0.6,0.3,1.1,0.6,1.7,0.9c2.2,1.2,4.4,2.4,6.6,3.6c1.6,0.8,3.1,1.6,4.7,2.3c0.5,0.2,1,0.5,1.5,0.7
		c1.1,0.5,2.2,1,3.3,1.5c0.6,0.3,1.1,0.5,1.7,0.8c1.1,0.5,2.2,0.9,3.3,1.4c0.5,0.2,1.1,0.5,1.6,0.7c1.3,0.5,2.6,1,4,1.6
		c0.3,0.1,0.6,0.2,0.9,0.4c1.6,0.6,3.3,1.2,4.9,1.8c0.4,0.2,0.9,0.3,1.4,0.4c1.2,0.4,2.4,0.8,3.6,1.2c0.6,0.2,1.2,0.4,1.8,0.5
		c1.1,0.3,2.2,0.7,3.4,1c0.6,0.2,1.2,0.3,1.8,0.5c1.2,0.3,2.5,0.7,3.7,1c0.5,0.1,0.9,0.2,1.4,0.4c1.7,0.4,3.4,0.8,5.1,1.2
		c0.3,0.1,0.7,0.1,1,0.2c1.4,0.3,2.8,0.6,4.1,0.8c0.6,0.1,1.2,0.2,1.8,0.3c1.2,0.2,2.3,0.4,3.5,0.6c0.6,0.1,1.2,0.2,1.9,0.3
		c1.2,0.2,2.4,0.3,3.6,0.5c0.5,0.1,1.1,0.1,1.6,0.2c1.7,0.2,3.5,0.4,5.2,0.5c2.1,0.2,4.3,0.3,6.4,0.5c1.7,0.1,3.5,0.2,5.3,0.4
		c1.2,0.1,2.5,0.2,3.7,0.3c1.2,0.1,2.5,0.2,3.7,0.3l0,0c0.2,0,0.4,0,0.5,0.1l0,0c2.1,0.2,4.2,0.5,6.3,0.8
		c-4.2-9.4-8.6-18.6-13.4-27.7v0c-0.4-3.4-0.7-6.8-0.7-10.2c0-1.5,0.1-3,1-4.1c2.3-2.6,6.4,0.2,8.6,2.9c11.3,14.2,19.6,30.3,26.7,47
		l0,0c0,0,0,0,0,0c0.1,0.2,0.1,0.4,0.2,0.5c3.3,7.8,6.3,15.7,9.2,23.6c0.1,0.4,0.3,0.7,0.4,1.1c0.9,2.5,1.8,5,2.7,7.5
		c4.6,12.8,9.2,25.8,9.7,39.3c0.6,14.4-3.4,28.5-7.9,42.2c-7.4,22.9-16.2,45.4-26.3,67.2c-0.4,0.9-0.9,1.9-1.3,2.8
		c-8.6,18.4-19,36.7-35.6,48.3c-3.9,2.7-8.1,5.1-12.2,7.6c5.5-1.3,11.6,0.2,15.7,4c1.1,1,2.1,2.2,2.6,3.7c0.8,2.4,0,4.7-1.5,6.6
		c2.5,0,5,0,7.6,0.1c0.9,0,1.8,0,2.8,0c2.8,0,5.5-0.1,8.3-0.3c1.8-0.2,3.6-0.4,5.4-0.8c1.8-0.4,3.5-0.9,5.2-1.6
		c7.4-3.1,13-9.4,18.1-15.6c8.1-10,15.7-20.4,22.7-31.2c14.8-23,26.8-47.8,35.8-73.6c1.7-5,3.3-9.9,4.8-15
		c1.7-5.8,3.3-11.6,4.7-17.4c2.3-9.8,4.2-19.8,3.8-29.8c-0.2-5.1-1.1-10.1-2.3-15.1c-0.6-2.5-1.3-4.9-2-7.4
		c-0.7-2.4-1.5-4.9-2.3-7.3c-0.8-2.4-1.6-4.7-2.4-7c-0.8-2.3-1.7-4.6-2.6-7c0,0,0,0,0,0c-2.4-6.3-4.9-12.5-7.5-18.6c0,0,0,0,0,0
		c2-0.1,3.9-0.2,5.9-0.3c0.4,0,0.9-0.1,1.3-0.1c0.8-0.1,1.6-0.1,2.4-0.2c0.6,0,1.2-0.1,1.7-0.1c0.7-0.1,1.5-0.1,2.2-0.2
		c1.2-0.1,2.4-0.2,3.6-0.4c0.6-0.1,1.2-0.1,1.7-0.2c0.8-0.1,1.6-0.2,2.4-0.3c0.6-0.1,1.2-0.2,1.8-0.3c0.9-0.1,1.7-0.3,2.6-0.4
		c0.5-0.1,1-0.2,1.4-0.2c1.3-0.2,2.6-0.5,3.8-0.7c0.4-0.1,0.9-0.2,1.3-0.3c0.9-0.2,1.9-0.4,2.8-0.6c0.5-0.1,0.9-0.2,1.4-0.3
		c1.1-0.3,2.2-0.6,3.3-0.9c0.2-0.1,0.5-0.1,0.7-0.2c1.3-0.4,2.6-0.8,3.9-1.2c0.4-0.1,0.7-0.2,1.1-0.4c1-0.3,2-0.7,2.9-1
		c0.4-0.1,0.8-0.3,1.1-0.4c1.3-0.5,2.6-1,3.9-1.6c0,0,0,0,0,0c1.7-0.7,3.3-1.5,5-2.3c0.4-0.2,0.8-0.4,1.2-0.6
		c1.5-0.8,3.1-1.6,4.6-2.4c0.5-0.3,1-0.6,1.5-0.8c1-0.6,2-1.1,3-1.7c2.1-1.2,4.2-2.3,6.3-3.5c0,0,0,0,0,0v0
		c-6.4-16.5-9-34.3-6.2-51.7c0.6-3.6,1.4-7.1,2.4-10.6v0c1.8-1,3.8-1.8,5.9-2.1c7.4-1.1,14.7,3.5,19,9.6c4.3,6.1,6.2,13.5,8.2,20.7
		c1.8,6.7,3.8,13.5,6,20.1c0.4,1.2,0.8,2.3,1.2,3.5c1.2,3.5,2.4,6.9,3.7,10.3c0.4,1,0.7,2,1.1,2.9c0.4,1.1,0.8,2.1,1.3,3.2
		c0.8,1.9,1.6,3.7,2.4,5.5c0.3,0.6,0.5,1.2,0.8,1.7c0.8,1.8,1.7,3.5,2.5,5.2c0.3,0.6,0.6,1.2,0.9,1.8c1.1,2.1,2.2,4.2,3.4,6.3
		c10.8,18.8,26.2,35.6,45.7,45.1c2.9,1.4,6.2,3.1,6.7,6.3c0.3,2.4-1.3,4.7-2.8,6.6c-16.1,20.9-29.3,44.1-39,68.7
		c-8.2,20.9-14.3,43.4-28.9,60.5c-7.4,8.6-16.6,15.3-25.4,22.5c0.8,0.1,1.6,0.2,2.5,0.4c3.6,0.9,6.9,5.3,7.6,8.9
		c3.9-0.3,7.8-0.7,11.8-1.2c3.6-0.5,7.2-1,10.8-1.5c0.6-0.1,1.2-0.2,1.8-0.3c0.6-0.1,1.2-0.2,1.8-0.3c3.6-0.6,7.2-1.4,10.4-2.9
		c14.4-6.7,23.4-21.1,31.2-35.4c1.4-2.6,2.8-5.2,4.2-7.8c0.7-1.3,1.4-2.6,2-3.8c1.4-2.5,2.7-4.9,4.1-7.3c4.4-7.3,8.5-14.8,12.5-22.3
		c11.9-22.6,22.5-45.9,35.2-68.1c1.3-2.2,2.5-4.5,3.7-6.8c5.1-10.1,8.8-21.3,5.9-32.6c-2.5-9.6-9.8-17.1-14.1-26c0,0,0,0,0,0
		c-0.4-0.9-0.8-1.9-1.2-2.9c-0.1-0.3-0.2-0.6-0.3-0.9c-0.3-0.7-0.5-1.4-0.7-2.1c-0.1-0.3-0.2-0.7-0.3-1c-0.2-0.7-0.4-1.4-0.6-2.1
		c-0.1-0.3-0.2-0.6-0.2-0.9c-0.2-1-0.4-1.9-0.6-2.9c0,0,0-0.1,0-0.1c-0.2-1-0.4-2.1-0.5-3.1c0-0.3-0.1-0.6-0.1-0.9
		c-0.1-0.8-0.2-1.5-0.3-2.3c0-0.3-0.1-0.7-0.1-1c-0.1-0.8-0.1-1.5-0.2-2.3c0-0.3,0-0.6-0.1-0.9c-0.1-1-0.1-2.1-0.2-3.1
		c0,0,0,0,0-0.1v0c0,0,0,0,0,0c-0.1-2.8-0.2-5.7-0.2-8.6c0-2.8-0.1-5.5-0.1-8.2c0,0,0,0,0-0.1c0-0.3,0-0.6,0-0.9c0-0.1,0-0.3,0-0.4
		c0,0,0,0,0,0c1.3,0.4,2.6,0.8,3.9,1.2c0.5,0.2,1.1,0.4,1.6,0.6c0.4,0.2,0.9,0.3,1.3,0.5c1.1,0.4,2.1,0.9,3.1,1.4
		c1.2,0.6,2.3,1.2,3.5,1.8c1.1,0.6,2.2,1.3,3.3,2c6.6,4.3,12.4,9.7,18.2,15.1c10.3,9.6,20.6,19.2,30.9,28.8
		c10.3,9.6,20.6,19.2,30.9,28.8c12.9,6.6,26.2,12.2,39.7,16.6c1.7,0.5,3.4,1.1,5.1,1.6c3.4,1,6.8,2,10.3,2.8
		c17.2,4.3,34.7,6.5,52.3,6.2c3.5-0.1,7-0.2,10.5-0.5c1.8-0.1,3.5-0.3,5.3-0.5c14.1-1.5,28.1-4.7,42-9.8c6.6-2.4,13.1-5.3,19.6-8.6
		c16.5-8.4,31.7-19.5,44.5-32.7c12.8-13.3,23.2-28.8,30-46.2c12.8-32.4,14.8-75.5-5.9-105.2C1150.6,627.2,1143.8,620.8,1135.9,616z
		 M420.9,654.6c-0.7,1-1.9,1.4-3,1.7c-3.5,0.7-7.2,0.1-10.3-1.7c1.2,2,2.1,4.2,2.6,6.5c0.3,1.4,0.6,3,0.2,4.4
		c-0.7,3-3.6,5.1-6.6,5.5c-3,0.4-6.1-0.5-8.8-1.9c-4.4-2.2-8.3-5.5-11.2-9.6c1.5,1.4,3.5,2,5.6,2.1c1.5,0,3.1-0.2,4.4-1
		c2.2-1.3,3.4-3.9,3.7-6.5c0.3-2.6-0.3-5.1-0.8-7.7c2.6,1.6,5.5,3,8.6,2.7c3-0.3,6-2.6,6.2-5.7l0.2-0.7c4.1,1.9,8.7,4.3,9.8,8.7
		C421.5,652.5,421.5,653.7,420.9,654.6z M584.7,635.8c2.4,0,2.8-3.8,1-5.4s-4.4-1.5-6.8-1.7c-2.8-0.2-5.6-0.9-8.1-2
		c2.6-1.4,3.3-5.4,1.2-7.6c-2.3-2.5-6.8-2.2-8.6-5c3.2-1.2,6.7-1.7,10.1-1.2l-1.1-0.2c7.2-2.1,15.2-1.7,22.1,1.3
		c-1.7,3.7-5.4,6.5-9.5,6.9c2.2,0.1,4.3,0.1,6.5,0.2c5.4,0.2,11.5,0.7,14.9,4.9c0.3,0.4,0.6,0.9,0.7,1.4c0,0.9-0.8,1.6-1.5,2.2
		C599.6,634.1,592.1,636.3,584.7,635.8z M615,690.9c-3.1,1.8-6.9,1.9-10.5,1.9c-2.6,0-5.3,0.1-7.9,0.1c2.4-1.3,5-3,5.5-5.6
		c0.7-3.3-2-6.3-4.5-8.6c0.4-0.6,1.2-0.8,1.9-0.6l2-1c4.1-0.7,8.4-0.3,12.3,1.2c1.9,0.7,3.7,1.8,4.7,3.6
		C620.2,685,618.2,689.1,615,690.9z M698.7,591.2c-3.3,0.4-9.5,1.6-12.9,1.5c0.1-0.1,0.3-0.2,0.5-0.3c1.7-0.7,1.7-3.1,0-3.9
		c-3.7-1.6-7.1-2.8-10.5-3.4l8.4,0c5.1,0,10.2,0.7,15,2.1c1,0.3,2.1,0.8,2.2,1.8C701.7,590.4,700,591.1,698.7,591.2z M865.3,702.5
		c-1,2.2-3.8,2.9-6.2,2.9c-3,0-6.2-0.9-8.2-3.1c1.4,1.9,2.5,4,3.3,6.2c0.6,1.6,0.9,3.6-0.2,5c-1.3,1.7-3.8,1.5-5.8,0.9
		c-3.7-1.1-7-3.3-9.6-6.1c0.9,0.2,1.8,0.3,2.7,0.5c0.6,0.1,1.2,0.2,1.7,0c1.2-0.5,1.3-2.1,1.2-3.4c-0.2-2.8-0.9-5.5-1.8-8.1
		c1.5,0.3,3,0.7,4.6,1c1.8,0.4,3.7,0.8,5.6,0.5c1.9-0.3,3.7-1.6,4.1-3.4c0.2-1,0-2.2-0.6-3.1l0.6-0.8c1.4,1,2.8,2,4.2,3
		c1.4,1,2.7,2,3.7,3.4C865.6,699.1,866,701,865.3,702.5z M1037.9,778.3c2.1,0,4.2-1.6,4.6-3.7c0.4-2.1-0.7-4.4-2.7-5.3l1.5-0.1
		c2.6-0.4,5.3-0.8,7.9-0.4c2.6,0.4,5.3,1.6,6.7,3.8C1050.9,776.6,1044.4,778.7,1037.9,778.3z M1100,727.9c-1.7,5-6.2,9-11.4,10
		c0.9-2.2,3.8-3.7,3.5-6c-0.2-1.7-2.1-2.7-3.8-3c-1.7-0.3-3.5-0.2-5-1l2.1-1.3c3.1-1.9,6.6-3.1,10.2-3.7c1.4-0.2,2.9-0.3,3.9,0.7
		C1100.7,724.6,1100.5,726.4,1100,727.9z"/>
	<path class="st14" d="M483.5,500.7c-0.4,0.1-0.8,0.2-1,0.5c-0.3,0.4-0.2,1,0.1,1.4c0.3,0.4,0.7,0.7,1.2,0.9
		c1.2,0.6,2.4,0.9,3.7,1.1c1,0.1,2,0.1,2.8-0.5l0.1-0.8c-1-0.7-2-1.5-3.1-2C485.9,500.8,484.7,500.5,483.5,500.7z"/>
	<path class="st14" d="M500.2,496.8c-0.6-0.2-1.2,0.1-1.6,0.6c-0.4,0.5-0.5,1.1-0.5,1.7c0,1,0.2,2,0.6,2.9l0.1,0.2
		c0-0.5,0.5-0.7,0.9-1c0.9-0.6,1.4-1.7,1.4-2.8C501.1,497.7,500.8,497,500.2,496.8z"/>
	<path class="st1" d="M334.1,633.3c-0.8-2.2-1.5-4.4-2.1-6.6c-0.2-0.7-0.4-1.3-0.6-2c-0.1-0.5-0.3-0.9-0.4-1.4
		c-0.5-1.9-1-3.8-1.5-5.7c0,0,0,0,0,0c-0.2-1-0.5-2-0.7-3c-0.3-1.4-0.6-2.9-0.9-4.4c-0.2-1-0.4-2-0.5-2.9c-0.1-0.7-0.2-1.4-0.3-2
		c-0.2-0.9-0.3-1.9-0.4-2.8c0-0.1,0-0.1,0-0.2v0c0-0.3-0.1-0.7-0.2-1c0-0.3-0.1-0.6-0.1-0.8c0,0,0,0,0,0c-0.2-1.2-0.3-2.4-0.4-3.7
		c0,0,0,0,0,0c0-0.3-0.1-0.6-0.1-0.9c-0.1-0.9-0.2-1.8-0.3-2.7c-0.1-0.7-0.1-1.3-0.2-2c-0.1-0.6-0.1-1.2-0.1-1.8
		c0-0.7-0.1-1.4-0.1-2.1c0,0,0,0,0,0c0-0.1,0-0.1,0-0.2c0-0.3,0-0.6,0-0.9c-0.1-1.3-0.1-2.7-0.1-4v0c-17.1-5.5-32.2-16.4-42.6-31.4
		c0.9-2,1.9-4.1,2.9-6.1c9.1,15.4,23.3,27.2,39.6,33.8v0v0c0-1.3,0-2.6,0.1-3.8c0-1,0.1-2.1,0.1-3.1c0-0.8,0.1-1.5,0.1-2.3
		c0.1-1.7,0.2-3.4,0.4-5.1c0-0.6,0.1-1.3,0.2-1.9c0.1-0.8,0.2-1.7,0.3-2.5c0-0.4,0.1-0.8,0.1-1.2c0-0.4,0.1-0.8,0.2-1.2
		c0.1-0.8,0.2-1.7,0.3-2.5c0.1-0.8,0.2-1.7,0.4-2.5c0.1-0.7,0.2-1.5,0.4-2.2c0-0.2,0-0.4,0.1-0.6c0.1-0.7,0.3-1.5,0.4-2.2
		c0.2-0.8,0.3-1.7,0.5-2.5c0.1-0.5,0.2-1.1,0.3-1.6c0.1-0.5,0.2-1.1,0.4-1.6c0.2-0.7,0.3-1.4,0.5-2.1c0.5-1.9,1-3.8,1.5-5.7
		c0.2-0.7,0.4-1.4,0.6-2.1c0.5-1.6,1-3.2,1.5-4.8c0.3-0.8,0.5-1.5,0.8-2.3c0.3-0.8,0.6-1.6,0.9-2.4c0.4-1.2,0.9-2.4,1.4-3.6v0
		c-8.4-4.4-15.9-10-21.8-16.7c-11.7,12.7-21.4,27.4-29.1,42.9c0,0,0,0,0,0c-1,2-2,4-2.9,6.1c-1,2.1-1.9,4.2-2.8,6.4
		c-7.5,18-12.8,36.8-16.8,55.9v0C283.8,627.9,308.8,633.1,334.1,633.3L334.1,633.3z"/>
	<path class="st1" d="M348.3,755.2c17.7-5.2,35.3-10.8,52.6-17c0.6,0.5,1.1,0.9,1.7,1.4c-0.6-0.5-1.2-0.9-1.7-1.4
		c-11.9-9.5-23-19.8-32.6-31.6c-4.1-5.1-7.8-10.5-11.1-16.2c-0.3-0.4-0.5-0.9-0.7-1.3c0.2,0.4,0.5,0.9,0.7,1.3
		c-33.9,6.5-68.3,11.6-102.5,5.7c0,0.3,0.1,0.5,0.1,0.8c0.2,1.4,0.4,2.7,0.5,4.1c0.1,0.7,0.2,1.3,0.3,2c0.2,1.4,0.4,2.7,0.6,4.1
		c0.1,0.6,0.2,1.2,0.3,1.9c0.3,1.5,0.6,3,0.9,4.5c0.1,0.5,0.2,0.9,0.3,1.4c0.4,2,0.8,3.9,1.3,5.9c2.7,10.9,6.4,21.5,11.9,31.6
		c0.1,0.2,0.2,0.3,0.3,0.5c0.8,1.4,1.6,2.8,2.4,4.2c0.4,0.7,0.9,1.4,1.4,2.2c0.5,0.8,1.1,1.6,1.6,2.4c0.5,0.8,1,1.6,1.6,2.3
		c0.9,1.2,1.8,2.5,2.7,3.7C302.5,772.3,328.4,761,348.3,755.2z"/>
	<path class="st1" d="M338.2,513.6L338.2,513.6L338.2,513.6c0.4-0.8,0.7-1.6,1.1-2.4c0.7-1.6,1.5-3.2,2.3-4.8c0.8-1.7,1.7-3.4,2.6-5
		c0.4-0.8,0.9-1.6,1.4-2.5c0.5-0.8,0.9-1.6,1.4-2.4c0.5-0.9,1.1-1.8,1.7-2.7c0.6-1,1.3-2,1.9-3c0.6-0.9,1.2-1.8,1.9-2.7
		c1.1-1.6,2.2-3.1,3.4-4.7c0.4-0.6,0.9-1.2,1.4-1.8c0.5-0.7,1.1-1.4,1.7-2.1c0.6-0.7,1.1-1.4,1.7-2.1c-0.9-1.1-1.8-2.2-2.7-3.3
		c-0.8-1-1.7-2.1-3-2.4c-1.1-0.2-2.2,0.3-3.1,0.8c-12.5,6.5-23.6,15-33.5,24.9c-0.7,0.7-1.3,1.4-2,2.1c0.7-0.7,1.3-1.4,2-2.1
		C323.7,503.8,330.6,509.3,338.2,513.6z"/>
	<path class="st1" d="M355.8,687.8L355.8,687.8c-5.3-9.6-9.2-20-11-30.6c0,0,0,0,0,0c0,0,0,0,0,0c-0.9-1.6-1.7-3.2-2.6-4.8
		c-0.8-1.6-1.5-3.1-2.3-4.7c-0.5-0.9-0.9-1.9-1.3-2.9c-0.6-1.3-1.1-2.6-1.6-3.9c-0.1-0.2-0.2-0.5-0.3-0.7c-0.4-0.8-0.7-1.7-1-2.5
		c-0.1-0.2-0.2-0.5-0.3-0.7l0,0l0,0c-26,0.2-51.7-4.5-73.7-18.7c-3.2,16.2-5.5,32.6-7.7,48.9c-0.4,3.1-0.8,6.1-1.2,9.2
		c0.4,5.3,0.8,10.6,1.4,15.9c0.1,0.7,0.2,1.4,0.2,2.1c-0.1-0.7-0.2-1.4-0.2-2.1C288.2,699.1,322.2,694.2,355.8,687.8z"/>
	<path class="st8" d="M357.3,481.5c-0.5,0.6-0.9,1.2-1.4,1.8c-1.2,1.5-2.3,3.1-3.4,4.7c-0.6,0.9-1.3,1.8-1.9,2.7c-0.7,1-1.3,2-1.9,3
		c-0.6,0.9-1.1,1.8-1.7,2.7c-0.5,0.8-1,1.6-1.4,2.4c-0.5,0.8-0.9,1.6-1.4,2.5c-0.9,1.6-1.8,3.3-2.6,5c-0.8,1.6-1.6,3.2-2.3,4.8
		c-0.4,0.8-0.7,1.6-1.1,2.4v0c13.2,7.5,28.8,11.9,43.1,13.1c-1.3,1.2-2.6,2.5-3.8,3.8c-13.8-1.4-28.5-5.4-41.3-12.2
		c-0.5,1.2-0.9,2.4-1.4,3.6c-0.3,0.8-0.6,1.6-0.9,2.4c-0.3,0.8-0.5,1.5-0.8,2.3c-0.5,1.6-1,3.2-1.5,4.8c-0.2,0.7-0.4,1.4-0.6,2.1
		c-0.5,1.9-1,3.8-1.5,5.7c-0.2,0.7-0.3,1.4-0.5,2.1c-0.1,0.5-0.3,1.1-0.4,1.6c-0.1,0.5-0.2,1.1-0.3,1.6c-0.2,0.8-0.3,1.7-0.5,2.5
		c-0.1,0.8-0.3,1.5-0.4,2.2c-0.1,0.2-0.1,0.4-0.1,0.6c-0.1,0.7-0.3,1.5-0.4,2.2c-0.1,0.8-0.3,1.7-0.4,2.5c-0.1,0.9-0.2,1.7-0.3,2.5
		c-0.1,0.4-0.1,0.8-0.2,1.2c-0.1,0.4-0.1,0.8-0.1,1.2c-0.1,0.8-0.2,1.6-0.3,2.5c-0.1,0.6-0.1,1.3-0.2,1.9c-0.2,1.7-0.3,3.4-0.4,5.1
		c-0.1,0.8-0.1,1.5-0.1,2.3c0,1-0.1,2.1-0.1,3.1c0,1.3-0.1,2.6-0.1,3.8v0c7.5,3,15.4,4.9,23.6,5.4c0-0.2,0.1-0.3,0.1-0.5
		c0.2-0.9,0.5-1.9,0.7-2.8c0.1-0.5,0.3-1,0.4-1.5c0.2-0.9,0.5-1.7,0.8-2.6c0.2-0.5,0.4-1.1,0.5-1.6c0.3-0.8,0.5-1.6,0.8-2.5
		c0.2-0.7,0.5-1.4,0.8-2.1c0.2-0.6,0.5-1.3,0.7-1.9c0.1-0.3,0.2-0.5,0.3-0.8c0.7-1.7,1.4-3.4,2.2-5c0.3-0.8,0.7-1.5,1.1-2.3
		c0.6-1.2,1.2-2.4,1.8-3.6c0.4-0.8,0.8-1.6,1.3-2.3c0.7-1.2,1.3-2.4,2-3.5c0.4-0.7,0.8-1.4,1.3-2.1c1.1-1.8,2.2-3.5,3.4-5.2
		c0.4-0.5,0.8-1,1.1-1.5c0.9-1.2,1.8-2.4,2.7-3.6c0.6-0.7,1.1-1.4,1.7-2.1c0.8-1,1.6-1.9,2.4-2.8c0.6-0.7,1.3-1.4,1.9-2.1
		c0.3-0.3,0.5-0.5,0.7-0.8c0.8-0.8,1.6-1.6,2.4-2.4c0.4-0.4,0.8-0.8,1.1-1.1c0.1-0.1,0.2-0.2,0.2-0.2c1.3-1.2,2.7-2.4,4-3.5
		c0.3-0.2,0.6-0.5,0.8-0.7c0,0,0,0,0,0c4.1-3.3,8.4-6.3,13-8.8c1.1-0.6,2.3-1.3,3.5-1.9l5-3.8c-0.3-0.1-0.5-0.3-0.8-0.4
		c-0.4-0.1-0.7-0.2-1-0.3l0,0l0,0v0c-17.5-5.5-33.3-16-45.1-30c-0.6,0.7-1.2,1.4-1.7,2.1C358.4,480.1,357.9,480.8,357.3,481.5z"/>
	<path class="st8" d="M325,582c0,1.3,0.1,2.7,0.1,4c0,0.3,0,0.6,0,0.9c0,0.1,0,0.1,0,0.2c0.1,1.3,0.1,2.6,0.2,3.9
		c0,0.7,0.1,1.3,0.2,2c0.1,1.2,0.2,2.4,0.4,3.6c0.1,1.2,0.3,2.5,0.4,3.7c0.1,0.6,0.2,1.2,0.3,1.9c0,0.1,0,0.1,0,0.2
		c0.1,0.8,0.2,1.7,0.4,2.5c0.2,1,0.3,1.9,0.5,2.9c0.1,0.8,0.3,1.6,0.4,2.4c0.3,1.5,0.6,2.9,0.9,4.4c0.2,1,0.4,2,0.7,3c0,0,0,0,0,0
		c0.5,1.9,0.9,3.8,1.5,5.7c0.1,0.4,0.3,0.9,0.4,1.4c0.2,0.7,0.4,1.3,0.6,2c0.7,2.2,1.4,4.4,2.1,6.6c3.2,0,6.3,0,9.5-0.2
		c0.1-6,0.3-11.9,0.6-17.8c0,0,0-0.1,0-0.1c0.2-3.8,0.5-7.6,0.9-11.4c0-0.4,0.1-0.7,0.1-1.1c0.2-1.4,0.3-2.9,0.5-4.3
		c0.1-0.5,0.1-1,0.2-1.4c0.2-1.5,0.5-2.9,0.7-4.4c0.1-0.3,0.1-0.7,0.2-1c0.3-1.9,0.7-3.8,1.2-5.7c0,0.1,0,0.1-0.1,0.2
		C340.1,585.7,332.4,584.4,325,582z"/>
	<path class="st8" d="M335.5,637c0.1,0.2,0.2,0.5,0.3,0.7c0.3,0.8,0.6,1.7,1,2.5c0.1,0.2,0.2,0.5,0.3,0.7c0.5,1.3,1.1,2.6,1.6,3.9
		c0.4,1,0.8,1.9,1.3,2.9c0.7,1.6,1.5,3.2,2.3,4.7c0.8,1.6,1.7,3.2,2.6,4.8c-0.9-4.9-1.3-9.8-1.2-14.8c0-1.9,0-3.7,0.1-5.6
		C340.9,636.9,338.2,637,335.5,637L335.5,637z"/>
	<path class="st8" d="M326,596.7c0.1,1.2,0.3,2.5,0.4,3.7c0,0,0,0,0,0C326.2,599.1,326.1,597.9,326,596.7
		C326,596.7,326,596.7,326,596.7z"/>
	<path class="st8" d="M325.2,587.2C325.2,587.2,325.2,587.2,325.2,587.2c0-0.1,0-0.1,0-0.2C325.2,587,325.2,587.1,325.2,587.2z"/>
	<path class="st8" d="M326.7,602.2c0,0.1,0,0.1,0,0.2C326.7,602.4,326.7,602.3,326.7,602.2L326.7,602.2z"/>
	<path class="st2" d="M316.5,499.5c-0.7,0.7-1.3,1.4-2,2.1v0v0C315.1,500.9,315.8,500.2,316.5,499.5z"/>
	<path class="st2" d="M338.2,513.6L338.2,513.6c-7.7-4.3-14.5-9.7-19.7-16.2c-0.7,0.7-1.3,1.4-2,2.1c-0.7,0.7-1.3,1.4-2,2.1v0
		c5.8,6.7,13.4,12.3,21.8,16.7v0c12.8,6.7,27.5,10.8,41.3,12.2c1.2-1.3,2.5-2.5,3.8-3.8C367,525.5,351.4,521.1,338.2,513.6z"/>
	<path class="st2" d="M348.1,585.8C348.1,585.8,348.1,585.8,348.1,585.8c0.2-0.7,0.3-1.4,0.5-2.1l0,0l0,0
		C348.4,584.4,348.2,585.1,348.1,585.8z"/>
	<path class="st2" d="M325,578.3L325,578.3c-16.3-6.5-30.4-18.4-39.6-33.8c-1,2-2,4-2.9,6.1c10.4,15.1,25.5,26,42.6,31.4v0
		c7.4,2.4,15.1,3.7,23,4c0-0.1,0-0.1,0.1-0.2c0,0,0,0,0,0c0.2-0.7,0.3-1.4,0.5-2.1C340.4,583.2,332.5,581.3,325,578.3z"/>
	<path class="st2" d="M262.9,612.9L262.9,612.9c-0.4,1.8-0.8,3.6-1.1,5.3v0v0C262.2,616.5,262.5,614.7,262.9,612.9z"/>
	<path class="st2" d="M343.6,636.8c0-1.2,0-2.4,0.1-3.7c0,0,0,0,0,0C343.6,634.3,343.6,635.6,343.6,636.8L343.6,636.8z"/>
	<path class="st2" d="M334.1,633.3c-25.3-0.2-50.4-5.3-71.2-20.4c-0.4,1.8-0.8,3.6-1.1,5.3v0c21.9,14.2,47.7,18.9,73.7,18.7
		c2.7,0,5.4-0.1,8.1-0.2c0-1.2,0-2.4,0.1-3.7C340.5,633.3,337.3,633.3,334.1,633.3z"/>
	<path class="st2" d="M355.8,687.8L355.8,687.8c0.2,0.5,0.5,0.9,0.7,1.3C356.2,688.7,356,688.3,355.8,687.8z"/>
	<path class="st2" d="M254.6,694.4c0.1,0.6,0.1,1.1,0.2,1.7c0,0,0,0,0,0c0-0.3-0.1-0.6-0.1-0.9C254.6,695,254.6,694.7,254.6,694.4z"
		/>
	<path class="st2" d="M357.2,690.5c-0.3-0.4-0.5-0.9-0.7-1.3c-0.2-0.4-0.5-0.9-0.7-1.3c-33.5,6.4-67.6,11.3-101.4,4.5
		c0.1,0.7,0.2,1.4,0.2,2.1c0,0.3,0.1,0.6,0.1,0.9c0,0.3,0.1,0.6,0.1,0.9C288.9,702.1,323.4,697,357.2,690.5z"/>
	<path class="st2" d="M404.3,741L404.3,741c-0.6-0.5-1.1-0.9-1.7-1.4C403.2,740.1,403.8,740.5,404.3,741L404.3,741z"/>
	<path class="st2" d="M281.2,767.7c-0.1-0.1-0.1-0.2-0.2-0.3c0,0,0,0,0,0c1.3,1.6,2.6,3.2,3.9,4.8c0,0,0,0,0,0
		c-0.2-0.3-0.5-0.6-0.7-0.9C283.1,770.2,282.1,769,281.2,767.7z"/>
	<path class="st2" d="M486.8,779.2L486.8,779.2c0.7,0,1.5,0.1,2.2,0.1C488.3,779.2,487.6,779.2,486.8,779.2z"/>
	<path class="st1" d="M860.8,772.4c-0.6-0.6-1.2-1.1-1.8-1.7c-6.1-5.7-12.3-11.4-18.4-17.1c-2.3-2.1-4.5-4.2-6.9-6.3
		c-0.9-0.8-1.7-1.5-2.6-2.3c-4.8-4-9.8-7.7-15.4-10.4c-3.2-1.5-6.6-2.7-10-3.7c0,0.4,0,0.8,0,1.2c0.1,5.6,0.1,11.2,0.3,16.9
		c1.6,0.7,3.1,1.4,4.6,2.1c2.9,1.4,5.7,2.9,8.5,4.5c1.2,0.7,2.3,1.3,3.4,2c9,5.5,17.5,12,26,18.5c0.6,0.5,1.2,0.9,1.8,1.4
		c3.4,2.6,6.8,5.2,10.3,7.8c13.2,9.7,27.2,18.4,41.7,25.8C888.5,798.2,874.6,785.3,860.8,772.4z"/>
	<g>
		<path class="st2" d="M831.1,745.1c-0.3,0.1-0.5,0.3-0.8,0.5c-3.9,3.1-7.7,6.5-11.2,10.1c1.2,0.7,2.3,1.3,3.4,2
			c3.5-3.7,7.2-7.1,11.2-10.3L831.1,745.1z"/>
	</g>
	<g>
		<path class="st2" d="M860.8,772.4c-3.4,2-6.8,3.7-10.5,5.1c-0.6-0.4-1.2-0.9-1.8-1.4c3.6-1.5,7.1-3.3,10.4-5.4
			C859.6,771.3,860.2,771.9,860.8,772.4z"/>
	</g>
	<path class="st1" d="M501.1,779.1c-2.9,0.2-5.9,0.3-8.8,0.3c-0.3,0-0.7,0-1,0c-0.7,0-1.5-0.1-2.2-0.1c0.7,0,1.5,0.1,2.2,0.1
		c0.4,0,0.7,0,1,0c-2.7,6.6-6.1,12.9-10.3,18.8c-0.7,1-1.5,2.1-2.2,3.1c-1.3,0.2-2.6,0.5-4,0.7c0.8-0.1,1.6-0.3,2.3-0.4
		c0.5-0.1,1.1-0.2,1.6-0.3c1-0.2,2-0.3,3.1-0.5c2.8-0.5,5.5-0.9,8.3-1.4c3.3-0.5,6.5-1,9.8-1.5c0.5-0.1,1.1-0.2,1.6-0.2
		c0.5-0.1,1-0.2,1.6-0.2c4.3-0.6,8.6-1.2,12.9-1.7c0.3,0,0.5-0.1,0.8-0.1c4.2-0.5,8.4-1,12.6-1.4c0.5-0.1,1-0.1,1.5-0.2
		c0.7-0.1,1.5-0.1,2.2-0.2c-2.1-6.1-4.4-12.2-6.7-18.3C518.7,777,510,778.5,501.1,779.1z"/>
	<path class="st1" d="M486.8,779.2L486.8,779.2c-14.8-0.8-29.4-4.6-42.8-11.1c-1.4-0.7-2.8-1.4-4.1-2.1c-2.2-1.2-4.3-2.4-6.4-3.7
		c-4.4-2.8-8.6-5.8-12.8-8.9c-5.5-4-11-8.1-16.3-12.4c-21.7,7.7-43.7,14.6-65.9,20.9c-16.6,4.7-35.7,11.8-53.6,10.4
		c0,0.1,0.1,0.1,0.1,0.2c1.1,1.4,2.3,2.7,3.5,4c0.3,0.4,0.6,0.7,1,1.1c1.2,1.3,2.4,2.5,3.7,3.7c0.3,0.3,0.7,0.7,1,1
		c1.6,1.5,3.1,3,4.8,4.5c0,0,0,0,0,0c1.7,1.5,3.4,3,5.1,4.4c7.5,6.2,15.5,11.8,23.7,16.8c7.9,4.9,16.2,9.3,25,11.9
		c1.3,0.4,2.5,0.7,3.8,1c1.2,0.3,2.4,0.5,3.6,0.7c0.4,0.1,0.9,0.1,1.3,0.2c0.8,0.1,1.6,0.2,2.4,0.3c0.5,0.1,1,0.1,1.5,0.1
		c0.7,0.1,1.5,0.1,2.2,0.2c0.5,0,1,0.1,1.6,0.1c0.7,0,1.5,0,2.2,0.1c0.5,0,1,0,1.5,0c0.8,0,1.6,0,2.4-0.1c0.4,0,0.9,0,1.3,0
		c1.2-0.1,2.4-0.1,3.6-0.2c0.3,0,0.7-0.1,1-0.1c0.8-0.1,1.6-0.2,2.4-0.2c24-10.9,41.5-33.5,56.4-55.9c1.4,0.7,2.7,1.4,4.1,2.1
		c-13.7,20.3-29.6,40.1-50,52.2c0,0,0,0,0,0c4.3-0.8,8.5-1.8,12.7-2.8c0.1,0,0.2,0,0.2-0.1c2.1-0.5,4.2-1.1,6.3-1.6
		c2.1-0.5,4.2-1.1,6.3-1.6c4.3-1.1,8.7-2.2,13.1-3.2c0.1,0,0.3-0.1,0.4-0.1c3.5-0.8,7.1-1.6,10.6-2.4c1-0.2,2-0.5,3-0.7
		c3.6-0.8,7.2-1.5,10.8-2.3c1-0.2,1.9-0.4,2.9-0.6c3.7-0.7,7.5-1.4,11.2-2.1c0.7-0.1,1.5-0.3,2.2-0.4h0l0,0c2.4-3.1,4.5-6.8,6-9.3
		C482.6,788.6,484.9,784,486.8,779.2z"/>
	<path class="st2" d="M338.4,761.9c22.2-6.3,44.2-13.2,65.9-20.9l0,0c-0.6-0.5-1.1-0.9-1.7-1.4s-1.2-0.9-1.7-1.4
		c-17.4,6.2-34.9,11.8-52.6,17c-19.8,5.8-45.8,17.1-67.3,12.3c0.1,0.1,0.1,0.2,0.2,0.3c1,1.2,1.9,2.4,2.9,3.6
		c0.2,0.3,0.5,0.6,0.7,0.9C302.7,773.7,321.8,766.6,338.4,761.9z"/>
	<path class="st2" d="M444,768.1c-1.4-0.7-2.8-1.4-4.1-2.1c-14.8,22.5-32.4,45.1-56.4,55.9c0.1,0,0.2,0,0.3,0c1.5-0.2,3-0.4,4.5-0.6
		c0.5-0.1,0.9-0.2,1.4-0.2c1.4-0.2,2.8-0.5,4.2-0.8l0,0c0,0,0,0,0,0c0,0,0,0,0,0C414.4,808.2,430.3,788.4,444,768.1z"/>
	<path class="st2" d="M482,798.1c4.2-5.8,7.6-12.2,10.3-18.8c-0.3,0-0.7,0-1,0c-0.7,0-1.5-0.1-2.2-0.1c-0.7,0-1.5,0-2.2-0.1
		c-2,4.8-4.3,9.4-7,13.8c-1.5,2.5-3.6,6.2-6,9.3c0,0,0,0,0,0c0.7-0.1,1.3-0.2,2-0.4c1.3-0.2,2.6-0.5,4-0.7
		C480.5,800.2,481.3,799.1,482,798.1z"/>
	<path class="st14" d="M607.1,627.6c0-0.5-0.3-1-0.7-1.4c-3.4-4.2-9.5-4.8-14.9-4.9c-2.2-0.1-4.3-0.1-6.5-0.2
		c4.1-0.5,7.8-3.2,9.5-6.9c-6.9-3-14.9-3.5-22.1-1.3l1.1,0.2c-3.4-0.5-6.9-0.1-10.1,1.2c1.9,2.8,6.3,2.5,8.6,5
		c2,2.2,1.4,6.2-1.2,7.6c2.6,1.1,5.3,1.8,8.1,2c2.4,0.2,5,0.1,6.8,1.7s1.3,5.4-1,5.4c7.4,0.4,14.9-1.7,20.9-6
		C606.3,629.3,607.2,628.5,607.1,627.6z"/>
	<path class="st14" d="M613.9,678.2c-3.9-1.5-8.2-1.9-12.3-1.2l-2,1c-0.7-0.2-1.4,0-1.9,0.6c2.5,2.3,5.3,5.3,4.5,8.6
		c-0.6,2.7-3.2,4.3-5.5,5.6c2.6,0,5.3-0.1,7.9-0.1c3.6,0,7.4-0.1,10.5-1.9c3.1-1.8,5.2-5.9,3.5-9.1C617.6,680,615.7,679,613.9,678.2
		z"/>
	<path class="st14" d="M411.5,642.8l-0.2,0.7c-0.2,3-3.2,5.4-6.2,5.7c-3,0.3-6-1-8.6-2.7c0.5,2.5,1.1,5.1,0.8,7.7
		c-0.3,2.6-1.5,5.2-3.7,6.5c-1.3,0.8-2.9,1-4.4,1c-2,0-4.1-0.6-5.6-2.1c2.9,4,6.8,7.4,11.2,9.6c2.7,1.4,5.8,2.3,8.8,1.9
		c3-0.4,6-2.5,6.6-5.5c0.3-1.5,0.1-3-0.2-4.4c-0.5-2.3-1.4-4.5-2.6-6.5c3.1,1.8,6.8,2.4,10.3,1.7c1.2-0.2,2.4-0.7,3-1.7
		c0.6-0.9,0.6-2.1,0.3-3.1C420.2,647.1,415.6,644.6,411.5,642.8z"/>
	<path class="st14" d="M699.3,587.3c-4.9-1.4-10-2.1-15-2.1l-8.4,0c3.4,0.6,6.8,1.8,10.5,3.4c1.7,0.7,1.7,3.1,0,3.9
		c-0.2,0.1-0.4,0.2-0.5,0.3c3.4,0.1,9.5-1.1,12.9-1.5c1.3-0.2,3-0.8,2.8-2.2C701.4,588.1,700.3,587.6,699.3,587.3z"/>
	<path class="st14" d="M860.9,694.4c-1.4-1-2.8-2-4.2-3l-0.6,0.8c0.6,0.9,0.9,2,0.6,3.1c-0.4,1.8-2.2,3.1-4.1,3.4
		c-1.9,0.3-3.7-0.1-5.6-0.5c-1.5-0.3-3-0.7-4.6-1c1,2.6,1.6,5.3,1.8,8.1c0.1,1.3,0,2.9-1.2,3.4c-0.5,0.2-1.2,0.1-1.7,0
		c-0.9-0.2-1.8-0.3-2.7-0.5c2.6,2.9,5.9,5,9.6,6.1c2,0.6,4.6,0.8,5.8-0.9c1.1-1.4,0.7-3.3,0.2-5c-0.8-2.2-1.9-4.3-3.3-6.2
		c2,2.3,5.2,3.1,8.2,3.1c2.4,0,5.2-0.7,6.2-2.9c0.7-1.5,0.2-3.4-0.7-4.7C863.7,696.4,862.3,695.4,860.9,694.4z"/>
	<path class="st14" d="M1049.2,768.8c-2.6-0.4-5.3,0-7.9,0.4l-1.5,0.1c1.9,0.9,3.1,3.2,2.7,5.3c-0.4,2.1-2.5,3.7-4.6,3.7
		c6.4,0.4,13-1.7,18-5.7C1054.5,770.3,1051.9,769.1,1049.2,768.8z"/>
	<path class="st14" d="M1095.6,722.8c-3.6,0.6-7.1,1.8-10.2,3.7l-2.1,1.3c1.5,0.8,3.3,0.7,5,1c1.7,0.3,3.6,1.3,3.8,3
		c0.3,2.4-2.6,3.8-3.5,6c5.2-1,9.7-5,11.4-10c0.5-1.5,0.7-3.3-0.5-4.4C1098.5,722.5,1097,722.6,1095.6,722.8z"/>
	<path class="st5" d="M1098.6,619.2c0.2,0.1,0.4,0.2,0.5,0.4c0.2-5.6,1.8-11.1,4.7-15.9c0,0,0-0.1,0.1-0.1
		c-4.9-1.2-9.8-2.2-14.8-3.1c0.7,1.2,1.3,2.4,1.9,3.6C1093.5,609.1,1096.1,614.2,1098.6,619.2z"/>
	<path class="st4" d="M1118.9,639.2c-0.1,0.1-0.1,0.2-0.2,0.3c0.1,0.1,0.3,0.1,0.4,0.2C1119.1,639.5,1119,639.4,1118.9,639.2z"/>
	<path class="st4" d="M1001.1,743c0.2,0,0.5,0,0.7,0c0.1,0,0.2,0,0.3,0c1.4,0,2.8,0,4.2,0c0.4,0,0.7,0,1.1,0c1.5,0,2.9-0.1,4.4-0.2
		c0.2,0,0.4,0,0.6,0c0.1,0,0.2,0,0.2,0c1.6-0.1,3.1-0.2,4.7-0.4c0.2,0,0.4,0,0.6-0.1c1.6-0.2,3.3-0.4,4.9-0.6c0.1,0,0.2,0,0.3,0
		c1.7-0.3,3.4-0.6,5.1-0.9c0,0,0.1,0,0.1,0c1.8-0.3,3.5-0.7,5.3-1.2c0,0,0,0,0,0c0,0,0,0,0,0c1.8-0.4,3.6-0.9,5.4-1.4
		c0.5-0.1,0.9-0.3,1.4-0.4c0.3-0.1,0.5-0.2,0.8-0.2c-0.2,0.4-0.5,0.8-0.7,1.2c0.4-0.1,0.7-0.2,1.1-0.3c0.1,0,0.1,0,0.2-0.1
		c0.7-4.5-1.7-6.5-4.1-8.2c-1.7-1.3-6.1-2.8-8.2-2.4c-11.8,2-22.2,9.4-32.8,15.1c0,0,0.1,0,0.1,0
		C998.3,742.9,999.7,742.9,1001.1,743z"/>
	<path class="st5" d="M1041.9,738.3C1041.9,738.3,1041.9,738.3,1041.9,738.3c-0.1,0-0.1,0-0.2,0.1
		C1041.8,738.4,1041.8,738.3,1041.9,738.3z"/>
	<path class="st0" d="M1064.1,607.2c0.6-3.4,1.8-6.6,3.6-9.5c-3.3-0.3-6.6-0.6-9.9-0.9c2.5,3.4,4.6,7.1,6.2,11
		C1064,607.7,1064,607.4,1064.1,607.2z"/>
	<path class="st0" d="M1099.2,620.3c0-0.2,0-0.5,0-0.7c-0.2-0.1-0.4-0.3-0.6-0.4l0,0C1098.8,619.6,1099,620,1099.2,620.3z"/>
	<path class="st0" d="M1070.3,725.8C1070.3,725.8,1070.3,725.8,1070.3,725.8c-0.1,0.1-0.2,0.1-0.2,0.1
		C1070.2,725.9,1070.3,725.8,1070.3,725.8C1070.4,725.8,1070.3,725.8,1070.3,725.8C1070.3,725.8,1070.3,725.8,1070.3,725.8z"/>
	<path class="st0" d="M1118.9,639.2c-0.1,0.1-0.1,0.2-0.2,0.3c0.1,0.1,0.3,0.1,0.4,0.2C1119.1,639.5,1119,639.4,1118.9,639.2z"/>
	<path class="st0" d="M1003.7,596c0.9-2.3,2.5-4.4,4.1-6.3c-2.9-1.1-5.8-2.3-8.5-3.8c-0.1,0-0.1-0.1-0.2-0.1
		c0.1,0.1,0.1,0.3,0.2,0.4C1000.8,589.4,1002.2,592.7,1003.7,596z"/>
	<path class="st0" d="M1029.3,604.4c0.2-1.7,0.6-3.4,1.2-5c0.1-0.3,0.2-0.5,0.3-0.8c0.2-0.5,0.4-1.1,0.7-1.6
		c0.4-0.8,0.8-1.5,1.3-2.2c-3.2-0.3-6.3-0.7-9.5-1.2c0.2,0.3,0.4,0.6,0.6,0.9C1025.8,597.7,1027.6,601,1029.3,604.4z"/>
	<path class="st0" d="M1112.4,687.9c-0.4-2.8-0.7-5.8-0.7-6.3c-0.3-4.2-0.2-8.4,0-12.6c0.4-7.4,0.5-15.5,3.1-22.5
		c0.3-0.7,3.1-7.3,3.9-6.9c-2.2-1-4.2-2.5-6.1-4.1c-3.7-3-7.3-6-11-9c-0.7-0.6-1.5-1.2-1.9-2c-0.3-0.5-0.4-1-0.5-1.6
		c-1.8,0.9-4.3,0.7-6.4,0.2c-8.4-1.9-16.6-4.8-24.4-8.4c-1.3-0.6-2.6-1.3-3.5-2.3c-0.1,0.1-0.2,0.2-0.3,0.3
		c-0.8,0.5-1.7,0.5-2.6,0.5c-10.7,0.1-21.2-3-31.4-6.6c-0.4-0.1-0.8-0.3-1.1-0.6c-7.7,0.1-15.5-1.1-22.9-3.4
		c-1.5-0.5-3.1-1.2-3.6-2.7c-0.1-0.2-0.1-0.5-0.1-0.7c-0.6,0.7-2,0.8-3,0.7c-5.6-0.8-11-2.2-16.2-4.4c-1-0.4-2.1-0.9-2.9-1.7
		c-0.3-0.2-0.5-0.5-0.6-0.9c0-0.1,0-0.1,0-0.2c-1,0.3-2,0.3-3.1,0.3c-2,0-4.1,0-6-0.6c-2-0.7-3.8-2-5.5-3.3c-2-1.5-4-3.1-5.6-5
		c-1.6-2-2.7-4.4-2.5-6.9c0.1-1.6,0.7-3.1,1.4-4.5c-0.2,0.1-0.5,0.2-0.7,0.2c-0.6,0-1.1-0.4-1.5-0.7c-2.7-2.5-3.6-6.4-3.9-10.1
		c0-0.6-0.1-1.2-0.1-1.7c-2.4,2.5-4.4,5.3-6,8.4c-17.9,35.4,25,51.4,51.8,53.6c31,2.6,69.2,1.6,93.4,24.7c6.9,6.6,12,15.3,13.2,24.7
		c0.1,0.5,0.1,1,0.2,1.6c0.3,4.3,0,8.4-0.9,12.3c2.4,0.2,4.7,0.7,6.9,1.8C1111.7,687.5,1112.1,687.7,1112.4,687.9z"/>
	<path class="st0" d="M1022.4,544.7c-4.9-0.3-9.9-1.7-14.6-1.1c-0.1,0.1-0.3,0.1-0.4,0.2c-2.5,0.9-5.2,0.6-7.8,0.5
		c-2.2-0.1-4.5,0.1-6.7,0.5c-1.4,0.8-2.9,1.2-4.4,1.7c-5.1,1.5-10.1,3.6-14.8,6c-1.3,4.4-3.1,8.7-5.5,12.7c1.5-0.1,3,0.1,4.2,1
		c1.5,1,2.4,2.5,3.2,4.1c2.8,5.2,5,10.8,6.4,16.6c0.9-1.9,1.9-3.6,3.2-5.2c0.5-0.7,1.1-1.3,1.9-1.7c1.3-0.7,3-0.5,4.5-0.2
		c0.5,0.1,1.1,0.2,1.6,0.3c-3-4.9-2.8-10.9,2.2-15.9c10.5-10.6,27.8-9.9,41.5-12c0.8-0.1,0.9-0.9,0.7-1.7c-0.3-0.8-1-1.4-1.8-1.8
		c-3.3-2-6.8-3.4-10.5-4.4c-0.1,0.1-0.3,0.3-0.4,0.3C1024,544.8,1023.2,544.8,1022.4,544.7z"/>
	<path class="st4" d="M1132.8,639.9c-0.2-2.2-0.8-4.6-2.7-5.6c-1.4-0.7-3.2-0.4-4.7,0.2c-0.2,0.1-0.4,0.2-0.6,0.3
		c0.8-8.4,1.2-16.9-1.3-24.8c-0.4-1.2-0.8-2.3-1.3-3.5c-1.1-2.5-2.6-4.9-4.7-6.5c-2.1-1.7-5-2.5-7.6-1.8c-2.6,0.8-4.5,3-6,5.4
		c0,0-0.1,0.1-0.1,0.1c-2.9,4.8-4.5,10.3-4.7,15.9c0,0,0,0,0,0c0,0.2,0,0.5,0,0.7c-0.2-0.4-0.4-0.7-0.5-1.1l0,0
		c-2.5-5-5.1-10.1-7.6-15.1c-0.6-1.2-1.2-2.4-1.9-3.6c-1.8-3.2-3.9-6.2-7.1-8.2c-1.9-1.2-4.3-1.9-6.5-1.4c-2.6,0.5-4.6,2.4-6.3,4.5
		c-0.6,0.8-1.1,1.6-1.6,2.4c-1.8,2.9-3,6.1-3.6,9.5c0,0.2-0.1,0.4-0.1,0.6c-1.6-3.9-3.7-7.6-6.2-11c-0.9-1.3-1.9-2.5-3-3.7
		c-1.4-1.5-2.9-3-4.8-4c-4.5-2.3-10.2-1.2-14.1,2c-1.2,1-2.3,2.2-3.1,3.6c-0.5,0.7-0.9,1.4-1.3,2.2c-0.2,0.5-0.4,1-0.7,1.6
		c-0.1,0.3-0.2,0.5-0.3,0.8c-0.6,1.6-0.9,3.3-1.2,5v0c0,0,0,0,0,0c0,0.4-0.1,0.9,0.1,1.2c0.1,0.1,0.2,0.2,0.2,0.2l0,0
		c0.3,0.3,0.7,0.5,1.1,0.6c10.1,3.5,20.6,6.7,31.4,6.6c0.9,0,1.8-0.1,2.6-0.5c0.1-0.1,0.2-0.2,0.3-0.3c0.9,1,2.2,1.7,3.5,2.3
		c7.8,3.7,16,6.5,24.4,8.4c2.1,0.5,4.6,0.7,6.4-0.2c0.1,0.6,0.2,1.1,0.5,1.6c0.4,0.8,1.2,1.4,1.9,2c3.7,3,7.3,6,11,9
		c1.9,1.5,3.9,3.1,6.1,4.1c0.1-0.1,0.1-0.2,0.2-0.3c0.1,0.1,0.1,0.3,0.2,0.4c-0.1-0.1-0.3-0.1-0.4-0.2c-0.8-0.3-3.7,6.2-3.9,6.9
		c-2.6,7-2.7,15.2-3.1,22.5c-0.2,4.2-0.3,8.4,0,12.6c0,0.5,0.3,3.5,0.7,6.3c-0.3-0.2-0.7-0.4-1-0.6c-2.1-1.1-4.5-1.7-6.9-1.8
		c-4.4-0.3-8.9,0.8-12.8,3c-5.9,3.4-10.2,9.1-13.2,15.3c-2.8,5.8-4.4,10.5-6,16.6c-0.6-1.8-1.2-3.7-2.4-5.2
		c-1.3-1.7-3.3-2.9-5.3-2.8c-1.2,0.1-2.3,0.7-3.4,1.3c-6.2,3.5-11.5,8.6-15.2,14.7c-1.7,2.9-3.1,6-4.8,8.9c-0.3,0.4-0.5,0.9-0.8,1.3
		c2.4-0.7,4.9-1.5,7.3-2.4c7.1-2.6,14.8-6.1,22.2-10.4c0.1,0,0.1-0.1,0.2-0.1c0,0,0,0,0.1,0c0,0,0,0,0,0c0,0,0,0,0,0
		c8.3-2,22.2-8.9,29.3-13.3c7-4.3,14-10.2,15.3-18.4c0.1-0.4,0.1-0.8,0.1-1.2c4.3-2.3,9-11.1,10.8-14.9
		C1131.7,666.2,1134.1,652.9,1132.8,639.9z"/>
	<path class="st4" d="M1029.4,605.6c-0.2-0.4-0.2-0.8-0.1-1.2c0,0,0,0,0,0c-1.7-3.4-3.5-6.7-5.5-9.9c-0.2-0.3-0.4-0.6-0.6-0.9
		c-1.6-2.5-3.3-4.9-5.8-6.5c-1.2-0.8-2.7-1.4-4.2-1.2c-2.1,0.2-3.7,1.8-5,3.4c-0.1,0.2-0.3,0.3-0.4,0.5c-1.7,1.9-3.2,4-4.1,6.3
		c-1.5-3.3-2.9-6.6-4.4-9.9c-0.1-0.1-0.1-0.3-0.2-0.4c-0.8-1.8-1.7-3.6-3.4-4.7c-0.8-0.5-1.7-0.8-2.7-1c-0.5-0.1-1.1-0.2-1.6-0.3
		c-1.5-0.2-3.1-0.5-4.5,0.2c-0.7,0.4-1.3,1-1.9,1.7c-1.3,1.6-2.3,3.4-3.2,5.2c-1.4-5.8-3.6-11.4-6.4-16.6c-0.8-1.5-1.8-3.1-3.2-4.1
		c-1.2-0.8-2.7-1.1-4.2-1c2.4-4,4.2-8.2,5.5-12.7c4.8-2.4,9.7-4.4,14.8-6c1.5-0.5,3-0.9,4.4-1.7c2.2-0.4,4.4-0.6,6.7-0.5
		c2.6,0.1,5.4,0.5,7.8-0.5c0.1-0.1,0.3-0.1,0.4-0.2c4.8-0.6,9.7,0.8,14.6,1.1c0.8,0,1.6,0,2.3-0.4c0.2-0.1,0.3-0.2,0.4-0.3
		c0.4-0.5,0.6-1.1,0.3-1.7c-0.3-0.6-1.1-0.8-1.6-1.1c-1.8-1-2.5-3.6-4.5-4.1c-1-0.2-2,0.1-2.9,0.5c-2.9,1.2-5.6,2.6-8.3,4.1
		c-0.1-0.3-0.3-0.5-0.5-0.7c-1.1-1.4-2.4-2.7-3.7-4c-0.4-0.3-0.7-0.6-1.2-0.8c-0.8-0.4-1.7-0.3-2.6-0.1c-1.7,0.5-3,1.7-4.3,2.9
		c-1,1-2.1,1.9-3.1,2.9c-1.5-2.5-3.4-4.8-5.7-6.7c-0.4-0.3-0.8-0.6-1.3-0.7c-0.8-0.2-1.6,0.3-2.3,0.7c-3.2,2.1-6.1,4.5-8.7,7.2
		c-0.1,0.1-0.1,0.1-0.2,0.2c-0.1-0.4-0.3-0.7-0.5-1.1c-1.6-2.9-5.1-4-8.4-4.5c-1.2-0.2-2.5-0.3-3.7,0c-2.7,0.6-4.4,3.2-5.6,5.7
		c-2.6,5.4-3.9,11.5-3.7,17.5c0,0.6,0,1.2,0.1,1.7c0.3,3.7,1.2,7.5,3.9,10.1c0.4,0.4,0.9,0.8,1.5,0.7c0.2,0,0.5-0.1,0.7-0.2
		c-0.8,1.4-1.3,2.9-1.4,4.5c-0.1,2.5,1,4.9,2.5,6.9c1.6,2,3.6,3.5,5.6,5c1.7,1.3,3.5,2.6,5.5,3.3c1.9,0.6,4,0.6,6,0.6
		c1,0,2.1,0,3.1-0.3c0,0.1,0,0.1,0,0.2c0.1,0.3,0.4,0.6,0.6,0.9c0.8,0.8,1.9,1.2,2.9,1.7c5.2,2.1,10.7,3.6,16.2,4.4
		c1.1,0.1,2.4,0,3-0.7c0,0.2,0,0.5,0.1,0.7c0.5,1.5,2.1,2.2,3.6,2.7c7.4,2.4,15.1,3.6,22.9,3.4
		C1029.6,605.8,1029.5,605.7,1029.4,605.6z"/>
	<path class="st4" d="M1030.8,598.6c-0.1,0.3-0.2,0.5-0.3,0.8C1030.6,599.1,1030.7,598.8,1030.8,598.6z"/>
	<path class="st4" d="M1032.7,594.8c-0.5,0.7-0.9,1.4-1.3,2.2C1031.8,596.2,1032.3,595.5,1032.7,594.8z"/>
	<path class="st10" d="M655.4,979c-0.3-0.2-0.6-0.3-1-0.5c0,0-0.1,0-0.1,0.1L655.4,979z"/>
	<g>
		<path class="st10" d="M690.3,992.2C690.3,992.2,690.3,992.2,690.3,992.2c-0.8-3.7-4-8.1-7.6-9c-0.8-0.2-1.6-0.3-2.5-0.4
			c-2.8-0.3-5.8,0.2-8.5,0.9c-2.8-6.2-11.5-8.7-17.2-5.1c0.3,0.2,0.7,0.3,1,0.5l-1.1-0.4c0,0,0.1,0,0.1-0.1
			c-0.2-0.1-0.5-0.2-0.7-0.3c-5.2-2.3-11.2-2.7-16.7-1.2c-6.1,1.8-11.4,6-14.4,11.5c4.7,0,9.4,0.1,14.2,0.1
			c-5.1,1.4-9.9,4.1-13.8,7.6c9.4-0.3,18.9-0.9,28.2-1.8c-2.1,1.3-4,2.9-5.7,4.7c7.7-0.3,15.5-1,23.2-1.9
			C676.3,996.4,691.5,995,690.3,992.2z"/>
	</g>
	<path class="st5" d="M377,698.8c0.5,0.4,0.9,0.9,1.4,1.3C377.9,699.7,377.4,699.3,377,698.8z"/>
	<path class="st5" d="M383.9,705.2C383.9,705.2,383.9,705.2,383.9,705.2C383.9,705.2,383.9,705.2,383.9,705.2
		C383.9,705.2,383.9,705.2,383.9,705.2z"/>
	<path class="st10" d="M458.4,1001.2c-0.4-0.3-0.9-0.5-1.4-0.7c-0.2,0.1-0.5,0.2-0.7,0.4L458.4,1001.2z"/>
	<g>
		<path class="st10" d="M497.8,1009.4c-0.5-1.4-1.5-2.7-2.6-3.7c-4.2-3.8-10.2-5.3-15.7-4c-0.5,0.1-0.9,0.2-1.4,0.3
			c-1.3,0.4-2.7,1-4.1,0.7c-1-0.2-1.8-1-2.7-1.6c-4.1-2.9-10-3.1-14.3-0.7c-1.5-0.8-3.1-1.4-4.7-1.8c-5.8-1.6-12.2-1.4-17.7,0.9
			c-6.4,2.6-11.7,7.7-14.6,14c-0.7,1.5,0.6,3.2,2.2,2.9c5.1-1,10.4-0.9,15.5,0.2c-2.8,0.9-5.4,2.4-7.6,4.3c-0.9,0.7-0.2,2.1,0.9,1.9
			c8.8-1.5,17.7-2.6,26.6-3.1c-2,1.4-4.7,2.9-7.2,4.3c-1.2,0.7-0.7,2.5,0.7,2.4c7.1-0.3,15-0.9,21.7-1.6c6-0.7,12.2-1.7,17.7-4.2
			c2.2-1,4.5-2.6,6-4.6C497.9,1014,498.6,1011.7,497.8,1009.4z"/>
	</g>
	<path class="st4" d="M262.7,445.4c-4.5,2.6-9.1,6.1-10.5,11.2c-0.4,1.5-0.5,3.2,0.3,4.5c0.8,1.5,2.4,2.4,3.9,3.2
		c3.4,1.7,7.1,2.9,10.8,3.6c7.4-11.9,16.1-23.1,25.6-33.3C282.3,436.3,272,440,262.7,445.4z"/>
	<path class="st4" d="M240.6,493.7c-0.9,2.2-1.6,4.6-1.3,6.9c0.6,4.6,4.4,7.8,8.5,10.3c4.1-14.3,10.5-28.2,18.3-41.3
		C255.4,475.1,245.1,482.7,240.6,493.7z"/>
	<path class="st4" d="M278.9,409.9c-2.2,1.7-4.4,3.7-4.9,6.5c-0.5,3,1.3,5.9,3.5,8.1c4.5,4.5,10.6,6.8,16.6,8.9
		c5.3-5.5,10.8-10.7,16.4-15.6c10.8-9.2,23.3-16.9,36.6-21.6c-2.1-1.3-4.2-2.5-6.3-3.8C318.7,391.9,296.2,396.6,278.9,409.9z"/>
	<path class="st0" d="M252.9,676.4c0.4-3.1,0.8-6.1,1.2-9.2c2.1-16.4,4.5-32.7,7.7-48.9c0.3-1.8,0.7-3.6,1.1-5.3
		c4-19.1,9.2-37.9,16.8-55.9c0.9-2.1,1.8-4.3,2.8-6.4c0.9-2,1.9-4.1,2.9-6.1c0,0,0,0,0,0c7.7-15.6,17.4-30.3,29.1-42.9
		c1.3-1.4,2.6-2.8,4-4.2c9.8-9.9,21-18.4,33.5-24.9c1-0.5,2-1,3.1-0.8c1.3,0.2,2.2,1.3,3,2.4c0.9,1.1,1.8,2.2,2.7,3.3
		c11.8,14,27.7,24.5,45.1,30v0l0.5,0c0.2,0.1,0.4,0.2,0.6,0.3c0.3,0.1,0.5,0.3,0.8,0.4c11,5.5,22.7,9.4,34.8,11.8
		c10.6,2.1,21.4,2.9,32.2,2.5c7.1-0.3,14.5-1.3,20.7-4.9c6.1-3.7,10.8-10.6,9.8-17.7c-1.6-12.3-17.4-17.4-22.6-28.6
		c-4.3-9.4-0.3-20.7-2.8-30.7c-2.1-8.4-8.5-15-15.4-20.3c-3.6-2.8-7.3-5.3-11.2-7.6c0.1,0.1,0.2,0.3,0.3,0.4c2.6,4,4.4,8.5,6.2,12.9
		c1.1,2.6,2.2,5.3,3.2,7.9c0.8,1.8,1.5,3.7,1.5,5.7c0,2-1,4.1-2.8,4.9c-1.6,0.7-3.5,0.2-4.9-0.8c-1.4-1-2.5-2.3-3.6-3.6
		c-9.4-11.2-21.9-19.4-34.4-27.1c-5.3-3.3-10.6-6.4-16.2-9.1c-1.4-0.7-2.8-1.3-4.3-1.9c-1.2-0.5-2.5-1-3.8-1.4
		c-0.2-0.1-0.4-0.1-0.5-0.2c-1.1-0.4-2.3-0.8-3.4-1.1c-0.1,0-0.2,0-0.2-0.1c-2.6-0.7-5.2-1.3-7.8-1.8c0.6,0.4,1.2,0.8,1.8,1.2
		l-0.1,0.8c-7.4-0.3-14.8,0.6-21.8,2.6c-1.2,0.3-2.4,0.7-3.6,0.6c-1.4-0.1-2.7-0.9-3.9-1.6c-1.7-1-3.3-2-5-3
		c-0.9-0.6-1.8-1.1-2.8-1.7c-13.4,4.7-25.8,12.4-36.6,21.6c-5.7,4.8-11.2,10-16.4,15.6c-0.4,0.4-0.8,0.9-1.2,1.3
		c-9.5,10.1-18.2,21.3-25.6,33.3c-0.4,0.6-0.8,1.2-1.1,1.8c-7.9,13-14.2,26.9-18.3,41.3c-0.7,2.4-1.3,4.7-1.9,7.1
		c-10.5,44.8,1.6,90.5,5.4,135.3c0.3,3.1,0.5,6.3,0.7,9.5C252.3,667.4,252.6,671.9,252.9,676.4 M265.7,506.3c-1.2,0.9-2.7,1.8-4,1.1
		c-1.4-0.7-1.5-2.8-1.3-4.4c0.8-5,2.8-9.8,5.9-13.8l-0.2,1.1c-1,2.8-1.2,5.9-0.8,8.8c0.1,0.6,0.2,1.3,0.8,1.6
		c0.6,0.4,1.5,0.1,2.2-0.2c1.3-0.6,2.5-1.2,3.8-1.8C270.4,501.6,268.3,504.2,265.7,506.3z M311.8,431.5c1-0.4,2.1-0.7,3.2-0.9
		c10.1-2.4,20.4-3.9,30.8-4.4l0.9,0c2.4,1.4,3,4.5,3.2,7.3c0.1,2.1,0,4.4-1.6,5.8c-1.2,1-2.8,1.1-4.4,1c-6.7-0.5-13.3-1.5-19.8-2.8
		c-4-0.7-8.1-1.2-12.1-2.3C310.2,434.6,310.1,432.2,311.8,431.5z M347.7,459.4c-0.9,0.4-2,0.4-2.9,0.3c-8.4-0.4-16.7-2.4-24.9-4.3
		c-1.5-0.4-3.1-0.8-4.5-1.4c-1.5-0.7-1.4-3,0.2-3.4c10.2-2.7,20.8-3.9,31.3-3.3l0.4,0.5c1.6,1.6,2.6,3.8,2.9,6.1
		C350.4,456,349.7,458.5,347.7,459.4z M436.4,467.3c-1.1,0-2.3,0-3.4-0.1c-3.5-0.2-7-1.1-10.2-2.5c-0.8-0.4-1.7-0.8-2.5-1.2
		c-4.8-2.8-8.8-7-11.2-12.1c-0.3-0.6-0.5-1.4-0.1-1.9c0.2-0.2,0.5-0.3,0.8-0.4c4.6-1.4,9.6-1.2,14.2,0.3c1.4,0.5,2.8,1.1,4,1.8
		c1.5,0.9,3,1.9,4.4,3c0.9,0.6,1.8,1.3,2.6,2c0.3,0.2,0.5,0.5,0.8,0.7c2.1,2,3.5,4.7,4.1,7.6l0.1,0.7
		C439.9,466.7,438,467.2,436.4,467.3z M478,463.1c-0.3,0.7-0.9,1.3-1.4,1.8c-0.2,0.2-0.5,0.4-0.7,0.5c-0.5,0.4-1.1,0.7-1.6,1
		c-1.1,0.5-2.2,0.8-3.4,0.9c-0.4,0-0.7,0-1.1-0.1c-0.1,0-0.1,0-0.2,0c-0.3,0-0.6-0.1-0.8-0.4c-0.2-0.3-0.6-1.5-0.3-1.7
		c0.2-0.7,0.4-1.4,0.6-2.1c0.2-0.8,0.5-1.7,0.7-2.5c0.1-0.4,0.2-0.7,0.3-1.1c0.6-2,1.3-4,2.5-5.7c0.5-0.6,1-1.2,1.7-1.7
		c0.4-0.3,0.9-0.5,1.4-0.7c0.2-0.1,0.5-0.1,0.8-0.2c0.5,0,1.1,0,1.5,0.5c0.3,0.4,0.4,1,0.4,1.5c0,2.4,0,4.7,0,7.1
		C478.4,461.3,478.4,462.3,478,463.1z M490.1,504c-0.8,0.6-1.8,0.6-2.8,0.5c-1.3-0.2-2.5-0.5-3.7-1.1c-0.4-0.2-0.9-0.5-1.2-0.9
		c-0.3-0.4-0.4-1-0.1-1.4c0.2-0.3,0.6-0.5,1-0.5c1.2-0.2,2.5,0.1,3.6,0.6c1.1,0.5,2.1,1.3,3.1,2L490.1,504z M499.7,501.2
		c-0.4,0.3-0.9,0.5-0.9,1l-0.1-0.2c-0.4-0.9-0.6-1.9-0.6-2.9c0-0.6,0.1-1.2,0.5-1.7c0.4-0.5,1-0.8,1.6-0.6c0.6,0.2,0.9,0.9,1,1.6
		C501.2,499.5,500.6,500.6,499.7,501.2z"/>
	<path class="st5" d="M646.7,360.6c3.3,0.4,6,2.9,8.4,5.3c41.3,42.4,62.5,100,81.4,156.1c-15.2-79.1-61.3-183.2-61.6-279.2
		c0-11.5,3.2-26.4,14.5-27.6c8.2-0.9,14.7,6.4,19.5,13.1c61.6,84.9,100.7,183.6,139.2,281.2c-17.9-82.1-47.4-161.6-87.3-235.5
		c-11.9-22-24.7-43.6-33.6-67c14.5-6.8,30.9,3,43.8,12.5c83.9,61.9,163.7,130,232.2,208.6c-68.3-91.7-154.2-170.4-251.5-230.5
		c23.8-0.3,46.6,8.4,68.9,16.7c65.4,24.2,131.9,45.4,199.3,63.4c-6.1-2.9-12.3-5.7-18.4-8.5c-0.7-0.3-1.3-0.6-2-0.9
		c-5.5-2.5-10.9-4.9-16.4-7.4c-1.2-0.5-2.4-1-3.5-1.6c-5-2.2-9.9-4.3-14.9-6.5c-1.6-0.7-3.2-1.4-4.7-2c-4.6-2-9.2-3.9-13.8-5.8
		c-1.9-0.8-3.7-1.6-5.6-2.3c-4.4-1.8-8.7-3.5-13.1-5.3c-2.1-0.8-4.1-1.6-6.2-2.5c-4.3-1.7-8.6-3.3-12.9-5c-2.1-0.8-4.2-1.6-6.4-2.4
		c-4.5-1.7-9-3.3-13.5-5c-1.9-0.7-3.8-1.4-5.8-2.1c-6.4-2.3-12.8-4.5-19.3-6.7c-48.6-16.5-99.6-29.9-150.8-25.9
		c-13.7,1.1-28.2,3.8-38.3,13.2c-9.2,8.6-13.5,21.3-16.8,33.5c-2.8,10.7-5.5,21.5-8.3,32.4c-1.5,6-3,12-4.5,18
		c-1.5,6-2.9,11.9-4.4,17.9c-0.2,0.7-0.4,1.4-0.5,2.1c-1.4,5.7-2.8,11.4-4.3,17.1c-0.2,0.7-0.4,1.5-0.6,2.2
		c-1.4,5.7-2.9,11.3-4.4,17c-0.2,0.7-0.4,1.4-0.6,2.2c-1.5,5.7-3,11.4-4.6,17c-0.2,0.6-0.4,1.3-0.5,1.9c-1.6,5.8-3.2,11.5-4.9,17.3
		c-0.1,0.4-0.3,0.9-0.4,1.3c-1.7,6-3.5,11.9-5.4,17.8c0,0.1-0.1,0.2-0.1,0.3c-1.9,6.1-3.9,12.3-6,18.3c7-17.4,14.9-34.5,26.4-49.3
		C637.7,364.1,641.8,360,646.7,360.6z"/>
	<path class="st4" d="M468.8,580.1c-16.9,1-33.5,5.3-48.7,12.7c7,2.6,14.2,4.6,21.6,6.1C451.1,593.3,460.2,587,468.8,580.1z"/>
	<path class="st4" d="M404.6,553.1c-0.8-0.3-1.5-0.5-2.3-0.8c-6.8-2.2-14-3.3-21.2-3.2c1.3,8.5,5,16.9,10.3,24.1
		c4.5-1.5,8.7-3.7,12.6-6.5c1.5-1.1,2.9-2.2,4.3-3.5c1-0.9,2-1.9,2.3-3.2C411.5,556.8,407.8,554.3,404.6,553.1z"/>
	<path class="st4" d="M431.2,574.9c-8.3-3.5-17.4-3.8-26.5-3c-4.3,0.4-8.7,1-13,1.8c4.2,5.4,9.3,10.1,15.2,13.4
		c0.9,0.5,1.8,1,2.7,1.4c3.4,1.6,6.9,3.1,10.4,4.4c5.2-2.3,10-5.5,14.1-9.5c0.8-0.8,1.5-1.6,1.8-2.6
		C436.5,578.1,433.7,575.9,431.2,574.9z"/>
	<path class="st7" d="M615.5,246.9c-17.6-10.4-35.2-20.8-54.2-28.3c-21.9-8.7-46.7-13.3-68.9-5.4c-30.3,10.8-48.2,41.9-60.1,71.8
		c-12.1,30.6-20.7,62.3-26.3,94.7c1.1,0.9,2.2,1.9,3.3,2.8c3.3,2.8,6.6,5.6,9.9,8.4c3.4,0.8,6.7,1.9,10,3.1
		c9.5,3.8,18.3,9.8,24,18.4c3.9,2.3,7.6,4.8,11.2,7.6c6.8,5.3,13.3,11.9,15.4,20.3c2.5,10-1.5,21.3,2.8,30.7
		c5.2,11.2,21,16.4,22.6,28.6c1,7.1-3.7,14.1-9.8,17.7c-6.2,3.7-13.5,4.6-20.7,4.9c-10.8,0.5-21.6-0.4-32.2-2.5
		c-12.1-2.3-23.8-6.3-34.8-11.8l-5,3.8c-1.2,0.6-2.3,1.2-3.5,1.9c0.7,12.9,1.8,25.8,3.2,38.7c0.8,0.2,1.5,0.5,2.3,0.8
		c3.2,1.2,6.9,3.7,6,7c-0.3,1.3-1.3,2.3-2.3,3.2c-1.4,1.2-2.8,2.4-4.3,3.5c0.2,1.7,0.4,3.4,0.7,5.1c9.1-0.8,18.1-0.4,26.5,3
		c2.5,1,5.3,3.1,4.7,5.8c-0.2,1-1,1.9-1.8,2.6c-4,4-8.8,7.3-14.1,9.5l0,0c15.2-7.4,31.8-11.8,48.7-12.7
		c47.5-37.9,81.9-92.9,105.4-149.8c23.4-56.6,38.1-116.2,55.6-174.9C625,252.5,620.3,249.7,615.5,246.9z"/>
	<path class="st0" d="M1147.1,340.1c-5.6-2.9-11.3-5.7-16.9-8.6c-1.8-0.9-3.5-1.8-5.3-2.7c-3.9-2-7.8-3.9-11.7-5.9
		c-2.2-1.1-4.4-2.2-6.6-3.3c-3.5-1.8-7-3.5-10.5-5.3c-2.3-1.2-4.7-2.3-7-3.5c-3.4-1.7-6.9-3.4-10.3-5.1c-2.3-1.1-4.7-2.3-7-3.4
		c-3.6-1.7-7.1-3.5-10.7-5.2c-2.2-1.1-4.3-2.1-6.5-3.2c-4.1-2-8.2-4-12.4-5.9c-1.6-0.8-3.2-1.5-4.8-2.3c-5.8-2.8-11.6-5.5-17.5-8.2
		c-67.4-18-133.9-39.2-199.3-63.4c-22.3-8.3-45.1-17-68.9-16.7c97.3,60.1,183.2,138.8,251.5,230.5
		C934.8,349.4,854.9,281.3,771,219.4c-12.8-9.5-29.3-19.3-43.8-12.5c8.9,23.4,21.7,45,33.6,67c39.9,73.9,69.4,153.4,87.3,235.5
		c-38.5-97.5-77.6-196.3-139.2-281.2c-4.8-6.7-11.4-14-19.5-13.1c-11.4,1.3-14.6,16.2-14.5,27.6c0.3,96,46.4,200.1,61.6,279.2
		c-18.9-56.1-40.1-113.7-81.4-156.1c-2.3-2.4-5-4.9-8.4-5.3c-4.9-0.6-9,3.5-12.1,7.4c-11.5,14.8-19.4,31.8-26.4,49.3
		c-14.9,43.9-33.6,86-59.7,123.7c-1.8,2.6-3.6,5.1-5.4,7.6c-2.5,3.5-5.1,6.9-7.8,10.3c-3.4,4.3-6.8,8.5-10.4,12.6
		c-0.3,0.4-0.6,0.8-1,1.1c-6.7,7.6-14.4,15.4-22.9,22.5c-2.1,1.8-4.3,3.5-6.5,5.1c0,0,0,0,0,0c-4.9,3.6-10,7-15.3,9.8
		c7.3-1.6,14.4-3.6,21.4-5.9c0.4-0.1,0.8-0.3,1.3-0.4c8.7-3,17.2-6.4,25.7-10.1c0,0,0,0,0,0c8.4-3.7,16.8-7.6,25.1-11.6
		c16.2-7.7,32.3-15.6,49-21.9c38.2-14.6,79.5-21.1,120.4-19.1c7.6,0.4,15.3,1,22.8-0.3c7.2-1.3,13.8-4.4,20.6-7
		c22.1-8.6,45.9-12.8,69.5-12.3c5.9,0.1,12.1,0.5,17.6-1.5c6.1-2.3,10.8-7.2,15.4-11.9c33.4-33.2,77.4-55.7,124-63.3
		c7.2-1.2,15-2.3,20-7.6c3-3.3,4.5-7.7,6.1-11.8c11.2-27.3,36.8-46.6,64.5-56.9c27.6-10.3,57.5-12.9,86.8-15.4
		C1161.9,348.7,1154.5,344.4,1147.1,340.1z"/>
	<g>
		<path class="st3" d="M680.9,173.6c-5.5-0.1-11.2,0-16.3,2.3c-9.2,4.2-13.6,14.7-17,24.2c-6.5,18.2-12.3,36.7-17.8,55.3
			c-17.5,58.7-32.2,118.4-55.6,174.9c-23.5,56.9-57.9,111.9-105.4,149.8c-8.6,6.9-17.6,13.2-27.1,18.8c-5,3-10.1,5.8-15.3,8.4
			c-1.8,0.9-3.6,1.8-5.4,2.6l7.6,5.6l5.3,3.9c6.6,1.1,13.2,1,19.6-0.1c8.9-1.5,17.5-4.7,25.7-9.1c5.3-2.9,10.4-6.2,15.3-9.8
			c0,0,0,0,0,0c2.2-1.7,4.4-3.4,6.5-5.1c8.5-7.1,16.3-14.9,22.9-22.5c0.3-0.4,0.6-0.8,1-1.1c3.6-4.1,7.1-8.4,10.4-12.6
			c2.7-3.4,5.3-6.8,7.8-10.3c1.8-2.5,3.7-5.1,5.4-7.6c26.1-37.7,44.8-79.9,59.7-123.7C625,368,637,316.6,649.4,266.9
			c2.7-10.9,5.5-21.7,8.3-32.4c3.2-12.2,7.5-24.8,16.8-33.5c10-9.4,24.5-12.2,38.3-13.2c51.2-4,102.1,9.4,150.8,25.9
			c53.4,18.1,105.4,40.1,156.5,63.9c5.8,2.7,11.7,5.5,17.5,8.2c1.6,0.8,3.2,1.5,4.8,2.3c4.1,2,8.2,3.9,12.4,5.9
			c2.2,1,4.3,2.1,6.5,3.2c3.6,1.7,7.1,3.5,10.7,5.2c2.3,1.1,4.7,2.3,7,3.4c3.4,1.7,6.9,3.4,10.3,5.1c2.3,1.2,4.7,2.3,7,3.5
			c3.5,1.8,7,3.5,10.5,5.3c2.2,1.1,4.4,2.2,6.6,3.3c3.9,2,7.8,3.9,11.7,5.9c1.8,0.9,3.5,1.8,5.3,2.7c5.6,2.9,11.3,5.7,16.9,8.6
			c8.3,4.2,16.6,8.4,24.9,12.7C1023.7,256.9,857.5,175.8,680.9,173.6z M475.2,602L475.2,602c0.1-0.1,0.1-0.1,0.2-0.1
			C475.3,602,475.3,602,475.2,602z"/>
	</g>
</g>
</svg>
