<?xml version="1.0" encoding="utf-8"?>
<!-- Designed by Vexels.com - 2019 All Rights Reserved - https://vexels.com/terms-and-conditions/  -->
<svg version="1.1" id="Capa_1" xmlns="http://www.w3.org/2000/svg" xmlns:xlink="http://www.w3.org/1999/xlink" x="0px" y="0px"
	 viewBox="0 0 1200 1200" enable-background="new 0 0 1200 1200" xml:space="preserve">
<g>
	<path fill="#82E0DD" d="M808.583,1104.322L617.486,533.18h-31.073l-191.097,571.142h-68.822V1150h548.209v-45.678H808.583z
		 M601.949,580.213l175.359,524.109H426.59L601.949,580.213z"/>
	<path fill="#4CBDCE" d="M602.265,60.542c-242.581,0-439.936,197.354-439.936,439.935c0,116.323,45.399,222.227,119.384,300.976
		l21.02,20.921c78.599,73.187,183.918,118.038,299.532,118.038c242.581,0,439.934-197.353,439.934-439.935
		C1042.199,257.896,844.846,60.542,602.265,60.542z M617.095,120.178c94.126,3.626,179.586,41.586,244.195,101.697L617.095,466.07
		V120.178z M587.435,467.286L342.61,222.459c64.683-60.449,150.393-98.644,244.825-102.282V467.286z M617.095,536.462
		L860.473,779.84c-64.511,59.671-149.649,97.326-243.378,100.937V536.462z M882.211,242.896
		c59.629,64.757,97.127,150.172,100.405,244.148H638.064L882.211,242.896z M322.901,242.268l244.776,244.776H221.911
		C225.199,392.763,262.933,307.1,322.901,242.268z M222.017,516.703h344.445l-242.8,242.801
		C263.848,695.215,225.963,610.28,222.017,516.703z M587.435,537.672v343.105c-93.426-3.599-178.317-41.018-242.753-100.352
		L587.435,537.672z M880.28,760.133L636.852,516.703H982.51C978.552,610.585,940.432,695.769,880.28,760.133z"/>
	<g>
		<path fill="#FF5059" d="M254.274,482.07v-25.258H128.853l0.142,44.056l0,0v11.074c0,34.659,28.097,62.755,62.756,62.755h0
			c34.659,0,62.569-28.128,62.569-62.787L254.274,482.07z"/>
		<g>
			<polygon fill="#FF9797" points="254.274,456.812 128.853,456.812 128.995,500.868 254.274,500.869 			"/>
		</g>
		<g>
			<circle fill="#EBEFF4" cx="193.076" cy="501.799" r="21.485"/>
		</g>
	</g>
	<g>
		<path fill="#FF5059" d="M1071.101,482.07v-25.258H945.681l0.142,44.056l0,0v11.074c0,34.659,28.097,62.755,62.756,62.755h0
			c34.659,0,62.569-28.128,62.569-62.787L1071.101,482.07z"/>
		<g>
			<polygon fill="#FF9797" points="1071.101,456.812 945.681,456.812 945.823,500.868 1071.101,500.869 			"/>
		</g>
		<g>
			<circle fill="#EBEFF4" cx="1009.903" cy="501.799" r="21.485"/>
		</g>
	</g>
	<g>
		<path fill="#FF5059" d="M662.154,75.258V50H536.733l0.142,44.056l0,0v11.074c0,34.659,28.097,62.755,62.756,62.755h0
			c34.659,0,62.569-28.128,62.569-62.787L662.154,75.258z"/>
		<g>
			<polygon fill="#FF9797" points="662.154,50 536.733,50 536.875,94.056 662.154,94.056 			"/>
		</g>
		<g>
			<circle fill="#EBEFF4" cx="600.956" cy="94.987" r="21.485"/>
		</g>
	</g>
	<g>
		<path fill="#FF5059" d="M664.289,887.516v-25.258H538.868l0.142,44.056l0,0v11.074c0,34.659,28.097,62.755,62.756,62.755h0
			c34.659,0,62.569-28.128,62.569-62.787L664.289,887.516z"/>
		<g>
			<polygon fill="#FF9797" points="664.289,862.258 538.868,862.258 539.01,906.314 664.289,906.314 			"/>
		</g>
		<g>
			<circle fill="#EBEFF4" cx="603.091" cy="907.245" r="21.485"/>
		</g>
	</g>
	<g>
		<path fill="#FFA830" d="M373.862,188.439v-25.258H248.441l0.142,44.056l0,0v11.074c0,34.659,28.097,62.755,62.756,62.755h0
			c34.659,0,62.569-28.128,62.569-62.787L373.862,188.439z"/>
		<g>
			<polygon fill="#F9D1A5" points="373.862,163.181 248.441,163.181 248.583,207.238 373.862,207.238 			"/>
		</g>
		<g>
			<circle fill="#EBEFF4" cx="312.664" cy="208.168" r="21.485"/>
		</g>
	</g>
	<g>
		<path fill="#FFA830" d="M372.794,771.43v-25.258H247.373l0.142,44.056l0,0v11.074c0,34.659,28.097,62.755,62.756,62.755h0
			c34.659,0,62.569-28.128,62.569-62.787L372.794,771.43z"/>
		<g>
			<polygon fill="#F9D1A5" points="372.794,746.172 247.373,746.172 247.515,790.228 372.794,790.228 			"/>
		</g>
		<g>
			<circle fill="#EBEFF4" cx="311.596" cy="791.159" r="21.485"/>
		</g>
	</g>
	<g>
		<path fill="#FFA830" d="M953.649,770.362v-25.258H828.228l0.142,44.056v0v11.074c0,34.659,28.097,62.755,62.756,62.755h0
			c34.659,0,62.569-28.128,62.569-62.787L953.649,770.362z"/>
		<g>
			<polygon fill="#F9D1A5" points="953.649,745.104 828.228,745.104 828.37,789.161 953.649,789.161 			"/>
		</g>
		<g>
			<circle fill="#EBEFF4" cx="892.451" cy="790.091" r="21.485"/>
		</g>
	</g>
	<g>
		<path fill="#FFA830" d="M950.446,192.71v-25.258H825.025l0.142,44.056v0v11.074c0,34.659,28.097,62.755,62.756,62.755h0
			c34.659,0,62.569-28.128,62.569-62.787L950.446,192.71z"/>
		<g>
			<polygon fill="#F9D1A5" points="950.446,167.452 825.025,167.452 825.167,211.509 950.446,211.509 			"/>
		</g>
		<g>
			<circle fill="#EBEFF4" cx="889.248" cy="212.439" r="21.485"/>
		</g>
	</g>
	<g>
		<circle fill="#005266" cx="602.264" cy="500.477" r="164.022"/>
	</g>
	<g>
		<circle fill="#EBEFF4" cx="602.991" cy="500.34" r="62.051"/>
	</g>
</g>
</svg>
